Track 1: size = 5

@0 Other message: class javax.sound.midi.MetaMessage
@0 Other message: class javax.sound.midi.MetaMessage
@0 Other message: class javax.sound.midi.MetaMessage
@0 Other message: class javax.sound.midi.MetaMessage
@0 Other message: class javax.sound.midi.Track$ImmutableEndOfTrack

Track 2: size = 5889

@0 Other message: class javax.sound.midi.MetaMessage
@0 Other message: class javax.sound.midi.MetaMessage
@0 Channel: 8 Command:192
@0 Channel: 8 Command:176
@0 Channel: 8 Command:176
@0 Channel: 8 Command:176
@0 Channel: 8 Command:176
@0 Channel: 8 Note on, C4 key=60 velocity: 118
@0 Channel: 8 Note on, G3 key=55 velocity: 118
@0 Channel: 8 Note on, E4 key=64 velocity: 118
@13 Channel: 8 Note on, E4 key=64 velocity: 0
@13 Channel: 8 Note on, G3 key=55 velocity: 0
@13 Channel: 8 Note on, C4 key=60 velocity: 0
@60 Channel: 8 Note on, E4 key=64 velocity: 119
@60 Channel: 8 Note on, G3 key=55 velocity: 119
@60 Channel: 8 Note on, C4 key=60 velocity: 119
@65 Channel: 8 Note on, C4 key=60 velocity: 0
@65 Channel: 8 Note on, G3 key=55 velocity: 0
@65 Channel: 8 Note on, E4 key=64 velocity: 0
@90 Channel: 8 Note on, C4 key=60 velocity: 119
@90 Channel: 8 Note on, G3 key=55 velocity: 119
@90 Channel: 8 Note on, E4 key=64 velocity: 119
@103 Channel: 8 Note on, E4 key=64 velocity: 0
@103 Channel: 8 Note on, G3 key=55 velocity: 0
@103 Channel: 8 Note on, C4 key=60 velocity: 0
@150 Channel: 8 Note on, G3 key=55 velocity: 119
@150 Channel: 8 Note on, C4 key=60 velocity: 119
@150 Channel: 8 Note on, E4 key=64 velocity: 119
@155 Channel: 8 Note on, E4 key=64 velocity: 0
@155 Channel: 8 Note on, C4 key=60 velocity: 0
@155 Channel: 8 Note on, G3 key=55 velocity: 0
@180 Channel: 8 Note on, G3 key=55 velocity: 119
@180 Channel: 8 Note on, C4 key=60 velocity: 119
@180 Channel: 8 Note on, E4 key=64 velocity: 119
@193 Channel: 8 Note on, E4 key=64 velocity: 0
@193 Channel: 8 Note on, C4 key=60 velocity: 0
@193 Channel: 8 Note on, G3 key=55 velocity: 0
@240 Channel: 8 Note on, F4 key=65 velocity: 119
@240 Channel: 8 Note on, G3 key=55 velocity: 119
@240 Channel: 8 Note on, C4 key=60 velocity: 119
@253 Channel: 8 Note on, C4 key=60 velocity: 0
@253 Channel: 8 Note on, G3 key=55 velocity: 0
@253 Channel: 8 Note on, F4 key=65 velocity: 0
@300 Channel: 8 Note on, G3 key=55 velocity: 120
@300 Channel: 8 Note on, C4 key=60 velocity: 120
@300 Channel: 8 Note on, F4 key=65 velocity: 120
@305 Channel: 8 Note on, F4 key=65 velocity: 0
@305 Channel: 8 Note on, C4 key=60 velocity: 0
@305 Channel: 8 Note on, G3 key=55 velocity: 0
@330 Channel: 8 Note on, F4 key=65 velocity: 120
@330 Channel: 8 Note on, C4 key=60 velocity: 120
@330 Channel: 8 Note on, G3 key=55 velocity: 120
@343 Channel: 8 Note on, G3 key=55 velocity: 0
@343 Channel: 8 Note on, C4 key=60 velocity: 0
@343 Channel: 8 Note on, F4 key=65 velocity: 0
@390 Channel: 8 Note on, G3 key=55 velocity: 120
@390 Channel: 8 Note on, C4 key=60 velocity: 120
@390 Channel: 8 Note on, F4 key=65 velocity: 120
@395 Channel: 8 Note on, F4 key=65 velocity: 0
@395 Channel: 8 Note on, C4 key=60 velocity: 0
@395 Channel: 8 Note on, G3 key=55 velocity: 0
@420 Channel: 8 Note on, F4 key=65 velocity: 120
@420 Channel: 8 Note on, G3 key=55 velocity: 120
@420 Channel: 8 Note on, C4 key=60 velocity: 120
@433 Channel: 8 Note on, C4 key=60 velocity: 0
@433 Channel: 8 Note on, G3 key=55 velocity: 0
@433 Channel: 8 Note on, F4 key=65 velocity: 0
@480 Channel: 8 Note on, C4 key=60 velocity: 120
@480 Channel: 8 Note on, G3 key=55 velocity: 120
@480 Channel: 8 Note on, E4 key=64 velocity: 120
@493 Channel: 8 Note on, E4 key=64 velocity: 0
@493 Channel: 8 Note on, G3 key=55 velocity: 0
@493 Channel: 8 Note on, C4 key=60 velocity: 0
@540 Channel: 8 Note on, E4 key=64 velocity: 120
@540 Channel: 8 Note on, G3 key=55 velocity: 120
@540 Channel: 8 Note on, C4 key=60 velocity: 120
@545 Channel: 8 Note on, C4 key=60 velocity: 0
@545 Channel: 8 Note on, G3 key=55 velocity: 0
@545 Channel: 8 Note on, E4 key=64 velocity: 0
@570 Channel: 8 Note on, C4 key=60 velocity: 120
@570 Channel: 8 Note on, G3 key=55 velocity: 120
@570 Channel: 8 Note on, E4 key=64 velocity: 120
@583 Channel: 8 Note on, E4 key=64 velocity: 0
@583 Channel: 8 Note on, G3 key=55 velocity: 0
@583 Channel: 8 Note on, C4 key=60 velocity: 0
@630 Channel: 8 Note on, G3 key=55 velocity: 120
@630 Channel: 8 Note on, C4 key=60 velocity: 120
@630 Channel: 8 Note on, E4 key=64 velocity: 120
@635 Channel: 8 Note on, E4 key=64 velocity: 0
@635 Channel: 8 Note on, C4 key=60 velocity: 0
@635 Channel: 8 Note on, G3 key=55 velocity: 0
@660 Channel: 8 Note on, G3 key=55 velocity: 120
@660 Channel: 8 Note on, C4 key=60 velocity: 120
@660 Channel: 8 Note on, E4 key=64 velocity: 120
@673 Channel: 8 Note on, E4 key=64 velocity: 0
@673 Channel: 8 Note on, C4 key=60 velocity: 0
@673 Channel: 8 Note on, G3 key=55 velocity: 0
@720 Channel: 8 Note on, F4 key=65 velocity: 120
@720 Channel: 8 Note on, G3 key=55 velocity: 120
@720 Channel: 8 Note on, C4 key=60 velocity: 120
@733 Channel: 8 Note on, C4 key=60 velocity: 0
@733 Channel: 8 Note on, G3 key=55 velocity: 0
@733 Channel: 8 Note on, F4 key=65 velocity: 0
@780 Channel: 8 Note on, G3 key=55 velocity: 120
@780 Channel: 8 Note on, C4 key=60 velocity: 120
@780 Channel: 8 Note on, F4 key=65 velocity: 120
@785 Channel: 8 Note on, F4 key=65 velocity: 0
@785 Channel: 8 Note on, C4 key=60 velocity: 0
@785 Channel: 8 Note on, G3 key=55 velocity: 0
@810 Channel: 8 Note on, F4 key=65 velocity: 120
@810 Channel: 8 Note on, C4 key=60 velocity: 120
@810 Channel: 8 Note on, G3 key=55 velocity: 120
@823 Channel: 8 Note on, G3 key=55 velocity: 0
@823 Channel: 8 Note on, C4 key=60 velocity: 0
@823 Channel: 8 Note on, F4 key=65 velocity: 0
@870 Channel: 8 Note on, G3 key=55 velocity: 120
@870 Channel: 8 Note on, C4 key=60 velocity: 120
@870 Channel: 8 Note on, F4 key=65 velocity: 120
@875 Channel: 8 Note on, F4 key=65 velocity: 0
@875 Channel: 8 Note on, C4 key=60 velocity: 0
@875 Channel: 8 Note on, G3 key=55 velocity: 0
@900 Channel: 8 Note on, F4 key=65 velocity: 120
@900 Channel: 8 Note on, G3 key=55 velocity: 120
@900 Channel: 8 Note on, C4 key=60 velocity: 120
@913 Channel: 8 Note on, C4 key=60 velocity: 0
@913 Channel: 8 Note on, G3 key=55 velocity: 0
@913 Channel: 8 Note on, F4 key=65 velocity: 0
@960 Channel: 8 Note on, C4 key=60 velocity: 120
@960 Channel: 8 Note on, G3 key=55 velocity: 120
@960 Channel: 8 Note on, E4 key=64 velocity: 120
@973 Channel: 8 Note on, E4 key=64 velocity: 0
@973 Channel: 8 Note on, G3 key=55 velocity: 0
@973 Channel: 8 Note on, C4 key=60 velocity: 0
@1020 Channel: 8 Note on, E4 key=64 velocity: 120
@1020 Channel: 8 Note on, G3 key=55 velocity: 120
@1020 Channel: 8 Note on, C4 key=60 velocity: 120
@1025 Channel: 8 Note on, C4 key=60 velocity: 0
@1025 Channel: 8 Note on, G3 key=55 velocity: 0
@1025 Channel: 8 Note on, E4 key=64 velocity: 0
@1050 Channel: 8 Note on, C4 key=60 velocity: 121
@1050 Channel: 8 Note on, G3 key=55 velocity: 121
@1050 Channel: 8 Note on, E4 key=64 velocity: 121
@1063 Channel: 8 Note on, E4 key=64 velocity: 0
@1063 Channel: 8 Note on, G3 key=55 velocity: 0
@1063 Channel: 8 Note on, C4 key=60 velocity: 0
@1110 Channel: 8 Note on, G3 key=55 velocity: 121
@1110 Channel: 8 Note on, C4 key=60 velocity: 121
@1110 Channel: 8 Note on, E4 key=64 velocity: 121
@1115 Channel: 8 Note on, E4 key=64 velocity: 0
@1115 Channel: 8 Note on, C4 key=60 velocity: 0
@1115 Channel: 8 Note on, G3 key=55 velocity: 0
@1140 Channel: 8 Note on, G3 key=55 velocity: 121
@1140 Channel: 8 Note on, C4 key=60 velocity: 121
@1140 Channel: 8 Note on, E4 key=64 velocity: 121
@1153 Channel: 8 Note on, E4 key=64 velocity: 0
@1153 Channel: 8 Note on, C4 key=60 velocity: 0
@1153 Channel: 8 Note on, G3 key=55 velocity: 0
@1200 Channel: 8 Note on, F4 key=65 velocity: 121
@1200 Channel: 8 Note on, G3 key=55 velocity: 121
@1200 Channel: 8 Note on, C4 key=60 velocity: 121
@1213 Channel: 8 Note on, C4 key=60 velocity: 0
@1213 Channel: 8 Note on, G3 key=55 velocity: 0
@1213 Channel: 8 Note on, F4 key=65 velocity: 0
@1260 Channel: 8 Note on, G3 key=55 velocity: 121
@1260 Channel: 8 Note on, C4 key=60 velocity: 121
@1260 Channel: 8 Note on, F4 key=65 velocity: 121
@1265 Channel: 8 Note on, F4 key=65 velocity: 0
@1265 Channel: 8 Note on, C4 key=60 velocity: 0
@1265 Channel: 8 Note on, G3 key=55 velocity: 0
@1290 Channel: 8 Note on, F4 key=65 velocity: 121
@1290 Channel: 8 Note on, C4 key=60 velocity: 121
@1290 Channel: 8 Note on, G3 key=55 velocity: 121
@1303 Channel: 8 Note on, G3 key=55 velocity: 0
@1303 Channel: 8 Note on, C4 key=60 velocity: 0
@1303 Channel: 8 Note on, F4 key=65 velocity: 0
@1350 Channel: 8 Note on, G3 key=55 velocity: 121
@1350 Channel: 8 Note on, C4 key=60 velocity: 121
@1350 Channel: 8 Note on, F4 key=65 velocity: 121
@1355 Channel: 8 Note on, F4 key=65 velocity: 0
@1355 Channel: 8 Note on, C4 key=60 velocity: 0
@1355 Channel: 8 Note on, G3 key=55 velocity: 0
@1380 Channel: 8 Note on, F4 key=65 velocity: 121
@1380 Channel: 8 Note on, G3 key=55 velocity: 121
@1380 Channel: 8 Note on, C4 key=60 velocity: 121
@1393 Channel: 8 Note on, C4 key=60 velocity: 0
@1393 Channel: 8 Note on, G3 key=55 velocity: 0
@1393 Channel: 8 Note on, F4 key=65 velocity: 0
@1440 Channel: 8 Note on, C4 key=60 velocity: 121
@1440 Channel: 8 Note on, G3 key=55 velocity: 121
@1440 Channel: 8 Note on, E4 key=64 velocity: 121
@1453 Channel: 8 Note on, E4 key=64 velocity: 0
@1453 Channel: 8 Note on, G3 key=55 velocity: 0
@1453 Channel: 8 Note on, C4 key=60 velocity: 0
@1500 Channel: 8 Note on, E4 key=64 velocity: 121
@1500 Channel: 8 Note on, G3 key=55 velocity: 121
@1500 Channel: 8 Note on, C4 key=60 velocity: 121
@1505 Channel: 8 Note on, C4 key=60 velocity: 0
@1505 Channel: 8 Note on, G3 key=55 velocity: 0
@1505 Channel: 8 Note on, E4 key=64 velocity: 0
@1530 Channel: 8 Note on, C4 key=60 velocity: 121
@1530 Channel: 8 Note on, G3 key=55 velocity: 121
@1530 Channel: 8 Note on, E4 key=64 velocity: 121
@1543 Channel: 8 Note on, E4 key=64 velocity: 0
@1543 Channel: 8 Note on, G3 key=55 velocity: 0
@1543 Channel: 8 Note on, C4 key=60 velocity: 0
@1590 Channel: 8 Note on, G3 key=55 velocity: 121
@1590 Channel: 8 Note on, C4 key=60 velocity: 121
@1590 Channel: 8 Note on, E4 key=64 velocity: 121
@1595 Channel: 8 Note on, E4 key=64 velocity: 0
@1595 Channel: 8 Note on, C4 key=60 velocity: 0
@1595 Channel: 8 Note on, G3 key=55 velocity: 0
@1620 Channel: 8 Note on, G3 key=55 velocity: 121
@1620 Channel: 8 Note on, C4 key=60 velocity: 121
@1620 Channel: 8 Note on, E4 key=64 velocity: 121
@1633 Channel: 8 Note on, E4 key=64 velocity: 0
@1633 Channel: 8 Note on, C4 key=60 velocity: 0
@1633 Channel: 8 Note on, G3 key=55 velocity: 0
@1680 Channel: 8 Note on, F4 key=65 velocity: 121
@1680 Channel: 8 Note on, G3 key=55 velocity: 121
@1680 Channel: 8 Note on, C4 key=60 velocity: 121
@1693 Channel: 8 Note on, C4 key=60 velocity: 0
@1693 Channel: 8 Note on, G3 key=55 velocity: 0
@1693 Channel: 8 Note on, F4 key=65 velocity: 0
@1740 Channel: 8 Note on, G3 key=55 velocity: 121
@1740 Channel: 8 Note on, C4 key=60 velocity: 121
@1740 Channel: 8 Note on, F4 key=65 velocity: 121
@1745 Channel: 8 Note on, F4 key=65 velocity: 0
@1745 Channel: 8 Note on, C4 key=60 velocity: 0
@1745 Channel: 8 Note on, G3 key=55 velocity: 0
@1770 Channel: 8 Note on, F4 key=65 velocity: 121
@1770 Channel: 8 Note on, C4 key=60 velocity: 121
@1770 Channel: 8 Note on, G3 key=55 velocity: 121
@1783 Channel: 8 Note on, G3 key=55 velocity: 0
@1783 Channel: 8 Note on, C4 key=60 velocity: 0
@1783 Channel: 8 Note on, F4 key=65 velocity: 0
@1830 Channel: 8 Note on, G3 key=55 velocity: 121
@1830 Channel: 8 Note on, C4 key=60 velocity: 121
@1830 Channel: 8 Note on, F4 key=65 velocity: 121
@1835 Channel: 8 Note on, F4 key=65 velocity: 0
@1835 Channel: 8 Note on, C4 key=60 velocity: 0
@1835 Channel: 8 Note on, G3 key=55 velocity: 0
@1860 Channel: 8 Note on, F4 key=65 velocity: 121
@1860 Channel: 8 Note on, G3 key=55 velocity: 121
@1860 Channel: 8 Note on, C4 key=60 velocity: 121
@1873 Channel: 8 Note on, C4 key=60 velocity: 0
@1873 Channel: 8 Note on, G3 key=55 velocity: 0
@1873 Channel: 8 Note on, F4 key=65 velocity: 0
@1920 Channel: 8 Note on, C4 key=60 velocity: 121
@1920 Channel: 8 Note on, G3 key=55 velocity: 121
@1920 Channel: 8 Note on, E4 key=64 velocity: 121
@1933 Channel: 8 Note on, E4 key=64 velocity: 0
@1933 Channel: 8 Note on, G3 key=55 velocity: 0
@1933 Channel: 8 Note on, C4 key=60 velocity: 0
@1980 Channel: 8 Note on, E4 key=64 velocity: 121
@1980 Channel: 8 Note on, G3 key=55 velocity: 121
@1980 Channel: 8 Note on, C4 key=60 velocity: 121
@1985 Channel: 8 Note on, C4 key=60 velocity: 0
@1985 Channel: 8 Note on, G3 key=55 velocity: 0
@1985 Channel: 8 Note on, E4 key=64 velocity: 0
@2010 Channel: 8 Note on, C4 key=60 velocity: 121
@2010 Channel: 8 Note on, G3 key=55 velocity: 121
@2010 Channel: 8 Note on, E4 key=64 velocity: 121
@2023 Channel: 8 Note on, E4 key=64 velocity: 0
@2023 Channel: 8 Note on, G3 key=55 velocity: 0
@2023 Channel: 8 Note on, C4 key=60 velocity: 0
@2070 Channel: 8 Note on, G3 key=55 velocity: 121
@2070 Channel: 8 Note on, C4 key=60 velocity: 121
@2070 Channel: 8 Note on, E4 key=64 velocity: 121
@2075 Channel: 8 Note on, E4 key=64 velocity: 0
@2075 Channel: 8 Note on, C4 key=60 velocity: 0
@2075 Channel: 8 Note on, G3 key=55 velocity: 0
@2100 Channel: 8 Note on, G3 key=55 velocity: 121
@2100 Channel: 8 Note on, C4 key=60 velocity: 121
@2100 Channel: 8 Note on, E4 key=64 velocity: 121
@2113 Channel: 8 Note on, E4 key=64 velocity: 0
@2113 Channel: 8 Note on, C4 key=60 velocity: 0
@2113 Channel: 8 Note on, G3 key=55 velocity: 0
@2160 Channel: 8 Note on, F4 key=65 velocity: 121
@2160 Channel: 8 Note on, G3 key=55 velocity: 121
@2160 Channel: 8 Note on, C4 key=60 velocity: 121
@2173 Channel: 8 Note on, C4 key=60 velocity: 0
@2173 Channel: 8 Note on, G3 key=55 velocity: 0
@2173 Channel: 8 Note on, F4 key=65 velocity: 0
@2220 Channel: 8 Note on, G3 key=55 velocity: 121
@2220 Channel: 8 Note on, C4 key=60 velocity: 121
@2220 Channel: 8 Note on, F4 key=65 velocity: 121
@2225 Channel: 8 Note on, F4 key=65 velocity: 0
@2225 Channel: 8 Note on, C4 key=60 velocity: 0
@2225 Channel: 8 Note on, G3 key=55 velocity: 0
@2250 Channel: 8 Note on, F4 key=65 velocity: 121
@2250 Channel: 8 Note on, C4 key=60 velocity: 121
@2250 Channel: 8 Note on, G3 key=55 velocity: 121
@2263 Channel: 8 Note on, G3 key=55 velocity: 0
@2263 Channel: 8 Note on, C4 key=60 velocity: 0
@2263 Channel: 8 Note on, F4 key=65 velocity: 0
@2310 Channel: 8 Note on, G3 key=55 velocity: 121
@2310 Channel: 8 Note on, C4 key=60 velocity: 121
@2310 Channel: 8 Note on, F4 key=65 velocity: 121
@2315 Channel: 8 Note on, F4 key=65 velocity: 0
@2315 Channel: 8 Note on, C4 key=60 velocity: 0
@2315 Channel: 8 Note on, G3 key=55 velocity: 0
@2340 Channel: 8 Note on, F4 key=65 velocity: 121
@2340 Channel: 8 Note on, G3 key=55 velocity: 121
@2340 Channel: 8 Note on, C4 key=60 velocity: 121
@2353 Channel: 8 Note on, C4 key=60 velocity: 0
@2353 Channel: 8 Note on, G3 key=55 velocity: 0
@2353 Channel: 8 Note on, F4 key=65 velocity: 0
@2400 Channel: 8 Note on, C4 key=60 velocity: 121
@2400 Channel: 8 Note on, G3 key=55 velocity: 121
@2400 Channel: 8 Note on, E4 key=64 velocity: 121
@2413 Channel: 8 Note on, E4 key=64 velocity: 0
@2413 Channel: 8 Note on, G3 key=55 velocity: 0
@2413 Channel: 8 Note on, C4 key=60 velocity: 0
@2460 Channel: 8 Note on, E4 key=64 velocity: 121
@2460 Channel: 8 Note on, G3 key=55 velocity: 121
@2460 Channel: 8 Note on, C4 key=60 velocity: 121
@2465 Channel: 8 Note on, C4 key=60 velocity: 0
@2465 Channel: 8 Note on, G3 key=55 velocity: 0
@2465 Channel: 8 Note on, E4 key=64 velocity: 0
@2490 Channel: 8 Note on, C4 key=60 velocity: 120
@2490 Channel: 8 Note on, G3 key=55 velocity: 120
@2490 Channel: 8 Note on, E4 key=64 velocity: 120
@2503 Channel: 8 Note on, E4 key=64 velocity: 0
@2503 Channel: 8 Note on, G3 key=55 velocity: 0
@2503 Channel: 8 Note on, C4 key=60 velocity: 0
@2550 Channel: 8 Note on, G3 key=55 velocity: 120
@2550 Channel: 8 Note on, C4 key=60 velocity: 120
@2550 Channel: 8 Note on, E4 key=64 velocity: 120
@2555 Channel: 8 Note on, E4 key=64 velocity: 0
@2555 Channel: 8 Note on, C4 key=60 velocity: 0
@2555 Channel: 8 Note on, G3 key=55 velocity: 0
@2580 Channel: 8 Note on, G3 key=55 velocity: 120
@2580 Channel: 8 Note on, C4 key=60 velocity: 120
@2580 Channel: 8 Note on, E4 key=64 velocity: 120
@2593 Channel: 8 Note on, E4 key=64 velocity: 0
@2593 Channel: 8 Note on, C4 key=60 velocity: 0
@2593 Channel: 8 Note on, G3 key=55 velocity: 0
@2640 Channel: 8 Note on, F4 key=65 velocity: 119
@2640 Channel: 8 Note on, G3 key=55 velocity: 119
@2640 Channel: 8 Note on, C4 key=60 velocity: 119
@2653 Channel: 8 Note on, C4 key=60 velocity: 0
@2653 Channel: 8 Note on, G3 key=55 velocity: 0
@2653 Channel: 8 Note on, F4 key=65 velocity: 0
@2700 Channel: 8 Note on, G3 key=55 velocity: 119
@2700 Channel: 8 Note on, C4 key=60 velocity: 119
@2700 Channel: 8 Note on, F4 key=65 velocity: 119
@2705 Channel: 8 Note on, F4 key=65 velocity: 0
@2705 Channel: 8 Note on, C4 key=60 velocity: 0
@2705 Channel: 8 Note on, G3 key=55 velocity: 0
@2730 Channel: 8 Note on, F4 key=65 velocity: 119
@2730 Channel: 8 Note on, C4 key=60 velocity: 119
@2730 Channel: 8 Note on, G3 key=55 velocity: 119
@2743 Channel: 8 Note on, G3 key=55 velocity: 0
@2743 Channel: 8 Note on, C4 key=60 velocity: 0
@2743 Channel: 8 Note on, F4 key=65 velocity: 0
@2790 Channel: 8 Note on, G3 key=55 velocity: 119
@2790 Channel: 8 Note on, C4 key=60 velocity: 119
@2790 Channel: 8 Note on, F4 key=65 velocity: 119
@2795 Channel: 8 Note on, F4 key=65 velocity: 0
@2795 Channel: 8 Note on, C4 key=60 velocity: 0
@2795 Channel: 8 Note on, G3 key=55 velocity: 0
@2820 Channel: 8 Note on, F4 key=65 velocity: 119
@2820 Channel: 8 Note on, G3 key=55 velocity: 119
@2820 Channel: 8 Note on, C4 key=60 velocity: 119
@2833 Channel: 8 Note on, C4 key=60 velocity: 0
@2833 Channel: 8 Note on, G3 key=55 velocity: 0
@2833 Channel: 8 Note on, F4 key=65 velocity: 0
@2880 Channel: 8 Note on, B3 key=59 velocity: 119
@2880 Channel: 8 Note on, D4 key=62 velocity: 119
@2880 Channel: 8 Note on, G3 key=55 velocity: 119
@2893 Channel: 8 Note on, G3 key=55 velocity: 0
@2893 Channel: 8 Note on, D4 key=62 velocity: 0
@2893 Channel: 8 Note on, B3 key=59 velocity: 0
@2940 Channel: 8 Note on, G3 key=55 velocity: 119
@2940 Channel: 8 Note on, D4 key=62 velocity: 119
@2940 Channel: 8 Note on, B3 key=59 velocity: 119
@2945 Channel: 8 Note on, B3 key=59 velocity: 0
@2945 Channel: 8 Note on, D4 key=62 velocity: 0
@2945 Channel: 8 Note on, G3 key=55 velocity: 0
@2970 Channel: 8 Note on, D4 key=62 velocity: 119
@2970 Channel: 8 Note on, G3 key=55 velocity: 119
@2970 Channel: 8 Note on, B3 key=59 velocity: 119
@2983 Channel: 8 Note on, B3 key=59 velocity: 0
@2983 Channel: 8 Note on, G3 key=55 velocity: 0
@2983 Channel: 8 Note on, D4 key=62 velocity: 0
@3030 Channel: 8 Note on, D4 key=62 velocity: 119
@3030 Channel: 8 Note on, G3 key=55 velocity: 119
@3030 Channel: 8 Note on, B3 key=59 velocity: 119
@3035 Channel: 8 Note on, B3 key=59 velocity: 0
@3035 Channel: 8 Note on, G3 key=55 velocity: 0
@3035 Channel: 8 Note on, D4 key=62 velocity: 0
@3060 Channel: 8 Note on, D4 key=62 velocity: 119
@3060 Channel: 8 Note on, B3 key=59 velocity: 119
@3060 Channel: 8 Note on, G3 key=55 velocity: 119
@3073 Channel: 8 Note on, G3 key=55 velocity: 0
@3073 Channel: 8 Note on, B3 key=59 velocity: 0
@3073 Channel: 8 Note on, D4 key=62 velocity: 0
@3120 Channel: 8 Note on, D4 key=62 velocity: 121
@3120 Channel: 8 Note on, G3 key=55 velocity: 121
@3120 Channel: 8 Note on, C4 key=60 velocity: 121
@3133 Channel: 8 Note on, C4 key=60 velocity: 0
@3133 Channel: 8 Note on, G3 key=55 velocity: 0
@3133 Channel: 8 Note on, D4 key=62 velocity: 0
@3180 Channel: 8 Note on, D4 key=62 velocity: 121
@3180 Channel: 8 Note on, G3 key=55 velocity: 121
@3180 Channel: 8 Note on, C4 key=60 velocity: 121
@3185 Channel: 8 Note on, C4 key=60 velocity: 0
@3185 Channel: 8 Note on, G3 key=55 velocity: 0
@3185 Channel: 8 Note on, D4 key=62 velocity: 0
@3210 Channel: 8 Note on, G3 key=55 velocity: 121
@3210 Channel: 8 Note on, C4 key=60 velocity: 121
@3210 Channel: 8 Note on, D4 key=62 velocity: 121
@3223 Channel: 8 Note on, D4 key=62 velocity: 0
@3223 Channel: 8 Note on, C4 key=60 velocity: 0
@3223 Channel: 8 Note on, G3 key=55 velocity: 0
@3270 Channel: 8 Note on, D4 key=62 velocity: 121
@3270 Channel: 8 Note on, G3 key=55 velocity: 121
@3270 Channel: 8 Note on, C4 key=60 velocity: 121
@3275 Channel: 8 Note on, C4 key=60 velocity: 0
@3275 Channel: 8 Note on, G3 key=55 velocity: 0
@3275 Channel: 8 Note on, D4 key=62 velocity: 0
@3300 Channel: 8 Note on, C4 key=60 velocity: 121
@3300 Channel: 8 Note on, D4 key=62 velocity: 121
@3300 Channel: 8 Note on, G3 key=55 velocity: 121
@3313 Channel: 8 Note on, G3 key=55 velocity: 0
@3313 Channel: 8 Note on, D4 key=62 velocity: 0
@3313 Channel: 8 Note on, C4 key=60 velocity: 0
@3360 Channel: 8 Note on, B3 key=59 velocity: 121
@3360 Channel: 8 Note on, D4 key=62 velocity: 121
@3360 Channel: 8 Note on, G3 key=55 velocity: 121
@3373 Channel: 8 Note on, G3 key=55 velocity: 0
@3373 Channel: 8 Note on, D4 key=62 velocity: 0
@3373 Channel: 8 Note on, B3 key=59 velocity: 0
@3420 Channel: 8 Note on, D4 key=62 velocity: 121
@3420 Channel: 8 Note on, G3 key=55 velocity: 121
@3420 Channel: 8 Note on, B3 key=59 velocity: 121
@3425 Channel: 8 Note on, B3 key=59 velocity: 0
@3425 Channel: 8 Note on, G3 key=55 velocity: 0
@3425 Channel: 8 Note on, D4 key=62 velocity: 0
@3450 Channel: 8 Note on, D4 key=62 velocity: 121
@3450 Channel: 8 Note on, G3 key=55 velocity: 121
@3450 Channel: 8 Note on, B3 key=59 velocity: 121
@3463 Channel: 8 Note on, B3 key=59 velocity: 0
@3463 Channel: 8 Note on, G3 key=55 velocity: 0
@3463 Channel: 8 Note on, D4 key=62 velocity: 0
@3510 Channel: 8 Note on, G3 key=55 velocity: 122
@3510 Channel: 8 Note on, D4 key=62 velocity: 122
@3510 Channel: 8 Note on, B3 key=59 velocity: 122
@3515 Channel: 8 Note on, B3 key=59 velocity: 0
@3515 Channel: 8 Note on, D4 key=62 velocity: 0
@3515 Channel: 8 Note on, G3 key=55 velocity: 0
@3540 Channel: 8 Note on, B3 key=59 velocity: 122
@3540 Channel: 8 Note on, D4 key=62 velocity: 122
@3540 Channel: 8 Note on, G3 key=55 velocity: 122
@3553 Channel: 8 Note on, G3 key=55 velocity: 0
@3553 Channel: 8 Note on, D4 key=62 velocity: 0
@3553 Channel: 8 Note on, B3 key=59 velocity: 0
@3600 Channel: 8 Note on, C4 key=60 velocity: 122
@3600 Channel: 8 Note on, G3 key=55 velocity: 122
@3600 Channel: 8 Note on, D4 key=62 velocity: 122
@3613 Channel: 8 Note on, D4 key=62 velocity: 0
@3613 Channel: 8 Note on, G3 key=55 velocity: 0
@3613 Channel: 8 Note on, C4 key=60 velocity: 0
@3660 Channel: 8 Note on, C4 key=60 velocity: 122
@3660 Channel: 8 Note on, D4 key=62 velocity: 122
@3660 Channel: 8 Note on, G3 key=55 velocity: 122
@3665 Channel: 8 Note on, G3 key=55 velocity: 0
@3665 Channel: 8 Note on, D4 key=62 velocity: 0
@3665 Channel: 8 Note on, C4 key=60 velocity: 0
@3690 Channel: 8 Note on, G3 key=55 velocity: 122
@3690 Channel: 8 Note on, D4 key=62 velocity: 122
@3690 Channel: 8 Note on, C4 key=60 velocity: 122
@3703 Channel: 8 Note on, C4 key=60 velocity: 0
@3703 Channel: 8 Note on, D4 key=62 velocity: 0
@3703 Channel: 8 Note on, G3 key=55 velocity: 0
@3750 Channel: 8 Note on, G3 key=55 velocity: 122
@3750 Channel: 8 Note on, D4 key=62 velocity: 122
@3750 Channel: 8 Note on, C4 key=60 velocity: 122
@3755 Channel: 8 Note on, C4 key=60 velocity: 0
@3755 Channel: 8 Note on, D4 key=62 velocity: 0
@3755 Channel: 8 Note on, G3 key=55 velocity: 0
@3780 Channel: 8 Note on, D4 key=62 velocity: 122
@3780 Channel: 8 Note on, C4 key=60 velocity: 122
@3780 Channel: 8 Note on, G3 key=55 velocity: 122
@3793 Channel: 8 Note on, G3 key=55 velocity: 0
@3793 Channel: 8 Note on, C4 key=60 velocity: 0
@3793 Channel: 8 Note on, D4 key=62 velocity: 0
@3840 Channel: 8 Note on, G#3 key=56 velocity: 122
@3840 Channel: 8 Note on, B3 key=59 velocity: 122
@3840 Channel: 8 Note on, E4 key=64 velocity: 122
@3853 Channel: 8 Note on, E4 key=64 velocity: 0
@3853 Channel: 8 Note on, B3 key=59 velocity: 0
@3853 Channel: 8 Note on, G#3 key=56 velocity: 0
@3900 Channel: 8 Note on, E4 key=64 velocity: 122
@3900 Channel: 8 Note on, G#3 key=56 velocity: 122
@3900 Channel: 8 Note on, B3 key=59 velocity: 122
@3905 Channel: 8 Note on, B3 key=59 velocity: 0
@3905 Channel: 8 Note on, G#3 key=56 velocity: 0
@3905 Channel: 8 Note on, E4 key=64 velocity: 0
@3930 Channel: 8 Note on, E4 key=64 velocity: 123
@3930 Channel: 8 Note on, B3 key=59 velocity: 123
@3930 Channel: 8 Note on, G#3 key=56 velocity: 123
@3943 Channel: 8 Note on, G#3 key=56 velocity: 0
@3943 Channel: 8 Note on, B3 key=59 velocity: 0
@3943 Channel: 8 Note on, E4 key=64 velocity: 0
@3990 Channel: 8 Note on, G#3 key=56 velocity: 123
@3990 Channel: 8 Note on, E4 key=64 velocity: 123
@3990 Channel: 8 Note on, B3 key=59 velocity: 123
@3995 Channel: 8 Note on, B3 key=59 velocity: 0
@3995 Channel: 8 Note on, E4 key=64 velocity: 0
@3995 Channel: 8 Note on, G#3 key=56 velocity: 0
@4020 Channel: 8 Note on, E4 key=64 velocity: 123
@4020 Channel: 8 Note on, B3 key=59 velocity: 123
@4020 Channel: 8 Note on, G#3 key=56 velocity: 123
@4033 Channel: 8 Note on, G#3 key=56 velocity: 0
@4033 Channel: 8 Note on, B3 key=59 velocity: 0
@4033 Channel: 8 Note on, E4 key=64 velocity: 0
@4080 Channel: 8 Note on, E4 key=64 velocity: 122
@4080 Channel: 8 Note on, A3 key=57 velocity: 122
@4080 Channel: 8 Note on, B3 key=59 velocity: 122
@4093 Channel: 8 Note on, B3 key=59 velocity: 0
@4093 Channel: 8 Note on, A3 key=57 velocity: 0
@4093 Channel: 8 Note on, E4 key=64 velocity: 0
@4140 Channel: 8 Note on, B3 key=59 velocity: 122
@4140 Channel: 8 Note on, A3 key=57 velocity: 122
@4140 Channel: 8 Note on, E4 key=64 velocity: 122
@4145 Channel: 8 Note on, E4 key=64 velocity: 0
@4145 Channel: 8 Note on, A3 key=57 velocity: 0
@4145 Channel: 8 Note on, B3 key=59 velocity: 0
@4170 Channel: 8 Note on, B3 key=59 velocity: 122
@4170 Channel: 8 Note on, A3 key=57 velocity: 122
@4170 Channel: 8 Note on, E4 key=64 velocity: 122
@4183 Channel: 8 Note on, E4 key=64 velocity: 0
@4183 Channel: 8 Note on, A3 key=57 velocity: 0
@4183 Channel: 8 Note on, B3 key=59 velocity: 0
@4230 Channel: 8 Note on, E4 key=64 velocity: 122
@4230 Channel: 8 Note on, A3 key=57 velocity: 122
@4230 Channel: 8 Note on, B3 key=59 velocity: 122
@4235 Channel: 8 Note on, B3 key=59 velocity: 0
@4235 Channel: 8 Note on, A3 key=57 velocity: 0
@4235 Channel: 8 Note on, E4 key=64 velocity: 0
@4260 Channel: 8 Note on, B3 key=59 velocity: 122
@4260 Channel: 8 Note on, A3 key=57 velocity: 122
@4260 Channel: 8 Note on, E4 key=64 velocity: 122
@4273 Channel: 8 Note on, E4 key=64 velocity: 0
@4273 Channel: 8 Note on, A3 key=57 velocity: 0
@4273 Channel: 8 Note on, B3 key=59 velocity: 0
@4320 Channel: 8 Note on, B3 key=59 velocity: 122
@4320 Channel: 8 Note on, G#3 key=56 velocity: 122
@4320 Channel: 8 Note on, E4 key=64 velocity: 122
@4333 Channel: 8 Note on, E4 key=64 velocity: 0
@4333 Channel: 8 Note on, G#3 key=56 velocity: 0
@4333 Channel: 8 Note on, B3 key=59 velocity: 0
@4380 Channel: 8 Note on, B3 key=59 velocity: 122
@4380 Channel: 8 Note on, G#3 key=56 velocity: 122
@4380 Channel: 8 Note on, E4 key=64 velocity: 122
@4385 Channel: 8 Note on, E4 key=64 velocity: 0
@4385 Channel: 8 Note on, G#3 key=56 velocity: 0
@4385 Channel: 8 Note on, B3 key=59 velocity: 0
@4410 Channel: 8 Note on, B3 key=59 velocity: 122
@4410 Channel: 8 Note on, G#3 key=56 velocity: 122
@4410 Channel: 8 Note on, E4 key=64 velocity: 122
@4423 Channel: 8 Note on, E4 key=64 velocity: 0
@4423 Channel: 8 Note on, G#3 key=56 velocity: 0
@4423 Channel: 8 Note on, B3 key=59 velocity: 0
@4470 Channel: 8 Note on, B3 key=59 velocity: 122
@4470 Channel: 8 Note on, G#3 key=56 velocity: 122
@4470 Channel: 8 Note on, E4 key=64 velocity: 122
@4475 Channel: 8 Note on, E4 key=64 velocity: 0
@4475 Channel: 8 Note on, G#3 key=56 velocity: 0
@4475 Channel: 8 Note on, B3 key=59 velocity: 0
@4500 Channel: 8 Note on, B3 key=59 velocity: 122
@4500 Channel: 8 Note on, G#3 key=56 velocity: 122
@4500 Channel: 8 Note on, E4 key=64 velocity: 122
@4513 Channel: 8 Note on, E4 key=64 velocity: 0
@4513 Channel: 8 Note on, G#3 key=56 velocity: 0
@4513 Channel: 8 Note on, B3 key=59 velocity: 0
@4560 Channel: 8 Note on, A3 key=57 velocity: 122
@4560 Channel: 8 Note on, B3 key=59 velocity: 122
@4560 Channel: 8 Note on, E4 key=64 velocity: 122
@4573 Channel: 8 Note on, E4 key=64 velocity: 0
@4573 Channel: 8 Note on, B3 key=59 velocity: 0
@4573 Channel: 8 Note on, A3 key=57 velocity: 0
@4620 Channel: 8 Note on, A3 key=57 velocity: 122
@4620 Channel: 8 Note on, B3 key=59 velocity: 122
@4620 Channel: 8 Note on, E4 key=64 velocity: 122
@4625 Channel: 8 Note on, E4 key=64 velocity: 0
@4625 Channel: 8 Note on, B3 key=59 velocity: 0
@4625 Channel: 8 Note on, A3 key=57 velocity: 0
@4650 Channel: 8 Note on, A3 key=57 velocity: 122
@4650 Channel: 8 Note on, E4 key=64 velocity: 122
@4650 Channel: 8 Note on, B3 key=59 velocity: 122
@4663 Channel: 8 Note on, B3 key=59 velocity: 0
@4663 Channel: 8 Note on, E4 key=64 velocity: 0
@4663 Channel: 8 Note on, A3 key=57 velocity: 0
@4710 Channel: 8 Note on, A3 key=57 velocity: 122
@4710 Channel: 8 Note on, E4 key=64 velocity: 122
@4710 Channel: 8 Note on, B3 key=59 velocity: 122
@4715 Channel: 8 Note on, B3 key=59 velocity: 0
@4715 Channel: 8 Note on, E4 key=64 velocity: 0
@4715 Channel: 8 Note on, A3 key=57 velocity: 0
@4740 Channel: 8 Note on, A3 key=57 velocity: 122
@4740 Channel: 8 Note on, B3 key=59 velocity: 122
@4740 Channel: 8 Note on, E4 key=64 velocity: 122
@4753 Channel: 8 Note on, E4 key=64 velocity: 0
@4753 Channel: 8 Note on, B3 key=59 velocity: 0
@4753 Channel: 8 Note on, A3 key=57 velocity: 0
@4800 Channel: 8 Note on, C4 key=60 velocity: 122
@4800 Channel: 8 Note on, A3 key=57 velocity: 122
@4800 Channel: 8 Note on, F4 key=65 velocity: 122
@4813 Channel: 8 Note on, F4 key=65 velocity: 0
@4813 Channel: 8 Note on, A3 key=57 velocity: 0
@4813 Channel: 8 Note on, C4 key=60 velocity: 0
@4860 Channel: 8 Note on, C4 key=60 velocity: 122
@4860 Channel: 8 Note on, F4 key=65 velocity: 122
@4860 Channel: 8 Note on, A3 key=57 velocity: 122
@4865 Channel: 8 Note on, A3 key=57 velocity: 0
@4865 Channel: 8 Note on, F4 key=65 velocity: 0
@4865 Channel: 8 Note on, C4 key=60 velocity: 0
@4890 Channel: 8 Note on, F4 key=65 velocity: 122
@4890 Channel: 8 Note on, A3 key=57 velocity: 122
@4890 Channel: 8 Note on, C4 key=60 velocity: 122
@4903 Channel: 8 Note on, C4 key=60 velocity: 0
@4903 Channel: 8 Note on, A3 key=57 velocity: 0
@4903 Channel: 8 Note on, F4 key=65 velocity: 0
@4950 Channel: 8 Note on, F4 key=65 velocity: 122
@4950 Channel: 8 Note on, C4 key=60 velocity: 122
@4950 Channel: 8 Note on, A3 key=57 velocity: 122
@4955 Channel: 8 Note on, A3 key=57 velocity: 0
@4955 Channel: 8 Note on, C4 key=60 velocity: 0
@4955 Channel: 8 Note on, F4 key=65 velocity: 0
@4980 Channel: 8 Note on, C4 key=60 velocity: 122
@4980 Channel: 8 Note on, A3 key=57 velocity: 122
@4980 Channel: 8 Note on, F4 key=65 velocity: 122
@4993 Channel: 8 Note on, F4 key=65 velocity: 0
@4993 Channel: 8 Note on, A3 key=57 velocity: 0
@4993 Channel: 8 Note on, C4 key=60 velocity: 0
@5040 Channel: 8 Note on, A#3 key=58 velocity: 122
@5040 Channel: 8 Note on, C4 key=60 velocity: 122
@5040 Channel: 8 Note on, F4 key=65 velocity: 122
@5053 Channel: 8 Note on, F4 key=65 velocity: 0
@5053 Channel: 8 Note on, C4 key=60 velocity: 0
@5053 Channel: 8 Note on, A#3 key=58 velocity: 0
@5100 Channel: 8 Note on, A#3 key=58 velocity: 121
@5100 Channel: 8 Note on, C4 key=60 velocity: 121
@5100 Channel: 8 Note on, F4 key=65 velocity: 121
@5105 Channel: 8 Note on, F4 key=65 velocity: 0
@5105 Channel: 8 Note on, C4 key=60 velocity: 0
@5105 Channel: 8 Note on, A#3 key=58 velocity: 0
@5130 Channel: 8 Note on, C4 key=60 velocity: 121
@5130 Channel: 8 Note on, A#3 key=58 velocity: 121
@5130 Channel: 8 Note on, F4 key=65 velocity: 121
@5143 Channel: 8 Note on, F4 key=65 velocity: 0
@5143 Channel: 8 Note on, A#3 key=58 velocity: 0
@5143 Channel: 8 Note on, C4 key=60 velocity: 0
@5190 Channel: 8 Note on, F4 key=65 velocity: 121
@5190 Channel: 8 Note on, C4 key=60 velocity: 121
@5190 Channel: 8 Note on, A#3 key=58 velocity: 121
@5195 Channel: 8 Note on, A#3 key=58 velocity: 0
@5195 Channel: 8 Note on, C4 key=60 velocity: 0
@5195 Channel: 8 Note on, F4 key=65 velocity: 0
@5220 Channel: 8 Note on, C4 key=60 velocity: 121
@5220 Channel: 8 Note on, A#3 key=58 velocity: 121
@5220 Channel: 8 Note on, F4 key=65 velocity: 121
@5233 Channel: 8 Note on, F4 key=65 velocity: 0
@5233 Channel: 8 Note on, A#3 key=58 velocity: 0
@5233 Channel: 8 Note on, C4 key=60 velocity: 0
@5280 Channel: 8 Note on, A3 key=57 velocity: 121
@5280 Channel: 8 Note on, F4 key=65 velocity: 121
@5280 Channel: 8 Note on, C4 key=60 velocity: 121
@5293 Channel: 8 Note on, C4 key=60 velocity: 0
@5293 Channel: 8 Note on, F4 key=65 velocity: 0
@5293 Channel: 8 Note on, A3 key=57 velocity: 0
@5340 Channel: 8 Note on, C4 key=60 velocity: 121
@5340 Channel: 8 Note on, A3 key=57 velocity: 121
@5340 Channel: 8 Note on, F4 key=65 velocity: 121
@5345 Channel: 8 Note on, F4 key=65 velocity: 0
@5345 Channel: 8 Note on, A3 key=57 velocity: 0
@5345 Channel: 8 Note on, C4 key=60 velocity: 0
@5370 Channel: 8 Note on, F4 key=65 velocity: 121
@5370 Channel: 8 Note on, A3 key=57 velocity: 121
@5370 Channel: 8 Note on, C4 key=60 velocity: 121
@5383 Channel: 8 Note on, C4 key=60 velocity: 0
@5383 Channel: 8 Note on, A3 key=57 velocity: 0
@5383 Channel: 8 Note on, F4 key=65 velocity: 0
@5430 Channel: 8 Note on, C4 key=60 velocity: 120
@5430 Channel: 8 Note on, A3 key=57 velocity: 120
@5430 Channel: 8 Note on, F4 key=65 velocity: 120
@5435 Channel: 8 Note on, F4 key=65 velocity: 0
@5435 Channel: 8 Note on, A3 key=57 velocity: 0
@5435 Channel: 8 Note on, C4 key=60 velocity: 0
@5460 Channel: 8 Note on, C4 key=60 velocity: 120
@5460 Channel: 8 Note on, A3 key=57 velocity: 120
@5460 Channel: 8 Note on, F4 key=65 velocity: 120
@5473 Channel: 8 Note on, F4 key=65 velocity: 0
@5473 Channel: 8 Note on, A3 key=57 velocity: 0
@5473 Channel: 8 Note on, C4 key=60 velocity: 0
@5520 Channel: 8 Note on, C4 key=60 velocity: 121
@5520 Channel: 8 Note on, A#3 key=58 velocity: 121
@5520 Channel: 8 Note on, F4 key=65 velocity: 121
@5533 Channel: 8 Note on, F4 key=65 velocity: 0
@5533 Channel: 8 Note on, A#3 key=58 velocity: 0
@5533 Channel: 8 Note on, C4 key=60 velocity: 0
@5580 Channel: 8 Note on, C4 key=60 velocity: 122
@5580 Channel: 8 Note on, A#3 key=58 velocity: 122
@5580 Channel: 8 Note on, F4 key=65 velocity: 122
@5585 Channel: 8 Note on, F4 key=65 velocity: 0
@5585 Channel: 8 Note on, A#3 key=58 velocity: 0
@5585 Channel: 8 Note on, C4 key=60 velocity: 0
@5610 Channel: 8 Note on, F4 key=65 velocity: 119
@5610 Channel: 8 Note on, C4 key=60 velocity: 119
@5610 Channel: 8 Note on, A#3 key=58 velocity: 119
@5623 Channel: 8 Note on, A#3 key=58 velocity: 0
@5623 Channel: 8 Note on, C4 key=60 velocity: 0
@5623 Channel: 8 Note on, F4 key=65 velocity: 0
@5670 Channel: 8 Note on, A#3 key=58 velocity: 119
@5670 Channel: 8 Note on, F4 key=65 velocity: 119
@5670 Channel: 8 Note on, C4 key=60 velocity: 119
@5675 Channel: 8 Note on, C4 key=60 velocity: 0
@5675 Channel: 8 Note on, F4 key=65 velocity: 0
@5675 Channel: 8 Note on, A#3 key=58 velocity: 0
@5700 Channel: 8 Note on, A#3 key=58 velocity: 119
@5700 Channel: 8 Note on, C4 key=60 velocity: 119
@5700 Channel: 8 Note on, F4 key=65 velocity: 119
@5713 Channel: 8 Note on, F4 key=65 velocity: 0
@5713 Channel: 8 Note on, C4 key=60 velocity: 0
@5713 Channel: 8 Note on, A#3 key=58 velocity: 0
@5760 Channel: 8 Note on, C4 key=60 velocity: 119
@5760 Channel: 8 Note on, G3 key=55 velocity: 119
@5760 Channel: 8 Note on, E4 key=64 velocity: 119
@5773 Channel: 8 Note on, E4 key=64 velocity: 0
@5773 Channel: 8 Note on, G3 key=55 velocity: 0
@5773 Channel: 8 Note on, C4 key=60 velocity: 0
@5820 Channel: 8 Note on, E4 key=64 velocity: 120
@5820 Channel: 8 Note on, G3 key=55 velocity: 120
@5820 Channel: 8 Note on, C4 key=60 velocity: 120
@5825 Channel: 8 Note on, C4 key=60 velocity: 0
@5825 Channel: 8 Note on, G3 key=55 velocity: 0
@5825 Channel: 8 Note on, E4 key=64 velocity: 0
@5850 Channel: 8 Note on, C4 key=60 velocity: 120
@5850 Channel: 8 Note on, G3 key=55 velocity: 120
@5850 Channel: 8 Note on, E4 key=64 velocity: 120
@5863 Channel: 8 Note on, E4 key=64 velocity: 0
@5863 Channel: 8 Note on, G3 key=55 velocity: 0
@5863 Channel: 8 Note on, C4 key=60 velocity: 0
@5910 Channel: 8 Note on, G3 key=55 velocity: 120
@5910 Channel: 8 Note on, C4 key=60 velocity: 120
@5910 Channel: 8 Note on, E4 key=64 velocity: 120
@5915 Channel: 8 Note on, E4 key=64 velocity: 0
@5915 Channel: 8 Note on, C4 key=60 velocity: 0
@5915 Channel: 8 Note on, G3 key=55 velocity: 0
@5940 Channel: 8 Note on, G3 key=55 velocity: 120
@5940 Channel: 8 Note on, C4 key=60 velocity: 120
@5940 Channel: 8 Note on, E4 key=64 velocity: 120
@5953 Channel: 8 Note on, E4 key=64 velocity: 0
@5953 Channel: 8 Note on, C4 key=60 velocity: 0
@5953 Channel: 8 Note on, G3 key=55 velocity: 0
@6000 Channel: 8 Note on, F4 key=65 velocity: 120
@6000 Channel: 8 Note on, G3 key=55 velocity: 120
@6000 Channel: 8 Note on, C4 key=60 velocity: 120
@6013 Channel: 8 Note on, C4 key=60 velocity: 0
@6013 Channel: 8 Note on, G3 key=55 velocity: 0
@6013 Channel: 8 Note on, F4 key=65 velocity: 0
@6060 Channel: 8 Note on, G3 key=55 velocity: 120
@6060 Channel: 8 Note on, C4 key=60 velocity: 120
@6060 Channel: 8 Note on, F4 key=65 velocity: 120
@6065 Channel: 8 Note on, F4 key=65 velocity: 0
@6065 Channel: 8 Note on, C4 key=60 velocity: 0
@6065 Channel: 8 Note on, G3 key=55 velocity: 0
@6090 Channel: 8 Note on, F4 key=65 velocity: 120
@6090 Channel: 8 Note on, C4 key=60 velocity: 120
@6090 Channel: 8 Note on, G3 key=55 velocity: 120
@6103 Channel: 8 Note on, G3 key=55 velocity: 0
@6103 Channel: 8 Note on, C4 key=60 velocity: 0
@6103 Channel: 8 Note on, F4 key=65 velocity: 0
@6150 Channel: 8 Note on, G3 key=55 velocity: 120
@6150 Channel: 8 Note on, C4 key=60 velocity: 120
@6150 Channel: 8 Note on, F4 key=65 velocity: 120
@6155 Channel: 8 Note on, F4 key=65 velocity: 0
@6155 Channel: 8 Note on, C4 key=60 velocity: 0
@6155 Channel: 8 Note on, G3 key=55 velocity: 0
@6180 Channel: 8 Note on, F4 key=65 velocity: 120
@6180 Channel: 8 Note on, G3 key=55 velocity: 120
@6180 Channel: 8 Note on, C4 key=60 velocity: 120
@6193 Channel: 8 Note on, C4 key=60 velocity: 0
@6193 Channel: 8 Note on, G3 key=55 velocity: 0
@6193 Channel: 8 Note on, F4 key=65 velocity: 0
@6240 Channel: 8 Note on, C4 key=60 velocity: 120
@6240 Channel: 8 Note on, G3 key=55 velocity: 120
@6240 Channel: 8 Note on, E4 key=64 velocity: 120
@6253 Channel: 8 Note on, E4 key=64 velocity: 0
@6253 Channel: 8 Note on, G3 key=55 velocity: 0
@6253 Channel: 8 Note on, C4 key=60 velocity: 0
@6300 Channel: 8 Note on, E4 key=64 velocity: 120
@6300 Channel: 8 Note on, G3 key=55 velocity: 120
@6300 Channel: 8 Note on, C4 key=60 velocity: 120
@6305 Channel: 8 Note on, C4 key=60 velocity: 0
@6305 Channel: 8 Note on, G3 key=55 velocity: 0
@6305 Channel: 8 Note on, E4 key=64 velocity: 0
@6330 Channel: 8 Note on, C4 key=60 velocity: 121
@6330 Channel: 8 Note on, G3 key=55 velocity: 121
@6330 Channel: 8 Note on, E4 key=64 velocity: 121
@6343 Channel: 8 Note on, E4 key=64 velocity: 0
@6343 Channel: 8 Note on, G3 key=55 velocity: 0
@6343 Channel: 8 Note on, C4 key=60 velocity: 0
@6390 Channel: 8 Note on, G3 key=55 velocity: 121
@6390 Channel: 8 Note on, C4 key=60 velocity: 121
@6390 Channel: 8 Note on, E4 key=64 velocity: 121
@6395 Channel: 8 Note on, E4 key=64 velocity: 0
@6395 Channel: 8 Note on, C4 key=60 velocity: 0
@6395 Channel: 8 Note on, G3 key=55 velocity: 0
@6420 Channel: 8 Note on, G3 key=55 velocity: 121
@6420 Channel: 8 Note on, C4 key=60 velocity: 121
@6420 Channel: 8 Note on, E4 key=64 velocity: 121
@6433 Channel: 8 Note on, E4 key=64 velocity: 0
@6433 Channel: 8 Note on, C4 key=60 velocity: 0
@6433 Channel: 8 Note on, G3 key=55 velocity: 0
@6480 Channel: 8 Note on, F4 key=65 velocity: 121
@6480 Channel: 8 Note on, G3 key=55 velocity: 121
@6480 Channel: 8 Note on, C4 key=60 velocity: 121
@6493 Channel: 8 Note on, C4 key=60 velocity: 0
@6493 Channel: 8 Note on, G3 key=55 velocity: 0
@6493 Channel: 8 Note on, F4 key=65 velocity: 0
@6540 Channel: 8 Note on, G3 key=55 velocity: 121
@6540 Channel: 8 Note on, C4 key=60 velocity: 121
@6540 Channel: 8 Note on, F4 key=65 velocity: 121
@6545 Channel: 8 Note on, F4 key=65 velocity: 0
@6545 Channel: 8 Note on, C4 key=60 velocity: 0
@6545 Channel: 8 Note on, G3 key=55 velocity: 0
@6570 Channel: 8 Note on, F4 key=65 velocity: 121
@6570 Channel: 8 Note on, C4 key=60 velocity: 121
@6570 Channel: 8 Note on, G3 key=55 velocity: 121
@6583 Channel: 8 Note on, G3 key=55 velocity: 0
@6583 Channel: 8 Note on, C4 key=60 velocity: 0
@6583 Channel: 8 Note on, F4 key=65 velocity: 0
@6630 Channel: 8 Note on, G3 key=55 velocity: 122
@6630 Channel: 8 Note on, C4 key=60 velocity: 122
@6630 Channel: 8 Note on, F4 key=65 velocity: 122
@6635 Channel: 8 Note on, F4 key=65 velocity: 0
@6635 Channel: 8 Note on, C4 key=60 velocity: 0
@6635 Channel: 8 Note on, G3 key=55 velocity: 0
@6660 Channel: 8 Note on, F4 key=65 velocity: 122
@6660 Channel: 8 Note on, G3 key=55 velocity: 122
@6660 Channel: 8 Note on, C4 key=60 velocity: 122
@6673 Channel: 8 Note on, C4 key=60 velocity: 0
@6673 Channel: 8 Note on, G3 key=55 velocity: 0
@6673 Channel: 8 Note on, F4 key=65 velocity: 0
@6720 Channel: 8 Note on, B3 key=59 velocity: 122
@6720 Channel: 8 Note on, D4 key=62 velocity: 122
@6720 Channel: 8 Note on, G3 key=55 velocity: 122
@6733 Channel: 8 Note on, G3 key=55 velocity: 0
@6733 Channel: 8 Note on, D4 key=62 velocity: 0
@6733 Channel: 8 Note on, B3 key=59 velocity: 0
@6780 Channel: 8 Note on, G3 key=55 velocity: 122
@6780 Channel: 8 Note on, D4 key=62 velocity: 122
@6780 Channel: 8 Note on, B3 key=59 velocity: 122
@6785 Channel: 8 Note on, B3 key=59 velocity: 0
@6785 Channel: 8 Note on, D4 key=62 velocity: 0
@6785 Channel: 8 Note on, G3 key=55 velocity: 0
@6810 Channel: 8 Note on, D4 key=62 velocity: 123
@6810 Channel: 8 Note on, G3 key=55 velocity: 123
@6810 Channel: 8 Note on, B3 key=59 velocity: 123
@6823 Channel: 8 Note on, B3 key=59 velocity: 0
@6823 Channel: 8 Note on, G3 key=55 velocity: 0
@6823 Channel: 8 Note on, D4 key=62 velocity: 0
@6870 Channel: 8 Note on, D4 key=62 velocity: 123
@6870 Channel: 8 Note on, G3 key=55 velocity: 123
@6870 Channel: 8 Note on, B3 key=59 velocity: 123
@6875 Channel: 8 Note on, B3 key=59 velocity: 0
@6875 Channel: 8 Note on, G3 key=55 velocity: 0
@6875 Channel: 8 Note on, D4 key=62 velocity: 0
@6900 Channel: 8 Note on, D4 key=62 velocity: 123
@6900 Channel: 8 Note on, B3 key=59 velocity: 123
@6900 Channel: 8 Note on, G3 key=55 velocity: 123
@6913 Channel: 8 Note on, G3 key=55 velocity: 0
@6913 Channel: 8 Note on, B3 key=59 velocity: 0
@6913 Channel: 8 Note on, D4 key=62 velocity: 0
@6960 Channel: 8 Note on, D4 key=62 velocity: 123
@6960 Channel: 8 Note on, G3 key=55 velocity: 123
@6960 Channel: 8 Note on, C4 key=60 velocity: 123
@6973 Channel: 8 Note on, C4 key=60 velocity: 0
@6973 Channel: 8 Note on, G3 key=55 velocity: 0
@6973 Channel: 8 Note on, D4 key=62 velocity: 0
@7020 Channel: 8 Note on, D4 key=62 velocity: 123
@7020 Channel: 8 Note on, G3 key=55 velocity: 123
@7020 Channel: 8 Note on, C4 key=60 velocity: 123
@7025 Channel: 8 Note on, C4 key=60 velocity: 0
@7025 Channel: 8 Note on, G3 key=55 velocity: 0
@7025 Channel: 8 Note on, D4 key=62 velocity: 0
@7050 Channel: 8 Note on, G3 key=55 velocity: 123
@7050 Channel: 8 Note on, C4 key=60 velocity: 123
@7050 Channel: 8 Note on, D4 key=62 velocity: 123
@7063 Channel: 8 Note on, D4 key=62 velocity: 0
@7063 Channel: 8 Note on, C4 key=60 velocity: 0
@7063 Channel: 8 Note on, G3 key=55 velocity: 0
@7110 Channel: 8 Note on, D4 key=62 velocity: 123
@7110 Channel: 8 Note on, G3 key=55 velocity: 123
@7110 Channel: 8 Note on, C4 key=60 velocity: 123
@7115 Channel: 8 Note on, C4 key=60 velocity: 0
@7115 Channel: 8 Note on, G3 key=55 velocity: 0
@7115 Channel: 8 Note on, D4 key=62 velocity: 0
@7140 Channel: 8 Note on, C4 key=60 velocity: 123
@7140 Channel: 8 Note on, D4 key=62 velocity: 123
@7140 Channel: 8 Note on, G3 key=55 velocity: 123
@7153 Channel: 8 Note on, G3 key=55 velocity: 0
@7153 Channel: 8 Note on, D4 key=62 velocity: 0
@7153 Channel: 8 Note on, C4 key=60 velocity: 0
@7200 Channel: 8 Note on, B3 key=59 velocity: 122
@7200 Channel: 8 Note on, D4 key=62 velocity: 122
@7200 Channel: 8 Note on, G3 key=55 velocity: 122
@7213 Channel: 8 Note on, G3 key=55 velocity: 0
@7213 Channel: 8 Note on, D4 key=62 velocity: 0
@7213 Channel: 8 Note on, B3 key=59 velocity: 0
@7260 Channel: 8 Note on, D4 key=62 velocity: 122
@7260 Channel: 8 Note on, G3 key=55 velocity: 122
@7260 Channel: 8 Note on, B3 key=59 velocity: 122
@7265 Channel: 8 Note on, B3 key=59 velocity: 0
@7265 Channel: 8 Note on, G3 key=55 velocity: 0
@7265 Channel: 8 Note on, D4 key=62 velocity: 0
@7290 Channel: 8 Note on, D4 key=62 velocity: 122
@7290 Channel: 8 Note on, G3 key=55 velocity: 122
@7290 Channel: 8 Note on, B3 key=59 velocity: 122
@7303 Channel: 8 Note on, B3 key=59 velocity: 0
@7303 Channel: 8 Note on, G3 key=55 velocity: 0
@7303 Channel: 8 Note on, D4 key=62 velocity: 0
@7350 Channel: 8 Note on, G3 key=55 velocity: 121
@7350 Channel: 8 Note on, D4 key=62 velocity: 121
@7350 Channel: 8 Note on, B3 key=59 velocity: 121
@7355 Channel: 8 Note on, B3 key=59 velocity: 0
@7355 Channel: 8 Note on, D4 key=62 velocity: 0
@7355 Channel: 8 Note on, G3 key=55 velocity: 0
@7380 Channel: 8 Note on, B3 key=59 velocity: 121
@7380 Channel: 8 Note on, D4 key=62 velocity: 121
@7380 Channel: 8 Note on, G3 key=55 velocity: 121
@7393 Channel: 8 Note on, G3 key=55 velocity: 0
@7393 Channel: 8 Note on, D4 key=62 velocity: 0
@7393 Channel: 8 Note on, B3 key=59 velocity: 0
@7440 Channel: 8 Note on, C4 key=60 velocity: 121
@7440 Channel: 8 Note on, G3 key=55 velocity: 121
@7440 Channel: 8 Note on, D4 key=62 velocity: 121
@7453 Channel: 8 Note on, D4 key=62 velocity: 0
@7453 Channel: 8 Note on, G3 key=55 velocity: 0
@7453 Channel: 8 Note on, C4 key=60 velocity: 0
@7500 Channel: 8 Note on, C4 key=60 velocity: 121
@7500 Channel: 8 Note on, D4 key=62 velocity: 121
@7500 Channel: 8 Note on, G3 key=55 velocity: 121
@7505 Channel: 8 Note on, G3 key=55 velocity: 0
@7505 Channel: 8 Note on, D4 key=62 velocity: 0
@7505 Channel: 8 Note on, C4 key=60 velocity: 0
@7530 Channel: 8 Note on, G3 key=55 velocity: 121
@7530 Channel: 8 Note on, D4 key=62 velocity: 121
@7530 Channel: 8 Note on, C4 key=60 velocity: 121
@7543 Channel: 8 Note on, C4 key=60 velocity: 0
@7543 Channel: 8 Note on, D4 key=62 velocity: 0
@7543 Channel: 8 Note on, G3 key=55 velocity: 0
@7590 Channel: 8 Note on, G3 key=55 velocity: 120
@7590 Channel: 8 Note on, D4 key=62 velocity: 120
@7590 Channel: 8 Note on, C4 key=60 velocity: 120
@7595 Channel: 8 Note on, C4 key=60 velocity: 0
@7595 Channel: 8 Note on, D4 key=62 velocity: 0
@7595 Channel: 8 Note on, G3 key=55 velocity: 0
@7620 Channel: 8 Note on, D4 key=62 velocity: 120
@7620 Channel: 8 Note on, C4 key=60 velocity: 120
@7620 Channel: 8 Note on, G3 key=55 velocity: 120
@7633 Channel: 8 Note on, G3 key=55 velocity: 0
@7633 Channel: 8 Note on, C4 key=60 velocity: 0
@7633 Channel: 8 Note on, D4 key=62 velocity: 0
@7680 Channel: 8 Note on, C4 key=60 velocity: 120
@7680 Channel: 8 Note on, A3 key=57 velocity: 120
@7680 Channel: 8 Note on, F4 key=65 velocity: 120
@7693 Channel: 8 Note on, F4 key=65 velocity: 0
@7693 Channel: 8 Note on, A3 key=57 velocity: 0
@7693 Channel: 8 Note on, C4 key=60 velocity: 0
@7740 Channel: 8 Note on, C4 key=60 velocity: 120
@7740 Channel: 8 Note on, F4 key=65 velocity: 120
@7740 Channel: 8 Note on, A3 key=57 velocity: 120
@7745 Channel: 8 Note on, A3 key=57 velocity: 0
@7745 Channel: 8 Note on, F4 key=65 velocity: 0
@7745 Channel: 8 Note on, C4 key=60 velocity: 0
@7770 Channel: 8 Note on, F4 key=65 velocity: 120
@7770 Channel: 8 Note on, A3 key=57 velocity: 120
@7770 Channel: 8 Note on, C4 key=60 velocity: 120
@7783 Channel: 8 Note on, C4 key=60 velocity: 0
@7783 Channel: 8 Note on, A3 key=57 velocity: 0
@7783 Channel: 8 Note on, F4 key=65 velocity: 0
@7830 Channel: 8 Note on, F4 key=65 velocity: 120
@7830 Channel: 8 Note on, C4 key=60 velocity: 120
@7830 Channel: 8 Note on, A3 key=57 velocity: 120
@7835 Channel: 8 Note on, A3 key=57 velocity: 0
@7835 Channel: 8 Note on, C4 key=60 velocity: 0
@7835 Channel: 8 Note on, F4 key=65 velocity: 0
@7860 Channel: 8 Note on, C4 key=60 velocity: 120
@7860 Channel: 8 Note on, A3 key=57 velocity: 120
@7860 Channel: 8 Note on, F4 key=65 velocity: 120
@7873 Channel: 8 Note on, F4 key=65 velocity: 0
@7873 Channel: 8 Note on, A3 key=57 velocity: 0
@7873 Channel: 8 Note on, C4 key=60 velocity: 0
@7920 Channel: 8 Note on, G3 key=55 velocity: 120
@7920 Channel: 8 Note on, C4 key=60 velocity: 120
@7920 Channel: 8 Note on, F4 key=65 velocity: 120
@7933 Channel: 8 Note on, F4 key=65 velocity: 0
@7933 Channel: 8 Note on, C4 key=60 velocity: 0
@7933 Channel: 8 Note on, G3 key=55 velocity: 0
@7980 Channel: 8 Note on, G3 key=55 velocity: 120
@7980 Channel: 8 Note on, C4 key=60 velocity: 120
@7980 Channel: 8 Note on, F4 key=65 velocity: 120
@7985 Channel: 8 Note on, F4 key=65 velocity: 0
@7985 Channel: 8 Note on, C4 key=60 velocity: 0
@7985 Channel: 8 Note on, G3 key=55 velocity: 0
@8010 Channel: 8 Note on, G3 key=55 velocity: 120
@8010 Channel: 8 Note on, C4 key=60 velocity: 120
@8010 Channel: 8 Note on, F4 key=65 velocity: 120
@8023 Channel: 8 Note on, F4 key=65 velocity: 0
@8023 Channel: 8 Note on, C4 key=60 velocity: 0
@8023 Channel: 8 Note on, G3 key=55 velocity: 0
@8070 Channel: 8 Note on, G3 key=55 velocity: 119
@8070 Channel: 8 Note on, F4 key=65 velocity: 119
@8070 Channel: 8 Note on, C4 key=60 velocity: 119
@8075 Channel: 8 Note on, C4 key=60 velocity: 0
@8075 Channel: 8 Note on, F4 key=65 velocity: 0
@8075 Channel: 8 Note on, G3 key=55 velocity: 0
@8100 Channel: 8 Note on, G3 key=55 velocity: 120
@8100 Channel: 8 Note on, C4 key=60 velocity: 120
@8100 Channel: 8 Note on, F4 key=65 velocity: 120
@8113 Channel: 8 Note on, F4 key=65 velocity: 0
@8113 Channel: 8 Note on, C4 key=60 velocity: 0
@8113 Channel: 8 Note on, G3 key=55 velocity: 0
@8160 Channel: 8 Note on, A3 key=57 velocity: 121
@8160 Channel: 8 Note on, C4 key=60 velocity: 121
@8160 Channel: 8 Note on, E4 key=64 velocity: 121
@8169 Channel: 8 Note on, E4 key=64 velocity: 0
@8170 Channel: 8 Note on, C4 key=60 velocity: 0
@8170 Channel: 8 Note on, A3 key=57 velocity: 0
@8220 Channel: 8 Note on, C4 key=60 velocity: 121
@8220 Channel: 8 Note on, A3 key=57 velocity: 121
@8220 Channel: 8 Note on, E4 key=64 velocity: 121
@8224 Channel: 8 Note on, E4 key=64 velocity: 0
@8224 Channel: 8 Note on, C4 key=60 velocity: 0
@8225 Channel: 8 Note on, A3 key=57 velocity: 0
@8250 Channel: 8 Note on, C4 key=60 velocity: 121
@8250 Channel: 8 Note on, A3 key=57 velocity: 121
@8250 Channel: 8 Note on, E4 key=64 velocity: 121
@8259 Channel: 8 Note on, E4 key=64 velocity: 0
@8260 Channel: 8 Note on, A3 key=57 velocity: 0
@8260 Channel: 8 Note on, C4 key=60 velocity: 0
@8310 Channel: 8 Note on, C4 key=60 velocity: 121
@8310 Channel: 8 Note on, A3 key=57 velocity: 121
@8310 Channel: 8 Note on, E4 key=64 velocity: 121
@8314 Channel: 8 Note on, E4 key=64 velocity: 0
@8314 Channel: 8 Note on, C4 key=60 velocity: 0
@8315 Channel: 8 Note on, A3 key=57 velocity: 0
@8340 Channel: 8 Note on, A3 key=57 velocity: 121
@8340 Channel: 8 Note on, C4 key=60 velocity: 121
@8340 Channel: 8 Note on, E4 key=64 velocity: 121
@8349 Channel: 8 Note on, E4 key=64 velocity: 0
@8349 Channel: 8 Note on, C4 key=60 velocity: 0
@8350 Channel: 8 Note on, A3 key=57 velocity: 0
@8400 Channel: 8 Note on, A3 key=57 velocity: 121
@8400 Channel: 8 Note on, E4 key=64 velocity: 121
@8400 Channel: 8 Note on, B3 key=59 velocity: 121
@8410 Channel: 8 Note on, E4 key=64 velocity: 0
@8411 Channel: 8 Note on, B3 key=59 velocity: 0
@8411 Channel: 8 Note on, A3 key=57 velocity: 0
@8460 Channel: 8 Note on, B3 key=59 velocity: 121
@8460 Channel: 8 Note on, A3 key=57 velocity: 121
@8460 Channel: 8 Note on, E4 key=64 velocity: 121
@8463 Channel: 8 Note on, E4 key=64 velocity: 0
@8465 Channel: 8 Note on, A3 key=57 velocity: 0
@8465 Channel: 8 Note on, B3 key=59 velocity: 0
@8490 Channel: 8 Note on, B3 key=59 velocity: 121
@8490 Channel: 8 Note on, A3 key=57 velocity: 121
@8490 Channel: 8 Note on, E4 key=64 velocity: 121
@8498 Channel: 8 Note on, E4 key=64 velocity: 0
@8499 Channel: 8 Note on, A3 key=57 velocity: 0
@8499 Channel: 8 Note on, B3 key=59 velocity: 0
@8550 Channel: 8 Note on, B3 key=59 velocity: 121
@8550 Channel: 8 Note on, A3 key=57 velocity: 121
@8554 Channel: 8 Note on, B3 key=59 velocity: 0
@8555 Channel: 8 Note on, A3 key=57 velocity: 0
@8580 Channel: 8 Note on, A3 key=57 velocity: 121
@8580 Channel: 8 Note on, E4 key=64 velocity: 121
@8580 Channel: 8 Note on, C4 key=60 velocity: 121
@8589 Channel: 8 Note on, C4 key=60 velocity: 0
@8589 Channel: 8 Note on, E4 key=64 velocity: 0
@8590 Channel: 8 Note on, A3 key=57 velocity: 0
@8640 Channel: 8 Note on, C4 key=60 velocity: 121
@8640 Channel: 8 Note on, D4 key=62 velocity: 121
@8640 Channel: 8 Note on, G3 key=55 velocity: 121
@8649 Channel: 8 Note on, G3 key=55 velocity: 0
@8649 Channel: 8 Note on, D4 key=62 velocity: 0
@8650 Channel: 8 Note on, C4 key=60 velocity: 0
@8700 Channel: 8 Note on, C4 key=60 velocity: 121
@8700 Channel: 8 Note on, G3 key=55 velocity: 121
@8700 Channel: 8 Note on, D4 key=62 velocity: 121
@8704 Channel: 8 Note on, D4 key=62 velocity: 0
@8704 Channel: 8 Note on, C4 key=60 velocity: 0
@8705 Channel: 8 Note on, G3 key=55 velocity: 0
@8730 Channel: 8 Note on, G3 key=55 velocity: 121
@8730 Channel: 8 Note on, C4 key=60 velocity: 121
@8730 Channel: 8 Note on, D4 key=62 velocity: 121
@8739 Channel: 8 Note on, D4 key=62 velocity: 0
@8739 Channel: 8 Note on, C4 key=60 velocity: 0
@8739 Channel: 8 Note on, G3 key=55 velocity: 0
@8790 Channel: 8 Note on, C4 key=60 velocity: 120
@8790 Channel: 8 Note on, G3 key=55 velocity: 120
@8790 Channel: 8 Note on, D4 key=62 velocity: 120
@8794 Channel: 8 Note on, C4 key=60 velocity: 0
@8795 Channel: 8 Note on, G3 key=55 velocity: 0
@8796 Channel: 8 Note on, D4 key=62 velocity: 0
@8820 Channel: 8 Note on, C4 key=60 velocity: 120
@8820 Channel: 8 Note on, D4 key=62 velocity: 120
@8820 Channel: 8 Note on, G3 key=55 velocity: 120
@8829 Channel: 8 Note on, G3 key=55 velocity: 0
@8829 Channel: 8 Note on, C4 key=60 velocity: 0
@8830 Channel: 8 Note on, D4 key=62 velocity: 0
@8880 Channel: 8 Note on, D4 key=62 velocity: 120
@8880 Channel: 8 Note on, B3 key=59 velocity: 120
@8880 Channel: 8 Note on, G3 key=55 velocity: 120
@8889 Channel: 8 Note on, B3 key=59 velocity: 0
@8890 Channel: 8 Note on, G3 key=55 velocity: 0
@8890 Channel: 8 Note on, D4 key=62 velocity: 0
@8940 Channel: 8 Note on, D4 key=62 velocity: 120
@8940 Channel: 8 Note on, B3 key=59 velocity: 120
@8940 Channel: 8 Note on, G3 key=55 velocity: 120
@8944 Channel: 8 Note on, B3 key=59 velocity: 0
@8945 Channel: 8 Note on, G3 key=55 velocity: 0
@8945 Channel: 8 Note on, D4 key=62 velocity: 0
@8970 Channel: 8 Note on, D4 key=62 velocity: 120
@8970 Channel: 8 Note on, G3 key=55 velocity: 120
@8970 Channel: 8 Note on, B3 key=59 velocity: 120
@8978 Channel: 8 Note on, B3 key=59 velocity: 0
@8979 Channel: 8 Note on, D4 key=62 velocity: 0
@8980 Channel: 8 Note on, G3 key=55 velocity: 0
@9030 Channel: 8 Note on, B3 key=59 velocity: 120
@9030 Channel: 8 Note on, D4 key=62 velocity: 120
@9030 Channel: 8 Note on, G3 key=55 velocity: 120
@9034 Channel: 8 Note on, G3 key=55 velocity: 0
@9034 Channel: 8 Note on, D4 key=62 velocity: 0
@9034 Channel: 8 Note on, B3 key=59 velocity: 0
@9060 Channel: 8 Note on, B3 key=59 velocity: 120
@9060 Channel: 8 Note on, D4 key=62 velocity: 120
@9060 Channel: 8 Note on, G3 key=55 velocity: 120
@9067 Channel: 8 Note on, G3 key=55 velocity: 0
@9067 Channel: 8 Note on, D4 key=62 velocity: 0
@9067 Channel: 8 Note on, B3 key=59 velocity: 0
@9120 Channel: 8 Note on, G3 key=55 velocity: 120
@9120 Channel: 8 Note on, B3 key=59 velocity: 120
@9120 Channel: 8 Note on, F4 key=65 velocity: 120
@9129 Channel: 8 Note on, F4 key=65 velocity: 0
@9129 Channel: 8 Note on, B3 key=59 velocity: 0
@9130 Channel: 8 Note on, G3 key=55 velocity: 0
@9180 Channel: 8 Note on, B3 key=59 velocity: 120
@9180 Channel: 8 Note on, F4 key=65 velocity: 120
@9180 Channel: 8 Note on, G3 key=55 velocity: 120
@9184 Channel: 8 Note on, B3 key=59 velocity: 0
@9185 Channel: 8 Note on, G3 key=55 velocity: 0
@9185 Channel: 8 Note on, F4 key=65 velocity: 0
@9210 Channel: 8 Note on, F4 key=65 velocity: 120
@9210 Channel: 8 Note on, G3 key=55 velocity: 120
@9210 Channel: 8 Note on, B3 key=59 velocity: 120
@9218 Channel: 8 Note on, B3 key=59 velocity: 0
@9219 Channel: 8 Note on, G3 key=55 velocity: 0
@9219 Channel: 8 Note on, F4 key=65 velocity: 0
@9270 Channel: 8 Note on, F4 key=65 velocity: 120
@9270 Channel: 8 Note on, G3 key=55 velocity: 120
@9270 Channel: 8 Note on, B3 key=59 velocity: 120
@9274 Channel: 8 Note on, B3 key=59 velocity: 0
@9275 Channel: 8 Note on, G3 key=55 velocity: 0
@9287 Channel: 8 Note on, F4 key=65 velocity: 0
@9300 Channel: 8 Note on, G3 key=55 velocity: 120
@9300 Channel: 8 Note on, B3 key=59 velocity: 120
@9309 Channel: 8 Note on, B3 key=59 velocity: 0
@9310 Channel: 8 Note on, G3 key=55 velocity: 0
@9360 Channel: 8 Note on, D4 key=62 velocity: 120
@9360 Channel: 8 Note on, G3 key=55 velocity: 120
@9360 Channel: 8 Note on, B3 key=59 velocity: 120
@9369 Channel: 8 Note on, B3 key=59 velocity: 0
@9370 Channel: 8 Note on, G3 key=55 velocity: 0
@9370 Channel: 8 Note on, D4 key=62 velocity: 0
@9420 Channel: 8 Note on, G3 key=55 velocity: 120
@9420 Channel: 8 Note on, B3 key=59 velocity: 120
@9420 Channel: 8 Note on, D4 key=62 velocity: 120
@9424 Channel: 8 Note on, D4 key=62 velocity: 0
@9424 Channel: 8 Note on, B3 key=59 velocity: 0
@9425 Channel: 8 Note on, G3 key=55 velocity: 0
@9450 Channel: 8 Note on, G3 key=55 velocity: 121
@9450 Channel: 8 Note on, B3 key=59 velocity: 121
@9450 Channel: 8 Note on, D4 key=62 velocity: 121
@9457 Channel: 8 Note on, D4 key=62 velocity: 0
@9459 Channel: 8 Note on, B3 key=59 velocity: 0
@9460 Channel: 8 Note on, G3 key=55 velocity: 0
@9510 Channel: 8 Note on, G3 key=55 velocity: 122
@9510 Channel: 8 Note on, B3 key=59 velocity: 122
@9510 Channel: 8 Note on, D4 key=62 velocity: 122
@9514 Channel: 8 Note on, D4 key=62 velocity: 0
@9514 Channel: 8 Note on, B3 key=59 velocity: 0
@9515 Channel: 8 Note on, G3 key=55 velocity: 0
@9540 Channel: 8 Note on, G3 key=55 velocity: 122
@9540 Channel: 8 Note on, B3 key=59 velocity: 122
@9540 Channel: 8 Note on, D4 key=62 velocity: 122
@9549 Channel: 8 Note on, D4 key=62 velocity: 0
@9550 Channel: 8 Note on, B3 key=59 velocity: 0
@9550 Channel: 8 Note on, G3 key=55 velocity: 0
@9600 Channel: 8 Note on, C4 key=60 velocity: 122
@9600 Channel: 8 Note on, E4 key=64 velocity: 122
@9600 Channel: 8 Note on, G3 key=55 velocity: 122
@9600 Channel: 8 Note on, E4 key=64 velocity: 122
@9600 Channel: 8 Note on, C4 key=60 velocity: 122
@9600 Channel: 8 Note on, G3 key=55 velocity: 122
@9610 Channel: 8 Note on, C4 key=60 velocity: 0
@9610 Channel: 8 Note on, E4 key=64 velocity: 0
@9610 Channel: 8 Note on, G3 key=55 velocity: 0
@9612 Channel: 8 Note on, C4 key=60 velocity: 0
@9612 Channel: 8 Note on, G3 key=55 velocity: 0
@9612 Channel: 8 Note on, E4 key=64 velocity: 0
@9660 Channel: 8 Note on, G3 key=55 velocity: 122
@9660 Channel: 8 Note on, E4 key=64 velocity: 122
@9660 Channel: 8 Note on, C4 key=60 velocity: 122
@9664 Channel: 8 Note on, C4 key=60 velocity: 0
@9664 Channel: 8 Note on, E4 key=64 velocity: 0
@9665 Channel: 8 Note on, G3 key=55 velocity: 0
@9690 Channel: 8 Note on, G3 key=55 velocity: 122
@9690 Channel: 8 Note on, E4 key=64 velocity: 122
@9690 Channel: 8 Note on, C4 key=60 velocity: 122
@9699 Channel: 8 Note on, C4 key=60 velocity: 0
@9701 Channel: 8 Note on, E4 key=64 velocity: 0
@9701 Channel: 8 Note on, G3 key=55 velocity: 0
@9750 Channel: 8 Note on, C4 key=60 velocity: 122
@9750 Channel: 8 Note on, E4 key=64 velocity: 122
@9750 Channel: 8 Note on, G3 key=55 velocity: 122
@9754 Channel: 8 Note on, G3 key=55 velocity: 0
@9754 Channel: 8 Note on, E4 key=64 velocity: 0
@9754 Channel: 8 Note on, C4 key=60 velocity: 0
@9780 Channel: 8 Note on, E4 key=64 velocity: 122
@9780 Channel: 8 Note on, C4 key=60 velocity: 122
@9780 Channel: 8 Note on, G3 key=55 velocity: 122
@9791 Channel: 8 Note on, G3 key=55 velocity: 0
@9791 Channel: 8 Note on, C4 key=60 velocity: 0
@9791 Channel: 8 Note on, E4 key=64 velocity: 0
@9840 Channel: 8 Note on, F4 key=65 velocity: 120
@9840 Channel: 8 Note on, C4 key=60 velocity: 120
@9840 Channel: 8 Note on, G3 key=55 velocity: 120
@9851 Channel: 8 Note on, G3 key=55 velocity: 0
@9851 Channel: 8 Note on, C4 key=60 velocity: 0
@9851 Channel: 8 Note on, F4 key=65 velocity: 0
@9900 Channel: 8 Note on, F4 key=65 velocity: 120
@9900 Channel: 8 Note on, C4 key=60 velocity: 120
@9900 Channel: 8 Note on, G3 key=55 velocity: 120
@9904 Channel: 8 Note on, G3 key=55 velocity: 0
@9904 Channel: 8 Note on, C4 key=60 velocity: 0
@9905 Channel: 8 Note on, F4 key=65 velocity: 0
@9930 Channel: 8 Note on, F4 key=65 velocity: 120
@9930 Channel: 8 Note on, C4 key=60 velocity: 120
@9930 Channel: 8 Note on, G3 key=55 velocity: 120
@9941 Channel: 8 Note on, G3 key=55 velocity: 0
@9941 Channel: 8 Note on, C4 key=60 velocity: 0
@9941 Channel: 8 Note on, F4 key=65 velocity: 0
@9990 Channel: 8 Note on, G3 key=55 velocity: 119
@9990 Channel: 8 Note on, C4 key=60 velocity: 119
@9990 Channel: 8 Note on, F4 key=65 velocity: 119
@9995 Channel: 8 Note on, F4 key=65 velocity: 0
@9995 Channel: 8 Note on, C4 key=60 velocity: 0
@9995 Channel: 8 Note on, G3 key=55 velocity: 0
@10020 Channel: 8 Note on, F4 key=65 velocity: 119
@10020 Channel: 8 Note on, G3 key=55 velocity: 119
@10020 Channel: 8 Note on, C4 key=60 velocity: 119
@10032 Channel: 8 Note on, C4 key=60 velocity: 0
@10032 Channel: 8 Note on, G3 key=55 velocity: 0
@10033 Channel: 8 Note on, F4 key=65 velocity: 0
@10080 Channel: 8 Note on, C4 key=60 velocity: 118
@10080 Channel: 8 Note on, E4 key=64 velocity: 118
@10080 Channel: 8 Note on, G3 key=55 velocity: 118
@10089 Channel: 8 Note on, G3 key=55 velocity: 0
@10089 Channel: 8 Note on, E4 key=64 velocity: 0
@10089 Channel: 8 Note on, C4 key=60 velocity: 0
@10140 Channel: 8 Note on, C4 key=60 velocity: 118
@10140 Channel: 8 Note on, E4 key=64 velocity: 118
@10140 Channel: 8 Note on, G3 key=55 velocity: 118
@10145 Channel: 8 Note on, G3 key=55 velocity: 0
@10145 Channel: 8 Note on, E4 key=64 velocity: 0
@10145 Channel: 8 Note on, C4 key=60 velocity: 0
@10170 Channel: 8 Note on, E4 key=64 velocity: 118
@10170 Channel: 8 Note on, G3 key=55 velocity: 118
@10170 Channel: 8 Note on, C4 key=60 velocity: 118
@10179 Channel: 8 Note on, C4 key=60 velocity: 0
@10180 Channel: 8 Note on, G3 key=55 velocity: 0
@10180 Channel: 8 Note on, E4 key=64 velocity: 0
@10230 Channel: 8 Note on, G3 key=55 velocity: 118
@10230 Channel: 8 Note on, E4 key=64 velocity: 118
@10230 Channel: 8 Note on, C4 key=60 velocity: 118
@10235 Channel: 8 Note on, C4 key=60 velocity: 0
@10235 Channel: 8 Note on, E4 key=64 velocity: 0
@10235 Channel: 8 Note on, G3 key=55 velocity: 0
@10260 Channel: 8 Note on, E4 key=64 velocity: 118
@10260 Channel: 8 Note on, G3 key=55 velocity: 118
@10260 Channel: 8 Note on, C4 key=60 velocity: 118
@10270 Channel: 8 Note on, C4 key=60 velocity: 0
@10270 Channel: 8 Note on, G3 key=55 velocity: 0
@10270 Channel: 8 Note on, E4 key=64 velocity: 0
@10320 Channel: 8 Note on, C4 key=60 velocity: 118
@10320 Channel: 8 Note on, G3 key=55 velocity: 118
@10320 Channel: 8 Note on, F4 key=65 velocity: 118
@10330 Channel: 8 Note on, F4 key=65 velocity: 0
@10330 Channel: 8 Note on, G3 key=55 velocity: 0
@10330 Channel: 8 Note on, C4 key=60 velocity: 0
@10380 Channel: 8 Note on, C4 key=60 velocity: 118
@10380 Channel: 8 Note on, F4 key=65 velocity: 118
@10380 Channel: 8 Note on, G3 key=55 velocity: 118
@10385 Channel: 8 Note on, G3 key=55 velocity: 0
@10385 Channel: 8 Note on, F4 key=65 velocity: 0
@10385 Channel: 8 Note on, C4 key=60 velocity: 0
@10410 Channel: 8 Note on, F4 key=65 velocity: 118
@10410 Channel: 8 Note on, C4 key=60 velocity: 118
@10410 Channel: 8 Note on, G3 key=55 velocity: 118
@10419 Channel: 8 Note on, C4 key=60 velocity: 0
@10419 Channel: 8 Note on, F4 key=65 velocity: 0
@10420 Channel: 8 Note on, G3 key=55 velocity: 0
@10470 Channel: 8 Note on, F4 key=65 velocity: 119
@10470 Channel: 8 Note on, C4 key=60 velocity: 119
@10470 Channel: 8 Note on, G3 key=55 velocity: 119
@10474 Channel: 8 Note on, G3 key=55 velocity: 0
@10474 Channel: 8 Note on, C4 key=60 velocity: 0
@10475 Channel: 8 Note on, F4 key=65 velocity: 0
@10500 Channel: 8 Note on, F4 key=65 velocity: 120
@10500 Channel: 8 Note on, G3 key=55 velocity: 120
@10500 Channel: 8 Note on, C4 key=60 velocity: 120
@10509 Channel: 8 Note on, F4 key=65 velocity: 0
@10510 Channel: 8 Note on, C4 key=60 velocity: 0
@10510 Channel: 8 Note on, G3 key=55 velocity: 0
@10560 Channel: 8 Note on, C4 key=60 velocity: 120
@10560 Channel: 8 Note on, E4 key=64 velocity: 120
@10560 Channel: 8 Note on, A3 key=57 velocity: 120
@10570 Channel: 8 Note on, A3 key=57 velocity: 0
@10570 Channel: 8 Note on, E4 key=64 velocity: 0
@10571 Channel: 8 Note on, C4 key=60 velocity: 0
@10620 Channel: 8 Note on, A3 key=57 velocity: 120
@10620 Channel: 8 Note on, C4 key=60 velocity: 120
@10620 Channel: 8 Note on, E4 key=64 velocity: 120
@10625 Channel: 8 Note on, E4 key=64 velocity: 0
@10625 Channel: 8 Note on, C4 key=60 velocity: 0
@10626 Channel: 8 Note on, A3 key=57 velocity: 0
@10650 Channel: 8 Note on, A3 key=57 velocity: 120
@10650 Channel: 8 Note on, E4 key=64 velocity: 120
@10650 Channel: 8 Note on, C4 key=60 velocity: 120
@10659 Channel: 8 Note on, C4 key=60 velocity: 0
@10660 Channel: 8 Note on, E4 key=64 velocity: 0
@10660 Channel: 8 Note on, A3 key=57 velocity: 0
@10710 Channel: 8 Note on, C4 key=60 velocity: 119
@10710 Channel: 8 Note on, A3 key=57 velocity: 119
@10710 Channel: 8 Note on, E4 key=64 velocity: 119
@10714 Channel: 8 Note on, E4 key=64 velocity: 0
@10714 Channel: 8 Note on, A3 key=57 velocity: 0
@10714 Channel: 8 Note on, C4 key=60 velocity: 0
@10740 Channel: 8 Note on, A3 key=57 velocity: 118
@10740 Channel: 8 Note on, C4 key=60 velocity: 118
@10740 Channel: 8 Note on, E4 key=64 velocity: 118
@10750 Channel: 8 Note on, E4 key=64 velocity: 0
@10750 Channel: 8 Note on, C4 key=60 velocity: 0
@10750 Channel: 8 Note on, A3 key=57 velocity: 0
@10800 Channel: 8 Note on, A3 key=57 velocity: 118
@10800 Channel: 8 Note on, C4 key=60 velocity: 118
@10800 Channel: 8 Note on, E4 key=64 velocity: 118
@10810 Channel: 8 Note on, E4 key=64 velocity: 0
@10810 Channel: 8 Note on, C4 key=60 velocity: 0
@10810 Channel: 8 Note on, A3 key=57 velocity: 0
@10860 Channel: 8 Note on, A3 key=57 velocity: 118
@10860 Channel: 8 Note on, E4 key=64 velocity: 118
@10860 Channel: 8 Note on, C4 key=60 velocity: 118
@10864 Channel: 8 Note on, C4 key=60 velocity: 0
@10865 Channel: 8 Note on, E4 key=64 velocity: 0
@10865 Channel: 8 Note on, A3 key=57 velocity: 0
@10890 Channel: 8 Note on, A3 key=57 velocity: 118
@10890 Channel: 8 Note on, C4 key=60 velocity: 118
@10890 Channel: 8 Note on, E4 key=64 velocity: 118
@10899 Channel: 8 Note on, E4 key=64 velocity: 0
@10899 Channel: 8 Note on, C4 key=60 velocity: 0
@10900 Channel: 8 Note on, A3 key=57 velocity: 0
@10950 Channel: 8 Note on, A3 key=57 velocity: 118
@10950 Channel: 8 Note on, C4 key=60 velocity: 118
@10950 Channel: 8 Note on, E4 key=64 velocity: 118
@10954 Channel: 8 Note on, E4 key=64 velocity: 0
@10954 Channel: 8 Note on, C4 key=60 velocity: 0
@10954 Channel: 8 Note on, A3 key=57 velocity: 0
@10980 Channel: 8 Note on, A3 key=57 velocity: 119
@10980 Channel: 8 Note on, E4 key=64 velocity: 119
@10980 Channel: 8 Note on, C4 key=60 velocity: 119
@10987 Channel: 8 Note on, C4 key=60 velocity: 0
@10987 Channel: 8 Note on, E4 key=64 velocity: 0
@10988 Channel: 8 Note on, A3 key=57 velocity: 0
@11040 Channel: 8 Note on, A3 key=57 velocity: 119
@11040 Channel: 8 Note on, E4 key=64 velocity: 119
@11040 Channel: 8 Note on, C4 key=60 velocity: 119
@11049 Channel: 8 Note on, C4 key=60 velocity: 0
@11050 Channel: 8 Note on, E4 key=64 velocity: 0
@11050 Channel: 8 Note on, A3 key=57 velocity: 0
@11100 Channel: 8 Note on, A3 key=57 velocity: 119
@11100 Channel: 8 Note on, C4 key=60 velocity: 119
@11100 Channel: 8 Note on, E4 key=64 velocity: 119
@11104 Channel: 8 Note on, C4 key=60 velocity: 0
@11105 Channel: 8 Note on, E4 key=64 velocity: 0
@11105 Channel: 8 Note on, A3 key=57 velocity: 0
@11130 Channel: 8 Note on, A3 key=57 velocity: 119
@11130 Channel: 8 Note on, E4 key=64 velocity: 119
@11130 Channel: 8 Note on, C4 key=60 velocity: 119
@11137 Channel: 8 Note on, C4 key=60 velocity: 0
@11138 Channel: 8 Note on, E4 key=64 velocity: 0
@11139 Channel: 8 Note on, A3 key=57 velocity: 0
@11190 Channel: 8 Note on, A3 key=57 velocity: 117
@11190 Channel: 8 Note on, C4 key=60 velocity: 117
@11190 Channel: 8 Note on, E4 key=64 velocity: 117
@11193 Channel: 8 Note on, E4 key=64 velocity: 0
@11193 Channel: 8 Note on, C4 key=60 velocity: 0
@11195 Channel: 8 Note on, A3 key=57 velocity: 0
@11220 Channel: 8 Note on, A3 key=57 velocity: 117
@11220 Channel: 8 Note on, C4 key=60 velocity: 117
@11220 Channel: 8 Note on, E4 key=64 velocity: 117
@11228 Channel: 8 Note on, C4 key=60 velocity: 0
@11229 Channel: 8 Note on, E4 key=64 velocity: 0
@11229 Channel: 8 Note on, A3 key=57 velocity: 0
@11280 Channel: 8 Note on, A3 key=57 velocity: 117
@11280 Channel: 8 Note on, E4 key=64 velocity: 117
@11280 Channel: 8 Note on, C4 key=60 velocity: 117
@11289 Channel: 8 Note on, C4 key=60 velocity: 0
@11290 Channel: 8 Note on, E4 key=64 velocity: 0
@11290 Channel: 8 Note on, A3 key=57 velocity: 0
@11340 Channel: 8 Note on, A3 key=57 velocity: 118
@11340 Channel: 8 Note on, C4 key=60 velocity: 118
@11340 Channel: 8 Note on, E4 key=64 velocity: 118
@11344 Channel: 8 Note on, E4 key=64 velocity: 0
@11344 Channel: 8 Note on, C4 key=60 velocity: 0
@11345 Channel: 8 Note on, A3 key=57 velocity: 0
@11370 Channel: 8 Note on, A3 key=57 velocity: 119
@11370 Channel: 8 Note on, E4 key=64 velocity: 119
@11370 Channel: 8 Note on, C4 key=60 velocity: 119
@11379 Channel: 8 Note on, C4 key=60 velocity: 0
@11379 Channel: 8 Note on, E4 key=64 velocity: 0
@11380 Channel: 8 Note on, A3 key=57 velocity: 0
@11430 Channel: 8 Note on, A3 key=57 velocity: 119
@11430 Channel: 8 Note on, C4 key=60 velocity: 119
@11430 Channel: 8 Note on, E4 key=64 velocity: 119
@11434 Channel: 8 Note on, E4 key=64 velocity: 0
@11434 Channel: 8 Note on, C4 key=60 velocity: 0
@11436 Channel: 8 Note on, A3 key=57 velocity: 0
@11460 Channel: 8 Note on, E4 key=64 velocity: 119
@11460 Channel: 8 Note on, A3 key=57 velocity: 119
@11460 Channel: 8 Note on, C4 key=60 velocity: 119
@11468 Channel: 8 Note on, C4 key=60 velocity: 0
@11468 Channel: 8 Note on, E4 key=64 velocity: 0
@11469 Channel: 8 Note on, A3 key=57 velocity: 0
@11520 Channel: 8 Note on, C4 key=60 velocity: 119
@11520 Channel: 8 Note on, F4 key=65 velocity: 119
@11520 Channel: 8 Note on, A3 key=57 velocity: 119
@11529 Channel: 8 Note on, A3 key=57 velocity: 0
@11529 Channel: 8 Note on, C4 key=60 velocity: 0
@11530 Channel: 8 Note on, F4 key=65 velocity: 0
@11580 Channel: 8 Note on, F4 key=65 velocity: 120
@11580 Channel: 8 Note on, C4 key=60 velocity: 120
@11580 Channel: 8 Note on, A3 key=57 velocity: 120
@11584 Channel: 8 Note on, C4 key=60 velocity: 0
@11585 Channel: 8 Note on, A3 key=57 velocity: 0
@11585 Channel: 8 Note on, F4 key=65 velocity: 0
@11610 Channel: 8 Note on, A3 key=57 velocity: 120
@11610 Channel: 8 Note on, F4 key=65 velocity: 120
@11610 Channel: 8 Note on, C4 key=60 velocity: 120
@11619 Channel: 8 Note on, C4 key=60 velocity: 0
@11619 Channel: 8 Note on, F4 key=65 velocity: 0
@11619 Channel: 8 Note on, A3 key=57 velocity: 0
@11670 Channel: 8 Note on, A3 key=57 velocity: 120
@11670 Channel: 8 Note on, C4 key=60 velocity: 120
@11670 Channel: 8 Note on, F4 key=65 velocity: 120
@11674 Channel: 8 Note on, F4 key=65 velocity: 0
@11674 Channel: 8 Note on, C4 key=60 velocity: 0
@11675 Channel: 8 Note on, A3 key=57 velocity: 0
@11700 Channel: 8 Note on, A3 key=57 velocity: 120
@11700 Channel: 8 Note on, F4 key=65 velocity: 120
@11700 Channel: 8 Note on, C4 key=60 velocity: 120
@11708 Channel: 8 Note on, C4 key=60 velocity: 0
@11708 Channel: 8 Note on, F4 key=65 velocity: 0
@11708 Channel: 8 Note on, A3 key=57 velocity: 0
@11760 Channel: 8 Note on, C4 key=60 velocity: 120
@11760 Channel: 8 Note on, G3 key=55 velocity: 120
@11760 Channel: 8 Note on, F4 key=65 velocity: 120
@11769 Channel: 8 Note on, F4 key=65 velocity: 0
@11769 Channel: 8 Note on, G3 key=55 velocity: 0
@11769 Channel: 8 Note on, C4 key=60 velocity: 0
@11820 Channel: 8 Note on, G3 key=55 velocity: 120
@11820 Channel: 8 Note on, C4 key=60 velocity: 120
@11820 Channel: 8 Note on, F4 key=65 velocity: 120
@11825 Channel: 8 Note on, F4 key=65 velocity: 0
@11825 Channel: 8 Note on, C4 key=60 velocity: 0
@11825 Channel: 8 Note on, G3 key=55 velocity: 0
@11850 Channel: 8 Note on, G3 key=55 velocity: 120
@11850 Channel: 8 Note on, F4 key=65 velocity: 120
@11850 Channel: 8 Note on, C4 key=60 velocity: 120
@11857 Channel: 8 Note on, C4 key=60 velocity: 0
@11857 Channel: 8 Note on, F4 key=65 velocity: 0
@11859 Channel: 8 Note on, G3 key=55 velocity: 0
@11910 Channel: 8 Note on, G3 key=55 velocity: 120
@11910 Channel: 8 Note on, C4 key=60 velocity: 120
@11910 Channel: 8 Note on, F4 key=65 velocity: 120
@11915 Channel: 8 Note on, F4 key=65 velocity: 0
@11915 Channel: 8 Note on, C4 key=60 velocity: 0
@11915 Channel: 8 Note on, G3 key=55 velocity: 0
@11940 Channel: 8 Note on, G3 key=55 velocity: 120
@11940 Channel: 8 Note on, F4 key=65 velocity: 120
@11940 Channel: 8 Note on, C4 key=60 velocity: 120
@11949 Channel: 8 Note on, C4 key=60 velocity: 0
@11949 Channel: 8 Note on, F4 key=65 velocity: 0
@11949 Channel: 8 Note on, G3 key=55 velocity: 0
@12000 Channel: 8 Note on, A3 key=57 velocity: 120
@12000 Channel: 8 Note on, C4 key=60 velocity: 120
@12000 Channel: 8 Note on, F4 key=65 velocity: 120
@12007 Channel: 8 Note on, F4 key=65 velocity: 0
@12008 Channel: 8 Note on, C4 key=60 velocity: 0
@12009 Channel: 8 Note on, A3 key=57 velocity: 0
@12060 Channel: 8 Note on, F4 key=65 velocity: 120
@12060 Channel: 8 Note on, A3 key=57 velocity: 120
@12060 Channel: 8 Note on, C4 key=60 velocity: 120
@12064 Channel: 8 Note on, C4 key=60 velocity: 0
@12064 Channel: 8 Note on, A3 key=57 velocity: 0
@12064 Channel: 8 Note on, F4 key=65 velocity: 0
@12090 Channel: 8 Note on, A3 key=57 velocity: 120
@12090 Channel: 8 Note on, F4 key=65 velocity: 120
@12090 Channel: 8 Note on, C4 key=60 velocity: 120
@12097 Channel: 8 Note on, C4 key=60 velocity: 0
@12098 Channel: 8 Note on, F4 key=65 velocity: 0
@12099 Channel: 8 Note on, A3 key=57 velocity: 0
@12150 Channel: 8 Note on, A3 key=57 velocity: 120
@12150 Channel: 8 Note on, F4 key=65 velocity: 120
@12150 Channel: 8 Note on, C4 key=60 velocity: 120
@12154 Channel: 8 Note on, C4 key=60 velocity: 0
@12155 Channel: 8 Note on, F4 key=65 velocity: 0
@12155 Channel: 8 Note on, A3 key=57 velocity: 0
@12180 Channel: 8 Note on, F4 key=65 velocity: 120
@12180 Channel: 8 Note on, A3 key=57 velocity: 120
@12180 Channel: 8 Note on, C4 key=60 velocity: 120
@12188 Channel: 8 Note on, C4 key=60 velocity: 0
@12189 Channel: 8 Note on, A3 key=57 velocity: 0
@12189 Channel: 8 Note on, F4 key=65 velocity: 0
@12240 Channel: 8 Note on, C4 key=60 velocity: 120
@12240 Channel: 8 Note on, F4 key=65 velocity: 120
@12240 Channel: 8 Note on, G3 key=55 velocity: 120
@12247 Channel: 8 Note on, G3 key=55 velocity: 0
@12248 Channel: 8 Note on, F4 key=65 velocity: 0
@12248 Channel: 8 Note on, C4 key=60 velocity: 0
@12300 Channel: 8 Note on, C4 key=60 velocity: 120
@12300 Channel: 8 Note on, G3 key=55 velocity: 120
@12300 Channel: 8 Note on, F4 key=65 velocity: 120
@12305 Channel: 8 Note on, F4 key=65 velocity: 0
@12305 Channel: 8 Note on, G3 key=55 velocity: 0
@12305 Channel: 8 Note on, C4 key=60 velocity: 0
@12330 Channel: 8 Note on, F4 key=65 velocity: 120
@12330 Channel: 8 Note on, G3 key=55 velocity: 120
@12330 Channel: 8 Note on, C4 key=60 velocity: 120
@12338 Channel: 8 Note on, C4 key=60 velocity: 0
@12339 Channel: 8 Note on, G3 key=55 velocity: 0
@12339 Channel: 8 Note on, F4 key=65 velocity: 0
@12390 Channel: 8 Note on, C4 key=60 velocity: 120
@12390 Channel: 8 Note on, F4 key=65 velocity: 120
@12390 Channel: 8 Note on, G3 key=55 velocity: 120
@12395 Channel: 8 Note on, G3 key=55 velocity: 0
@12395 Channel: 8 Note on, F4 key=65 velocity: 0
@12395 Channel: 8 Note on, C4 key=60 velocity: 0
@12420 Channel: 8 Note on, F4 key=65 velocity: 120
@12420 Channel: 8 Note on, C4 key=60 velocity: 120
@12420 Channel: 8 Note on, G3 key=55 velocity: 120
@12427 Channel: 8 Note on, F4 key=65 velocity: 0
@12428 Channel: 8 Note on, C4 key=60 velocity: 0
@12429 Channel: 8 Note on, G3 key=55 velocity: 0
@12480 Channel: 8 Note on, B3 key=59 velocity: 120
@12480 Channel: 8 Note on, G3 key=55 velocity: 120
@12480 Channel: 8 Note on, E4 key=64 velocity: 120
@12488 Channel: 8 Note on, E4 key=64 velocity: 0
@12488 Channel: 8 Note on, B3 key=59 velocity: 0
@12489 Channel: 8 Note on, G3 key=55 velocity: 0
@12540 Channel: 8 Note on, E4 key=64 velocity: 120
@12540 Channel: 8 Note on, B3 key=59 velocity: 120
@12540 Channel: 8 Note on, G3 key=55 velocity: 120
@12544 Channel: 8 Note on, G3 key=55 velocity: 0
@12544 Channel: 8 Note on, B3 key=59 velocity: 0
@12545 Channel: 8 Note on, E4 key=64 velocity: 0
@12570 Channel: 8 Note on, E4 key=64 velocity: 120
@12570 Channel: 8 Note on, G3 key=55 velocity: 120
@12570 Channel: 8 Note on, B3 key=59 velocity: 120
@12578 Channel: 8 Note on, B3 key=59 velocity: 0
@12578 Channel: 8 Note on, G3 key=55 velocity: 0
@12579 Channel: 8 Note on, E4 key=64 velocity: 0
@12630 Channel: 8 Note on, E4 key=64 velocity: 120
@12630 Channel: 8 Note on, B3 key=59 velocity: 120
@12630 Channel: 8 Note on, G3 key=55 velocity: 120
@12634 Channel: 8 Note on, G3 key=55 velocity: 0
@12634 Channel: 8 Note on, B3 key=59 velocity: 0
@12634 Channel: 8 Note on, E4 key=64 velocity: 0
@12660 Channel: 8 Note on, G3 key=55 velocity: 120
@12660 Channel: 8 Note on, E4 key=64 velocity: 120
@12660 Channel: 8 Note on, B3 key=59 velocity: 120
@12667 Channel: 8 Note on, B3 key=59 velocity: 0
@12667 Channel: 8 Note on, E4 key=64 velocity: 0
@12668 Channel: 8 Note on, G3 key=55 velocity: 0
@12720 Channel: 8 Note on, E4 key=64 velocity: 120
@12720 Channel: 8 Note on, G3 key=55 velocity: 120
@12720 Channel: 8 Note on, B3 key=59 velocity: 120
@12729 Channel: 8 Note on, B3 key=59 velocity: 0
@12730 Channel: 8 Note on, G3 key=55 velocity: 0
@12730 Channel: 8 Note on, E4 key=64 velocity: 0
@12780 Channel: 8 Note on, G3 key=55 velocity: 121
@12780 Channel: 8 Note on, B3 key=59 velocity: 121
@12780 Channel: 8 Note on, E4 key=64 velocity: 121
@12784 Channel: 8 Note on, E4 key=64 velocity: 0
@12784 Channel: 8 Note on, B3 key=59 velocity: 0
@12784 Channel: 8 Note on, G3 key=55 velocity: 0
@12810 Channel: 8 Note on, G3 key=55 velocity: 121
@12810 Channel: 8 Note on, E4 key=64 velocity: 121
@12810 Channel: 8 Note on, B3 key=59 velocity: 121
@12817 Channel: 8 Note on, B3 key=59 velocity: 0
@12817 Channel: 8 Note on, E4 key=64 velocity: 0
@12818 Channel: 8 Note on, G3 key=55 velocity: 0
@12870 Channel: 8 Note on, B3 key=59 velocity: 121
@12870 Channel: 8 Note on, G3 key=55 velocity: 121
@12870 Channel: 8 Note on, E4 key=64 velocity: 121
@12874 Channel: 8 Note on, E4 key=64 velocity: 0
@12874 Channel: 8 Note on, B3 key=59 velocity: 0
@12875 Channel: 8 Note on, G3 key=55 velocity: 0
@12900 Channel: 8 Note on, G3 key=55 velocity: 121
@12900 Channel: 8 Note on, E4 key=64 velocity: 121
@12900 Channel: 8 Note on, B3 key=59 velocity: 121
@12908 Channel: 8 Note on, B3 key=59 velocity: 0
@12908 Channel: 8 Note on, E4 key=64 velocity: 0
@12909 Channel: 8 Note on, G3 key=55 velocity: 0
@12960 Channel: 8 Note on, A3 key=57 velocity: 121
@12960 Channel: 8 Note on, C4 key=60 velocity: 121
@12960 Channel: 8 Note on, F4 key=65 velocity: 121
@12969 Channel: 8 Note on, C4 key=60 velocity: 0
@12969 Channel: 8 Note on, A3 key=57 velocity: 0
@12970 Channel: 8 Note on, F4 key=65 velocity: 0
@13020 Channel: 8 Note on, A3 key=57 velocity: 121
@13020 Channel: 8 Note on, F4 key=65 velocity: 121
@13020 Channel: 8 Note on, C4 key=60 velocity: 121
@13024 Channel: 8 Note on, C4 key=60 velocity: 0
@13024 Channel: 8 Note on, F4 key=65 velocity: 0
@13024 Channel: 8 Note on, A3 key=57 velocity: 0
@13050 Channel: 8 Note on, F4 key=65 velocity: 121
@13050 Channel: 8 Note on, A3 key=57 velocity: 121
@13050 Channel: 8 Note on, C4 key=60 velocity: 121
@13058 Channel: 8 Note on, C4 key=60 velocity: 0
@13059 Channel: 8 Note on, A3 key=57 velocity: 0
@13059 Channel: 8 Note on, F4 key=65 velocity: 0
@13110 Channel: 8 Note on, C4 key=60 velocity: 121
@13110 Channel: 8 Note on, F4 key=65 velocity: 121
@13110 Channel: 8 Note on, A3 key=57 velocity: 121
@13114 Channel: 8 Note on, C4 key=60 velocity: 0
@13115 Channel: 8 Note on, A3 key=57 velocity: 0
@13115 Channel: 8 Note on, F4 key=65 velocity: 0
@13140 Channel: 8 Note on, F4 key=65 velocity: 121
@13140 Channel: 8 Note on, A3 key=57 velocity: 121
@13140 Channel: 8 Note on, C4 key=60 velocity: 121
@13148 Channel: 8 Note on, C4 key=60 velocity: 0
@13148 Channel: 8 Note on, A3 key=57 velocity: 0
@13149 Channel: 8 Note on, F4 key=65 velocity: 0
@13200 Channel: 8 Note on, B3 key=59 velocity: 121
@13200 Channel: 8 Note on, D4 key=62 velocity: 121
@13200 Channel: 8 Note on, G4 key=67 velocity: 121
@13209 Channel: 8 Note on, D4 key=62 velocity: 0
@13210 Channel: 8 Note on, G4 key=67 velocity: 0
@13210 Channel: 8 Note on, B3 key=59 velocity: 0
@13260 Channel: 8 Note on, G4 key=67 velocity: 122
@13260 Channel: 8 Note on, B3 key=59 velocity: 122
@13260 Channel: 8 Note on, D4 key=62 velocity: 122
@13264 Channel: 8 Note on, D4 key=62 velocity: 0
@13264 Channel: 8 Note on, B3 key=59 velocity: 0
@13265 Channel: 8 Note on, G4 key=67 velocity: 0
@13290 Channel: 8 Note on, G4 key=67 velocity: 122
@13290 Channel: 8 Note on, D4 key=62 velocity: 122
@13290 Channel: 8 Note on, B3 key=59 velocity: 122
@13299 Channel: 8 Note on, B3 key=59 velocity: 0
@13299 Channel: 8 Note on, D4 key=62 velocity: 0
@13299 Channel: 8 Note on, G4 key=67 velocity: 0
@13350 Channel: 8 Note on, G4 key=67 velocity: 122
@13350 Channel: 8 Note on, D4 key=62 velocity: 122
@13350 Channel: 8 Note on, B3 key=59 velocity: 122
@13354 Channel: 8 Note on, B3 key=59 velocity: 0
@13354 Channel: 8 Note on, D4 key=62 velocity: 0
@13354 Channel: 8 Note on, G4 key=67 velocity: 0
@13380 Channel: 8 Note on, B3 key=59 velocity: 122
@13380 Channel: 8 Note on, G4 key=67 velocity: 122
@13380 Channel: 8 Note on, D4 key=62 velocity: 122
@13380 Channel: 8 Note on, F4 key=65 velocity: 122
@13383 Channel: 8 Note on, F4 key=65 velocity: 0
@13392 Channel: 8 Note on, B3 key=59 velocity: 0
@13392 Channel: 8 Note on, G4 key=67 velocity: 0
@13392 Channel: 8 Note on, D4 key=62 velocity: 0
@13440 Channel: 8 Note on, C4 key=60 velocity: 121
@13440 Channel: 8 Note on, G3 key=55 velocity: 121
@13440 Channel: 8 Note on, E4 key=64 velocity: 121
@13453 Channel: 8 Note on, E4 key=64 velocity: 0
@13453 Channel: 8 Note on, G3 key=55 velocity: 0
@13453 Channel: 8 Note on, C4 key=60 velocity: 0
@13500 Channel: 8 Note on, E4 key=64 velocity: 121
@13500 Channel: 8 Note on, G3 key=55 velocity: 121
@13500 Channel: 8 Note on, C4 key=60 velocity: 121
@13505 Channel: 8 Note on, C4 key=60 velocity: 0
@13505 Channel: 8 Note on, G3 key=55 velocity: 0
@13505 Channel: 8 Note on, E4 key=64 velocity: 0
@13530 Channel: 8 Note on, C4 key=60 velocity: 121
@13530 Channel: 8 Note on, G3 key=55 velocity: 121
@13530 Channel: 8 Note on, E4 key=64 velocity: 121
@13543 Channel: 8 Note on, E4 key=64 velocity: 0
@13543 Channel: 8 Note on, G3 key=55 velocity: 0
@13543 Channel: 8 Note on, C4 key=60 velocity: 0
@13590 Channel: 8 Note on, G3 key=55 velocity: 119
@13590 Channel: 8 Note on, C4 key=60 velocity: 119
@13590 Channel: 8 Note on, E4 key=64 velocity: 119
@13595 Channel: 8 Note on, E4 key=64 velocity: 0
@13595 Channel: 8 Note on, C4 key=60 velocity: 0
@13595 Channel: 8 Note on, G3 key=55 velocity: 0
@13620 Channel: 8 Note on, G3 key=55 velocity: 119
@13620 Channel: 8 Note on, C4 key=60 velocity: 119
@13620 Channel: 8 Note on, E4 key=64 velocity: 119
@13633 Channel: 8 Note on, E4 key=64 velocity: 0
@13633 Channel: 8 Note on, C4 key=60 velocity: 0
@13633 Channel: 8 Note on, G3 key=55 velocity: 0
@13680 Channel: 8 Note on, F4 key=65 velocity: 119
@13680 Channel: 8 Note on, G3 key=55 velocity: 119
@13680 Channel: 8 Note on, C4 key=60 velocity: 119
@13693 Channel: 8 Note on, C4 key=60 velocity: 0
@13693 Channel: 8 Note on, G3 key=55 velocity: 0
@13693 Channel: 8 Note on, F4 key=65 velocity: 0
@13740 Channel: 8 Note on, G3 key=55 velocity: 120
@13740 Channel: 8 Note on, C4 key=60 velocity: 120
@13740 Channel: 8 Note on, F4 key=65 velocity: 120
@13745 Channel: 8 Note on, F4 key=65 velocity: 0
@13745 Channel: 8 Note on, C4 key=60 velocity: 0
@13745 Channel: 8 Note on, G3 key=55 velocity: 0
@13770 Channel: 8 Note on, F4 key=65 velocity: 120
@13770 Channel: 8 Note on, C4 key=60 velocity: 120
@13770 Channel: 8 Note on, G3 key=55 velocity: 120
@13783 Channel: 8 Note on, G3 key=55 velocity: 0
@13783 Channel: 8 Note on, C4 key=60 velocity: 0
@13783 Channel: 8 Note on, F4 key=65 velocity: 0
@13830 Channel: 8 Note on, G3 key=55 velocity: 120
@13830 Channel: 8 Note on, C4 key=60 velocity: 120
@13830 Channel: 8 Note on, F4 key=65 velocity: 120
@13835 Channel: 8 Note on, F4 key=65 velocity: 0
@13835 Channel: 8 Note on, C4 key=60 velocity: 0
@13835 Channel: 8 Note on, G3 key=55 velocity: 0
@13860 Channel: 8 Note on, F4 key=65 velocity: 120
@13860 Channel: 8 Note on, G3 key=55 velocity: 120
@13860 Channel: 8 Note on, C4 key=60 velocity: 120
@13873 Channel: 8 Note on, C4 key=60 velocity: 0
@13873 Channel: 8 Note on, G3 key=55 velocity: 0
@13873 Channel: 8 Note on, F4 key=65 velocity: 0
@13920 Channel: 8 Note on, C4 key=60 velocity: 120
@13920 Channel: 8 Note on, G3 key=55 velocity: 120
@13920 Channel: 8 Note on, E4 key=64 velocity: 120
@13933 Channel: 8 Note on, E4 key=64 velocity: 0
@13933 Channel: 8 Note on, G3 key=55 velocity: 0
@13933 Channel: 8 Note on, C4 key=60 velocity: 0
@13980 Channel: 8 Note on, E4 key=64 velocity: 120
@13980 Channel: 8 Note on, G3 key=55 velocity: 120
@13980 Channel: 8 Note on, C4 key=60 velocity: 120
@13985 Channel: 8 Note on, C4 key=60 velocity: 0
@13985 Channel: 8 Note on, G3 key=55 velocity: 0
@13985 Channel: 8 Note on, E4 key=64 velocity: 0
@14010 Channel: 8 Note on, C4 key=60 velocity: 120
@14010 Channel: 8 Note on, G3 key=55 velocity: 120
@14010 Channel: 8 Note on, E4 key=64 velocity: 120
@14023 Channel: 8 Note on, E4 key=64 velocity: 0
@14023 Channel: 8 Note on, G3 key=55 velocity: 0
@14023 Channel: 8 Note on, C4 key=60 velocity: 0
@14070 Channel: 8 Note on, G3 key=55 velocity: 120
@14070 Channel: 8 Note on, C4 key=60 velocity: 120
@14070 Channel: 8 Note on, E4 key=64 velocity: 120
@14075 Channel: 8 Note on, E4 key=64 velocity: 0
@14075 Channel: 8 Note on, C4 key=60 velocity: 0
@14075 Channel: 8 Note on, G3 key=55 velocity: 0
@14100 Channel: 8 Note on, G3 key=55 velocity: 120
@14100 Channel: 8 Note on, C4 key=60 velocity: 120
@14100 Channel: 8 Note on, E4 key=64 velocity: 120
@14113 Channel: 8 Note on, E4 key=64 velocity: 0
@14113 Channel: 8 Note on, C4 key=60 velocity: 0
@14113 Channel: 8 Note on, G3 key=55 velocity: 0
@14160 Channel: 8 Note on, F4 key=65 velocity: 120
@14160 Channel: 8 Note on, G3 key=55 velocity: 120
@14160 Channel: 8 Note on, C4 key=60 velocity: 120
@14173 Channel: 8 Note on, C4 key=60 velocity: 0
@14173 Channel: 8 Note on, G3 key=55 velocity: 0
@14173 Channel: 8 Note on, F4 key=65 velocity: 0
@14220 Channel: 8 Note on, G3 key=55 velocity: 120
@14220 Channel: 8 Note on, C4 key=60 velocity: 120
@14220 Channel: 8 Note on, F4 key=65 velocity: 120
@14225 Channel: 8 Note on, F4 key=65 velocity: 0
@14225 Channel: 8 Note on, C4 key=60 velocity: 0
@14225 Channel: 8 Note on, G3 key=55 velocity: 0
@14250 Channel: 8 Note on, F4 key=65 velocity: 120
@14250 Channel: 8 Note on, C4 key=60 velocity: 120
@14250 Channel: 8 Note on, G3 key=55 velocity: 120
@14263 Channel: 8 Note on, G3 key=55 velocity: 0
@14263 Channel: 8 Note on, C4 key=60 velocity: 0
@14263 Channel: 8 Note on, F4 key=65 velocity: 0
@14310 Channel: 8 Note on, G3 key=55 velocity: 120
@14310 Channel: 8 Note on, C4 key=60 velocity: 120
@14310 Channel: 8 Note on, F4 key=65 velocity: 120
@14315 Channel: 8 Note on, F4 key=65 velocity: 0
@14315 Channel: 8 Note on, C4 key=60 velocity: 0
@14315 Channel: 8 Note on, G3 key=55 velocity: 0
@14340 Channel: 8 Note on, F4 key=65 velocity: 120
@14340 Channel: 8 Note on, G3 key=55 velocity: 120
@14340 Channel: 8 Note on, C4 key=60 velocity: 120
@14353 Channel: 8 Note on, C4 key=60 velocity: 0
@14353 Channel: 8 Note on, G3 key=55 velocity: 0
@14353 Channel: 8 Note on, F4 key=65 velocity: 0
@14400 Channel: 8 Note on, C4 key=60 velocity: 120
@14400 Channel: 8 Note on, G3 key=55 velocity: 120
@14400 Channel: 8 Note on, E4 key=64 velocity: 120
@14413 Channel: 8 Note on, E4 key=64 velocity: 0
@14413 Channel: 8 Note on, G3 key=55 velocity: 0
@14413 Channel: 8 Note on, C4 key=60 velocity: 0
@14460 Channel: 8 Note on, E4 key=64 velocity: 120
@14460 Channel: 8 Note on, G3 key=55 velocity: 120
@14460 Channel: 8 Note on, C4 key=60 velocity: 120
@14465 Channel: 8 Note on, C4 key=60 velocity: 0
@14465 Channel: 8 Note on, G3 key=55 velocity: 0
@14465 Channel: 8 Note on, E4 key=64 velocity: 0
@14490 Channel: 8 Note on, C4 key=60 velocity: 121
@14490 Channel: 8 Note on, G3 key=55 velocity: 121
@14490 Channel: 8 Note on, E4 key=64 velocity: 121
@14503 Channel: 8 Note on, E4 key=64 velocity: 0
@14503 Channel: 8 Note on, G3 key=55 velocity: 0
@14503 Channel: 8 Note on, C4 key=60 velocity: 0
@14550 Channel: 8 Note on, G3 key=55 velocity: 121
@14550 Channel: 8 Note on, C4 key=60 velocity: 121
@14550 Channel: 8 Note on, E4 key=64 velocity: 121
@14555 Channel: 8 Note on, E4 key=64 velocity: 0
@14555 Channel: 8 Note on, C4 key=60 velocity: 0
@14555 Channel: 8 Note on, G3 key=55 velocity: 0
@14580 Channel: 8 Note on, G3 key=55 velocity: 121
@14580 Channel: 8 Note on, C4 key=60 velocity: 121
@14580 Channel: 8 Note on, E4 key=64 velocity: 121
@14593 Channel: 8 Note on, E4 key=64 velocity: 0
@14593 Channel: 8 Note on, C4 key=60 velocity: 0
@14593 Channel: 8 Note on, G3 key=55 velocity: 0
@14640 Channel: 8 Note on, F4 key=65 velocity: 121
@14640 Channel: 8 Note on, G3 key=55 velocity: 121
@14640 Channel: 8 Note on, C4 key=60 velocity: 121
@14653 Channel: 8 Note on, C4 key=60 velocity: 0
@14653 Channel: 8 Note on, G3 key=55 velocity: 0
@14653 Channel: 8 Note on, F4 key=65 velocity: 0
@14700 Channel: 8 Note on, G3 key=55 velocity: 121
@14700 Channel: 8 Note on, C4 key=60 velocity: 121
@14700 Channel: 8 Note on, F4 key=65 velocity: 121
@14705 Channel: 8 Note on, F4 key=65 velocity: 0
@14705 Channel: 8 Note on, C4 key=60 velocity: 0
@14705 Channel: 8 Note on, G3 key=55 velocity: 0
@14730 Channel: 8 Note on, F4 key=65 velocity: 121
@14730 Channel: 8 Note on, C4 key=60 velocity: 121
@14730 Channel: 8 Note on, G3 key=55 velocity: 121
@14743 Channel: 8 Note on, G3 key=55 velocity: 0
@14743 Channel: 8 Note on, C4 key=60 velocity: 0
@14743 Channel: 8 Note on, F4 key=65 velocity: 0
@14790 Channel: 8 Note on, G3 key=55 velocity: 121
@14790 Channel: 8 Note on, C4 key=60 velocity: 121
@14790 Channel: 8 Note on, F4 key=65 velocity: 121
@14795 Channel: 8 Note on, F4 key=65 velocity: 0
@14795 Channel: 8 Note on, C4 key=60 velocity: 0
@14795 Channel: 8 Note on, G3 key=55 velocity: 0
@14820 Channel: 8 Note on, F4 key=65 velocity: 121
@14820 Channel: 8 Note on, G3 key=55 velocity: 121
@14820 Channel: 8 Note on, C4 key=60 velocity: 121
@14833 Channel: 8 Note on, C4 key=60 velocity: 0
@14833 Channel: 8 Note on, G3 key=55 velocity: 0
@14833 Channel: 8 Note on, F4 key=65 velocity: 0
@14880 Channel: 8 Note on, C4 key=60 velocity: 121
@14880 Channel: 8 Note on, G3 key=55 velocity: 121
@14880 Channel: 8 Note on, E4 key=64 velocity: 121
@14893 Channel: 8 Note on, E4 key=64 velocity: 0
@14893 Channel: 8 Note on, G3 key=55 velocity: 0
@14893 Channel: 8 Note on, C4 key=60 velocity: 0
@14940 Channel: 8 Note on, E4 key=64 velocity: 121
@14940 Channel: 8 Note on, G3 key=55 velocity: 121
@14940 Channel: 8 Note on, C4 key=60 velocity: 121
@14945 Channel: 8 Note on, C4 key=60 velocity: 0
@14945 Channel: 8 Note on, G3 key=55 velocity: 0
@14945 Channel: 8 Note on, E4 key=64 velocity: 0
@14970 Channel: 8 Note on, C4 key=60 velocity: 121
@14970 Channel: 8 Note on, G3 key=55 velocity: 121
@14970 Channel: 8 Note on, E4 key=64 velocity: 121
@14983 Channel: 8 Note on, E4 key=64 velocity: 0
@14983 Channel: 8 Note on, G3 key=55 velocity: 0
@14983 Channel: 8 Note on, C4 key=60 velocity: 0
@15030 Channel: 8 Note on, G3 key=55 velocity: 121
@15030 Channel: 8 Note on, C4 key=60 velocity: 121
@15030 Channel: 8 Note on, E4 key=64 velocity: 121
@15035 Channel: 8 Note on, E4 key=64 velocity: 0
@15035 Channel: 8 Note on, C4 key=60 velocity: 0
@15035 Channel: 8 Note on, G3 key=55 velocity: 0
@15060 Channel: 8 Note on, G3 key=55 velocity: 121
@15060 Channel: 8 Note on, C4 key=60 velocity: 121
@15060 Channel: 8 Note on, E4 key=64 velocity: 121
@15073 Channel: 8 Note on, E4 key=64 velocity: 0
@15073 Channel: 8 Note on, C4 key=60 velocity: 0
@15073 Channel: 8 Note on, G3 key=55 velocity: 0
@15120 Channel: 8 Note on, F4 key=65 velocity: 121
@15120 Channel: 8 Note on, G3 key=55 velocity: 121
@15120 Channel: 8 Note on, C4 key=60 velocity: 121
@15133 Channel: 8 Note on, C4 key=60 velocity: 0
@15133 Channel: 8 Note on, G3 key=55 velocity: 0
@15133 Channel: 8 Note on, F4 key=65 velocity: 0
@15180 Channel: 8 Note on, G3 key=55 velocity: 121
@15180 Channel: 8 Note on, C4 key=60 velocity: 121
@15180 Channel: 8 Note on, F4 key=65 velocity: 121
@15185 Channel: 8 Note on, F4 key=65 velocity: 0
@15185 Channel: 8 Note on, C4 key=60 velocity: 0
@15185 Channel: 8 Note on, G3 key=55 velocity: 0
@15210 Channel: 8 Note on, F4 key=65 velocity: 121
@15210 Channel: 8 Note on, C4 key=60 velocity: 121
@15210 Channel: 8 Note on, G3 key=55 velocity: 121
@15223 Channel: 8 Note on, G3 key=55 velocity: 0
@15223 Channel: 8 Note on, C4 key=60 velocity: 0
@15223 Channel: 8 Note on, F4 key=65 velocity: 0
@15270 Channel: 8 Note on, G3 key=55 velocity: 121
@15270 Channel: 8 Note on, C4 key=60 velocity: 121
@15270 Channel: 8 Note on, F4 key=65 velocity: 121
@15275 Channel: 8 Note on, F4 key=65 velocity: 0
@15275 Channel: 8 Note on, C4 key=60 velocity: 0
@15275 Channel: 8 Note on, G3 key=55 velocity: 0
@15300 Channel: 8 Note on, F4 key=65 velocity: 121
@15300 Channel: 8 Note on, G3 key=55 velocity: 121
@15300 Channel: 8 Note on, C4 key=60 velocity: 121
@15313 Channel: 8 Note on, C4 key=60 velocity: 0
@15313 Channel: 8 Note on, G3 key=55 velocity: 0
@15313 Channel: 8 Note on, F4 key=65 velocity: 0
@15360 Channel: 8 Note on, C4 key=60 velocity: 121
@15360 Channel: 8 Note on, G3 key=55 velocity: 121
@15360 Channel: 8 Note on, E4 key=64 velocity: 121
@15373 Channel: 8 Note on, E4 key=64 velocity: 0
@15373 Channel: 8 Note on, G3 key=55 velocity: 0
@15373 Channel: 8 Note on, C4 key=60 velocity: 0
@15420 Channel: 8 Note on, E4 key=64 velocity: 121
@15420 Channel: 8 Note on, G3 key=55 velocity: 121
@15420 Channel: 8 Note on, C4 key=60 velocity: 121
@15425 Channel: 8 Note on, C4 key=60 velocity: 0
@15425 Channel: 8 Note on, G3 key=55 velocity: 0
@15425 Channel: 8 Note on, E4 key=64 velocity: 0
@15450 Channel: 8 Note on, C4 key=60 velocity: 121
@15450 Channel: 8 Note on, G3 key=55 velocity: 121
@15450 Channel: 8 Note on, E4 key=64 velocity: 121
@15463 Channel: 8 Note on, E4 key=64 velocity: 0
@15463 Channel: 8 Note on, G3 key=55 velocity: 0
@15463 Channel: 8 Note on, C4 key=60 velocity: 0
@15510 Channel: 8 Note on, G3 key=55 velocity: 121
@15510 Channel: 8 Note on, C4 key=60 velocity: 121
@15510 Channel: 8 Note on, E4 key=64 velocity: 121
@15515 Channel: 8 Note on, E4 key=64 velocity: 0
@15515 Channel: 8 Note on, C4 key=60 velocity: 0
@15515 Channel: 8 Note on, G3 key=55 velocity: 0
@15540 Channel: 8 Note on, G3 key=55 velocity: 121
@15540 Channel: 8 Note on, C4 key=60 velocity: 121
@15540 Channel: 8 Note on, E4 key=64 velocity: 121
@15553 Channel: 8 Note on, E4 key=64 velocity: 0
@15553 Channel: 8 Note on, C4 key=60 velocity: 0
@15553 Channel: 8 Note on, G3 key=55 velocity: 0
@15600 Channel: 8 Note on, F4 key=65 velocity: 121
@15600 Channel: 8 Note on, G3 key=55 velocity: 121
@15600 Channel: 8 Note on, C4 key=60 velocity: 121
@15613 Channel: 8 Note on, C4 key=60 velocity: 0
@15613 Channel: 8 Note on, G3 key=55 velocity: 0
@15613 Channel: 8 Note on, F4 key=65 velocity: 0
@15660 Channel: 8 Note on, G3 key=55 velocity: 121
@15660 Channel: 8 Note on, C4 key=60 velocity: 121
@15660 Channel: 8 Note on, F4 key=65 velocity: 121
@15665 Channel: 8 Note on, F4 key=65 velocity: 0
@15665 Channel: 8 Note on, C4 key=60 velocity: 0
@15665 Channel: 8 Note on, G3 key=55 velocity: 0
@15690 Channel: 8 Note on, F4 key=65 velocity: 121
@15690 Channel: 8 Note on, C4 key=60 velocity: 121
@15690 Channel: 8 Note on, G3 key=55 velocity: 121
@15703 Channel: 8 Note on, G3 key=55 velocity: 0
@15703 Channel: 8 Note on, C4 key=60 velocity: 0
@15703 Channel: 8 Note on, F4 key=65 velocity: 0
@15750 Channel: 8 Note on, G3 key=55 velocity: 121
@15750 Channel: 8 Note on, C4 key=60 velocity: 121
@15750 Channel: 8 Note on, F4 key=65 velocity: 121
@15755 Channel: 8 Note on, F4 key=65 velocity: 0
@15755 Channel: 8 Note on, C4 key=60 velocity: 0
@15755 Channel: 8 Note on, G3 key=55 velocity: 0
@15780 Channel: 8 Note on, F4 key=65 velocity: 121
@15780 Channel: 8 Note on, G3 key=55 velocity: 121
@15780 Channel: 8 Note on, C4 key=60 velocity: 121
@15793 Channel: 8 Note on, C4 key=60 velocity: 0
@15793 Channel: 8 Note on, G3 key=55 velocity: 0
@15793 Channel: 8 Note on, F4 key=65 velocity: 0
@15840 Channel: 8 Note on, C4 key=60 velocity: 121
@15840 Channel: 8 Note on, G3 key=55 velocity: 121
@15840 Channel: 8 Note on, E4 key=64 velocity: 121
@15853 Channel: 8 Note on, E4 key=64 velocity: 0
@15853 Channel: 8 Note on, G3 key=55 velocity: 0
@15853 Channel: 8 Note on, C4 key=60 velocity: 0
@15900 Channel: 8 Note on, E4 key=64 velocity: 121
@15900 Channel: 8 Note on, G3 key=55 velocity: 121
@15900 Channel: 8 Note on, C4 key=60 velocity: 121
@15905 Channel: 8 Note on, C4 key=60 velocity: 0
@15905 Channel: 8 Note on, G3 key=55 velocity: 0
@15905 Channel: 8 Note on, E4 key=64 velocity: 0
@15930 Channel: 8 Note on, C4 key=60 velocity: 120
@15930 Channel: 8 Note on, G3 key=55 velocity: 120
@15930 Channel: 8 Note on, E4 key=64 velocity: 120
@15943 Channel: 8 Note on, E4 key=64 velocity: 0
@15943 Channel: 8 Note on, G3 key=55 velocity: 0
@15943 Channel: 8 Note on, C4 key=60 velocity: 0
@15990 Channel: 8 Note on, G3 key=55 velocity: 120
@15990 Channel: 8 Note on, C4 key=60 velocity: 120
@15990 Channel: 8 Note on, E4 key=64 velocity: 120
@15995 Channel: 8 Note on, E4 key=64 velocity: 0
@15995 Channel: 8 Note on, C4 key=60 velocity: 0
@15995 Channel: 8 Note on, G3 key=55 velocity: 0
@16020 Channel: 8 Note on, G3 key=55 velocity: 120
@16020 Channel: 8 Note on, C4 key=60 velocity: 120
@16020 Channel: 8 Note on, E4 key=64 velocity: 120
@16033 Channel: 8 Note on, E4 key=64 velocity: 0
@16033 Channel: 8 Note on, C4 key=60 velocity: 0
@16033 Channel: 8 Note on, G3 key=55 velocity: 0
@16080 Channel: 8 Note on, F4 key=65 velocity: 119
@16080 Channel: 8 Note on, G3 key=55 velocity: 119
@16080 Channel: 8 Note on, C4 key=60 velocity: 119
@16093 Channel: 8 Note on, C4 key=60 velocity: 0
@16093 Channel: 8 Note on, G3 key=55 velocity: 0
@16093 Channel: 8 Note on, F4 key=65 velocity: 0
@16140 Channel: 8 Note on, G3 key=55 velocity: 119
@16140 Channel: 8 Note on, C4 key=60 velocity: 119
@16140 Channel: 8 Note on, F4 key=65 velocity: 119
@16145 Channel: 8 Note on, F4 key=65 velocity: 0
@16145 Channel: 8 Note on, C4 key=60 velocity: 0
@16145 Channel: 8 Note on, G3 key=55 velocity: 0
@16170 Channel: 8 Note on, F4 key=65 velocity: 119
@16170 Channel: 8 Note on, C4 key=60 velocity: 119
@16170 Channel: 8 Note on, G3 key=55 velocity: 119
@16183 Channel: 8 Note on, G3 key=55 velocity: 0
@16183 Channel: 8 Note on, C4 key=60 velocity: 0
@16183 Channel: 8 Note on, F4 key=65 velocity: 0
@16230 Channel: 8 Note on, G3 key=55 velocity: 119
@16230 Channel: 8 Note on, C4 key=60 velocity: 119
@16230 Channel: 8 Note on, F4 key=65 velocity: 119
@16235 Channel: 8 Note on, F4 key=65 velocity: 0
@16235 Channel: 8 Note on, C4 key=60 velocity: 0
@16235 Channel: 8 Note on, G3 key=55 velocity: 0
@16260 Channel: 8 Note on, F4 key=65 velocity: 119
@16260 Channel: 8 Note on, G3 key=55 velocity: 119
@16260 Channel: 8 Note on, C4 key=60 velocity: 119
@16273 Channel: 8 Note on, C4 key=60 velocity: 0
@16273 Channel: 8 Note on, G3 key=55 velocity: 0
@16273 Channel: 8 Note on, F4 key=65 velocity: 0
@16320 Channel: 8 Note on, B3 key=59 velocity: 119
@16320 Channel: 8 Note on, D4 key=62 velocity: 119
@16320 Channel: 8 Note on, G3 key=55 velocity: 119
@16333 Channel: 8 Note on, G3 key=55 velocity: 0
@16333 Channel: 8 Note on, D4 key=62 velocity: 0
@16333 Channel: 8 Note on, B3 key=59 velocity: 0
@16380 Channel: 8 Note on, G3 key=55 velocity: 119
@16380 Channel: 8 Note on, D4 key=62 velocity: 119
@16380 Channel: 8 Note on, B3 key=59 velocity: 119
@16385 Channel: 8 Note on, B3 key=59 velocity: 0
@16385 Channel: 8 Note on, D4 key=62 velocity: 0
@16385 Channel: 8 Note on, G3 key=55 velocity: 0
@16410 Channel: 8 Note on, D4 key=62 velocity: 119
@16410 Channel: 8 Note on, G3 key=55 velocity: 119
@16410 Channel: 8 Note on, B3 key=59 velocity: 119
@16423 Channel: 8 Note on, B3 key=59 velocity: 0
@16423 Channel: 8 Note on, G3 key=55 velocity: 0
@16423 Channel: 8 Note on, D4 key=62 velocity: 0
@16470 Channel: 8 Note on, D4 key=62 velocity: 119
@16470 Channel: 8 Note on, G3 key=55 velocity: 119
@16470 Channel: 8 Note on, B3 key=59 velocity: 119
@16475 Channel: 8 Note on, B3 key=59 velocity: 0
@16475 Channel: 8 Note on, G3 key=55 velocity: 0
@16475 Channel: 8 Note on, D4 key=62 velocity: 0
@16500 Channel: 8 Note on, D4 key=62 velocity: 119
@16500 Channel: 8 Note on, B3 key=59 velocity: 119
@16500 Channel: 8 Note on, G3 key=55 velocity: 119
@16513 Channel: 8 Note on, G3 key=55 velocity: 0
@16513 Channel: 8 Note on, B3 key=59 velocity: 0
@16513 Channel: 8 Note on, D4 key=62 velocity: 0
@16560 Channel: 8 Note on, D4 key=62 velocity: 121
@16560 Channel: 8 Note on, G3 key=55 velocity: 121
@16560 Channel: 8 Note on, C4 key=60 velocity: 121
@16573 Channel: 8 Note on, C4 key=60 velocity: 0
@16573 Channel: 8 Note on, G3 key=55 velocity: 0
@16573 Channel: 8 Note on, D4 key=62 velocity: 0
@16620 Channel: 8 Note on, D4 key=62 velocity: 121
@16620 Channel: 8 Note on, G3 key=55 velocity: 121
@16620 Channel: 8 Note on, C4 key=60 velocity: 121
@16625 Channel: 8 Note on, C4 key=60 velocity: 0
@16625 Channel: 8 Note on, G3 key=55 velocity: 0
@16625 Channel: 8 Note on, D4 key=62 velocity: 0
@16650 Channel: 8 Note on, G3 key=55 velocity: 121
@16650 Channel: 8 Note on, C4 key=60 velocity: 121
@16650 Channel: 8 Note on, D4 key=62 velocity: 121
@16663 Channel: 8 Note on, D4 key=62 velocity: 0
@16663 Channel: 8 Note on, C4 key=60 velocity: 0
@16663 Channel: 8 Note on, G3 key=55 velocity: 0
@16710 Channel: 8 Note on, D4 key=62 velocity: 121
@16710 Channel: 8 Note on, G3 key=55 velocity: 121
@16710 Channel: 8 Note on, C4 key=60 velocity: 121
@16715 Channel: 8 Note on, C4 key=60 velocity: 0
@16715 Channel: 8 Note on, G3 key=55 velocity: 0
@16715 Channel: 8 Note on, D4 key=62 velocity: 0
@16740 Channel: 8 Note on, C4 key=60 velocity: 121
@16740 Channel: 8 Note on, D4 key=62 velocity: 121
@16740 Channel: 8 Note on, G3 key=55 velocity: 121
@16753 Channel: 8 Note on, G3 key=55 velocity: 0
@16753 Channel: 8 Note on, D4 key=62 velocity: 0
@16753 Channel: 8 Note on, C4 key=60 velocity: 0
@16800 Channel: 8 Note on, B3 key=59 velocity: 121
@16800 Channel: 8 Note on, D4 key=62 velocity: 121
@16800 Channel: 8 Note on, G3 key=55 velocity: 121
@16813 Channel: 8 Note on, G3 key=55 velocity: 0
@16813 Channel: 8 Note on, D4 key=62 velocity: 0
@16813 Channel: 8 Note on, B3 key=59 velocity: 0
@16860 Channel: 8 Note on, D4 key=62 velocity: 121
@16860 Channel: 8 Note on, G3 key=55 velocity: 121
@16860 Channel: 8 Note on, B3 key=59 velocity: 121
@16865 Channel: 8 Note on, B3 key=59 velocity: 0
@16865 Channel: 8 Note on, G3 key=55 velocity: 0
@16865 Channel: 8 Note on, D4 key=62 velocity: 0
@16890 Channel: 8 Note on, D4 key=62 velocity: 121
@16890 Channel: 8 Note on, G3 key=55 velocity: 121
@16890 Channel: 8 Note on, B3 key=59 velocity: 121
@16903 Channel: 8 Note on, B3 key=59 velocity: 0
@16903 Channel: 8 Note on, G3 key=55 velocity: 0
@16903 Channel: 8 Note on, D4 key=62 velocity: 0
@16950 Channel: 8 Note on, G3 key=55 velocity: 122
@16950 Channel: 8 Note on, D4 key=62 velocity: 122
@16950 Channel: 8 Note on, B3 key=59 velocity: 122
@16955 Channel: 8 Note on, B3 key=59 velocity: 0
@16955 Channel: 8 Note on, D4 key=62 velocity: 0
@16955 Channel: 8 Note on, G3 key=55 velocity: 0
@16980 Channel: 8 Note on, B3 key=59 velocity: 122
@16980 Channel: 8 Note on, D4 key=62 velocity: 122
@16980 Channel: 8 Note on, G3 key=55 velocity: 122
@16993 Channel: 8 Note on, G3 key=55 velocity: 0
@16993 Channel: 8 Note on, D4 key=62 velocity: 0
@16993 Channel: 8 Note on, B3 key=59 velocity: 0
@17040 Channel: 8 Note on, C4 key=60 velocity: 122
@17040 Channel: 8 Note on, G3 key=55 velocity: 122
@17040 Channel: 8 Note on, D4 key=62 velocity: 122
@17053 Channel: 8 Note on, D4 key=62 velocity: 0
@17053 Channel: 8 Note on, G3 key=55 velocity: 0
@17053 Channel: 8 Note on, C4 key=60 velocity: 0
@17100 Channel: 8 Note on, C4 key=60 velocity: 122
@17100 Channel: 8 Note on, D4 key=62 velocity: 122
@17100 Channel: 8 Note on, G3 key=55 velocity: 122
@17105 Channel: 8 Note on, G3 key=55 velocity: 0
@17105 Channel: 8 Note on, D4 key=62 velocity: 0
@17105 Channel: 8 Note on, C4 key=60 velocity: 0
@17130 Channel: 8 Note on, G3 key=55 velocity: 122
@17130 Channel: 8 Note on, D4 key=62 velocity: 122
@17130 Channel: 8 Note on, C4 key=60 velocity: 122
@17143 Channel: 8 Note on, C4 key=60 velocity: 0
@17143 Channel: 8 Note on, D4 key=62 velocity: 0
@17143 Channel: 8 Note on, G3 key=55 velocity: 0
@17190 Channel: 8 Note on, G3 key=55 velocity: 122
@17190 Channel: 8 Note on, D4 key=62 velocity: 122
@17190 Channel: 8 Note on, C4 key=60 velocity: 122
@17195 Channel: 8 Note on, C4 key=60 velocity: 0
@17195 Channel: 8 Note on, D4 key=62 velocity: 0
@17195 Channel: 8 Note on, G3 key=55 velocity: 0
@17220 Channel: 8 Note on, D4 key=62 velocity: 122
@17220 Channel: 8 Note on, C4 key=60 velocity: 122
@17220 Channel: 8 Note on, G3 key=55 velocity: 122
@17233 Channel: 8 Note on, G3 key=55 velocity: 0
@17233 Channel: 8 Note on, C4 key=60 velocity: 0
@17233 Channel: 8 Note on, D4 key=62 velocity: 0
@17280 Channel: 8 Note on, G#3 key=56 velocity: 122
@17280 Channel: 8 Note on, B3 key=59 velocity: 122
@17280 Channel: 8 Note on, E4 key=64 velocity: 122
@17293 Channel: 8 Note on, E4 key=64 velocity: 0
@17293 Channel: 8 Note on, B3 key=59 velocity: 0
@17293 Channel: 8 Note on, G#3 key=56 velocity: 0
@17340 Channel: 8 Note on, E4 key=64 velocity: 122
@17340 Channel: 8 Note on, G#3 key=56 velocity: 122
@17340 Channel: 8 Note on, B3 key=59 velocity: 122
@17345 Channel: 8 Note on, B3 key=59 velocity: 0
@17345 Channel: 8 Note on, G#3 key=56 velocity: 0
@17345 Channel: 8 Note on, E4 key=64 velocity: 0
@17370 Channel: 8 Note on, E4 key=64 velocity: 123
@17370 Channel: 8 Note on, B3 key=59 velocity: 123
@17370 Channel: 8 Note on, G#3 key=56 velocity: 123
@17383 Channel: 8 Note on, G#3 key=56 velocity: 0
@17383 Channel: 8 Note on, B3 key=59 velocity: 0
@17383 Channel: 8 Note on, E4 key=64 velocity: 0
@17430 Channel: 8 Note on, G#3 key=56 velocity: 123
@17430 Channel: 8 Note on, E4 key=64 velocity: 123
@17430 Channel: 8 Note on, B3 key=59 velocity: 123
@17435 Channel: 8 Note on, B3 key=59 velocity: 0
@17435 Channel: 8 Note on, E4 key=64 velocity: 0
@17435 Channel: 8 Note on, G#3 key=56 velocity: 0
@17460 Channel: 8 Note on, E4 key=64 velocity: 123
@17460 Channel: 8 Note on, B3 key=59 velocity: 123
@17460 Channel: 8 Note on, G#3 key=56 velocity: 123
@17473 Channel: 8 Note on, G#3 key=56 velocity: 0
@17473 Channel: 8 Note on, B3 key=59 velocity: 0
@17473 Channel: 8 Note on, E4 key=64 velocity: 0
@17520 Channel: 8 Note on, E4 key=64 velocity: 122
@17520 Channel: 8 Note on, A3 key=57 velocity: 122
@17520 Channel: 8 Note on, B3 key=59 velocity: 122
@17533 Channel: 8 Note on, B3 key=59 velocity: 0
@17533 Channel: 8 Note on, A3 key=57 velocity: 0
@17533 Channel: 8 Note on, E4 key=64 velocity: 0
@17580 Channel: 8 Note on, B3 key=59 velocity: 122
@17580 Channel: 8 Note on, A3 key=57 velocity: 122
@17580 Channel: 8 Note on, E4 key=64 velocity: 122
@17585 Channel: 8 Note on, E4 key=64 velocity: 0
@17585 Channel: 8 Note on, A3 key=57 velocity: 0
@17585 Channel: 8 Note on, B3 key=59 velocity: 0
@17610 Channel: 8 Note on, B3 key=59 velocity: 122
@17610 Channel: 8 Note on, A3 key=57 velocity: 122
@17610 Channel: 8 Note on, E4 key=64 velocity: 122
@17623 Channel: 8 Note on, E4 key=64 velocity: 0
@17623 Channel: 8 Note on, A3 key=57 velocity: 0
@17623 Channel: 8 Note on, B3 key=59 velocity: 0
@17670 Channel: 8 Note on, E4 key=64 velocity: 122
@17670 Channel: 8 Note on, A3 key=57 velocity: 122
@17670 Channel: 8 Note on, B3 key=59 velocity: 122
@17675 Channel: 8 Note on, B3 key=59 velocity: 0
@17675 Channel: 8 Note on, A3 key=57 velocity: 0
@17675 Channel: 8 Note on, E4 key=64 velocity: 0
@17700 Channel: 8 Note on, B3 key=59 velocity: 122
@17700 Channel: 8 Note on, A3 key=57 velocity: 122
@17700 Channel: 8 Note on, E4 key=64 velocity: 122
@17713 Channel: 8 Note on, E4 key=64 velocity: 0
@17713 Channel: 8 Note on, A3 key=57 velocity: 0
@17713 Channel: 8 Note on, B3 key=59 velocity: 0
@17760 Channel: 8 Note on, B3 key=59 velocity: 122
@17760 Channel: 8 Note on, G#3 key=56 velocity: 122
@17760 Channel: 8 Note on, E4 key=64 velocity: 122
@17773 Channel: 8 Note on, E4 key=64 velocity: 0
@17773 Channel: 8 Note on, G#3 key=56 velocity: 0
@17773 Channel: 8 Note on, B3 key=59 velocity: 0
@17820 Channel: 8 Note on, B3 key=59 velocity: 122
@17820 Channel: 8 Note on, G#3 key=56 velocity: 122
@17820 Channel: 8 Note on, E4 key=64 velocity: 122
@17825 Channel: 8 Note on, E4 key=64 velocity: 0
@17825 Channel: 8 Note on, G#3 key=56 velocity: 0
@17825 Channel: 8 Note on, B3 key=59 velocity: 0
@17850 Channel: 8 Note on, B3 key=59 velocity: 122
@17850 Channel: 8 Note on, G#3 key=56 velocity: 122
@17850 Channel: 8 Note on, E4 key=64 velocity: 122
@17863 Channel: 8 Note on, E4 key=64 velocity: 0
@17863 Channel: 8 Note on, G#3 key=56 velocity: 0
@17863 Channel: 8 Note on, B3 key=59 velocity: 0
@17910 Channel: 8 Note on, B3 key=59 velocity: 122
@17910 Channel: 8 Note on, G#3 key=56 velocity: 122
@17910 Channel: 8 Note on, E4 key=64 velocity: 122
@17915 Channel: 8 Note on, E4 key=64 velocity: 0
@17915 Channel: 8 Note on, G#3 key=56 velocity: 0
@17915 Channel: 8 Note on, B3 key=59 velocity: 0
@17940 Channel: 8 Note on, B3 key=59 velocity: 122
@17940 Channel: 8 Note on, G#3 key=56 velocity: 122
@17940 Channel: 8 Note on, E4 key=64 velocity: 122
@17953 Channel: 8 Note on, E4 key=64 velocity: 0
@17953 Channel: 8 Note on, G#3 key=56 velocity: 0
@17953 Channel: 8 Note on, B3 key=59 velocity: 0
@18000 Channel: 8 Note on, A3 key=57 velocity: 122
@18000 Channel: 8 Note on, B3 key=59 velocity: 122
@18000 Channel: 8 Note on, E4 key=64 velocity: 122
@18013 Channel: 8 Note on, E4 key=64 velocity: 0
@18013 Channel: 8 Note on, B3 key=59 velocity: 0
@18013 Channel: 8 Note on, A3 key=57 velocity: 0
@18060 Channel: 8 Note on, A3 key=57 velocity: 122
@18060 Channel: 8 Note on, B3 key=59 velocity: 122
@18060 Channel: 8 Note on, E4 key=64 velocity: 122
@18065 Channel: 8 Note on, E4 key=64 velocity: 0
@18065 Channel: 8 Note on, B3 key=59 velocity: 0
@18065 Channel: 8 Note on, A3 key=57 velocity: 0
@18090 Channel: 8 Note on, A3 key=57 velocity: 122
@18090 Channel: 8 Note on, E4 key=64 velocity: 122
@18090 Channel: 8 Note on, B3 key=59 velocity: 122
@18103 Channel: 8 Note on, B3 key=59 velocity: 0
@18103 Channel: 8 Note on, E4 key=64 velocity: 0
@18103 Channel: 8 Note on, A3 key=57 velocity: 0
@18150 Channel: 8 Note on, A3 key=57 velocity: 122
@18150 Channel: 8 Note on, E4 key=64 velocity: 122
@18150 Channel: 8 Note on, B3 key=59 velocity: 122
@18155 Channel: 8 Note on, B3 key=59 velocity: 0
@18155 Channel: 8 Note on, E4 key=64 velocity: 0
@18155 Channel: 8 Note on, A3 key=57 velocity: 0
@18180 Channel: 8 Note on, A3 key=57 velocity: 122
@18180 Channel: 8 Note on, B3 key=59 velocity: 122
@18180 Channel: 8 Note on, E4 key=64 velocity: 122
@18193 Channel: 8 Note on, E4 key=64 velocity: 0
@18193 Channel: 8 Note on, B3 key=59 velocity: 0
@18193 Channel: 8 Note on, A3 key=57 velocity: 0
@18240 Channel: 8 Note on, C4 key=60 velocity: 122
@18240 Channel: 8 Note on, A3 key=57 velocity: 122
@18240 Channel: 8 Note on, F4 key=65 velocity: 122
@18253 Channel: 8 Note on, F4 key=65 velocity: 0
@18253 Channel: 8 Note on, A3 key=57 velocity: 0
@18253 Channel: 8 Note on, C4 key=60 velocity: 0
@18300 Channel: 8 Note on, C4 key=60 velocity: 122
@18300 Channel: 8 Note on, F4 key=65 velocity: 122
@18300 Channel: 8 Note on, A3 key=57 velocity: 122
@18305 Channel: 8 Note on, A3 key=57 velocity: 0
@18305 Channel: 8 Note on, F4 key=65 velocity: 0
@18305 Channel: 8 Note on, C4 key=60 velocity: 0
@18330 Channel: 8 Note on, F4 key=65 velocity: 122
@18330 Channel: 8 Note on, A3 key=57 velocity: 122
@18330 Channel: 8 Note on, C4 key=60 velocity: 122
@18343 Channel: 8 Note on, C4 key=60 velocity: 0
@18343 Channel: 8 Note on, A3 key=57 velocity: 0
@18343 Channel: 8 Note on, F4 key=65 velocity: 0
@18390 Channel: 8 Note on, F4 key=65 velocity: 122
@18390 Channel: 8 Note on, C4 key=60 velocity: 122
@18390 Channel: 8 Note on, A3 key=57 velocity: 122
@18395 Channel: 8 Note on, A3 key=57 velocity: 0
@18395 Channel: 8 Note on, C4 key=60 velocity: 0
@18395 Channel: 8 Note on, F4 key=65 velocity: 0
@18420 Channel: 8 Note on, C4 key=60 velocity: 122
@18420 Channel: 8 Note on, A3 key=57 velocity: 122
@18420 Channel: 8 Note on, F4 key=65 velocity: 122
@18433 Channel: 8 Note on, F4 key=65 velocity: 0
@18433 Channel: 8 Note on, A3 key=57 velocity: 0
@18433 Channel: 8 Note on, C4 key=60 velocity: 0
@18480 Channel: 8 Note on, A#3 key=58 velocity: 122
@18480 Channel: 8 Note on, C4 key=60 velocity: 122
@18480 Channel: 8 Note on, F4 key=65 velocity: 122
@18493 Channel: 8 Note on, F4 key=65 velocity: 0
@18493 Channel: 8 Note on, C4 key=60 velocity: 0
@18493 Channel: 8 Note on, A#3 key=58 velocity: 0
@18540 Channel: 8 Note on, A#3 key=58 velocity: 121
@18540 Channel: 8 Note on, C4 key=60 velocity: 121
@18540 Channel: 8 Note on, F4 key=65 velocity: 121
@18545 Channel: 8 Note on, F4 key=65 velocity: 0
@18545 Channel: 8 Note on, C4 key=60 velocity: 0
@18545 Channel: 8 Note on, A#3 key=58 velocity: 0
@18570 Channel: 8 Note on, C4 key=60 velocity: 121
@18570 Channel: 8 Note on, A#3 key=58 velocity: 121
@18570 Channel: 8 Note on, F4 key=65 velocity: 121
@18583 Channel: 8 Note on, F4 key=65 velocity: 0
@18583 Channel: 8 Note on, A#3 key=58 velocity: 0
@18583 Channel: 8 Note on, C4 key=60 velocity: 0
@18630 Channel: 8 Note on, F4 key=65 velocity: 121
@18630 Channel: 8 Note on, C4 key=60 velocity: 121
@18630 Channel: 8 Note on, A#3 key=58 velocity: 121
@18635 Channel: 8 Note on, A#3 key=58 velocity: 0
@18635 Channel: 8 Note on, C4 key=60 velocity: 0
@18635 Channel: 8 Note on, F4 key=65 velocity: 0
@18660 Channel: 8 Note on, C4 key=60 velocity: 121
@18660 Channel: 8 Note on, A#3 key=58 velocity: 121
@18660 Channel: 8 Note on, F4 key=65 velocity: 121
@18673 Channel: 8 Note on, F4 key=65 velocity: 0
@18673 Channel: 8 Note on, A#3 key=58 velocity: 0
@18673 Channel: 8 Note on, C4 key=60 velocity: 0
@18720 Channel: 8 Note on, A3 key=57 velocity: 121
@18720 Channel: 8 Note on, F4 key=65 velocity: 121
@18720 Channel: 8 Note on, C4 key=60 velocity: 121
@18733 Channel: 8 Note on, C4 key=60 velocity: 0
@18733 Channel: 8 Note on, F4 key=65 velocity: 0
@18733 Channel: 8 Note on, A3 key=57 velocity: 0
@18780 Channel: 8 Note on, C4 key=60 velocity: 121
@18780 Channel: 8 Note on, A3 key=57 velocity: 121
@18780 Channel: 8 Note on, F4 key=65 velocity: 121
@18785 Channel: 8 Note on, F4 key=65 velocity: 0
@18785 Channel: 8 Note on, A3 key=57 velocity: 0
@18785 Channel: 8 Note on, C4 key=60 velocity: 0
@18810 Channel: 8 Note on, F4 key=65 velocity: 121
@18810 Channel: 8 Note on, A3 key=57 velocity: 121
@18810 Channel: 8 Note on, C4 key=60 velocity: 121
@18823 Channel: 8 Note on, C4 key=60 velocity: 0
@18823 Channel: 8 Note on, A3 key=57 velocity: 0
@18823 Channel: 8 Note on, F4 key=65 velocity: 0
@18870 Channel: 8 Note on, C4 key=60 velocity: 120
@18870 Channel: 8 Note on, A3 key=57 velocity: 120
@18870 Channel: 8 Note on, F4 key=65 velocity: 120
@18875 Channel: 8 Note on, F4 key=65 velocity: 0
@18875 Channel: 8 Note on, A3 key=57 velocity: 0
@18875 Channel: 8 Note on, C4 key=60 velocity: 0
@18900 Channel: 8 Note on, C4 key=60 velocity: 120
@18900 Channel: 8 Note on, A3 key=57 velocity: 120
@18900 Channel: 8 Note on, F4 key=65 velocity: 120
@18913 Channel: 8 Note on, F4 key=65 velocity: 0
@18913 Channel: 8 Note on, A3 key=57 velocity: 0
@18913 Channel: 8 Note on, C4 key=60 velocity: 0
@18960 Channel: 8 Note on, C4 key=60 velocity: 121
@18960 Channel: 8 Note on, A#3 key=58 velocity: 121
@18960 Channel: 8 Note on, F4 key=65 velocity: 121
@18973 Channel: 8 Note on, F4 key=65 velocity: 0
@18973 Channel: 8 Note on, A#3 key=58 velocity: 0
@18973 Channel: 8 Note on, C4 key=60 velocity: 0
@19020 Channel: 8 Note on, C4 key=60 velocity: 122
@19020 Channel: 8 Note on, A#3 key=58 velocity: 122
@19020 Channel: 8 Note on, F4 key=65 velocity: 122
@19025 Channel: 8 Note on, F4 key=65 velocity: 0
@19025 Channel: 8 Note on, A#3 key=58 velocity: 0
@19025 Channel: 8 Note on, C4 key=60 velocity: 0
@19050 Channel: 8 Note on, F4 key=65 velocity: 119
@19050 Channel: 8 Note on, C4 key=60 velocity: 119
@19050 Channel: 8 Note on, A#3 key=58 velocity: 119
@19063 Channel: 8 Note on, A#3 key=58 velocity: 0
@19063 Channel: 8 Note on, C4 key=60 velocity: 0
@19063 Channel: 8 Note on, F4 key=65 velocity: 0
@19110 Channel: 8 Note on, A#3 key=58 velocity: 119
@19110 Channel: 8 Note on, F4 key=65 velocity: 119
@19110 Channel: 8 Note on, C4 key=60 velocity: 119
@19115 Channel: 8 Note on, C4 key=60 velocity: 0
@19115 Channel: 8 Note on, F4 key=65 velocity: 0
@19115 Channel: 8 Note on, A#3 key=58 velocity: 0
@19140 Channel: 8 Note on, A#3 key=58 velocity: 119
@19140 Channel: 8 Note on, C4 key=60 velocity: 119
@19140 Channel: 8 Note on, F4 key=65 velocity: 119
@19153 Channel: 8 Note on, F4 key=65 velocity: 0
@19153 Channel: 8 Note on, C4 key=60 velocity: 0
@19153 Channel: 8 Note on, A#3 key=58 velocity: 0
@19200 Channel: 8 Note on, C4 key=60 velocity: 119
@19200 Channel: 8 Note on, G3 key=55 velocity: 119
@19200 Channel: 8 Note on, E4 key=64 velocity: 119
@19213 Channel: 8 Note on, E4 key=64 velocity: 0
@19213 Channel: 8 Note on, G3 key=55 velocity: 0
@19213 Channel: 8 Note on, C4 key=60 velocity: 0
@19260 Channel: 8 Note on, E4 key=64 velocity: 120
@19260 Channel: 8 Note on, G3 key=55 velocity: 120
@19260 Channel: 8 Note on, C4 key=60 velocity: 120
@19265 Channel: 8 Note on, C4 key=60 velocity: 0
@19265 Channel: 8 Note on, G3 key=55 velocity: 0
@19265 Channel: 8 Note on, E4 key=64 velocity: 0
@19290 Channel: 8 Note on, C4 key=60 velocity: 120
@19290 Channel: 8 Note on, G3 key=55 velocity: 120
@19290 Channel: 8 Note on, E4 key=64 velocity: 120
@19303 Channel: 8 Note on, E4 key=64 velocity: 0
@19303 Channel: 8 Note on, G3 key=55 velocity: 0
@19303 Channel: 8 Note on, C4 key=60 velocity: 0
@19350 Channel: 8 Note on, G3 key=55 velocity: 120
@19350 Channel: 8 Note on, C4 key=60 velocity: 120
@19350 Channel: 8 Note on, E4 key=64 velocity: 120
@19355 Channel: 8 Note on, E4 key=64 velocity: 0
@19355 Channel: 8 Note on, C4 key=60 velocity: 0
@19355 Channel: 8 Note on, G3 key=55 velocity: 0
@19380 Channel: 8 Note on, G3 key=55 velocity: 120
@19380 Channel: 8 Note on, C4 key=60 velocity: 120
@19380 Channel: 8 Note on, E4 key=64 velocity: 120
@19393 Channel: 8 Note on, E4 key=64 velocity: 0
@19393 Channel: 8 Note on, C4 key=60 velocity: 0
@19393 Channel: 8 Note on, G3 key=55 velocity: 0
@19440 Channel: 8 Note on, F4 key=65 velocity: 120
@19440 Channel: 8 Note on, G3 key=55 velocity: 120
@19440 Channel: 8 Note on, C4 key=60 velocity: 120
@19453 Channel: 8 Note on, C4 key=60 velocity: 0
@19453 Channel: 8 Note on, G3 key=55 velocity: 0
@19453 Channel: 8 Note on, F4 key=65 velocity: 0
@19500 Channel: 8 Note on, G3 key=55 velocity: 120
@19500 Channel: 8 Note on, C4 key=60 velocity: 120
@19500 Channel: 8 Note on, F4 key=65 velocity: 120
@19505 Channel: 8 Note on, F4 key=65 velocity: 0
@19505 Channel: 8 Note on, C4 key=60 velocity: 0
@19505 Channel: 8 Note on, G3 key=55 velocity: 0
@19530 Channel: 8 Note on, F4 key=65 velocity: 120
@19530 Channel: 8 Note on, C4 key=60 velocity: 120
@19530 Channel: 8 Note on, G3 key=55 velocity: 120
@19543 Channel: 8 Note on, G3 key=55 velocity: 0
@19543 Channel: 8 Note on, C4 key=60 velocity: 0
@19543 Channel: 8 Note on, F4 key=65 velocity: 0
@19590 Channel: 8 Note on, G3 key=55 velocity: 120
@19590 Channel: 8 Note on, C4 key=60 velocity: 120
@19590 Channel: 8 Note on, F4 key=65 velocity: 120
@19595 Channel: 8 Note on, F4 key=65 velocity: 0
@19595 Channel: 8 Note on, C4 key=60 velocity: 0
@19595 Channel: 8 Note on, G3 key=55 velocity: 0
@19620 Channel: 8 Note on, F4 key=65 velocity: 120
@19620 Channel: 8 Note on, G3 key=55 velocity: 120
@19620 Channel: 8 Note on, C4 key=60 velocity: 120
@19633 Channel: 8 Note on, C4 key=60 velocity: 0
@19633 Channel: 8 Note on, G3 key=55 velocity: 0
@19633 Channel: 8 Note on, F4 key=65 velocity: 0
@19680 Channel: 8 Note on, C4 key=60 velocity: 120
@19680 Channel: 8 Note on, G3 key=55 velocity: 120
@19680 Channel: 8 Note on, E4 key=64 velocity: 120
@19693 Channel: 8 Note on, E4 key=64 velocity: 0
@19693 Channel: 8 Note on, G3 key=55 velocity: 0
@19693 Channel: 8 Note on, C4 key=60 velocity: 0
@19740 Channel: 8 Note on, E4 key=64 velocity: 120
@19740 Channel: 8 Note on, G3 key=55 velocity: 120
@19740 Channel: 8 Note on, C4 key=60 velocity: 120
@19745 Channel: 8 Note on, C4 key=60 velocity: 0
@19745 Channel: 8 Note on, G3 key=55 velocity: 0
@19745 Channel: 8 Note on, E4 key=64 velocity: 0
@19770 Channel: 8 Note on, C4 key=60 velocity: 121
@19770 Channel: 8 Note on, G3 key=55 velocity: 121
@19770 Channel: 8 Note on, E4 key=64 velocity: 121
@19783 Channel: 8 Note on, E4 key=64 velocity: 0
@19783 Channel: 8 Note on, G3 key=55 velocity: 0
@19783 Channel: 8 Note on, C4 key=60 velocity: 0
@19830 Channel: 8 Note on, G3 key=55 velocity: 121
@19830 Channel: 8 Note on, C4 key=60 velocity: 121
@19830 Channel: 8 Note on, E4 key=64 velocity: 121
@19835 Channel: 8 Note on, E4 key=64 velocity: 0
@19835 Channel: 8 Note on, C4 key=60 velocity: 0
@19835 Channel: 8 Note on, G3 key=55 velocity: 0
@19860 Channel: 8 Note on, G3 key=55 velocity: 121
@19860 Channel: 8 Note on, C4 key=60 velocity: 121
@19860 Channel: 8 Note on, E4 key=64 velocity: 121
@19873 Channel: 8 Note on, E4 key=64 velocity: 0
@19873 Channel: 8 Note on, C4 key=60 velocity: 0
@19873 Channel: 8 Note on, G3 key=55 velocity: 0
@19920 Channel: 8 Note on, F4 key=65 velocity: 121
@19920 Channel: 8 Note on, G3 key=55 velocity: 121
@19920 Channel: 8 Note on, C4 key=60 velocity: 121
@19933 Channel: 8 Note on, C4 key=60 velocity: 0
@19933 Channel: 8 Note on, G3 key=55 velocity: 0
@19933 Channel: 8 Note on, F4 key=65 velocity: 0
@19980 Channel: 8 Note on, G3 key=55 velocity: 121
@19980 Channel: 8 Note on, C4 key=60 velocity: 121
@19980 Channel: 8 Note on, F4 key=65 velocity: 121
@19985 Channel: 8 Note on, F4 key=65 velocity: 0
@19985 Channel: 8 Note on, C4 key=60 velocity: 0
@19985 Channel: 8 Note on, G3 key=55 velocity: 0
@20010 Channel: 8 Note on, F4 key=65 velocity: 121
@20010 Channel: 8 Note on, C4 key=60 velocity: 121
@20010 Channel: 8 Note on, G3 key=55 velocity: 121
@20023 Channel: 8 Note on, G3 key=55 velocity: 0
@20023 Channel: 8 Note on, C4 key=60 velocity: 0
@20023 Channel: 8 Note on, F4 key=65 velocity: 0
@20070 Channel: 8 Note on, G3 key=55 velocity: 122
@20070 Channel: 8 Note on, C4 key=60 velocity: 122
@20070 Channel: 8 Note on, F4 key=65 velocity: 122
@20075 Channel: 8 Note on, F4 key=65 velocity: 0
@20075 Channel: 8 Note on, C4 key=60 velocity: 0
@20075 Channel: 8 Note on, G3 key=55 velocity: 0
@20100 Channel: 8 Note on, F4 key=65 velocity: 122
@20100 Channel: 8 Note on, G3 key=55 velocity: 122
@20100 Channel: 8 Note on, C4 key=60 velocity: 122
@20113 Channel: 8 Note on, C4 key=60 velocity: 0
@20113 Channel: 8 Note on, G3 key=55 velocity: 0
@20113 Channel: 8 Note on, F4 key=65 velocity: 0
@20160 Channel: 8 Note on, B3 key=59 velocity: 122
@20160 Channel: 8 Note on, D4 key=62 velocity: 122
@20160 Channel: 8 Note on, G3 key=55 velocity: 122
@20173 Channel: 8 Note on, G3 key=55 velocity: 0
@20173 Channel: 8 Note on, D4 key=62 velocity: 0
@20173 Channel: 8 Note on, B3 key=59 velocity: 0
@20220 Channel: 8 Note on, G3 key=55 velocity: 122
@20220 Channel: 8 Note on, D4 key=62 velocity: 122
@20220 Channel: 8 Note on, B3 key=59 velocity: 122
@20225 Channel: 8 Note on, B3 key=59 velocity: 0
@20225 Channel: 8 Note on, D4 key=62 velocity: 0
@20225 Channel: 8 Note on, G3 key=55 velocity: 0
@20250 Channel: 8 Note on, D4 key=62 velocity: 123
@20250 Channel: 8 Note on, G3 key=55 velocity: 123
@20250 Channel: 8 Note on, B3 key=59 velocity: 123
@20263 Channel: 8 Note on, B3 key=59 velocity: 0
@20263 Channel: 8 Note on, G3 key=55 velocity: 0
@20263 Channel: 8 Note on, D4 key=62 velocity: 0
@20310 Channel: 8 Note on, D4 key=62 velocity: 123
@20310 Channel: 8 Note on, G3 key=55 velocity: 123
@20310 Channel: 8 Note on, B3 key=59 velocity: 123
@20315 Channel: 8 Note on, B3 key=59 velocity: 0
@20315 Channel: 8 Note on, G3 key=55 velocity: 0
@20315 Channel: 8 Note on, D4 key=62 velocity: 0
@20340 Channel: 8 Note on, D4 key=62 velocity: 123
@20340 Channel: 8 Note on, B3 key=59 velocity: 123
@20340 Channel: 8 Note on, G3 key=55 velocity: 123
@20353 Channel: 8 Note on, G3 key=55 velocity: 0
@20353 Channel: 8 Note on, B3 key=59 velocity: 0
@20353 Channel: 8 Note on, D4 key=62 velocity: 0
@20400 Channel: 8 Note on, D4 key=62 velocity: 123
@20400 Channel: 8 Note on, G3 key=55 velocity: 123
@20400 Channel: 8 Note on, C4 key=60 velocity: 123
@20413 Channel: 8 Note on, C4 key=60 velocity: 0
@20413 Channel: 8 Note on, G3 key=55 velocity: 0
@20413 Channel: 8 Note on, D4 key=62 velocity: 0
@20460 Channel: 8 Note on, D4 key=62 velocity: 123
@20460 Channel: 8 Note on, G3 key=55 velocity: 123
@20460 Channel: 8 Note on, C4 key=60 velocity: 123
@20465 Channel: 8 Note on, C4 key=60 velocity: 0
@20465 Channel: 8 Note on, G3 key=55 velocity: 0
@20465 Channel: 8 Note on, D4 key=62 velocity: 0
@20490 Channel: 8 Note on, G3 key=55 velocity: 123
@20490 Channel: 8 Note on, C4 key=60 velocity: 123
@20490 Channel: 8 Note on, D4 key=62 velocity: 123
@20503 Channel: 8 Note on, D4 key=62 velocity: 0
@20503 Channel: 8 Note on, C4 key=60 velocity: 0
@20503 Channel: 8 Note on, G3 key=55 velocity: 0
@20550 Channel: 8 Note on, D4 key=62 velocity: 123
@20550 Channel: 8 Note on, G3 key=55 velocity: 123
@20550 Channel: 8 Note on, C4 key=60 velocity: 123
@20555 Channel: 8 Note on, C4 key=60 velocity: 0
@20555 Channel: 8 Note on, G3 key=55 velocity: 0
@20555 Channel: 8 Note on, D4 key=62 velocity: 0
@20580 Channel: 8 Note on, C4 key=60 velocity: 123
@20580 Channel: 8 Note on, D4 key=62 velocity: 123
@20580 Channel: 8 Note on, G3 key=55 velocity: 123
@20593 Channel: 8 Note on, G3 key=55 velocity: 0
@20593 Channel: 8 Note on, D4 key=62 velocity: 0
@20593 Channel: 8 Note on, C4 key=60 velocity: 0
@20640 Channel: 8 Note on, B3 key=59 velocity: 122
@20640 Channel: 8 Note on, D4 key=62 velocity: 122
@20640 Channel: 8 Note on, G3 key=55 velocity: 122
@20653 Channel: 8 Note on, G3 key=55 velocity: 0
@20653 Channel: 8 Note on, D4 key=62 velocity: 0
@20653 Channel: 8 Note on, B3 key=59 velocity: 0
@20700 Channel: 8 Note on, D4 key=62 velocity: 122
@20700 Channel: 8 Note on, G3 key=55 velocity: 122
@20700 Channel: 8 Note on, B3 key=59 velocity: 122
@20705 Channel: 8 Note on, B3 key=59 velocity: 0
@20705 Channel: 8 Note on, G3 key=55 velocity: 0
@20705 Channel: 8 Note on, D4 key=62 velocity: 0
@20730 Channel: 8 Note on, D4 key=62 velocity: 122
@20730 Channel: 8 Note on, G3 key=55 velocity: 122
@20730 Channel: 8 Note on, B3 key=59 velocity: 122
@20743 Channel: 8 Note on, B3 key=59 velocity: 0
@20743 Channel: 8 Note on, G3 key=55 velocity: 0
@20743 Channel: 8 Note on, D4 key=62 velocity: 0
@20790 Channel: 8 Note on, G3 key=55 velocity: 121
@20790 Channel: 8 Note on, D4 key=62 velocity: 121
@20790 Channel: 8 Note on, B3 key=59 velocity: 121
@20795 Channel: 8 Note on, B3 key=59 velocity: 0
@20795 Channel: 8 Note on, D4 key=62 velocity: 0
@20795 Channel: 8 Note on, G3 key=55 velocity: 0
@20820 Channel: 8 Note on, B3 key=59 velocity: 121
@20820 Channel: 8 Note on, D4 key=62 velocity: 121
@20820 Channel: 8 Note on, G3 key=55 velocity: 121
@20833 Channel: 8 Note on, G3 key=55 velocity: 0
@20833 Channel: 8 Note on, D4 key=62 velocity: 0
@20833 Channel: 8 Note on, B3 key=59 velocity: 0
@20880 Channel: 8 Note on, C4 key=60 velocity: 121
@20880 Channel: 8 Note on, G3 key=55 velocity: 121
@20880 Channel: 8 Note on, D4 key=62 velocity: 121
@20893 Channel: 8 Note on, D4 key=62 velocity: 0
@20893 Channel: 8 Note on, G3 key=55 velocity: 0
@20893 Channel: 8 Note on, C4 key=60 velocity: 0
@20940 Channel: 8 Note on, C4 key=60 velocity: 121
@20940 Channel: 8 Note on, D4 key=62 velocity: 121
@20940 Channel: 8 Note on, G3 key=55 velocity: 121
@20945 Channel: 8 Note on, G3 key=55 velocity: 0
@20945 Channel: 8 Note on, D4 key=62 velocity: 0
@20945 Channel: 8 Note on, C4 key=60 velocity: 0
@20970 Channel: 8 Note on, G3 key=55 velocity: 121
@20970 Channel: 8 Note on, D4 key=62 velocity: 121
@20970 Channel: 8 Note on, C4 key=60 velocity: 121
@20983 Channel: 8 Note on, C4 key=60 velocity: 0
@20983 Channel: 8 Note on, D4 key=62 velocity: 0
@20983 Channel: 8 Note on, G3 key=55 velocity: 0
@21030 Channel: 8 Note on, G3 key=55 velocity: 120
@21030 Channel: 8 Note on, D4 key=62 velocity: 120
@21030 Channel: 8 Note on, C4 key=60 velocity: 120
@21035 Channel: 8 Note on, C4 key=60 velocity: 0
@21035 Channel: 8 Note on, D4 key=62 velocity: 0
@21035 Channel: 8 Note on, G3 key=55 velocity: 0
@21060 Channel: 8 Note on, D4 key=62 velocity: 120
@21060 Channel: 8 Note on, C4 key=60 velocity: 120
@21060 Channel: 8 Note on, G3 key=55 velocity: 120
@21073 Channel: 8 Note on, G3 key=55 velocity: 0
@21073 Channel: 8 Note on, C4 key=60 velocity: 0
@21073 Channel: 8 Note on, D4 key=62 velocity: 0
@21120 Channel: 8 Note on, C4 key=60 velocity: 120
@21120 Channel: 8 Note on, A3 key=57 velocity: 120
@21120 Channel: 8 Note on, F4 key=65 velocity: 120
@21133 Channel: 8 Note on, F4 key=65 velocity: 0
@21133 Channel: 8 Note on, A3 key=57 velocity: 0
@21133 Channel: 8 Note on, C4 key=60 velocity: 0
@21180 Channel: 8 Note on, C4 key=60 velocity: 120
@21180 Channel: 8 Note on, F4 key=65 velocity: 120
@21180 Channel: 8 Note on, A3 key=57 velocity: 120
@21185 Channel: 8 Note on, A3 key=57 velocity: 0
@21185 Channel: 8 Note on, F4 key=65 velocity: 0
@21185 Channel: 8 Note on, C4 key=60 velocity: 0
@21210 Channel: 8 Note on, F4 key=65 velocity: 120
@21210 Channel: 8 Note on, A3 key=57 velocity: 120
@21210 Channel: 8 Note on, C4 key=60 velocity: 120
@21223 Channel: 8 Note on, C4 key=60 velocity: 0
@21223 Channel: 8 Note on, A3 key=57 velocity: 0
@21223 Channel: 8 Note on, F4 key=65 velocity: 0
@21270 Channel: 8 Note on, F4 key=65 velocity: 120
@21270 Channel: 8 Note on, C4 key=60 velocity: 120
@21270 Channel: 8 Note on, A3 key=57 velocity: 120
@21275 Channel: 8 Note on, A3 key=57 velocity: 0
@21275 Channel: 8 Note on, C4 key=60 velocity: 0
@21275 Channel: 8 Note on, F4 key=65 velocity: 0
@21300 Channel: 8 Note on, C4 key=60 velocity: 120
@21300 Channel: 8 Note on, A3 key=57 velocity: 120
@21300 Channel: 8 Note on, F4 key=65 velocity: 120
@21313 Channel: 8 Note on, F4 key=65 velocity: 0
@21313 Channel: 8 Note on, A3 key=57 velocity: 0
@21313 Channel: 8 Note on, C4 key=60 velocity: 0
@21360 Channel: 8 Note on, G3 key=55 velocity: 120
@21360 Channel: 8 Note on, C4 key=60 velocity: 120
@21360 Channel: 8 Note on, F4 key=65 velocity: 120
@21373 Channel: 8 Note on, F4 key=65 velocity: 0
@21373 Channel: 8 Note on, C4 key=60 velocity: 0
@21373 Channel: 8 Note on, G3 key=55 velocity: 0
@21420 Channel: 8 Note on, G3 key=55 velocity: 120
@21420 Channel: 8 Note on, C4 key=60 velocity: 120
@21420 Channel: 8 Note on, F4 key=65 velocity: 120
@21425 Channel: 8 Note on, F4 key=65 velocity: 0
@21425 Channel: 8 Note on, C4 key=60 velocity: 0
@21425 Channel: 8 Note on, G3 key=55 velocity: 0
@21450 Channel: 8 Note on, G3 key=55 velocity: 120
@21450 Channel: 8 Note on, C4 key=60 velocity: 120
@21450 Channel: 8 Note on, F4 key=65 velocity: 120
@21463 Channel: 8 Note on, F4 key=65 velocity: 0
@21463 Channel: 8 Note on, C4 key=60 velocity: 0
@21463 Channel: 8 Note on, G3 key=55 velocity: 0
@21510 Channel: 8 Note on, G3 key=55 velocity: 120
@21510 Channel: 8 Note on, F4 key=65 velocity: 120
@21510 Channel: 8 Note on, C4 key=60 velocity: 120
@21515 Channel: 8 Note on, C4 key=60 velocity: 0
@21515 Channel: 8 Note on, F4 key=65 velocity: 0
@21515 Channel: 8 Note on, G3 key=55 velocity: 0
@21540 Channel: 8 Note on, G3 key=55 velocity: 120
@21540 Channel: 8 Note on, C4 key=60 velocity: 120
@21540 Channel: 8 Note on, F4 key=65 velocity: 120
@21553 Channel: 8 Note on, F4 key=65 velocity: 0
@21553 Channel: 8 Note on, C4 key=60 velocity: 0
@21553 Channel: 8 Note on, G3 key=55 velocity: 0
@21600 Channel: 8 Note on, A3 key=57 velocity: 120
@21600 Channel: 8 Note on, C4 key=60 velocity: 120
@21600 Channel: 8 Note on, E4 key=64 velocity: 120
@21609 Channel: 8 Note on, E4 key=64 velocity: 0
@21610 Channel: 8 Note on, C4 key=60 velocity: 0
@21610 Channel: 8 Note on, A3 key=57 velocity: 0
@21660 Channel: 8 Note on, C4 key=60 velocity: 120
@21660 Channel: 8 Note on, A3 key=57 velocity: 120
@21660 Channel: 8 Note on, E4 key=64 velocity: 120
@21664 Channel: 8 Note on, E4 key=64 velocity: 0
@21664 Channel: 8 Note on, C4 key=60 velocity: 0
@21665 Channel: 8 Note on, A3 key=57 velocity: 0
@21690 Channel: 8 Note on, C4 key=60 velocity: 120
@21690 Channel: 8 Note on, A3 key=57 velocity: 120
@21690 Channel: 8 Note on, E4 key=64 velocity: 120
@21699 Channel: 8 Note on, E4 key=64 velocity: 0
@21700 Channel: 8 Note on, A3 key=57 velocity: 0
@21700 Channel: 8 Note on, C4 key=60 velocity: 0
@21750 Channel: 8 Note on, C4 key=60 velocity: 120
@21750 Channel: 8 Note on, A3 key=57 velocity: 120
@21750 Channel: 8 Note on, E4 key=64 velocity: 120
@21754 Channel: 8 Note on, E4 key=64 velocity: 0
@21754 Channel: 8 Note on, C4 key=60 velocity: 0
@21755 Channel: 8 Note on, A3 key=57 velocity: 0
@21780 Channel: 8 Note on, A3 key=57 velocity: 120
@21780 Channel: 8 Note on, C4 key=60 velocity: 120
@21780 Channel: 8 Note on, E4 key=64 velocity: 120
@21789 Channel: 8 Note on, E4 key=64 velocity: 0
@21789 Channel: 8 Note on, C4 key=60 velocity: 0
@21790 Channel: 8 Note on, A3 key=57 velocity: 0
@21840 Channel: 8 Note on, A3 key=57 velocity: 120
@21840 Channel: 8 Note on, E4 key=64 velocity: 120
@21840 Channel: 8 Note on, B3 key=59 velocity: 120
@21850 Channel: 8 Note on, E4 key=64 velocity: 0
@21851 Channel: 8 Note on, B3 key=59 velocity: 0
@21851 Channel: 8 Note on, A3 key=57 velocity: 0
@21900 Channel: 8 Note on, B3 key=59 velocity: 120
@21900 Channel: 8 Note on, A3 key=57 velocity: 120
@21900 Channel: 8 Note on, E4 key=64 velocity: 120
@21903 Channel: 8 Note on, E4 key=64 velocity: 0
@21905 Channel: 8 Note on, A3 key=57 velocity: 0
@21905 Channel: 8 Note on, B3 key=59 velocity: 0
@21930 Channel: 8 Note on, B3 key=59 velocity: 120
@21930 Channel: 8 Note on, A3 key=57 velocity: 120
@21930 Channel: 8 Note on, E4 key=64 velocity: 120
@21938 Channel: 8 Note on, E4 key=64 velocity: 0
@21939 Channel: 8 Note on, A3 key=57 velocity: 0
@21939 Channel: 8 Note on, B3 key=59 velocity: 0
@21990 Channel: 8 Note on, B3 key=59 velocity: 121
@21990 Channel: 8 Note on, A3 key=57 velocity: 121
@21994 Channel: 8 Note on, B3 key=59 velocity: 0
@21995 Channel: 8 Note on, A3 key=57 velocity: 0
@22020 Channel: 8 Note on, A3 key=57 velocity: 121
@22020 Channel: 8 Note on, E4 key=64 velocity: 121
@22020 Channel: 8 Note on, C4 key=60 velocity: 121
@22029 Channel: 8 Note on, C4 key=60 velocity: 0
@22029 Channel: 8 Note on, E4 key=64 velocity: 0
@22030 Channel: 8 Note on, A3 key=57 velocity: 0
@22080 Channel: 8 Note on, C4 key=60 velocity: 121
@22080 Channel: 8 Note on, D4 key=62 velocity: 121
@22080 Channel: 8 Note on, G3 key=55 velocity: 121
@22089 Channel: 8 Note on, G3 key=55 velocity: 0
@22089 Channel: 8 Note on, D4 key=62 velocity: 0
@22090 Channel: 8 Note on, C4 key=60 velocity: 0
@22140 Channel: 8 Note on, C4 key=60 velocity: 122
@22140 Channel: 8 Note on, G3 key=55 velocity: 122
@22140 Channel: 8 Note on, D4 key=62 velocity: 122
@22144 Channel: 8 Note on, D4 key=62 velocity: 0
@22144 Channel: 8 Note on, C4 key=60 velocity: 0
@22145 Channel: 8 Note on, G3 key=55 velocity: 0
@22170 Channel: 8 Note on, G3 key=55 velocity: 122
@22170 Channel: 8 Note on, C4 key=60 velocity: 122
@22170 Channel: 8 Note on, D4 key=62 velocity: 122
@22179 Channel: 8 Note on, D4 key=62 velocity: 0
@22179 Channel: 8 Note on, C4 key=60 velocity: 0
@22179 Channel: 8 Note on, G3 key=55 velocity: 0
@22230 Channel: 8 Note on, C4 key=60 velocity: 122
@22230 Channel: 8 Note on, G3 key=55 velocity: 122
@22230 Channel: 8 Note on, D4 key=62 velocity: 122
@22234 Channel: 8 Note on, C4 key=60 velocity: 0
@22235 Channel: 8 Note on, G3 key=55 velocity: 0
@22236 Channel: 8 Note on, D4 key=62 velocity: 0
@22260 Channel: 8 Note on, C4 key=60 velocity: 122
@22260 Channel: 8 Note on, D4 key=62 velocity: 122
@22260 Channel: 8 Note on, G3 key=55 velocity: 122
@22269 Channel: 8 Note on, G3 key=55 velocity: 0
@22269 Channel: 8 Note on, C4 key=60 velocity: 0
@22270 Channel: 8 Note on, D4 key=62 velocity: 0
@22320 Channel: 8 Note on, D4 key=62 velocity: 121
@22320 Channel: 8 Note on, B3 key=59 velocity: 121
@22320 Channel: 8 Note on, G3 key=55 velocity: 121
@22329 Channel: 8 Note on, B3 key=59 velocity: 0
@22330 Channel: 8 Note on, G3 key=55 velocity: 0
@22330 Channel: 8 Note on, D4 key=62 velocity: 0
@22380 Channel: 8 Note on, D4 key=62 velocity: 121
@22380 Channel: 8 Note on, B3 key=59 velocity: 121
@22380 Channel: 8 Note on, G3 key=55 velocity: 121
@22384 Channel: 8 Note on, B3 key=59 velocity: 0
@22385 Channel: 8 Note on, G3 key=55 velocity: 0
@22385 Channel: 8 Note on, D4 key=62 velocity: 0
@22410 Channel: 8 Note on, D4 key=62 velocity: 121
@22410 Channel: 8 Note on, G3 key=55 velocity: 121
@22410 Channel: 8 Note on, B3 key=59 velocity: 121
@22418 Channel: 8 Note on, B3 key=59 velocity: 0
@22419 Channel: 8 Note on, D4 key=62 velocity: 0
@22420 Channel: 8 Note on, G3 key=55 velocity: 0
@22470 Channel: 8 Note on, B3 key=59 velocity: 120
@22470 Channel: 8 Note on, D4 key=62 velocity: 120
@22470 Channel: 8 Note on, G3 key=55 velocity: 120
@22474 Channel: 8 Note on, G3 key=55 velocity: 0
@22474 Channel: 8 Note on, D4 key=62 velocity: 0
@22474 Channel: 8 Note on, B3 key=59 velocity: 0
@22500 Channel: 8 Note on, B3 key=59 velocity: 120
@22500 Channel: 8 Note on, D4 key=62 velocity: 120
@22500 Channel: 8 Note on, G3 key=55 velocity: 120
@22507 Channel: 8 Note on, G3 key=55 velocity: 0
@22507 Channel: 8 Note on, D4 key=62 velocity: 0
@22507 Channel: 8 Note on, B3 key=59 velocity: 0
@22560 Channel: 8 Note on, G3 key=55 velocity: 120
@22560 Channel: 8 Note on, B3 key=59 velocity: 120
@22560 Channel: 8 Note on, F4 key=65 velocity: 120
@22569 Channel: 8 Note on, F4 key=65 velocity: 0
@22569 Channel: 8 Note on, B3 key=59 velocity: 0
@22570 Channel: 8 Note on, G3 key=55 velocity: 0
@22620 Channel: 8 Note on, B3 key=59 velocity: 120
@22620 Channel: 8 Note on, F4 key=65 velocity: 120
@22620 Channel: 8 Note on, G3 key=55 velocity: 120
@22624 Channel: 8 Note on, B3 key=59 velocity: 0
@22625 Channel: 8 Note on, G3 key=55 velocity: 0
@22625 Channel: 8 Note on, F4 key=65 velocity: 0
@22650 Channel: 8 Note on, F4 key=65 velocity: 120
@22650 Channel: 8 Note on, G3 key=55 velocity: 120
@22650 Channel: 8 Note on, B3 key=59 velocity: 120
@22658 Channel: 8 Note on, B3 key=59 velocity: 0
@22659 Channel: 8 Note on, G3 key=55 velocity: 0
@22659 Channel: 8 Note on, F4 key=65 velocity: 0
@22710 Channel: 8 Note on, F4 key=65 velocity: 120
@22710 Channel: 8 Note on, G3 key=55 velocity: 120
@22710 Channel: 8 Note on, B3 key=59 velocity: 120
@22714 Channel: 8 Note on, B3 key=59 velocity: 0
@22715 Channel: 8 Note on, G3 key=55 velocity: 0
@22727 Channel: 8 Note on, F4 key=65 velocity: 0
@22740 Channel: 8 Note on, G3 key=55 velocity: 120
@22740 Channel: 8 Note on, B3 key=59 velocity: 120
@22749 Channel: 8 Note on, B3 key=59 velocity: 0
@22750 Channel: 8 Note on, G3 key=55 velocity: 0
@22800 Channel: 8 Note on, D4 key=62 velocity: 120
@22800 Channel: 8 Note on, G3 key=55 velocity: 120
@22800 Channel: 8 Note on, B3 key=59 velocity: 120
@22809 Channel: 8 Note on, B3 key=59 velocity: 0
@22810 Channel: 8 Note on, G3 key=55 velocity: 0
@22810 Channel: 8 Note on, D4 key=62 velocity: 0
@22860 Channel: 8 Note on, G3 key=55 velocity: 120
@22860 Channel: 8 Note on, B3 key=59 velocity: 120
@22860 Channel: 8 Note on, D4 key=62 velocity: 120
@22864 Channel: 8 Note on, D4 key=62 velocity: 0
@22864 Channel: 8 Note on, B3 key=59 velocity: 0
@22865 Channel: 8 Note on, G3 key=55 velocity: 0
@22890 Channel: 8 Note on, G3 key=55 velocity: 120
@22890 Channel: 8 Note on, B3 key=59 velocity: 120
@22890 Channel: 8 Note on, D4 key=62 velocity: 120
@22897 Channel: 8 Note on, D4 key=62 velocity: 0
@22899 Channel: 8 Note on, B3 key=59 velocity: 0
@22900 Channel: 8 Note on, G3 key=55 velocity: 0
@22950 Channel: 8 Note on, G3 key=55 velocity: 121
@22950 Channel: 8 Note on, B3 key=59 velocity: 121
@22950 Channel: 8 Note on, D4 key=62 velocity: 121
@22954 Channel: 8 Note on, D4 key=62 velocity: 0
@22954 Channel: 8 Note on, B3 key=59 velocity: 0
@22955 Channel: 8 Note on, G3 key=55 velocity: 0
@22980 Channel: 8 Note on, G3 key=55 velocity: 121
@22980 Channel: 8 Note on, B3 key=59 velocity: 121
@22980 Channel: 8 Note on, D4 key=62 velocity: 121
@22989 Channel: 8 Note on, D4 key=62 velocity: 0
@22990 Channel: 8 Note on, B3 key=59 velocity: 0
@22990 Channel: 8 Note on, G3 key=55 velocity: 0
@23040 Channel: 8 Note on, C4 key=60 velocity: 121
@23040 Channel: 8 Note on, E4 key=64 velocity: 121
@23040 Channel: 8 Note on, G3 key=55 velocity: 121
@23040 Channel: 8 Note on, E4 key=64 velocity: 121
@23040 Channel: 8 Note on, C4 key=60 velocity: 121
@23040 Channel: 8 Note on, G3 key=55 velocity: 121
@23050 Channel: 8 Note on, C4 key=60 velocity: 0
@23050 Channel: 8 Note on, E4 key=64 velocity: 0
@23050 Channel: 8 Note on, G3 key=55 velocity: 0
@23052 Channel: 8 Note on, C4 key=60 velocity: 0
@23052 Channel: 8 Note on, G3 key=55 velocity: 0
@23052 Channel: 8 Note on, E4 key=64 velocity: 0
@23100 Channel: 8 Note on, G3 key=55 velocity: 121
@23100 Channel: 8 Note on, E4 key=64 velocity: 121
@23100 Channel: 8 Note on, C4 key=60 velocity: 121
@23104 Channel: 8 Note on, C4 key=60 velocity: 0
@23104 Channel: 8 Note on, E4 key=64 velocity: 0
@23105 Channel: 8 Note on, G3 key=55 velocity: 0
@23130 Channel: 8 Note on, G3 key=55 velocity: 121
@23130 Channel: 8 Note on, E4 key=64 velocity: 121
@23130 Channel: 8 Note on, C4 key=60 velocity: 121
@23139 Channel: 8 Note on, C4 key=60 velocity: 0
@23141 Channel: 8 Note on, E4 key=64 velocity: 0
@23141 Channel: 8 Note on, G3 key=55 velocity: 0
@23190 Channel: 8 Note on, C4 key=60 velocity: 121
@23190 Channel: 8 Note on, E4 key=64 velocity: 121
@23190 Channel: 8 Note on, G3 key=55 velocity: 121
@23194 Channel: 8 Note on, G3 key=55 velocity: 0
@23194 Channel: 8 Note on, E4 key=64 velocity: 0
@23194 Channel: 8 Note on, C4 key=60 velocity: 0
@23220 Channel: 8 Note on, E4 key=64 velocity: 121
@23220 Channel: 8 Note on, C4 key=60 velocity: 121
@23220 Channel: 8 Note on, G3 key=55 velocity: 121
@23231 Channel: 8 Note on, G3 key=55 velocity: 0
@23231 Channel: 8 Note on, C4 key=60 velocity: 0
@23231 Channel: 8 Note on, E4 key=64 velocity: 0
@23280 Channel: 8 Note on, F4 key=65 velocity: 121
@23280 Channel: 8 Note on, C4 key=60 velocity: 121
@23280 Channel: 8 Note on, G3 key=55 velocity: 121
@23291 Channel: 8 Note on, G3 key=55 velocity: 0
@23291 Channel: 8 Note on, C4 key=60 velocity: 0
@23291 Channel: 8 Note on, F4 key=65 velocity: 0
@23340 Channel: 8 Note on, F4 key=65 velocity: 121
@23340 Channel: 8 Note on, C4 key=60 velocity: 121
@23340 Channel: 8 Note on, G3 key=55 velocity: 121
@23344 Channel: 8 Note on, G3 key=55 velocity: 0
@23344 Channel: 8 Note on, C4 key=60 velocity: 0
@23345 Channel: 8 Note on, F4 key=65 velocity: 0
@23370 Channel: 8 Note on, F4 key=65 velocity: 121
@23370 Channel: 8 Note on, C4 key=60 velocity: 121
@23370 Channel: 8 Note on, G3 key=55 velocity: 121
@23381 Channel: 8 Note on, G3 key=55 velocity: 0
@23381 Channel: 8 Note on, C4 key=60 velocity: 0
@23381 Channel: 8 Note on, F4 key=65 velocity: 0
@23430 Channel: 8 Note on, G3 key=55 velocity: 121
@23430 Channel: 8 Note on, C4 key=60 velocity: 121
@23430 Channel: 8 Note on, F4 key=65 velocity: 121
@23435 Channel: 8 Note on, F4 key=65 velocity: 0
@23435 Channel: 8 Note on, C4 key=60 velocity: 0
@23435 Channel: 8 Note on, G3 key=55 velocity: 0
@23460 Channel: 8 Note on, F4 key=65 velocity: 121
@23460 Channel: 8 Note on, G3 key=55 velocity: 121
@23460 Channel: 8 Note on, C4 key=60 velocity: 121
@23472 Channel: 8 Note on, C4 key=60 velocity: 0
@23472 Channel: 8 Note on, G3 key=55 velocity: 0
@23473 Channel: 8 Note on, F4 key=65 velocity: 0
@23520 Channel: 8 Note on, C4 key=60 velocity: 121
@23520 Channel: 8 Note on, E4 key=64 velocity: 121
@23520 Channel: 8 Note on, G3 key=55 velocity: 121
@23529 Channel: 8 Note on, G3 key=55 velocity: 0
@23529 Channel: 8 Note on, E4 key=64 velocity: 0
@23529 Channel: 8 Note on, C4 key=60 velocity: 0
@23580 Channel: 8 Note on, C4 key=60 velocity: 120
@23580 Channel: 8 Note on, E4 key=64 velocity: 120
@23580 Channel: 8 Note on, G3 key=55 velocity: 120
@23585 Channel: 8 Note on, G3 key=55 velocity: 0
@23585 Channel: 8 Note on, E4 key=64 velocity: 0
@23585 Channel: 8 Note on, C4 key=60 velocity: 0
@23610 Channel: 8 Note on, E4 key=64 velocity: 120
@23610 Channel: 8 Note on, G3 key=55 velocity: 120
@23610 Channel: 8 Note on, C4 key=60 velocity: 120
@23619 Channel: 8 Note on, C4 key=60 velocity: 0
@23620 Channel: 8 Note on, G3 key=55 velocity: 0
@23620 Channel: 8 Note on, E4 key=64 velocity: 0
@23670 Channel: 8 Note on, G3 key=55 velocity: 120
@23670 Channel: 8 Note on, E4 key=64 velocity: 120
@23670 Channel: 8 Note on, C4 key=60 velocity: 120
@23675 Channel: 8 Note on, C4 key=60 velocity: 0
@23675 Channel: 8 Note on, E4 key=64 velocity: 0
@23675 Channel: 8 Note on, G3 key=55 velocity: 0
@23700 Channel: 8 Note on, E4 key=64 velocity: 120
@23700 Channel: 8 Note on, G3 key=55 velocity: 120
@23700 Channel: 8 Note on, C4 key=60 velocity: 120
@23710 Channel: 8 Note on, C4 key=60 velocity: 0
@23710 Channel: 8 Note on, G3 key=55 velocity: 0
@23710 Channel: 8 Note on, E4 key=64 velocity: 0
@23760 Channel: 8 Note on, C4 key=60 velocity: 120
@23760 Channel: 8 Note on, G3 key=55 velocity: 120
@23760 Channel: 8 Note on, F4 key=65 velocity: 120
@23770 Channel: 8 Note on, F4 key=65 velocity: 0
@23770 Channel: 8 Note on, G3 key=55 velocity: 0
@23770 Channel: 8 Note on, C4 key=60 velocity: 0
@23820 Channel: 8 Note on, C4 key=60 velocity: 122
@23820 Channel: 8 Note on, F4 key=65 velocity: 122
@23820 Channel: 8 Note on, G3 key=55 velocity: 122
@23825 Channel: 8 Note on, G3 key=55 velocity: 0
@23825 Channel: 8 Note on, F4 key=65 velocity: 0
@23825 Channel: 8 Note on, C4 key=60 velocity: 0
@23850 Channel: 8 Note on, F4 key=65 velocity: 120
@23850 Channel: 8 Note on, C4 key=60 velocity: 120
@23850 Channel: 8 Note on, G3 key=55 velocity: 120
@23859 Channel: 8 Note on, C4 key=60 velocity: 0
@23859 Channel: 8 Note on, F4 key=65 velocity: 0
@23860 Channel: 8 Note on, G3 key=55 velocity: 0
@23910 Channel: 8 Note on, F4 key=65 velocity: 120
@23910 Channel: 8 Note on, C4 key=60 velocity: 120
@23910 Channel: 8 Note on, G3 key=55 velocity: 120
@23914 Channel: 8 Note on, G3 key=55 velocity: 0
@23914 Channel: 8 Note on, C4 key=60 velocity: 0
@23915 Channel: 8 Note on, F4 key=65 velocity: 0
@23940 Channel: 8 Note on, F4 key=65 velocity: 119
@23940 Channel: 8 Note on, G3 key=55 velocity: 119
@23940 Channel: 8 Note on, C4 key=60 velocity: 119
@23949 Channel: 8 Note on, F4 key=65 velocity: 0
@23950 Channel: 8 Note on, C4 key=60 velocity: 0
@23950 Channel: 8 Note on, G3 key=55 velocity: 0
@24000 Channel: 8 Note on, C4 key=60 velocity: 119
@24000 Channel: 8 Note on, E4 key=64 velocity: 119
@24000 Channel: 8 Note on, A3 key=57 velocity: 119
@24010 Channel: 8 Note on, A3 key=57 velocity: 0
@24010 Channel: 8 Note on, E4 key=64 velocity: 0
@24011 Channel: 8 Note on, C4 key=60 velocity: 0
@24060 Channel: 8 Note on, A3 key=57 velocity: 119
@24060 Channel: 8 Note on, C4 key=60 velocity: 119
@24060 Channel: 8 Note on, E4 key=64 velocity: 119
@24065 Channel: 8 Note on, E4 key=64 velocity: 0
@24065 Channel: 8 Note on, C4 key=60 velocity: 0
@24066 Channel: 8 Note on, A3 key=57 velocity: 0
@24090 Channel: 8 Note on, A3 key=57 velocity: 119
@24090 Channel: 8 Note on, E4 key=64 velocity: 119
@24090 Channel: 8 Note on, C4 key=60 velocity: 119
@24099 Channel: 8 Note on, C4 key=60 velocity: 0
@24100 Channel: 8 Note on, E4 key=64 velocity: 0
@24100 Channel: 8 Note on, A3 key=57 velocity: 0
@24150 Channel: 8 Note on, C4 key=60 velocity: 118
@24150 Channel: 8 Note on, A3 key=57 velocity: 118
@24150 Channel: 8 Note on, E4 key=64 velocity: 118
@24154 Channel: 8 Note on, E4 key=64 velocity: 0
@24154 Channel: 8 Note on, A3 key=57 velocity: 0
@24154 Channel: 8 Note on, C4 key=60 velocity: 0
@24180 Channel: 8 Note on, A3 key=57 velocity: 118
@24180 Channel: 8 Note on, C4 key=60 velocity: 118
@24180 Channel: 8 Note on, E4 key=64 velocity: 118
@24190 Channel: 8 Note on, E4 key=64 velocity: 0
@24190 Channel: 8 Note on, C4 key=60 velocity: 0
@24190 Channel: 8 Note on, A3 key=57 velocity: 0
@24240 Channel: 8 Note on, A3 key=57 velocity: 119
@24240 Channel: 8 Note on, C4 key=60 velocity: 119
@24240 Channel: 8 Note on, E4 key=64 velocity: 119
@24250 Channel: 8 Note on, E4 key=64 velocity: 0
@24250 Channel: 8 Note on, C4 key=60 velocity: 0
@24250 Channel: 8 Note on, A3 key=57 velocity: 0
@24300 Channel: 8 Note on, A3 key=57 velocity: 119
@24300 Channel: 8 Note on, E4 key=64 velocity: 119
@24300 Channel: 8 Note on, C4 key=60 velocity: 119
@24304 Channel: 8 Note on, C4 key=60 velocity: 0
@24305 Channel: 8 Note on, E4 key=64 velocity: 0
@24305 Channel: 8 Note on, A3 key=57 velocity: 0
@24330 Channel: 8 Note on, A3 key=57 velocity: 119
@24330 Channel: 8 Note on, C4 key=60 velocity: 119
@24330 Channel: 8 Note on, E4 key=64 velocity: 119
@24339 Channel: 8 Note on, E4 key=64 velocity: 0
@24339 Channel: 8 Note on, C4 key=60 velocity: 0
@24340 Channel: 8 Note on, A3 key=57 velocity: 0
@24390 Channel: 8 Note on, A3 key=57 velocity: 120
@24390 Channel: 8 Note on, C4 key=60 velocity: 120
@24390 Channel: 8 Note on, E4 key=64 velocity: 120
@24394 Channel: 8 Note on, E4 key=64 velocity: 0
@24394 Channel: 8 Note on, C4 key=60 velocity: 0
@24394 Channel: 8 Note on, A3 key=57 velocity: 0
@24420 Channel: 8 Note on, A3 key=57 velocity: 120
@24420 Channel: 8 Note on, E4 key=64 velocity: 120
@24420 Channel: 8 Note on, C4 key=60 velocity: 120
@24427 Channel: 8 Note on, C4 key=60 velocity: 0
@24427 Channel: 8 Note on, E4 key=64 velocity: 0
@24428 Channel: 8 Note on, A3 key=57 velocity: 0
@24480 Channel: 8 Note on, A3 key=57 velocity: 120
@24480 Channel: 8 Note on, E4 key=64 velocity: 120
@24480 Channel: 8 Note on, C4 key=60 velocity: 120
@24489 Channel: 8 Note on, C4 key=60 velocity: 0
@24490 Channel: 8 Note on, E4 key=64 velocity: 0
@24490 Channel: 8 Note on, A3 key=57 velocity: 0
@24540 Channel: 8 Note on, A3 key=57 velocity: 120
@24540 Channel: 8 Note on, C4 key=60 velocity: 120
@24540 Channel: 8 Note on, E4 key=64 velocity: 120
@24544 Channel: 8 Note on, C4 key=60 velocity: 0
@24545 Channel: 8 Note on, E4 key=64 velocity: 0
@24545 Channel: 8 Note on, A3 key=57 velocity: 0
@24570 Channel: 8 Note on, A3 key=57 velocity: 120
@24570 Channel: 8 Note on, E4 key=64 velocity: 120
@24570 Channel: 8 Note on, C4 key=60 velocity: 120
@24577 Channel: 8 Note on, C4 key=60 velocity: 0
@24578 Channel: 8 Note on, E4 key=64 velocity: 0
@24579 Channel: 8 Note on, A3 key=57 velocity: 0
@24630 Channel: 8 Note on, A3 key=57 velocity: 121
@24630 Channel: 8 Note on, C4 key=60 velocity: 121
@24630 Channel: 8 Note on, E4 key=64 velocity: 121
@24633 Channel: 8 Note on, E4 key=64 velocity: 0
@24633 Channel: 8 Note on, C4 key=60 velocity: 0
@24635 Channel: 8 Note on, A3 key=57 velocity: 0
@24660 Channel: 8 Note on, A3 key=57 velocity: 121
@24660 Channel: 8 Note on, C4 key=60 velocity: 121
@24660 Channel: 8 Note on, E4 key=64 velocity: 121
@24668 Channel: 8 Note on, C4 key=60 velocity: 0
@24669 Channel: 8 Note on, E4 key=64 velocity: 0
@24669 Channel: 8 Note on, A3 key=57 velocity: 0
@24720 Channel: 8 Note on, A3 key=57 velocity: 122
@24720 Channel: 8 Note on, E4 key=64 velocity: 122
@24720 Channel: 8 Note on, C4 key=60 velocity: 122
@24729 Channel: 8 Note on, C4 key=60 velocity: 0
@24730 Channel: 8 Note on, E4 key=64 velocity: 0
@24730 Channel: 8 Note on, A3 key=57 velocity: 0
@24780 Channel: 8 Note on, A3 key=57 velocity: 122
@24780 Channel: 8 Note on, C4 key=60 velocity: 122
@24780 Channel: 8 Note on, E4 key=64 velocity: 122
@24784 Channel: 8 Note on, E4 key=64 velocity: 0
@24784 Channel: 8 Note on, C4 key=60 velocity: 0
@24785 Channel: 8 Note on, A3 key=57 velocity: 0
@24810 Channel: 8 Note on, A3 key=57 velocity: 122
@24810 Channel: 8 Note on, E4 key=64 velocity: 122
@24810 Channel: 8 Note on, C4 key=60 velocity: 122
@24819 Channel: 8 Note on, C4 key=60 velocity: 0
@24819 Channel: 8 Note on, E4 key=64 velocity: 0
@24820 Channel: 8 Note on, A3 key=57 velocity: 0
@24870 Channel: 8 Note on, A3 key=57 velocity: 122
@24870 Channel: 8 Note on, C4 key=60 velocity: 122
@24870 Channel: 8 Note on, E4 key=64 velocity: 122
@24874 Channel: 8 Note on, E4 key=64 velocity: 0
@24874 Channel: 8 Note on, C4 key=60 velocity: 0
@24876 Channel: 8 Note on, A3 key=57 velocity: 0
@24900 Channel: 8 Note on, E4 key=64 velocity: 121
@24900 Channel: 8 Note on, A3 key=57 velocity: 121
@24900 Channel: 8 Note on, C4 key=60 velocity: 121
@24908 Channel: 8 Note on, C4 key=60 velocity: 0
@24908 Channel: 8 Note on, E4 key=64 velocity: 0
@24909 Channel: 8 Note on, A3 key=57 velocity: 0
@24960 Channel: 8 Note on, C4 key=60 velocity: 121
@24960 Channel: 8 Note on, F4 key=65 velocity: 121
@24960 Channel: 8 Note on, A3 key=57 velocity: 121
@24969 Channel: 8 Note on, A3 key=57 velocity: 0
@24969 Channel: 8 Note on, C4 key=60 velocity: 0
@24970 Channel: 8 Note on, F4 key=65 velocity: 0
@25020 Channel: 8 Note on, F4 key=65 velocity: 121
@25020 Channel: 8 Note on, C4 key=60 velocity: 121
@25020 Channel: 8 Note on, A3 key=57 velocity: 121
@25024 Channel: 8 Note on, C4 key=60 velocity: 0
@25025 Channel: 8 Note on, A3 key=57 velocity: 0
@25025 Channel: 8 Note on, F4 key=65 velocity: 0
@25050 Channel: 8 Note on, A3 key=57 velocity: 121
@25050 Channel: 8 Note on, F4 key=65 velocity: 121
@25050 Channel: 8 Note on, C4 key=60 velocity: 121
@25059 Channel: 8 Note on, C4 key=60 velocity: 0
@25059 Channel: 8 Note on, F4 key=65 velocity: 0
@25059 Channel: 8 Note on, A3 key=57 velocity: 0
@25110 Channel: 8 Note on, A3 key=57 velocity: 120
@25110 Channel: 8 Note on, C4 key=60 velocity: 120
@25110 Channel: 8 Note on, F4 key=65 velocity: 120
@25114 Channel: 8 Note on, F4 key=65 velocity: 0
@25114 Channel: 8 Note on, C4 key=60 velocity: 0
@25115 Channel: 8 Note on, A3 key=57 velocity: 0
@25140 Channel: 8 Note on, A3 key=57 velocity: 120
@25140 Channel: 8 Note on, F4 key=65 velocity: 120
@25140 Channel: 8 Note on, C4 key=60 velocity: 120
@25148 Channel: 8 Note on, C4 key=60 velocity: 0
@25148 Channel: 8 Note on, F4 key=65 velocity: 0
@25148 Channel: 8 Note on, A3 key=57 velocity: 0
@25200 Channel: 8 Note on, C4 key=60 velocity: 120
@25200 Channel: 8 Note on, G3 key=55 velocity: 120
@25200 Channel: 8 Note on, F4 key=65 velocity: 120
@25209 Channel: 8 Note on, F4 key=65 velocity: 0
@25209 Channel: 8 Note on, G3 key=55 velocity: 0
@25209 Channel: 8 Note on, C4 key=60 velocity: 0
@25260 Channel: 8 Note on, G3 key=55 velocity: 120
@25260 Channel: 8 Note on, C4 key=60 velocity: 120
@25260 Channel: 8 Note on, F4 key=65 velocity: 120
@25265 Channel: 8 Note on, F4 key=65 velocity: 0
@25265 Channel: 8 Note on, C4 key=60 velocity: 0
@25265 Channel: 8 Note on, G3 key=55 velocity: 0
@25290 Channel: 8 Note on, G3 key=55 velocity: 120
@25290 Channel: 8 Note on, F4 key=65 velocity: 120
@25290 Channel: 8 Note on, C4 key=60 velocity: 120
@25297 Channel: 8 Note on, C4 key=60 velocity: 0
@25297 Channel: 8 Note on, F4 key=65 velocity: 0
@25299 Channel: 8 Note on, G3 key=55 velocity: 0
@25350 Channel: 8 Note on, G3 key=55 velocity: 120
@25350 Channel: 8 Note on, C4 key=60 velocity: 120
@25350 Channel: 8 Note on, F4 key=65 velocity: 120
@25355 Channel: 8 Note on, F4 key=65 velocity: 0
@25355 Channel: 8 Note on, C4 key=60 velocity: 0
@25355 Channel: 8 Note on, G3 key=55 velocity: 0
@25380 Channel: 8 Note on, G3 key=55 velocity: 121
@25380 Channel: 8 Note on, F4 key=65 velocity: 121
@25380 Channel: 8 Note on, C4 key=60 velocity: 121
@25389 Channel: 8 Note on, C4 key=60 velocity: 0
@25389 Channel: 8 Note on, F4 key=65 velocity: 0
@25389 Channel: 8 Note on, G3 key=55 velocity: 0
@25440 Channel: 8 Note on, A3 key=57 velocity: 121
@25440 Channel: 8 Note on, C4 key=60 velocity: 121
@25440 Channel: 8 Note on, F4 key=65 velocity: 121
@25447 Channel: 8 Note on, F4 key=65 velocity: 0
@25448 Channel: 8 Note on, C4 key=60 velocity: 0
@25449 Channel: 8 Note on, A3 key=57 velocity: 0
@25500 Channel: 8 Note on, F4 key=65 velocity: 121
@25500 Channel: 8 Note on, A3 key=57 velocity: 121
@25500 Channel: 8 Note on, C4 key=60 velocity: 121
@25504 Channel: 8 Note on, C4 key=60 velocity: 0
@25504 Channel: 8 Note on, A3 key=57 velocity: 0
@25504 Channel: 8 Note on, F4 key=65 velocity: 0
@25530 Channel: 8 Note on, A3 key=57 velocity: 121
@25530 Channel: 8 Note on, F4 key=65 velocity: 121
@25530 Channel: 8 Note on, C4 key=60 velocity: 121
@25537 Channel: 8 Note on, C4 key=60 velocity: 0
@25538 Channel: 8 Note on, F4 key=65 velocity: 0
@25539 Channel: 8 Note on, A3 key=57 velocity: 0
@25590 Channel: 8 Note on, A3 key=57 velocity: 121
@25590 Channel: 8 Note on, F4 key=65 velocity: 121
@25590 Channel: 8 Note on, C4 key=60 velocity: 121
@25594 Channel: 8 Note on, C4 key=60 velocity: 0
@25595 Channel: 8 Note on, F4 key=65 velocity: 0
@25595 Channel: 8 Note on, A3 key=57 velocity: 0
@25620 Channel: 8 Note on, F4 key=65 velocity: 121
@25620 Channel: 8 Note on, A3 key=57 velocity: 121
@25620 Channel: 8 Note on, C4 key=60 velocity: 121
@25628 Channel: 8 Note on, C4 key=60 velocity: 0
@25629 Channel: 8 Note on, A3 key=57 velocity: 0
@25629 Channel: 8 Note on, F4 key=65 velocity: 0
@25680 Channel: 8 Note on, C4 key=60 velocity: 121
@25680 Channel: 8 Note on, F4 key=65 velocity: 121
@25680 Channel: 8 Note on, G3 key=55 velocity: 121
@25687 Channel: 8 Note on, G3 key=55 velocity: 0
@25688 Channel: 8 Note on, F4 key=65 velocity: 0
@25688 Channel: 8 Note on, C4 key=60 velocity: 0
@25740 Channel: 8 Note on, C4 key=60 velocity: 120
@25740 Channel: 8 Note on, G3 key=55 velocity: 120
@25740 Channel: 8 Note on, F4 key=65 velocity: 120
@25745 Channel: 8 Note on, F4 key=65 velocity: 0
@25745 Channel: 8 Note on, G3 key=55 velocity: 0
@25745 Channel: 8 Note on, C4 key=60 velocity: 0
@25770 Channel: 8 Note on, F4 key=65 velocity: 120
@25770 Channel: 8 Note on, G3 key=55 velocity: 120
@25770 Channel: 8 Note on, C4 key=60 velocity: 120
@25778 Channel: 8 Note on, C4 key=60 velocity: 0
@25779 Channel: 8 Note on, G3 key=55 velocity: 0
@25779 Channel: 8 Note on, F4 key=65 velocity: 0
@25830 Channel: 8 Note on, C4 key=60 velocity: 120
@25830 Channel: 8 Note on, F4 key=65 velocity: 120
@25830 Channel: 8 Note on, G3 key=55 velocity: 120
@25835 Channel: 8 Note on, G3 key=55 velocity: 0
@25835 Channel: 8 Note on, F4 key=65 velocity: 0
@25835 Channel: 8 Note on, C4 key=60 velocity: 0
@25860 Channel: 8 Note on, F4 key=65 velocity: 120
@25860 Channel: 8 Note on, C4 key=60 velocity: 120
@25860 Channel: 8 Note on, G3 key=55 velocity: 120
@25867 Channel: 8 Note on, F4 key=65 velocity: 0
@25868 Channel: 8 Note on, C4 key=60 velocity: 0
@25869 Channel: 8 Note on, G3 key=55 velocity: 0
@25920 Channel: 8 Note on, B3 key=59 velocity: 121
@25920 Channel: 8 Note on, G3 key=55 velocity: 121
@25920 Channel: 8 Note on, E4 key=64 velocity: 121
@25928 Channel: 8 Note on, E4 key=64 velocity: 0
@25928 Channel: 8 Note on, B3 key=59 velocity: 0
@25929 Channel: 8 Note on, G3 key=55 velocity: 0
@25980 Channel: 8 Note on, E4 key=64 velocity: 121
@25980 Channel: 8 Note on, B3 key=59 velocity: 121
@25980 Channel: 8 Note on, G3 key=55 velocity: 121
@25984 Channel: 8 Note on, G3 key=55 velocity: 0
@25984 Channel: 8 Note on, B3 key=59 velocity: 0
@25985 Channel: 8 Note on, E4 key=64 velocity: 0
@26010 Channel: 8 Note on, E4 key=64 velocity: 121
@26010 Channel: 8 Note on, G3 key=55 velocity: 121
@26010 Channel: 8 Note on, B3 key=59 velocity: 121
@26018 Channel: 8 Note on, B3 key=59 velocity: 0
@26018 Channel: 8 Note on, G3 key=55 velocity: 0
@26019 Channel: 8 Note on, E4 key=64 velocity: 0
@26070 Channel: 8 Note on, E4 key=64 velocity: 121
@26070 Channel: 8 Note on, B3 key=59 velocity: 121
@26070 Channel: 8 Note on, G3 key=55 velocity: 121
@26074 Channel: 8 Note on, G3 key=55 velocity: 0
@26074 Channel: 8 Note on, B3 key=59 velocity: 0
@26074 Channel: 8 Note on, E4 key=64 velocity: 0
@26100 Channel: 8 Note on, G3 key=55 velocity: 121
@26100 Channel: 8 Note on, E4 key=64 velocity: 121
@26100 Channel: 8 Note on, B3 key=59 velocity: 121
@26107 Channel: 8 Note on, B3 key=59 velocity: 0
@26107 Channel: 8 Note on, E4 key=64 velocity: 0
@26108 Channel: 8 Note on, G3 key=55 velocity: 0
@26160 Channel: 8 Note on, E4 key=64 velocity: 122
@26160 Channel: 8 Note on, G3 key=55 velocity: 122
@26160 Channel: 8 Note on, B3 key=59 velocity: 122
@26169 Channel: 8 Note on, B3 key=59 velocity: 0
@26170 Channel: 8 Note on, G3 key=55 velocity: 0
@26170 Channel: 8 Note on, E4 key=64 velocity: 0
@26220 Channel: 8 Note on, G3 key=55 velocity: 122
@26220 Channel: 8 Note on, B3 key=59 velocity: 122
@26220 Channel: 8 Note on, E4 key=64 velocity: 122
@26224 Channel: 8 Note on, E4 key=64 velocity: 0
@26224 Channel: 8 Note on, B3 key=59 velocity: 0
@26224 Channel: 8 Note on, G3 key=55 velocity: 0
@26250 Channel: 8 Note on, G3 key=55 velocity: 122
@26250 Channel: 8 Note on, E4 key=64 velocity: 122
@26250 Channel: 8 Note on, B3 key=59 velocity: 122
@26257 Channel: 8 Note on, B3 key=59 velocity: 0
@26257 Channel: 8 Note on, E4 key=64 velocity: 0
@26258 Channel: 8 Note on, G3 key=55 velocity: 0
@26310 Channel: 8 Note on, B3 key=59 velocity: 122
@26310 Channel: 8 Note on, G3 key=55 velocity: 122
@26310 Channel: 8 Note on, E4 key=64 velocity: 122
@26314 Channel: 8 Note on, E4 key=64 velocity: 0
@26314 Channel: 8 Note on, B3 key=59 velocity: 0
@26315 Channel: 8 Note on, G3 key=55 velocity: 0
@26340 Channel: 8 Note on, G3 key=55 velocity: 122
@26340 Channel: 8 Note on, E4 key=64 velocity: 122
@26340 Channel: 8 Note on, B3 key=59 velocity: 122
@26348 Channel: 8 Note on, B3 key=59 velocity: 0
@26348 Channel: 8 Note on, E4 key=64 velocity: 0
@26349 Channel: 8 Note on, G3 key=55 velocity: 0
@26400 Channel: 8 Note on, A3 key=57 velocity: 122
@26400 Channel: 8 Note on, C4 key=60 velocity: 122
@26400 Channel: 8 Note on, F4 key=65 velocity: 122
@26409 Channel: 8 Note on, C4 key=60 velocity: 0
@26409 Channel: 8 Note on, A3 key=57 velocity: 0
@26410 Channel: 8 Note on, F4 key=65 velocity: 0
@26460 Channel: 8 Note on, A3 key=57 velocity: 122
@26460 Channel: 8 Note on, F4 key=65 velocity: 122
@26460 Channel: 8 Note on, C4 key=60 velocity: 122
@26464 Channel: 8 Note on, C4 key=60 velocity: 0
@26464 Channel: 8 Note on, F4 key=65 velocity: 0
@26464 Channel: 8 Note on, A3 key=57 velocity: 0
@26490 Channel: 8 Note on, F4 key=65 velocity: 122
@26490 Channel: 8 Note on, A3 key=57 velocity: 122
@26490 Channel: 8 Note on, C4 key=60 velocity: 122
@26498 Channel: 8 Note on, C4 key=60 velocity: 0
@26499 Channel: 8 Note on, A3 key=57 velocity: 0
@26499 Channel: 8 Note on, F4 key=65 velocity: 0
@26550 Channel: 8 Note on, C4 key=60 velocity: 120
@26550 Channel: 8 Note on, F4 key=65 velocity: 120
@26550 Channel: 8 Note on, A3 key=57 velocity: 120
@26554 Channel: 8 Note on, C4 key=60 velocity: 0
@26555 Channel: 8 Note on, A3 key=57 velocity: 0
@26555 Channel: 8 Note on, F4 key=65 velocity: 0
@26580 Channel: 8 Note on, F4 key=65 velocity: 120
@26580 Channel: 8 Note on, A3 key=57 velocity: 120
@26580 Channel: 8 Note on, C4 key=60 velocity: 120
@26588 Channel: 8 Note on, C4 key=60 velocity: 0
@26588 Channel: 8 Note on, A3 key=57 velocity: 0
@26589 Channel: 8 Note on, F4 key=65 velocity: 0
@26640 Channel: 8 Note on, B3 key=59 velocity: 120
@26640 Channel: 8 Note on, D4 key=62 velocity: 120
@26640 Channel: 8 Note on, G4 key=67 velocity: 120
@26649 Channel: 8 Note on, D4 key=62 velocity: 0
@26650 Channel: 8 Note on, G4 key=67 velocity: 0
@26650 Channel: 8 Note on, B3 key=59 velocity: 0
@26700 Channel: 8 Note on, G4 key=67 velocity: 120
@26700 Channel: 8 Note on, B3 key=59 velocity: 120
@26700 Channel: 8 Note on, D4 key=62 velocity: 120
@26704 Channel: 8 Note on, D4 key=62 velocity: 0
@26704 Channel: 8 Note on, B3 key=59 velocity: 0
@26705 Channel: 8 Note on, G4 key=67 velocity: 0
@26730 Channel: 8 Note on, G4 key=67 velocity: 120
@26730 Channel: 8 Note on, D4 key=62 velocity: 120
@26730 Channel: 8 Note on, B3 key=59 velocity: 120
@26739 Channel: 8 Note on, B3 key=59 velocity: 0
@26739 Channel: 8 Note on, D4 key=62 velocity: 0
@26739 Channel: 8 Note on, G4 key=67 velocity: 0
@26790 Channel: 8 Note on, G4 key=67 velocity: 119
@26790 Channel: 8 Note on, D4 key=62 velocity: 119
@26790 Channel: 8 Note on, B3 key=59 velocity: 119
@26794 Channel: 8 Note on, B3 key=59 velocity: 0
@26794 Channel: 8 Note on, D4 key=62 velocity: 0
@26794 Channel: 8 Note on, G4 key=67 velocity: 0
@26820 Channel: 8 Note on, B3 key=59 velocity: 119
@26820 Channel: 8 Note on, G4 key=67 velocity: 119
@26820 Channel: 8 Note on, D4 key=62 velocity: 119
@26820 Channel: 8 Note on, F4 key=65 velocity: 119
@26823 Channel: 8 Note on, F4 key=65 velocity: 0
@26832 Channel: 8 Note on, B3 key=59 velocity: 0
@26832 Channel: 8 Note on, G4 key=67 velocity: 0
@26832 Channel: 8 Note on, D4 key=62 velocity: 0
@26880 Channel: 8 Note on, C4 key=60 velocity: 118
@26880 Channel: 8 Note on, G3 key=55 velocity: 118
@26880 Channel: 8 Note on, E4 key=64 velocity: 118
@26893 Channel: 8 Note on, E4 key=64 velocity: 0
@26893 Channel: 8 Note on, G3 key=55 velocity: 0
@26893 Channel: 8 Note on, C4 key=60 velocity: 0
@26940 Channel: 8 Note on, E4 key=64 velocity: 118
@26940 Channel: 8 Note on, G3 key=55 velocity: 118
@26940 Channel: 8 Note on, C4 key=60 velocity: 118
@26945 Channel: 8 Note on, C4 key=60 velocity: 0
@26945 Channel: 8 Note on, G3 key=55 velocity: 0
@26945 Channel: 8 Note on, E4 key=64 velocity: 0
@26970 Channel: 8 Note on, C4 key=60 velocity: 119
@26970 Channel: 8 Note on, G3 key=55 velocity: 119
@26970 Channel: 8 Note on, E4 key=64 velocity: 119
@26983 Channel: 8 Note on, E4 key=64 velocity: 0
@26983 Channel: 8 Note on, G3 key=55 velocity: 0
@26983 Channel: 8 Note on, C4 key=60 velocity: 0
@27030 Channel: 8 Note on, G3 key=55 velocity: 119
@27030 Channel: 8 Note on, C4 key=60 velocity: 119
@27030 Channel: 8 Note on, E4 key=64 velocity: 119
@27035 Channel: 8 Note on, E4 key=64 velocity: 0
@27035 Channel: 8 Note on, C4 key=60 velocity: 0
@27035 Channel: 8 Note on, G3 key=55 velocity: 0
@27060 Channel: 8 Note on, G3 key=55 velocity: 119
@27060 Channel: 8 Note on, C4 key=60 velocity: 119
@27060 Channel: 8 Note on, E4 key=64 velocity: 119
@27073 Channel: 8 Note on, E4 key=64 velocity: 0
@27073 Channel: 8 Note on, C4 key=60 velocity: 0
@27073 Channel: 8 Note on, G3 key=55 velocity: 0
@27120 Channel: 8 Note on, F4 key=65 velocity: 119
@27120 Channel: 8 Note on, G3 key=55 velocity: 119
@27120 Channel: 8 Note on, C4 key=60 velocity: 119
@27133 Channel: 8 Note on, C4 key=60 velocity: 0
@27133 Channel: 8 Note on, G3 key=55 velocity: 0
@27133 Channel: 8 Note on, F4 key=65 velocity: 0
@27180 Channel: 8 Note on, G3 key=55 velocity: 120
@27180 Channel: 8 Note on, C4 key=60 velocity: 120
@27180 Channel: 8 Note on, F4 key=65 velocity: 120
@27185 Channel: 8 Note on, F4 key=65 velocity: 0
@27185 Channel: 8 Note on, C4 key=60 velocity: 0
@27185 Channel: 8 Note on, G3 key=55 velocity: 0
@27210 Channel: 8 Note on, F4 key=65 velocity: 120
@27210 Channel: 8 Note on, C4 key=60 velocity: 120
@27210 Channel: 8 Note on, G3 key=55 velocity: 120
@27223 Channel: 8 Note on, G3 key=55 velocity: 0
@27223 Channel: 8 Note on, C4 key=60 velocity: 0
@27223 Channel: 8 Note on, F4 key=65 velocity: 0
@27270 Channel: 8 Note on, G3 key=55 velocity: 120
@27270 Channel: 8 Note on, C4 key=60 velocity: 120
@27270 Channel: 8 Note on, F4 key=65 velocity: 120
@27275 Channel: 8 Note on, F4 key=65 velocity: 0
@27275 Channel: 8 Note on, C4 key=60 velocity: 0
@27275 Channel: 8 Note on, G3 key=55 velocity: 0
@27300 Channel: 8 Note on, F4 key=65 velocity: 120
@27300 Channel: 8 Note on, G3 key=55 velocity: 120
@27300 Channel: 8 Note on, C4 key=60 velocity: 120
@27313 Channel: 8 Note on, C4 key=60 velocity: 0
@27313 Channel: 8 Note on, G3 key=55 velocity: 0
@27313 Channel: 8 Note on, F4 key=65 velocity: 0
@27360 Channel: 8 Note on, C4 key=60 velocity: 120
@27360 Channel: 8 Note on, G3 key=55 velocity: 120
@27360 Channel: 8 Note on, E4 key=64 velocity: 120
@27373 Channel: 8 Note on, E4 key=64 velocity: 0
@27373 Channel: 8 Note on, G3 key=55 velocity: 0
@27373 Channel: 8 Note on, C4 key=60 velocity: 0
@27420 Channel: 8 Note on, E4 key=64 velocity: 120
@27420 Channel: 8 Note on, G3 key=55 velocity: 120
@27420 Channel: 8 Note on, C4 key=60 velocity: 120
@27425 Channel: 8 Note on, C4 key=60 velocity: 0
@27425 Channel: 8 Note on, G3 key=55 velocity: 0
@27425 Channel: 8 Note on, E4 key=64 velocity: 0
@27450 Channel: 8 Note on, C4 key=60 velocity: 120
@27450 Channel: 8 Note on, G3 key=55 velocity: 120
@27450 Channel: 8 Note on, E4 key=64 velocity: 120
@27463 Channel: 8 Note on, E4 key=64 velocity: 0
@27463 Channel: 8 Note on, G3 key=55 velocity: 0
@27463 Channel: 8 Note on, C4 key=60 velocity: 0
@27510 Channel: 8 Note on, G3 key=55 velocity: 120
@27510 Channel: 8 Note on, C4 key=60 velocity: 120
@27510 Channel: 8 Note on, E4 key=64 velocity: 120
@27515 Channel: 8 Note on, E4 key=64 velocity: 0
@27515 Channel: 8 Note on, C4 key=60 velocity: 0
@27515 Channel: 8 Note on, G3 key=55 velocity: 0
@27540 Channel: 8 Note on, G3 key=55 velocity: 120
@27540 Channel: 8 Note on, C4 key=60 velocity: 120
@27540 Channel: 8 Note on, E4 key=64 velocity: 120
@27553 Channel: 8 Note on, E4 key=64 velocity: 0
@27553 Channel: 8 Note on, C4 key=60 velocity: 0
@27553 Channel: 8 Note on, G3 key=55 velocity: 0
@27600 Channel: 8 Note on, F4 key=65 velocity: 120
@27600 Channel: 8 Note on, G3 key=55 velocity: 120
@27600 Channel: 8 Note on, C4 key=60 velocity: 120
@27613 Channel: 8 Note on, C4 key=60 velocity: 0
@27613 Channel: 8 Note on, G3 key=55 velocity: 0
@27613 Channel: 8 Note on, F4 key=65 velocity: 0
@27660 Channel: 8 Note on, G3 key=55 velocity: 120
@27660 Channel: 8 Note on, C4 key=60 velocity: 120
@27660 Channel: 8 Note on, F4 key=65 velocity: 120
@27665 Channel: 8 Note on, F4 key=65 velocity: 0
@27665 Channel: 8 Note on, C4 key=60 velocity: 0
@27665 Channel: 8 Note on, G3 key=55 velocity: 0
@27690 Channel: 8 Note on, F4 key=65 velocity: 120
@27690 Channel: 8 Note on, C4 key=60 velocity: 120
@27690 Channel: 8 Note on, G3 key=55 velocity: 120
@27703 Channel: 8 Note on, G3 key=55 velocity: 0
@27703 Channel: 8 Note on, C4 key=60 velocity: 0
@27703 Channel: 8 Note on, F4 key=65 velocity: 0
@27750 Channel: 8 Note on, G3 key=55 velocity: 120
@27750 Channel: 8 Note on, C4 key=60 velocity: 120
@27750 Channel: 8 Note on, F4 key=65 velocity: 120
@27755 Channel: 8 Note on, F4 key=65 velocity: 0
@27755 Channel: 8 Note on, C4 key=60 velocity: 0
@27755 Channel: 8 Note on, G3 key=55 velocity: 0
@27780 Channel: 8 Note on, F4 key=65 velocity: 120
@27780 Channel: 8 Note on, G3 key=55 velocity: 120
@27780 Channel: 8 Note on, C4 key=60 velocity: 120
@27793 Channel: 8 Note on, C4 key=60 velocity: 0
@27793 Channel: 8 Note on, G3 key=55 velocity: 0
@27793 Channel: 8 Note on, F4 key=65 velocity: 0
@27840 Channel: 8 Note on, C4 key=60 velocity: 120
@27840 Channel: 8 Note on, G3 key=55 velocity: 120
@27840 Channel: 8 Note on, E4 key=64 velocity: 120
@27853 Channel: 8 Note on, E4 key=64 velocity: 0
@27853 Channel: 8 Note on, G3 key=55 velocity: 0
@27853 Channel: 8 Note on, C4 key=60 velocity: 0
@27900 Channel: 8 Note on, E4 key=64 velocity: 120
@27900 Channel: 8 Note on, G3 key=55 velocity: 120
@27900 Channel: 8 Note on, C4 key=60 velocity: 120
@27905 Channel: 8 Note on, C4 key=60 velocity: 0
@27905 Channel: 8 Note on, G3 key=55 velocity: 0
@27905 Channel: 8 Note on, E4 key=64 velocity: 0
@27930 Channel: 8 Note on, C4 key=60 velocity: 121
@27930 Channel: 8 Note on, G3 key=55 velocity: 121
@27930 Channel: 8 Note on, E4 key=64 velocity: 121
@27943 Channel: 8 Note on, E4 key=64 velocity: 0
@27943 Channel: 8 Note on, G3 key=55 velocity: 0
@27943 Channel: 8 Note on, C4 key=60 velocity: 0
@27990 Channel: 8 Note on, G3 key=55 velocity: 121
@27990 Channel: 8 Note on, C4 key=60 velocity: 121
@27990 Channel: 8 Note on, E4 key=64 velocity: 121
@27995 Channel: 8 Note on, E4 key=64 velocity: 0
@27995 Channel: 8 Note on, C4 key=60 velocity: 0
@27995 Channel: 8 Note on, G3 key=55 velocity: 0
@28020 Channel: 8 Note on, G3 key=55 velocity: 121
@28020 Channel: 8 Note on, C4 key=60 velocity: 121
@28020 Channel: 8 Note on, E4 key=64 velocity: 121
@28033 Channel: 8 Note on, E4 key=64 velocity: 0
@28033 Channel: 8 Note on, C4 key=60 velocity: 0
@28033 Channel: 8 Note on, G3 key=55 velocity: 0
@28080 Channel: 8 Note on, F4 key=65 velocity: 121
@28080 Channel: 8 Note on, G3 key=55 velocity: 121
@28080 Channel: 8 Note on, C4 key=60 velocity: 121
@28093 Channel: 8 Note on, C4 key=60 velocity: 0
@28093 Channel: 8 Note on, G3 key=55 velocity: 0
@28093 Channel: 8 Note on, F4 key=65 velocity: 0
@28140 Channel: 8 Note on, G3 key=55 velocity: 121
@28140 Channel: 8 Note on, C4 key=60 velocity: 121
@28140 Channel: 8 Note on, F4 key=65 velocity: 121
@28145 Channel: 8 Note on, F4 key=65 velocity: 0
@28145 Channel: 8 Note on, C4 key=60 velocity: 0
@28145 Channel: 8 Note on, G3 key=55 velocity: 0
@28170 Channel: 8 Note on, F4 key=65 velocity: 121
@28170 Channel: 8 Note on, C4 key=60 velocity: 121
@28170 Channel: 8 Note on, G3 key=55 velocity: 121
@28183 Channel: 8 Note on, G3 key=55 velocity: 0
@28183 Channel: 8 Note on, C4 key=60 velocity: 0
@28183 Channel: 8 Note on, F4 key=65 velocity: 0
@28230 Channel: 8 Note on, G3 key=55 velocity: 121
@28230 Channel: 8 Note on, C4 key=60 velocity: 121
@28230 Channel: 8 Note on, F4 key=65 velocity: 121
@28235 Channel: 8 Note on, F4 key=65 velocity: 0
@28235 Channel: 8 Note on, C4 key=60 velocity: 0
@28235 Channel: 8 Note on, G3 key=55 velocity: 0
@28260 Channel: 8 Note on, F4 key=65 velocity: 121
@28260 Channel: 8 Note on, G3 key=55 velocity: 121
@28260 Channel: 8 Note on, C4 key=60 velocity: 121
@28273 Channel: 8 Note on, C4 key=60 velocity: 0
@28273 Channel: 8 Note on, G3 key=55 velocity: 0
@28273 Channel: 8 Note on, F4 key=65 velocity: 0
@28320 Channel: 8 Note on, C4 key=60 velocity: 120
@28320 Channel: 8 Note on, G3 key=55 velocity: 120
@28320 Channel: 8 Note on, E4 key=64 velocity: 120
@28333 Channel: 8 Note on, E4 key=64 velocity: 0
@28333 Channel: 8 Note on, G3 key=55 velocity: 0
@28333 Channel: 8 Note on, C4 key=60 velocity: 0
@28380 Channel: 8 Note on, E4 key=64 velocity: 120
@28380 Channel: 8 Note on, G3 key=55 velocity: 120
@28380 Channel: 8 Note on, C4 key=60 velocity: 120
@28385 Channel: 8 Note on, C4 key=60 velocity: 0
@28385 Channel: 8 Note on, G3 key=55 velocity: 0
@28385 Channel: 8 Note on, E4 key=64 velocity: 0
@28410 Channel: 8 Note on, C4 key=60 velocity: 121
@28410 Channel: 8 Note on, G3 key=55 velocity: 121
@28410 Channel: 8 Note on, E4 key=64 velocity: 121
@28423 Channel: 8 Note on, E4 key=64 velocity: 0
@28423 Channel: 8 Note on, G3 key=55 velocity: 0
@28423 Channel: 8 Note on, C4 key=60 velocity: 0
@28470 Channel: 8 Note on, G3 key=55 velocity: 121
@28470 Channel: 8 Note on, C4 key=60 velocity: 121
@28470 Channel: 8 Note on, E4 key=64 velocity: 121
@28475 Channel: 8 Note on, E4 key=64 velocity: 0
@28475 Channel: 8 Note on, C4 key=60 velocity: 0
@28475 Channel: 8 Note on, G3 key=55 velocity: 0
@28500 Channel: 8 Note on, G3 key=55 velocity: 121
@28500 Channel: 8 Note on, C4 key=60 velocity: 121
@28500 Channel: 8 Note on, E4 key=64 velocity: 121
@28513 Channel: 8 Note on, E4 key=64 velocity: 0
@28513 Channel: 8 Note on, C4 key=60 velocity: 0
@28513 Channel: 8 Note on, G3 key=55 velocity: 0
@28560 Channel: 8 Note on, F4 key=65 velocity: 121
@28560 Channel: 8 Note on, G3 key=55 velocity: 121
@28560 Channel: 8 Note on, C4 key=60 velocity: 121
@28573 Channel: 8 Note on, C4 key=60 velocity: 0
@28573 Channel: 8 Note on, G3 key=55 velocity: 0
@28573 Channel: 8 Note on, F4 key=65 velocity: 0
@28620 Channel: 8 Note on, G3 key=55 velocity: 121
@28620 Channel: 8 Note on, C4 key=60 velocity: 121
@28620 Channel: 8 Note on, F4 key=65 velocity: 121
@28625 Channel: 8 Note on, F4 key=65 velocity: 0
@28625 Channel: 8 Note on, C4 key=60 velocity: 0
@28625 Channel: 8 Note on, G3 key=55 velocity: 0
@28650 Channel: 8 Note on, F4 key=65 velocity: 121
@28650 Channel: 8 Note on, C4 key=60 velocity: 121
@28650 Channel: 8 Note on, G3 key=55 velocity: 121
@28663 Channel: 8 Note on, G3 key=55 velocity: 0
@28663 Channel: 8 Note on, C4 key=60 velocity: 0
@28663 Channel: 8 Note on, F4 key=65 velocity: 0
@28710 Channel: 8 Note on, G3 key=55 velocity: 121
@28710 Channel: 8 Note on, C4 key=60 velocity: 121
@28710 Channel: 8 Note on, F4 key=65 velocity: 121
@28715 Channel: 8 Note on, F4 key=65 velocity: 0
@28715 Channel: 8 Note on, C4 key=60 velocity: 0
@28715 Channel: 8 Note on, G3 key=55 velocity: 0
@28740 Channel: 8 Note on, F4 key=65 velocity: 121
@28740 Channel: 8 Note on, G3 key=55 velocity: 121
@28740 Channel: 8 Note on, C4 key=60 velocity: 121
@28753 Channel: 8 Note on, C4 key=60 velocity: 0
@28753 Channel: 8 Note on, G3 key=55 velocity: 0
@28753 Channel: 8 Note on, F4 key=65 velocity: 0
@30720 Channel: 8 Note on, C4 key=60 velocity: 119
@30720 Channel: 8 Note on, G3 key=55 velocity: 119
@30720 Channel: 8 Note on, E4 key=64 velocity: 119
@30733 Channel: 8 Note on, E4 key=64 velocity: 0
@30733 Channel: 8 Note on, G3 key=55 velocity: 0
@30733 Channel: 8 Note on, C4 key=60 velocity: 0
@30780 Channel: 8 Note on, E4 key=64 velocity: 120
@30780 Channel: 8 Note on, G3 key=55 velocity: 120
@30780 Channel: 8 Note on, C4 key=60 velocity: 120
@30785 Channel: 8 Note on, C4 key=60 velocity: 0
@30785 Channel: 8 Note on, G3 key=55 velocity: 0
@30785 Channel: 8 Note on, E4 key=64 velocity: 0
@30810 Channel: 8 Note on, C4 key=60 velocity: 120
@30810 Channel: 8 Note on, G3 key=55 velocity: 120
@30810 Channel: 8 Note on, E4 key=64 velocity: 120
@30823 Channel: 8 Note on, E4 key=64 velocity: 0
@30823 Channel: 8 Note on, G3 key=55 velocity: 0
@30823 Channel: 8 Note on, C4 key=60 velocity: 0
@30870 Channel: 8 Note on, G3 key=55 velocity: 120
@30870 Channel: 8 Note on, C4 key=60 velocity: 120
@30870 Channel: 8 Note on, E4 key=64 velocity: 120
@30875 Channel: 8 Note on, E4 key=64 velocity: 0
@30875 Channel: 8 Note on, C4 key=60 velocity: 0
@30875 Channel: 8 Note on, G3 key=55 velocity: 0
@30900 Channel: 8 Note on, G3 key=55 velocity: 120
@30900 Channel: 8 Note on, C4 key=60 velocity: 120
@30900 Channel: 8 Note on, E4 key=64 velocity: 120
@30913 Channel: 8 Note on, E4 key=64 velocity: 0
@30913 Channel: 8 Note on, C4 key=60 velocity: 0
@30913 Channel: 8 Note on, G3 key=55 velocity: 0
@30960 Channel: 8 Note on, F4 key=65 velocity: 120
@30960 Channel: 8 Note on, G3 key=55 velocity: 120
@30960 Channel: 8 Note on, C4 key=60 velocity: 120
@30973 Channel: 8 Note on, C4 key=60 velocity: 0
@30973 Channel: 8 Note on, G3 key=55 velocity: 0
@30973 Channel: 8 Note on, F4 key=65 velocity: 0
@31020 Channel: 8 Note on, G3 key=55 velocity: 120
@31020 Channel: 8 Note on, C4 key=60 velocity: 120
@31020 Channel: 8 Note on, F4 key=65 velocity: 120
@31025 Channel: 8 Note on, F4 key=65 velocity: 0
@31025 Channel: 8 Note on, C4 key=60 velocity: 0
@31025 Channel: 8 Note on, G3 key=55 velocity: 0
@31050 Channel: 8 Note on, F4 key=65 velocity: 120
@31050 Channel: 8 Note on, C4 key=60 velocity: 120
@31050 Channel: 8 Note on, G3 key=55 velocity: 120
@31063 Channel: 8 Note on, G3 key=55 velocity: 0
@31063 Channel: 8 Note on, C4 key=60 velocity: 0
@31063 Channel: 8 Note on, F4 key=65 velocity: 0
@31110 Channel: 8 Note on, G3 key=55 velocity: 120
@31110 Channel: 8 Note on, C4 key=60 velocity: 120
@31110 Channel: 8 Note on, F4 key=65 velocity: 120
@31115 Channel: 8 Note on, F4 key=65 velocity: 0
@31115 Channel: 8 Note on, C4 key=60 velocity: 0
@31115 Channel: 8 Note on, G3 key=55 velocity: 0
@31140 Channel: 8 Note on, F4 key=65 velocity: 120
@31140 Channel: 8 Note on, G3 key=55 velocity: 120
@31140 Channel: 8 Note on, C4 key=60 velocity: 120
@31153 Channel: 8 Note on, C4 key=60 velocity: 0
@31153 Channel: 8 Note on, G3 key=55 velocity: 0
@31153 Channel: 8 Note on, F4 key=65 velocity: 0
@31200 Channel: 8 Note on, C4 key=60 velocity: 120
@31200 Channel: 8 Note on, G3 key=55 velocity: 120
@31200 Channel: 8 Note on, E4 key=64 velocity: 120
@31213 Channel: 8 Note on, E4 key=64 velocity: 0
@31213 Channel: 8 Note on, G3 key=55 velocity: 0
@31213 Channel: 8 Note on, C4 key=60 velocity: 0
@31260 Channel: 8 Note on, E4 key=64 velocity: 120
@31260 Channel: 8 Note on, G3 key=55 velocity: 120
@31260 Channel: 8 Note on, C4 key=60 velocity: 120
@31265 Channel: 8 Note on, C4 key=60 velocity: 0
@31265 Channel: 8 Note on, G3 key=55 velocity: 0
@31265 Channel: 8 Note on, E4 key=64 velocity: 0
@31290 Channel: 8 Note on, C4 key=60 velocity: 121
@31290 Channel: 8 Note on, G3 key=55 velocity: 121
@31290 Channel: 8 Note on, E4 key=64 velocity: 121
@31303 Channel: 8 Note on, E4 key=64 velocity: 0
@31303 Channel: 8 Note on, G3 key=55 velocity: 0
@31303 Channel: 8 Note on, C4 key=60 velocity: 0
@31350 Channel: 8 Note on, G3 key=55 velocity: 121
@31350 Channel: 8 Note on, C4 key=60 velocity: 121
@31350 Channel: 8 Note on, E4 key=64 velocity: 121
@31355 Channel: 8 Note on, E4 key=64 velocity: 0
@31355 Channel: 8 Note on, C4 key=60 velocity: 0
@31355 Channel: 8 Note on, G3 key=55 velocity: 0
@31380 Channel: 8 Note on, G3 key=55 velocity: 121
@31380 Channel: 8 Note on, C4 key=60 velocity: 121
@31380 Channel: 8 Note on, E4 key=64 velocity: 121
@31393 Channel: 8 Note on, E4 key=64 velocity: 0
@31393 Channel: 8 Note on, C4 key=60 velocity: 0
@31393 Channel: 8 Note on, G3 key=55 velocity: 0
@31440 Channel: 8 Note on, F4 key=65 velocity: 121
@31440 Channel: 8 Note on, G3 key=55 velocity: 121
@31440 Channel: 8 Note on, C4 key=60 velocity: 121
@31453 Channel: 8 Note on, C4 key=60 velocity: 0
@31453 Channel: 8 Note on, G3 key=55 velocity: 0
@31453 Channel: 8 Note on, F4 key=65 velocity: 0
@31500 Channel: 8 Note on, G3 key=55 velocity: 121
@31500 Channel: 8 Note on, C4 key=60 velocity: 121
@31500 Channel: 8 Note on, F4 key=65 velocity: 121
@31505 Channel: 8 Note on, F4 key=65 velocity: 0
@31505 Channel: 8 Note on, C4 key=60 velocity: 0
@31505 Channel: 8 Note on, G3 key=55 velocity: 0
@31530 Channel: 8 Note on, F4 key=65 velocity: 121
@31530 Channel: 8 Note on, C4 key=60 velocity: 121
@31530 Channel: 8 Note on, G3 key=55 velocity: 121
@31543 Channel: 8 Note on, G3 key=55 velocity: 0
@31543 Channel: 8 Note on, C4 key=60 velocity: 0
@31543 Channel: 8 Note on, F4 key=65 velocity: 0
@31590 Channel: 8 Note on, G3 key=55 velocity: 122
@31590 Channel: 8 Note on, C4 key=60 velocity: 122
@31590 Channel: 8 Note on, F4 key=65 velocity: 122
@31595 Channel: 8 Note on, F4 key=65 velocity: 0
@31595 Channel: 8 Note on, C4 key=60 velocity: 0
@31595 Channel: 8 Note on, G3 key=55 velocity: 0
@31620 Channel: 8 Note on, F4 key=65 velocity: 122
@31620 Channel: 8 Note on, G3 key=55 velocity: 122
@31620 Channel: 8 Note on, C4 key=60 velocity: 122
@31633 Channel: 8 Note on, C4 key=60 velocity: 0
@31633 Channel: 8 Note on, G3 key=55 velocity: 0
@31633 Channel: 8 Note on, F4 key=65 velocity: 0
@31680 Channel: 8 Note on, B3 key=59 velocity: 122
@31680 Channel: 8 Note on, D4 key=62 velocity: 122
@31680 Channel: 8 Note on, G3 key=55 velocity: 122
@31693 Channel: 8 Note on, G3 key=55 velocity: 0
@31693 Channel: 8 Note on, D4 key=62 velocity: 0
@31693 Channel: 8 Note on, B3 key=59 velocity: 0
@31740 Channel: 8 Note on, G3 key=55 velocity: 122
@31740 Channel: 8 Note on, D4 key=62 velocity: 122
@31740 Channel: 8 Note on, B3 key=59 velocity: 122
@31745 Channel: 8 Note on, B3 key=59 velocity: 0
@31745 Channel: 8 Note on, D4 key=62 velocity: 0
@31745 Channel: 8 Note on, G3 key=55 velocity: 0
@31770 Channel: 8 Note on, D4 key=62 velocity: 123
@31770 Channel: 8 Note on, G3 key=55 velocity: 123
@31770 Channel: 8 Note on, B3 key=59 velocity: 123
@31783 Channel: 8 Note on, B3 key=59 velocity: 0
@31783 Channel: 8 Note on, G3 key=55 velocity: 0
@31783 Channel: 8 Note on, D4 key=62 velocity: 0
@31830 Channel: 8 Note on, D4 key=62 velocity: 123
@31830 Channel: 8 Note on, G3 key=55 velocity: 123
@31830 Channel: 8 Note on, B3 key=59 velocity: 123
@31835 Channel: 8 Note on, B3 key=59 velocity: 0
@31835 Channel: 8 Note on, G3 key=55 velocity: 0
@31835 Channel: 8 Note on, D4 key=62 velocity: 0
@31860 Channel: 8 Note on, D4 key=62 velocity: 123
@31860 Channel: 8 Note on, B3 key=59 velocity: 123
@31860 Channel: 8 Note on, G3 key=55 velocity: 123
@31873 Channel: 8 Note on, G3 key=55 velocity: 0
@31873 Channel: 8 Note on, B3 key=59 velocity: 0
@31873 Channel: 8 Note on, D4 key=62 velocity: 0
@31920 Channel: 8 Note on, D4 key=62 velocity: 123
@31920 Channel: 8 Note on, G3 key=55 velocity: 123
@31920 Channel: 8 Note on, C4 key=60 velocity: 123
@31933 Channel: 8 Note on, C4 key=60 velocity: 0
@31933 Channel: 8 Note on, G3 key=55 velocity: 0
@31933 Channel: 8 Note on, D4 key=62 velocity: 0
@31980 Channel: 8 Note on, D4 key=62 velocity: 123
@31980 Channel: 8 Note on, G3 key=55 velocity: 123
@31980 Channel: 8 Note on, C4 key=60 velocity: 123
@31985 Channel: 8 Note on, C4 key=60 velocity: 0
@31985 Channel: 8 Note on, G3 key=55 velocity: 0
@31985 Channel: 8 Note on, D4 key=62 velocity: 0
@32010 Channel: 8 Note on, G3 key=55 velocity: 123
@32010 Channel: 8 Note on, C4 key=60 velocity: 123
@32010 Channel: 8 Note on, D4 key=62 velocity: 123
@32023 Channel: 8 Note on, D4 key=62 velocity: 0
@32023 Channel: 8 Note on, C4 key=60 velocity: 0
@32023 Channel: 8 Note on, G3 key=55 velocity: 0
@32070 Channel: 8 Note on, D4 key=62 velocity: 123
@32070 Channel: 8 Note on, G3 key=55 velocity: 123
@32070 Channel: 8 Note on, C4 key=60 velocity: 123
@32075 Channel: 8 Note on, C4 key=60 velocity: 0
@32075 Channel: 8 Note on, G3 key=55 velocity: 0
@32075 Channel: 8 Note on, D4 key=62 velocity: 0
@32100 Channel: 8 Note on, C4 key=60 velocity: 123
@32100 Channel: 8 Note on, D4 key=62 velocity: 123
@32100 Channel: 8 Note on, G3 key=55 velocity: 123
@32113 Channel: 8 Note on, G3 key=55 velocity: 0
@32113 Channel: 8 Note on, D4 key=62 velocity: 0
@32113 Channel: 8 Note on, C4 key=60 velocity: 0
@32160 Channel: 8 Note on, B3 key=59 velocity: 122
@32160 Channel: 8 Note on, D4 key=62 velocity: 122
@32160 Channel: 8 Note on, G3 key=55 velocity: 122
@32173 Channel: 8 Note on, G3 key=55 velocity: 0
@32173 Channel: 8 Note on, D4 key=62 velocity: 0
@32173 Channel: 8 Note on, B3 key=59 velocity: 0
@32220 Channel: 8 Note on, D4 key=62 velocity: 122
@32220 Channel: 8 Note on, G3 key=55 velocity: 122
@32220 Channel: 8 Note on, B3 key=59 velocity: 122
@32225 Channel: 8 Note on, B3 key=59 velocity: 0
@32225 Channel: 8 Note on, G3 key=55 velocity: 0
@32225 Channel: 8 Note on, D4 key=62 velocity: 0
@32250 Channel: 8 Note on, D4 key=62 velocity: 122
@32250 Channel: 8 Note on, G3 key=55 velocity: 122
@32250 Channel: 8 Note on, B3 key=59 velocity: 122
@32263 Channel: 8 Note on, B3 key=59 velocity: 0
@32263 Channel: 8 Note on, G3 key=55 velocity: 0
@32263 Channel: 8 Note on, D4 key=62 velocity: 0
@32310 Channel: 8 Note on, G3 key=55 velocity: 121
@32310 Channel: 8 Note on, D4 key=62 velocity: 121
@32310 Channel: 8 Note on, B3 key=59 velocity: 121
@32315 Channel: 8 Note on, B3 key=59 velocity: 0
@32315 Channel: 8 Note on, D4 key=62 velocity: 0
@32315 Channel: 8 Note on, G3 key=55 velocity: 0
@32340 Channel: 8 Note on, B3 key=59 velocity: 121
@32340 Channel: 8 Note on, D4 key=62 velocity: 121
@32340 Channel: 8 Note on, G3 key=55 velocity: 121
@32353 Channel: 8 Note on, G3 key=55 velocity: 0
@32353 Channel: 8 Note on, D4 key=62 velocity: 0
@32353 Channel: 8 Note on, B3 key=59 velocity: 0
@32400 Channel: 8 Note on, C4 key=60 velocity: 121
@32400 Channel: 8 Note on, G3 key=55 velocity: 121
@32400 Channel: 8 Note on, D4 key=62 velocity: 121
@32413 Channel: 8 Note on, D4 key=62 velocity: 0
@32413 Channel: 8 Note on, G3 key=55 velocity: 0
@32413 Channel: 8 Note on, C4 key=60 velocity: 0
@32460 Channel: 8 Note on, C4 key=60 velocity: 121
@32460 Channel: 8 Note on, D4 key=62 velocity: 121
@32460 Channel: 8 Note on, G3 key=55 velocity: 121
@32465 Channel: 8 Note on, G3 key=55 velocity: 0
@32465 Channel: 8 Note on, D4 key=62 velocity: 0
@32465 Channel: 8 Note on, C4 key=60 velocity: 0
@32490 Channel: 8 Note on, G3 key=55 velocity: 121
@32490 Channel: 8 Note on, D4 key=62 velocity: 121
@32490 Channel: 8 Note on, C4 key=60 velocity: 121
@32503 Channel: 8 Note on, C4 key=60 velocity: 0
@32503 Channel: 8 Note on, D4 key=62 velocity: 0
@32503 Channel: 8 Note on, G3 key=55 velocity: 0
@32550 Channel: 8 Note on, G3 key=55 velocity: 120
@32550 Channel: 8 Note on, D4 key=62 velocity: 120
@32550 Channel: 8 Note on, C4 key=60 velocity: 120
@32555 Channel: 8 Note on, C4 key=60 velocity: 0
@32555 Channel: 8 Note on, D4 key=62 velocity: 0
@32555 Channel: 8 Note on, G3 key=55 velocity: 0
@32580 Channel: 8 Note on, D4 key=62 velocity: 120
@32580 Channel: 8 Note on, C4 key=60 velocity: 120
@32580 Channel: 8 Note on, G3 key=55 velocity: 120
@32593 Channel: 8 Note on, G3 key=55 velocity: 0
@32593 Channel: 8 Note on, C4 key=60 velocity: 0
@32593 Channel: 8 Note on, D4 key=62 velocity: 0
@32640 Channel: 8 Note on, C4 key=60 velocity: 120
@32640 Channel: 8 Note on, A3 key=57 velocity: 120
@32640 Channel: 8 Note on, F4 key=65 velocity: 120
@32653 Channel: 8 Note on, F4 key=65 velocity: 0
@32653 Channel: 8 Note on, A3 key=57 velocity: 0
@32653 Channel: 8 Note on, C4 key=60 velocity: 0
@32700 Channel: 8 Note on, C4 key=60 velocity: 120
@32700 Channel: 8 Note on, F4 key=65 velocity: 120
@32700 Channel: 8 Note on, A3 key=57 velocity: 120
@32705 Channel: 8 Note on, A3 key=57 velocity: 0
@32705 Channel: 8 Note on, F4 key=65 velocity: 0
@32705 Channel: 8 Note on, C4 key=60 velocity: 0
@32730 Channel: 8 Note on, F4 key=65 velocity: 120
@32730 Channel: 8 Note on, A3 key=57 velocity: 120
@32730 Channel: 8 Note on, C4 key=60 velocity: 120
@32743 Channel: 8 Note on, C4 key=60 velocity: 0
@32743 Channel: 8 Note on, A3 key=57 velocity: 0
@32743 Channel: 8 Note on, F4 key=65 velocity: 0
@32790 Channel: 8 Note on, F4 key=65 velocity: 120
@32790 Channel: 8 Note on, C4 key=60 velocity: 120
@32790 Channel: 8 Note on, A3 key=57 velocity: 120
@32795 Channel: 8 Note on, A3 key=57 velocity: 0
@32795 Channel: 8 Note on, C4 key=60 velocity: 0
@32795 Channel: 8 Note on, F4 key=65 velocity: 0
@32820 Channel: 8 Note on, C4 key=60 velocity: 120
@32820 Channel: 8 Note on, A3 key=57 velocity: 120
@32820 Channel: 8 Note on, F4 key=65 velocity: 120
@32833 Channel: 8 Note on, F4 key=65 velocity: 0
@32833 Channel: 8 Note on, A3 key=57 velocity: 0
@32833 Channel: 8 Note on, C4 key=60 velocity: 0
@32880 Channel: 8 Note on, G3 key=55 velocity: 120
@32880 Channel: 8 Note on, C4 key=60 velocity: 120
@32880 Channel: 8 Note on, F4 key=65 velocity: 120
@32893 Channel: 8 Note on, F4 key=65 velocity: 0
@32893 Channel: 8 Note on, C4 key=60 velocity: 0
@32893 Channel: 8 Note on, G3 key=55 velocity: 0
@32940 Channel: 8 Note on, G3 key=55 velocity: 120
@32940 Channel: 8 Note on, C4 key=60 velocity: 120
@32940 Channel: 8 Note on, F4 key=65 velocity: 120
@32945 Channel: 8 Note on, F4 key=65 velocity: 0
@32945 Channel: 8 Note on, C4 key=60 velocity: 0
@32945 Channel: 8 Note on, G3 key=55 velocity: 0
@32970 Channel: 8 Note on, G3 key=55 velocity: 120
@32970 Channel: 8 Note on, C4 key=60 velocity: 120
@32970 Channel: 8 Note on, F4 key=65 velocity: 120
@32983 Channel: 8 Note on, F4 key=65 velocity: 0
@32983 Channel: 8 Note on, C4 key=60 velocity: 0
@32983 Channel: 8 Note on, G3 key=55 velocity: 0
@33030 Channel: 8 Note on, G3 key=55 velocity: 120
@33030 Channel: 8 Note on, F4 key=65 velocity: 120
@33030 Channel: 8 Note on, C4 key=60 velocity: 120
@33035 Channel: 8 Note on, C4 key=60 velocity: 0
@33035 Channel: 8 Note on, F4 key=65 velocity: 0
@33035 Channel: 8 Note on, G3 key=55 velocity: 0
@33060 Channel: 8 Note on, G3 key=55 velocity: 120
@33060 Channel: 8 Note on, C4 key=60 velocity: 120
@33060 Channel: 8 Note on, F4 key=65 velocity: 120
@33073 Channel: 8 Note on, F4 key=65 velocity: 0
@33073 Channel: 8 Note on, C4 key=60 velocity: 0
@33073 Channel: 8 Note on, G3 key=55 velocity: 0
@33120 Channel: 8 Note on, A3 key=57 velocity: 120
@33120 Channel: 8 Note on, C4 key=60 velocity: 120
@33120 Channel: 8 Note on, E4 key=64 velocity: 120
@33129 Channel: 8 Note on, E4 key=64 velocity: 0
@33130 Channel: 8 Note on, C4 key=60 velocity: 0
@33130 Channel: 8 Note on, A3 key=57 velocity: 0
@33180 Channel: 8 Note on, C4 key=60 velocity: 120
@33180 Channel: 8 Note on, A3 key=57 velocity: 120
@33180 Channel: 8 Note on, E4 key=64 velocity: 120
@33184 Channel: 8 Note on, E4 key=64 velocity: 0
@33184 Channel: 8 Note on, C4 key=60 velocity: 0
@33185 Channel: 8 Note on, A3 key=57 velocity: 0
@33210 Channel: 8 Note on, C4 key=60 velocity: 120
@33210 Channel: 8 Note on, A3 key=57 velocity: 120
@33210 Channel: 8 Note on, E4 key=64 velocity: 120
@33219 Channel: 8 Note on, E4 key=64 velocity: 0
@33220 Channel: 8 Note on, A3 key=57 velocity: 0
@33220 Channel: 8 Note on, C4 key=60 velocity: 0
@33270 Channel: 8 Note on, C4 key=60 velocity: 120
@33270 Channel: 8 Note on, A3 key=57 velocity: 120
@33270 Channel: 8 Note on, E4 key=64 velocity: 120
@33274 Channel: 8 Note on, E4 key=64 velocity: 0
@33274 Channel: 8 Note on, C4 key=60 velocity: 0
@33275 Channel: 8 Note on, A3 key=57 velocity: 0
@33300 Channel: 8 Note on, A3 key=57 velocity: 120
@33300 Channel: 8 Note on, C4 key=60 velocity: 120
@33300 Channel: 8 Note on, E4 key=64 velocity: 120
@33309 Channel: 8 Note on, E4 key=64 velocity: 0
@33309 Channel: 8 Note on, C4 key=60 velocity: 0
@33310 Channel: 8 Note on, A3 key=57 velocity: 0
@33360 Channel: 8 Note on, A3 key=57 velocity: 120
@33360 Channel: 8 Note on, E4 key=64 velocity: 120
@33360 Channel: 8 Note on, B3 key=59 velocity: 120
@33370 Channel: 8 Note on, E4 key=64 velocity: 0
@33371 Channel: 8 Note on, B3 key=59 velocity: 0
@33371 Channel: 8 Note on, A3 key=57 velocity: 0
@33420 Channel: 8 Note on, B3 key=59 velocity: 120
@33420 Channel: 8 Note on, A3 key=57 velocity: 120
@33420 Channel: 8 Note on, E4 key=64 velocity: 120
@33423 Channel: 8 Note on, E4 key=64 velocity: 0
@33425 Channel: 8 Note on, A3 key=57 velocity: 0
@33425 Channel: 8 Note on, B3 key=59 velocity: 0
@33450 Channel: 8 Note on, B3 key=59 velocity: 120
@33450 Channel: 8 Note on, A3 key=57 velocity: 120
@33450 Channel: 8 Note on, E4 key=64 velocity: 120
@33458 Channel: 8 Note on, E4 key=64 velocity: 0
@33459 Channel: 8 Note on, A3 key=57 velocity: 0
@33459 Channel: 8 Note on, B3 key=59 velocity: 0
@33510 Channel: 8 Note on, B3 key=59 velocity: 121
@33510 Channel: 8 Note on, A3 key=57 velocity: 121
@33514 Channel: 8 Note on, B3 key=59 velocity: 0
@33515 Channel: 8 Note on, A3 key=57 velocity: 0
@33540 Channel: 8 Note on, A3 key=57 velocity: 121
@33540 Channel: 8 Note on, E4 key=64 velocity: 121
@33540 Channel: 8 Note on, C4 key=60 velocity: 121
@33549 Channel: 8 Note on, C4 key=60 velocity: 0
@33549 Channel: 8 Note on, E4 key=64 velocity: 0
@33550 Channel: 8 Note on, A3 key=57 velocity: 0
@33600 Channel: 8 Note on, C4 key=60 velocity: 121
@33600 Channel: 8 Note on, D4 key=62 velocity: 121
@33600 Channel: 8 Note on, G3 key=55 velocity: 121
@33609 Channel: 8 Note on, G3 key=55 velocity: 0
@33609 Channel: 8 Note on, D4 key=62 velocity: 0
@33610 Channel: 8 Note on, C4 key=60 velocity: 0
@33660 Channel: 8 Note on, C4 key=60 velocity: 122
@33660 Channel: 8 Note on, G3 key=55 velocity: 122
@33660 Channel: 8 Note on, D4 key=62 velocity: 122
@33664 Channel: 8 Note on, D4 key=62 velocity: 0
@33664 Channel: 8 Note on, C4 key=60 velocity: 0
@33665 Channel: 8 Note on, G3 key=55 velocity: 0
@33690 Channel: 8 Note on, G3 key=55 velocity: 122
@33690 Channel: 8 Note on, C4 key=60 velocity: 122
@33690 Channel: 8 Note on, D4 key=62 velocity: 122
@33699 Channel: 8 Note on, D4 key=62 velocity: 0
@33699 Channel: 8 Note on, C4 key=60 velocity: 0
@33699 Channel: 8 Note on, G3 key=55 velocity: 0
@33750 Channel: 8 Note on, C4 key=60 velocity: 122
@33750 Channel: 8 Note on, G3 key=55 velocity: 122
@33750 Channel: 8 Note on, D4 key=62 velocity: 122
@33754 Channel: 8 Note on, C4 key=60 velocity: 0
@33755 Channel: 8 Note on, G3 key=55 velocity: 0
@33756 Channel: 8 Note on, D4 key=62 velocity: 0
@33780 Channel: 8 Note on, C4 key=60 velocity: 122
@33780 Channel: 8 Note on, D4 key=62 velocity: 122
@33780 Channel: 8 Note on, G3 key=55 velocity: 122
@33789 Channel: 8 Note on, G3 key=55 velocity: 0
@33789 Channel: 8 Note on, C4 key=60 velocity: 0
@33790 Channel: 8 Note on, D4 key=62 velocity: 0
@33840 Channel: 8 Note on, D4 key=62 velocity: 121
@33840 Channel: 8 Note on, B3 key=59 velocity: 121
@33840 Channel: 8 Note on, G3 key=55 velocity: 121
@33849 Channel: 8 Note on, B3 key=59 velocity: 0
@33850 Channel: 8 Note on, G3 key=55 velocity: 0
@33850 Channel: 8 Note on, D4 key=62 velocity: 0
@33900 Channel: 8 Note on, D4 key=62 velocity: 121
@33900 Channel: 8 Note on, B3 key=59 velocity: 121
@33900 Channel: 8 Note on, G3 key=55 velocity: 121
@33904 Channel: 8 Note on, B3 key=59 velocity: 0
@33905 Channel: 8 Note on, G3 key=55 velocity: 0
@33905 Channel: 8 Note on, D4 key=62 velocity: 0
@33930 Channel: 8 Note on, D4 key=62 velocity: 121
@33930 Channel: 8 Note on, G3 key=55 velocity: 121
@33930 Channel: 8 Note on, B3 key=59 velocity: 121
@33938 Channel: 8 Note on, B3 key=59 velocity: 0
@33939 Channel: 8 Note on, D4 key=62 velocity: 0
@33940 Channel: 8 Note on, G3 key=55 velocity: 0
@33990 Channel: 8 Note on, B3 key=59 velocity: 120
@33990 Channel: 8 Note on, D4 key=62 velocity: 120
@33990 Channel: 8 Note on, G3 key=55 velocity: 120
@33994 Channel: 8 Note on, G3 key=55 velocity: 0
@33994 Channel: 8 Note on, D4 key=62 velocity: 0
@33994 Channel: 8 Note on, B3 key=59 velocity: 0
@34020 Channel: 8 Note on, B3 key=59 velocity: 120
@34020 Channel: 8 Note on, D4 key=62 velocity: 120
@34020 Channel: 8 Note on, G3 key=55 velocity: 120
@34027 Channel: 8 Note on, G3 key=55 velocity: 0
@34027 Channel: 8 Note on, D4 key=62 velocity: 0
@34027 Channel: 8 Note on, B3 key=59 velocity: 0
@34080 Channel: 8 Note on, G3 key=55 velocity: 120
@34080 Channel: 8 Note on, B3 key=59 velocity: 120
@34080 Channel: 8 Note on, F4 key=65 velocity: 120
@34089 Channel: 8 Note on, F4 key=65 velocity: 0
@34089 Channel: 8 Note on, B3 key=59 velocity: 0
@34090 Channel: 8 Note on, G3 key=55 velocity: 0
@34140 Channel: 8 Note on, B3 key=59 velocity: 120
@34140 Channel: 8 Note on, F4 key=65 velocity: 120
@34140 Channel: 8 Note on, G3 key=55 velocity: 120
@34144 Channel: 8 Note on, B3 key=59 velocity: 0
@34145 Channel: 8 Note on, G3 key=55 velocity: 0
@34145 Channel: 8 Note on, F4 key=65 velocity: 0
@34170 Channel: 8 Note on, F4 key=65 velocity: 120
@34170 Channel: 8 Note on, G3 key=55 velocity: 120
@34170 Channel: 8 Note on, B3 key=59 velocity: 120
@34178 Channel: 8 Note on, B3 key=59 velocity: 0
@34179 Channel: 8 Note on, G3 key=55 velocity: 0
@34179 Channel: 8 Note on, F4 key=65 velocity: 0
@34230 Channel: 8 Note on, F4 key=65 velocity: 120
@34230 Channel: 8 Note on, G3 key=55 velocity: 120
@34230 Channel: 8 Note on, B3 key=59 velocity: 120
@34234 Channel: 8 Note on, B3 key=59 velocity: 0
@34235 Channel: 8 Note on, G3 key=55 velocity: 0
@34247 Channel: 8 Note on, F4 key=65 velocity: 0
@34260 Channel: 8 Note on, G3 key=55 velocity: 120
@34260 Channel: 8 Note on, B3 key=59 velocity: 120
@34269 Channel: 8 Note on, B3 key=59 velocity: 0
@34270 Channel: 8 Note on, G3 key=55 velocity: 0
@34320 Channel: 8 Note on, D4 key=62 velocity: 120
@34320 Channel: 8 Note on, G3 key=55 velocity: 120
@34320 Channel: 8 Note on, B3 key=59 velocity: 120
@34329 Channel: 8 Note on, B3 key=59 velocity: 0
@34330 Channel: 8 Note on, G3 key=55 velocity: 0
@34330 Channel: 8 Note on, D4 key=62 velocity: 0
@34380 Channel: 8 Note on, G3 key=55 velocity: 120
@34380 Channel: 8 Note on, B3 key=59 velocity: 120
@34380 Channel: 8 Note on, D4 key=62 velocity: 120
@34384 Channel: 8 Note on, D4 key=62 velocity: 0
@34384 Channel: 8 Note on, B3 key=59 velocity: 0
@34385 Channel: 8 Note on, G3 key=55 velocity: 0
@34410 Channel: 8 Note on, G3 key=55 velocity: 120
@34410 Channel: 8 Note on, B3 key=59 velocity: 120
@34410 Channel: 8 Note on, D4 key=62 velocity: 120
@34417 Channel: 8 Note on, D4 key=62 velocity: 0
@34419 Channel: 8 Note on, B3 key=59 velocity: 0
@34420 Channel: 8 Note on, G3 key=55 velocity: 0
@34470 Channel: 8 Note on, G3 key=55 velocity: 121
@34470 Channel: 8 Note on, B3 key=59 velocity: 121
@34470 Channel: 8 Note on, D4 key=62 velocity: 121
@34474 Channel: 8 Note on, D4 key=62 velocity: 0
@34474 Channel: 8 Note on, B3 key=59 velocity: 0
@34475 Channel: 8 Note on, G3 key=55 velocity: 0
@34500 Channel: 8 Note on, G3 key=55 velocity: 121
@34500 Channel: 8 Note on, B3 key=59 velocity: 121
@34500 Channel: 8 Note on, D4 key=62 velocity: 121
@34509 Channel: 8 Note on, D4 key=62 velocity: 0
@34510 Channel: 8 Note on, B3 key=59 velocity: 0
@34510 Channel: 8 Note on, G3 key=55 velocity: 0
@34560 Channel: 8 Note on, C4 key=60 velocity: 121
@34560 Channel: 8 Note on, E4 key=64 velocity: 121
@34560 Channel: 8 Note on, G3 key=55 velocity: 121
@34560 Channel: 8 Note on, E4 key=64 velocity: 121
@34560 Channel: 8 Note on, C4 key=60 velocity: 121
@34560 Channel: 8 Note on, G3 key=55 velocity: 121
@34570 Channel: 8 Note on, C4 key=60 velocity: 0
@34570 Channel: 8 Note on, E4 key=64 velocity: 0
@34570 Channel: 8 Note on, G3 key=55 velocity: 0
@34572 Channel: 8 Note on, C4 key=60 velocity: 0
@34572 Channel: 8 Note on, G3 key=55 velocity: 0
@34572 Channel: 8 Note on, E4 key=64 velocity: 0
@34620 Channel: 8 Note on, G3 key=55 velocity: 121
@34620 Channel: 8 Note on, E4 key=64 velocity: 121
@34620 Channel: 8 Note on, C4 key=60 velocity: 121
@34624 Channel: 8 Note on, C4 key=60 velocity: 0
@34624 Channel: 8 Note on, E4 key=64 velocity: 0
@34625 Channel: 8 Note on, G3 key=55 velocity: 0
@34650 Channel: 8 Note on, G3 key=55 velocity: 121
@34650 Channel: 8 Note on, E4 key=64 velocity: 121
@34650 Channel: 8 Note on, C4 key=60 velocity: 121
@34659 Channel: 8 Note on, C4 key=60 velocity: 0
@34661 Channel: 8 Note on, E4 key=64 velocity: 0
@34661 Channel: 8 Note on, G3 key=55 velocity: 0
@34710 Channel: 8 Note on, C4 key=60 velocity: 121
@34710 Channel: 8 Note on, E4 key=64 velocity: 121
@34710 Channel: 8 Note on, G3 key=55 velocity: 121
@34714 Channel: 8 Note on, G3 key=55 velocity: 0
@34714 Channel: 8 Note on, E4 key=64 velocity: 0
@34714 Channel: 8 Note on, C4 key=60 velocity: 0
@34740 Channel: 8 Note on, E4 key=64 velocity: 121
@34740 Channel: 8 Note on, C4 key=60 velocity: 121
@34740 Channel: 8 Note on, G3 key=55 velocity: 121
@34751 Channel: 8 Note on, G3 key=55 velocity: 0
@34751 Channel: 8 Note on, C4 key=60 velocity: 0
@34751 Channel: 8 Note on, E4 key=64 velocity: 0
@34800 Channel: 8 Note on, F4 key=65 velocity: 121
@34800 Channel: 8 Note on, C4 key=60 velocity: 121
@34800 Channel: 8 Note on, G3 key=55 velocity: 121
@34811 Channel: 8 Note on, G3 key=55 velocity: 0
@34811 Channel: 8 Note on, C4 key=60 velocity: 0
@34811 Channel: 8 Note on, F4 key=65 velocity: 0
@34860 Channel: 8 Note on, F4 key=65 velocity: 121
@34860 Channel: 8 Note on, C4 key=60 velocity: 121
@34860 Channel: 8 Note on, G3 key=55 velocity: 121
@34864 Channel: 8 Note on, G3 key=55 velocity: 0
@34864 Channel: 8 Note on, C4 key=60 velocity: 0
@34865 Channel: 8 Note on, F4 key=65 velocity: 0
@34890 Channel: 8 Note on, F4 key=65 velocity: 121
@34890 Channel: 8 Note on, C4 key=60 velocity: 121
@34890 Channel: 8 Note on, G3 key=55 velocity: 121
@34901 Channel: 8 Note on, G3 key=55 velocity: 0
@34901 Channel: 8 Note on, C4 key=60 velocity: 0
@34901 Channel: 8 Note on, F4 key=65 velocity: 0
@34950 Channel: 8 Note on, G3 key=55 velocity: 121
@34950 Channel: 8 Note on, C4 key=60 velocity: 121
@34950 Channel: 8 Note on, F4 key=65 velocity: 121
@34955 Channel: 8 Note on, F4 key=65 velocity: 0
@34955 Channel: 8 Note on, C4 key=60 velocity: 0
@34955 Channel: 8 Note on, G3 key=55 velocity: 0
@34980 Channel: 8 Note on, F4 key=65 velocity: 121
@34980 Channel: 8 Note on, G3 key=55 velocity: 121
@34980 Channel: 8 Note on, C4 key=60 velocity: 121
@34992 Channel: 8 Note on, C4 key=60 velocity: 0
@34992 Channel: 8 Note on, G3 key=55 velocity: 0
@34993 Channel: 8 Note on, F4 key=65 velocity: 0
@35040 Channel: 8 Note on, C4 key=60 velocity: 121
@35040 Channel: 8 Note on, E4 key=64 velocity: 121
@35040 Channel: 8 Note on, G3 key=55 velocity: 121
@35049 Channel: 8 Note on, G3 key=55 velocity: 0
@35049 Channel: 8 Note on, E4 key=64 velocity: 0
@35049 Channel: 8 Note on, C4 key=60 velocity: 0
@35100 Channel: 8 Note on, C4 key=60 velocity: 120
@35100 Channel: 8 Note on, E4 key=64 velocity: 120
@35100 Channel: 8 Note on, G3 key=55 velocity: 120
@35105 Channel: 8 Note on, G3 key=55 velocity: 0
@35105 Channel: 8 Note on, E4 key=64 velocity: 0
@35105 Channel: 8 Note on, C4 key=60 velocity: 0
@35130 Channel: 8 Note on, E4 key=64 velocity: 120
@35130 Channel: 8 Note on, G3 key=55 velocity: 120
@35130 Channel: 8 Note on, C4 key=60 velocity: 120
@35139 Channel: 8 Note on, C4 key=60 velocity: 0
@35140 Channel: 8 Note on, G3 key=55 velocity: 0
@35140 Channel: 8 Note on, E4 key=64 velocity: 0
@35190 Channel: 8 Note on, G3 key=55 velocity: 120
@35190 Channel: 8 Note on, E4 key=64 velocity: 120
@35190 Channel: 8 Note on, C4 key=60 velocity: 120
@35195 Channel: 8 Note on, C4 key=60 velocity: 0
@35195 Channel: 8 Note on, E4 key=64 velocity: 0
@35195 Channel: 8 Note on, G3 key=55 velocity: 0
@35220 Channel: 8 Note on, E4 key=64 velocity: 120
@35220 Channel: 8 Note on, G3 key=55 velocity: 120
@35220 Channel: 8 Note on, C4 key=60 velocity: 120
@35230 Channel: 8 Note on, C4 key=60 velocity: 0
@35230 Channel: 8 Note on, G3 key=55 velocity: 0
@35230 Channel: 8 Note on, E4 key=64 velocity: 0
@35280 Channel: 8 Note on, C4 key=60 velocity: 120
@35280 Channel: 8 Note on, G3 key=55 velocity: 120
@35280 Channel: 8 Note on, F4 key=65 velocity: 120
@35290 Channel: 8 Note on, F4 key=65 velocity: 0
@35290 Channel: 8 Note on, G3 key=55 velocity: 0
@35290 Channel: 8 Note on, C4 key=60 velocity: 0
@35340 Channel: 8 Note on, C4 key=60 velocity: 122
@35340 Channel: 8 Note on, F4 key=65 velocity: 122
@35340 Channel: 8 Note on, G3 key=55 velocity: 122
@35345 Channel: 8 Note on, G3 key=55 velocity: 0
@35345 Channel: 8 Note on, F4 key=65 velocity: 0
@35345 Channel: 8 Note on, C4 key=60 velocity: 0
@35370 Channel: 8 Note on, F4 key=65 velocity: 120
@35370 Channel: 8 Note on, C4 key=60 velocity: 120
@35370 Channel: 8 Note on, G3 key=55 velocity: 120
@35379 Channel: 8 Note on, C4 key=60 velocity: 0
@35379 Channel: 8 Note on, F4 key=65 velocity: 0
@35380 Channel: 8 Note on, G3 key=55 velocity: 0
@35430 Channel: 8 Note on, F4 key=65 velocity: 120
@35430 Channel: 8 Note on, C4 key=60 velocity: 120
@35430 Channel: 8 Note on, G3 key=55 velocity: 120
@35434 Channel: 8 Note on, G3 key=55 velocity: 0
@35434 Channel: 8 Note on, C4 key=60 velocity: 0
@35435 Channel: 8 Note on, F4 key=65 velocity: 0
@35460 Channel: 8 Note on, F4 key=65 velocity: 119
@35460 Channel: 8 Note on, G3 key=55 velocity: 119
@35460 Channel: 8 Note on, C4 key=60 velocity: 119
@35469 Channel: 8 Note on, F4 key=65 velocity: 0
@35470 Channel: 8 Note on, C4 key=60 velocity: 0
@35470 Channel: 8 Note on, G3 key=55 velocity: 0
@35520 Channel: 8 Note on, C4 key=60 velocity: 119
@35520 Channel: 8 Note on, E4 key=64 velocity: 119
@35520 Channel: 8 Note on, A3 key=57 velocity: 119
@35530 Channel: 8 Note on, A3 key=57 velocity: 0
@35530 Channel: 8 Note on, E4 key=64 velocity: 0
@35531 Channel: 8 Note on, C4 key=60 velocity: 0
@35580 Channel: 8 Note on, A3 key=57 velocity: 119
@35580 Channel: 8 Note on, C4 key=60 velocity: 119
@35580 Channel: 8 Note on, E4 key=64 velocity: 119
@35585 Channel: 8 Note on, E4 key=64 velocity: 0
@35585 Channel: 8 Note on, C4 key=60 velocity: 0
@35586 Channel: 8 Note on, A3 key=57 velocity: 0
@35610 Channel: 8 Note on, A3 key=57 velocity: 119
@35610 Channel: 8 Note on, E4 key=64 velocity: 119
@35610 Channel: 8 Note on, C4 key=60 velocity: 119
@35619 Channel: 8 Note on, C4 key=60 velocity: 0
@35620 Channel: 8 Note on, E4 key=64 velocity: 0
@35620 Channel: 8 Note on, A3 key=57 velocity: 0
@35670 Channel: 8 Note on, C4 key=60 velocity: 118
@35670 Channel: 8 Note on, A3 key=57 velocity: 118
@35670 Channel: 8 Note on, E4 key=64 velocity: 118
@35674 Channel: 8 Note on, E4 key=64 velocity: 0
@35674 Channel: 8 Note on, A3 key=57 velocity: 0
@35674 Channel: 8 Note on, C4 key=60 velocity: 0
@35700 Channel: 8 Note on, A3 key=57 velocity: 118
@35700 Channel: 8 Note on, C4 key=60 velocity: 118
@35700 Channel: 8 Note on, E4 key=64 velocity: 118
@35710 Channel: 8 Note on, E4 key=64 velocity: 0
@35710 Channel: 8 Note on, C4 key=60 velocity: 0
@35710 Channel: 8 Note on, A3 key=57 velocity: 0
@35760 Channel: 8 Note on, A3 key=57 velocity: 119
@35760 Channel: 8 Note on, C4 key=60 velocity: 119
@35760 Channel: 8 Note on, E4 key=64 velocity: 119
@35770 Channel: 8 Note on, E4 key=64 velocity: 0
@35770 Channel: 8 Note on, C4 key=60 velocity: 0
@35770 Channel: 8 Note on, A3 key=57 velocity: 0
@35820 Channel: 8 Note on, A3 key=57 velocity: 119
@35820 Channel: 8 Note on, E4 key=64 velocity: 119
@35820 Channel: 8 Note on, C4 key=60 velocity: 119
@35824 Channel: 8 Note on, C4 key=60 velocity: 0
@35825 Channel: 8 Note on, E4 key=64 velocity: 0
@35825 Channel: 8 Note on, A3 key=57 velocity: 0
@35850 Channel: 8 Note on, A3 key=57 velocity: 119
@35850 Channel: 8 Note on, C4 key=60 velocity: 119
@35850 Channel: 8 Note on, E4 key=64 velocity: 119
@35859 Channel: 8 Note on, E4 key=64 velocity: 0
@35859 Channel: 8 Note on, C4 key=60 velocity: 0
@35860 Channel: 8 Note on, A3 key=57 velocity: 0
@35910 Channel: 8 Note on, A3 key=57 velocity: 120
@35910 Channel: 8 Note on, C4 key=60 velocity: 120
@35910 Channel: 8 Note on, E4 key=64 velocity: 120
@35914 Channel: 8 Note on, E4 key=64 velocity: 0
@35914 Channel: 8 Note on, C4 key=60 velocity: 0
@35914 Channel: 8 Note on, A3 key=57 velocity: 0
@35940 Channel: 8 Note on, A3 key=57 velocity: 120
@35940 Channel: 8 Note on, E4 key=64 velocity: 120
@35940 Channel: 8 Note on, C4 key=60 velocity: 120
@35947 Channel: 8 Note on, C4 key=60 velocity: 0
@35947 Channel: 8 Note on, E4 key=64 velocity: 0
@35948 Channel: 8 Note on, A3 key=57 velocity: 0
@36000 Channel: 8 Note on, A3 key=57 velocity: 120
@36000 Channel: 8 Note on, E4 key=64 velocity: 120
@36000 Channel: 8 Note on, C4 key=60 velocity: 120
@36009 Channel: 8 Note on, C4 key=60 velocity: 0
@36010 Channel: 8 Note on, E4 key=64 velocity: 0
@36010 Channel: 8 Note on, A3 key=57 velocity: 0
@36060 Channel: 8 Note on, A3 key=57 velocity: 120
@36060 Channel: 8 Note on, C4 key=60 velocity: 120
@36060 Channel: 8 Note on, E4 key=64 velocity: 120
@36064 Channel: 8 Note on, C4 key=60 velocity: 0
@36065 Channel: 8 Note on, E4 key=64 velocity: 0
@36065 Channel: 8 Note on, A3 key=57 velocity: 0
@36090 Channel: 8 Note on, A3 key=57 velocity: 120
@36090 Channel: 8 Note on, E4 key=64 velocity: 120
@36090 Channel: 8 Note on, C4 key=60 velocity: 120
@36097 Channel: 8 Note on, C4 key=60 velocity: 0
@36098 Channel: 8 Note on, E4 key=64 velocity: 0
@36099 Channel: 8 Note on, A3 key=57 velocity: 0
@36150 Channel: 8 Note on, A3 key=57 velocity: 121
@36150 Channel: 8 Note on, C4 key=60 velocity: 121
@36150 Channel: 8 Note on, E4 key=64 velocity: 121
@36153 Channel: 8 Note on, E4 key=64 velocity: 0
@36153 Channel: 8 Note on, C4 key=60 velocity: 0
@36155 Channel: 8 Note on, A3 key=57 velocity: 0
@36180 Channel: 8 Note on, A3 key=57 velocity: 121
@36180 Channel: 8 Note on, C4 key=60 velocity: 121
@36180 Channel: 8 Note on, E4 key=64 velocity: 121
@36188 Channel: 8 Note on, C4 key=60 velocity: 0
@36189 Channel: 8 Note on, E4 key=64 velocity: 0
@36189 Channel: 8 Note on, A3 key=57 velocity: 0
@36240 Channel: 8 Note on, A3 key=57 velocity: 122
@36240 Channel: 8 Note on, E4 key=64 velocity: 122
@36240 Channel: 8 Note on, C4 key=60 velocity: 122
@36249 Channel: 8 Note on, C4 key=60 velocity: 0
@36250 Channel: 8 Note on, E4 key=64 velocity: 0
@36250 Channel: 8 Note on, A3 key=57 velocity: 0
@36300 Channel: 8 Note on, A3 key=57 velocity: 122
@36300 Channel: 8 Note on, C4 key=60 velocity: 122
@36300 Channel: 8 Note on, E4 key=64 velocity: 122
@36304 Channel: 8 Note on, E4 key=64 velocity: 0
@36304 Channel: 8 Note on, C4 key=60 velocity: 0
@36305 Channel: 8 Note on, A3 key=57 velocity: 0
@36330 Channel: 8 Note on, A3 key=57 velocity: 122
@36330 Channel: 8 Note on, E4 key=64 velocity: 122
@36330 Channel: 8 Note on, C4 key=60 velocity: 122
@36339 Channel: 8 Note on, C4 key=60 velocity: 0
@36339 Channel: 8 Note on, E4 key=64 velocity: 0
@36340 Channel: 8 Note on, A3 key=57 velocity: 0
@36390 Channel: 8 Note on, A3 key=57 velocity: 122
@36390 Channel: 8 Note on, C4 key=60 velocity: 122
@36390 Channel: 8 Note on, E4 key=64 velocity: 122
@36394 Channel: 8 Note on, E4 key=64 velocity: 0
@36394 Channel: 8 Note on, C4 key=60 velocity: 0
@36396 Channel: 8 Note on, A3 key=57 velocity: 0
@36420 Channel: 8 Note on, E4 key=64 velocity: 121
@36420 Channel: 8 Note on, A3 key=57 velocity: 121
@36420 Channel: 8 Note on, C4 key=60 velocity: 121
@36428 Channel: 8 Note on, C4 key=60 velocity: 0
@36428 Channel: 8 Note on, E4 key=64 velocity: 0
@36429 Channel: 8 Note on, A3 key=57 velocity: 0
@36480 Channel: 8 Note on, C4 key=60 velocity: 121
@36480 Channel: 8 Note on, F4 key=65 velocity: 121
@36480 Channel: 8 Note on, A3 key=57 velocity: 121
@36489 Channel: 8 Note on, A3 key=57 velocity: 0
@36489 Channel: 8 Note on, C4 key=60 velocity: 0
@36490 Channel: 8 Note on, F4 key=65 velocity: 0
@36540 Channel: 8 Note on, F4 key=65 velocity: 121
@36540 Channel: 8 Note on, C4 key=60 velocity: 121
@36540 Channel: 8 Note on, A3 key=57 velocity: 121
@36544 Channel: 8 Note on, C4 key=60 velocity: 0
@36545 Channel: 8 Note on, A3 key=57 velocity: 0
@36545 Channel: 8 Note on, F4 key=65 velocity: 0
@36570 Channel: 8 Note on, A3 key=57 velocity: 121
@36570 Channel: 8 Note on, F4 key=65 velocity: 121
@36570 Channel: 8 Note on, C4 key=60 velocity: 121
@36579 Channel: 8 Note on, C4 key=60 velocity: 0
@36579 Channel: 8 Note on, F4 key=65 velocity: 0
@36579 Channel: 8 Note on, A3 key=57 velocity: 0
@36630 Channel: 8 Note on, A3 key=57 velocity: 120
@36630 Channel: 8 Note on, C4 key=60 velocity: 120
@36630 Channel: 8 Note on, F4 key=65 velocity: 120
@36634 Channel: 8 Note on, F4 key=65 velocity: 0
@36634 Channel: 8 Note on, C4 key=60 velocity: 0
@36635 Channel: 8 Note on, A3 key=57 velocity: 0
@36660 Channel: 8 Note on, A3 key=57 velocity: 120
@36660 Channel: 8 Note on, F4 key=65 velocity: 120
@36660 Channel: 8 Note on, C4 key=60 velocity: 120
@36668 Channel: 8 Note on, C4 key=60 velocity: 0
@36668 Channel: 8 Note on, F4 key=65 velocity: 0
@36668 Channel: 8 Note on, A3 key=57 velocity: 0
@36720 Channel: 8 Note on, C4 key=60 velocity: 120
@36720 Channel: 8 Note on, G3 key=55 velocity: 120
@36720 Channel: 8 Note on, F4 key=65 velocity: 120
@36729 Channel: 8 Note on, F4 key=65 velocity: 0
@36729 Channel: 8 Note on, G3 key=55 velocity: 0
@36729 Channel: 8 Note on, C4 key=60 velocity: 0
@36780 Channel: 8 Note on, G3 key=55 velocity: 120
@36780 Channel: 8 Note on, C4 key=60 velocity: 120
@36780 Channel: 8 Note on, F4 key=65 velocity: 120
@36785 Channel: 8 Note on, F4 key=65 velocity: 0
@36785 Channel: 8 Note on, C4 key=60 velocity: 0
@36785 Channel: 8 Note on, G3 key=55 velocity: 0
@36810 Channel: 8 Note on, G3 key=55 velocity: 120
@36810 Channel: 8 Note on, F4 key=65 velocity: 120
@36810 Channel: 8 Note on, C4 key=60 velocity: 120
@36817 Channel: 8 Note on, C4 key=60 velocity: 0
@36817 Channel: 8 Note on, F4 key=65 velocity: 0
@36819 Channel: 8 Note on, G3 key=55 velocity: 0
@36870 Channel: 8 Note on, G3 key=55 velocity: 120
@36870 Channel: 8 Note on, C4 key=60 velocity: 120
@36870 Channel: 8 Note on, F4 key=65 velocity: 120
@36875 Channel: 8 Note on, F4 key=65 velocity: 0
@36875 Channel: 8 Note on, C4 key=60 velocity: 0
@36875 Channel: 8 Note on, G3 key=55 velocity: 0
@36900 Channel: 8 Note on, G3 key=55 velocity: 121
@36900 Channel: 8 Note on, F4 key=65 velocity: 121
@36900 Channel: 8 Note on, C4 key=60 velocity: 121
@36909 Channel: 8 Note on, C4 key=60 velocity: 0
@36909 Channel: 8 Note on, F4 key=65 velocity: 0
@36909 Channel: 8 Note on, G3 key=55 velocity: 0
@36960 Channel: 8 Note on, A3 key=57 velocity: 121
@36960 Channel: 8 Note on, C4 key=60 velocity: 121
@36960 Channel: 8 Note on, F4 key=65 velocity: 121
@36967 Channel: 8 Note on, F4 key=65 velocity: 0
@36968 Channel: 8 Note on, C4 key=60 velocity: 0
@36969 Channel: 8 Note on, A3 key=57 velocity: 0
@37020 Channel: 8 Note on, F4 key=65 velocity: 121
@37020 Channel: 8 Note on, A3 key=57 velocity: 121
@37020 Channel: 8 Note on, C4 key=60 velocity: 121
@37024 Channel: 8 Note on, C4 key=60 velocity: 0
@37024 Channel: 8 Note on, A3 key=57 velocity: 0
@37024 Channel: 8 Note on, F4 key=65 velocity: 0
@37050 Channel: 8 Note on, A3 key=57 velocity: 121
@37050 Channel: 8 Note on, F4 key=65 velocity: 121
@37050 Channel: 8 Note on, C4 key=60 velocity: 121
@37057 Channel: 8 Note on, C4 key=60 velocity: 0
@37058 Channel: 8 Note on, F4 key=65 velocity: 0
@37059 Channel: 8 Note on, A3 key=57 velocity: 0
@37110 Channel: 8 Note on, A3 key=57 velocity: 121
@37110 Channel: 8 Note on, F4 key=65 velocity: 121
@37110 Channel: 8 Note on, C4 key=60 velocity: 121
@37114 Channel: 8 Note on, C4 key=60 velocity: 0
@37115 Channel: 8 Note on, F4 key=65 velocity: 0
@37115 Channel: 8 Note on, A3 key=57 velocity: 0
@37140 Channel: 8 Note on, F4 key=65 velocity: 121
@37140 Channel: 8 Note on, A3 key=57 velocity: 121
@37140 Channel: 8 Note on, C4 key=60 velocity: 121
@37148 Channel: 8 Note on, C4 key=60 velocity: 0
@37149 Channel: 8 Note on, A3 key=57 velocity: 0
@37149 Channel: 8 Note on, F4 key=65 velocity: 0
@37200 Channel: 8 Note on, C4 key=60 velocity: 121
@37200 Channel: 8 Note on, F4 key=65 velocity: 121
@37200 Channel: 8 Note on, G3 key=55 velocity: 121
@37207 Channel: 8 Note on, G3 key=55 velocity: 0
@37208 Channel: 8 Note on, F4 key=65 velocity: 0
@37208 Channel: 8 Note on, C4 key=60 velocity: 0
@37260 Channel: 8 Note on, C4 key=60 velocity: 120
@37260 Channel: 8 Note on, G3 key=55 velocity: 120
@37260 Channel: 8 Note on, F4 key=65 velocity: 120
@37265 Channel: 8 Note on, F4 key=65 velocity: 0
@37265 Channel: 8 Note on, G3 key=55 velocity: 0
@37265 Channel: 8 Note on, C4 key=60 velocity: 0
@37290 Channel: 8 Note on, F4 key=65 velocity: 120
@37290 Channel: 8 Note on, G3 key=55 velocity: 120
@37290 Channel: 8 Note on, C4 key=60 velocity: 120
@37298 Channel: 8 Note on, C4 key=60 velocity: 0
@37299 Channel: 8 Note on, G3 key=55 velocity: 0
@37299 Channel: 8 Note on, F4 key=65 velocity: 0
@37350 Channel: 8 Note on, C4 key=60 velocity: 120
@37350 Channel: 8 Note on, F4 key=65 velocity: 120
@37350 Channel: 8 Note on, G3 key=55 velocity: 120
@37355 Channel: 8 Note on, G3 key=55 velocity: 0
@37355 Channel: 8 Note on, F4 key=65 velocity: 0
@37355 Channel: 8 Note on, C4 key=60 velocity: 0
@37380 Channel: 8 Note on, F4 key=65 velocity: 120
@37380 Channel: 8 Note on, C4 key=60 velocity: 120
@37380 Channel: 8 Note on, G3 key=55 velocity: 120
@37387 Channel: 8 Note on, F4 key=65 velocity: 0
@37388 Channel: 8 Note on, C4 key=60 velocity: 0
@37389 Channel: 8 Note on, G3 key=55 velocity: 0
@37440 Channel: 8 Note on, B3 key=59 velocity: 121
@37440 Channel: 8 Note on, G3 key=55 velocity: 121
@37440 Channel: 8 Note on, E4 key=64 velocity: 121
@37448 Channel: 8 Note on, E4 key=64 velocity: 0
@37448 Channel: 8 Note on, B3 key=59 velocity: 0
@37449 Channel: 8 Note on, G3 key=55 velocity: 0
@37500 Channel: 8 Note on, E4 key=64 velocity: 121
@37500 Channel: 8 Note on, B3 key=59 velocity: 121
@37500 Channel: 8 Note on, G3 key=55 velocity: 121
@37504 Channel: 8 Note on, G3 key=55 velocity: 0
@37504 Channel: 8 Note on, B3 key=59 velocity: 0
@37505 Channel: 8 Note on, E4 key=64 velocity: 0
@37530 Channel: 8 Note on, E4 key=64 velocity: 121
@37530 Channel: 8 Note on, G3 key=55 velocity: 121
@37530 Channel: 8 Note on, B3 key=59 velocity: 121
@37538 Channel: 8 Note on, B3 key=59 velocity: 0
@37538 Channel: 8 Note on, G3 key=55 velocity: 0
@37539 Channel: 8 Note on, E4 key=64 velocity: 0
@37590 Channel: 8 Note on, E4 key=64 velocity: 121
@37590 Channel: 8 Note on, B3 key=59 velocity: 121
@37590 Channel: 8 Note on, G3 key=55 velocity: 121
@37594 Channel: 8 Note on, G3 key=55 velocity: 0
@37594 Channel: 8 Note on, B3 key=59 velocity: 0
@37594 Channel: 8 Note on, E4 key=64 velocity: 0
@37620 Channel: 8 Note on, G3 key=55 velocity: 121
@37620 Channel: 8 Note on, E4 key=64 velocity: 121
@37620 Channel: 8 Note on, B3 key=59 velocity: 121
@37627 Channel: 8 Note on, B3 key=59 velocity: 0
@37627 Channel: 8 Note on, E4 key=64 velocity: 0
@37628 Channel: 8 Note on, G3 key=55 velocity: 0
@37680 Channel: 8 Note on, E4 key=64 velocity: 122
@37680 Channel: 8 Note on, G3 key=55 velocity: 122
@37680 Channel: 8 Note on, B3 key=59 velocity: 122
@37689 Channel: 8 Note on, B3 key=59 velocity: 0
@37690 Channel: 8 Note on, G3 key=55 velocity: 0
@37690 Channel: 8 Note on, E4 key=64 velocity: 0
@37740 Channel: 8 Note on, G3 key=55 velocity: 122
@37740 Channel: 8 Note on, B3 key=59 velocity: 122
@37740 Channel: 8 Note on, E4 key=64 velocity: 122
@37744 Channel: 8 Note on, E4 key=64 velocity: 0
@37744 Channel: 8 Note on, B3 key=59 velocity: 0
@37744 Channel: 8 Note on, G3 key=55 velocity: 0
@37770 Channel: 8 Note on, G3 key=55 velocity: 122
@37770 Channel: 8 Note on, E4 key=64 velocity: 122
@37770 Channel: 8 Note on, B3 key=59 velocity: 122
@37777 Channel: 8 Note on, B3 key=59 velocity: 0
@37777 Channel: 8 Note on, E4 key=64 velocity: 0
@37778 Channel: 8 Note on, G3 key=55 velocity: 0
@37830 Channel: 8 Note on, B3 key=59 velocity: 122
@37830 Channel: 8 Note on, G3 key=55 velocity: 122
@37830 Channel: 8 Note on, E4 key=64 velocity: 122
@37834 Channel: 8 Note on, E4 key=64 velocity: 0
@37834 Channel: 8 Note on, B3 key=59 velocity: 0
@37835 Channel: 8 Note on, G3 key=55 velocity: 0
@37860 Channel: 8 Note on, G3 key=55 velocity: 122
@37860 Channel: 8 Note on, E4 key=64 velocity: 122
@37860 Channel: 8 Note on, B3 key=59 velocity: 122
@37868 Channel: 8 Note on, B3 key=59 velocity: 0
@37868 Channel: 8 Note on, E4 key=64 velocity: 0
@37869 Channel: 8 Note on, G3 key=55 velocity: 0
@37920 Channel: 8 Note on, A3 key=57 velocity: 122
@37920 Channel: 8 Note on, C4 key=60 velocity: 122
@37920 Channel: 8 Note on, F4 key=65 velocity: 122
@37929 Channel: 8 Note on, C4 key=60 velocity: 0
@37929 Channel: 8 Note on, A3 key=57 velocity: 0
@37930 Channel: 8 Note on, F4 key=65 velocity: 0
@37980 Channel: 8 Note on, A3 key=57 velocity: 122
@37980 Channel: 8 Note on, F4 key=65 velocity: 122
@37980 Channel: 8 Note on, C4 key=60 velocity: 122
@37984 Channel: 8 Note on, C4 key=60 velocity: 0
@37984 Channel: 8 Note on, F4 key=65 velocity: 0
@37984 Channel: 8 Note on, A3 key=57 velocity: 0
@38010 Channel: 8 Note on, F4 key=65 velocity: 122
@38010 Channel: 8 Note on, A3 key=57 velocity: 122
@38010 Channel: 8 Note on, C4 key=60 velocity: 122
@38018 Channel: 8 Note on, C4 key=60 velocity: 0
@38019 Channel: 8 Note on, A3 key=57 velocity: 0
@38019 Channel: 8 Note on, F4 key=65 velocity: 0
@38070 Channel: 8 Note on, C4 key=60 velocity: 120
@38070 Channel: 8 Note on, F4 key=65 velocity: 120
@38070 Channel: 8 Note on, A3 key=57 velocity: 120
@38074 Channel: 8 Note on, C4 key=60 velocity: 0
@38075 Channel: 8 Note on, A3 key=57 velocity: 0
@38075 Channel: 8 Note on, F4 key=65 velocity: 0
@38100 Channel: 8 Note on, F4 key=65 velocity: 120
@38100 Channel: 8 Note on, A3 key=57 velocity: 120
@38100 Channel: 8 Note on, C4 key=60 velocity: 120
@38108 Channel: 8 Note on, C4 key=60 velocity: 0
@38108 Channel: 8 Note on, A3 key=57 velocity: 0
@38109 Channel: 8 Note on, F4 key=65 velocity: 0
@38160 Channel: 8 Note on, B3 key=59 velocity: 120
@38160 Channel: 8 Note on, D4 key=62 velocity: 120
@38160 Channel: 8 Note on, G4 key=67 velocity: 120
@38169 Channel: 8 Note on, D4 key=62 velocity: 0
@38170 Channel: 8 Note on, G4 key=67 velocity: 0
@38170 Channel: 8 Note on, B3 key=59 velocity: 0
@38220 Channel: 8 Note on, G4 key=67 velocity: 120
@38220 Channel: 8 Note on, B3 key=59 velocity: 120
@38220 Channel: 8 Note on, D4 key=62 velocity: 120
@38224 Channel: 8 Note on, D4 key=62 velocity: 0
@38224 Channel: 8 Note on, B3 key=59 velocity: 0
@38225 Channel: 8 Note on, G4 key=67 velocity: 0
@38250 Channel: 8 Note on, G4 key=67 velocity: 120
@38250 Channel: 8 Note on, D4 key=62 velocity: 120
@38250 Channel: 8 Note on, B3 key=59 velocity: 120
@38259 Channel: 8 Note on, B3 key=59 velocity: 0
@38259 Channel: 8 Note on, D4 key=62 velocity: 0
@38259 Channel: 8 Note on, G4 key=67 velocity: 0
@38310 Channel: 8 Note on, G4 key=67 velocity: 119
@38310 Channel: 8 Note on, D4 key=62 velocity: 119
@38310 Channel: 8 Note on, B3 key=59 velocity: 119
@38314 Channel: 8 Note on, B3 key=59 velocity: 0
@38314 Channel: 8 Note on, D4 key=62 velocity: 0
@38314 Channel: 8 Note on, G4 key=67 velocity: 0
@38340 Channel: 8 Note on, B3 key=59 velocity: 119
@38340 Channel: 8 Note on, G4 key=67 velocity: 119
@38340 Channel: 8 Note on, D4 key=62 velocity: 119
@38340 Channel: 8 Note on, F4 key=65 velocity: 119
@38343 Channel: 8 Note on, F4 key=65 velocity: 0
@38352 Channel: 8 Note on, B3 key=59 velocity: 0
@38352 Channel: 8 Note on, G4 key=67 velocity: 0
@38352 Channel: 8 Note on, D4 key=62 velocity: 0
@38400 Channel: 8 Note on, C4 key=60 velocity: 121
@38400 Channel: 8 Note on, E4 key=64 velocity: 121
@38400 Channel: 8 Note on, G3 key=55 velocity: 121
@38400 Channel: 8 Note on, E4 key=64 velocity: 121
@38400 Channel: 8 Note on, C4 key=60 velocity: 121
@38400 Channel: 8 Note on, G3 key=55 velocity: 121
@38410 Channel: 8 Note on, C4 key=60 velocity: 0
@38410 Channel: 8 Note on, E4 key=64 velocity: 0
@38410 Channel: 8 Note on, G3 key=55 velocity: 0
@38412 Channel: 8 Note on, C4 key=60 velocity: 0
@38412 Channel: 8 Note on, G3 key=55 velocity: 0
@38412 Channel: 8 Note on, E4 key=64 velocity: 0
@38460 Channel: 8 Note on, G3 key=55 velocity: 121
@38460 Channel: 8 Note on, E4 key=64 velocity: 121
@38460 Channel: 8 Note on, C4 key=60 velocity: 121
@38464 Channel: 8 Note on, C4 key=60 velocity: 0
@38464 Channel: 8 Note on, E4 key=64 velocity: 0
@38465 Channel: 8 Note on, G3 key=55 velocity: 0
@38490 Channel: 8 Note on, G3 key=55 velocity: 121
@38490 Channel: 8 Note on, E4 key=64 velocity: 121
@38490 Channel: 8 Note on, C4 key=60 velocity: 121
@38499 Channel: 8 Note on, C4 key=60 velocity: 0
@38501 Channel: 8 Note on, E4 key=64 velocity: 0
@38501 Channel: 8 Note on, G3 key=55 velocity: 0
@38550 Channel: 8 Note on, C4 key=60 velocity: 121
@38550 Channel: 8 Note on, E4 key=64 velocity: 121
@38550 Channel: 8 Note on, G3 key=55 velocity: 121
@38554 Channel: 8 Note on, G3 key=55 velocity: 0
@38554 Channel: 8 Note on, E4 key=64 velocity: 0
@38554 Channel: 8 Note on, C4 key=60 velocity: 0
@38580 Channel: 8 Note on, E4 key=64 velocity: 121
@38580 Channel: 8 Note on, C4 key=60 velocity: 121
@38580 Channel: 8 Note on, G3 key=55 velocity: 121
@38591 Channel: 8 Note on, G3 key=55 velocity: 0
@38591 Channel: 8 Note on, C4 key=60 velocity: 0
@38591 Channel: 8 Note on, E4 key=64 velocity: 0
@38640 Channel: 8 Note on, F4 key=65 velocity: 121
@38640 Channel: 8 Note on, C4 key=60 velocity: 121
@38640 Channel: 8 Note on, G3 key=55 velocity: 121
@38651 Channel: 8 Note on, G3 key=55 velocity: 0
@38651 Channel: 8 Note on, C4 key=60 velocity: 0
@38651 Channel: 8 Note on, F4 key=65 velocity: 0
@38700 Channel: 8 Note on, F4 key=65 velocity: 121
@38700 Channel: 8 Note on, C4 key=60 velocity: 121
@38700 Channel: 8 Note on, G3 key=55 velocity: 121
@38704 Channel: 8 Note on, G3 key=55 velocity: 0
@38704 Channel: 8 Note on, C4 key=60 velocity: 0
@38705 Channel: 8 Note on, F4 key=65 velocity: 0
@38730 Channel: 8 Note on, F4 key=65 velocity: 121
@38730 Channel: 8 Note on, C4 key=60 velocity: 121
@38730 Channel: 8 Note on, G3 key=55 velocity: 121
@38741 Channel: 8 Note on, G3 key=55 velocity: 0
@38741 Channel: 8 Note on, C4 key=60 velocity: 0
@38741 Channel: 8 Note on, F4 key=65 velocity: 0
@38790 Channel: 8 Note on, G3 key=55 velocity: 121
@38790 Channel: 8 Note on, C4 key=60 velocity: 121
@38790 Channel: 8 Note on, F4 key=65 velocity: 121
@38795 Channel: 8 Note on, F4 key=65 velocity: 0
@38795 Channel: 8 Note on, C4 key=60 velocity: 0
@38795 Channel: 8 Note on, G3 key=55 velocity: 0
@38820 Channel: 8 Note on, F4 key=65 velocity: 121
@38820 Channel: 8 Note on, G3 key=55 velocity: 121
@38820 Channel: 8 Note on, C4 key=60 velocity: 121
@38832 Channel: 8 Note on, C4 key=60 velocity: 0
@38832 Channel: 8 Note on, G3 key=55 velocity: 0
@38833 Channel: 8 Note on, F4 key=65 velocity: 0
@38880 Channel: 8 Note on, C4 key=60 velocity: 121
@38880 Channel: 8 Note on, E4 key=64 velocity: 121
@38880 Channel: 8 Note on, G3 key=55 velocity: 121
@38889 Channel: 8 Note on, G3 key=55 velocity: 0
@38889 Channel: 8 Note on, E4 key=64 velocity: 0
@38889 Channel: 8 Note on, C4 key=60 velocity: 0
@38940 Channel: 8 Note on, C4 key=60 velocity: 120
@38940 Channel: 8 Note on, E4 key=64 velocity: 120
@38940 Channel: 8 Note on, G3 key=55 velocity: 120
@38945 Channel: 8 Note on, G3 key=55 velocity: 0
@38945 Channel: 8 Note on, E4 key=64 velocity: 0
@38945 Channel: 8 Note on, C4 key=60 velocity: 0
@38970 Channel: 8 Note on, E4 key=64 velocity: 120
@38970 Channel: 8 Note on, G3 key=55 velocity: 120
@38970 Channel: 8 Note on, C4 key=60 velocity: 120
@38979 Channel: 8 Note on, C4 key=60 velocity: 0
@38980 Channel: 8 Note on, G3 key=55 velocity: 0
@38980 Channel: 8 Note on, E4 key=64 velocity: 0
@39030 Channel: 8 Note on, G3 key=55 velocity: 120
@39030 Channel: 8 Note on, E4 key=64 velocity: 120
@39030 Channel: 8 Note on, C4 key=60 velocity: 120
@39035 Channel: 8 Note on, C4 key=60 velocity: 0
@39035 Channel: 8 Note on, E4 key=64 velocity: 0
@39035 Channel: 8 Note on, G3 key=55 velocity: 0
@39060 Channel: 8 Note on, E4 key=64 velocity: 120
@39060 Channel: 8 Note on, G3 key=55 velocity: 120
@39060 Channel: 8 Note on, C4 key=60 velocity: 120
@39070 Channel: 8 Note on, C4 key=60 velocity: 0
@39070 Channel: 8 Note on, G3 key=55 velocity: 0
@39070 Channel: 8 Note on, E4 key=64 velocity: 0
@39120 Channel: 8 Note on, C4 key=60 velocity: 120
@39120 Channel: 8 Note on, G3 key=55 velocity: 120
@39120 Channel: 8 Note on, F4 key=65 velocity: 120
@39130 Channel: 8 Note on, F4 key=65 velocity: 0
@39130 Channel: 8 Note on, G3 key=55 velocity: 0
@39130 Channel: 8 Note on, C4 key=60 velocity: 0
@39180 Channel: 8 Note on, C4 key=60 velocity: 122
@39180 Channel: 8 Note on, F4 key=65 velocity: 122
@39180 Channel: 8 Note on, G3 key=55 velocity: 122
@39185 Channel: 8 Note on, G3 key=55 velocity: 0
@39185 Channel: 8 Note on, F4 key=65 velocity: 0
@39185 Channel: 8 Note on, C4 key=60 velocity: 0
@39210 Channel: 8 Note on, F4 key=65 velocity: 120
@39210 Channel: 8 Note on, C4 key=60 velocity: 120
@39210 Channel: 8 Note on, G3 key=55 velocity: 120
@39219 Channel: 8 Note on, C4 key=60 velocity: 0
@39219 Channel: 8 Note on, F4 key=65 velocity: 0
@39220 Channel: 8 Note on, G3 key=55 velocity: 0
@39270 Channel: 8 Note on, F4 key=65 velocity: 120
@39270 Channel: 8 Note on, C4 key=60 velocity: 120
@39270 Channel: 8 Note on, G3 key=55 velocity: 120
@39274 Channel: 8 Note on, G3 key=55 velocity: 0
@39274 Channel: 8 Note on, C4 key=60 velocity: 0
@39275 Channel: 8 Note on, F4 key=65 velocity: 0
@39300 Channel: 8 Note on, F4 key=65 velocity: 119
@39300 Channel: 8 Note on, G3 key=55 velocity: 119
@39300 Channel: 8 Note on, C4 key=60 velocity: 119
@39309 Channel: 8 Note on, F4 key=65 velocity: 0
@39310 Channel: 8 Note on, C4 key=60 velocity: 0
@39310 Channel: 8 Note on, G3 key=55 velocity: 0
@39360 Channel: 8 Note on, C4 key=60 velocity: 119
@39360 Channel: 8 Note on, E4 key=64 velocity: 119
@39360 Channel: 8 Note on, A3 key=57 velocity: 119
@39370 Channel: 8 Note on, A3 key=57 velocity: 0
@39370 Channel: 8 Note on, E4 key=64 velocity: 0
@39371 Channel: 8 Note on, C4 key=60 velocity: 0
@39420 Channel: 8 Note on, A3 key=57 velocity: 119
@39420 Channel: 8 Note on, C4 key=60 velocity: 119
@39420 Channel: 8 Note on, E4 key=64 velocity: 119
@39425 Channel: 8 Note on, E4 key=64 velocity: 0
@39425 Channel: 8 Note on, C4 key=60 velocity: 0
@39426 Channel: 8 Note on, A3 key=57 velocity: 0
@39450 Channel: 8 Note on, A3 key=57 velocity: 119
@39450 Channel: 8 Note on, E4 key=64 velocity: 119
@39450 Channel: 8 Note on, C4 key=60 velocity: 119
@39459 Channel: 8 Note on, C4 key=60 velocity: 0
@39460 Channel: 8 Note on, E4 key=64 velocity: 0
@39460 Channel: 8 Note on, A3 key=57 velocity: 0
@39510 Channel: 8 Note on, C4 key=60 velocity: 118
@39510 Channel: 8 Note on, A3 key=57 velocity: 118
@39510 Channel: 8 Note on, E4 key=64 velocity: 118
@39514 Channel: 8 Note on, E4 key=64 velocity: 0
@39514 Channel: 8 Note on, A3 key=57 velocity: 0
@39514 Channel: 8 Note on, C4 key=60 velocity: 0
@39540 Channel: 8 Note on, A3 key=57 velocity: 118
@39540 Channel: 8 Note on, C4 key=60 velocity: 118
@39540 Channel: 8 Note on, E4 key=64 velocity: 118
@39550 Channel: 8 Note on, E4 key=64 velocity: 0
@39550 Channel: 8 Note on, C4 key=60 velocity: 0
@39550 Channel: 8 Note on, A3 key=57 velocity: 0
@39600 Channel: 8 Note on, A3 key=57 velocity: 119
@39600 Channel: 8 Note on, C4 key=60 velocity: 119
@39600 Channel: 8 Note on, E4 key=64 velocity: 119
@39610 Channel: 8 Note on, E4 key=64 velocity: 0
@39610 Channel: 8 Note on, C4 key=60 velocity: 0
@39610 Channel: 8 Note on, A3 key=57 velocity: 0
@39660 Channel: 8 Note on, A3 key=57 velocity: 119
@39660 Channel: 8 Note on, E4 key=64 velocity: 119
@39660 Channel: 8 Note on, C4 key=60 velocity: 119
@39664 Channel: 8 Note on, C4 key=60 velocity: 0
@39665 Channel: 8 Note on, E4 key=64 velocity: 0
@39665 Channel: 8 Note on, A3 key=57 velocity: 0
@39690 Channel: 8 Note on, A3 key=57 velocity: 119
@39690 Channel: 8 Note on, C4 key=60 velocity: 119
@39690 Channel: 8 Note on, E4 key=64 velocity: 119
@39699 Channel: 8 Note on, E4 key=64 velocity: 0
@39699 Channel: 8 Note on, C4 key=60 velocity: 0
@39700 Channel: 8 Note on, A3 key=57 velocity: 0
@39750 Channel: 8 Note on, A3 key=57 velocity: 120
@39750 Channel: 8 Note on, C4 key=60 velocity: 120
@39750 Channel: 8 Note on, E4 key=64 velocity: 120
@39754 Channel: 8 Note on, E4 key=64 velocity: 0
@39754 Channel: 8 Note on, C4 key=60 velocity: 0
@39754 Channel: 8 Note on, A3 key=57 velocity: 0
@39780 Channel: 8 Note on, A3 key=57 velocity: 120
@39780 Channel: 8 Note on, E4 key=64 velocity: 120
@39780 Channel: 8 Note on, C4 key=60 velocity: 120
@39787 Channel: 8 Note on, C4 key=60 velocity: 0
@39787 Channel: 8 Note on, E4 key=64 velocity: 0
@39788 Channel: 8 Note on, A3 key=57 velocity: 0
@39840 Channel: 8 Note on, A3 key=57 velocity: 120
@39840 Channel: 8 Note on, E4 key=64 velocity: 120
@39840 Channel: 8 Note on, C4 key=60 velocity: 120
@39849 Channel: 8 Note on, C4 key=60 velocity: 0
@39850 Channel: 8 Note on, E4 key=64 velocity: 0
@39850 Channel: 8 Note on, A3 key=57 velocity: 0
@39900 Channel: 8 Note on, A3 key=57 velocity: 120
@39900 Channel: 8 Note on, C4 key=60 velocity: 120
@39900 Channel: 8 Note on, E4 key=64 velocity: 120
@39904 Channel: 8 Note on, C4 key=60 velocity: 0
@39905 Channel: 8 Note on, E4 key=64 velocity: 0
@39905 Channel: 8 Note on, A3 key=57 velocity: 0
@39930 Channel: 8 Note on, A3 key=57 velocity: 120
@39930 Channel: 8 Note on, E4 key=64 velocity: 120
@39930 Channel: 8 Note on, C4 key=60 velocity: 120
@39937 Channel: 8 Note on, C4 key=60 velocity: 0
@39938 Channel: 8 Note on, E4 key=64 velocity: 0
@39939 Channel: 8 Note on, A3 key=57 velocity: 0
@39990 Channel: 8 Note on, A3 key=57 velocity: 121
@39990 Channel: 8 Note on, C4 key=60 velocity: 121
@39990 Channel: 8 Note on, E4 key=64 velocity: 121
@39993 Channel: 8 Note on, E4 key=64 velocity: 0
@39993 Channel: 8 Note on, C4 key=60 velocity: 0
@39995 Channel: 8 Note on, A3 key=57 velocity: 0
@40020 Channel: 8 Note on, A3 key=57 velocity: 121
@40020 Channel: 8 Note on, C4 key=60 velocity: 121
@40020 Channel: 8 Note on, E4 key=64 velocity: 121
@40028 Channel: 8 Note on, C4 key=60 velocity: 0
@40029 Channel: 8 Note on, E4 key=64 velocity: 0
@40029 Channel: 8 Note on, A3 key=57 velocity: 0
@40080 Channel: 8 Note on, A3 key=57 velocity: 122
@40080 Channel: 8 Note on, E4 key=64 velocity: 122
@40080 Channel: 8 Note on, C4 key=60 velocity: 122
@40089 Channel: 8 Note on, C4 key=60 velocity: 0
@40090 Channel: 8 Note on, E4 key=64 velocity: 0
@40090 Channel: 8 Note on, A3 key=57 velocity: 0
@40140 Channel: 8 Note on, A3 key=57 velocity: 122
@40140 Channel: 8 Note on, C4 key=60 velocity: 122
@40140 Channel: 8 Note on, E4 key=64 velocity: 122
@40144 Channel: 8 Note on, E4 key=64 velocity: 0
@40144 Channel: 8 Note on, C4 key=60 velocity: 0
@40145 Channel: 8 Note on, A3 key=57 velocity: 0
@40170 Channel: 8 Note on, A3 key=57 velocity: 122
@40170 Channel: 8 Note on, E4 key=64 velocity: 122
@40170 Channel: 8 Note on, C4 key=60 velocity: 122
@40179 Channel: 8 Note on, C4 key=60 velocity: 0
@40179 Channel: 8 Note on, E4 key=64 velocity: 0
@40180 Channel: 8 Note on, A3 key=57 velocity: 0
@40230 Channel: 8 Note on, A3 key=57 velocity: 122
@40230 Channel: 8 Note on, C4 key=60 velocity: 122
@40230 Channel: 8 Note on, E4 key=64 velocity: 122
@40234 Channel: 8 Note on, E4 key=64 velocity: 0
@40234 Channel: 8 Note on, C4 key=60 velocity: 0
@40236 Channel: 8 Note on, A3 key=57 velocity: 0
@40260 Channel: 8 Note on, E4 key=64 velocity: 121
@40260 Channel: 8 Note on, A3 key=57 velocity: 121
@40260 Channel: 8 Note on, C4 key=60 velocity: 121
@40268 Channel: 8 Note on, C4 key=60 velocity: 0
@40268 Channel: 8 Note on, E4 key=64 velocity: 0
@40269 Channel: 8 Note on, A3 key=57 velocity: 0
@40320 Channel: 8 Note on, C4 key=60 velocity: 121
@40320 Channel: 8 Note on, F4 key=65 velocity: 121
@40320 Channel: 8 Note on, A3 key=57 velocity: 121
@40329 Channel: 8 Note on, A3 key=57 velocity: 0
@40329 Channel: 8 Note on, C4 key=60 velocity: 0
@40330 Channel: 8 Note on, F4 key=65 velocity: 0
@40380 Channel: 8 Note on, F4 key=65 velocity: 121
@40380 Channel: 8 Note on, C4 key=60 velocity: 121
@40380 Channel: 8 Note on, A3 key=57 velocity: 121
@40384 Channel: 8 Note on, C4 key=60 velocity: 0
@40385 Channel: 8 Note on, A3 key=57 velocity: 0
@40385 Channel: 8 Note on, F4 key=65 velocity: 0
@40410 Channel: 8 Note on, A3 key=57 velocity: 121
@40410 Channel: 8 Note on, F4 key=65 velocity: 121
@40410 Channel: 8 Note on, C4 key=60 velocity: 121
@40419 Channel: 8 Note on, C4 key=60 velocity: 0
@40419 Channel: 8 Note on, F4 key=65 velocity: 0
@40419 Channel: 8 Note on, A3 key=57 velocity: 0
@40470 Channel: 8 Note on, A3 key=57 velocity: 120
@40470 Channel: 8 Note on, C4 key=60 velocity: 120
@40470 Channel: 8 Note on, F4 key=65 velocity: 120
@40474 Channel: 8 Note on, F4 key=65 velocity: 0
@40474 Channel: 8 Note on, C4 key=60 velocity: 0
@40475 Channel: 8 Note on, A3 key=57 velocity: 0
@40500 Channel: 8 Note on, A3 key=57 velocity: 120
@40500 Channel: 8 Note on, F4 key=65 velocity: 120
@40500 Channel: 8 Note on, C4 key=60 velocity: 120
@40508 Channel: 8 Note on, C4 key=60 velocity: 0
@40508 Channel: 8 Note on, F4 key=65 velocity: 0
@40508 Channel: 8 Note on, A3 key=57 velocity: 0
@40560 Channel: 8 Note on, C4 key=60 velocity: 120
@40560 Channel: 8 Note on, G3 key=55 velocity: 120
@40560 Channel: 8 Note on, F4 key=65 velocity: 120
@40569 Channel: 8 Note on, F4 key=65 velocity: 0
@40569 Channel: 8 Note on, G3 key=55 velocity: 0
@40569 Channel: 8 Note on, C4 key=60 velocity: 0
@40620 Channel: 8 Note on, G3 key=55 velocity: 120
@40620 Channel: 8 Note on, C4 key=60 velocity: 120
@40620 Channel: 8 Note on, F4 key=65 velocity: 120
@40625 Channel: 8 Note on, F4 key=65 velocity: 0
@40625 Channel: 8 Note on, C4 key=60 velocity: 0
@40625 Channel: 8 Note on, G3 key=55 velocity: 0
@40650 Channel: 8 Note on, G3 key=55 velocity: 120
@40650 Channel: 8 Note on, F4 key=65 velocity: 120
@40650 Channel: 8 Note on, C4 key=60 velocity: 120
@40657 Channel: 8 Note on, C4 key=60 velocity: 0
@40657 Channel: 8 Note on, F4 key=65 velocity: 0
@40659 Channel: 8 Note on, G3 key=55 velocity: 0
@40710 Channel: 8 Note on, G3 key=55 velocity: 120
@40710 Channel: 8 Note on, C4 key=60 velocity: 120
@40710 Channel: 8 Note on, F4 key=65 velocity: 120
@40715 Channel: 8 Note on, F4 key=65 velocity: 0
@40715 Channel: 8 Note on, C4 key=60 velocity: 0
@40715 Channel: 8 Note on, G3 key=55 velocity: 0
@40740 Channel: 8 Note on, G3 key=55 velocity: 121
@40740 Channel: 8 Note on, F4 key=65 velocity: 121
@40740 Channel: 8 Note on, C4 key=60 velocity: 121
@40749 Channel: 8 Note on, C4 key=60 velocity: 0
@40749 Channel: 8 Note on, F4 key=65 velocity: 0
@40749 Channel: 8 Note on, G3 key=55 velocity: 0
@40800 Channel: 8 Note on, A3 key=57 velocity: 121
@40800 Channel: 8 Note on, C4 key=60 velocity: 121
@40800 Channel: 8 Note on, F4 key=65 velocity: 121
@40807 Channel: 8 Note on, F4 key=65 velocity: 0
@40808 Channel: 8 Note on, C4 key=60 velocity: 0
@40809 Channel: 8 Note on, A3 key=57 velocity: 0
@40860 Channel: 8 Note on, F4 key=65 velocity: 121
@40860 Channel: 8 Note on, A3 key=57 velocity: 121
@40860 Channel: 8 Note on, C4 key=60 velocity: 121
@40864 Channel: 8 Note on, C4 key=60 velocity: 0
@40864 Channel: 8 Note on, A3 key=57 velocity: 0
@40864 Channel: 8 Note on, F4 key=65 velocity: 0
@40890 Channel: 8 Note on, A3 key=57 velocity: 121
@40890 Channel: 8 Note on, F4 key=65 velocity: 121
@40890 Channel: 8 Note on, C4 key=60 velocity: 121
@40897 Channel: 8 Note on, C4 key=60 velocity: 0
@40898 Channel: 8 Note on, F4 key=65 velocity: 0
@40899 Channel: 8 Note on, A3 key=57 velocity: 0
@40950 Channel: 8 Note on, A3 key=57 velocity: 121
@40950 Channel: 8 Note on, F4 key=65 velocity: 121
@40950 Channel: 8 Note on, C4 key=60 velocity: 121
@40954 Channel: 8 Note on, C4 key=60 velocity: 0
@40955 Channel: 8 Note on, F4 key=65 velocity: 0
@40955 Channel: 8 Note on, A3 key=57 velocity: 0
@40980 Channel: 8 Note on, F4 key=65 velocity: 121
@40980 Channel: 8 Note on, A3 key=57 velocity: 121
@40980 Channel: 8 Note on, C4 key=60 velocity: 121
@40988 Channel: 8 Note on, C4 key=60 velocity: 0
@40989 Channel: 8 Note on, A3 key=57 velocity: 0
@40989 Channel: 8 Note on, F4 key=65 velocity: 0
@41040 Channel: 8 Note on, C4 key=60 velocity: 121
@41040 Channel: 8 Note on, F4 key=65 velocity: 121
@41040 Channel: 8 Note on, G3 key=55 velocity: 121
@41047 Channel: 8 Note on, G3 key=55 velocity: 0
@41048 Channel: 8 Note on, F4 key=65 velocity: 0
@41048 Channel: 8 Note on, C4 key=60 velocity: 0
@41100 Channel: 8 Note on, C4 key=60 velocity: 120
@41100 Channel: 8 Note on, G3 key=55 velocity: 120
@41100 Channel: 8 Note on, F4 key=65 velocity: 120
@41105 Channel: 8 Note on, F4 key=65 velocity: 0
@41105 Channel: 8 Note on, G3 key=55 velocity: 0
@41105 Channel: 8 Note on, C4 key=60 velocity: 0
@41130 Channel: 8 Note on, F4 key=65 velocity: 120
@41130 Channel: 8 Note on, G3 key=55 velocity: 120
@41130 Channel: 8 Note on, C4 key=60 velocity: 120
@41138 Channel: 8 Note on, C4 key=60 velocity: 0
@41139 Channel: 8 Note on, G3 key=55 velocity: 0
@41139 Channel: 8 Note on, F4 key=65 velocity: 0
@41190 Channel: 8 Note on, C4 key=60 velocity: 120
@41190 Channel: 8 Note on, F4 key=65 velocity: 120
@41190 Channel: 8 Note on, G3 key=55 velocity: 120
@41195 Channel: 8 Note on, G3 key=55 velocity: 0
@41195 Channel: 8 Note on, F4 key=65 velocity: 0
@41195 Channel: 8 Note on, C4 key=60 velocity: 0
@41220 Channel: 8 Note on, F4 key=65 velocity: 120
@41220 Channel: 8 Note on, C4 key=60 velocity: 120
@41220 Channel: 8 Note on, G3 key=55 velocity: 120
@41227 Channel: 8 Note on, F4 key=65 velocity: 0
@41228 Channel: 8 Note on, C4 key=60 velocity: 0
@41229 Channel: 8 Note on, G3 key=55 velocity: 0
@41280 Channel: 8 Note on, B3 key=59 velocity: 121
@41280 Channel: 8 Note on, G3 key=55 velocity: 121
@41280 Channel: 8 Note on, E4 key=64 velocity: 121
@41288 Channel: 8 Note on, E4 key=64 velocity: 0
@41288 Channel: 8 Note on, B3 key=59 velocity: 0
@41289 Channel: 8 Note on, G3 key=55 velocity: 0
@41340 Channel: 8 Note on, E4 key=64 velocity: 121
@41340 Channel: 8 Note on, B3 key=59 velocity: 121
@41340 Channel: 8 Note on, G3 key=55 velocity: 121
@41344 Channel: 8 Note on, G3 key=55 velocity: 0
@41344 Channel: 8 Note on, B3 key=59 velocity: 0
@41345 Channel: 8 Note on, E4 key=64 velocity: 0
@41370 Channel: 8 Note on, E4 key=64 velocity: 121
@41370 Channel: 8 Note on, G3 key=55 velocity: 121
@41370 Channel: 8 Note on, B3 key=59 velocity: 121
@41378 Channel: 8 Note on, B3 key=59 velocity: 0
@41378 Channel: 8 Note on, G3 key=55 velocity: 0
@41379 Channel: 8 Note on, E4 key=64 velocity: 0
@41430 Channel: 8 Note on, E4 key=64 velocity: 121
@41430 Channel: 8 Note on, B3 key=59 velocity: 121
@41430 Channel: 8 Note on, G3 key=55 velocity: 121
@41434 Channel: 8 Note on, G3 key=55 velocity: 0
@41434 Channel: 8 Note on, B3 key=59 velocity: 0
@41434 Channel: 8 Note on, E4 key=64 velocity: 0
@41460 Channel: 8 Note on, G3 key=55 velocity: 121
@41460 Channel: 8 Note on, E4 key=64 velocity: 121
@41460 Channel: 8 Note on, B3 key=59 velocity: 121
@41467 Channel: 8 Note on, B3 key=59 velocity: 0
@41467 Channel: 8 Note on, E4 key=64 velocity: 0
@41468 Channel: 8 Note on, G3 key=55 velocity: 0
@41520 Channel: 8 Note on, E4 key=64 velocity: 122
@41520 Channel: 8 Note on, G3 key=55 velocity: 122
@41520 Channel: 8 Note on, B3 key=59 velocity: 122
@41529 Channel: 8 Note on, B3 key=59 velocity: 0
@41530 Channel: 8 Note on, G3 key=55 velocity: 0
@41530 Channel: 8 Note on, E4 key=64 velocity: 0
@41580 Channel: 8 Note on, G3 key=55 velocity: 122
@41580 Channel: 8 Note on, B3 key=59 velocity: 122
@41580 Channel: 8 Note on, E4 key=64 velocity: 122
@41584 Channel: 8 Note on, E4 key=64 velocity: 0
@41584 Channel: 8 Note on, B3 key=59 velocity: 0
@41584 Channel: 8 Note on, G3 key=55 velocity: 0
@41610 Channel: 8 Note on, G3 key=55 velocity: 122
@41610 Channel: 8 Note on, E4 key=64 velocity: 122
@41610 Channel: 8 Note on, B3 key=59 velocity: 122
@41617 Channel: 8 Note on, B3 key=59 velocity: 0
@41617 Channel: 8 Note on, E4 key=64 velocity: 0
@41618 Channel: 8 Note on, G3 key=55 velocity: 0
@41670 Channel: 8 Note on, B3 key=59 velocity: 122
@41670 Channel: 8 Note on, G3 key=55 velocity: 122
@41670 Channel: 8 Note on, E4 key=64 velocity: 122
@41674 Channel: 8 Note on, E4 key=64 velocity: 0
@41674 Channel: 8 Note on, B3 key=59 velocity: 0
@41675 Channel: 8 Note on, G3 key=55 velocity: 0
@41700 Channel: 8 Note on, G3 key=55 velocity: 122
@41700 Channel: 8 Note on, E4 key=64 velocity: 122
@41700 Channel: 8 Note on, B3 key=59 velocity: 122
@41708 Channel: 8 Note on, B3 key=59 velocity: 0
@41708 Channel: 8 Note on, E4 key=64 velocity: 0
@41709 Channel: 8 Note on, G3 key=55 velocity: 0
@41760 Channel: 8 Note on, A3 key=57 velocity: 122
@41760 Channel: 8 Note on, C4 key=60 velocity: 122
@41760 Channel: 8 Note on, F4 key=65 velocity: 122
@41769 Channel: 8 Note on, C4 key=60 velocity: 0
@41769 Channel: 8 Note on, A3 key=57 velocity: 0
@41770 Channel: 8 Note on, F4 key=65 velocity: 0
@41820 Channel: 8 Note on, A3 key=57 velocity: 122
@41820 Channel: 8 Note on, F4 key=65 velocity: 122
@41820 Channel: 8 Note on, C4 key=60 velocity: 122
@41824 Channel: 8 Note on, C4 key=60 velocity: 0
@41824 Channel: 8 Note on, F4 key=65 velocity: 0
@41824 Channel: 8 Note on, A3 key=57 velocity: 0
@41850 Channel: 8 Note on, F4 key=65 velocity: 122
@41850 Channel: 8 Note on, A3 key=57 velocity: 122
@41850 Channel: 8 Note on, C4 key=60 velocity: 122
@41858 Channel: 8 Note on, C4 key=60 velocity: 0
@41859 Channel: 8 Note on, A3 key=57 velocity: 0
@41859 Channel: 8 Note on, F4 key=65 velocity: 0
@41910 Channel: 8 Note on, C4 key=60 velocity: 120
@41910 Channel: 8 Note on, F4 key=65 velocity: 120
@41910 Channel: 8 Note on, A3 key=57 velocity: 120
@41914 Channel: 8 Note on, C4 key=60 velocity: 0
@41915 Channel: 8 Note on, A3 key=57 velocity: 0
@41915 Channel: 8 Note on, F4 key=65 velocity: 0
@41940 Channel: 8 Note on, F4 key=65 velocity: 120
@41940 Channel: 8 Note on, A3 key=57 velocity: 120
@41940 Channel: 8 Note on, C4 key=60 velocity: 120
@41948 Channel: 8 Note on, C4 key=60 velocity: 0
@41948 Channel: 8 Note on, A3 key=57 velocity: 0
@41949 Channel: 8 Note on, F4 key=65 velocity: 0
@42000 Channel: 8 Note on, B3 key=59 velocity: 120
@42000 Channel: 8 Note on, D4 key=62 velocity: 120
@42000 Channel: 8 Note on, G4 key=67 velocity: 120
@42009 Channel: 8 Note on, D4 key=62 velocity: 0
@42010 Channel: 8 Note on, G4 key=67 velocity: 0
@42010 Channel: 8 Note on, B3 key=59 velocity: 0
@42060 Channel: 8 Note on, G4 key=67 velocity: 120
@42060 Channel: 8 Note on, B3 key=59 velocity: 120
@42060 Channel: 8 Note on, D4 key=62 velocity: 120
@42064 Channel: 8 Note on, D4 key=62 velocity: 0
@42064 Channel: 8 Note on, B3 key=59 velocity: 0
@42065 Channel: 8 Note on, G4 key=67 velocity: 0
@42090 Channel: 8 Note on, G4 key=67 velocity: 120
@42090 Channel: 8 Note on, D4 key=62 velocity: 120
@42090 Channel: 8 Note on, B3 key=59 velocity: 120
@42099 Channel: 8 Note on, B3 key=59 velocity: 0
@42099 Channel: 8 Note on, D4 key=62 velocity: 0
@42099 Channel: 8 Note on, G4 key=67 velocity: 0
@42150 Channel: 8 Note on, G4 key=67 velocity: 119
@42150 Channel: 8 Note on, D4 key=62 velocity: 119
@42150 Channel: 8 Note on, B3 key=59 velocity: 119
@42154 Channel: 8 Note on, B3 key=59 velocity: 0
@42154 Channel: 8 Note on, D4 key=62 velocity: 0
@42154 Channel: 8 Note on, G4 key=67 velocity: 0
@42180 Channel: 8 Note on, B3 key=59 velocity: 119
@42180 Channel: 8 Note on, G4 key=67 velocity: 119
@42180 Channel: 8 Note on, D4 key=62 velocity: 119
@42180 Channel: 8 Note on, F4 key=65 velocity: 119
@42183 Channel: 8 Note on, F4 key=65 velocity: 0
@42192 Channel: 8 Note on, B3 key=59 velocity: 0
@42192 Channel: 8 Note on, G4 key=67 velocity: 0
@42192 Channel: 8 Note on, D4 key=62 velocity: 0
@42240 Channel: 8 Note on, C4 key=60 velocity: 118
@42240 Channel: 8 Note on, G3 key=55 velocity: 118
@42240 Channel: 8 Note on, E4 key=64 velocity: 118
@42253 Channel: 8 Note on, E4 key=64 velocity: 0
@42253 Channel: 8 Note on, G3 key=55 velocity: 0
@42253 Channel: 8 Note on, C4 key=60 velocity: 0
@42300 Channel: 8 Note on, E4 key=64 velocity: 118
@42300 Channel: 8 Note on, G3 key=55 velocity: 118
@42300 Channel: 8 Note on, C4 key=60 velocity: 118
@42305 Channel: 8 Note on, C4 key=60 velocity: 0
@42305 Channel: 8 Note on, G3 key=55 velocity: 0
@42305 Channel: 8 Note on, E4 key=64 velocity: 0
@42330 Channel: 8 Note on, C4 key=60 velocity: 119
@42330 Channel: 8 Note on, G3 key=55 velocity: 119
@42330 Channel: 8 Note on, E4 key=64 velocity: 119
@42343 Channel: 8 Note on, E4 key=64 velocity: 0
@42343 Channel: 8 Note on, G3 key=55 velocity: 0
@42343 Channel: 8 Note on, C4 key=60 velocity: 0
@42390 Channel: 8 Note on, G3 key=55 velocity: 119
@42390 Channel: 8 Note on, C4 key=60 velocity: 119
@42390 Channel: 8 Note on, E4 key=64 velocity: 119
@42395 Channel: 8 Note on, E4 key=64 velocity: 0
@42395 Channel: 8 Note on, C4 key=60 velocity: 0
@42395 Channel: 8 Note on, G3 key=55 velocity: 0
@42420 Channel: 8 Note on, G3 key=55 velocity: 119
@42420 Channel: 8 Note on, C4 key=60 velocity: 119
@42420 Channel: 8 Note on, E4 key=64 velocity: 119
@42433 Channel: 8 Note on, E4 key=64 velocity: 0
@42433 Channel: 8 Note on, C4 key=60 velocity: 0
@42433 Channel: 8 Note on, G3 key=55 velocity: 0
@42480 Channel: 8 Note on, F4 key=65 velocity: 119
@42480 Channel: 8 Note on, G3 key=55 velocity: 119
@42480 Channel: 8 Note on, C4 key=60 velocity: 119
@42493 Channel: 8 Note on, C4 key=60 velocity: 0
@42493 Channel: 8 Note on, G3 key=55 velocity: 0
@42493 Channel: 8 Note on, F4 key=65 velocity: 0
@42540 Channel: 8 Note on, G3 key=55 velocity: 120
@42540 Channel: 8 Note on, C4 key=60 velocity: 120
@42540 Channel: 8 Note on, F4 key=65 velocity: 120
@42545 Channel: 8 Note on, F4 key=65 velocity: 0
@42545 Channel: 8 Note on, C4 key=60 velocity: 0
@42545 Channel: 8 Note on, G3 key=55 velocity: 0
@42570 Channel: 8 Note on, F4 key=65 velocity: 120
@42570 Channel: 8 Note on, C4 key=60 velocity: 120
@42570 Channel: 8 Note on, G3 key=55 velocity: 120
@42583 Channel: 8 Note on, G3 key=55 velocity: 0
@42583 Channel: 8 Note on, C4 key=60 velocity: 0
@42583 Channel: 8 Note on, F4 key=65 velocity: 0
@42630 Channel: 8 Note on, G3 key=55 velocity: 120
@42630 Channel: 8 Note on, C4 key=60 velocity: 120
@42630 Channel: 8 Note on, F4 key=65 velocity: 120
@42635 Channel: 8 Note on, F4 key=65 velocity: 0
@42635 Channel: 8 Note on, C4 key=60 velocity: 0
@42635 Channel: 8 Note on, G3 key=55 velocity: 0
@42660 Channel: 8 Note on, F4 key=65 velocity: 120
@42660 Channel: 8 Note on, G3 key=55 velocity: 120
@42660 Channel: 8 Note on, C4 key=60 velocity: 120
@42673 Channel: 8 Note on, C4 key=60 velocity: 0
@42673 Channel: 8 Note on, G3 key=55 velocity: 0
@42673 Channel: 8 Note on, F4 key=65 velocity: 0
@42720 Channel: 8 Note on, C4 key=60 velocity: 120
@42720 Channel: 8 Note on, G3 key=55 velocity: 120
@42720 Channel: 8 Note on, E4 key=64 velocity: 120
@42733 Channel: 8 Note on, E4 key=64 velocity: 0
@42733 Channel: 8 Note on, G3 key=55 velocity: 0
@42733 Channel: 8 Note on, C4 key=60 velocity: 0
@42780 Channel: 8 Note on, E4 key=64 velocity: 120
@42780 Channel: 8 Note on, G3 key=55 velocity: 120
@42780 Channel: 8 Note on, C4 key=60 velocity: 120
@42785 Channel: 8 Note on, C4 key=60 velocity: 0
@42785 Channel: 8 Note on, G3 key=55 velocity: 0
@42785 Channel: 8 Note on, E4 key=64 velocity: 0
@42810 Channel: 8 Note on, C4 key=60 velocity: 120
@42810 Channel: 8 Note on, G3 key=55 velocity: 120
@42810 Channel: 8 Note on, E4 key=64 velocity: 120
@42823 Channel: 8 Note on, E4 key=64 velocity: 0
@42823 Channel: 8 Note on, G3 key=55 velocity: 0
@42823 Channel: 8 Note on, C4 key=60 velocity: 0
@42870 Channel: 8 Note on, G3 key=55 velocity: 120
@42870 Channel: 8 Note on, C4 key=60 velocity: 120
@42870 Channel: 8 Note on, E4 key=64 velocity: 120
@42875 Channel: 8 Note on, E4 key=64 velocity: 0
@42875 Channel: 8 Note on, C4 key=60 velocity: 0
@42875 Channel: 8 Note on, G3 key=55 velocity: 0
@42900 Channel: 8 Note on, G3 key=55 velocity: 120
@42900 Channel: 8 Note on, C4 key=60 velocity: 120
@42900 Channel: 8 Note on, E4 key=64 velocity: 120
@42913 Channel: 8 Note on, E4 key=64 velocity: 0
@42913 Channel: 8 Note on, C4 key=60 velocity: 0
@42913 Channel: 8 Note on, G3 key=55 velocity: 0
@42960 Channel: 8 Note on, F4 key=65 velocity: 120
@42960 Channel: 8 Note on, G3 key=55 velocity: 120
@42960 Channel: 8 Note on, C4 key=60 velocity: 120
@42973 Channel: 8 Note on, C4 key=60 velocity: 0
@42973 Channel: 8 Note on, G3 key=55 velocity: 0
@42973 Channel: 8 Note on, F4 key=65 velocity: 0
@43020 Channel: 8 Note on, G3 key=55 velocity: 120
@43020 Channel: 8 Note on, C4 key=60 velocity: 120
@43020 Channel: 8 Note on, F4 key=65 velocity: 120
@43025 Channel: 8 Note on, F4 key=65 velocity: 0
@43025 Channel: 8 Note on, C4 key=60 velocity: 0
@43025 Channel: 8 Note on, G3 key=55 velocity: 0
@43050 Channel: 8 Note on, F4 key=65 velocity: 120
@43050 Channel: 8 Note on, C4 key=60 velocity: 120
@43050 Channel: 8 Note on, G3 key=55 velocity: 120
@43063 Channel: 8 Note on, G3 key=55 velocity: 0
@43063 Channel: 8 Note on, C4 key=60 velocity: 0
@43063 Channel: 8 Note on, F4 key=65 velocity: 0
@43110 Channel: 8 Note on, G3 key=55 velocity: 120
@43110 Channel: 8 Note on, C4 key=60 velocity: 120
@43110 Channel: 8 Note on, F4 key=65 velocity: 120
@43115 Channel: 8 Note on, F4 key=65 velocity: 0
@43115 Channel: 8 Note on, C4 key=60 velocity: 0
@43115 Channel: 8 Note on, G3 key=55 velocity: 0
@43140 Channel: 8 Note on, F4 key=65 velocity: 120
@43140 Channel: 8 Note on, G3 key=55 velocity: 120
@43140 Channel: 8 Note on, C4 key=60 velocity: 120
@43153 Channel: 8 Note on, C4 key=60 velocity: 0
@43153 Channel: 8 Note on, G3 key=55 velocity: 0
@43153 Channel: 8 Note on, F4 key=65 velocity: 0
@43200 Channel: 8 Note on, C4 key=60 velocity: 120
@43200 Channel: 8 Note on, G3 key=55 velocity: 120
@43200 Channel: 8 Note on, E4 key=64 velocity: 120
@43213 Channel: 8 Note on, E4 key=64 velocity: 0
@43213 Channel: 8 Note on, G3 key=55 velocity: 0
@43213 Channel: 8 Note on, C4 key=60 velocity: 0
@43260 Channel: 8 Note on, E4 key=64 velocity: 120
@43260 Channel: 8 Note on, G3 key=55 velocity: 120
@43260 Channel: 8 Note on, C4 key=60 velocity: 120
@43265 Channel: 8 Note on, C4 key=60 velocity: 0
@43265 Channel: 8 Note on, G3 key=55 velocity: 0
@43265 Channel: 8 Note on, E4 key=64 velocity: 0
@43290 Channel: 8 Note on, C4 key=60 velocity: 121
@43290 Channel: 8 Note on, G3 key=55 velocity: 121
@43290 Channel: 8 Note on, E4 key=64 velocity: 121
@43303 Channel: 8 Note on, E4 key=64 velocity: 0
@43303 Channel: 8 Note on, G3 key=55 velocity: 0
@43303 Channel: 8 Note on, C4 key=60 velocity: 0
@43350 Channel: 8 Note on, G3 key=55 velocity: 121
@43350 Channel: 8 Note on, C4 key=60 velocity: 121
@43350 Channel: 8 Note on, E4 key=64 velocity: 121
@43355 Channel: 8 Note on, E4 key=64 velocity: 0
@43355 Channel: 8 Note on, C4 key=60 velocity: 0
@43355 Channel: 8 Note on, G3 key=55 velocity: 0
@43380 Channel: 8 Note on, G3 key=55 velocity: 121
@43380 Channel: 8 Note on, C4 key=60 velocity: 121
@43380 Channel: 8 Note on, E4 key=64 velocity: 121
@43393 Channel: 8 Note on, E4 key=64 velocity: 0
@43393 Channel: 8 Note on, C4 key=60 velocity: 0
@43393 Channel: 8 Note on, G3 key=55 velocity: 0
@43440 Channel: 8 Note on, F4 key=65 velocity: 121
@43440 Channel: 8 Note on, G3 key=55 velocity: 121
@43440 Channel: 8 Note on, C4 key=60 velocity: 121
@43453 Channel: 8 Note on, C4 key=60 velocity: 0
@43453 Channel: 8 Note on, G3 key=55 velocity: 0
@43453 Channel: 8 Note on, F4 key=65 velocity: 0
@43500 Channel: 8 Note on, G3 key=55 velocity: 121
@43500 Channel: 8 Note on, C4 key=60 velocity: 121
@43500 Channel: 8 Note on, F4 key=65 velocity: 121
@43505 Channel: 8 Note on, F4 key=65 velocity: 0
@43505 Channel: 8 Note on, C4 key=60 velocity: 0
@43505 Channel: 8 Note on, G3 key=55 velocity: 0
@43530 Channel: 8 Note on, F4 key=65 velocity: 121
@43530 Channel: 8 Note on, C4 key=60 velocity: 121
@43530 Channel: 8 Note on, G3 key=55 velocity: 121
@43543 Channel: 8 Note on, G3 key=55 velocity: 0
@43543 Channel: 8 Note on, C4 key=60 velocity: 0
@43543 Channel: 8 Note on, F4 key=65 velocity: 0
@43590 Channel: 8 Note on, G3 key=55 velocity: 121
@43590 Channel: 8 Note on, C4 key=60 velocity: 121
@43590 Channel: 8 Note on, F4 key=65 velocity: 121
@43595 Channel: 8 Note on, F4 key=65 velocity: 0
@43595 Channel: 8 Note on, C4 key=60 velocity: 0
@43595 Channel: 8 Note on, G3 key=55 velocity: 0
@43620 Channel: 8 Note on, F4 key=65 velocity: 121
@43620 Channel: 8 Note on, G3 key=55 velocity: 121
@43620 Channel: 8 Note on, C4 key=60 velocity: 121
@43633 Channel: 8 Note on, C4 key=60 velocity: 0
@43633 Channel: 8 Note on, G3 key=55 velocity: 0
@43633 Channel: 8 Note on, F4 key=65 velocity: 0
@43680 Channel: 8 Note on, C4 key=60 velocity: 120
@43680 Channel: 8 Note on, G3 key=55 velocity: 120
@43680 Channel: 8 Note on, E4 key=64 velocity: 120
@43693 Channel: 8 Note on, E4 key=64 velocity: 0
@43693 Channel: 8 Note on, G3 key=55 velocity: 0
@43693 Channel: 8 Note on, C4 key=60 velocity: 0
@43740 Channel: 8 Note on, E4 key=64 velocity: 120
@43740 Channel: 8 Note on, G3 key=55 velocity: 120
@43740 Channel: 8 Note on, C4 key=60 velocity: 120
@43745 Channel: 8 Note on, C4 key=60 velocity: 0
@43745 Channel: 8 Note on, G3 key=55 velocity: 0
@43745 Channel: 8 Note on, E4 key=64 velocity: 0
@43770 Channel: 8 Note on, C4 key=60 velocity: 121
@43770 Channel: 8 Note on, G3 key=55 velocity: 121
@43770 Channel: 8 Note on, E4 key=64 velocity: 121
@43783 Channel: 8 Note on, E4 key=64 velocity: 0
@43783 Channel: 8 Note on, G3 key=55 velocity: 0
@43783 Channel: 8 Note on, C4 key=60 velocity: 0
@43830 Channel: 8 Note on, G3 key=55 velocity: 121
@43830 Channel: 8 Note on, C4 key=60 velocity: 121
@43830 Channel: 8 Note on, E4 key=64 velocity: 121
@43835 Channel: 8 Note on, E4 key=64 velocity: 0
@43835 Channel: 8 Note on, C4 key=60 velocity: 0
@43835 Channel: 8 Note on, G3 key=55 velocity: 0
@43860 Channel: 8 Note on, G3 key=55 velocity: 121
@43860 Channel: 8 Note on, C4 key=60 velocity: 121
@43860 Channel: 8 Note on, E4 key=64 velocity: 121
@43873 Channel: 8 Note on, E4 key=64 velocity: 0
@43873 Channel: 8 Note on, C4 key=60 velocity: 0
@43873 Channel: 8 Note on, G3 key=55 velocity: 0
@43920 Channel: 8 Note on, F4 key=65 velocity: 121
@43920 Channel: 8 Note on, G3 key=55 velocity: 121
@43920 Channel: 8 Note on, C4 key=60 velocity: 121
@43933 Channel: 8 Note on, C4 key=60 velocity: 0
@43933 Channel: 8 Note on, G3 key=55 velocity: 0
@43933 Channel: 8 Note on, F4 key=65 velocity: 0
@43980 Channel: 8 Note on, G3 key=55 velocity: 121
@43980 Channel: 8 Note on, C4 key=60 velocity: 121
@43980 Channel: 8 Note on, F4 key=65 velocity: 121
@43985 Channel: 8 Note on, F4 key=65 velocity: 0
@43985 Channel: 8 Note on, C4 key=60 velocity: 0
@43985 Channel: 8 Note on, G3 key=55 velocity: 0
@44010 Channel: 8 Note on, F4 key=65 velocity: 121
@44010 Channel: 8 Note on, C4 key=60 velocity: 121
@44010 Channel: 8 Note on, G3 key=55 velocity: 121
@44023 Channel: 8 Note on, G3 key=55 velocity: 0
@44023 Channel: 8 Note on, C4 key=60 velocity: 0
@44023 Channel: 8 Note on, F4 key=65 velocity: 0
@44070 Channel: 8 Note on, G3 key=55 velocity: 121
@44070 Channel: 8 Note on, C4 key=60 velocity: 121
@44070 Channel: 8 Note on, F4 key=65 velocity: 121
@44075 Channel: 8 Note on, F4 key=65 velocity: 0
@44075 Channel: 8 Note on, C4 key=60 velocity: 0
@44075 Channel: 8 Note on, G3 key=55 velocity: 0
@44100 Channel: 8 Note on, F4 key=65 velocity: 121
@44100 Channel: 8 Note on, G3 key=55 velocity: 121
@44100 Channel: 8 Note on, C4 key=60 velocity: 121
@44113 Channel: 8 Note on, C4 key=60 velocity: 0
@44113 Channel: 8 Note on, G3 key=55 velocity: 0
@44113 Channel: 8 Note on, F4 key=65 velocity: 0
@44160 Channel: 8 Note on, C4 key=60 velocity: 118
@44160 Channel: 8 Note on, G3 key=55 velocity: 118
@44160 Channel: 8 Note on, E4 key=64 velocity: 118
@44173 Channel: 8 Note on, E4 key=64 velocity: 0
@44173 Channel: 8 Note on, G3 key=55 velocity: 0
@44173 Channel: 8 Note on, C4 key=60 velocity: 0
@44220 Channel: 8 Note on, E4 key=64 velocity: 118
@44220 Channel: 8 Note on, G3 key=55 velocity: 118
@44220 Channel: 8 Note on, C4 key=60 velocity: 118
@44225 Channel: 8 Note on, C4 key=60 velocity: 0
@44225 Channel: 8 Note on, G3 key=55 velocity: 0
@44225 Channel: 8 Note on, E4 key=64 velocity: 0
@44250 Channel: 8 Note on, C4 key=60 velocity: 119
@44250 Channel: 8 Note on, G3 key=55 velocity: 119
@44250 Channel: 8 Note on, E4 key=64 velocity: 119
@44263 Channel: 8 Note on, E4 key=64 velocity: 0
@44263 Channel: 8 Note on, G3 key=55 velocity: 0
@44263 Channel: 8 Note on, C4 key=60 velocity: 0
@44310 Channel: 8 Note on, G3 key=55 velocity: 119
@44310 Channel: 8 Note on, C4 key=60 velocity: 119
@44310 Channel: 8 Note on, E4 key=64 velocity: 119
@44315 Channel: 8 Note on, E4 key=64 velocity: 0
@44315 Channel: 8 Note on, C4 key=60 velocity: 0
@44315 Channel: 8 Note on, G3 key=55 velocity: 0
@44340 Channel: 8 Note on, G3 key=55 velocity: 119
@44340 Channel: 8 Note on, C4 key=60 velocity: 119
@44340 Channel: 8 Note on, E4 key=64 velocity: 119
@44353 Channel: 8 Note on, E4 key=64 velocity: 0
@44353 Channel: 8 Note on, C4 key=60 velocity: 0
@44353 Channel: 8 Note on, G3 key=55 velocity: 0
@44400 Channel: 8 Note on, F4 key=65 velocity: 119
@44400 Channel: 8 Note on, G3 key=55 velocity: 119
@44400 Channel: 8 Note on, C4 key=60 velocity: 119
@44413 Channel: 8 Note on, C4 key=60 velocity: 0
@44413 Channel: 8 Note on, G3 key=55 velocity: 0
@44413 Channel: 8 Note on, F4 key=65 velocity: 0
@44460 Channel: 8 Note on, G3 key=55 velocity: 120
@44460 Channel: 8 Note on, C4 key=60 velocity: 120
@44460 Channel: 8 Note on, F4 key=65 velocity: 120
@44465 Channel: 8 Note on, F4 key=65 velocity: 0
@44465 Channel: 8 Note on, C4 key=60 velocity: 0
@44465 Channel: 8 Note on, G3 key=55 velocity: 0
@44490 Channel: 8 Note on, F4 key=65 velocity: 120
@44490 Channel: 8 Note on, C4 key=60 velocity: 120
@44490 Channel: 8 Note on, G3 key=55 velocity: 120
@44503 Channel: 8 Note on, G3 key=55 velocity: 0
@44503 Channel: 8 Note on, C4 key=60 velocity: 0
@44503 Channel: 8 Note on, F4 key=65 velocity: 0
@44550 Channel: 8 Note on, G3 key=55 velocity: 120
@44550 Channel: 8 Note on, C4 key=60 velocity: 120
@44550 Channel: 8 Note on, F4 key=65 velocity: 120
@44555 Channel: 8 Note on, F4 key=65 velocity: 0
@44555 Channel: 8 Note on, C4 key=60 velocity: 0
@44555 Channel: 8 Note on, G3 key=55 velocity: 0
@44580 Channel: 8 Note on, F4 key=65 velocity: 120
@44580 Channel: 8 Note on, G3 key=55 velocity: 120
@44580 Channel: 8 Note on, C4 key=60 velocity: 120
@44593 Channel: 8 Note on, C4 key=60 velocity: 0
@44593 Channel: 8 Note on, G3 key=55 velocity: 0
@44593 Channel: 8 Note on, F4 key=65 velocity: 0
@44640 Channel: 8 Command:176
@44640 Channel: 8 Note on, C4 key=60 velocity: 120
@44640 Channel: 8 Note on, G3 key=55 velocity: 120
@44640 Channel: 8 Note on, E4 key=64 velocity: 120
@44653 Channel: 8 Note on, E4 key=64 velocity: 0
@44653 Channel: 8 Note on, G3 key=55 velocity: 0
@44653 Channel: 8 Note on, C4 key=60 velocity: 0
@44673 Channel: 8 Command:176
@44700 Channel: 8 Note on, E4 key=64 velocity: 120
@44700 Channel: 8 Note on, G3 key=55 velocity: 120
@44700 Channel: 8 Note on, C4 key=60 velocity: 120
@44705 Channel: 8 Note on, C4 key=60 velocity: 0
@44705 Channel: 8 Note on, G3 key=55 velocity: 0
@44705 Channel: 8 Note on, E4 key=64 velocity: 0
@44707 Channel: 8 Command:176
@44730 Channel: 8 Note on, C4 key=60 velocity: 120
@44730 Channel: 8 Note on, G3 key=55 velocity: 120
@44730 Channel: 8 Note on, E4 key=64 velocity: 120
@44740 Channel: 8 Command:176
@44743 Channel: 8 Note on, E4 key=64 velocity: 0
@44743 Channel: 8 Note on, G3 key=55 velocity: 0
@44743 Channel: 8 Note on, C4 key=60 velocity: 0
@44774 Channel: 8 Command:176
@44790 Channel: 8 Note on, G3 key=55 velocity: 120
@44790 Channel: 8 Note on, C4 key=60 velocity: 120
@44790 Channel: 8 Note on, E4 key=64 velocity: 120
@44795 Channel: 8 Note on, E4 key=64 velocity: 0
@44795 Channel: 8 Note on, C4 key=60 velocity: 0
@44795 Channel: 8 Note on, G3 key=55 velocity: 0
@44807 Channel: 8 Command:176
@44820 Channel: 8 Note on, G3 key=55 velocity: 120
@44820 Channel: 8 Note on, C4 key=60 velocity: 120
@44820 Channel: 8 Note on, E4 key=64 velocity: 120
@44833 Channel: 8 Note on, E4 key=64 velocity: 0
@44833 Channel: 8 Note on, C4 key=60 velocity: 0
@44833 Channel: 8 Note on, G3 key=55 velocity: 0
@44841 Channel: 8 Command:176
@44875 Channel: 8 Command:176
@44880 Channel: 8 Note on, F4 key=65 velocity: 120
@44880 Channel: 8 Note on, G3 key=55 velocity: 120
@44880 Channel: 8 Note on, C4 key=60 velocity: 120
@44893 Channel: 8 Note on, C4 key=60 velocity: 0
@44893 Channel: 8 Note on, G3 key=55 velocity: 0
@44893 Channel: 8 Note on, F4 key=65 velocity: 0
@44908 Channel: 8 Command:176
@44940 Channel: 8 Note on, G3 key=55 velocity: 120
@44940 Channel: 8 Note on, C4 key=60 velocity: 120
@44940 Channel: 8 Note on, F4 key=65 velocity: 120
@44942 Channel: 8 Command:176
@44945 Channel: 8 Note on, F4 key=65 velocity: 0
@44945 Channel: 8 Note on, C4 key=60 velocity: 0
@44945 Channel: 8 Note on, G3 key=55 velocity: 0
@44970 Channel: 8 Note on, F4 key=65 velocity: 120
@44970 Channel: 8 Note on, C4 key=60 velocity: 120
@44970 Channel: 8 Note on, G3 key=55 velocity: 120
@44975 Channel: 8 Command:176
@44983 Channel: 8 Note on, G3 key=55 velocity: 0
@44983 Channel: 8 Note on, C4 key=60 velocity: 0
@44983 Channel: 8 Note on, F4 key=65 velocity: 0
@45009 Channel: 8 Command:176
@45030 Channel: 8 Note on, G3 key=55 velocity: 120
@45030 Channel: 8 Note on, C4 key=60 velocity: 120
@45030 Channel: 8 Note on, F4 key=65 velocity: 120
@45035 Channel: 8 Note on, F4 key=65 velocity: 0
@45035 Channel: 8 Note on, C4 key=60 velocity: 0
@45035 Channel: 8 Note on, G3 key=55 velocity: 0
@45043 Channel: 8 Command:176
@45060 Channel: 8 Note on, F4 key=65 velocity: 120
@45060 Channel: 8 Note on, G3 key=55 velocity: 120
@45060 Channel: 8 Note on, C4 key=60 velocity: 120
@45073 Channel: 8 Note on, C4 key=60 velocity: 0
@45073 Channel: 8 Note on, G3 key=55 velocity: 0
@45073 Channel: 8 Note on, F4 key=65 velocity: 0
@45076 Channel: 8 Command:176
@45110 Channel: 8 Command:176
@45120 Channel: 8 Note on, C4 key=60 velocity: 120
@45120 Channel: 8 Note on, G3 key=55 velocity: 120
@45120 Channel: 8 Note on, E4 key=64 velocity: 120
@45133 Channel: 8 Note on, E4 key=64 velocity: 0
@45133 Channel: 8 Note on, G3 key=55 velocity: 0
@45133 Channel: 8 Note on, C4 key=60 velocity: 0
@45143 Channel: 8 Command:176
@45177 Channel: 8 Command:176
@45180 Channel: 8 Note on, E4 key=64 velocity: 120
@45180 Channel: 8 Note on, G3 key=55 velocity: 120
@45180 Channel: 8 Note on, C4 key=60 velocity: 120
@45185 Channel: 8 Note on, C4 key=60 velocity: 0
@45185 Channel: 8 Note on, G3 key=55 velocity: 0
@45185 Channel: 8 Note on, E4 key=64 velocity: 0
@45210 Channel: 8 Note on, C4 key=60 velocity: 121
@45210 Channel: 8 Note on, G3 key=55 velocity: 121
@45210 Channel: 8 Note on, E4 key=64 velocity: 121
@45211 Channel: 8 Command:176
@45223 Channel: 8 Note on, E4 key=64 velocity: 0
@45223 Channel: 8 Note on, G3 key=55 velocity: 0
@45223 Channel: 8 Note on, C4 key=60 velocity: 0
@45244 Channel: 8 Command:176
@45270 Channel: 8 Note on, G3 key=55 velocity: 121
@45270 Channel: 8 Note on, C4 key=60 velocity: 121
@45270 Channel: 8 Note on, E4 key=64 velocity: 121
@45275 Channel: 8 Note on, E4 key=64 velocity: 0
@45275 Channel: 8 Note on, C4 key=60 velocity: 0
@45275 Channel: 8 Note on, G3 key=55 velocity: 0
@45278 Channel: 8 Command:176
@45300 Channel: 8 Note on, G3 key=55 velocity: 121
@45300 Channel: 8 Note on, C4 key=60 velocity: 121
@45300 Channel: 8 Note on, E4 key=64 velocity: 121
@45311 Channel: 8 Command:176
@45313 Channel: 8 Note on, E4 key=64 velocity: 0
@45313 Channel: 8 Note on, C4 key=60 velocity: 0
@45313 Channel: 8 Note on, G3 key=55 velocity: 0
@45345 Channel: 8 Command:176
@45360 Channel: 8 Note on, F4 key=65 velocity: 121
@45360 Channel: 8 Note on, G3 key=55 velocity: 121
@45360 Channel: 8 Note on, C4 key=60 velocity: 121
@45373 Channel: 8 Note on, C4 key=60 velocity: 0
@45373 Channel: 8 Note on, G3 key=55 velocity: 0
@45373 Channel: 8 Note on, F4 key=65 velocity: 0
@45378 Channel: 8 Command:176
@45412 Channel: 8 Command:176
@45420 Channel: 8 Note on, G3 key=55 velocity: 121
@45420 Channel: 8 Note on, C4 key=60 velocity: 121
@45420 Channel: 8 Note on, F4 key=65 velocity: 121
@45425 Channel: 8 Note on, F4 key=65 velocity: 0
@45425 Channel: 8 Note on, C4 key=60 velocity: 0
@45425 Channel: 8 Note on, G3 key=55 velocity: 0
@45446 Channel: 8 Command:176
@45450 Channel: 8 Note on, F4 key=65 velocity: 121
@45450 Channel: 8 Note on, C4 key=60 velocity: 121
@45450 Channel: 8 Note on, G3 key=55 velocity: 121
@45463 Channel: 8 Note on, G3 key=55 velocity: 0
@45463 Channel: 8 Note on, C4 key=60 velocity: 0
@45463 Channel: 8 Note on, F4 key=65 velocity: 0
@45479 Channel: 8 Command:176
@45510 Channel: 8 Note on, G3 key=55 velocity: 121
@45510 Channel: 8 Note on, C4 key=60 velocity: 121
@45510 Channel: 8 Note on, F4 key=65 velocity: 121
@45513 Channel: 8 Command:176
@45515 Channel: 8 Note on, F4 key=65 velocity: 0
@45515 Channel: 8 Note on, C4 key=60 velocity: 0
@45515 Channel: 8 Note on, G3 key=55 velocity: 0
@45540 Channel: 8 Note on, F4 key=65 velocity: 121
@45540 Channel: 8 Note on, G3 key=55 velocity: 121
@45540 Channel: 8 Note on, C4 key=60 velocity: 121
@45546 Channel: 8 Command:176
@45553 Channel: 8 Note on, C4 key=60 velocity: 0
@45553 Channel: 8 Note on, G3 key=55 velocity: 0
@45553 Channel: 8 Note on, F4 key=65 velocity: 0
@45580 Channel: 8 Command:176
@45600 Channel: 8 Note on, C4 key=60 velocity: 120
@45600 Channel: 8 Note on, G3 key=55 velocity: 120
@45600 Channel: 8 Note on, E4 key=64 velocity: 120
@45613 Channel: 8 Note on, E4 key=64 velocity: 0
@45613 Channel: 8 Note on, G3 key=55 velocity: 0
@45613 Channel: 8 Note on, C4 key=60 velocity: 0
@45614 Channel: 8 Command:176
@45647 Channel: 8 Command:176
@45660 Channel: 8 Note on, E4 key=64 velocity: 120
@45660 Channel: 8 Note on, G3 key=55 velocity: 120
@45660 Channel: 8 Note on, C4 key=60 velocity: 120
@45665 Channel: 8 Note on, C4 key=60 velocity: 0
@45665 Channel: 8 Note on, G3 key=55 velocity: 0
@45665 Channel: 8 Note on, E4 key=64 velocity: 0
@45681 Channel: 8 Command:176
@45690 Channel: 8 Note on, C4 key=60 velocity: 121
@45690 Channel: 8 Note on, G3 key=55 velocity: 121
@45690 Channel: 8 Note on, E4 key=64 velocity: 121
@45703 Channel: 8 Note on, E4 key=64 velocity: 0
@45703 Channel: 8 Note on, G3 key=55 velocity: 0
@45703 Channel: 8 Note on, C4 key=60 velocity: 0
@45714 Channel: 8 Command:176
@45748 Channel: 8 Command:176
@45750 Channel: 8 Note on, G3 key=55 velocity: 121
@45750 Channel: 8 Note on, C4 key=60 velocity: 121
@45750 Channel: 8 Note on, E4 key=64 velocity: 121
@45755 Channel: 8 Note on, E4 key=64 velocity: 0
@45755 Channel: 8 Note on, C4 key=60 velocity: 0
@45755 Channel: 8 Note on, G3 key=55 velocity: 0
@45780 Channel: 8 Note on, G3 key=55 velocity: 121
@45780 Channel: 8 Note on, C4 key=60 velocity: 121
@45780 Channel: 8 Note on, E4 key=64 velocity: 121
@45782 Channel: 8 Command:176
@45793 Channel: 8 Note on, E4 key=64 velocity: 0
@45793 Channel: 8 Note on, C4 key=60 velocity: 0
@45793 Channel: 8 Note on, G3 key=55 velocity: 0
@45815 Channel: 8 Command:176
@45840 Channel: 8 Note on, F4 key=65 velocity: 121
@45840 Channel: 8 Note on, G3 key=55 velocity: 121
@45840 Channel: 8 Note on, C4 key=60 velocity: 121
@45849 Channel: 8 Command:176
@45853 Channel: 8 Note on, C4 key=60 velocity: 0
@45853 Channel: 8 Note on, G3 key=55 velocity: 0
@45853 Channel: 8 Note on, F4 key=65 velocity: 0
@45882 Channel: 8 Command:176
@45900 Channel: 8 Note on, G3 key=55 velocity: 121
@45900 Channel: 8 Note on, C4 key=60 velocity: 121
@45900 Channel: 8 Note on, F4 key=65 velocity: 121
@45905 Channel: 8 Note on, F4 key=65 velocity: 0
@45905 Channel: 8 Note on, C4 key=60 velocity: 0
@45905 Channel: 8 Note on, G3 key=55 velocity: 0
@45916 Channel: 8 Command:176
@45930 Channel: 8 Note on, F4 key=65 velocity: 121
@45930 Channel: 8 Note on, C4 key=60 velocity: 121
@45930 Channel: 8 Note on, G3 key=55 velocity: 121
@45943 Channel: 8 Note on, G3 key=55 velocity: 0
@45943 Channel: 8 Note on, C4 key=60 velocity: 0
@45943 Channel: 8 Note on, F4 key=65 velocity: 0
@45950 Channel: 8 Command:176
@45983 Channel: 8 Command:176
@45990 Channel: 8 Note on, G3 key=55 velocity: 121
@45990 Channel: 8 Note on, C4 key=60 velocity: 121
@45990 Channel: 8 Note on, F4 key=65 velocity: 121
@45995 Channel: 8 Note on, F4 key=65 velocity: 0
@45995 Channel: 8 Note on, C4 key=60 velocity: 0
@45995 Channel: 8 Note on, G3 key=55 velocity: 0
@46017 Channel: 8 Command:176
@46020 Channel: 8 Note on, F4 key=65 velocity: 121
@46020 Channel: 8 Note on, G3 key=55 velocity: 121
@46020 Channel: 8 Note on, C4 key=60 velocity: 121
@46033 Channel: 8 Note on, C4 key=60 velocity: 0
@46033 Channel: 8 Note on, G3 key=55 velocity: 0
@46033 Channel: 8 Note on, F4 key=65 velocity: 0
@46050 Channel: 8 Command:176
@46080 Channel: 8 Note on, C4 key=60 velocity: 118
@46080 Channel: 8 Note on, G3 key=55 velocity: 118
@46080 Channel: 8 Note on, E4 key=64 velocity: 118
@46084 Channel: 8 Command:176
@46093 Channel: 8 Note on, E4 key=64 velocity: 0
@46093 Channel: 8 Note on, G3 key=55 velocity: 0
@46093 Channel: 8 Note on, C4 key=60 velocity: 0
@46117 Channel: 8 Command:176
@46140 Channel: 8 Note on, E4 key=64 velocity: 118
@46140 Channel: 8 Note on, G3 key=55 velocity: 118
@46140 Channel: 8 Note on, C4 key=60 velocity: 118
@46145 Channel: 8 Note on, C4 key=60 velocity: 0
@46145 Channel: 8 Note on, G3 key=55 velocity: 0
@46145 Channel: 8 Note on, E4 key=64 velocity: 0
@46151 Channel: 8 Command:176
@46170 Channel: 8 Note on, C4 key=60 velocity: 119
@46170 Channel: 8 Note on, G3 key=55 velocity: 119
@46170 Channel: 8 Note on, E4 key=64 velocity: 119
@46183 Channel: 8 Note on, E4 key=64 velocity: 0
@46183 Channel: 8 Note on, G3 key=55 velocity: 0
@46183 Channel: 8 Note on, C4 key=60 velocity: 0
@46185 Channel: 8 Command:176
@46218 Channel: 8 Command:176
@46230 Channel: 8 Note on, G3 key=55 velocity: 119
@46230 Channel: 8 Note on, C4 key=60 velocity: 119
@46230 Channel: 8 Note on, E4 key=64 velocity: 119
@46235 Channel: 8 Note on, E4 key=64 velocity: 0
@46235 Channel: 8 Note on, C4 key=60 velocity: 0
@46235 Channel: 8 Note on, G3 key=55 velocity: 0
@46252 Channel: 8 Command:176
@46260 Channel: 8 Note on, G3 key=55 velocity: 119
@46260 Channel: 8 Note on, C4 key=60 velocity: 119
@46260 Channel: 8 Note on, E4 key=64 velocity: 119
@46273 Channel: 8 Note on, E4 key=64 velocity: 0
@46273 Channel: 8 Note on, C4 key=60 velocity: 0
@46273 Channel: 8 Note on, G3 key=55 velocity: 0
@46285 Channel: 8 Command:176
@46319 Channel: 8 Command:176
@46320 Channel: 8 Note on, F4 key=65 velocity: 119
@46320 Channel: 8 Note on, G3 key=55 velocity: 119
@46320 Channel: 8 Note on, C4 key=60 velocity: 119
@46333 Channel: 8 Note on, C4 key=60 velocity: 0
@46333 Channel: 8 Note on, G3 key=55 velocity: 0
@46333 Channel: 8 Note on, F4 key=65 velocity: 0
@46353 Channel: 8 Command:176
@46380 Channel: 8 Note on, G3 key=55 velocity: 120
@46380 Channel: 8 Note on, C4 key=60 velocity: 120
@46380 Channel: 8 Note on, F4 key=65 velocity: 120
@46385 Channel: 8 Note on, F4 key=65 velocity: 0
@46385 Channel: 8 Note on, C4 key=60 velocity: 0
@46385 Channel: 8 Note on, G3 key=55 velocity: 0
@46386 Channel: 8 Command:176
@46410 Channel: 8 Note on, F4 key=65 velocity: 120
@46410 Channel: 8 Note on, C4 key=60 velocity: 120
@46410 Channel: 8 Note on, G3 key=55 velocity: 120
@46420 Channel: 8 Command:176
@46423 Channel: 8 Note on, G3 key=55 velocity: 0
@46423 Channel: 8 Note on, C4 key=60 velocity: 0
@46423 Channel: 8 Note on, F4 key=65 velocity: 0
@46453 Channel: 8 Command:176
@46470 Channel: 8 Note on, G3 key=55 velocity: 120
@46470 Channel: 8 Note on, C4 key=60 velocity: 120
@46470 Channel: 8 Note on, F4 key=65 velocity: 120
@46475 Channel: 8 Note on, F4 key=65 velocity: 0
@46475 Channel: 8 Note on, C4 key=60 velocity: 0
@46475 Channel: 8 Note on, G3 key=55 velocity: 0
@46487 Channel: 8 Command:176
@46500 Channel: 8 Note on, F4 key=65 velocity: 120
@46500 Channel: 8 Note on, G3 key=55 velocity: 120
@46500 Channel: 8 Note on, C4 key=60 velocity: 120
@46513 Channel: 8 Note on, C4 key=60 velocity: 0
@46513 Channel: 8 Note on, G3 key=55 velocity: 0
@46513 Channel: 8 Note on, F4 key=65 velocity: 0
@46521 Channel: 8 Command:176
@46554 Channel: 8 Command:176
@46560 Channel: 8 Note on, C4 key=60 velocity: 120
@46560 Channel: 8 Note on, G3 key=55 velocity: 120
@46560 Channel: 8 Note on, E4 key=64 velocity: 120
@46573 Channel: 8 Note on, E4 key=64 velocity: 0
@46573 Channel: 8 Note on, G3 key=55 velocity: 0
@46573 Channel: 8 Note on, C4 key=60 velocity: 0
@46588 Channel: 8 Command:176
@46620 Channel: 8 Note on, E4 key=64 velocity: 120
@46620 Channel: 8 Note on, G3 key=55 velocity: 120
@46620 Channel: 8 Note on, C4 key=60 velocity: 120
@46621 Channel: 8 Command:176
@46625 Channel: 8 Note on, C4 key=60 velocity: 0
@46625 Channel: 8 Note on, G3 key=55 velocity: 0
@46625 Channel: 8 Note on, E4 key=64 velocity: 0
@46650 Channel: 8 Note on, C4 key=60 velocity: 120
@46650 Channel: 8 Note on, G3 key=55 velocity: 120
@46650 Channel: 8 Note on, E4 key=64 velocity: 120
@46655 Channel: 8 Command:176
@46663 Channel: 8 Note on, E4 key=64 velocity: 0
@46663 Channel: 8 Note on, G3 key=55 velocity: 0
@46663 Channel: 8 Note on, C4 key=60 velocity: 0
@46688 Channel: 8 Command:176
@46710 Channel: 8 Note on, G3 key=55 velocity: 120
@46710 Channel: 8 Note on, C4 key=60 velocity: 120
@46710 Channel: 8 Note on, E4 key=64 velocity: 120
@46715 Channel: 8 Note on, E4 key=64 velocity: 0
@46715 Channel: 8 Note on, C4 key=60 velocity: 0
@46715 Channel: 8 Note on, G3 key=55 velocity: 0
@46722 Channel: 8 Command:176
@46740 Channel: 8 Note on, G3 key=55 velocity: 120
@46740 Channel: 8 Note on, C4 key=60 velocity: 120
@46740 Channel: 8 Note on, E4 key=64 velocity: 120
@46753 Channel: 8 Note on, E4 key=64 velocity: 0
@46753 Channel: 8 Note on, C4 key=60 velocity: 0
@46753 Channel: 8 Note on, G3 key=55 velocity: 0
@46756 Channel: 8 Command:176
@46789 Channel: 8 Command:176
@46800 Channel: 8 Note on, F4 key=65 velocity: 120
@46800 Channel: 8 Note on, G3 key=55 velocity: 120
@46800 Channel: 8 Note on, C4 key=60 velocity: 120
@46813 Channel: 8 Note on, C4 key=60 velocity: 0
@46813 Channel: 8 Note on, G3 key=55 velocity: 0
@46813 Channel: 8 Note on, F4 key=65 velocity: 0
@46823 Channel: 8 Command:176
@46856 Channel: 8 Command:176
@46860 Channel: 8 Note on, G3 key=55 velocity: 120
@46860 Channel: 8 Note on, C4 key=60 velocity: 120
@46860 Channel: 8 Note on, F4 key=65 velocity: 120
@46865 Channel: 8 Note on, F4 key=65 velocity: 0
@46865 Channel: 8 Note on, C4 key=60 velocity: 0
@46865 Channel: 8 Note on, G3 key=55 velocity: 0
@46890 Channel: 8 Command:176
@46890 Channel: 8 Note on, F4 key=65 velocity: 120
@46890 Channel: 8 Note on, C4 key=60 velocity: 120
@46890 Channel: 8 Note on, G3 key=55 velocity: 120
@46903 Channel: 8 Note on, G3 key=55 velocity: 0
@46903 Channel: 8 Note on, C4 key=60 velocity: 0
@46903 Channel: 8 Note on, F4 key=65 velocity: 0
@46924 Channel: 8 Command:176
@46950 Channel: 8 Note on, G3 key=55 velocity: 120
@46950 Channel: 8 Note on, C4 key=60 velocity: 120
@46950 Channel: 8 Note on, F4 key=65 velocity: 120
@46955 Channel: 8 Note on, F4 key=65 velocity: 0
@46955 Channel: 8 Note on, C4 key=60 velocity: 0
@46955 Channel: 8 Note on, G3 key=55 velocity: 0
@46957 Channel: 8 Command:176
@46980 Channel: 8 Note on, F4 key=65 velocity: 120
@46980 Channel: 8 Note on, G3 key=55 velocity: 120
@46980 Channel: 8 Note on, C4 key=60 velocity: 120
@46991 Channel: 8 Command:176
@46993 Channel: 8 Note on, C4 key=60 velocity: 0
@46993 Channel: 8 Note on, G3 key=55 velocity: 0
@46993 Channel: 8 Note on, F4 key=65 velocity: 0
@47024 Channel: 8 Command:176
@47040 Channel: 8 Note on, C4 key=60 velocity: 120
@47040 Channel: 8 Note on, G3 key=55 velocity: 120
@47040 Channel: 8 Note on, E4 key=64 velocity: 120
@47053 Channel: 8 Note on, E4 key=64 velocity: 0
@47053 Channel: 8 Note on, G3 key=55 velocity: 0
@47053 Channel: 8 Note on, C4 key=60 velocity: 0
@47058 Channel: 8 Command:176
@47092 Channel: 8 Command:176
@47100 Channel: 8 Note on, E4 key=64 velocity: 120
@47100 Channel: 8 Note on, G3 key=55 velocity: 120
@47100 Channel: 8 Note on, C4 key=60 velocity: 120
@47105 Channel: 8 Note on, C4 key=60 velocity: 0
@47105 Channel: 8 Note on, G3 key=55 velocity: 0
@47105 Channel: 8 Note on, E4 key=64 velocity: 0
@47125 Channel: 8 Command:176
@47130 Channel: 8 Note on, C4 key=60 velocity: 121
@47130 Channel: 8 Note on, G3 key=55 velocity: 121
@47130 Channel: 8 Note on, E4 key=64 velocity: 121
@47143 Channel: 8 Note on, E4 key=64 velocity: 0
@47143 Channel: 8 Note on, G3 key=55 velocity: 0
@47143 Channel: 8 Note on, C4 key=60 velocity: 0
@47159 Channel: 8 Command:176
@47190 Channel: 8 Note on, G3 key=55 velocity: 121
@47190 Channel: 8 Note on, C4 key=60 velocity: 121
@47190 Channel: 8 Note on, E4 key=64 velocity: 121
@47192 Channel: 8 Command:176
@47195 Channel: 8 Note on, E4 key=64 velocity: 0
@47195 Channel: 8 Note on, C4 key=60 velocity: 0
@47195 Channel: 8 Note on, G3 key=55 velocity: 0
@47220 Channel: 8 Note on, G3 key=55 velocity: 121
@47220 Channel: 8 Note on, C4 key=60 velocity: 121
@47220 Channel: 8 Note on, E4 key=64 velocity: 121
@47226 Channel: 8 Command:176
@47233 Channel: 8 Note on, E4 key=64 velocity: 0
@47233 Channel: 8 Note on, C4 key=60 velocity: 0
@47233 Channel: 8 Note on, G3 key=55 velocity: 0
@47260 Channel: 8 Command:176
@47280 Channel: 8 Note on, F4 key=65 velocity: 121
@47280 Channel: 8 Note on, G3 key=55 velocity: 121
@47280 Channel: 8 Note on, C4 key=60 velocity: 121
@47293 Channel: 8 Note on, C4 key=60 velocity: 0
@47293 Channel: 8 Note on, G3 key=55 velocity: 0
@47293 Channel: 8 Note on, F4 key=65 velocity: 0
@47293 Channel: 8 Command:176
@47327 Channel: 8 Command:176
@47340 Channel: 8 Note on, G3 key=55 velocity: 121
@47340 Channel: 8 Note on, C4 key=60 velocity: 121
@47340 Channel: 8 Note on, F4 key=65 velocity: 121
@47345 Channel: 8 Note on, F4 key=65 velocity: 0
@47345 Channel: 8 Note on, C4 key=60 velocity: 0
@47345 Channel: 8 Note on, G3 key=55 velocity: 0
@47360 Channel: 8 Command:176
@47370 Channel: 8 Note on, F4 key=65 velocity: 121
@47370 Channel: 8 Note on, C4 key=60 velocity: 121
@47370 Channel: 8 Note on, G3 key=55 velocity: 121
@47383 Channel: 8 Note on, G3 key=55 velocity: 0
@47383 Channel: 8 Note on, C4 key=60 velocity: 0
@47383 Channel: 8 Note on, F4 key=65 velocity: 0
@47394 Channel: 8 Command:176
@47427 Channel: 8 Command:176
@47430 Channel: 8 Note on, G3 key=55 velocity: 121
@47430 Channel: 8 Note on, C4 key=60 velocity: 121
@47430 Channel: 8 Note on, F4 key=65 velocity: 121
@47435 Channel: 8 Note on, F4 key=65 velocity: 0
@47435 Channel: 8 Note on, C4 key=60 velocity: 0
@47435 Channel: 8 Note on, G3 key=55 velocity: 0
@47460 Channel: 8 Note on, F4 key=65 velocity: 121
@47460 Channel: 8 Note on, G3 key=55 velocity: 121
@47460 Channel: 8 Note on, C4 key=60 velocity: 121
@47461 Channel: 8 Command:176
@47473 Channel: 8 Note on, C4 key=60 velocity: 0
@47473 Channel: 8 Note on, G3 key=55 velocity: 0
@47473 Channel: 8 Note on, F4 key=65 velocity: 0
@47495 Channel: 8 Command:176
@47520 Channel: 8 Note on, C4 key=60 velocity: 120
@47520 Channel: 8 Note on, G3 key=55 velocity: 120
@47520 Channel: 8 Note on, E4 key=64 velocity: 120
@47528 Channel: 8 Command:176
@47533 Channel: 8 Note on, E4 key=64 velocity: 0
@47533 Channel: 8 Note on, G3 key=55 velocity: 0
@47533 Channel: 8 Note on, C4 key=60 velocity: 0
@47562 Channel: 8 Command:176
@47580 Channel: 8 Note on, E4 key=64 velocity: 120
@47580 Channel: 8 Note on, G3 key=55 velocity: 120
@47580 Channel: 8 Note on, C4 key=60 velocity: 120
@47585 Channel: 8 Note on, C4 key=60 velocity: 0
@47585 Channel: 8 Note on, G3 key=55 velocity: 0
@47585 Channel: 8 Note on, E4 key=64 velocity: 0
@47595 Channel: 8 Command:176
@47610 Channel: 8 Note on, C4 key=60 velocity: 121
@47610 Channel: 8 Note on, G3 key=55 velocity: 121
@47610 Channel: 8 Note on, E4 key=64 velocity: 121
@47623 Channel: 8 Note on, E4 key=64 velocity: 0
@47623 Channel: 8 Note on, G3 key=55 velocity: 0
@47623 Channel: 8 Note on, C4 key=60 velocity: 0
@47629 Channel: 8 Command:176
@47663 Channel: 8 Command:176
@47670 Channel: 8 Note on, G3 key=55 velocity: 121
@47670 Channel: 8 Note on, C4 key=60 velocity: 121
@47670 Channel: 8 Note on, E4 key=64 velocity: 121
@47675 Channel: 8 Note on, E4 key=64 velocity: 0
@47675 Channel: 8 Note on, C4 key=60 velocity: 0
@47675 Channel: 8 Note on, G3 key=55 velocity: 0
@47696 Channel: 8 Command:176
@47700 Channel: 8 Note on, G3 key=55 velocity: 121
@47700 Channel: 8 Note on, C4 key=60 velocity: 121
@47700 Channel: 8 Note on, E4 key=64 velocity: 121
@47713 Channel: 8 Note on, E4 key=64 velocity: 0
@47713 Channel: 8 Note on, C4 key=60 velocity: 0
@47713 Channel: 8 Note on, G3 key=55 velocity: 0
@47730 Channel: 8 Command:176
@47760 Channel: 8 Note on, F4 key=65 velocity: 121
@47760 Channel: 8 Note on, G3 key=55 velocity: 121
@47760 Channel: 8 Note on, C4 key=60 velocity: 121
@47763 Channel: 8 Command:176
@47773 Channel: 8 Note on, C4 key=60 velocity: 0
@47773 Channel: 8 Note on, G3 key=55 velocity: 0
@47773 Channel: 8 Note on, F4 key=65 velocity: 0
@47797 Channel: 8 Command:176
@47820 Channel: 8 Note on, G3 key=55 velocity: 121
@47820 Channel: 8 Note on, C4 key=60 velocity: 121
@47820 Channel: 8 Note on, F4 key=65 velocity: 121
@47825 Channel: 8 Note on, F4 key=65 velocity: 0
@47825 Channel: 8 Note on, C4 key=60 velocity: 0
@47825 Channel: 8 Note on, G3 key=55 velocity: 0
@47831 Channel: 8 Command:176
@47850 Channel: 8 Note on, F4 key=65 velocity: 121
@47850 Channel: 8 Note on, C4 key=60 velocity: 121
@47850 Channel: 8 Note on, G3 key=55 velocity: 121
@47863 Channel: 8 Note on, G3 key=55 velocity: 0
@47863 Channel: 8 Note on, C4 key=60 velocity: 0
@47863 Channel: 8 Note on, F4 key=65 velocity: 0
@47864 Channel: 8 Command:176
@47898 Channel: 8 Command:176
@47910 Channel: 8 Note on, G3 key=55 velocity: 121
@47910 Channel: 8 Note on, C4 key=60 velocity: 121
@47910 Channel: 8 Note on, F4 key=65 velocity: 121
@47915 Channel: 8 Note on, F4 key=65 velocity: 0
@47915 Channel: 8 Note on, C4 key=60 velocity: 0
@47915 Channel: 8 Note on, G3 key=55 velocity: 0
@47931 Channel: 8 Command:176
@47940 Channel: 8 Note on, F4 key=65 velocity: 121
@47940 Channel: 8 Note on, G3 key=55 velocity: 121
@47940 Channel: 8 Note on, C4 key=60 velocity: 121
@47953 Channel: 8 Note on, C4 key=60 velocity: 0
@47953 Channel: 8 Note on, G3 key=55 velocity: 0
@47953 Channel: 8 Note on, F4 key=65 velocity: 0
@47965 Channel: 8 Command:176
@47999 Channel: 8 Command:176
@47999 Other message: class javax.sound.midi.Track$ImmutableEndOfTrack

Track 3: size = 5889

@0 Other message: class javax.sound.midi.MetaMessage
@0 Other message: class javax.sound.midi.MetaMessage
@0 Channel: 7 Command:192
@0 Channel: 7 Command:176
@0 Channel: 7 Command:176
@0 Channel: 7 Note on, C4 key=60 velocity: 88
@0 Channel: 7 Note on, G3 key=55 velocity: 88
@0 Channel: 7 Note on, E4 key=64 velocity: 88
@0 Channel: 7 Command:176
@0 Channel: 7 Command:176
@30 Channel: 7 Note on, E4 key=64 velocity: 0
@30 Channel: 7 Note on, G3 key=55 velocity: 0
@30 Channel: 7 Note on, C4 key=60 velocity: 0
@60 Channel: 7 Note on, E4 key=64 velocity: 89
@60 Channel: 7 Note on, G3 key=55 velocity: 89
@60 Channel: 7 Note on, C4 key=60 velocity: 89
@72 Channel: 7 Note on, C4 key=60 velocity: 0
@72 Channel: 7 Note on, G3 key=55 velocity: 0
@72 Channel: 7 Note on, E4 key=64 velocity: 0
@90 Channel: 7 Note on, C4 key=60 velocity: 89
@90 Channel: 7 Note on, G3 key=55 velocity: 89
@90 Channel: 7 Note on, E4 key=64 velocity: 89
@120 Channel: 7 Note on, E4 key=64 velocity: 0
@120 Channel: 7 Note on, G3 key=55 velocity: 0
@120 Channel: 7 Note on, C4 key=60 velocity: 0
@150 Channel: 7 Note on, G3 key=55 velocity: 89
@150 Channel: 7 Note on, C4 key=60 velocity: 89
@150 Channel: 7 Note on, E4 key=64 velocity: 89
@162 Channel: 7 Note on, E4 key=64 velocity: 0
@162 Channel: 7 Note on, C4 key=60 velocity: 0
@162 Channel: 7 Note on, G3 key=55 velocity: 0
@180 Channel: 7 Note on, G3 key=55 velocity: 89
@180 Channel: 7 Note on, C4 key=60 velocity: 89
@180 Channel: 7 Note on, E4 key=64 velocity: 89
@210 Channel: 7 Note on, E4 key=64 velocity: 0
@210 Channel: 7 Note on, C4 key=60 velocity: 0
@210 Channel: 7 Note on, G3 key=55 velocity: 0
@240 Channel: 7 Note on, F4 key=65 velocity: 89
@240 Channel: 7 Note on, G3 key=55 velocity: 89
@240 Channel: 7 Note on, C4 key=60 velocity: 89
@270 Channel: 7 Note on, C4 key=60 velocity: 0
@270 Channel: 7 Note on, G3 key=55 velocity: 0
@270 Channel: 7 Note on, F4 key=65 velocity: 0
@300 Channel: 7 Note on, G3 key=55 velocity: 90
@300 Channel: 7 Note on, C4 key=60 velocity: 90
@300 Channel: 7 Note on, F4 key=65 velocity: 90
@312 Channel: 7 Note on, F4 key=65 velocity: 0
@312 Channel: 7 Note on, C4 key=60 velocity: 0
@312 Channel: 7 Note on, G3 key=55 velocity: 0
@330 Channel: 7 Note on, F4 key=65 velocity: 90
@330 Channel: 7 Note on, C4 key=60 velocity: 90
@330 Channel: 7 Note on, G3 key=55 velocity: 90
@360 Channel: 7 Note on, G3 key=55 velocity: 0
@360 Channel: 7 Note on, C4 key=60 velocity: 0
@360 Channel: 7 Note on, F4 key=65 velocity: 0
@390 Channel: 7 Note on, G3 key=55 velocity: 90
@390 Channel: 7 Note on, C4 key=60 velocity: 90
@390 Channel: 7 Note on, F4 key=65 velocity: 90
@402 Channel: 7 Note on, F4 key=65 velocity: 0
@402 Channel: 7 Note on, C4 key=60 velocity: 0
@402 Channel: 7 Note on, G3 key=55 velocity: 0
@420 Channel: 7 Note on, F4 key=65 velocity: 90
@420 Channel: 7 Note on, G3 key=55 velocity: 90
@420 Channel: 7 Note on, C4 key=60 velocity: 90
@450 Channel: 7 Note on, C4 key=60 velocity: 0
@450 Channel: 7 Note on, G3 key=55 velocity: 0
@450 Channel: 7 Note on, F4 key=65 velocity: 0
@480 Channel: 7 Note on, C4 key=60 velocity: 90
@480 Channel: 7 Note on, G3 key=55 velocity: 90
@480 Channel: 7 Note on, E4 key=64 velocity: 90
@510 Channel: 7 Note on, E4 key=64 velocity: 0
@510 Channel: 7 Note on, G3 key=55 velocity: 0
@510 Channel: 7 Note on, C4 key=60 velocity: 0
@540 Channel: 7 Note on, E4 key=64 velocity: 90
@540 Channel: 7 Note on, G3 key=55 velocity: 90
@540 Channel: 7 Note on, C4 key=60 velocity: 90
@552 Channel: 7 Note on, C4 key=60 velocity: 0
@552 Channel: 7 Note on, G3 key=55 velocity: 0
@552 Channel: 7 Note on, E4 key=64 velocity: 0
@570 Channel: 7 Note on, C4 key=60 velocity: 90
@570 Channel: 7 Note on, G3 key=55 velocity: 90
@570 Channel: 7 Note on, E4 key=64 velocity: 90
@600 Channel: 7 Note on, E4 key=64 velocity: 0
@600 Channel: 7 Note on, G3 key=55 velocity: 0
@600 Channel: 7 Note on, C4 key=60 velocity: 0
@630 Channel: 7 Note on, G3 key=55 velocity: 90
@630 Channel: 7 Note on, C4 key=60 velocity: 90
@630 Channel: 7 Note on, E4 key=64 velocity: 90
@642 Channel: 7 Note on, E4 key=64 velocity: 0
@642 Channel: 7 Note on, C4 key=60 velocity: 0
@642 Channel: 7 Note on, G3 key=55 velocity: 0
@660 Channel: 7 Note on, G3 key=55 velocity: 90
@660 Channel: 7 Note on, C4 key=60 velocity: 90
@660 Channel: 7 Note on, E4 key=64 velocity: 90
@690 Channel: 7 Note on, E4 key=64 velocity: 0
@690 Channel: 7 Note on, C4 key=60 velocity: 0
@690 Channel: 7 Note on, G3 key=55 velocity: 0
@720 Channel: 7 Note on, F4 key=65 velocity: 90
@720 Channel: 7 Note on, G3 key=55 velocity: 90
@720 Channel: 7 Note on, C4 key=60 velocity: 90
@750 Channel: 7 Note on, C4 key=60 velocity: 0
@750 Channel: 7 Note on, G3 key=55 velocity: 0
@750 Channel: 7 Note on, F4 key=65 velocity: 0
@780 Channel: 7 Note on, G3 key=55 velocity: 90
@780 Channel: 7 Note on, C4 key=60 velocity: 90
@780 Channel: 7 Note on, F4 key=65 velocity: 90
@792 Channel: 7 Note on, F4 key=65 velocity: 0
@792 Channel: 7 Note on, C4 key=60 velocity: 0
@792 Channel: 7 Note on, G3 key=55 velocity: 0
@810 Channel: 7 Note on, F4 key=65 velocity: 90
@810 Channel: 7 Note on, C4 key=60 velocity: 90
@810 Channel: 7 Note on, G3 key=55 velocity: 90
@840 Channel: 7 Note on, G3 key=55 velocity: 0
@840 Channel: 7 Note on, C4 key=60 velocity: 0
@840 Channel: 7 Note on, F4 key=65 velocity: 0
@870 Channel: 7 Note on, G3 key=55 velocity: 90
@870 Channel: 7 Note on, C4 key=60 velocity: 90
@870 Channel: 7 Note on, F4 key=65 velocity: 90
@882 Channel: 7 Note on, F4 key=65 velocity: 0
@882 Channel: 7 Note on, C4 key=60 velocity: 0
@882 Channel: 7 Note on, G3 key=55 velocity: 0
@900 Channel: 7 Note on, F4 key=65 velocity: 90
@900 Channel: 7 Note on, G3 key=55 velocity: 90
@900 Channel: 7 Note on, C4 key=60 velocity: 90
@930 Channel: 7 Note on, C4 key=60 velocity: 0
@930 Channel: 7 Note on, G3 key=55 velocity: 0
@930 Channel: 7 Note on, F4 key=65 velocity: 0
@960 Channel: 7 Note on, C4 key=60 velocity: 90
@960 Channel: 7 Note on, G3 key=55 velocity: 90
@960 Channel: 7 Note on, E4 key=64 velocity: 90
@990 Channel: 7 Note on, E4 key=64 velocity: 0
@990 Channel: 7 Note on, G3 key=55 velocity: 0
@990 Channel: 7 Note on, C4 key=60 velocity: 0
@1020 Channel: 7 Note on, E4 key=64 velocity: 90
@1020 Channel: 7 Note on, G3 key=55 velocity: 90
@1020 Channel: 7 Note on, C4 key=60 velocity: 90
@1032 Channel: 7 Note on, C4 key=60 velocity: 0
@1032 Channel: 7 Note on, G3 key=55 velocity: 0
@1032 Channel: 7 Note on, E4 key=64 velocity: 0
@1050 Channel: 7 Note on, C4 key=60 velocity: 91
@1050 Channel: 7 Note on, G3 key=55 velocity: 91
@1050 Channel: 7 Note on, E4 key=64 velocity: 91
@1080 Channel: 7 Note on, E4 key=64 velocity: 0
@1080 Channel: 7 Note on, G3 key=55 velocity: 0
@1080 Channel: 7 Note on, C4 key=60 velocity: 0
@1110 Channel: 7 Note on, G3 key=55 velocity: 91
@1110 Channel: 7 Note on, C4 key=60 velocity: 91
@1110 Channel: 7 Note on, E4 key=64 velocity: 91
@1122 Channel: 7 Note on, E4 key=64 velocity: 0
@1122 Channel: 7 Note on, C4 key=60 velocity: 0
@1122 Channel: 7 Note on, G3 key=55 velocity: 0
@1140 Channel: 7 Note on, G3 key=55 velocity: 91
@1140 Channel: 7 Note on, C4 key=60 velocity: 91
@1140 Channel: 7 Note on, E4 key=64 velocity: 91
@1170 Channel: 7 Note on, E4 key=64 velocity: 0
@1170 Channel: 7 Note on, C4 key=60 velocity: 0
@1170 Channel: 7 Note on, G3 key=55 velocity: 0
@1200 Channel: 7 Note on, F4 key=65 velocity: 91
@1200 Channel: 7 Note on, G3 key=55 velocity: 91
@1200 Channel: 7 Note on, C4 key=60 velocity: 91
@1230 Channel: 7 Note on, C4 key=60 velocity: 0
@1230 Channel: 7 Note on, G3 key=55 velocity: 0
@1230 Channel: 7 Note on, F4 key=65 velocity: 0
@1260 Channel: 7 Note on, G3 key=55 velocity: 91
@1260 Channel: 7 Note on, C4 key=60 velocity: 91
@1260 Channel: 7 Note on, F4 key=65 velocity: 91
@1272 Channel: 7 Note on, F4 key=65 velocity: 0
@1272 Channel: 7 Note on, C4 key=60 velocity: 0
@1272 Channel: 7 Note on, G3 key=55 velocity: 0
@1290 Channel: 7 Note on, F4 key=65 velocity: 91
@1290 Channel: 7 Note on, C4 key=60 velocity: 91
@1290 Channel: 7 Note on, G3 key=55 velocity: 91
@1320 Channel: 7 Note on, G3 key=55 velocity: 0
@1320 Channel: 7 Note on, C4 key=60 velocity: 0
@1320 Channel: 7 Note on, F4 key=65 velocity: 0
@1350 Channel: 7 Note on, G3 key=55 velocity: 91
@1350 Channel: 7 Note on, C4 key=60 velocity: 91
@1350 Channel: 7 Note on, F4 key=65 velocity: 91
@1362 Channel: 7 Note on, F4 key=65 velocity: 0
@1362 Channel: 7 Note on, C4 key=60 velocity: 0
@1362 Channel: 7 Note on, G3 key=55 velocity: 0
@1380 Channel: 7 Note on, F4 key=65 velocity: 91
@1380 Channel: 7 Note on, G3 key=55 velocity: 91
@1380 Channel: 7 Note on, C4 key=60 velocity: 91
@1410 Channel: 7 Note on, C4 key=60 velocity: 0
@1410 Channel: 7 Note on, G3 key=55 velocity: 0
@1410 Channel: 7 Note on, F4 key=65 velocity: 0
@1440 Channel: 7 Note on, C4 key=60 velocity: 91
@1440 Channel: 7 Note on, G3 key=55 velocity: 91
@1440 Channel: 7 Note on, E4 key=64 velocity: 91
@1470 Channel: 7 Note on, E4 key=64 velocity: 0
@1470 Channel: 7 Note on, G3 key=55 velocity: 0
@1470 Channel: 7 Note on, C4 key=60 velocity: 0
@1500 Channel: 7 Note on, E4 key=64 velocity: 91
@1500 Channel: 7 Note on, G3 key=55 velocity: 91
@1500 Channel: 7 Note on, C4 key=60 velocity: 91
@1512 Channel: 7 Note on, C4 key=60 velocity: 0
@1512 Channel: 7 Note on, G3 key=55 velocity: 0
@1512 Channel: 7 Note on, E4 key=64 velocity: 0
@1530 Channel: 7 Note on, C4 key=60 velocity: 91
@1530 Channel: 7 Note on, G3 key=55 velocity: 91
@1530 Channel: 7 Note on, E4 key=64 velocity: 91
@1560 Channel: 7 Note on, E4 key=64 velocity: 0
@1560 Channel: 7 Note on, G3 key=55 velocity: 0
@1560 Channel: 7 Note on, C4 key=60 velocity: 0
@1590 Channel: 7 Note on, G3 key=55 velocity: 91
@1590 Channel: 7 Note on, C4 key=60 velocity: 91
@1590 Channel: 7 Note on, E4 key=64 velocity: 91
@1602 Channel: 7 Note on, E4 key=64 velocity: 0
@1602 Channel: 7 Note on, C4 key=60 velocity: 0
@1602 Channel: 7 Note on, G3 key=55 velocity: 0
@1620 Channel: 7 Note on, G3 key=55 velocity: 91
@1620 Channel: 7 Note on, C4 key=60 velocity: 91
@1620 Channel: 7 Note on, E4 key=64 velocity: 91
@1650 Channel: 7 Note on, E4 key=64 velocity: 0
@1650 Channel: 7 Note on, C4 key=60 velocity: 0
@1650 Channel: 7 Note on, G3 key=55 velocity: 0
@1680 Channel: 7 Note on, F4 key=65 velocity: 91
@1680 Channel: 7 Note on, G3 key=55 velocity: 91
@1680 Channel: 7 Note on, C4 key=60 velocity: 91
@1710 Channel: 7 Note on, C4 key=60 velocity: 0
@1710 Channel: 7 Note on, G3 key=55 velocity: 0
@1710 Channel: 7 Note on, F4 key=65 velocity: 0
@1740 Channel: 7 Note on, G3 key=55 velocity: 91
@1740 Channel: 7 Note on, C4 key=60 velocity: 91
@1740 Channel: 7 Note on, F4 key=65 velocity: 91
@1752 Channel: 7 Note on, F4 key=65 velocity: 0
@1752 Channel: 7 Note on, C4 key=60 velocity: 0
@1752 Channel: 7 Note on, G3 key=55 velocity: 0
@1770 Channel: 7 Note on, F4 key=65 velocity: 91
@1770 Channel: 7 Note on, C4 key=60 velocity: 91
@1770 Channel: 7 Note on, G3 key=55 velocity: 91
@1800 Channel: 7 Note on, G3 key=55 velocity: 0
@1800 Channel: 7 Note on, C4 key=60 velocity: 0
@1800 Channel: 7 Note on, F4 key=65 velocity: 0
@1830 Channel: 7 Note on, G3 key=55 velocity: 91
@1830 Channel: 7 Note on, C4 key=60 velocity: 91
@1830 Channel: 7 Note on, F4 key=65 velocity: 91
@1842 Channel: 7 Note on, F4 key=65 velocity: 0
@1842 Channel: 7 Note on, C4 key=60 velocity: 0
@1842 Channel: 7 Note on, G3 key=55 velocity: 0
@1860 Channel: 7 Note on, F4 key=65 velocity: 91
@1860 Channel: 7 Note on, G3 key=55 velocity: 91
@1860 Channel: 7 Note on, C4 key=60 velocity: 91
@1890 Channel: 7 Note on, C4 key=60 velocity: 0
@1890 Channel: 7 Note on, G3 key=55 velocity: 0
@1890 Channel: 7 Note on, F4 key=65 velocity: 0
@1920 Channel: 7 Note on, C4 key=60 velocity: 91
@1920 Channel: 7 Note on, G3 key=55 velocity: 91
@1920 Channel: 7 Note on, E4 key=64 velocity: 91
@1950 Channel: 7 Note on, E4 key=64 velocity: 0
@1950 Channel: 7 Note on, G3 key=55 velocity: 0
@1950 Channel: 7 Note on, C4 key=60 velocity: 0
@1980 Channel: 7 Note on, E4 key=64 velocity: 91
@1980 Channel: 7 Note on, G3 key=55 velocity: 91
@1980 Channel: 7 Note on, C4 key=60 velocity: 91
@1992 Channel: 7 Note on, C4 key=60 velocity: 0
@1992 Channel: 7 Note on, G3 key=55 velocity: 0
@1992 Channel: 7 Note on, E4 key=64 velocity: 0
@2010 Channel: 7 Note on, C4 key=60 velocity: 91
@2010 Channel: 7 Note on, G3 key=55 velocity: 91
@2010 Channel: 7 Note on, E4 key=64 velocity: 91
@2040 Channel: 7 Note on, E4 key=64 velocity: 0
@2040 Channel: 7 Note on, G3 key=55 velocity: 0
@2040 Channel: 7 Note on, C4 key=60 velocity: 0
@2070 Channel: 7 Note on, G3 key=55 velocity: 91
@2070 Channel: 7 Note on, C4 key=60 velocity: 91
@2070 Channel: 7 Note on, E4 key=64 velocity: 91
@2082 Channel: 7 Note on, E4 key=64 velocity: 0
@2082 Channel: 7 Note on, C4 key=60 velocity: 0
@2082 Channel: 7 Note on, G3 key=55 velocity: 0
@2100 Channel: 7 Note on, G3 key=55 velocity: 91
@2100 Channel: 7 Note on, C4 key=60 velocity: 91
@2100 Channel: 7 Note on, E4 key=64 velocity: 91
@2130 Channel: 7 Note on, E4 key=64 velocity: 0
@2130 Channel: 7 Note on, C4 key=60 velocity: 0
@2130 Channel: 7 Note on, G3 key=55 velocity: 0
@2160 Channel: 7 Note on, F4 key=65 velocity: 91
@2160 Channel: 7 Note on, G3 key=55 velocity: 91
@2160 Channel: 7 Note on, C4 key=60 velocity: 91
@2190 Channel: 7 Note on, C4 key=60 velocity: 0
@2190 Channel: 7 Note on, G3 key=55 velocity: 0
@2190 Channel: 7 Note on, F4 key=65 velocity: 0
@2220 Channel: 7 Note on, G3 key=55 velocity: 91
@2220 Channel: 7 Note on, C4 key=60 velocity: 91
@2220 Channel: 7 Note on, F4 key=65 velocity: 91
@2232 Channel: 7 Note on, F4 key=65 velocity: 0
@2232 Channel: 7 Note on, C4 key=60 velocity: 0
@2232 Channel: 7 Note on, G3 key=55 velocity: 0
@2250 Channel: 7 Note on, F4 key=65 velocity: 91
@2250 Channel: 7 Note on, C4 key=60 velocity: 91
@2250 Channel: 7 Note on, G3 key=55 velocity: 91
@2280 Channel: 7 Note on, G3 key=55 velocity: 0
@2280 Channel: 7 Note on, C4 key=60 velocity: 0
@2280 Channel: 7 Note on, F4 key=65 velocity: 0
@2310 Channel: 7 Note on, G3 key=55 velocity: 91
@2310 Channel: 7 Note on, C4 key=60 velocity: 91
@2310 Channel: 7 Note on, F4 key=65 velocity: 91
@2322 Channel: 7 Note on, F4 key=65 velocity: 0
@2322 Channel: 7 Note on, C4 key=60 velocity: 0
@2322 Channel: 7 Note on, G3 key=55 velocity: 0
@2340 Channel: 7 Note on, F4 key=65 velocity: 91
@2340 Channel: 7 Note on, G3 key=55 velocity: 91
@2340 Channel: 7 Note on, C4 key=60 velocity: 91
@2370 Channel: 7 Note on, C4 key=60 velocity: 0
@2370 Channel: 7 Note on, G3 key=55 velocity: 0
@2370 Channel: 7 Note on, F4 key=65 velocity: 0
@2400 Channel: 7 Note on, C4 key=60 velocity: 91
@2400 Channel: 7 Note on, G3 key=55 velocity: 91
@2400 Channel: 7 Note on, E4 key=64 velocity: 91
@2430 Channel: 7 Note on, E4 key=64 velocity: 0
@2430 Channel: 7 Note on, G3 key=55 velocity: 0
@2430 Channel: 7 Note on, C4 key=60 velocity: 0
@2460 Channel: 7 Note on, E4 key=64 velocity: 91
@2460 Channel: 7 Note on, G3 key=55 velocity: 91
@2460 Channel: 7 Note on, C4 key=60 velocity: 91
@2472 Channel: 7 Note on, C4 key=60 velocity: 0
@2472 Channel: 7 Note on, G3 key=55 velocity: 0
@2472 Channel: 7 Note on, E4 key=64 velocity: 0
@2490 Channel: 7 Note on, C4 key=60 velocity: 90
@2490 Channel: 7 Note on, G3 key=55 velocity: 90
@2490 Channel: 7 Note on, E4 key=64 velocity: 90
@2520 Channel: 7 Note on, E4 key=64 velocity: 0
@2520 Channel: 7 Note on, G3 key=55 velocity: 0
@2520 Channel: 7 Note on, C4 key=60 velocity: 0
@2550 Channel: 7 Note on, G3 key=55 velocity: 90
@2550 Channel: 7 Note on, C4 key=60 velocity: 90
@2550 Channel: 7 Note on, E4 key=64 velocity: 90
@2562 Channel: 7 Note on, E4 key=64 velocity: 0
@2562 Channel: 7 Note on, C4 key=60 velocity: 0
@2562 Channel: 7 Note on, G3 key=55 velocity: 0
@2580 Channel: 7 Note on, G3 key=55 velocity: 90
@2580 Channel: 7 Note on, C4 key=60 velocity: 90
@2580 Channel: 7 Note on, E4 key=64 velocity: 90
@2610 Channel: 7 Note on, E4 key=64 velocity: 0
@2610 Channel: 7 Note on, C4 key=60 velocity: 0
@2610 Channel: 7 Note on, G3 key=55 velocity: 0
@2640 Channel: 7 Note on, F4 key=65 velocity: 89
@2640 Channel: 7 Note on, G3 key=55 velocity: 89
@2640 Channel: 7 Note on, C4 key=60 velocity: 89
@2670 Channel: 7 Note on, C4 key=60 velocity: 0
@2670 Channel: 7 Note on, G3 key=55 velocity: 0
@2670 Channel: 7 Note on, F4 key=65 velocity: 0
@2700 Channel: 7 Note on, G3 key=55 velocity: 89
@2700 Channel: 7 Note on, C4 key=60 velocity: 89
@2700 Channel: 7 Note on, F4 key=65 velocity: 89
@2712 Channel: 7 Note on, F4 key=65 velocity: 0
@2712 Channel: 7 Note on, C4 key=60 velocity: 0
@2712 Channel: 7 Note on, G3 key=55 velocity: 0
@2730 Channel: 7 Note on, F4 key=65 velocity: 89
@2730 Channel: 7 Note on, C4 key=60 velocity: 89
@2730 Channel: 7 Note on, G3 key=55 velocity: 89
@2760 Channel: 7 Note on, G3 key=55 velocity: 0
@2760 Channel: 7 Note on, C4 key=60 velocity: 0
@2760 Channel: 7 Note on, F4 key=65 velocity: 0
@2790 Channel: 7 Note on, G3 key=55 velocity: 89
@2790 Channel: 7 Note on, C4 key=60 velocity: 89
@2790 Channel: 7 Note on, F4 key=65 velocity: 89
@2802 Channel: 7 Note on, F4 key=65 velocity: 0
@2802 Channel: 7 Note on, C4 key=60 velocity: 0
@2802 Channel: 7 Note on, G3 key=55 velocity: 0
@2820 Channel: 7 Note on, F4 key=65 velocity: 89
@2820 Channel: 7 Note on, G3 key=55 velocity: 89
@2820 Channel: 7 Note on, C4 key=60 velocity: 89
@2850 Channel: 7 Note on, C4 key=60 velocity: 0
@2850 Channel: 7 Note on, G3 key=55 velocity: 0
@2850 Channel: 7 Note on, F4 key=65 velocity: 0
@2880 Channel: 7 Note on, B3 key=59 velocity: 89
@2880 Channel: 7 Note on, D4 key=62 velocity: 89
@2880 Channel: 7 Note on, G3 key=55 velocity: 89
@2910 Channel: 7 Note on, G3 key=55 velocity: 0
@2910 Channel: 7 Note on, D4 key=62 velocity: 0
@2910 Channel: 7 Note on, B3 key=59 velocity: 0
@2940 Channel: 7 Note on, G3 key=55 velocity: 89
@2940 Channel: 7 Note on, D4 key=62 velocity: 89
@2940 Channel: 7 Note on, B3 key=59 velocity: 89
@2952 Channel: 7 Note on, B3 key=59 velocity: 0
@2952 Channel: 7 Note on, D4 key=62 velocity: 0
@2952 Channel: 7 Note on, G3 key=55 velocity: 0
@2970 Channel: 7 Note on, D4 key=62 velocity: 89
@2970 Channel: 7 Note on, G3 key=55 velocity: 89
@2970 Channel: 7 Note on, B3 key=59 velocity: 89
@3000 Channel: 7 Note on, B3 key=59 velocity: 0
@3000 Channel: 7 Note on, G3 key=55 velocity: 0
@3000 Channel: 7 Note on, D4 key=62 velocity: 0
@3030 Channel: 7 Note on, D4 key=62 velocity: 89
@3030 Channel: 7 Note on, G3 key=55 velocity: 89
@3030 Channel: 7 Note on, B3 key=59 velocity: 89
@3042 Channel: 7 Note on, B3 key=59 velocity: 0
@3042 Channel: 7 Note on, G3 key=55 velocity: 0
@3042 Channel: 7 Note on, D4 key=62 velocity: 0
@3060 Channel: 7 Note on, D4 key=62 velocity: 89
@3060 Channel: 7 Note on, B3 key=59 velocity: 89
@3060 Channel: 7 Note on, G3 key=55 velocity: 89
@3090 Channel: 7 Note on, G3 key=55 velocity: 0
@3090 Channel: 7 Note on, B3 key=59 velocity: 0
@3090 Channel: 7 Note on, D4 key=62 velocity: 0
@3120 Channel: 7 Note on, D4 key=62 velocity: 91
@3120 Channel: 7 Note on, G3 key=55 velocity: 91
@3120 Channel: 7 Note on, C4 key=60 velocity: 91
@3150 Channel: 7 Note on, C4 key=60 velocity: 0
@3150 Channel: 7 Note on, G3 key=55 velocity: 0
@3150 Channel: 7 Note on, D4 key=62 velocity: 0
@3180 Channel: 7 Note on, D4 key=62 velocity: 91
@3180 Channel: 7 Note on, G3 key=55 velocity: 91
@3180 Channel: 7 Note on, C4 key=60 velocity: 91
@3192 Channel: 7 Note on, C4 key=60 velocity: 0
@3192 Channel: 7 Note on, G3 key=55 velocity: 0
@3192 Channel: 7 Note on, D4 key=62 velocity: 0
@3210 Channel: 7 Note on, G3 key=55 velocity: 91
@3210 Channel: 7 Note on, C4 key=60 velocity: 91
@3210 Channel: 7 Note on, D4 key=62 velocity: 91
@3240 Channel: 7 Note on, D4 key=62 velocity: 0
@3240 Channel: 7 Note on, C4 key=60 velocity: 0
@3240 Channel: 7 Note on, G3 key=55 velocity: 0
@3270 Channel: 7 Note on, D4 key=62 velocity: 91
@3270 Channel: 7 Note on, G3 key=55 velocity: 91
@3270 Channel: 7 Note on, C4 key=60 velocity: 91
@3282 Channel: 7 Note on, C4 key=60 velocity: 0
@3282 Channel: 7 Note on, G3 key=55 velocity: 0
@3282 Channel: 7 Note on, D4 key=62 velocity: 0
@3300 Channel: 7 Note on, C4 key=60 velocity: 91
@3300 Channel: 7 Note on, D4 key=62 velocity: 91
@3300 Channel: 7 Note on, G3 key=55 velocity: 91
@3330 Channel: 7 Note on, G3 key=55 velocity: 0
@3330 Channel: 7 Note on, D4 key=62 velocity: 0
@3330 Channel: 7 Note on, C4 key=60 velocity: 0
@3360 Channel: 7 Note on, B3 key=59 velocity: 91
@3360 Channel: 7 Note on, D4 key=62 velocity: 91
@3360 Channel: 7 Note on, G3 key=55 velocity: 91
@3390 Channel: 7 Note on, G3 key=55 velocity: 0
@3390 Channel: 7 Note on, D4 key=62 velocity: 0
@3390 Channel: 7 Note on, B3 key=59 velocity: 0
@3420 Channel: 7 Note on, D4 key=62 velocity: 91
@3420 Channel: 7 Note on, G3 key=55 velocity: 91
@3420 Channel: 7 Note on, B3 key=59 velocity: 91
@3432 Channel: 7 Note on, B3 key=59 velocity: 0
@3432 Channel: 7 Note on, G3 key=55 velocity: 0
@3432 Channel: 7 Note on, D4 key=62 velocity: 0
@3450 Channel: 7 Note on, D4 key=62 velocity: 91
@3450 Channel: 7 Note on, G3 key=55 velocity: 91
@3450 Channel: 7 Note on, B3 key=59 velocity: 91
@3480 Channel: 7 Note on, B3 key=59 velocity: 0
@3480 Channel: 7 Note on, G3 key=55 velocity: 0
@3480 Channel: 7 Note on, D4 key=62 velocity: 0
@3510 Channel: 7 Note on, G3 key=55 velocity: 92
@3510 Channel: 7 Note on, D4 key=62 velocity: 92
@3510 Channel: 7 Note on, B3 key=59 velocity: 92
@3522 Channel: 7 Note on, B3 key=59 velocity: 0
@3522 Channel: 7 Note on, D4 key=62 velocity: 0
@3522 Channel: 7 Note on, G3 key=55 velocity: 0
@3540 Channel: 7 Note on, B3 key=59 velocity: 92
@3540 Channel: 7 Note on, D4 key=62 velocity: 92
@3540 Channel: 7 Note on, G3 key=55 velocity: 92
@3570 Channel: 7 Note on, G3 key=55 velocity: 0
@3570 Channel: 7 Note on, D4 key=62 velocity: 0
@3570 Channel: 7 Note on, B3 key=59 velocity: 0
@3600 Channel: 7 Note on, C4 key=60 velocity: 92
@3600 Channel: 7 Note on, G3 key=55 velocity: 92
@3600 Channel: 7 Note on, D4 key=62 velocity: 92
@3630 Channel: 7 Note on, D4 key=62 velocity: 0
@3630 Channel: 7 Note on, G3 key=55 velocity: 0
@3630 Channel: 7 Note on, C4 key=60 velocity: 0
@3660 Channel: 7 Note on, C4 key=60 velocity: 92
@3660 Channel: 7 Note on, D4 key=62 velocity: 92
@3660 Channel: 7 Note on, G3 key=55 velocity: 92
@3672 Channel: 7 Note on, G3 key=55 velocity: 0
@3672 Channel: 7 Note on, D4 key=62 velocity: 0
@3672 Channel: 7 Note on, C4 key=60 velocity: 0
@3690 Channel: 7 Note on, G3 key=55 velocity: 92
@3690 Channel: 7 Note on, D4 key=62 velocity: 92
@3690 Channel: 7 Note on, C4 key=60 velocity: 92
@3720 Channel: 7 Note on, C4 key=60 velocity: 0
@3720 Channel: 7 Note on, D4 key=62 velocity: 0
@3720 Channel: 7 Note on, G3 key=55 velocity: 0
@3750 Channel: 7 Note on, G3 key=55 velocity: 92
@3750 Channel: 7 Note on, D4 key=62 velocity: 92
@3750 Channel: 7 Note on, C4 key=60 velocity: 92
@3762 Channel: 7 Note on, C4 key=60 velocity: 0
@3762 Channel: 7 Note on, D4 key=62 velocity: 0
@3762 Channel: 7 Note on, G3 key=55 velocity: 0
@3780 Channel: 7 Note on, D4 key=62 velocity: 92
@3780 Channel: 7 Note on, C4 key=60 velocity: 92
@3780 Channel: 7 Note on, G3 key=55 velocity: 92
@3810 Channel: 7 Note on, G3 key=55 velocity: 0
@3810 Channel: 7 Note on, C4 key=60 velocity: 0
@3810 Channel: 7 Note on, D4 key=62 velocity: 0
@3840 Channel: 7 Note on, G#3 key=56 velocity: 92
@3840 Channel: 7 Note on, B3 key=59 velocity: 92
@3840 Channel: 7 Note on, E4 key=64 velocity: 92
@3870 Channel: 7 Note on, E4 key=64 velocity: 0
@3870 Channel: 7 Note on, B3 key=59 velocity: 0
@3870 Channel: 7 Note on, G#3 key=56 velocity: 0
@3900 Channel: 7 Note on, E4 key=64 velocity: 92
@3900 Channel: 7 Note on, G#3 key=56 velocity: 92
@3900 Channel: 7 Note on, B3 key=59 velocity: 92
@3912 Channel: 7 Note on, B3 key=59 velocity: 0
@3912 Channel: 7 Note on, G#3 key=56 velocity: 0
@3912 Channel: 7 Note on, E4 key=64 velocity: 0
@3930 Channel: 7 Note on, E4 key=64 velocity: 93
@3930 Channel: 7 Note on, B3 key=59 velocity: 93
@3930 Channel: 7 Note on, G#3 key=56 velocity: 93
@3960 Channel: 7 Note on, G#3 key=56 velocity: 0
@3960 Channel: 7 Note on, B3 key=59 velocity: 0
@3960 Channel: 7 Note on, E4 key=64 velocity: 0
@3990 Channel: 7 Note on, G#3 key=56 velocity: 93
@3990 Channel: 7 Note on, E4 key=64 velocity: 93
@3990 Channel: 7 Note on, B3 key=59 velocity: 93
@4002 Channel: 7 Note on, B3 key=59 velocity: 0
@4002 Channel: 7 Note on, E4 key=64 velocity: 0
@4002 Channel: 7 Note on, G#3 key=56 velocity: 0
@4020 Channel: 7 Note on, E4 key=64 velocity: 93
@4020 Channel: 7 Note on, B3 key=59 velocity: 93
@4020 Channel: 7 Note on, G#3 key=56 velocity: 93
@4050 Channel: 7 Note on, G#3 key=56 velocity: 0
@4050 Channel: 7 Note on, B3 key=59 velocity: 0
@4050 Channel: 7 Note on, E4 key=64 velocity: 0
@4080 Channel: 7 Note on, E4 key=64 velocity: 92
@4080 Channel: 7 Note on, A3 key=57 velocity: 92
@4080 Channel: 7 Note on, B3 key=59 velocity: 92
@4110 Channel: 7 Note on, B3 key=59 velocity: 0
@4110 Channel: 7 Note on, A3 key=57 velocity: 0
@4110 Channel: 7 Note on, E4 key=64 velocity: 0
@4140 Channel: 7 Note on, B3 key=59 velocity: 92
@4140 Channel: 7 Note on, A3 key=57 velocity: 92
@4140 Channel: 7 Note on, E4 key=64 velocity: 92
@4152 Channel: 7 Note on, E4 key=64 velocity: 0
@4152 Channel: 7 Note on, A3 key=57 velocity: 0
@4152 Channel: 7 Note on, B3 key=59 velocity: 0
@4170 Channel: 7 Note on, B3 key=59 velocity: 92
@4170 Channel: 7 Note on, A3 key=57 velocity: 92
@4170 Channel: 7 Note on, E4 key=64 velocity: 92
@4200 Channel: 7 Note on, E4 key=64 velocity: 0
@4200 Channel: 7 Note on, A3 key=57 velocity: 0
@4200 Channel: 7 Note on, B3 key=59 velocity: 0
@4230 Channel: 7 Note on, E4 key=64 velocity: 92
@4230 Channel: 7 Note on, A3 key=57 velocity: 92
@4230 Channel: 7 Note on, B3 key=59 velocity: 92
@4242 Channel: 7 Note on, B3 key=59 velocity: 0
@4242 Channel: 7 Note on, A3 key=57 velocity: 0
@4242 Channel: 7 Note on, E4 key=64 velocity: 0
@4260 Channel: 7 Note on, B3 key=59 velocity: 92
@4260 Channel: 7 Note on, A3 key=57 velocity: 92
@4260 Channel: 7 Note on, E4 key=64 velocity: 92
@4290 Channel: 7 Note on, E4 key=64 velocity: 0
@4290 Channel: 7 Note on, A3 key=57 velocity: 0
@4290 Channel: 7 Note on, B3 key=59 velocity: 0
@4320 Channel: 7 Note on, B3 key=59 velocity: 92
@4320 Channel: 7 Note on, G#3 key=56 velocity: 92
@4320 Channel: 7 Note on, E4 key=64 velocity: 92
@4350 Channel: 7 Note on, E4 key=64 velocity: 0
@4350 Channel: 7 Note on, G#3 key=56 velocity: 0
@4350 Channel: 7 Note on, B3 key=59 velocity: 0
@4380 Channel: 7 Note on, B3 key=59 velocity: 92
@4380 Channel: 7 Note on, G#3 key=56 velocity: 92
@4380 Channel: 7 Note on, E4 key=64 velocity: 92
@4392 Channel: 7 Note on, E4 key=64 velocity: 0
@4392 Channel: 7 Note on, G#3 key=56 velocity: 0
@4392 Channel: 7 Note on, B3 key=59 velocity: 0
@4410 Channel: 7 Note on, B3 key=59 velocity: 92
@4410 Channel: 7 Note on, G#3 key=56 velocity: 92
@4410 Channel: 7 Note on, E4 key=64 velocity: 92
@4440 Channel: 7 Note on, E4 key=64 velocity: 0
@4440 Channel: 7 Note on, G#3 key=56 velocity: 0
@4440 Channel: 7 Note on, B3 key=59 velocity: 0
@4470 Channel: 7 Note on, B3 key=59 velocity: 92
@4470 Channel: 7 Note on, G#3 key=56 velocity: 92
@4470 Channel: 7 Note on, E4 key=64 velocity: 92
@4482 Channel: 7 Note on, E4 key=64 velocity: 0
@4482 Channel: 7 Note on, G#3 key=56 velocity: 0
@4482 Channel: 7 Note on, B3 key=59 velocity: 0
@4500 Channel: 7 Note on, B3 key=59 velocity: 92
@4500 Channel: 7 Note on, G#3 key=56 velocity: 92
@4500 Channel: 7 Note on, E4 key=64 velocity: 92
@4530 Channel: 7 Note on, E4 key=64 velocity: 0
@4530 Channel: 7 Note on, G#3 key=56 velocity: 0
@4530 Channel: 7 Note on, B3 key=59 velocity: 0
@4560 Channel: 7 Note on, A3 key=57 velocity: 92
@4560 Channel: 7 Note on, B3 key=59 velocity: 92
@4560 Channel: 7 Note on, E4 key=64 velocity: 92
@4590 Channel: 7 Note on, E4 key=64 velocity: 0
@4590 Channel: 7 Note on, B3 key=59 velocity: 0
@4590 Channel: 7 Note on, A3 key=57 velocity: 0
@4620 Channel: 7 Note on, A3 key=57 velocity: 92
@4620 Channel: 7 Note on, B3 key=59 velocity: 92
@4620 Channel: 7 Note on, E4 key=64 velocity: 92
@4632 Channel: 7 Note on, E4 key=64 velocity: 0
@4632 Channel: 7 Note on, B3 key=59 velocity: 0
@4632 Channel: 7 Note on, A3 key=57 velocity: 0
@4650 Channel: 7 Note on, A3 key=57 velocity: 92
@4650 Channel: 7 Note on, E4 key=64 velocity: 92
@4650 Channel: 7 Note on, B3 key=59 velocity: 92
@4680 Channel: 7 Note on, B3 key=59 velocity: 0
@4680 Channel: 7 Note on, E4 key=64 velocity: 0
@4680 Channel: 7 Note on, A3 key=57 velocity: 0
@4710 Channel: 7 Note on, A3 key=57 velocity: 92
@4710 Channel: 7 Note on, E4 key=64 velocity: 92
@4710 Channel: 7 Note on, B3 key=59 velocity: 92
@4722 Channel: 7 Note on, B3 key=59 velocity: 0
@4722 Channel: 7 Note on, E4 key=64 velocity: 0
@4722 Channel: 7 Note on, A3 key=57 velocity: 0
@4740 Channel: 7 Note on, A3 key=57 velocity: 92
@4740 Channel: 7 Note on, B3 key=59 velocity: 92
@4740 Channel: 7 Note on, E4 key=64 velocity: 92
@4770 Channel: 7 Note on, E4 key=64 velocity: 0
@4770 Channel: 7 Note on, B3 key=59 velocity: 0
@4770 Channel: 7 Note on, A3 key=57 velocity: 0
@4800 Channel: 7 Note on, C4 key=60 velocity: 92
@4800 Channel: 7 Note on, A3 key=57 velocity: 92
@4800 Channel: 7 Note on, F4 key=65 velocity: 92
@4830 Channel: 7 Note on, F4 key=65 velocity: 0
@4830 Channel: 7 Note on, A3 key=57 velocity: 0
@4830 Channel: 7 Note on, C4 key=60 velocity: 0
@4860 Channel: 7 Note on, C4 key=60 velocity: 92
@4860 Channel: 7 Note on, F4 key=65 velocity: 92
@4860 Channel: 7 Note on, A3 key=57 velocity: 92
@4872 Channel: 7 Note on, A3 key=57 velocity: 0
@4872 Channel: 7 Note on, F4 key=65 velocity: 0
@4872 Channel: 7 Note on, C4 key=60 velocity: 0
@4890 Channel: 7 Note on, F4 key=65 velocity: 92
@4890 Channel: 7 Note on, A3 key=57 velocity: 92
@4890 Channel: 7 Note on, C4 key=60 velocity: 92
@4920 Channel: 7 Note on, C4 key=60 velocity: 0
@4920 Channel: 7 Note on, A3 key=57 velocity: 0
@4920 Channel: 7 Note on, F4 key=65 velocity: 0
@4950 Channel: 7 Note on, F4 key=65 velocity: 92
@4950 Channel: 7 Note on, C4 key=60 velocity: 92
@4950 Channel: 7 Note on, A3 key=57 velocity: 92
@4962 Channel: 7 Note on, A3 key=57 velocity: 0
@4962 Channel: 7 Note on, C4 key=60 velocity: 0
@4962 Channel: 7 Note on, F4 key=65 velocity: 0
@4980 Channel: 7 Note on, C4 key=60 velocity: 92
@4980 Channel: 7 Note on, A3 key=57 velocity: 92
@4980 Channel: 7 Note on, F4 key=65 velocity: 92
@5010 Channel: 7 Note on, F4 key=65 velocity: 0
@5010 Channel: 7 Note on, A3 key=57 velocity: 0
@5010 Channel: 7 Note on, C4 key=60 velocity: 0
@5040 Channel: 7 Note on, A#3 key=58 velocity: 92
@5040 Channel: 7 Note on, C4 key=60 velocity: 92
@5040 Channel: 7 Note on, F4 key=65 velocity: 92
@5070 Channel: 7 Note on, F4 key=65 velocity: 0
@5070 Channel: 7 Note on, C4 key=60 velocity: 0
@5070 Channel: 7 Note on, A#3 key=58 velocity: 0
@5100 Channel: 7 Note on, A#3 key=58 velocity: 91
@5100 Channel: 7 Note on, C4 key=60 velocity: 91
@5100 Channel: 7 Note on, F4 key=65 velocity: 91
@5112 Channel: 7 Note on, F4 key=65 velocity: 0
@5112 Channel: 7 Note on, C4 key=60 velocity: 0
@5112 Channel: 7 Note on, A#3 key=58 velocity: 0
@5130 Channel: 7 Note on, C4 key=60 velocity: 91
@5130 Channel: 7 Note on, A#3 key=58 velocity: 91
@5130 Channel: 7 Note on, F4 key=65 velocity: 91
@5160 Channel: 7 Note on, F4 key=65 velocity: 0
@5160 Channel: 7 Note on, A#3 key=58 velocity: 0
@5160 Channel: 7 Note on, C4 key=60 velocity: 0
@5190 Channel: 7 Note on, F4 key=65 velocity: 91
@5190 Channel: 7 Note on, C4 key=60 velocity: 91
@5190 Channel: 7 Note on, A#3 key=58 velocity: 91
@5202 Channel: 7 Note on, A#3 key=58 velocity: 0
@5202 Channel: 7 Note on, C4 key=60 velocity: 0
@5202 Channel: 7 Note on, F4 key=65 velocity: 0
@5220 Channel: 7 Note on, C4 key=60 velocity: 91
@5220 Channel: 7 Note on, A#3 key=58 velocity: 91
@5220 Channel: 7 Note on, F4 key=65 velocity: 91
@5250 Channel: 7 Note on, F4 key=65 velocity: 0
@5250 Channel: 7 Note on, A#3 key=58 velocity: 0
@5250 Channel: 7 Note on, C4 key=60 velocity: 0
@5280 Channel: 7 Note on, A3 key=57 velocity: 91
@5280 Channel: 7 Note on, F4 key=65 velocity: 91
@5280 Channel: 7 Note on, C4 key=60 velocity: 91
@5310 Channel: 7 Note on, C4 key=60 velocity: 0
@5310 Channel: 7 Note on, F4 key=65 velocity: 0
@5310 Channel: 7 Note on, A3 key=57 velocity: 0
@5340 Channel: 7 Note on, C4 key=60 velocity: 91
@5340 Channel: 7 Note on, A3 key=57 velocity: 91
@5340 Channel: 7 Note on, F4 key=65 velocity: 91
@5352 Channel: 7 Note on, F4 key=65 velocity: 0
@5352 Channel: 7 Note on, A3 key=57 velocity: 0
@5352 Channel: 7 Note on, C4 key=60 velocity: 0
@5370 Channel: 7 Note on, F4 key=65 velocity: 91
@5370 Channel: 7 Note on, A3 key=57 velocity: 91
@5370 Channel: 7 Note on, C4 key=60 velocity: 91
@5400 Channel: 7 Note on, C4 key=60 velocity: 0
@5400 Channel: 7 Note on, A3 key=57 velocity: 0
@5400 Channel: 7 Note on, F4 key=65 velocity: 0
@5430 Channel: 7 Note on, C4 key=60 velocity: 90
@5430 Channel: 7 Note on, A3 key=57 velocity: 90
@5430 Channel: 7 Note on, F4 key=65 velocity: 90
@5442 Channel: 7 Note on, F4 key=65 velocity: 0
@5442 Channel: 7 Note on, A3 key=57 velocity: 0
@5442 Channel: 7 Note on, C4 key=60 velocity: 0
@5460 Channel: 7 Note on, C4 key=60 velocity: 90
@5460 Channel: 7 Note on, A3 key=57 velocity: 90
@5460 Channel: 7 Note on, F4 key=65 velocity: 90
@5490 Channel: 7 Note on, F4 key=65 velocity: 0
@5490 Channel: 7 Note on, A3 key=57 velocity: 0
@5490 Channel: 7 Note on, C4 key=60 velocity: 0
@5520 Channel: 7 Note on, C4 key=60 velocity: 91
@5520 Channel: 7 Note on, A#3 key=58 velocity: 91
@5520 Channel: 7 Note on, F4 key=65 velocity: 91
@5550 Channel: 7 Note on, F4 key=65 velocity: 0
@5550 Channel: 7 Note on, A#3 key=58 velocity: 0
@5550 Channel: 7 Note on, C4 key=60 velocity: 0
@5580 Channel: 7 Note on, C4 key=60 velocity: 92
@5580 Channel: 7 Note on, A#3 key=58 velocity: 92
@5580 Channel: 7 Note on, F4 key=65 velocity: 92
@5592 Channel: 7 Note on, F4 key=65 velocity: 0
@5592 Channel: 7 Note on, A#3 key=58 velocity: 0
@5592 Channel: 7 Note on, C4 key=60 velocity: 0
@5610 Channel: 7 Note on, F4 key=65 velocity: 89
@5610 Channel: 7 Note on, C4 key=60 velocity: 89
@5610 Channel: 7 Note on, A#3 key=58 velocity: 89
@5640 Channel: 7 Note on, A#3 key=58 velocity: 0
@5640 Channel: 7 Note on, C4 key=60 velocity: 0
@5640 Channel: 7 Note on, F4 key=65 velocity: 0
@5670 Channel: 7 Note on, A#3 key=58 velocity: 89
@5670 Channel: 7 Note on, F4 key=65 velocity: 89
@5670 Channel: 7 Note on, C4 key=60 velocity: 89
@5682 Channel: 7 Note on, C4 key=60 velocity: 0
@5682 Channel: 7 Note on, F4 key=65 velocity: 0
@5682 Channel: 7 Note on, A#3 key=58 velocity: 0
@5700 Channel: 7 Note on, A#3 key=58 velocity: 89
@5700 Channel: 7 Note on, C4 key=60 velocity: 89
@5700 Channel: 7 Note on, F4 key=65 velocity: 89
@5730 Channel: 7 Note on, F4 key=65 velocity: 0
@5730 Channel: 7 Note on, C4 key=60 velocity: 0
@5730 Channel: 7 Note on, A#3 key=58 velocity: 0
@5760 Channel: 7 Note on, C4 key=60 velocity: 89
@5760 Channel: 7 Note on, G3 key=55 velocity: 89
@5760 Channel: 7 Note on, E4 key=64 velocity: 89
@5790 Channel: 7 Note on, E4 key=64 velocity: 0
@5790 Channel: 7 Note on, G3 key=55 velocity: 0
@5790 Channel: 7 Note on, C4 key=60 velocity: 0
@5820 Channel: 7 Note on, E4 key=64 velocity: 90
@5820 Channel: 7 Note on, G3 key=55 velocity: 90
@5820 Channel: 7 Note on, C4 key=60 velocity: 90
@5832 Channel: 7 Note on, C4 key=60 velocity: 0
@5832 Channel: 7 Note on, G3 key=55 velocity: 0
@5832 Channel: 7 Note on, E4 key=64 velocity: 0
@5850 Channel: 7 Note on, C4 key=60 velocity: 90
@5850 Channel: 7 Note on, G3 key=55 velocity: 90
@5850 Channel: 7 Note on, E4 key=64 velocity: 90
@5880 Channel: 7 Note on, E4 key=64 velocity: 0
@5880 Channel: 7 Note on, G3 key=55 velocity: 0
@5880 Channel: 7 Note on, C4 key=60 velocity: 0
@5910 Channel: 7 Note on, G3 key=55 velocity: 90
@5910 Channel: 7 Note on, C4 key=60 velocity: 90
@5910 Channel: 7 Note on, E4 key=64 velocity: 90
@5922 Channel: 7 Note on, E4 key=64 velocity: 0
@5922 Channel: 7 Note on, C4 key=60 velocity: 0
@5922 Channel: 7 Note on, G3 key=55 velocity: 0
@5940 Channel: 7 Note on, G3 key=55 velocity: 90
@5940 Channel: 7 Note on, C4 key=60 velocity: 90
@5940 Channel: 7 Note on, E4 key=64 velocity: 90
@5970 Channel: 7 Note on, E4 key=64 velocity: 0
@5970 Channel: 7 Note on, C4 key=60 velocity: 0
@5970 Channel: 7 Note on, G3 key=55 velocity: 0
@6000 Channel: 7 Note on, F4 key=65 velocity: 90
@6000 Channel: 7 Note on, G3 key=55 velocity: 90
@6000 Channel: 7 Note on, C4 key=60 velocity: 90
@6030 Channel: 7 Note on, C4 key=60 velocity: 0
@6030 Channel: 7 Note on, G3 key=55 velocity: 0
@6030 Channel: 7 Note on, F4 key=65 velocity: 0
@6060 Channel: 7 Note on, G3 key=55 velocity: 90
@6060 Channel: 7 Note on, C4 key=60 velocity: 90
@6060 Channel: 7 Note on, F4 key=65 velocity: 90
@6072 Channel: 7 Note on, F4 key=65 velocity: 0
@6072 Channel: 7 Note on, C4 key=60 velocity: 0
@6072 Channel: 7 Note on, G3 key=55 velocity: 0
@6090 Channel: 7 Note on, F4 key=65 velocity: 90
@6090 Channel: 7 Note on, C4 key=60 velocity: 90
@6090 Channel: 7 Note on, G3 key=55 velocity: 90
@6120 Channel: 7 Note on, G3 key=55 velocity: 0
@6120 Channel: 7 Note on, C4 key=60 velocity: 0
@6120 Channel: 7 Note on, F4 key=65 velocity: 0
@6150 Channel: 7 Note on, G3 key=55 velocity: 90
@6150 Channel: 7 Note on, C4 key=60 velocity: 90
@6150 Channel: 7 Note on, F4 key=65 velocity: 90
@6162 Channel: 7 Note on, F4 key=65 velocity: 0
@6162 Channel: 7 Note on, C4 key=60 velocity: 0
@6162 Channel: 7 Note on, G3 key=55 velocity: 0
@6180 Channel: 7 Note on, F4 key=65 velocity: 90
@6180 Channel: 7 Note on, G3 key=55 velocity: 90
@6180 Channel: 7 Note on, C4 key=60 velocity: 90
@6210 Channel: 7 Note on, C4 key=60 velocity: 0
@6210 Channel: 7 Note on, G3 key=55 velocity: 0
@6210 Channel: 7 Note on, F4 key=65 velocity: 0
@6240 Channel: 7 Note on, C4 key=60 velocity: 90
@6240 Channel: 7 Note on, G3 key=55 velocity: 90
@6240 Channel: 7 Note on, E4 key=64 velocity: 90
@6270 Channel: 7 Note on, E4 key=64 velocity: 0
@6270 Channel: 7 Note on, G3 key=55 velocity: 0
@6270 Channel: 7 Note on, C4 key=60 velocity: 0
@6300 Channel: 7 Note on, E4 key=64 velocity: 90
@6300 Channel: 7 Note on, G3 key=55 velocity: 90
@6300 Channel: 7 Note on, C4 key=60 velocity: 90
@6312 Channel: 7 Note on, C4 key=60 velocity: 0
@6312 Channel: 7 Note on, G3 key=55 velocity: 0
@6312 Channel: 7 Note on, E4 key=64 velocity: 0
@6330 Channel: 7 Note on, C4 key=60 velocity: 91
@6330 Channel: 7 Note on, G3 key=55 velocity: 91
@6330 Channel: 7 Note on, E4 key=64 velocity: 91
@6360 Channel: 7 Note on, E4 key=64 velocity: 0
@6360 Channel: 7 Note on, G3 key=55 velocity: 0
@6360 Channel: 7 Note on, C4 key=60 velocity: 0
@6390 Channel: 7 Note on, G3 key=55 velocity: 91
@6390 Channel: 7 Note on, C4 key=60 velocity: 91
@6390 Channel: 7 Note on, E4 key=64 velocity: 91
@6402 Channel: 7 Note on, E4 key=64 velocity: 0
@6402 Channel: 7 Note on, C4 key=60 velocity: 0
@6402 Channel: 7 Note on, G3 key=55 velocity: 0
@6420 Channel: 7 Note on, G3 key=55 velocity: 91
@6420 Channel: 7 Note on, C4 key=60 velocity: 91
@6420 Channel: 7 Note on, E4 key=64 velocity: 91
@6450 Channel: 7 Note on, E4 key=64 velocity: 0
@6450 Channel: 7 Note on, C4 key=60 velocity: 0
@6450 Channel: 7 Note on, G3 key=55 velocity: 0
@6480 Channel: 7 Note on, F4 key=65 velocity: 91
@6480 Channel: 7 Note on, G3 key=55 velocity: 91
@6480 Channel: 7 Note on, C4 key=60 velocity: 91
@6510 Channel: 7 Note on, C4 key=60 velocity: 0
@6510 Channel: 7 Note on, G3 key=55 velocity: 0
@6510 Channel: 7 Note on, F4 key=65 velocity: 0
@6540 Channel: 7 Note on, G3 key=55 velocity: 91
@6540 Channel: 7 Note on, C4 key=60 velocity: 91
@6540 Channel: 7 Note on, F4 key=65 velocity: 91
@6552 Channel: 7 Note on, F4 key=65 velocity: 0
@6552 Channel: 7 Note on, C4 key=60 velocity: 0
@6552 Channel: 7 Note on, G3 key=55 velocity: 0
@6570 Channel: 7 Note on, F4 key=65 velocity: 91
@6570 Channel: 7 Note on, C4 key=60 velocity: 91
@6570 Channel: 7 Note on, G3 key=55 velocity: 91
@6600 Channel: 7 Note on, G3 key=55 velocity: 0
@6600 Channel: 7 Note on, C4 key=60 velocity: 0
@6600 Channel: 7 Note on, F4 key=65 velocity: 0
@6630 Channel: 7 Note on, G3 key=55 velocity: 92
@6630 Channel: 7 Note on, C4 key=60 velocity: 92
@6630 Channel: 7 Note on, F4 key=65 velocity: 92
@6642 Channel: 7 Note on, F4 key=65 velocity: 0
@6642 Channel: 7 Note on, C4 key=60 velocity: 0
@6642 Channel: 7 Note on, G3 key=55 velocity: 0
@6660 Channel: 7 Note on, F4 key=65 velocity: 92
@6660 Channel: 7 Note on, G3 key=55 velocity: 92
@6660 Channel: 7 Note on, C4 key=60 velocity: 92
@6690 Channel: 7 Note on, C4 key=60 velocity: 0
@6690 Channel: 7 Note on, G3 key=55 velocity: 0
@6690 Channel: 7 Note on, F4 key=65 velocity: 0
@6720 Channel: 7 Note on, B3 key=59 velocity: 92
@6720 Channel: 7 Note on, D4 key=62 velocity: 92
@6720 Channel: 7 Note on, G3 key=55 velocity: 92
@6750 Channel: 7 Note on, G3 key=55 velocity: 0
@6750 Channel: 7 Note on, D4 key=62 velocity: 0
@6750 Channel: 7 Note on, B3 key=59 velocity: 0
@6780 Channel: 7 Note on, G3 key=55 velocity: 92
@6780 Channel: 7 Note on, D4 key=62 velocity: 92
@6780 Channel: 7 Note on, B3 key=59 velocity: 92
@6792 Channel: 7 Note on, B3 key=59 velocity: 0
@6792 Channel: 7 Note on, D4 key=62 velocity: 0
@6792 Channel: 7 Note on, G3 key=55 velocity: 0
@6810 Channel: 7 Note on, D4 key=62 velocity: 93
@6810 Channel: 7 Note on, G3 key=55 velocity: 93
@6810 Channel: 7 Note on, B3 key=59 velocity: 93
@6840 Channel: 7 Note on, B3 key=59 velocity: 0
@6840 Channel: 7 Note on, G3 key=55 velocity: 0
@6840 Channel: 7 Note on, D4 key=62 velocity: 0
@6870 Channel: 7 Note on, D4 key=62 velocity: 93
@6870 Channel: 7 Note on, G3 key=55 velocity: 93
@6870 Channel: 7 Note on, B3 key=59 velocity: 93
@6882 Channel: 7 Note on, B3 key=59 velocity: 0
@6882 Channel: 7 Note on, G3 key=55 velocity: 0
@6882 Channel: 7 Note on, D4 key=62 velocity: 0
@6900 Channel: 7 Note on, D4 key=62 velocity: 93
@6900 Channel: 7 Note on, B3 key=59 velocity: 93
@6900 Channel: 7 Note on, G3 key=55 velocity: 93
@6930 Channel: 7 Note on, G3 key=55 velocity: 0
@6930 Channel: 7 Note on, B3 key=59 velocity: 0
@6930 Channel: 7 Note on, D4 key=62 velocity: 0
@6960 Channel: 7 Note on, D4 key=62 velocity: 93
@6960 Channel: 7 Note on, G3 key=55 velocity: 93
@6960 Channel: 7 Note on, C4 key=60 velocity: 93
@6990 Channel: 7 Note on, C4 key=60 velocity: 0
@6990 Channel: 7 Note on, G3 key=55 velocity: 0
@6990 Channel: 7 Note on, D4 key=62 velocity: 0
@7020 Channel: 7 Note on, D4 key=62 velocity: 93
@7020 Channel: 7 Note on, G3 key=55 velocity: 93
@7020 Channel: 7 Note on, C4 key=60 velocity: 93
@7032 Channel: 7 Note on, C4 key=60 velocity: 0
@7032 Channel: 7 Note on, G3 key=55 velocity: 0
@7032 Channel: 7 Note on, D4 key=62 velocity: 0
@7050 Channel: 7 Note on, G3 key=55 velocity: 93
@7050 Channel: 7 Note on, C4 key=60 velocity: 93
@7050 Channel: 7 Note on, D4 key=62 velocity: 93
@7080 Channel: 7 Note on, D4 key=62 velocity: 0
@7080 Channel: 7 Note on, C4 key=60 velocity: 0
@7080 Channel: 7 Note on, G3 key=55 velocity: 0
@7110 Channel: 7 Note on, D4 key=62 velocity: 93
@7110 Channel: 7 Note on, G3 key=55 velocity: 93
@7110 Channel: 7 Note on, C4 key=60 velocity: 93
@7122 Channel: 7 Note on, C4 key=60 velocity: 0
@7122 Channel: 7 Note on, G3 key=55 velocity: 0
@7122 Channel: 7 Note on, D4 key=62 velocity: 0
@7140 Channel: 7 Note on, C4 key=60 velocity: 93
@7140 Channel: 7 Note on, D4 key=62 velocity: 93
@7140 Channel: 7 Note on, G3 key=55 velocity: 93
@7170 Channel: 7 Note on, G3 key=55 velocity: 0
@7170 Channel: 7 Note on, D4 key=62 velocity: 0
@7170 Channel: 7 Note on, C4 key=60 velocity: 0
@7200 Channel: 7 Note on, B3 key=59 velocity: 92
@7200 Channel: 7 Note on, D4 key=62 velocity: 92
@7200 Channel: 7 Note on, G3 key=55 velocity: 92
@7230 Channel: 7 Note on, G3 key=55 velocity: 0
@7230 Channel: 7 Note on, D4 key=62 velocity: 0
@7230 Channel: 7 Note on, B3 key=59 velocity: 0
@7260 Channel: 7 Note on, D4 key=62 velocity: 92
@7260 Channel: 7 Note on, G3 key=55 velocity: 92
@7260 Channel: 7 Note on, B3 key=59 velocity: 92
@7272 Channel: 7 Note on, B3 key=59 velocity: 0
@7272 Channel: 7 Note on, G3 key=55 velocity: 0
@7272 Channel: 7 Note on, D4 key=62 velocity: 0
@7290 Channel: 7 Note on, D4 key=62 velocity: 92
@7290 Channel: 7 Note on, G3 key=55 velocity: 92
@7290 Channel: 7 Note on, B3 key=59 velocity: 92
@7320 Channel: 7 Note on, B3 key=59 velocity: 0
@7320 Channel: 7 Note on, G3 key=55 velocity: 0
@7320 Channel: 7 Note on, D4 key=62 velocity: 0
@7350 Channel: 7 Note on, G3 key=55 velocity: 91
@7350 Channel: 7 Note on, D4 key=62 velocity: 91
@7350 Channel: 7 Note on, B3 key=59 velocity: 91
@7362 Channel: 7 Note on, B3 key=59 velocity: 0
@7362 Channel: 7 Note on, D4 key=62 velocity: 0
@7362 Channel: 7 Note on, G3 key=55 velocity: 0
@7380 Channel: 7 Note on, B3 key=59 velocity: 91
@7380 Channel: 7 Note on, D4 key=62 velocity: 91
@7380 Channel: 7 Note on, G3 key=55 velocity: 91
@7410 Channel: 7 Note on, G3 key=55 velocity: 0
@7410 Channel: 7 Note on, D4 key=62 velocity: 0
@7410 Channel: 7 Note on, B3 key=59 velocity: 0
@7440 Channel: 7 Note on, C4 key=60 velocity: 91
@7440 Channel: 7 Note on, G3 key=55 velocity: 91
@7440 Channel: 7 Note on, D4 key=62 velocity: 91
@7470 Channel: 7 Note on, D4 key=62 velocity: 0
@7470 Channel: 7 Note on, G3 key=55 velocity: 0
@7470 Channel: 7 Note on, C4 key=60 velocity: 0
@7500 Channel: 7 Note on, C4 key=60 velocity: 91
@7500 Channel: 7 Note on, D4 key=62 velocity: 91
@7500 Channel: 7 Note on, G3 key=55 velocity: 91
@7512 Channel: 7 Note on, G3 key=55 velocity: 0
@7512 Channel: 7 Note on, D4 key=62 velocity: 0
@7512 Channel: 7 Note on, C4 key=60 velocity: 0
@7530 Channel: 7 Note on, G3 key=55 velocity: 91
@7530 Channel: 7 Note on, D4 key=62 velocity: 91
@7530 Channel: 7 Note on, C4 key=60 velocity: 91
@7560 Channel: 7 Note on, C4 key=60 velocity: 0
@7560 Channel: 7 Note on, D4 key=62 velocity: 0
@7560 Channel: 7 Note on, G3 key=55 velocity: 0
@7590 Channel: 7 Note on, G3 key=55 velocity: 90
@7590 Channel: 7 Note on, D4 key=62 velocity: 90
@7590 Channel: 7 Note on, C4 key=60 velocity: 90
@7602 Channel: 7 Note on, C4 key=60 velocity: 0
@7602 Channel: 7 Note on, D4 key=62 velocity: 0
@7602 Channel: 7 Note on, G3 key=55 velocity: 0
@7620 Channel: 7 Note on, D4 key=62 velocity: 90
@7620 Channel: 7 Note on, C4 key=60 velocity: 90
@7620 Channel: 7 Note on, G3 key=55 velocity: 90
@7650 Channel: 7 Note on, G3 key=55 velocity: 0
@7650 Channel: 7 Note on, C4 key=60 velocity: 0
@7650 Channel: 7 Note on, D4 key=62 velocity: 0
@7680 Channel: 7 Note on, C4 key=60 velocity: 90
@7680 Channel: 7 Note on, A3 key=57 velocity: 90
@7680 Channel: 7 Note on, F4 key=65 velocity: 90
@7710 Channel: 7 Note on, F4 key=65 velocity: 0
@7710 Channel: 7 Note on, A3 key=57 velocity: 0
@7710 Channel: 7 Note on, C4 key=60 velocity: 0
@7740 Channel: 7 Note on, C4 key=60 velocity: 90
@7740 Channel: 7 Note on, F4 key=65 velocity: 90
@7740 Channel: 7 Note on, A3 key=57 velocity: 90
@7752 Channel: 7 Note on, A3 key=57 velocity: 0
@7752 Channel: 7 Note on, F4 key=65 velocity: 0
@7752 Channel: 7 Note on, C4 key=60 velocity: 0
@7770 Channel: 7 Note on, F4 key=65 velocity: 90
@7770 Channel: 7 Note on, A3 key=57 velocity: 90
@7770 Channel: 7 Note on, C4 key=60 velocity: 90
@7800 Channel: 7 Note on, C4 key=60 velocity: 0
@7800 Channel: 7 Note on, A3 key=57 velocity: 0
@7800 Channel: 7 Note on, F4 key=65 velocity: 0
@7830 Channel: 7 Note on, F4 key=65 velocity: 90
@7830 Channel: 7 Note on, C4 key=60 velocity: 90
@7830 Channel: 7 Note on, A3 key=57 velocity: 90
@7842 Channel: 7 Note on, A3 key=57 velocity: 0
@7842 Channel: 7 Note on, C4 key=60 velocity: 0
@7842 Channel: 7 Note on, F4 key=65 velocity: 0
@7860 Channel: 7 Note on, C4 key=60 velocity: 90
@7860 Channel: 7 Note on, A3 key=57 velocity: 90
@7860 Channel: 7 Note on, F4 key=65 velocity: 90
@7890 Channel: 7 Note on, F4 key=65 velocity: 0
@7890 Channel: 7 Note on, A3 key=57 velocity: 0
@7890 Channel: 7 Note on, C4 key=60 velocity: 0
@7920 Channel: 7 Note on, G3 key=55 velocity: 90
@7920 Channel: 7 Note on, C4 key=60 velocity: 90
@7920 Channel: 7 Note on, F4 key=65 velocity: 90
@7950 Channel: 7 Note on, F4 key=65 velocity: 0
@7950 Channel: 7 Note on, C4 key=60 velocity: 0
@7950 Channel: 7 Note on, G3 key=55 velocity: 0
@7980 Channel: 7 Note on, G3 key=55 velocity: 90
@7980 Channel: 7 Note on, C4 key=60 velocity: 90
@7980 Channel: 7 Note on, F4 key=65 velocity: 90
@7992 Channel: 7 Note on, F4 key=65 velocity: 0
@7992 Channel: 7 Note on, C4 key=60 velocity: 0
@7992 Channel: 7 Note on, G3 key=55 velocity: 0
@8010 Channel: 7 Note on, G3 key=55 velocity: 90
@8010 Channel: 7 Note on, C4 key=60 velocity: 90
@8010 Channel: 7 Note on, F4 key=65 velocity: 90
@8040 Channel: 7 Note on, F4 key=65 velocity: 0
@8040 Channel: 7 Note on, C4 key=60 velocity: 0
@8040 Channel: 7 Note on, G3 key=55 velocity: 0
@8070 Channel: 7 Note on, G3 key=55 velocity: 89
@8070 Channel: 7 Note on, F4 key=65 velocity: 89
@8070 Channel: 7 Note on, C4 key=60 velocity: 89
@8082 Channel: 7 Note on, C4 key=60 velocity: 0
@8082 Channel: 7 Note on, F4 key=65 velocity: 0
@8082 Channel: 7 Note on, G3 key=55 velocity: 0
@8100 Channel: 7 Note on, G3 key=55 velocity: 90
@8100 Channel: 7 Note on, C4 key=60 velocity: 90
@8100 Channel: 7 Note on, F4 key=65 velocity: 90
@8130 Channel: 7 Note on, F4 key=65 velocity: 0
@8130 Channel: 7 Note on, C4 key=60 velocity: 0
@8130 Channel: 7 Note on, G3 key=55 velocity: 0
@8160 Channel: 7 Note on, A3 key=57 velocity: 91
@8160 Channel: 7 Note on, C4 key=60 velocity: 91
@8160 Channel: 7 Note on, E4 key=64 velocity: 91
@8181 Channel: 7 Note on, E4 key=64 velocity: 0
@8183 Channel: 7 Note on, C4 key=60 velocity: 0
@8183 Channel: 7 Note on, A3 key=57 velocity: 0
@8220 Channel: 7 Note on, C4 key=60 velocity: 91
@8220 Channel: 7 Note on, A3 key=57 velocity: 91
@8220 Channel: 7 Note on, E4 key=64 velocity: 91
@8229 Channel: 7 Note on, E4 key=64 velocity: 0
@8229 Channel: 7 Note on, C4 key=60 velocity: 0
@8232 Channel: 7 Note on, A3 key=57 velocity: 0
@8250 Channel: 7 Note on, C4 key=60 velocity: 91
@8250 Channel: 7 Note on, A3 key=57 velocity: 91
@8250 Channel: 7 Note on, E4 key=64 velocity: 91
@8271 Channel: 7 Note on, E4 key=64 velocity: 0
@8273 Channel: 7 Note on, A3 key=57 velocity: 0
@8273 Channel: 7 Note on, C4 key=60 velocity: 0
@8310 Channel: 7 Note on, C4 key=60 velocity: 91
@8310 Channel: 7 Note on, A3 key=57 velocity: 91
@8310 Channel: 7 Note on, E4 key=64 velocity: 91
@8319 Channel: 7 Note on, E4 key=64 velocity: 0
@8319 Channel: 7 Note on, C4 key=60 velocity: 0
@8322 Channel: 7 Note on, A3 key=57 velocity: 0
@8340 Channel: 7 Note on, A3 key=57 velocity: 91
@8340 Channel: 7 Note on, C4 key=60 velocity: 91
@8340 Channel: 7 Note on, E4 key=64 velocity: 91
@8361 Channel: 7 Note on, E4 key=64 velocity: 0
@8361 Channel: 7 Note on, C4 key=60 velocity: 0
@8363 Channel: 7 Note on, A3 key=57 velocity: 0
@8400 Channel: 7 Note on, A3 key=57 velocity: 91
@8400 Channel: 7 Note on, E4 key=64 velocity: 91
@8400 Channel: 7 Note on, B3 key=59 velocity: 91
@8423 Channel: 7 Note on, E4 key=64 velocity: 0
@8426 Channel: 7 Note on, B3 key=59 velocity: 0
@8426 Channel: 7 Note on, A3 key=57 velocity: 0
@8460 Channel: 7 Note on, B3 key=59 velocity: 91
@8460 Channel: 7 Note on, A3 key=57 velocity: 91
@8460 Channel: 7 Note on, E4 key=64 velocity: 91
@8468 Channel: 7 Note on, E4 key=64 velocity: 0
@8472 Channel: 7 Note on, A3 key=57 velocity: 0
@8472 Channel: 7 Note on, B3 key=59 velocity: 0
@8490 Channel: 7 Note on, B3 key=59 velocity: 91
@8490 Channel: 7 Note on, A3 key=57 velocity: 91
@8490 Channel: 7 Note on, E4 key=64 velocity: 91
@8508 Channel: 7 Note on, E4 key=64 velocity: 0
@8511 Channel: 7 Note on, A3 key=57 velocity: 0
@8511 Channel: 7 Note on, B3 key=59 velocity: 0
@8550 Channel: 7 Note on, B3 key=59 velocity: 91
@8550 Channel: 7 Note on, A3 key=57 velocity: 91
@8559 Channel: 7 Note on, B3 key=59 velocity: 0
@8562 Channel: 7 Note on, A3 key=57 velocity: 0
@8580 Channel: 7 Note on, A3 key=57 velocity: 91
@8580 Channel: 7 Note on, E4 key=64 velocity: 91
@8580 Channel: 7 Note on, C4 key=60 velocity: 91
@8601 Channel: 7 Note on, C4 key=60 velocity: 0
@8601 Channel: 7 Note on, E4 key=64 velocity: 0
@8603 Channel: 7 Note on, A3 key=57 velocity: 0
@8640 Channel: 7 Note on, C4 key=60 velocity: 91
@8640 Channel: 7 Note on, D4 key=62 velocity: 91
@8640 Channel: 7 Note on, G3 key=55 velocity: 91
@8661 Channel: 7 Note on, G3 key=55 velocity: 0
@8661 Channel: 7 Note on, D4 key=62 velocity: 0
@8663 Channel: 7 Note on, C4 key=60 velocity: 0
@8700 Channel: 7 Note on, C4 key=60 velocity: 91
@8700 Channel: 7 Note on, G3 key=55 velocity: 91
@8700 Channel: 7 Note on, D4 key=62 velocity: 91
@8709 Channel: 7 Note on, D4 key=62 velocity: 0
@8709 Channel: 7 Note on, C4 key=60 velocity: 0
@8712 Channel: 7 Note on, G3 key=55 velocity: 0
@8730 Channel: 7 Note on, G3 key=55 velocity: 91
@8730 Channel: 7 Note on, C4 key=60 velocity: 91
@8730 Channel: 7 Note on, D4 key=62 velocity: 91
@8751 Channel: 7 Note on, D4 key=62 velocity: 0
@8751 Channel: 7 Note on, C4 key=60 velocity: 0
@8751 Channel: 7 Note on, G3 key=55 velocity: 0
@8790 Channel: 7 Note on, C4 key=60 velocity: 90
@8790 Channel: 7 Note on, G3 key=55 velocity: 90
@8790 Channel: 7 Note on, D4 key=62 velocity: 90
@8799 Channel: 7 Note on, C4 key=60 velocity: 0
@8802 Channel: 7 Note on, G3 key=55 velocity: 0
@8804 Channel: 7 Note on, D4 key=62 velocity: 0
@8820 Channel: 7 Note on, C4 key=60 velocity: 90
@8820 Channel: 7 Note on, D4 key=62 velocity: 90
@8820 Channel: 7 Note on, G3 key=55 velocity: 90
@8841 Channel: 7 Note on, G3 key=55 velocity: 0
@8841 Channel: 7 Note on, C4 key=60 velocity: 0
@8843 Channel: 7 Note on, D4 key=62 velocity: 0
@8880 Channel: 7 Note on, D4 key=62 velocity: 90
@8880 Channel: 7 Note on, B3 key=59 velocity: 90
@8880 Channel: 7 Note on, G3 key=55 velocity: 90
@8901 Channel: 7 Note on, B3 key=59 velocity: 0
@8903 Channel: 7 Note on, G3 key=55 velocity: 0
@8903 Channel: 7 Note on, D4 key=62 velocity: 0
@8940 Channel: 7 Note on, D4 key=62 velocity: 90
@8940 Channel: 7 Note on, B3 key=59 velocity: 90
@8940 Channel: 7 Note on, G3 key=55 velocity: 90
@8949 Channel: 7 Note on, B3 key=59 velocity: 0
@8952 Channel: 7 Note on, G3 key=55 velocity: 0
@8952 Channel: 7 Note on, D4 key=62 velocity: 0
@8970 Channel: 7 Note on, D4 key=62 velocity: 90
@8970 Channel: 7 Note on, G3 key=55 velocity: 90
@8970 Channel: 7 Note on, B3 key=59 velocity: 90
@8988 Channel: 7 Note on, B3 key=59 velocity: 0
@8991 Channel: 7 Note on, D4 key=62 velocity: 0
@8993 Channel: 7 Note on, G3 key=55 velocity: 0
@9030 Channel: 7 Note on, B3 key=59 velocity: 90
@9030 Channel: 7 Note on, D4 key=62 velocity: 90
@9030 Channel: 7 Note on, G3 key=55 velocity: 90
@9039 Channel: 7 Note on, G3 key=55 velocity: 0
@9039 Channel: 7 Note on, D4 key=62 velocity: 0
@9039 Channel: 7 Note on, B3 key=59 velocity: 0
@9060 Channel: 7 Note on, B3 key=59 velocity: 90
@9060 Channel: 7 Note on, D4 key=62 velocity: 90
@9060 Channel: 7 Note on, G3 key=55 velocity: 90
@9077 Channel: 7 Note on, G3 key=55 velocity: 0
@9077 Channel: 7 Note on, D4 key=62 velocity: 0
@9077 Channel: 7 Note on, B3 key=59 velocity: 0
@9120 Channel: 7 Note on, G3 key=55 velocity: 90
@9120 Channel: 7 Note on, B3 key=59 velocity: 90
@9120 Channel: 7 Note on, F4 key=65 velocity: 90
@9141 Channel: 7 Note on, F4 key=65 velocity: 0
@9141 Channel: 7 Note on, B3 key=59 velocity: 0
@9143 Channel: 7 Note on, G3 key=55 velocity: 0
@9180 Channel: 7 Note on, B3 key=59 velocity: 90
@9180 Channel: 7 Note on, F4 key=65 velocity: 90
@9180 Channel: 7 Note on, G3 key=55 velocity: 90
@9189 Channel: 7 Note on, B3 key=59 velocity: 0
@9192 Channel: 7 Note on, G3 key=55 velocity: 0
@9192 Channel: 7 Note on, F4 key=65 velocity: 0
@9210 Channel: 7 Note on, F4 key=65 velocity: 90
@9210 Channel: 7 Note on, G3 key=55 velocity: 90
@9210 Channel: 7 Note on, B3 key=59 velocity: 90
@9228 Channel: 7 Note on, B3 key=59 velocity: 0
@9231 Channel: 7 Note on, G3 key=55 velocity: 0
@9231 Channel: 7 Note on, F4 key=65 velocity: 0
@9270 Channel: 7 Note on, F4 key=65 velocity: 90
@9270 Channel: 7 Note on, G3 key=55 velocity: 90
@9270 Channel: 7 Note on, B3 key=59 velocity: 90
@9279 Channel: 7 Note on, B3 key=59 velocity: 0
@9282 Channel: 7 Note on, G3 key=55 velocity: 0
@9300 Channel: 7 Note on, G3 key=55 velocity: 90
@9300 Channel: 7 Note on, B3 key=59 velocity: 90
@9309 Channel: 7 Note on, F4 key=65 velocity: 0
@9321 Channel: 7 Note on, B3 key=59 velocity: 0
@9323 Channel: 7 Note on, G3 key=55 velocity: 0
@9360 Channel: 7 Note on, D4 key=62 velocity: 90
@9360 Channel: 7 Note on, G3 key=55 velocity: 90
@9360 Channel: 7 Note on, B3 key=59 velocity: 90
@9381 Channel: 7 Note on, B3 key=59 velocity: 0
@9383 Channel: 7 Note on, G3 key=55 velocity: 0
@9383 Channel: 7 Note on, D4 key=62 velocity: 0
@9420 Channel: 7 Note on, G3 key=55 velocity: 90
@9420 Channel: 7 Note on, B3 key=59 velocity: 90
@9420 Channel: 7 Note on, D4 key=62 velocity: 90
@9429 Channel: 7 Note on, D4 key=62 velocity: 0
@9429 Channel: 7 Note on, B3 key=59 velocity: 0
@9432 Channel: 7 Note on, G3 key=55 velocity: 0
@9450 Channel: 7 Note on, G3 key=55 velocity: 91
@9450 Channel: 7 Note on, B3 key=59 velocity: 91
@9450 Channel: 7 Note on, D4 key=62 velocity: 91
@9467 Channel: 7 Note on, D4 key=62 velocity: 0
@9471 Channel: 7 Note on, B3 key=59 velocity: 0
@9473 Channel: 7 Note on, G3 key=55 velocity: 0
@9510 Channel: 7 Note on, G3 key=55 velocity: 92
@9510 Channel: 7 Note on, B3 key=59 velocity: 92
@9510 Channel: 7 Note on, D4 key=62 velocity: 92
@9519 Channel: 7 Note on, D4 key=62 velocity: 0
@9519 Channel: 7 Note on, B3 key=59 velocity: 0
@9522 Channel: 7 Note on, G3 key=55 velocity: 0
@9540 Channel: 7 Note on, G3 key=55 velocity: 92
@9540 Channel: 7 Note on, B3 key=59 velocity: 92
@9540 Channel: 7 Note on, D4 key=62 velocity: 92
@9561 Channel: 7 Note on, D4 key=62 velocity: 0
@9563 Channel: 7 Note on, B3 key=59 velocity: 0
@9563 Channel: 7 Note on, G3 key=55 velocity: 0
@9600 Channel: 7 Note on, C4 key=60 velocity: 92
@9600 Channel: 7 Note on, E4 key=64 velocity: 92
@9600 Channel: 7 Note on, G3 key=55 velocity: 92
@9600 Channel: 7 Note on, E4 key=64 velocity: 92
@9600 Channel: 7 Note on, C4 key=60 velocity: 92
@9600 Channel: 7 Note on, G3 key=55 velocity: 92
@9623 Channel: 7 Note on, C4 key=60 velocity: 0
@9623 Channel: 7 Note on, E4 key=64 velocity: 0
@9623 Channel: 7 Note on, G3 key=55 velocity: 0
@9627 Channel: 7 Note on, C4 key=60 velocity: 0
@9627 Channel: 7 Note on, G3 key=55 velocity: 0
@9627 Channel: 7 Note on, E4 key=64 velocity: 0
@9660 Channel: 7 Note on, G3 key=55 velocity: 92
@9660 Channel: 7 Note on, E4 key=64 velocity: 92
@9660 Channel: 7 Note on, C4 key=60 velocity: 92
@9669 Channel: 7 Note on, C4 key=60 velocity: 0
@9669 Channel: 7 Note on, E4 key=64 velocity: 0
@9672 Channel: 7 Note on, G3 key=55 velocity: 0
@9690 Channel: 7 Note on, G3 key=55 velocity: 92
@9690 Channel: 7 Note on, E4 key=64 velocity: 92
@9690 Channel: 7 Note on, C4 key=60 velocity: 92
@9711 Channel: 7 Note on, C4 key=60 velocity: 0
@9716 Channel: 7 Note on, E4 key=64 velocity: 0
@9716 Channel: 7 Note on, G3 key=55 velocity: 0
@9750 Channel: 7 Note on, C4 key=60 velocity: 92
@9750 Channel: 7 Note on, E4 key=64 velocity: 92
@9750 Channel: 7 Note on, G3 key=55 velocity: 92
@9759 Channel: 7 Note on, G3 key=55 velocity: 0
@9759 Channel: 7 Note on, E4 key=64 velocity: 0
@9759 Channel: 7 Note on, C4 key=60 velocity: 0
@9780 Channel: 7 Note on, E4 key=64 velocity: 92
@9780 Channel: 7 Note on, C4 key=60 velocity: 92
@9780 Channel: 7 Note on, G3 key=55 velocity: 92
@9806 Channel: 7 Note on, G3 key=55 velocity: 0
@9806 Channel: 7 Note on, C4 key=60 velocity: 0
@9806 Channel: 7 Note on, E4 key=64 velocity: 0
@9840 Channel: 7 Note on, F4 key=65 velocity: 90
@9840 Channel: 7 Note on, C4 key=60 velocity: 90
@9840 Channel: 7 Note on, G3 key=55 velocity: 90
@9866 Channel: 7 Note on, G3 key=55 velocity: 0
@9866 Channel: 7 Note on, C4 key=60 velocity: 0
@9866 Channel: 7 Note on, F4 key=65 velocity: 0
@9900 Channel: 7 Note on, F4 key=65 velocity: 90
@9900 Channel: 7 Note on, C4 key=60 velocity: 90
@9900 Channel: 7 Note on, G3 key=55 velocity: 90
@9909 Channel: 7 Note on, G3 key=55 velocity: 0
@9909 Channel: 7 Note on, C4 key=60 velocity: 0
@9912 Channel: 7 Note on, F4 key=65 velocity: 0
@9930 Channel: 7 Note on, F4 key=65 velocity: 90
@9930 Channel: 7 Note on, C4 key=60 velocity: 90
@9930 Channel: 7 Note on, G3 key=55 velocity: 90
@9956 Channel: 7 Note on, G3 key=55 velocity: 0
@9956 Channel: 7 Note on, C4 key=60 velocity: 0
@9956 Channel: 7 Note on, F4 key=65 velocity: 0
@9990 Channel: 7 Note on, G3 key=55 velocity: 89
@9990 Channel: 7 Note on, C4 key=60 velocity: 89
@9990 Channel: 7 Note on, F4 key=65 velocity: 89
@10002 Channel: 7 Note on, F4 key=65 velocity: 0
@10002 Channel: 7 Note on, C4 key=60 velocity: 0
@10002 Channel: 7 Note on, G3 key=55 velocity: 0
@10020 Channel: 7 Note on, F4 key=65 velocity: 89
@10020 Channel: 7 Note on, G3 key=55 velocity: 89
@10020 Channel: 7 Note on, C4 key=60 velocity: 89
@10047 Channel: 7 Note on, C4 key=60 velocity: 0
@10047 Channel: 7 Note on, G3 key=55 velocity: 0
@10050 Channel: 7 Note on, F4 key=65 velocity: 0
@10080 Channel: 7 Note on, C4 key=60 velocity: 88
@10080 Channel: 7 Note on, E4 key=64 velocity: 88
@10080 Channel: 7 Note on, G3 key=55 velocity: 88
@10101 Channel: 7 Note on, G3 key=55 velocity: 0
@10101 Channel: 7 Note on, E4 key=64 velocity: 0
@10101 Channel: 7 Note on, C4 key=60 velocity: 0
@10140 Channel: 7 Note on, C4 key=60 velocity: 88
@10140 Channel: 7 Note on, E4 key=64 velocity: 88
@10140 Channel: 7 Note on, G3 key=55 velocity: 88
@10152 Channel: 7 Note on, G3 key=55 velocity: 0
@10152 Channel: 7 Note on, E4 key=64 velocity: 0
@10152 Channel: 7 Note on, C4 key=60 velocity: 0
@10170 Channel: 7 Note on, E4 key=64 velocity: 88
@10170 Channel: 7 Note on, G3 key=55 velocity: 88
@10170 Channel: 7 Note on, C4 key=60 velocity: 88
@10191 Channel: 7 Note on, C4 key=60 velocity: 0
@10193 Channel: 7 Note on, G3 key=55 velocity: 0
@10193 Channel: 7 Note on, E4 key=64 velocity: 0
@10230 Channel: 7 Note on, G3 key=55 velocity: 88
@10230 Channel: 7 Note on, E4 key=64 velocity: 88
@10230 Channel: 7 Note on, C4 key=60 velocity: 88
@10242 Channel: 7 Note on, C4 key=60 velocity: 0
@10242 Channel: 7 Note on, E4 key=64 velocity: 0
@10242 Channel: 7 Note on, G3 key=55 velocity: 0
@10260 Channel: 7 Note on, E4 key=64 velocity: 88
@10260 Channel: 7 Note on, G3 key=55 velocity: 88
@10260 Channel: 7 Note on, C4 key=60 velocity: 88
@10283 Channel: 7 Note on, C4 key=60 velocity: 0
@10283 Channel: 7 Note on, G3 key=55 velocity: 0
@10283 Channel: 7 Note on, E4 key=64 velocity: 0
@10320 Channel: 7 Note on, C4 key=60 velocity: 88
@10320 Channel: 7 Note on, G3 key=55 velocity: 88
@10320 Channel: 7 Note on, F4 key=65 velocity: 88
@10343 Channel: 7 Note on, F4 key=65 velocity: 0
@10343 Channel: 7 Note on, G3 key=55 velocity: 0
@10343 Channel: 7 Note on, C4 key=60 velocity: 0
@10380 Channel: 7 Note on, C4 key=60 velocity: 88
@10380 Channel: 7 Note on, F4 key=65 velocity: 88
@10380 Channel: 7 Note on, G3 key=55 velocity: 88
@10392 Channel: 7 Note on, G3 key=55 velocity: 0
@10392 Channel: 7 Note on, F4 key=65 velocity: 0
@10392 Channel: 7 Note on, C4 key=60 velocity: 0
@10410 Channel: 7 Note on, F4 key=65 velocity: 88
@10410 Channel: 7 Note on, C4 key=60 velocity: 88
@10410 Channel: 7 Note on, G3 key=55 velocity: 88
@10431 Channel: 7 Note on, C4 key=60 velocity: 0
@10431 Channel: 7 Note on, F4 key=65 velocity: 0
@10433 Channel: 7 Note on, G3 key=55 velocity: 0
@10470 Channel: 7 Note on, F4 key=65 velocity: 89
@10470 Channel: 7 Note on, C4 key=60 velocity: 89
@10470 Channel: 7 Note on, G3 key=55 velocity: 89
@10479 Channel: 7 Note on, G3 key=55 velocity: 0
@10479 Channel: 7 Note on, C4 key=60 velocity: 0
@10482 Channel: 7 Note on, F4 key=65 velocity: 0
@10500 Channel: 7 Note on, F4 key=65 velocity: 90
@10500 Channel: 7 Note on, G3 key=55 velocity: 90
@10500 Channel: 7 Note on, C4 key=60 velocity: 90
@10521 Channel: 7 Note on, F4 key=65 velocity: 0
@10523 Channel: 7 Note on, C4 key=60 velocity: 0
@10523 Channel: 7 Note on, G3 key=55 velocity: 0
@10560 Channel: 7 Note on, C4 key=60 velocity: 90
@10560 Channel: 7 Note on, E4 key=64 velocity: 90
@10560 Channel: 7 Note on, A3 key=57 velocity: 90
@10583 Channel: 7 Note on, A3 key=57 velocity: 0
@10583 Channel: 7 Note on, E4 key=64 velocity: 0
@10586 Channel: 7 Note on, C4 key=60 velocity: 0
@10620 Channel: 7 Note on, A3 key=57 velocity: 90
@10620 Channel: 7 Note on, C4 key=60 velocity: 90
@10620 Channel: 7 Note on, E4 key=64 velocity: 90
@10632 Channel: 7 Note on, E4 key=64 velocity: 0
@10632 Channel: 7 Note on, C4 key=60 velocity: 0
@10634 Channel: 7 Note on, A3 key=57 velocity: 0
@10650 Channel: 7 Note on, A3 key=57 velocity: 90
@10650 Channel: 7 Note on, E4 key=64 velocity: 90
@10650 Channel: 7 Note on, C4 key=60 velocity: 90
@10671 Channel: 7 Note on, C4 key=60 velocity: 0
@10673 Channel: 7 Note on, E4 key=64 velocity: 0
@10673 Channel: 7 Note on, A3 key=57 velocity: 0
@10710 Channel: 7 Note on, C4 key=60 velocity: 89
@10710 Channel: 7 Note on, A3 key=57 velocity: 89
@10710 Channel: 7 Note on, E4 key=64 velocity: 89
@10719 Channel: 7 Note on, E4 key=64 velocity: 0
@10719 Channel: 7 Note on, A3 key=57 velocity: 0
@10719 Channel: 7 Note on, C4 key=60 velocity: 0
@10740 Channel: 7 Note on, A3 key=57 velocity: 88
@10740 Channel: 7 Note on, C4 key=60 velocity: 88
@10740 Channel: 7 Note on, E4 key=64 velocity: 88
@10763 Channel: 7 Note on, E4 key=64 velocity: 0
@10763 Channel: 7 Note on, C4 key=60 velocity: 0
@10763 Channel: 7 Note on, A3 key=57 velocity: 0
@10800 Channel: 7 Note on, A3 key=57 velocity: 88
@10800 Channel: 7 Note on, C4 key=60 velocity: 88
@10800 Channel: 7 Note on, E4 key=64 velocity: 88
@10823 Channel: 7 Note on, E4 key=64 velocity: 0
@10823 Channel: 7 Note on, C4 key=60 velocity: 0
@10823 Channel: 7 Note on, A3 key=57 velocity: 0
@10860 Channel: 7 Note on, A3 key=57 velocity: 88
@10860 Channel: 7 Note on, E4 key=64 velocity: 88
@10860 Channel: 7 Note on, C4 key=60 velocity: 88
@10869 Channel: 7 Note on, C4 key=60 velocity: 0
@10872 Channel: 7 Note on, E4 key=64 velocity: 0
@10872 Channel: 7 Note on, A3 key=57 velocity: 0
@10890 Channel: 7 Note on, A3 key=57 velocity: 88
@10890 Channel: 7 Note on, C4 key=60 velocity: 88
@10890 Channel: 7 Note on, E4 key=64 velocity: 88
@10911 Channel: 7 Note on, E4 key=64 velocity: 0
@10911 Channel: 7 Note on, C4 key=60 velocity: 0
@10913 Channel: 7 Note on, A3 key=57 velocity: 0
@10950 Channel: 7 Note on, A3 key=57 velocity: 88
@10950 Channel: 7 Note on, C4 key=60 velocity: 88
@10950 Channel: 7 Note on, E4 key=64 velocity: 88
@10959 Channel: 7 Note on, E4 key=64 velocity: 0
@10959 Channel: 7 Note on, C4 key=60 velocity: 0
@10959 Channel: 7 Note on, A3 key=57 velocity: 0
@10980 Channel: 7 Note on, A3 key=57 velocity: 89
@10980 Channel: 7 Note on, E4 key=64 velocity: 89
@10980 Channel: 7 Note on, C4 key=60 velocity: 89
@10997 Channel: 7 Note on, C4 key=60 velocity: 0
@10997 Channel: 7 Note on, E4 key=64 velocity: 0
@10998 Channel: 7 Note on, A3 key=57 velocity: 0
@11040 Channel: 7 Note on, A3 key=57 velocity: 89
@11040 Channel: 7 Note on, E4 key=64 velocity: 89
@11040 Channel: 7 Note on, C4 key=60 velocity: 89
@11061 Channel: 7 Note on, C4 key=60 velocity: 0
@11063 Channel: 7 Note on, E4 key=64 velocity: 0
@11063 Channel: 7 Note on, A3 key=57 velocity: 0
@11100 Channel: 7 Note on, A3 key=57 velocity: 89
@11100 Channel: 7 Note on, C4 key=60 velocity: 89
@11100 Channel: 7 Note on, E4 key=64 velocity: 89
@11109 Channel: 7 Note on, C4 key=60 velocity: 0
@11112 Channel: 7 Note on, E4 key=64 velocity: 0
@11112 Channel: 7 Note on, A3 key=57 velocity: 0
@11130 Channel: 7 Note on, A3 key=57 velocity: 89
@11130 Channel: 7 Note on, E4 key=64 velocity: 89
@11130 Channel: 7 Note on, C4 key=60 velocity: 89
@11147 Channel: 7 Note on, C4 key=60 velocity: 0
@11148 Channel: 7 Note on, E4 key=64 velocity: 0
@11151 Channel: 7 Note on, A3 key=57 velocity: 0
@11190 Channel: 7 Note on, A3 key=57 velocity: 87
@11190 Channel: 7 Note on, C4 key=60 velocity: 87
@11190 Channel: 7 Note on, E4 key=64 velocity: 87
@11198 Channel: 7 Note on, E4 key=64 velocity: 0
@11198 Channel: 7 Note on, C4 key=60 velocity: 0
@11202 Channel: 7 Note on, A3 key=57 velocity: 0
@11220 Channel: 7 Note on, A3 key=57 velocity: 87
@11220 Channel: 7 Note on, C4 key=60 velocity: 87
@11220 Channel: 7 Note on, E4 key=64 velocity: 87
@11238 Channel: 7 Note on, C4 key=60 velocity: 0
@11241 Channel: 7 Note on, E4 key=64 velocity: 0
@11241 Channel: 7 Note on, A3 key=57 velocity: 0
@11280 Channel: 7 Note on, A3 key=57 velocity: 87
@11280 Channel: 7 Note on, E4 key=64 velocity: 87
@11280 Channel: 7 Note on, C4 key=60 velocity: 87
@11301 Channel: 7 Note on, C4 key=60 velocity: 0
@11303 Channel: 7 Note on, E4 key=64 velocity: 0
@11303 Channel: 7 Note on, A3 key=57 velocity: 0
@11340 Channel: 7 Note on, A3 key=57 velocity: 88
@11340 Channel: 7 Note on, C4 key=60 velocity: 88
@11340 Channel: 7 Note on, E4 key=64 velocity: 88
@11349 Channel: 7 Note on, E4 key=64 velocity: 0
@11349 Channel: 7 Note on, C4 key=60 velocity: 0
@11352 Channel: 7 Note on, A3 key=57 velocity: 0
@11370 Channel: 7 Note on, A3 key=57 velocity: 89
@11370 Channel: 7 Note on, E4 key=64 velocity: 89
@11370 Channel: 7 Note on, C4 key=60 velocity: 89
@11391 Channel: 7 Note on, C4 key=60 velocity: 0
@11391 Channel: 7 Note on, E4 key=64 velocity: 0
@11393 Channel: 7 Note on, A3 key=57 velocity: 0
@11430 Channel: 7 Note on, A3 key=57 velocity: 89
@11430 Channel: 7 Note on, C4 key=60 velocity: 89
@11430 Channel: 7 Note on, E4 key=64 velocity: 89
@11439 Channel: 7 Note on, E4 key=64 velocity: 0
@11439 Channel: 7 Note on, C4 key=60 velocity: 0
@11444 Channel: 7 Note on, A3 key=57 velocity: 0
@11460 Channel: 7 Note on, E4 key=64 velocity: 89
@11460 Channel: 7 Note on, A3 key=57 velocity: 89
@11460 Channel: 7 Note on, C4 key=60 velocity: 89
@11478 Channel: 7 Note on, C4 key=60 velocity: 0
@11478 Channel: 7 Note on, E4 key=64 velocity: 0
@11481 Channel: 7 Note on, A3 key=57 velocity: 0
@11520 Channel: 7 Note on, C4 key=60 velocity: 89
@11520 Channel: 7 Note on, F4 key=65 velocity: 89
@11520 Channel: 7 Note on, A3 key=57 velocity: 89
@11541 Channel: 7 Note on, A3 key=57 velocity: 0
@11541 Channel: 7 Note on, C4 key=60 velocity: 0
@11543 Channel: 7 Note on, F4 key=65 velocity: 0
@11580 Channel: 7 Note on, F4 key=65 velocity: 90
@11580 Channel: 7 Note on, C4 key=60 velocity: 90
@11580 Channel: 7 Note on, A3 key=57 velocity: 90
@11589 Channel: 7 Note on, C4 key=60 velocity: 0
@11592 Channel: 7 Note on, A3 key=57 velocity: 0
@11592 Channel: 7 Note on, F4 key=65 velocity: 0
@11610 Channel: 7 Note on, A3 key=57 velocity: 90
@11610 Channel: 7 Note on, F4 key=65 velocity: 90
@11610 Channel: 7 Note on, C4 key=60 velocity: 90
@11631 Channel: 7 Note on, C4 key=60 velocity: 0
@11631 Channel: 7 Note on, F4 key=65 velocity: 0
@11631 Channel: 7 Note on, A3 key=57 velocity: 0
@11670 Channel: 7 Note on, A3 key=57 velocity: 90
@11670 Channel: 7 Note on, C4 key=60 velocity: 90
@11670 Channel: 7 Note on, F4 key=65 velocity: 90
@11679 Channel: 7 Note on, F4 key=65 velocity: 0
@11679 Channel: 7 Note on, C4 key=60 velocity: 0
@11682 Channel: 7 Note on, A3 key=57 velocity: 0
@11700 Channel: 7 Note on, A3 key=57 velocity: 90
@11700 Channel: 7 Note on, F4 key=65 velocity: 90
@11700 Channel: 7 Note on, C4 key=60 velocity: 90
@11718 Channel: 7 Note on, C4 key=60 velocity: 0
@11718 Channel: 7 Note on, F4 key=65 velocity: 0
@11718 Channel: 7 Note on, A3 key=57 velocity: 0
@11760 Channel: 7 Note on, C4 key=60 velocity: 90
@11760 Channel: 7 Note on, G3 key=55 velocity: 90
@11760 Channel: 7 Note on, F4 key=65 velocity: 90
@11781 Channel: 7 Note on, F4 key=65 velocity: 0
@11781 Channel: 7 Note on, G3 key=55 velocity: 0
@11781 Channel: 7 Note on, C4 key=60 velocity: 0
@11820 Channel: 7 Note on, G3 key=55 velocity: 90
@11820 Channel: 7 Note on, C4 key=60 velocity: 90
@11820 Channel: 7 Note on, F4 key=65 velocity: 90
@11832 Channel: 7 Note on, F4 key=65 velocity: 0
@11832 Channel: 7 Note on, C4 key=60 velocity: 0
@11832 Channel: 7 Note on, G3 key=55 velocity: 0
@11850 Channel: 7 Note on, G3 key=55 velocity: 90
@11850 Channel: 7 Note on, F4 key=65 velocity: 90
@11850 Channel: 7 Note on, C4 key=60 velocity: 90
@11867 Channel: 7 Note on, C4 key=60 velocity: 0
@11867 Channel: 7 Note on, F4 key=65 velocity: 0
@11871 Channel: 7 Note on, G3 key=55 velocity: 0
@11910 Channel: 7 Note on, G3 key=55 velocity: 90
@11910 Channel: 7 Note on, C4 key=60 velocity: 90
@11910 Channel: 7 Note on, F4 key=65 velocity: 90
@11922 Channel: 7 Note on, F4 key=65 velocity: 0
@11922 Channel: 7 Note on, C4 key=60 velocity: 0
@11922 Channel: 7 Note on, G3 key=55 velocity: 0
@11940 Channel: 7 Note on, G3 key=55 velocity: 90
@11940 Channel: 7 Note on, F4 key=65 velocity: 90
@11940 Channel: 7 Note on, C4 key=60 velocity: 90
@11961 Channel: 7 Note on, C4 key=60 velocity: 0
@11961 Channel: 7 Note on, F4 key=65 velocity: 0
@11961 Channel: 7 Note on, G3 key=55 velocity: 0
@12000 Channel: 7 Note on, A3 key=57 velocity: 90
@12000 Channel: 7 Note on, C4 key=60 velocity: 90
@12000 Channel: 7 Note on, F4 key=65 velocity: 90
@12017 Channel: 7 Note on, F4 key=65 velocity: 0
@12018 Channel: 7 Note on, C4 key=60 velocity: 0
@12021 Channel: 7 Note on, A3 key=57 velocity: 0
@12060 Channel: 7 Note on, F4 key=65 velocity: 90
@12060 Channel: 7 Note on, A3 key=57 velocity: 90
@12060 Channel: 7 Note on, C4 key=60 velocity: 90
@12069 Channel: 7 Note on, C4 key=60 velocity: 0
@12069 Channel: 7 Note on, A3 key=57 velocity: 0
@12069 Channel: 7 Note on, F4 key=65 velocity: 0
@12090 Channel: 7 Note on, A3 key=57 velocity: 90
@12090 Channel: 7 Note on, F4 key=65 velocity: 90
@12090 Channel: 7 Note on, C4 key=60 velocity: 90
@12107 Channel: 7 Note on, C4 key=60 velocity: 0
@12108 Channel: 7 Note on, F4 key=65 velocity: 0
@12111 Channel: 7 Note on, A3 key=57 velocity: 0
@12150 Channel: 7 Note on, A3 key=57 velocity: 90
@12150 Channel: 7 Note on, F4 key=65 velocity: 90
@12150 Channel: 7 Note on, C4 key=60 velocity: 90
@12159 Channel: 7 Note on, C4 key=60 velocity: 0
@12162 Channel: 7 Note on, F4 key=65 velocity: 0
@12162 Channel: 7 Note on, A3 key=57 velocity: 0
@12180 Channel: 7 Note on, F4 key=65 velocity: 90
@12180 Channel: 7 Note on, A3 key=57 velocity: 90
@12180 Channel: 7 Note on, C4 key=60 velocity: 90
@12198 Channel: 7 Note on, C4 key=60 velocity: 0
@12201 Channel: 7 Note on, A3 key=57 velocity: 0
@12201 Channel: 7 Note on, F4 key=65 velocity: 0
@12240 Channel: 7 Note on, C4 key=60 velocity: 90
@12240 Channel: 7 Note on, F4 key=65 velocity: 90
@12240 Channel: 7 Note on, G3 key=55 velocity: 90
@12257 Channel: 7 Note on, G3 key=55 velocity: 0
@12258 Channel: 7 Note on, F4 key=65 velocity: 0
@12258 Channel: 7 Note on, C4 key=60 velocity: 0
@12300 Channel: 7 Note on, C4 key=60 velocity: 90
@12300 Channel: 7 Note on, G3 key=55 velocity: 90
@12300 Channel: 7 Note on, F4 key=65 velocity: 90
@12312 Channel: 7 Note on, F4 key=65 velocity: 0
@12312 Channel: 7 Note on, G3 key=55 velocity: 0
@12312 Channel: 7 Note on, C4 key=60 velocity: 0
@12330 Channel: 7 Note on, F4 key=65 velocity: 90
@12330 Channel: 7 Note on, G3 key=55 velocity: 90
@12330 Channel: 7 Note on, C4 key=60 velocity: 90
@12348 Channel: 7 Note on, C4 key=60 velocity: 0
@12351 Channel: 7 Note on, G3 key=55 velocity: 0
@12351 Channel: 7 Note on, F4 key=65 velocity: 0
@12390 Channel: 7 Note on, C4 key=60 velocity: 90
@12390 Channel: 7 Note on, F4 key=65 velocity: 90
@12390 Channel: 7 Note on, G3 key=55 velocity: 90
@12402 Channel: 7 Note on, G3 key=55 velocity: 0
@12402 Channel: 7 Note on, F4 key=65 velocity: 0
@12402 Channel: 7 Note on, C4 key=60 velocity: 0
@12420 Channel: 7 Note on, F4 key=65 velocity: 90
@12420 Channel: 7 Note on, C4 key=60 velocity: 90
@12420 Channel: 7 Note on, G3 key=55 velocity: 90
@12437 Channel: 7 Note on, F4 key=65 velocity: 0
@12438 Channel: 7 Note on, C4 key=60 velocity: 0
@12441 Channel: 7 Note on, G3 key=55 velocity: 0
@12480 Channel: 7 Note on, B3 key=59 velocity: 90
@12480 Channel: 7 Note on, G3 key=55 velocity: 90
@12480 Channel: 7 Note on, E4 key=64 velocity: 90
@12498 Channel: 7 Note on, E4 key=64 velocity: 0
@12498 Channel: 7 Note on, B3 key=59 velocity: 0
@12501 Channel: 7 Note on, G3 key=55 velocity: 0
@12540 Channel: 7 Note on, E4 key=64 velocity: 90
@12540 Channel: 7 Note on, B3 key=59 velocity: 90
@12540 Channel: 7 Note on, G3 key=55 velocity: 90
@12549 Channel: 7 Note on, G3 key=55 velocity: 0
@12549 Channel: 7 Note on, B3 key=59 velocity: 0
@12552 Channel: 7 Note on, E4 key=64 velocity: 0
@12570 Channel: 7 Note on, E4 key=64 velocity: 90
@12570 Channel: 7 Note on, G3 key=55 velocity: 90
@12570 Channel: 7 Note on, B3 key=59 velocity: 90
@12588 Channel: 7 Note on, B3 key=59 velocity: 0
@12588 Channel: 7 Note on, G3 key=55 velocity: 0
@12591 Channel: 7 Note on, E4 key=64 velocity: 0
@12630 Channel: 7 Note on, E4 key=64 velocity: 90
@12630 Channel: 7 Note on, B3 key=59 velocity: 90
@12630 Channel: 7 Note on, G3 key=55 velocity: 90
@12639 Channel: 7 Note on, G3 key=55 velocity: 0
@12639 Channel: 7 Note on, B3 key=59 velocity: 0
@12639 Channel: 7 Note on, E4 key=64 velocity: 0
@12660 Channel: 7 Note on, G3 key=55 velocity: 90
@12660 Channel: 7 Note on, E4 key=64 velocity: 90
@12660 Channel: 7 Note on, B3 key=59 velocity: 90
@12677 Channel: 7 Note on, B3 key=59 velocity: 0
@12677 Channel: 7 Note on, E4 key=64 velocity: 0
@12678 Channel: 7 Note on, G3 key=55 velocity: 0
@12720 Channel: 7 Note on, E4 key=64 velocity: 90
@12720 Channel: 7 Note on, G3 key=55 velocity: 90
@12720 Channel: 7 Note on, B3 key=59 velocity: 90
@12741 Channel: 7 Note on, B3 key=59 velocity: 0
@12743 Channel: 7 Note on, G3 key=55 velocity: 0
@12743 Channel: 7 Note on, E4 key=64 velocity: 0
@12780 Channel: 7 Note on, G3 key=55 velocity: 91
@12780 Channel: 7 Note on, B3 key=59 velocity: 91
@12780 Channel: 7 Note on, E4 key=64 velocity: 91
@12789 Channel: 7 Note on, E4 key=64 velocity: 0
@12789 Channel: 7 Note on, B3 key=59 velocity: 0
@12789 Channel: 7 Note on, G3 key=55 velocity: 0
@12810 Channel: 7 Note on, G3 key=55 velocity: 91
@12810 Channel: 7 Note on, E4 key=64 velocity: 91
@12810 Channel: 7 Note on, B3 key=59 velocity: 91
@12827 Channel: 7 Note on, B3 key=59 velocity: 0
@12827 Channel: 7 Note on, E4 key=64 velocity: 0
@12828 Channel: 7 Note on, G3 key=55 velocity: 0
@12870 Channel: 7 Note on, B3 key=59 velocity: 91
@12870 Channel: 7 Note on, G3 key=55 velocity: 91
@12870 Channel: 7 Note on, E4 key=64 velocity: 91
@12879 Channel: 7 Note on, E4 key=64 velocity: 0
@12879 Channel: 7 Note on, B3 key=59 velocity: 0
@12882 Channel: 7 Note on, G3 key=55 velocity: 0
@12900 Channel: 7 Note on, G3 key=55 velocity: 91
@12900 Channel: 7 Note on, E4 key=64 velocity: 91
@12900 Channel: 7 Note on, B3 key=59 velocity: 91
@12918 Channel: 7 Note on, B3 key=59 velocity: 0
@12918 Channel: 7 Note on, E4 key=64 velocity: 0
@12921 Channel: 7 Note on, G3 key=55 velocity: 0
@12960 Channel: 7 Note on, A3 key=57 velocity: 91
@12960 Channel: 7 Note on, C4 key=60 velocity: 91
@12960 Channel: 7 Note on, F4 key=65 velocity: 91
@12981 Channel: 7 Note on, C4 key=60 velocity: 0
@12981 Channel: 7 Note on, A3 key=57 velocity: 0
@12983 Channel: 7 Note on, F4 key=65 velocity: 0
@13020 Channel: 7 Note on, A3 key=57 velocity: 91
@13020 Channel: 7 Note on, F4 key=65 velocity: 91
@13020 Channel: 7 Note on, C4 key=60 velocity: 91
@13029 Channel: 7 Note on, C4 key=60 velocity: 0
@13029 Channel: 7 Note on, F4 key=65 velocity: 0
@13029 Channel: 7 Note on, A3 key=57 velocity: 0
@13050 Channel: 7 Note on, F4 key=65 velocity: 91
@13050 Channel: 7 Note on, A3 key=57 velocity: 91
@13050 Channel: 7 Note on, C4 key=60 velocity: 91
@13068 Channel: 7 Note on, C4 key=60 velocity: 0
@13071 Channel: 7 Note on, A3 key=57 velocity: 0
@13071 Channel: 7 Note on, F4 key=65 velocity: 0
@13110 Channel: 7 Note on, C4 key=60 velocity: 91
@13110 Channel: 7 Note on, F4 key=65 velocity: 91
@13110 Channel: 7 Note on, A3 key=57 velocity: 91
@13119 Channel: 7 Note on, C4 key=60 velocity: 0
@13122 Channel: 7 Note on, A3 key=57 velocity: 0
@13122 Channel: 7 Note on, F4 key=65 velocity: 0
@13140 Channel: 7 Note on, F4 key=65 velocity: 91
@13140 Channel: 7 Note on, A3 key=57 velocity: 91
@13140 Channel: 7 Note on, C4 key=60 velocity: 91
@13158 Channel: 7 Note on, C4 key=60 velocity: 0
@13158 Channel: 7 Note on, A3 key=57 velocity: 0
@13161 Channel: 7 Note on, F4 key=65 velocity: 0
@13200 Channel: 7 Note on, B3 key=59 velocity: 91
@13200 Channel: 7 Note on, D4 key=62 velocity: 91
@13200 Channel: 7 Note on, G4 key=67 velocity: 91
@13221 Channel: 7 Note on, D4 key=62 velocity: 0
@13223 Channel: 7 Note on, G4 key=67 velocity: 0
@13223 Channel: 7 Note on, B3 key=59 velocity: 0
@13260 Channel: 7 Note on, G4 key=67 velocity: 92
@13260 Channel: 7 Note on, B3 key=59 velocity: 92
@13260 Channel: 7 Note on, D4 key=62 velocity: 92
@13269 Channel: 7 Note on, D4 key=62 velocity: 0
@13269 Channel: 7 Note on, B3 key=59 velocity: 0
@13272 Channel: 7 Note on, G4 key=67 velocity: 0
@13290 Channel: 7 Note on, G4 key=67 velocity: 92
@13290 Channel: 7 Note on, D4 key=62 velocity: 92
@13290 Channel: 7 Note on, B3 key=59 velocity: 92
@13311 Channel: 7 Note on, B3 key=59 velocity: 0
@13311 Channel: 7 Note on, D4 key=62 velocity: 0
@13311 Channel: 7 Note on, G4 key=67 velocity: 0
@13350 Channel: 7 Note on, G4 key=67 velocity: 92
@13350 Channel: 7 Note on, D4 key=62 velocity: 92
@13350 Channel: 7 Note on, B3 key=59 velocity: 92
@13359 Channel: 7 Note on, B3 key=59 velocity: 0
@13359 Channel: 7 Note on, D4 key=62 velocity: 0
@13359 Channel: 7 Note on, G4 key=67 velocity: 0
@13380 Channel: 7 Note on, B3 key=59 velocity: 92
@13380 Channel: 7 Note on, G4 key=67 velocity: 92
@13380 Channel: 7 Note on, D4 key=62 velocity: 92
@13380 Channel: 7 Note on, F4 key=65 velocity: 92
@13388 Channel: 7 Note on, F4 key=65 velocity: 0
@13407 Channel: 7 Note on, B3 key=59 velocity: 0
@13407 Channel: 7 Note on, G4 key=67 velocity: 0
@13407 Channel: 7 Note on, D4 key=62 velocity: 0
@13440 Channel: 7 Note on, C4 key=60 velocity: 91
@13440 Channel: 7 Note on, G3 key=55 velocity: 91
@13440 Channel: 7 Note on, E4 key=64 velocity: 91
@13470 Channel: 7 Note on, E4 key=64 velocity: 0
@13470 Channel: 7 Note on, G3 key=55 velocity: 0
@13470 Channel: 7 Note on, C4 key=60 velocity: 0
@13500 Channel: 7 Note on, E4 key=64 velocity: 91
@13500 Channel: 7 Note on, G3 key=55 velocity: 91
@13500 Channel: 7 Note on, C4 key=60 velocity: 91
@13512 Channel: 7 Note on, C4 key=60 velocity: 0
@13512 Channel: 7 Note on, G3 key=55 velocity: 0
@13512 Channel: 7 Note on, E4 key=64 velocity: 0
@13530 Channel: 7 Note on, C4 key=60 velocity: 91
@13530 Channel: 7 Note on, G3 key=55 velocity: 91
@13530 Channel: 7 Note on, E4 key=64 velocity: 91
@13560 Channel: 7 Note on, E4 key=64 velocity: 0
@13560 Channel: 7 Note on, G3 key=55 velocity: 0
@13560 Channel: 7 Note on, C4 key=60 velocity: 0
@13590 Channel: 7 Note on, G3 key=55 velocity: 89
@13590 Channel: 7 Note on, C4 key=60 velocity: 89
@13590 Channel: 7 Note on, E4 key=64 velocity: 89
@13602 Channel: 7 Note on, E4 key=64 velocity: 0
@13602 Channel: 7 Note on, C4 key=60 velocity: 0
@13602 Channel: 7 Note on, G3 key=55 velocity: 0
@13620 Channel: 7 Note on, G3 key=55 velocity: 89
@13620 Channel: 7 Note on, C4 key=60 velocity: 89
@13620 Channel: 7 Note on, E4 key=64 velocity: 89
@13650 Channel: 7 Note on, E4 key=64 velocity: 0
@13650 Channel: 7 Note on, C4 key=60 velocity: 0
@13650 Channel: 7 Note on, G3 key=55 velocity: 0
@13680 Channel: 7 Note on, F4 key=65 velocity: 89
@13680 Channel: 7 Note on, G3 key=55 velocity: 89
@13680 Channel: 7 Note on, C4 key=60 velocity: 89
@13710 Channel: 7 Note on, C4 key=60 velocity: 0
@13710 Channel: 7 Note on, G3 key=55 velocity: 0
@13710 Channel: 7 Note on, F4 key=65 velocity: 0
@13740 Channel: 7 Note on, G3 key=55 velocity: 90
@13740 Channel: 7 Note on, C4 key=60 velocity: 90
@13740 Channel: 7 Note on, F4 key=65 velocity: 90
@13752 Channel: 7 Note on, F4 key=65 velocity: 0
@13752 Channel: 7 Note on, C4 key=60 velocity: 0
@13752 Channel: 7 Note on, G3 key=55 velocity: 0
@13770 Channel: 7 Note on, F4 key=65 velocity: 90
@13770 Channel: 7 Note on, C4 key=60 velocity: 90
@13770 Channel: 7 Note on, G3 key=55 velocity: 90
@13800 Channel: 7 Note on, G3 key=55 velocity: 0
@13800 Channel: 7 Note on, C4 key=60 velocity: 0
@13800 Channel: 7 Note on, F4 key=65 velocity: 0
@13830 Channel: 7 Note on, G3 key=55 velocity: 90
@13830 Channel: 7 Note on, C4 key=60 velocity: 90
@13830 Channel: 7 Note on, F4 key=65 velocity: 90
@13842 Channel: 7 Note on, F4 key=65 velocity: 0
@13842 Channel: 7 Note on, C4 key=60 velocity: 0
@13842 Channel: 7 Note on, G3 key=55 velocity: 0
@13860 Channel: 7 Note on, F4 key=65 velocity: 90
@13860 Channel: 7 Note on, G3 key=55 velocity: 90
@13860 Channel: 7 Note on, C4 key=60 velocity: 90
@13890 Channel: 7 Note on, C4 key=60 velocity: 0
@13890 Channel: 7 Note on, G3 key=55 velocity: 0
@13890 Channel: 7 Note on, F4 key=65 velocity: 0
@13920 Channel: 7 Note on, C4 key=60 velocity: 90
@13920 Channel: 7 Note on, G3 key=55 velocity: 90
@13920 Channel: 7 Note on, E4 key=64 velocity: 90
@13950 Channel: 7 Note on, E4 key=64 velocity: 0
@13950 Channel: 7 Note on, G3 key=55 velocity: 0
@13950 Channel: 7 Note on, C4 key=60 velocity: 0
@13980 Channel: 7 Note on, E4 key=64 velocity: 90
@13980 Channel: 7 Note on, G3 key=55 velocity: 90
@13980 Channel: 7 Note on, C4 key=60 velocity: 90
@13992 Channel: 7 Note on, C4 key=60 velocity: 0
@13992 Channel: 7 Note on, G3 key=55 velocity: 0
@13992 Channel: 7 Note on, E4 key=64 velocity: 0
@14010 Channel: 7 Note on, C4 key=60 velocity: 90
@14010 Channel: 7 Note on, G3 key=55 velocity: 90
@14010 Channel: 7 Note on, E4 key=64 velocity: 90
@14040 Channel: 7 Note on, E4 key=64 velocity: 0
@14040 Channel: 7 Note on, G3 key=55 velocity: 0
@14040 Channel: 7 Note on, C4 key=60 velocity: 0
@14070 Channel: 7 Note on, G3 key=55 velocity: 90
@14070 Channel: 7 Note on, C4 key=60 velocity: 90
@14070 Channel: 7 Note on, E4 key=64 velocity: 90
@14082 Channel: 7 Note on, E4 key=64 velocity: 0
@14082 Channel: 7 Note on, C4 key=60 velocity: 0
@14082 Channel: 7 Note on, G3 key=55 velocity: 0
@14100 Channel: 7 Note on, G3 key=55 velocity: 90
@14100 Channel: 7 Note on, C4 key=60 velocity: 90
@14100 Channel: 7 Note on, E4 key=64 velocity: 90
@14130 Channel: 7 Note on, E4 key=64 velocity: 0
@14130 Channel: 7 Note on, C4 key=60 velocity: 0
@14130 Channel: 7 Note on, G3 key=55 velocity: 0
@14160 Channel: 7 Note on, F4 key=65 velocity: 90
@14160 Channel: 7 Note on, G3 key=55 velocity: 90
@14160 Channel: 7 Note on, C4 key=60 velocity: 90
@14190 Channel: 7 Note on, C4 key=60 velocity: 0
@14190 Channel: 7 Note on, G3 key=55 velocity: 0
@14190 Channel: 7 Note on, F4 key=65 velocity: 0
@14220 Channel: 7 Note on, G3 key=55 velocity: 90
@14220 Channel: 7 Note on, C4 key=60 velocity: 90
@14220 Channel: 7 Note on, F4 key=65 velocity: 90
@14232 Channel: 7 Note on, F4 key=65 velocity: 0
@14232 Channel: 7 Note on, C4 key=60 velocity: 0
@14232 Channel: 7 Note on, G3 key=55 velocity: 0
@14250 Channel: 7 Note on, F4 key=65 velocity: 90
@14250 Channel: 7 Note on, C4 key=60 velocity: 90
@14250 Channel: 7 Note on, G3 key=55 velocity: 90
@14280 Channel: 7 Note on, G3 key=55 velocity: 0
@14280 Channel: 7 Note on, C4 key=60 velocity: 0
@14280 Channel: 7 Note on, F4 key=65 velocity: 0
@14310 Channel: 7 Note on, G3 key=55 velocity: 90
@14310 Channel: 7 Note on, C4 key=60 velocity: 90
@14310 Channel: 7 Note on, F4 key=65 velocity: 90
@14322 Channel: 7 Note on, F4 key=65 velocity: 0
@14322 Channel: 7 Note on, C4 key=60 velocity: 0
@14322 Channel: 7 Note on, G3 key=55 velocity: 0
@14340 Channel: 7 Note on, F4 key=65 velocity: 90
@14340 Channel: 7 Note on, G3 key=55 velocity: 90
@14340 Channel: 7 Note on, C4 key=60 velocity: 90
@14370 Channel: 7 Note on, C4 key=60 velocity: 0
@14370 Channel: 7 Note on, G3 key=55 velocity: 0
@14370 Channel: 7 Note on, F4 key=65 velocity: 0
@14400 Channel: 7 Note on, C4 key=60 velocity: 90
@14400 Channel: 7 Note on, G3 key=55 velocity: 90
@14400 Channel: 7 Note on, E4 key=64 velocity: 90
@14430 Channel: 7 Note on, E4 key=64 velocity: 0
@14430 Channel: 7 Note on, G3 key=55 velocity: 0
@14430 Channel: 7 Note on, C4 key=60 velocity: 0
@14460 Channel: 7 Note on, E4 key=64 velocity: 90
@14460 Channel: 7 Note on, G3 key=55 velocity: 90
@14460 Channel: 7 Note on, C4 key=60 velocity: 90
@14472 Channel: 7 Note on, C4 key=60 velocity: 0
@14472 Channel: 7 Note on, G3 key=55 velocity: 0
@14472 Channel: 7 Note on, E4 key=64 velocity: 0
@14490 Channel: 7 Note on, C4 key=60 velocity: 91
@14490 Channel: 7 Note on, G3 key=55 velocity: 91
@14490 Channel: 7 Note on, E4 key=64 velocity: 91
@14520 Channel: 7 Note on, E4 key=64 velocity: 0
@14520 Channel: 7 Note on, G3 key=55 velocity: 0
@14520 Channel: 7 Note on, C4 key=60 velocity: 0
@14550 Channel: 7 Note on, G3 key=55 velocity: 91
@14550 Channel: 7 Note on, C4 key=60 velocity: 91
@14550 Channel: 7 Note on, E4 key=64 velocity: 91
@14562 Channel: 7 Note on, E4 key=64 velocity: 0
@14562 Channel: 7 Note on, C4 key=60 velocity: 0
@14562 Channel: 7 Note on, G3 key=55 velocity: 0
@14580 Channel: 7 Note on, G3 key=55 velocity: 91
@14580 Channel: 7 Note on, C4 key=60 velocity: 91
@14580 Channel: 7 Note on, E4 key=64 velocity: 91
@14610 Channel: 7 Note on, E4 key=64 velocity: 0
@14610 Channel: 7 Note on, C4 key=60 velocity: 0
@14610 Channel: 7 Note on, G3 key=55 velocity: 0
@14640 Channel: 7 Note on, F4 key=65 velocity: 91
@14640 Channel: 7 Note on, G3 key=55 velocity: 91
@14640 Channel: 7 Note on, C4 key=60 velocity: 91
@14670 Channel: 7 Note on, C4 key=60 velocity: 0
@14670 Channel: 7 Note on, G3 key=55 velocity: 0
@14670 Channel: 7 Note on, F4 key=65 velocity: 0
@14700 Channel: 7 Note on, G3 key=55 velocity: 91
@14700 Channel: 7 Note on, C4 key=60 velocity: 91
@14700 Channel: 7 Note on, F4 key=65 velocity: 91
@14712 Channel: 7 Note on, F4 key=65 velocity: 0
@14712 Channel: 7 Note on, C4 key=60 velocity: 0
@14712 Channel: 7 Note on, G3 key=55 velocity: 0
@14730 Channel: 7 Note on, F4 key=65 velocity: 91
@14730 Channel: 7 Note on, C4 key=60 velocity: 91
@14730 Channel: 7 Note on, G3 key=55 velocity: 91
@14760 Channel: 7 Note on, G3 key=55 velocity: 0
@14760 Channel: 7 Note on, C4 key=60 velocity: 0
@14760 Channel: 7 Note on, F4 key=65 velocity: 0
@14790 Channel: 7 Note on, G3 key=55 velocity: 91
@14790 Channel: 7 Note on, C4 key=60 velocity: 91
@14790 Channel: 7 Note on, F4 key=65 velocity: 91
@14802 Channel: 7 Note on, F4 key=65 velocity: 0
@14802 Channel: 7 Note on, C4 key=60 velocity: 0
@14802 Channel: 7 Note on, G3 key=55 velocity: 0
@14820 Channel: 7 Note on, F4 key=65 velocity: 91
@14820 Channel: 7 Note on, G3 key=55 velocity: 91
@14820 Channel: 7 Note on, C4 key=60 velocity: 91
@14850 Channel: 7 Note on, C4 key=60 velocity: 0
@14850 Channel: 7 Note on, G3 key=55 velocity: 0
@14850 Channel: 7 Note on, F4 key=65 velocity: 0
@14880 Channel: 7 Note on, C4 key=60 velocity: 91
@14880 Channel: 7 Note on, G3 key=55 velocity: 91
@14880 Channel: 7 Note on, E4 key=64 velocity: 91
@14910 Channel: 7 Note on, E4 key=64 velocity: 0
@14910 Channel: 7 Note on, G3 key=55 velocity: 0
@14910 Channel: 7 Note on, C4 key=60 velocity: 0
@14940 Channel: 7 Note on, E4 key=64 velocity: 91
@14940 Channel: 7 Note on, G3 key=55 velocity: 91
@14940 Channel: 7 Note on, C4 key=60 velocity: 91
@14952 Channel: 7 Note on, C4 key=60 velocity: 0
@14952 Channel: 7 Note on, G3 key=55 velocity: 0
@14952 Channel: 7 Note on, E4 key=64 velocity: 0
@14970 Channel: 7 Note on, C4 key=60 velocity: 91
@14970 Channel: 7 Note on, G3 key=55 velocity: 91
@14970 Channel: 7 Note on, E4 key=64 velocity: 91
@15000 Channel: 7 Note on, E4 key=64 velocity: 0
@15000 Channel: 7 Note on, G3 key=55 velocity: 0
@15000 Channel: 7 Note on, C4 key=60 velocity: 0
@15030 Channel: 7 Note on, G3 key=55 velocity: 91
@15030 Channel: 7 Note on, C4 key=60 velocity: 91
@15030 Channel: 7 Note on, E4 key=64 velocity: 91
@15042 Channel: 7 Note on, E4 key=64 velocity: 0
@15042 Channel: 7 Note on, C4 key=60 velocity: 0
@15042 Channel: 7 Note on, G3 key=55 velocity: 0
@15060 Channel: 7 Note on, G3 key=55 velocity: 91
@15060 Channel: 7 Note on, C4 key=60 velocity: 91
@15060 Channel: 7 Note on, E4 key=64 velocity: 91
@15090 Channel: 7 Note on, E4 key=64 velocity: 0
@15090 Channel: 7 Note on, C4 key=60 velocity: 0
@15090 Channel: 7 Note on, G3 key=55 velocity: 0
@15120 Channel: 7 Note on, F4 key=65 velocity: 91
@15120 Channel: 7 Note on, G3 key=55 velocity: 91
@15120 Channel: 7 Note on, C4 key=60 velocity: 91
@15150 Channel: 7 Note on, C4 key=60 velocity: 0
@15150 Channel: 7 Note on, G3 key=55 velocity: 0
@15150 Channel: 7 Note on, F4 key=65 velocity: 0
@15180 Channel: 7 Note on, G3 key=55 velocity: 91
@15180 Channel: 7 Note on, C4 key=60 velocity: 91
@15180 Channel: 7 Note on, F4 key=65 velocity: 91
@15192 Channel: 7 Note on, F4 key=65 velocity: 0
@15192 Channel: 7 Note on, C4 key=60 velocity: 0
@15192 Channel: 7 Note on, G3 key=55 velocity: 0
@15210 Channel: 7 Note on, F4 key=65 velocity: 91
@15210 Channel: 7 Note on, C4 key=60 velocity: 91
@15210 Channel: 7 Note on, G3 key=55 velocity: 91
@15240 Channel: 7 Note on, G3 key=55 velocity: 0
@15240 Channel: 7 Note on, C4 key=60 velocity: 0
@15240 Channel: 7 Note on, F4 key=65 velocity: 0
@15270 Channel: 7 Note on, G3 key=55 velocity: 91
@15270 Channel: 7 Note on, C4 key=60 velocity: 91
@15270 Channel: 7 Note on, F4 key=65 velocity: 91
@15282 Channel: 7 Note on, F4 key=65 velocity: 0
@15282 Channel: 7 Note on, C4 key=60 velocity: 0
@15282 Channel: 7 Note on, G3 key=55 velocity: 0
@15300 Channel: 7 Note on, F4 key=65 velocity: 91
@15300 Channel: 7 Note on, G3 key=55 velocity: 91
@15300 Channel: 7 Note on, C4 key=60 velocity: 91
@15330 Channel: 7 Note on, C4 key=60 velocity: 0
@15330 Channel: 7 Note on, G3 key=55 velocity: 0
@15330 Channel: 7 Note on, F4 key=65 velocity: 0
@15360 Channel: 7 Note on, C4 key=60 velocity: 91
@15360 Channel: 7 Note on, G3 key=55 velocity: 91
@15360 Channel: 7 Note on, E4 key=64 velocity: 91
@15390 Channel: 7 Note on, E4 key=64 velocity: 0
@15390 Channel: 7 Note on, G3 key=55 velocity: 0
@15390 Channel: 7 Note on, C4 key=60 velocity: 0
@15420 Channel: 7 Note on, E4 key=64 velocity: 91
@15420 Channel: 7 Note on, G3 key=55 velocity: 91
@15420 Channel: 7 Note on, C4 key=60 velocity: 91
@15432 Channel: 7 Note on, C4 key=60 velocity: 0
@15432 Channel: 7 Note on, G3 key=55 velocity: 0
@15432 Channel: 7 Note on, E4 key=64 velocity: 0
@15450 Channel: 7 Note on, C4 key=60 velocity: 91
@15450 Channel: 7 Note on, G3 key=55 velocity: 91
@15450 Channel: 7 Note on, E4 key=64 velocity: 91
@15480 Channel: 7 Note on, E4 key=64 velocity: 0
@15480 Channel: 7 Note on, G3 key=55 velocity: 0
@15480 Channel: 7 Note on, C4 key=60 velocity: 0
@15510 Channel: 7 Note on, G3 key=55 velocity: 91
@15510 Channel: 7 Note on, C4 key=60 velocity: 91
@15510 Channel: 7 Note on, E4 key=64 velocity: 91
@15522 Channel: 7 Note on, E4 key=64 velocity: 0
@15522 Channel: 7 Note on, C4 key=60 velocity: 0
@15522 Channel: 7 Note on, G3 key=55 velocity: 0
@15540 Channel: 7 Note on, G3 key=55 velocity: 91
@15540 Channel: 7 Note on, C4 key=60 velocity: 91
@15540 Channel: 7 Note on, E4 key=64 velocity: 91
@15570 Channel: 7 Note on, E4 key=64 velocity: 0
@15570 Channel: 7 Note on, C4 key=60 velocity: 0
@15570 Channel: 7 Note on, G3 key=55 velocity: 0
@15600 Channel: 7 Note on, F4 key=65 velocity: 91
@15600 Channel: 7 Note on, G3 key=55 velocity: 91
@15600 Channel: 7 Note on, C4 key=60 velocity: 91
@15630 Channel: 7 Note on, C4 key=60 velocity: 0
@15630 Channel: 7 Note on, G3 key=55 velocity: 0
@15630 Channel: 7 Note on, F4 key=65 velocity: 0
@15660 Channel: 7 Note on, G3 key=55 velocity: 91
@15660 Channel: 7 Note on, C4 key=60 velocity: 91
@15660 Channel: 7 Note on, F4 key=65 velocity: 91
@15672 Channel: 7 Note on, F4 key=65 velocity: 0
@15672 Channel: 7 Note on, C4 key=60 velocity: 0
@15672 Channel: 7 Note on, G3 key=55 velocity: 0
@15690 Channel: 7 Note on, F4 key=65 velocity: 91
@15690 Channel: 7 Note on, C4 key=60 velocity: 91
@15690 Channel: 7 Note on, G3 key=55 velocity: 91
@15720 Channel: 7 Note on, G3 key=55 velocity: 0
@15720 Channel: 7 Note on, C4 key=60 velocity: 0
@15720 Channel: 7 Note on, F4 key=65 velocity: 0
@15750 Channel: 7 Note on, G3 key=55 velocity: 91
@15750 Channel: 7 Note on, C4 key=60 velocity: 91
@15750 Channel: 7 Note on, F4 key=65 velocity: 91
@15762 Channel: 7 Note on, F4 key=65 velocity: 0
@15762 Channel: 7 Note on, C4 key=60 velocity: 0
@15762 Channel: 7 Note on, G3 key=55 velocity: 0
@15780 Channel: 7 Note on, F4 key=65 velocity: 91
@15780 Channel: 7 Note on, G3 key=55 velocity: 91
@15780 Channel: 7 Note on, C4 key=60 velocity: 91
@15810 Channel: 7 Note on, C4 key=60 velocity: 0
@15810 Channel: 7 Note on, G3 key=55 velocity: 0
@15810 Channel: 7 Note on, F4 key=65 velocity: 0
@15840 Channel: 7 Note on, C4 key=60 velocity: 91
@15840 Channel: 7 Note on, G3 key=55 velocity: 91
@15840 Channel: 7 Note on, E4 key=64 velocity: 91
@15870 Channel: 7 Note on, E4 key=64 velocity: 0
@15870 Channel: 7 Note on, G3 key=55 velocity: 0
@15870 Channel: 7 Note on, C4 key=60 velocity: 0
@15900 Channel: 7 Note on, E4 key=64 velocity: 91
@15900 Channel: 7 Note on, G3 key=55 velocity: 91
@15900 Channel: 7 Note on, C4 key=60 velocity: 91
@15912 Channel: 7 Note on, C4 key=60 velocity: 0
@15912 Channel: 7 Note on, G3 key=55 velocity: 0
@15912 Channel: 7 Note on, E4 key=64 velocity: 0
@15930 Channel: 7 Note on, C4 key=60 velocity: 90
@15930 Channel: 7 Note on, G3 key=55 velocity: 90
@15930 Channel: 7 Note on, E4 key=64 velocity: 90
@15960 Channel: 7 Note on, E4 key=64 velocity: 0
@15960 Channel: 7 Note on, G3 key=55 velocity: 0
@15960 Channel: 7 Note on, C4 key=60 velocity: 0
@15990 Channel: 7 Note on, G3 key=55 velocity: 90
@15990 Channel: 7 Note on, C4 key=60 velocity: 90
@15990 Channel: 7 Note on, E4 key=64 velocity: 90
@16002 Channel: 7 Note on, E4 key=64 velocity: 0
@16002 Channel: 7 Note on, C4 key=60 velocity: 0
@16002 Channel: 7 Note on, G3 key=55 velocity: 0
@16020 Channel: 7 Note on, G3 key=55 velocity: 90
@16020 Channel: 7 Note on, C4 key=60 velocity: 90
@16020 Channel: 7 Note on, E4 key=64 velocity: 90
@16050 Channel: 7 Note on, E4 key=64 velocity: 0
@16050 Channel: 7 Note on, C4 key=60 velocity: 0
@16050 Channel: 7 Note on, G3 key=55 velocity: 0
@16080 Channel: 7 Note on, F4 key=65 velocity: 89
@16080 Channel: 7 Note on, G3 key=55 velocity: 89
@16080 Channel: 7 Note on, C4 key=60 velocity: 89
@16110 Channel: 7 Note on, C4 key=60 velocity: 0
@16110 Channel: 7 Note on, G3 key=55 velocity: 0
@16110 Channel: 7 Note on, F4 key=65 velocity: 0
@16140 Channel: 7 Note on, G3 key=55 velocity: 89
@16140 Channel: 7 Note on, C4 key=60 velocity: 89
@16140 Channel: 7 Note on, F4 key=65 velocity: 89
@16152 Channel: 7 Note on, F4 key=65 velocity: 0
@16152 Channel: 7 Note on, C4 key=60 velocity: 0
@16152 Channel: 7 Note on, G3 key=55 velocity: 0
@16170 Channel: 7 Note on, F4 key=65 velocity: 89
@16170 Channel: 7 Note on, C4 key=60 velocity: 89
@16170 Channel: 7 Note on, G3 key=55 velocity: 89
@16200 Channel: 7 Note on, G3 key=55 velocity: 0
@16200 Channel: 7 Note on, C4 key=60 velocity: 0
@16200 Channel: 7 Note on, F4 key=65 velocity: 0
@16230 Channel: 7 Note on, G3 key=55 velocity: 89
@16230 Channel: 7 Note on, C4 key=60 velocity: 89
@16230 Channel: 7 Note on, F4 key=65 velocity: 89
@16242 Channel: 7 Note on, F4 key=65 velocity: 0
@16242 Channel: 7 Note on, C4 key=60 velocity: 0
@16242 Channel: 7 Note on, G3 key=55 velocity: 0
@16260 Channel: 7 Note on, F4 key=65 velocity: 89
@16260 Channel: 7 Note on, G3 key=55 velocity: 89
@16260 Channel: 7 Note on, C4 key=60 velocity: 89
@16290 Channel: 7 Note on, C4 key=60 velocity: 0
@16290 Channel: 7 Note on, G3 key=55 velocity: 0
@16290 Channel: 7 Note on, F4 key=65 velocity: 0
@16320 Channel: 7 Note on, B3 key=59 velocity: 89
@16320 Channel: 7 Note on, D4 key=62 velocity: 89
@16320 Channel: 7 Note on, G3 key=55 velocity: 89
@16350 Channel: 7 Note on, G3 key=55 velocity: 0
@16350 Channel: 7 Note on, D4 key=62 velocity: 0
@16350 Channel: 7 Note on, B3 key=59 velocity: 0
@16380 Channel: 7 Note on, G3 key=55 velocity: 89
@16380 Channel: 7 Note on, D4 key=62 velocity: 89
@16380 Channel: 7 Note on, B3 key=59 velocity: 89
@16392 Channel: 7 Note on, B3 key=59 velocity: 0
@16392 Channel: 7 Note on, D4 key=62 velocity: 0
@16392 Channel: 7 Note on, G3 key=55 velocity: 0
@16410 Channel: 7 Note on, D4 key=62 velocity: 89
@16410 Channel: 7 Note on, G3 key=55 velocity: 89
@16410 Channel: 7 Note on, B3 key=59 velocity: 89
@16440 Channel: 7 Note on, B3 key=59 velocity: 0
@16440 Channel: 7 Note on, G3 key=55 velocity: 0
@16440 Channel: 7 Note on, D4 key=62 velocity: 0
@16470 Channel: 7 Note on, D4 key=62 velocity: 89
@16470 Channel: 7 Note on, G3 key=55 velocity: 89
@16470 Channel: 7 Note on, B3 key=59 velocity: 89
@16482 Channel: 7 Note on, B3 key=59 velocity: 0
@16482 Channel: 7 Note on, G3 key=55 velocity: 0
@16482 Channel: 7 Note on, D4 key=62 velocity: 0
@16500 Channel: 7 Note on, D4 key=62 velocity: 89
@16500 Channel: 7 Note on, B3 key=59 velocity: 89
@16500 Channel: 7 Note on, G3 key=55 velocity: 89
@16530 Channel: 7 Note on, G3 key=55 velocity: 0
@16530 Channel: 7 Note on, B3 key=59 velocity: 0
@16530 Channel: 7 Note on, D4 key=62 velocity: 0
@16560 Channel: 7 Note on, D4 key=62 velocity: 91
@16560 Channel: 7 Note on, G3 key=55 velocity: 91
@16560 Channel: 7 Note on, C4 key=60 velocity: 91
@16590 Channel: 7 Note on, C4 key=60 velocity: 0
@16590 Channel: 7 Note on, G3 key=55 velocity: 0
@16590 Channel: 7 Note on, D4 key=62 velocity: 0
@16620 Channel: 7 Note on, D4 key=62 velocity: 91
@16620 Channel: 7 Note on, G3 key=55 velocity: 91
@16620 Channel: 7 Note on, C4 key=60 velocity: 91
@16632 Channel: 7 Note on, C4 key=60 velocity: 0
@16632 Channel: 7 Note on, G3 key=55 velocity: 0
@16632 Channel: 7 Note on, D4 key=62 velocity: 0
@16650 Channel: 7 Note on, G3 key=55 velocity: 91
@16650 Channel: 7 Note on, C4 key=60 velocity: 91
@16650 Channel: 7 Note on, D4 key=62 velocity: 91
@16680 Channel: 7 Note on, D4 key=62 velocity: 0
@16680 Channel: 7 Note on, C4 key=60 velocity: 0
@16680 Channel: 7 Note on, G3 key=55 velocity: 0
@16710 Channel: 7 Note on, D4 key=62 velocity: 91
@16710 Channel: 7 Note on, G3 key=55 velocity: 91
@16710 Channel: 7 Note on, C4 key=60 velocity: 91
@16722 Channel: 7 Note on, C4 key=60 velocity: 0
@16722 Channel: 7 Note on, G3 key=55 velocity: 0
@16722 Channel: 7 Note on, D4 key=62 velocity: 0
@16740 Channel: 7 Note on, C4 key=60 velocity: 91
@16740 Channel: 7 Note on, D4 key=62 velocity: 91
@16740 Channel: 7 Note on, G3 key=55 velocity: 91
@16770 Channel: 7 Note on, G3 key=55 velocity: 0
@16770 Channel: 7 Note on, D4 key=62 velocity: 0
@16770 Channel: 7 Note on, C4 key=60 velocity: 0
@16800 Channel: 7 Note on, B3 key=59 velocity: 91
@16800 Channel: 7 Note on, D4 key=62 velocity: 91
@16800 Channel: 7 Note on, G3 key=55 velocity: 91
@16830 Channel: 7 Note on, G3 key=55 velocity: 0
@16830 Channel: 7 Note on, D4 key=62 velocity: 0
@16830 Channel: 7 Note on, B3 key=59 velocity: 0
@16860 Channel: 7 Note on, D4 key=62 velocity: 91
@16860 Channel: 7 Note on, G3 key=55 velocity: 91
@16860 Channel: 7 Note on, B3 key=59 velocity: 91
@16872 Channel: 7 Note on, B3 key=59 velocity: 0
@16872 Channel: 7 Note on, G3 key=55 velocity: 0
@16872 Channel: 7 Note on, D4 key=62 velocity: 0
@16890 Channel: 7 Note on, D4 key=62 velocity: 91
@16890 Channel: 7 Note on, G3 key=55 velocity: 91
@16890 Channel: 7 Note on, B3 key=59 velocity: 91
@16920 Channel: 7 Note on, B3 key=59 velocity: 0
@16920 Channel: 7 Note on, G3 key=55 velocity: 0
@16920 Channel: 7 Note on, D4 key=62 velocity: 0
@16950 Channel: 7 Note on, G3 key=55 velocity: 92
@16950 Channel: 7 Note on, D4 key=62 velocity: 92
@16950 Channel: 7 Note on, B3 key=59 velocity: 92
@16962 Channel: 7 Note on, B3 key=59 velocity: 0
@16962 Channel: 7 Note on, D4 key=62 velocity: 0
@16962 Channel: 7 Note on, G3 key=55 velocity: 0
@16980 Channel: 7 Note on, B3 key=59 velocity: 92
@16980 Channel: 7 Note on, D4 key=62 velocity: 92
@16980 Channel: 7 Note on, G3 key=55 velocity: 92
@17010 Channel: 7 Note on, G3 key=55 velocity: 0
@17010 Channel: 7 Note on, D4 key=62 velocity: 0
@17010 Channel: 7 Note on, B3 key=59 velocity: 0
@17040 Channel: 7 Note on, C4 key=60 velocity: 92
@17040 Channel: 7 Note on, G3 key=55 velocity: 92
@17040 Channel: 7 Note on, D4 key=62 velocity: 92
@17070 Channel: 7 Note on, D4 key=62 velocity: 0
@17070 Channel: 7 Note on, G3 key=55 velocity: 0
@17070 Channel: 7 Note on, C4 key=60 velocity: 0
@17100 Channel: 7 Note on, C4 key=60 velocity: 92
@17100 Channel: 7 Note on, D4 key=62 velocity: 92
@17100 Channel: 7 Note on, G3 key=55 velocity: 92
@17112 Channel: 7 Note on, G3 key=55 velocity: 0
@17112 Channel: 7 Note on, D4 key=62 velocity: 0
@17112 Channel: 7 Note on, C4 key=60 velocity: 0
@17130 Channel: 7 Note on, G3 key=55 velocity: 92
@17130 Channel: 7 Note on, D4 key=62 velocity: 92
@17130 Channel: 7 Note on, C4 key=60 velocity: 92
@17160 Channel: 7 Note on, C4 key=60 velocity: 0
@17160 Channel: 7 Note on, D4 key=62 velocity: 0
@17160 Channel: 7 Note on, G3 key=55 velocity: 0
@17190 Channel: 7 Note on, G3 key=55 velocity: 92
@17190 Channel: 7 Note on, D4 key=62 velocity: 92
@17190 Channel: 7 Note on, C4 key=60 velocity: 92
@17202 Channel: 7 Note on, C4 key=60 velocity: 0
@17202 Channel: 7 Note on, D4 key=62 velocity: 0
@17202 Channel: 7 Note on, G3 key=55 velocity: 0
@17220 Channel: 7 Note on, D4 key=62 velocity: 92
@17220 Channel: 7 Note on, C4 key=60 velocity: 92
@17220 Channel: 7 Note on, G3 key=55 velocity: 92
@17250 Channel: 7 Note on, G3 key=55 velocity: 0
@17250 Channel: 7 Note on, C4 key=60 velocity: 0
@17250 Channel: 7 Note on, D4 key=62 velocity: 0
@17280 Channel: 7 Note on, G#3 key=56 velocity: 92
@17280 Channel: 7 Note on, B3 key=59 velocity: 92
@17280 Channel: 7 Note on, E4 key=64 velocity: 92
@17310 Channel: 7 Note on, E4 key=64 velocity: 0
@17310 Channel: 7 Note on, B3 key=59 velocity: 0
@17310 Channel: 7 Note on, G#3 key=56 velocity: 0
@17340 Channel: 7 Note on, E4 key=64 velocity: 92
@17340 Channel: 7 Note on, G#3 key=56 velocity: 92
@17340 Channel: 7 Note on, B3 key=59 velocity: 92
@17352 Channel: 7 Note on, B3 key=59 velocity: 0
@17352 Channel: 7 Note on, G#3 key=56 velocity: 0
@17352 Channel: 7 Note on, E4 key=64 velocity: 0
@17370 Channel: 7 Note on, E4 key=64 velocity: 93
@17370 Channel: 7 Note on, B3 key=59 velocity: 93
@17370 Channel: 7 Note on, G#3 key=56 velocity: 93
@17400 Channel: 7 Note on, G#3 key=56 velocity: 0
@17400 Channel: 7 Note on, B3 key=59 velocity: 0
@17400 Channel: 7 Note on, E4 key=64 velocity: 0
@17430 Channel: 7 Note on, G#3 key=56 velocity: 93
@17430 Channel: 7 Note on, E4 key=64 velocity: 93
@17430 Channel: 7 Note on, B3 key=59 velocity: 93
@17442 Channel: 7 Note on, B3 key=59 velocity: 0
@17442 Channel: 7 Note on, E4 key=64 velocity: 0
@17442 Channel: 7 Note on, G#3 key=56 velocity: 0
@17460 Channel: 7 Note on, E4 key=64 velocity: 93
@17460 Channel: 7 Note on, B3 key=59 velocity: 93
@17460 Channel: 7 Note on, G#3 key=56 velocity: 93
@17490 Channel: 7 Note on, G#3 key=56 velocity: 0
@17490 Channel: 7 Note on, B3 key=59 velocity: 0
@17490 Channel: 7 Note on, E4 key=64 velocity: 0
@17520 Channel: 7 Note on, E4 key=64 velocity: 92
@17520 Channel: 7 Note on, A3 key=57 velocity: 92
@17520 Channel: 7 Note on, B3 key=59 velocity: 92
@17550 Channel: 7 Note on, B3 key=59 velocity: 0
@17550 Channel: 7 Note on, A3 key=57 velocity: 0
@17550 Channel: 7 Note on, E4 key=64 velocity: 0
@17580 Channel: 7 Note on, B3 key=59 velocity: 92
@17580 Channel: 7 Note on, A3 key=57 velocity: 92
@17580 Channel: 7 Note on, E4 key=64 velocity: 92
@17592 Channel: 7 Note on, E4 key=64 velocity: 0
@17592 Channel: 7 Note on, A3 key=57 velocity: 0
@17592 Channel: 7 Note on, B3 key=59 velocity: 0
@17610 Channel: 7 Note on, B3 key=59 velocity: 92
@17610 Channel: 7 Note on, A3 key=57 velocity: 92
@17610 Channel: 7 Note on, E4 key=64 velocity: 92
@17640 Channel: 7 Note on, E4 key=64 velocity: 0
@17640 Channel: 7 Note on, A3 key=57 velocity: 0
@17640 Channel: 7 Note on, B3 key=59 velocity: 0
@17670 Channel: 7 Note on, E4 key=64 velocity: 92
@17670 Channel: 7 Note on, A3 key=57 velocity: 92
@17670 Channel: 7 Note on, B3 key=59 velocity: 92
@17682 Channel: 7 Note on, B3 key=59 velocity: 0
@17682 Channel: 7 Note on, A3 key=57 velocity: 0
@17682 Channel: 7 Note on, E4 key=64 velocity: 0
@17700 Channel: 7 Note on, B3 key=59 velocity: 92
@17700 Channel: 7 Note on, A3 key=57 velocity: 92
@17700 Channel: 7 Note on, E4 key=64 velocity: 92
@17730 Channel: 7 Note on, E4 key=64 velocity: 0
@17730 Channel: 7 Note on, A3 key=57 velocity: 0
@17730 Channel: 7 Note on, B3 key=59 velocity: 0
@17760 Channel: 7 Note on, B3 key=59 velocity: 92
@17760 Channel: 7 Note on, G#3 key=56 velocity: 92
@17760 Channel: 7 Note on, E4 key=64 velocity: 92
@17790 Channel: 7 Note on, E4 key=64 velocity: 0
@17790 Channel: 7 Note on, G#3 key=56 velocity: 0
@17790 Channel: 7 Note on, B3 key=59 velocity: 0
@17820 Channel: 7 Note on, B3 key=59 velocity: 92
@17820 Channel: 7 Note on, G#3 key=56 velocity: 92
@17820 Channel: 7 Note on, E4 key=64 velocity: 92
@17832 Channel: 7 Note on, E4 key=64 velocity: 0
@17832 Channel: 7 Note on, G#3 key=56 velocity: 0
@17832 Channel: 7 Note on, B3 key=59 velocity: 0
@17850 Channel: 7 Note on, B3 key=59 velocity: 92
@17850 Channel: 7 Note on, G#3 key=56 velocity: 92
@17850 Channel: 7 Note on, E4 key=64 velocity: 92
@17880 Channel: 7 Note on, E4 key=64 velocity: 0
@17880 Channel: 7 Note on, G#3 key=56 velocity: 0
@17880 Channel: 7 Note on, B3 key=59 velocity: 0
@17910 Channel: 7 Note on, B3 key=59 velocity: 92
@17910 Channel: 7 Note on, G#3 key=56 velocity: 92
@17910 Channel: 7 Note on, E4 key=64 velocity: 92
@17922 Channel: 7 Note on, E4 key=64 velocity: 0
@17922 Channel: 7 Note on, G#3 key=56 velocity: 0
@17922 Channel: 7 Note on, B3 key=59 velocity: 0
@17940 Channel: 7 Note on, B3 key=59 velocity: 92
@17940 Channel: 7 Note on, G#3 key=56 velocity: 92
@17940 Channel: 7 Note on, E4 key=64 velocity: 92
@17970 Channel: 7 Note on, E4 key=64 velocity: 0
@17970 Channel: 7 Note on, G#3 key=56 velocity: 0
@17970 Channel: 7 Note on, B3 key=59 velocity: 0
@18000 Channel: 7 Note on, A3 key=57 velocity: 92
@18000 Channel: 7 Note on, B3 key=59 velocity: 92
@18000 Channel: 7 Note on, E4 key=64 velocity: 92
@18030 Channel: 7 Note on, E4 key=64 velocity: 0
@18030 Channel: 7 Note on, B3 key=59 velocity: 0
@18030 Channel: 7 Note on, A3 key=57 velocity: 0
@18060 Channel: 7 Note on, A3 key=57 velocity: 92
@18060 Channel: 7 Note on, B3 key=59 velocity: 92
@18060 Channel: 7 Note on, E4 key=64 velocity: 92
@18072 Channel: 7 Note on, E4 key=64 velocity: 0
@18072 Channel: 7 Note on, B3 key=59 velocity: 0
@18072 Channel: 7 Note on, A3 key=57 velocity: 0
@18090 Channel: 7 Note on, A3 key=57 velocity: 92
@18090 Channel: 7 Note on, E4 key=64 velocity: 92
@18090 Channel: 7 Note on, B3 key=59 velocity: 92
@18120 Channel: 7 Note on, B3 key=59 velocity: 0
@18120 Channel: 7 Note on, E4 key=64 velocity: 0
@18120 Channel: 7 Note on, A3 key=57 velocity: 0
@18150 Channel: 7 Note on, A3 key=57 velocity: 92
@18150 Channel: 7 Note on, E4 key=64 velocity: 92
@18150 Channel: 7 Note on, B3 key=59 velocity: 92
@18162 Channel: 7 Note on, B3 key=59 velocity: 0
@18162 Channel: 7 Note on, E4 key=64 velocity: 0
@18162 Channel: 7 Note on, A3 key=57 velocity: 0
@18180 Channel: 7 Note on, A3 key=57 velocity: 92
@18180 Channel: 7 Note on, B3 key=59 velocity: 92
@18180 Channel: 7 Note on, E4 key=64 velocity: 92
@18210 Channel: 7 Note on, E4 key=64 velocity: 0
@18210 Channel: 7 Note on, B3 key=59 velocity: 0
@18210 Channel: 7 Note on, A3 key=57 velocity: 0
@18240 Channel: 7 Note on, C4 key=60 velocity: 92
@18240 Channel: 7 Note on, A3 key=57 velocity: 92
@18240 Channel: 7 Note on, F4 key=65 velocity: 92
@18270 Channel: 7 Note on, F4 key=65 velocity: 0
@18270 Channel: 7 Note on, A3 key=57 velocity: 0
@18270 Channel: 7 Note on, C4 key=60 velocity: 0
@18300 Channel: 7 Note on, C4 key=60 velocity: 92
@18300 Channel: 7 Note on, F4 key=65 velocity: 92
@18300 Channel: 7 Note on, A3 key=57 velocity: 92
@18312 Channel: 7 Note on, A3 key=57 velocity: 0
@18312 Channel: 7 Note on, F4 key=65 velocity: 0
@18312 Channel: 7 Note on, C4 key=60 velocity: 0
@18330 Channel: 7 Note on, F4 key=65 velocity: 92
@18330 Channel: 7 Note on, A3 key=57 velocity: 92
@18330 Channel: 7 Note on, C4 key=60 velocity: 92
@18360 Channel: 7 Note on, C4 key=60 velocity: 0
@18360 Channel: 7 Note on, A3 key=57 velocity: 0
@18360 Channel: 7 Note on, F4 key=65 velocity: 0
@18390 Channel: 7 Note on, F4 key=65 velocity: 92
@18390 Channel: 7 Note on, C4 key=60 velocity: 92
@18390 Channel: 7 Note on, A3 key=57 velocity: 92
@18402 Channel: 7 Note on, A3 key=57 velocity: 0
@18402 Channel: 7 Note on, C4 key=60 velocity: 0
@18402 Channel: 7 Note on, F4 key=65 velocity: 0
@18420 Channel: 7 Note on, C4 key=60 velocity: 92
@18420 Channel: 7 Note on, A3 key=57 velocity: 92
@18420 Channel: 7 Note on, F4 key=65 velocity: 92
@18450 Channel: 7 Note on, F4 key=65 velocity: 0
@18450 Channel: 7 Note on, A3 key=57 velocity: 0
@18450 Channel: 7 Note on, C4 key=60 velocity: 0
@18480 Channel: 7 Note on, A#3 key=58 velocity: 92
@18480 Channel: 7 Note on, C4 key=60 velocity: 92
@18480 Channel: 7 Note on, F4 key=65 velocity: 92
@18510 Channel: 7 Note on, F4 key=65 velocity: 0
@18510 Channel: 7 Note on, C4 key=60 velocity: 0
@18510 Channel: 7 Note on, A#3 key=58 velocity: 0
@18540 Channel: 7 Note on, A#3 key=58 velocity: 91
@18540 Channel: 7 Note on, C4 key=60 velocity: 91
@18540 Channel: 7 Note on, F4 key=65 velocity: 91
@18552 Channel: 7 Note on, F4 key=65 velocity: 0
@18552 Channel: 7 Note on, C4 key=60 velocity: 0
@18552 Channel: 7 Note on, A#3 key=58 velocity: 0
@18570 Channel: 7 Note on, C4 key=60 velocity: 91
@18570 Channel: 7 Note on, A#3 key=58 velocity: 91
@18570 Channel: 7 Note on, F4 key=65 velocity: 91
@18600 Channel: 7 Note on, F4 key=65 velocity: 0
@18600 Channel: 7 Note on, A#3 key=58 velocity: 0
@18600 Channel: 7 Note on, C4 key=60 velocity: 0
@18630 Channel: 7 Note on, F4 key=65 velocity: 91
@18630 Channel: 7 Note on, C4 key=60 velocity: 91
@18630 Channel: 7 Note on, A#3 key=58 velocity: 91
@18642 Channel: 7 Note on, A#3 key=58 velocity: 0
@18642 Channel: 7 Note on, C4 key=60 velocity: 0
@18642 Channel: 7 Note on, F4 key=65 velocity: 0
@18660 Channel: 7 Note on, C4 key=60 velocity: 91
@18660 Channel: 7 Note on, A#3 key=58 velocity: 91
@18660 Channel: 7 Note on, F4 key=65 velocity: 91
@18690 Channel: 7 Note on, F4 key=65 velocity: 0
@18690 Channel: 7 Note on, A#3 key=58 velocity: 0
@18690 Channel: 7 Note on, C4 key=60 velocity: 0
@18720 Channel: 7 Note on, A3 key=57 velocity: 91
@18720 Channel: 7 Note on, F4 key=65 velocity: 91
@18720 Channel: 7 Note on, C4 key=60 velocity: 91
@18750 Channel: 7 Note on, C4 key=60 velocity: 0
@18750 Channel: 7 Note on, F4 key=65 velocity: 0
@18750 Channel: 7 Note on, A3 key=57 velocity: 0
@18780 Channel: 7 Note on, C4 key=60 velocity: 91
@18780 Channel: 7 Note on, A3 key=57 velocity: 91
@18780 Channel: 7 Note on, F4 key=65 velocity: 91
@18792 Channel: 7 Note on, F4 key=65 velocity: 0
@18792 Channel: 7 Note on, A3 key=57 velocity: 0
@18792 Channel: 7 Note on, C4 key=60 velocity: 0
@18810 Channel: 7 Note on, F4 key=65 velocity: 91
@18810 Channel: 7 Note on, A3 key=57 velocity: 91
@18810 Channel: 7 Note on, C4 key=60 velocity: 91
@18840 Channel: 7 Note on, C4 key=60 velocity: 0
@18840 Channel: 7 Note on, A3 key=57 velocity: 0
@18840 Channel: 7 Note on, F4 key=65 velocity: 0
@18870 Channel: 7 Note on, C4 key=60 velocity: 90
@18870 Channel: 7 Note on, A3 key=57 velocity: 90
@18870 Channel: 7 Note on, F4 key=65 velocity: 90
@18882 Channel: 7 Note on, F4 key=65 velocity: 0
@18882 Channel: 7 Note on, A3 key=57 velocity: 0
@18882 Channel: 7 Note on, C4 key=60 velocity: 0
@18900 Channel: 7 Note on, C4 key=60 velocity: 90
@18900 Channel: 7 Note on, A3 key=57 velocity: 90
@18900 Channel: 7 Note on, F4 key=65 velocity: 90
@18930 Channel: 7 Note on, F4 key=65 velocity: 0
@18930 Channel: 7 Note on, A3 key=57 velocity: 0
@18930 Channel: 7 Note on, C4 key=60 velocity: 0
@18960 Channel: 7 Note on, C4 key=60 velocity: 91
@18960 Channel: 7 Note on, A#3 key=58 velocity: 91
@18960 Channel: 7 Note on, F4 key=65 velocity: 91
@18990 Channel: 7 Note on, F4 key=65 velocity: 0
@18990 Channel: 7 Note on, A#3 key=58 velocity: 0
@18990 Channel: 7 Note on, C4 key=60 velocity: 0
@19020 Channel: 7 Note on, C4 key=60 velocity: 92
@19020 Channel: 7 Note on, A#3 key=58 velocity: 92
@19020 Channel: 7 Note on, F4 key=65 velocity: 92
@19032 Channel: 7 Note on, F4 key=65 velocity: 0
@19032 Channel: 7 Note on, A#3 key=58 velocity: 0
@19032 Channel: 7 Note on, C4 key=60 velocity: 0
@19050 Channel: 7 Note on, F4 key=65 velocity: 89
@19050 Channel: 7 Note on, C4 key=60 velocity: 89
@19050 Channel: 7 Note on, A#3 key=58 velocity: 89
@19080 Channel: 7 Note on, A#3 key=58 velocity: 0
@19080 Channel: 7 Note on, C4 key=60 velocity: 0
@19080 Channel: 7 Note on, F4 key=65 velocity: 0
@19110 Channel: 7 Note on, A#3 key=58 velocity: 89
@19110 Channel: 7 Note on, F4 key=65 velocity: 89
@19110 Channel: 7 Note on, C4 key=60 velocity: 89
@19122 Channel: 7 Note on, C4 key=60 velocity: 0
@19122 Channel: 7 Note on, F4 key=65 velocity: 0
@19122 Channel: 7 Note on, A#3 key=58 velocity: 0
@19140 Channel: 7 Note on, A#3 key=58 velocity: 89
@19140 Channel: 7 Note on, C4 key=60 velocity: 89
@19140 Channel: 7 Note on, F4 key=65 velocity: 89
@19170 Channel: 7 Note on, F4 key=65 velocity: 0
@19170 Channel: 7 Note on, C4 key=60 velocity: 0
@19170 Channel: 7 Note on, A#3 key=58 velocity: 0
@19200 Channel: 7 Note on, C4 key=60 velocity: 89
@19200 Channel: 7 Note on, G3 key=55 velocity: 89
@19200 Channel: 7 Note on, E4 key=64 velocity: 89
@19230 Channel: 7 Note on, E4 key=64 velocity: 0
@19230 Channel: 7 Note on, G3 key=55 velocity: 0
@19230 Channel: 7 Note on, C4 key=60 velocity: 0
@19260 Channel: 7 Note on, E4 key=64 velocity: 90
@19260 Channel: 7 Note on, G3 key=55 velocity: 90
@19260 Channel: 7 Note on, C4 key=60 velocity: 90
@19272 Channel: 7 Note on, C4 key=60 velocity: 0
@19272 Channel: 7 Note on, G3 key=55 velocity: 0
@19272 Channel: 7 Note on, E4 key=64 velocity: 0
@19290 Channel: 7 Note on, C4 key=60 velocity: 90
@19290 Channel: 7 Note on, G3 key=55 velocity: 90
@19290 Channel: 7 Note on, E4 key=64 velocity: 90
@19320 Channel: 7 Note on, E4 key=64 velocity: 0
@19320 Channel: 7 Note on, G3 key=55 velocity: 0
@19320 Channel: 7 Note on, C4 key=60 velocity: 0
@19350 Channel: 7 Note on, G3 key=55 velocity: 90
@19350 Channel: 7 Note on, C4 key=60 velocity: 90
@19350 Channel: 7 Note on, E4 key=64 velocity: 90
@19362 Channel: 7 Note on, E4 key=64 velocity: 0
@19362 Channel: 7 Note on, C4 key=60 velocity: 0
@19362 Channel: 7 Note on, G3 key=55 velocity: 0
@19380 Channel: 7 Note on, G3 key=55 velocity: 90
@19380 Channel: 7 Note on, C4 key=60 velocity: 90
@19380 Channel: 7 Note on, E4 key=64 velocity: 90
@19410 Channel: 7 Note on, E4 key=64 velocity: 0
@19410 Channel: 7 Note on, C4 key=60 velocity: 0
@19410 Channel: 7 Note on, G3 key=55 velocity: 0
@19440 Channel: 7 Note on, F4 key=65 velocity: 90
@19440 Channel: 7 Note on, G3 key=55 velocity: 90
@19440 Channel: 7 Note on, C4 key=60 velocity: 90
@19470 Channel: 7 Note on, C4 key=60 velocity: 0
@19470 Channel: 7 Note on, G3 key=55 velocity: 0
@19470 Channel: 7 Note on, F4 key=65 velocity: 0
@19500 Channel: 7 Note on, G3 key=55 velocity: 90
@19500 Channel: 7 Note on, C4 key=60 velocity: 90
@19500 Channel: 7 Note on, F4 key=65 velocity: 90
@19512 Channel: 7 Note on, F4 key=65 velocity: 0
@19512 Channel: 7 Note on, C4 key=60 velocity: 0
@19512 Channel: 7 Note on, G3 key=55 velocity: 0
@19530 Channel: 7 Note on, F4 key=65 velocity: 90
@19530 Channel: 7 Note on, C4 key=60 velocity: 90
@19530 Channel: 7 Note on, G3 key=55 velocity: 90
@19560 Channel: 7 Note on, G3 key=55 velocity: 0
@19560 Channel: 7 Note on, C4 key=60 velocity: 0
@19560 Channel: 7 Note on, F4 key=65 velocity: 0
@19590 Channel: 7 Note on, G3 key=55 velocity: 90
@19590 Channel: 7 Note on, C4 key=60 velocity: 90
@19590 Channel: 7 Note on, F4 key=65 velocity: 90
@19602 Channel: 7 Note on, F4 key=65 velocity: 0
@19602 Channel: 7 Note on, C4 key=60 velocity: 0
@19602 Channel: 7 Note on, G3 key=55 velocity: 0
@19620 Channel: 7 Note on, F4 key=65 velocity: 90
@19620 Channel: 7 Note on, G3 key=55 velocity: 90
@19620 Channel: 7 Note on, C4 key=60 velocity: 90
@19650 Channel: 7 Note on, C4 key=60 velocity: 0
@19650 Channel: 7 Note on, G3 key=55 velocity: 0
@19650 Channel: 7 Note on, F4 key=65 velocity: 0
@19680 Channel: 7 Note on, C4 key=60 velocity: 90
@19680 Channel: 7 Note on, G3 key=55 velocity: 90
@19680 Channel: 7 Note on, E4 key=64 velocity: 90
@19710 Channel: 7 Note on, E4 key=64 velocity: 0
@19710 Channel: 7 Note on, G3 key=55 velocity: 0
@19710 Channel: 7 Note on, C4 key=60 velocity: 0
@19740 Channel: 7 Note on, E4 key=64 velocity: 90
@19740 Channel: 7 Note on, G3 key=55 velocity: 90
@19740 Channel: 7 Note on, C4 key=60 velocity: 90
@19752 Channel: 7 Note on, C4 key=60 velocity: 0
@19752 Channel: 7 Note on, G3 key=55 velocity: 0
@19752 Channel: 7 Note on, E4 key=64 velocity: 0
@19770 Channel: 7 Note on, C4 key=60 velocity: 91
@19770 Channel: 7 Note on, G3 key=55 velocity: 91
@19770 Channel: 7 Note on, E4 key=64 velocity: 91
@19800 Channel: 7 Note on, E4 key=64 velocity: 0
@19800 Channel: 7 Note on, G3 key=55 velocity: 0
@19800 Channel: 7 Note on, C4 key=60 velocity: 0
@19830 Channel: 7 Note on, G3 key=55 velocity: 91
@19830 Channel: 7 Note on, C4 key=60 velocity: 91
@19830 Channel: 7 Note on, E4 key=64 velocity: 91
@19842 Channel: 7 Note on, E4 key=64 velocity: 0
@19842 Channel: 7 Note on, C4 key=60 velocity: 0
@19842 Channel: 7 Note on, G3 key=55 velocity: 0
@19860 Channel: 7 Note on, G3 key=55 velocity: 91
@19860 Channel: 7 Note on, C4 key=60 velocity: 91
@19860 Channel: 7 Note on, E4 key=64 velocity: 91
@19890 Channel: 7 Note on, E4 key=64 velocity: 0
@19890 Channel: 7 Note on, C4 key=60 velocity: 0
@19890 Channel: 7 Note on, G3 key=55 velocity: 0
@19920 Channel: 7 Note on, F4 key=65 velocity: 91
@19920 Channel: 7 Note on, G3 key=55 velocity: 91
@19920 Channel: 7 Note on, C4 key=60 velocity: 91
@19950 Channel: 7 Note on, C4 key=60 velocity: 0
@19950 Channel: 7 Note on, G3 key=55 velocity: 0
@19950 Channel: 7 Note on, F4 key=65 velocity: 0
@19980 Channel: 7 Note on, G3 key=55 velocity: 91
@19980 Channel: 7 Note on, C4 key=60 velocity: 91
@19980 Channel: 7 Note on, F4 key=65 velocity: 91
@19992 Channel: 7 Note on, F4 key=65 velocity: 0
@19992 Channel: 7 Note on, C4 key=60 velocity: 0
@19992 Channel: 7 Note on, G3 key=55 velocity: 0
@20010 Channel: 7 Note on, F4 key=65 velocity: 91
@20010 Channel: 7 Note on, C4 key=60 velocity: 91
@20010 Channel: 7 Note on, G3 key=55 velocity: 91
@20040 Channel: 7 Note on, G3 key=55 velocity: 0
@20040 Channel: 7 Note on, C4 key=60 velocity: 0
@20040 Channel: 7 Note on, F4 key=65 velocity: 0
@20070 Channel: 7 Note on, G3 key=55 velocity: 92
@20070 Channel: 7 Note on, C4 key=60 velocity: 92
@20070 Channel: 7 Note on, F4 key=65 velocity: 92
@20082 Channel: 7 Note on, F4 key=65 velocity: 0
@20082 Channel: 7 Note on, C4 key=60 velocity: 0
@20082 Channel: 7 Note on, G3 key=55 velocity: 0
@20100 Channel: 7 Note on, F4 key=65 velocity: 92
@20100 Channel: 7 Note on, G3 key=55 velocity: 92
@20100 Channel: 7 Note on, C4 key=60 velocity: 92
@20130 Channel: 7 Note on, C4 key=60 velocity: 0
@20130 Channel: 7 Note on, G3 key=55 velocity: 0
@20130 Channel: 7 Note on, F4 key=65 velocity: 0
@20160 Channel: 7 Note on, B3 key=59 velocity: 92
@20160 Channel: 7 Note on, D4 key=62 velocity: 92
@20160 Channel: 7 Note on, G3 key=55 velocity: 92
@20190 Channel: 7 Note on, G3 key=55 velocity: 0
@20190 Channel: 7 Note on, D4 key=62 velocity: 0
@20190 Channel: 7 Note on, B3 key=59 velocity: 0
@20220 Channel: 7 Note on, G3 key=55 velocity: 92
@20220 Channel: 7 Note on, D4 key=62 velocity: 92
@20220 Channel: 7 Note on, B3 key=59 velocity: 92
@20232 Channel: 7 Note on, B3 key=59 velocity: 0
@20232 Channel: 7 Note on, D4 key=62 velocity: 0
@20232 Channel: 7 Note on, G3 key=55 velocity: 0
@20250 Channel: 7 Note on, D4 key=62 velocity: 93
@20250 Channel: 7 Note on, G3 key=55 velocity: 93
@20250 Channel: 7 Note on, B3 key=59 velocity: 93
@20280 Channel: 7 Note on, B3 key=59 velocity: 0
@20280 Channel: 7 Note on, G3 key=55 velocity: 0
@20280 Channel: 7 Note on, D4 key=62 velocity: 0
@20310 Channel: 7 Note on, D4 key=62 velocity: 93
@20310 Channel: 7 Note on, G3 key=55 velocity: 93
@20310 Channel: 7 Note on, B3 key=59 velocity: 93
@20322 Channel: 7 Note on, B3 key=59 velocity: 0
@20322 Channel: 7 Note on, G3 key=55 velocity: 0
@20322 Channel: 7 Note on, D4 key=62 velocity: 0
@20340 Channel: 7 Note on, D4 key=62 velocity: 93
@20340 Channel: 7 Note on, B3 key=59 velocity: 93
@20340 Channel: 7 Note on, G3 key=55 velocity: 93
@20370 Channel: 7 Note on, G3 key=55 velocity: 0
@20370 Channel: 7 Note on, B3 key=59 velocity: 0
@20370 Channel: 7 Note on, D4 key=62 velocity: 0
@20400 Channel: 7 Note on, D4 key=62 velocity: 93
@20400 Channel: 7 Note on, G3 key=55 velocity: 93
@20400 Channel: 7 Note on, C4 key=60 velocity: 93
@20430 Channel: 7 Note on, C4 key=60 velocity: 0
@20430 Channel: 7 Note on, G3 key=55 velocity: 0
@20430 Channel: 7 Note on, D4 key=62 velocity: 0
@20460 Channel: 7 Note on, D4 key=62 velocity: 93
@20460 Channel: 7 Note on, G3 key=55 velocity: 93
@20460 Channel: 7 Note on, C4 key=60 velocity: 93
@20472 Channel: 7 Note on, C4 key=60 velocity: 0
@20472 Channel: 7 Note on, G3 key=55 velocity: 0
@20472 Channel: 7 Note on, D4 key=62 velocity: 0
@20490 Channel: 7 Note on, G3 key=55 velocity: 93
@20490 Channel: 7 Note on, C4 key=60 velocity: 93
@20490 Channel: 7 Note on, D4 key=62 velocity: 93
@20520 Channel: 7 Note on, D4 key=62 velocity: 0
@20520 Channel: 7 Note on, C4 key=60 velocity: 0
@20520 Channel: 7 Note on, G3 key=55 velocity: 0
@20550 Channel: 7 Note on, D4 key=62 velocity: 93
@20550 Channel: 7 Note on, G3 key=55 velocity: 93
@20550 Channel: 7 Note on, C4 key=60 velocity: 93
@20562 Channel: 7 Note on, C4 key=60 velocity: 0
@20562 Channel: 7 Note on, G3 key=55 velocity: 0
@20562 Channel: 7 Note on, D4 key=62 velocity: 0
@20580 Channel: 7 Note on, C4 key=60 velocity: 93
@20580 Channel: 7 Note on, D4 key=62 velocity: 93
@20580 Channel: 7 Note on, G3 key=55 velocity: 93
@20610 Channel: 7 Note on, G3 key=55 velocity: 0
@20610 Channel: 7 Note on, D4 key=62 velocity: 0
@20610 Channel: 7 Note on, C4 key=60 velocity: 0
@20640 Channel: 7 Note on, B3 key=59 velocity: 92
@20640 Channel: 7 Note on, D4 key=62 velocity: 92
@20640 Channel: 7 Note on, G3 key=55 velocity: 92
@20670 Channel: 7 Note on, G3 key=55 velocity: 0
@20670 Channel: 7 Note on, D4 key=62 velocity: 0
@20670 Channel: 7 Note on, B3 key=59 velocity: 0
@20700 Channel: 7 Note on, D4 key=62 velocity: 92
@20700 Channel: 7 Note on, G3 key=55 velocity: 92
@20700 Channel: 7 Note on, B3 key=59 velocity: 92
@20712 Channel: 7 Note on, B3 key=59 velocity: 0
@20712 Channel: 7 Note on, G3 key=55 velocity: 0
@20712 Channel: 7 Note on, D4 key=62 velocity: 0
@20730 Channel: 7 Note on, D4 key=62 velocity: 92
@20730 Channel: 7 Note on, G3 key=55 velocity: 92
@20730 Channel: 7 Note on, B3 key=59 velocity: 92
@20760 Channel: 7 Note on, B3 key=59 velocity: 0
@20760 Channel: 7 Note on, G3 key=55 velocity: 0
@20760 Channel: 7 Note on, D4 key=62 velocity: 0
@20790 Channel: 7 Note on, G3 key=55 velocity: 91
@20790 Channel: 7 Note on, D4 key=62 velocity: 91
@20790 Channel: 7 Note on, B3 key=59 velocity: 91
@20802 Channel: 7 Note on, B3 key=59 velocity: 0
@20802 Channel: 7 Note on, D4 key=62 velocity: 0
@20802 Channel: 7 Note on, G3 key=55 velocity: 0
@20820 Channel: 7 Note on, B3 key=59 velocity: 91
@20820 Channel: 7 Note on, D4 key=62 velocity: 91
@20820 Channel: 7 Note on, G3 key=55 velocity: 91
@20850 Channel: 7 Note on, G3 key=55 velocity: 0
@20850 Channel: 7 Note on, D4 key=62 velocity: 0
@20850 Channel: 7 Note on, B3 key=59 velocity: 0
@20880 Channel: 7 Note on, C4 key=60 velocity: 91
@20880 Channel: 7 Note on, G3 key=55 velocity: 91
@20880 Channel: 7 Note on, D4 key=62 velocity: 91
@20910 Channel: 7 Note on, D4 key=62 velocity: 0
@20910 Channel: 7 Note on, G3 key=55 velocity: 0
@20910 Channel: 7 Note on, C4 key=60 velocity: 0
@20940 Channel: 7 Note on, C4 key=60 velocity: 91
@20940 Channel: 7 Note on, D4 key=62 velocity: 91
@20940 Channel: 7 Note on, G3 key=55 velocity: 91
@20952 Channel: 7 Note on, G3 key=55 velocity: 0
@20952 Channel: 7 Note on, D4 key=62 velocity: 0
@20952 Channel: 7 Note on, C4 key=60 velocity: 0
@20970 Channel: 7 Note on, G3 key=55 velocity: 91
@20970 Channel: 7 Note on, D4 key=62 velocity: 91
@20970 Channel: 7 Note on, C4 key=60 velocity: 91
@21000 Channel: 7 Note on, C4 key=60 velocity: 0
@21000 Channel: 7 Note on, D4 key=62 velocity: 0
@21000 Channel: 7 Note on, G3 key=55 velocity: 0
@21030 Channel: 7 Note on, G3 key=55 velocity: 90
@21030 Channel: 7 Note on, D4 key=62 velocity: 90
@21030 Channel: 7 Note on, C4 key=60 velocity: 90
@21042 Channel: 7 Note on, C4 key=60 velocity: 0
@21042 Channel: 7 Note on, D4 key=62 velocity: 0
@21042 Channel: 7 Note on, G3 key=55 velocity: 0
@21060 Channel: 7 Note on, D4 key=62 velocity: 90
@21060 Channel: 7 Note on, C4 key=60 velocity: 90
@21060 Channel: 7 Note on, G3 key=55 velocity: 90
@21090 Channel: 7 Note on, G3 key=55 velocity: 0
@21090 Channel: 7 Note on, C4 key=60 velocity: 0
@21090 Channel: 7 Note on, D4 key=62 velocity: 0
@21120 Channel: 7 Note on, C4 key=60 velocity: 90
@21120 Channel: 7 Note on, A3 key=57 velocity: 90
@21120 Channel: 7 Note on, F4 key=65 velocity: 90
@21150 Channel: 7 Note on, F4 key=65 velocity: 0
@21150 Channel: 7 Note on, A3 key=57 velocity: 0
@21150 Channel: 7 Note on, C4 key=60 velocity: 0
@21180 Channel: 7 Note on, C4 key=60 velocity: 90
@21180 Channel: 7 Note on, F4 key=65 velocity: 90
@21180 Channel: 7 Note on, A3 key=57 velocity: 90
@21192 Channel: 7 Note on, A3 key=57 velocity: 0
@21192 Channel: 7 Note on, F4 key=65 velocity: 0
@21192 Channel: 7 Note on, C4 key=60 velocity: 0
@21210 Channel: 7 Note on, F4 key=65 velocity: 90
@21210 Channel: 7 Note on, A3 key=57 velocity: 90
@21210 Channel: 7 Note on, C4 key=60 velocity: 90
@21240 Channel: 7 Note on, C4 key=60 velocity: 0
@21240 Channel: 7 Note on, A3 key=57 velocity: 0
@21240 Channel: 7 Note on, F4 key=65 velocity: 0
@21270 Channel: 7 Note on, F4 key=65 velocity: 90
@21270 Channel: 7 Note on, C4 key=60 velocity: 90
@21270 Channel: 7 Note on, A3 key=57 velocity: 90
@21282 Channel: 7 Note on, A3 key=57 velocity: 0
@21282 Channel: 7 Note on, C4 key=60 velocity: 0
@21282 Channel: 7 Note on, F4 key=65 velocity: 0
@21300 Channel: 7 Note on, C4 key=60 velocity: 90
@21300 Channel: 7 Note on, A3 key=57 velocity: 90
@21300 Channel: 7 Note on, F4 key=65 velocity: 90
@21330 Channel: 7 Note on, F4 key=65 velocity: 0
@21330 Channel: 7 Note on, A3 key=57 velocity: 0
@21330 Channel: 7 Note on, C4 key=60 velocity: 0
@21360 Channel: 7 Note on, G3 key=55 velocity: 90
@21360 Channel: 7 Note on, C4 key=60 velocity: 90
@21360 Channel: 7 Note on, F4 key=65 velocity: 90
@21390 Channel: 7 Note on, F4 key=65 velocity: 0
@21390 Channel: 7 Note on, C4 key=60 velocity: 0
@21390 Channel: 7 Note on, G3 key=55 velocity: 0
@21420 Channel: 7 Note on, G3 key=55 velocity: 90
@21420 Channel: 7 Note on, C4 key=60 velocity: 90
@21420 Channel: 7 Note on, F4 key=65 velocity: 90
@21432 Channel: 7 Note on, F4 key=65 velocity: 0
@21432 Channel: 7 Note on, C4 key=60 velocity: 0
@21432 Channel: 7 Note on, G3 key=55 velocity: 0
@21450 Channel: 7 Note on, G3 key=55 velocity: 90
@21450 Channel: 7 Note on, C4 key=60 velocity: 90
@21450 Channel: 7 Note on, F4 key=65 velocity: 90
@21480 Channel: 7 Note on, F4 key=65 velocity: 0
@21480 Channel: 7 Note on, C4 key=60 velocity: 0
@21480 Channel: 7 Note on, G3 key=55 velocity: 0
@21510 Channel: 7 Note on, G3 key=55 velocity: 90
@21510 Channel: 7 Note on, F4 key=65 velocity: 90
@21510 Channel: 7 Note on, C4 key=60 velocity: 90
@21522 Channel: 7 Note on, C4 key=60 velocity: 0
@21522 Channel: 7 Note on, F4 key=65 velocity: 0
@21522 Channel: 7 Note on, G3 key=55 velocity: 0
@21540 Channel: 7 Note on, G3 key=55 velocity: 90
@21540 Channel: 7 Note on, C4 key=60 velocity: 90
@21540 Channel: 7 Note on, F4 key=65 velocity: 90
@21570 Channel: 7 Note on, F4 key=65 velocity: 0
@21570 Channel: 7 Note on, C4 key=60 velocity: 0
@21570 Channel: 7 Note on, G3 key=55 velocity: 0
@21600 Channel: 7 Note on, A3 key=57 velocity: 90
@21600 Channel: 7 Note on, C4 key=60 velocity: 90
@21600 Channel: 7 Note on, E4 key=64 velocity: 90
@21621 Channel: 7 Note on, E4 key=64 velocity: 0
@21623 Channel: 7 Note on, C4 key=60 velocity: 0
@21623 Channel: 7 Note on, A3 key=57 velocity: 0
@21660 Channel: 7 Note on, C4 key=60 velocity: 90
@21660 Channel: 7 Note on, A3 key=57 velocity: 90
@21660 Channel: 7 Note on, E4 key=64 velocity: 90
@21669 Channel: 7 Note on, E4 key=64 velocity: 0
@21669 Channel: 7 Note on, C4 key=60 velocity: 0
@21672 Channel: 7 Note on, A3 key=57 velocity: 0
@21690 Channel: 7 Note on, C4 key=60 velocity: 90
@21690 Channel: 7 Note on, A3 key=57 velocity: 90
@21690 Channel: 7 Note on, E4 key=64 velocity: 90
@21711 Channel: 7 Note on, E4 key=64 velocity: 0
@21713 Channel: 7 Note on, A3 key=57 velocity: 0
@21713 Channel: 7 Note on, C4 key=60 velocity: 0
@21750 Channel: 7 Note on, C4 key=60 velocity: 90
@21750 Channel: 7 Note on, A3 key=57 velocity: 90
@21750 Channel: 7 Note on, E4 key=64 velocity: 90
@21759 Channel: 7 Note on, E4 key=64 velocity: 0
@21759 Channel: 7 Note on, C4 key=60 velocity: 0
@21762 Channel: 7 Note on, A3 key=57 velocity: 0
@21780 Channel: 7 Note on, A3 key=57 velocity: 90
@21780 Channel: 7 Note on, C4 key=60 velocity: 90
@21780 Channel: 7 Note on, E4 key=64 velocity: 90
@21801 Channel: 7 Note on, E4 key=64 velocity: 0
@21801 Channel: 7 Note on, C4 key=60 velocity: 0
@21803 Channel: 7 Note on, A3 key=57 velocity: 0
@21840 Channel: 7 Note on, A3 key=57 velocity: 90
@21840 Channel: 7 Note on, E4 key=64 velocity: 90
@21840 Channel: 7 Note on, B3 key=59 velocity: 90
@21863 Channel: 7 Note on, E4 key=64 velocity: 0
@21866 Channel: 7 Note on, B3 key=59 velocity: 0
@21866 Channel: 7 Note on, A3 key=57 velocity: 0
@21900 Channel: 7 Note on, B3 key=59 velocity: 90
@21900 Channel: 7 Note on, A3 key=57 velocity: 90
@21900 Channel: 7 Note on, E4 key=64 velocity: 90
@21908 Channel: 7 Note on, E4 key=64 velocity: 0
@21912 Channel: 7 Note on, A3 key=57 velocity: 0
@21912 Channel: 7 Note on, B3 key=59 velocity: 0
@21930 Channel: 7 Note on, B3 key=59 velocity: 90
@21930 Channel: 7 Note on, A3 key=57 velocity: 90
@21930 Channel: 7 Note on, E4 key=64 velocity: 90
@21948 Channel: 7 Note on, E4 key=64 velocity: 0
@21951 Channel: 7 Note on, A3 key=57 velocity: 0
@21951 Channel: 7 Note on, B3 key=59 velocity: 0
@21990 Channel: 7 Note on, B3 key=59 velocity: 91
@21990 Channel: 7 Note on, A3 key=57 velocity: 91
@21999 Channel: 7 Note on, B3 key=59 velocity: 0
@22002 Channel: 7 Note on, A3 key=57 velocity: 0
@22020 Channel: 7 Note on, A3 key=57 velocity: 91
@22020 Channel: 7 Note on, E4 key=64 velocity: 91
@22020 Channel: 7 Note on, C4 key=60 velocity: 91
@22041 Channel: 7 Note on, C4 key=60 velocity: 0
@22041 Channel: 7 Note on, E4 key=64 velocity: 0
@22043 Channel: 7 Note on, A3 key=57 velocity: 0
@22080 Channel: 7 Note on, C4 key=60 velocity: 91
@22080 Channel: 7 Note on, D4 key=62 velocity: 91
@22080 Channel: 7 Note on, G3 key=55 velocity: 91
@22101 Channel: 7 Note on, G3 key=55 velocity: 0
@22101 Channel: 7 Note on, D4 key=62 velocity: 0
@22103 Channel: 7 Note on, C4 key=60 velocity: 0
@22140 Channel: 7 Note on, C4 key=60 velocity: 92
@22140 Channel: 7 Note on, G3 key=55 velocity: 92
@22140 Channel: 7 Note on, D4 key=62 velocity: 92
@22149 Channel: 7 Note on, D4 key=62 velocity: 0
@22149 Channel: 7 Note on, C4 key=60 velocity: 0
@22152 Channel: 7 Note on, G3 key=55 velocity: 0
@22170 Channel: 7 Note on, G3 key=55 velocity: 92
@22170 Channel: 7 Note on, C4 key=60 velocity: 92
@22170 Channel: 7 Note on, D4 key=62 velocity: 92
@22191 Channel: 7 Note on, D4 key=62 velocity: 0
@22191 Channel: 7 Note on, C4 key=60 velocity: 0
@22191 Channel: 7 Note on, G3 key=55 velocity: 0
@22230 Channel: 7 Note on, C4 key=60 velocity: 92
@22230 Channel: 7 Note on, G3 key=55 velocity: 92
@22230 Channel: 7 Note on, D4 key=62 velocity: 92
@22239 Channel: 7 Note on, C4 key=60 velocity: 0
@22242 Channel: 7 Note on, G3 key=55 velocity: 0
@22244 Channel: 7 Note on, D4 key=62 velocity: 0
@22260 Channel: 7 Note on, C4 key=60 velocity: 92
@22260 Channel: 7 Note on, D4 key=62 velocity: 92
@22260 Channel: 7 Note on, G3 key=55 velocity: 92
@22281 Channel: 7 Note on, G3 key=55 velocity: 0
@22281 Channel: 7 Note on, C4 key=60 velocity: 0
@22283 Channel: 7 Note on, D4 key=62 velocity: 0
@22320 Channel: 7 Note on, D4 key=62 velocity: 91
@22320 Channel: 7 Note on, B3 key=59 velocity: 91
@22320 Channel: 7 Note on, G3 key=55 velocity: 91
@22341 Channel: 7 Note on, B3 key=59 velocity: 0
@22343 Channel: 7 Note on, G3 key=55 velocity: 0
@22343 Channel: 7 Note on, D4 key=62 velocity: 0
@22380 Channel: 7 Note on, D4 key=62 velocity: 91
@22380 Channel: 7 Note on, B3 key=59 velocity: 91
@22380 Channel: 7 Note on, G3 key=55 velocity: 91
@22389 Channel: 7 Note on, B3 key=59 velocity: 0
@22392 Channel: 7 Note on, G3 key=55 velocity: 0
@22392 Channel: 7 Note on, D4 key=62 velocity: 0
@22410 Channel: 7 Note on, D4 key=62 velocity: 91
@22410 Channel: 7 Note on, G3 key=55 velocity: 91
@22410 Channel: 7 Note on, B3 key=59 velocity: 91
@22428 Channel: 7 Note on, B3 key=59 velocity: 0
@22431 Channel: 7 Note on, D4 key=62 velocity: 0
@22433 Channel: 7 Note on, G3 key=55 velocity: 0
@22470 Channel: 7 Note on, B3 key=59 velocity: 90
@22470 Channel: 7 Note on, D4 key=62 velocity: 90
@22470 Channel: 7 Note on, G3 key=55 velocity: 90
@22479 Channel: 7 Note on, G3 key=55 velocity: 0
@22479 Channel: 7 Note on, D4 key=62 velocity: 0
@22479 Channel: 7 Note on, B3 key=59 velocity: 0
@22500 Channel: 7 Note on, B3 key=59 velocity: 90
@22500 Channel: 7 Note on, D4 key=62 velocity: 90
@22500 Channel: 7 Note on, G3 key=55 velocity: 90
@22517 Channel: 7 Note on, G3 key=55 velocity: 0
@22517 Channel: 7 Note on, D4 key=62 velocity: 0
@22517 Channel: 7 Note on, B3 key=59 velocity: 0
@22560 Channel: 7 Note on, G3 key=55 velocity: 90
@22560 Channel: 7 Note on, B3 key=59 velocity: 90
@22560 Channel: 7 Note on, F4 key=65 velocity: 90
@22581 Channel: 7 Note on, F4 key=65 velocity: 0
@22581 Channel: 7 Note on, B3 key=59 velocity: 0
@22583 Channel: 7 Note on, G3 key=55 velocity: 0
@22620 Channel: 7 Note on, B3 key=59 velocity: 90
@22620 Channel: 7 Note on, F4 key=65 velocity: 90
@22620 Channel: 7 Note on, G3 key=55 velocity: 90
@22629 Channel: 7 Note on, B3 key=59 velocity: 0
@22632 Channel: 7 Note on, G3 key=55 velocity: 0
@22632 Channel: 7 Note on, F4 key=65 velocity: 0
@22650 Channel: 7 Note on, F4 key=65 velocity: 90
@22650 Channel: 7 Note on, G3 key=55 velocity: 90
@22650 Channel: 7 Note on, B3 key=59 velocity: 90
@22668 Channel: 7 Note on, B3 key=59 velocity: 0
@22671 Channel: 7 Note on, G3 key=55 velocity: 0
@22671 Channel: 7 Note on, F4 key=65 velocity: 0
@22710 Channel: 7 Note on, F4 key=65 velocity: 90
@22710 Channel: 7 Note on, G3 key=55 velocity: 90
@22710 Channel: 7 Note on, B3 key=59 velocity: 90
@22719 Channel: 7 Note on, B3 key=59 velocity: 0
@22722 Channel: 7 Note on, G3 key=55 velocity: 0
@22740 Channel: 7 Note on, G3 key=55 velocity: 90
@22740 Channel: 7 Note on, B3 key=59 velocity: 90
@22749 Channel: 7 Note on, F4 key=65 velocity: 0
@22761 Channel: 7 Note on, B3 key=59 velocity: 0
@22763 Channel: 7 Note on, G3 key=55 velocity: 0
@22800 Channel: 7 Note on, D4 key=62 velocity: 90
@22800 Channel: 7 Note on, G3 key=55 velocity: 90
@22800 Channel: 7 Note on, B3 key=59 velocity: 90
@22821 Channel: 7 Note on, B3 key=59 velocity: 0
@22823 Channel: 7 Note on, G3 key=55 velocity: 0
@22823 Channel: 7 Note on, D4 key=62 velocity: 0
@22860 Channel: 7 Note on, G3 key=55 velocity: 90
@22860 Channel: 7 Note on, B3 key=59 velocity: 90
@22860 Channel: 7 Note on, D4 key=62 velocity: 90
@22869 Channel: 7 Note on, D4 key=62 velocity: 0
@22869 Channel: 7 Note on, B3 key=59 velocity: 0
@22872 Channel: 7 Note on, G3 key=55 velocity: 0
@22890 Channel: 7 Note on, G3 key=55 velocity: 90
@22890 Channel: 7 Note on, B3 key=59 velocity: 90
@22890 Channel: 7 Note on, D4 key=62 velocity: 90
@22907 Channel: 7 Note on, D4 key=62 velocity: 0
@22911 Channel: 7 Note on, B3 key=59 velocity: 0
@22913 Channel: 7 Note on, G3 key=55 velocity: 0
@22950 Channel: 7 Note on, G3 key=55 velocity: 91
@22950 Channel: 7 Note on, B3 key=59 velocity: 91
@22950 Channel: 7 Note on, D4 key=62 velocity: 91
@22959 Channel: 7 Note on, D4 key=62 velocity: 0
@22959 Channel: 7 Note on, B3 key=59 velocity: 0
@22962 Channel: 7 Note on, G3 key=55 velocity: 0
@22980 Channel: 7 Note on, G3 key=55 velocity: 91
@22980 Channel: 7 Note on, B3 key=59 velocity: 91
@22980 Channel: 7 Note on, D4 key=62 velocity: 91
@23001 Channel: 7 Note on, D4 key=62 velocity: 0
@23003 Channel: 7 Note on, B3 key=59 velocity: 0
@23003 Channel: 7 Note on, G3 key=55 velocity: 0
@23040 Channel: 7 Note on, C4 key=60 velocity: 91
@23040 Channel: 7 Note on, E4 key=64 velocity: 91
@23040 Channel: 7 Note on, G3 key=55 velocity: 91
@23040 Channel: 7 Note on, E4 key=64 velocity: 91
@23040 Channel: 7 Note on, C4 key=60 velocity: 91
@23040 Channel: 7 Note on, G3 key=55 velocity: 91
@23063 Channel: 7 Note on, C4 key=60 velocity: 0
@23063 Channel: 7 Note on, E4 key=64 velocity: 0
@23063 Channel: 7 Note on, G3 key=55 velocity: 0
@23067 Channel: 7 Note on, C4 key=60 velocity: 0
@23067 Channel: 7 Note on, G3 key=55 velocity: 0
@23067 Channel: 7 Note on, E4 key=64 velocity: 0
@23100 Channel: 7 Note on, G3 key=55 velocity: 91
@23100 Channel: 7 Note on, E4 key=64 velocity: 91
@23100 Channel: 7 Note on, C4 key=60 velocity: 91
@23109 Channel: 7 Note on, C4 key=60 velocity: 0
@23109 Channel: 7 Note on, E4 key=64 velocity: 0
@23112 Channel: 7 Note on, G3 key=55 velocity: 0
@23130 Channel: 7 Note on, G3 key=55 velocity: 91
@23130 Channel: 7 Note on, E4 key=64 velocity: 91
@23130 Channel: 7 Note on, C4 key=60 velocity: 91
@23151 Channel: 7 Note on, C4 key=60 velocity: 0
@23156 Channel: 7 Note on, E4 key=64 velocity: 0
@23156 Channel: 7 Note on, G3 key=55 velocity: 0
@23190 Channel: 7 Note on, C4 key=60 velocity: 91
@23190 Channel: 7 Note on, E4 key=64 velocity: 91
@23190 Channel: 7 Note on, G3 key=55 velocity: 91
@23199 Channel: 7 Note on, G3 key=55 velocity: 0
@23199 Channel: 7 Note on, E4 key=64 velocity: 0
@23199 Channel: 7 Note on, C4 key=60 velocity: 0
@23220 Channel: 7 Note on, E4 key=64 velocity: 91
@23220 Channel: 7 Note on, C4 key=60 velocity: 91
@23220 Channel: 7 Note on, G3 key=55 velocity: 91
@23246 Channel: 7 Note on, G3 key=55 velocity: 0
@23246 Channel: 7 Note on, C4 key=60 velocity: 0
@23246 Channel: 7 Note on, E4 key=64 velocity: 0
@23280 Channel: 7 Note on, F4 key=65 velocity: 91
@23280 Channel: 7 Note on, C4 key=60 velocity: 91
@23280 Channel: 7 Note on, G3 key=55 velocity: 91
@23306 Channel: 7 Note on, G3 key=55 velocity: 0
@23306 Channel: 7 Note on, C4 key=60 velocity: 0
@23306 Channel: 7 Note on, F4 key=65 velocity: 0
@23340 Channel: 7 Note on, F4 key=65 velocity: 91
@23340 Channel: 7 Note on, C4 key=60 velocity: 91
@23340 Channel: 7 Note on, G3 key=55 velocity: 91
@23349 Channel: 7 Note on, G3 key=55 velocity: 0
@23349 Channel: 7 Note on, C4 key=60 velocity: 0
@23352 Channel: 7 Note on, F4 key=65 velocity: 0
@23370 Channel: 7 Note on, F4 key=65 velocity: 91
@23370 Channel: 7 Note on, C4 key=60 velocity: 91
@23370 Channel: 7 Note on, G3 key=55 velocity: 91
@23396 Channel: 7 Note on, G3 key=55 velocity: 0
@23396 Channel: 7 Note on, C4 key=60 velocity: 0
@23396 Channel: 7 Note on, F4 key=65 velocity: 0
@23430 Channel: 7 Note on, G3 key=55 velocity: 91
@23430 Channel: 7 Note on, C4 key=60 velocity: 91
@23430 Channel: 7 Note on, F4 key=65 velocity: 91
@23442 Channel: 7 Note on, F4 key=65 velocity: 0
@23442 Channel: 7 Note on, C4 key=60 velocity: 0
@23442 Channel: 7 Note on, G3 key=55 velocity: 0
@23460 Channel: 7 Note on, F4 key=65 velocity: 91
@23460 Channel: 7 Note on, G3 key=55 velocity: 91
@23460 Channel: 7 Note on, C4 key=60 velocity: 91
@23487 Channel: 7 Note on, C4 key=60 velocity: 0
@23487 Channel: 7 Note on, G3 key=55 velocity: 0
@23490 Channel: 7 Note on, F4 key=65 velocity: 0
@23520 Channel: 7 Note on, C4 key=60 velocity: 91
@23520 Channel: 7 Note on, E4 key=64 velocity: 91
@23520 Channel: 7 Note on, G3 key=55 velocity: 91
@23541 Channel: 7 Note on, G3 key=55 velocity: 0
@23541 Channel: 7 Note on, E4 key=64 velocity: 0
@23541 Channel: 7 Note on, C4 key=60 velocity: 0
@23580 Channel: 7 Note on, C4 key=60 velocity: 90
@23580 Channel: 7 Note on, E4 key=64 velocity: 90
@23580 Channel: 7 Note on, G3 key=55 velocity: 90
@23592 Channel: 7 Note on, G3 key=55 velocity: 0
@23592 Channel: 7 Note on, E4 key=64 velocity: 0
@23592 Channel: 7 Note on, C4 key=60 velocity: 0
@23610 Channel: 7 Note on, E4 key=64 velocity: 90
@23610 Channel: 7 Note on, G3 key=55 velocity: 90
@23610 Channel: 7 Note on, C4 key=60 velocity: 90
@23631 Channel: 7 Note on, C4 key=60 velocity: 0
@23633 Channel: 7 Note on, G3 key=55 velocity: 0
@23633 Channel: 7 Note on, E4 key=64 velocity: 0
@23670 Channel: 7 Note on, G3 key=55 velocity: 90
@23670 Channel: 7 Note on, E4 key=64 velocity: 90
@23670 Channel: 7 Note on, C4 key=60 velocity: 90
@23682 Channel: 7 Note on, C4 key=60 velocity: 0
@23682 Channel: 7 Note on, E4 key=64 velocity: 0
@23682 Channel: 7 Note on, G3 key=55 velocity: 0
@23700 Channel: 7 Note on, E4 key=64 velocity: 90
@23700 Channel: 7 Note on, G3 key=55 velocity: 90
@23700 Channel: 7 Note on, C4 key=60 velocity: 90
@23723 Channel: 7 Note on, C4 key=60 velocity: 0
@23723 Channel: 7 Note on, G3 key=55 velocity: 0
@23723 Channel: 7 Note on, E4 key=64 velocity: 0
@23760 Channel: 7 Note on, C4 key=60 velocity: 90
@23760 Channel: 7 Note on, G3 key=55 velocity: 90
@23760 Channel: 7 Note on, F4 key=65 velocity: 90
@23783 Channel: 7 Note on, F4 key=65 velocity: 0
@23783 Channel: 7 Note on, G3 key=55 velocity: 0
@23783 Channel: 7 Note on, C4 key=60 velocity: 0
@23820 Channel: 7 Note on, C4 key=60 velocity: 92
@23820 Channel: 7 Note on, F4 key=65 velocity: 92
@23820 Channel: 7 Note on, G3 key=55 velocity: 92
@23832 Channel: 7 Note on, G3 key=55 velocity: 0
@23832 Channel: 7 Note on, F4 key=65 velocity: 0
@23832 Channel: 7 Note on, C4 key=60 velocity: 0
@23850 Channel: 7 Note on, F4 key=65 velocity: 90
@23850 Channel: 7 Note on, C4 key=60 velocity: 90
@23850 Channel: 7 Note on, G3 key=55 velocity: 90
@23871 Channel: 7 Note on, C4 key=60 velocity: 0
@23871 Channel: 7 Note on, F4 key=65 velocity: 0
@23873 Channel: 7 Note on, G3 key=55 velocity: 0
@23910 Channel: 7 Note on, F4 key=65 velocity: 90
@23910 Channel: 7 Note on, C4 key=60 velocity: 90
@23910 Channel: 7 Note on, G3 key=55 velocity: 90
@23919 Channel: 7 Note on, G3 key=55 velocity: 0
@23919 Channel: 7 Note on, C4 key=60 velocity: 0
@23922 Channel: 7 Note on, F4 key=65 velocity: 0
@23940 Channel: 7 Note on, F4 key=65 velocity: 89
@23940 Channel: 7 Note on, G3 key=55 velocity: 89
@23940 Channel: 7 Note on, C4 key=60 velocity: 89
@23961 Channel: 7 Note on, F4 key=65 velocity: 0
@23963 Channel: 7 Note on, C4 key=60 velocity: 0
@23963 Channel: 7 Note on, G3 key=55 velocity: 0
@24000 Channel: 7 Note on, C4 key=60 velocity: 89
@24000 Channel: 7 Note on, E4 key=64 velocity: 89
@24000 Channel: 7 Note on, A3 key=57 velocity: 89
@24023 Channel: 7 Note on, A3 key=57 velocity: 0
@24023 Channel: 7 Note on, E4 key=64 velocity: 0
@24026 Channel: 7 Note on, C4 key=60 velocity: 0
@24060 Channel: 7 Note on, A3 key=57 velocity: 89
@24060 Channel: 7 Note on, C4 key=60 velocity: 89
@24060 Channel: 7 Note on, E4 key=64 velocity: 89
@24072 Channel: 7 Note on, E4 key=64 velocity: 0
@24072 Channel: 7 Note on, C4 key=60 velocity: 0
@24074 Channel: 7 Note on, A3 key=57 velocity: 0
@24090 Channel: 7 Note on, A3 key=57 velocity: 89
@24090 Channel: 7 Note on, E4 key=64 velocity: 89
@24090 Channel: 7 Note on, C4 key=60 velocity: 89
@24111 Channel: 7 Note on, C4 key=60 velocity: 0
@24113 Channel: 7 Note on, E4 key=64 velocity: 0
@24113 Channel: 7 Note on, A3 key=57 velocity: 0
@24150 Channel: 7 Note on, C4 key=60 velocity: 88
@24150 Channel: 7 Note on, A3 key=57 velocity: 88
@24150 Channel: 7 Note on, E4 key=64 velocity: 88
@24159 Channel: 7 Note on, E4 key=64 velocity: 0
@24159 Channel: 7 Note on, A3 key=57 velocity: 0
@24159 Channel: 7 Note on, C4 key=60 velocity: 0
@24180 Channel: 7 Note on, A3 key=57 velocity: 88
@24180 Channel: 7 Note on, C4 key=60 velocity: 88
@24180 Channel: 7 Note on, E4 key=64 velocity: 88
@24203 Channel: 7 Note on, E4 key=64 velocity: 0
@24203 Channel: 7 Note on, C4 key=60 velocity: 0
@24203 Channel: 7 Note on, A3 key=57 velocity: 0
@24240 Channel: 7 Note on, A3 key=57 velocity: 89
@24240 Channel: 7 Note on, C4 key=60 velocity: 89
@24240 Channel: 7 Note on, E4 key=64 velocity: 89
@24263 Channel: 7 Note on, E4 key=64 velocity: 0
@24263 Channel: 7 Note on, C4 key=60 velocity: 0
@24263 Channel: 7 Note on, A3 key=57 velocity: 0
@24300 Channel: 7 Note on, A3 key=57 velocity: 89
@24300 Channel: 7 Note on, E4 key=64 velocity: 89
@24300 Channel: 7 Note on, C4 key=60 velocity: 89
@24309 Channel: 7 Note on, C4 key=60 velocity: 0
@24312 Channel: 7 Note on, E4 key=64 velocity: 0
@24312 Channel: 7 Note on, A3 key=57 velocity: 0
@24330 Channel: 7 Note on, A3 key=57 velocity: 89
@24330 Channel: 7 Note on, C4 key=60 velocity: 89
@24330 Channel: 7 Note on, E4 key=64 velocity: 89
@24351 Channel: 7 Note on, E4 key=64 velocity: 0
@24351 Channel: 7 Note on, C4 key=60 velocity: 0
@24353 Channel: 7 Note on, A3 key=57 velocity: 0
@24390 Channel: 7 Note on, A3 key=57 velocity: 90
@24390 Channel: 7 Note on, C4 key=60 velocity: 90
@24390 Channel: 7 Note on, E4 key=64 velocity: 90
@24399 Channel: 7 Note on, E4 key=64 velocity: 0
@24399 Channel: 7 Note on, C4 key=60 velocity: 0
@24399 Channel: 7 Note on, A3 key=57 velocity: 0
@24420 Channel: 7 Note on, A3 key=57 velocity: 90
@24420 Channel: 7 Note on, E4 key=64 velocity: 90
@24420 Channel: 7 Note on, C4 key=60 velocity: 90
@24437 Channel: 7 Note on, C4 key=60 velocity: 0
@24437 Channel: 7 Note on, E4 key=64 velocity: 0
@24438 Channel: 7 Note on, A3 key=57 velocity: 0
@24480 Channel: 7 Note on, A3 key=57 velocity: 90
@24480 Channel: 7 Note on, E4 key=64 velocity: 90
@24480 Channel: 7 Note on, C4 key=60 velocity: 90
@24501 Channel: 7 Note on, C4 key=60 velocity: 0
@24503 Channel: 7 Note on, E4 key=64 velocity: 0
@24503 Channel: 7 Note on, A3 key=57 velocity: 0
@24540 Channel: 7 Note on, A3 key=57 velocity: 90
@24540 Channel: 7 Note on, C4 key=60 velocity: 90
@24540 Channel: 7 Note on, E4 key=64 velocity: 90
@24549 Channel: 7 Note on, C4 key=60 velocity: 0
@24552 Channel: 7 Note on, E4 key=64 velocity: 0
@24552 Channel: 7 Note on, A3 key=57 velocity: 0
@24570 Channel: 7 Note on, A3 key=57 velocity: 90
@24570 Channel: 7 Note on, E4 key=64 velocity: 90
@24570 Channel: 7 Note on, C4 key=60 velocity: 90
@24587 Channel: 7 Note on, C4 key=60 velocity: 0
@24588 Channel: 7 Note on, E4 key=64 velocity: 0
@24591 Channel: 7 Note on, A3 key=57 velocity: 0
@24630 Channel: 7 Note on, A3 key=57 velocity: 91
@24630 Channel: 7 Note on, C4 key=60 velocity: 91
@24630 Channel: 7 Note on, E4 key=64 velocity: 91
@24638 Channel: 7 Note on, E4 key=64 velocity: 0
@24638 Channel: 7 Note on, C4 key=60 velocity: 0
@24642 Channel: 7 Note on, A3 key=57 velocity: 0
@24660 Channel: 7 Note on, A3 key=57 velocity: 91
@24660 Channel: 7 Note on, C4 key=60 velocity: 91
@24660 Channel: 7 Note on, E4 key=64 velocity: 91
@24678 Channel: 7 Note on, C4 key=60 velocity: 0
@24681 Channel: 7 Note on, E4 key=64 velocity: 0
@24681 Channel: 7 Note on, A3 key=57 velocity: 0
@24720 Channel: 7 Note on, A3 key=57 velocity: 92
@24720 Channel: 7 Note on, E4 key=64 velocity: 92
@24720 Channel: 7 Note on, C4 key=60 velocity: 92
@24741 Channel: 7 Note on, C4 key=60 velocity: 0
@24743 Channel: 7 Note on, E4 key=64 velocity: 0
@24743 Channel: 7 Note on, A3 key=57 velocity: 0
@24780 Channel: 7 Note on, A3 key=57 velocity: 92
@24780 Channel: 7 Note on, C4 key=60 velocity: 92
@24780 Channel: 7 Note on, E4 key=64 velocity: 92
@24789 Channel: 7 Note on, E4 key=64 velocity: 0
@24789 Channel: 7 Note on, C4 key=60 velocity: 0
@24792 Channel: 7 Note on, A3 key=57 velocity: 0
@24810 Channel: 7 Note on, A3 key=57 velocity: 92
@24810 Channel: 7 Note on, E4 key=64 velocity: 92
@24810 Channel: 7 Note on, C4 key=60 velocity: 92
@24831 Channel: 7 Note on, C4 key=60 velocity: 0
@24831 Channel: 7 Note on, E4 key=64 velocity: 0
@24833 Channel: 7 Note on, A3 key=57 velocity: 0
@24870 Channel: 7 Note on, A3 key=57 velocity: 92
@24870 Channel: 7 Note on, C4 key=60 velocity: 92
@24870 Channel: 7 Note on, E4 key=64 velocity: 92
@24879 Channel: 7 Note on, E4 key=64 velocity: 0
@24879 Channel: 7 Note on, C4 key=60 velocity: 0
@24884 Channel: 7 Note on, A3 key=57 velocity: 0
@24900 Channel: 7 Note on, E4 key=64 velocity: 91
@24900 Channel: 7 Note on, A3 key=57 velocity: 91
@24900 Channel: 7 Note on, C4 key=60 velocity: 91
@24918 Channel: 7 Note on, C4 key=60 velocity: 0
@24918 Channel: 7 Note on, E4 key=64 velocity: 0
@24921 Channel: 7 Note on, A3 key=57 velocity: 0
@24960 Channel: 7 Note on, C4 key=60 velocity: 91
@24960 Channel: 7 Note on, F4 key=65 velocity: 91
@24960 Channel: 7 Note on, A3 key=57 velocity: 91
@24981 Channel: 7 Note on, A3 key=57 velocity: 0
@24981 Channel: 7 Note on, C4 key=60 velocity: 0
@24983 Channel: 7 Note on, F4 key=65 velocity: 0
@25020 Channel: 7 Note on, F4 key=65 velocity: 91
@25020 Channel: 7 Note on, C4 key=60 velocity: 91
@25020 Channel: 7 Note on, A3 key=57 velocity: 91
@25029 Channel: 7 Note on, C4 key=60 velocity: 0
@25032 Channel: 7 Note on, A3 key=57 velocity: 0
@25032 Channel: 7 Note on, F4 key=65 velocity: 0
@25050 Channel: 7 Note on, A3 key=57 velocity: 91
@25050 Channel: 7 Note on, F4 key=65 velocity: 91
@25050 Channel: 7 Note on, C4 key=60 velocity: 91
@25071 Channel: 7 Note on, C4 key=60 velocity: 0
@25071 Channel: 7 Note on, F4 key=65 velocity: 0
@25071 Channel: 7 Note on, A3 key=57 velocity: 0
@25110 Channel: 7 Note on, A3 key=57 velocity: 90
@25110 Channel: 7 Note on, C4 key=60 velocity: 90
@25110 Channel: 7 Note on, F4 key=65 velocity: 90
@25119 Channel: 7 Note on, F4 key=65 velocity: 0
@25119 Channel: 7 Note on, C4 key=60 velocity: 0
@25122 Channel: 7 Note on, A3 key=57 velocity: 0
@25140 Channel: 7 Note on, A3 key=57 velocity: 90
@25140 Channel: 7 Note on, F4 key=65 velocity: 90
@25140 Channel: 7 Note on, C4 key=60 velocity: 90
@25158 Channel: 7 Note on, C4 key=60 velocity: 0
@25158 Channel: 7 Note on, F4 key=65 velocity: 0
@25158 Channel: 7 Note on, A3 key=57 velocity: 0
@25200 Channel: 7 Note on, C4 key=60 velocity: 90
@25200 Channel: 7 Note on, G3 key=55 velocity: 90
@25200 Channel: 7 Note on, F4 key=65 velocity: 90
@25221 Channel: 7 Note on, F4 key=65 velocity: 0
@25221 Channel: 7 Note on, G3 key=55 velocity: 0
@25221 Channel: 7 Note on, C4 key=60 velocity: 0
@25260 Channel: 7 Note on, G3 key=55 velocity: 90
@25260 Channel: 7 Note on, C4 key=60 velocity: 90
@25260 Channel: 7 Note on, F4 key=65 velocity: 90
@25272 Channel: 7 Note on, F4 key=65 velocity: 0
@25272 Channel: 7 Note on, C4 key=60 velocity: 0
@25272 Channel: 7 Note on, G3 key=55 velocity: 0
@25290 Channel: 7 Note on, G3 key=55 velocity: 90
@25290 Channel: 7 Note on, F4 key=65 velocity: 90
@25290 Channel: 7 Note on, C4 key=60 velocity: 90
@25307 Channel: 7 Note on, C4 key=60 velocity: 0
@25307 Channel: 7 Note on, F4 key=65 velocity: 0
@25311 Channel: 7 Note on, G3 key=55 velocity: 0
@25350 Channel: 7 Note on, G3 key=55 velocity: 90
@25350 Channel: 7 Note on, C4 key=60 velocity: 90
@25350 Channel: 7 Note on, F4 key=65 velocity: 90
@25362 Channel: 7 Note on, F4 key=65 velocity: 0
@25362 Channel: 7 Note on, C4 key=60 velocity: 0
@25362 Channel: 7 Note on, G3 key=55 velocity: 0
@25380 Channel: 7 Note on, G3 key=55 velocity: 91
@25380 Channel: 7 Note on, F4 key=65 velocity: 91
@25380 Channel: 7 Note on, C4 key=60 velocity: 91
@25401 Channel: 7 Note on, C4 key=60 velocity: 0
@25401 Channel: 7 Note on, F4 key=65 velocity: 0
@25401 Channel: 7 Note on, G3 key=55 velocity: 0
@25440 Channel: 7 Note on, A3 key=57 velocity: 91
@25440 Channel: 7 Note on, C4 key=60 velocity: 91
@25440 Channel: 7 Note on, F4 key=65 velocity: 91
@25457 Channel: 7 Note on, F4 key=65 velocity: 0
@25458 Channel: 7 Note on, C4 key=60 velocity: 0
@25461 Channel: 7 Note on, A3 key=57 velocity: 0
@25500 Channel: 7 Note on, F4 key=65 velocity: 91
@25500 Channel: 7 Note on, A3 key=57 velocity: 91
@25500 Channel: 7 Note on, C4 key=60 velocity: 91
@25509 Channel: 7 Note on, C4 key=60 velocity: 0
@25509 Channel: 7 Note on, A3 key=57 velocity: 0
@25509 Channel: 7 Note on, F4 key=65 velocity: 0
@25530 Channel: 7 Note on, A3 key=57 velocity: 91
@25530 Channel: 7 Note on, F4 key=65 velocity: 91
@25530 Channel: 7 Note on, C4 key=60 velocity: 91
@25547 Channel: 7 Note on, C4 key=60 velocity: 0
@25548 Channel: 7 Note on, F4 key=65 velocity: 0
@25551 Channel: 7 Note on, A3 key=57 velocity: 0
@25590 Channel: 7 Note on, A3 key=57 velocity: 91
@25590 Channel: 7 Note on, F4 key=65 velocity: 91
@25590 Channel: 7 Note on, C4 key=60 velocity: 91
@25599 Channel: 7 Note on, C4 key=60 velocity: 0
@25602 Channel: 7 Note on, F4 key=65 velocity: 0
@25602 Channel: 7 Note on, A3 key=57 velocity: 0
@25620 Channel: 7 Note on, F4 key=65 velocity: 91
@25620 Channel: 7 Note on, A3 key=57 velocity: 91
@25620 Channel: 7 Note on, C4 key=60 velocity: 91
@25638 Channel: 7 Note on, C4 key=60 velocity: 0
@25641 Channel: 7 Note on, A3 key=57 velocity: 0
@25641 Channel: 7 Note on, F4 key=65 velocity: 0
@25680 Channel: 7 Note on, C4 key=60 velocity: 91
@25680 Channel: 7 Note on, F4 key=65 velocity: 91
@25680 Channel: 7 Note on, G3 key=55 velocity: 91
@25697 Channel: 7 Note on, G3 key=55 velocity: 0
@25698 Channel: 7 Note on, F4 key=65 velocity: 0
@25698 Channel: 7 Note on, C4 key=60 velocity: 0
@25740 Channel: 7 Note on, C4 key=60 velocity: 90
@25740 Channel: 7 Note on, G3 key=55 velocity: 90
@25740 Channel: 7 Note on, F4 key=65 velocity: 90
@25752 Channel: 7 Note on, F4 key=65 velocity: 0
@25752 Channel: 7 Note on, G3 key=55 velocity: 0
@25752 Channel: 7 Note on, C4 key=60 velocity: 0
@25770 Channel: 7 Note on, F4 key=65 velocity: 90
@25770 Channel: 7 Note on, G3 key=55 velocity: 90
@25770 Channel: 7 Note on, C4 key=60 velocity: 90
@25788 Channel: 7 Note on, C4 key=60 velocity: 0
@25791 Channel: 7 Note on, G3 key=55 velocity: 0
@25791 Channel: 7 Note on, F4 key=65 velocity: 0
@25830 Channel: 7 Note on, C4 key=60 velocity: 90
@25830 Channel: 7 Note on, F4 key=65 velocity: 90
@25830 Channel: 7 Note on, G3 key=55 velocity: 90
@25842 Channel: 7 Note on, G3 key=55 velocity: 0
@25842 Channel: 7 Note on, F4 key=65 velocity: 0
@25842 Channel: 7 Note on, C4 key=60 velocity: 0
@25860 Channel: 7 Note on, F4 key=65 velocity: 90
@25860 Channel: 7 Note on, C4 key=60 velocity: 90
@25860 Channel: 7 Note on, G3 key=55 velocity: 90
@25877 Channel: 7 Note on, F4 key=65 velocity: 0
@25878 Channel: 7 Note on, C4 key=60 velocity: 0
@25881 Channel: 7 Note on, G3 key=55 velocity: 0
@25920 Channel: 7 Note on, B3 key=59 velocity: 91
@25920 Channel: 7 Note on, G3 key=55 velocity: 91
@25920 Channel: 7 Note on, E4 key=64 velocity: 91
@25938 Channel: 7 Note on, E4 key=64 velocity: 0
@25938 Channel: 7 Note on, B3 key=59 velocity: 0
@25941 Channel: 7 Note on, G3 key=55 velocity: 0
@25980 Channel: 7 Note on, E4 key=64 velocity: 91
@25980 Channel: 7 Note on, B3 key=59 velocity: 91
@25980 Channel: 7 Note on, G3 key=55 velocity: 91
@25989 Channel: 7 Note on, G3 key=55 velocity: 0
@25989 Channel: 7 Note on, B3 key=59 velocity: 0
@25992 Channel: 7 Note on, E4 key=64 velocity: 0
@26010 Channel: 7 Note on, E4 key=64 velocity: 91
@26010 Channel: 7 Note on, G3 key=55 velocity: 91
@26010 Channel: 7 Note on, B3 key=59 velocity: 91
@26028 Channel: 7 Note on, B3 key=59 velocity: 0
@26028 Channel: 7 Note on, G3 key=55 velocity: 0
@26031 Channel: 7 Note on, E4 key=64 velocity: 0
@26070 Channel: 7 Note on, E4 key=64 velocity: 91
@26070 Channel: 7 Note on, B3 key=59 velocity: 91
@26070 Channel: 7 Note on, G3 key=55 velocity: 91
@26079 Channel: 7 Note on, G3 key=55 velocity: 0
@26079 Channel: 7 Note on, B3 key=59 velocity: 0
@26079 Channel: 7 Note on, E4 key=64 velocity: 0
@26100 Channel: 7 Note on, G3 key=55 velocity: 91
@26100 Channel: 7 Note on, E4 key=64 velocity: 91
@26100 Channel: 7 Note on, B3 key=59 velocity: 91
@26117 Channel: 7 Note on, B3 key=59 velocity: 0
@26117 Channel: 7 Note on, E4 key=64 velocity: 0
@26118 Channel: 7 Note on, G3 key=55 velocity: 0
@26160 Channel: 7 Note on, E4 key=64 velocity: 92
@26160 Channel: 7 Note on, G3 key=55 velocity: 92
@26160 Channel: 7 Note on, B3 key=59 velocity: 92
@26181 Channel: 7 Note on, B3 key=59 velocity: 0
@26183 Channel: 7 Note on, G3 key=55 velocity: 0
@26183 Channel: 7 Note on, E4 key=64 velocity: 0
@26220 Channel: 7 Note on, G3 key=55 velocity: 92
@26220 Channel: 7 Note on, B3 key=59 velocity: 92
@26220 Channel: 7 Note on, E4 key=64 velocity: 92
@26229 Channel: 7 Note on, E4 key=64 velocity: 0
@26229 Channel: 7 Note on, B3 key=59 velocity: 0
@26229 Channel: 7 Note on, G3 key=55 velocity: 0
@26250 Channel: 7 Note on, G3 key=55 velocity: 92
@26250 Channel: 7 Note on, E4 key=64 velocity: 92
@26250 Channel: 7 Note on, B3 key=59 velocity: 92
@26267 Channel: 7 Note on, B3 key=59 velocity: 0
@26267 Channel: 7 Note on, E4 key=64 velocity: 0
@26268 Channel: 7 Note on, G3 key=55 velocity: 0
@26310 Channel: 7 Note on, B3 key=59 velocity: 92
@26310 Channel: 7 Note on, G3 key=55 velocity: 92
@26310 Channel: 7 Note on, E4 key=64 velocity: 92
@26319 Channel: 7 Note on, E4 key=64 velocity: 0
@26319 Channel: 7 Note on, B3 key=59 velocity: 0
@26322 Channel: 7 Note on, G3 key=55 velocity: 0
@26340 Channel: 7 Note on, G3 key=55 velocity: 92
@26340 Channel: 7 Note on, E4 key=64 velocity: 92
@26340 Channel: 7 Note on, B3 key=59 velocity: 92
@26358 Channel: 7 Note on, B3 key=59 velocity: 0
@26358 Channel: 7 Note on, E4 key=64 velocity: 0
@26361 Channel: 7 Note on, G3 key=55 velocity: 0
@26400 Channel: 7 Note on, A3 key=57 velocity: 92
@26400 Channel: 7 Note on, C4 key=60 velocity: 92
@26400 Channel: 7 Note on, F4 key=65 velocity: 92
@26421 Channel: 7 Note on, C4 key=60 velocity: 0
@26421 Channel: 7 Note on, A3 key=57 velocity: 0
@26423 Channel: 7 Note on, F4 key=65 velocity: 0
@26460 Channel: 7 Note on, A3 key=57 velocity: 92
@26460 Channel: 7 Note on, F4 key=65 velocity: 92
@26460 Channel: 7 Note on, C4 key=60 velocity: 92
@26469 Channel: 7 Note on, C4 key=60 velocity: 0
@26469 Channel: 7 Note on, F4 key=65 velocity: 0
@26469 Channel: 7 Note on, A3 key=57 velocity: 0
@26490 Channel: 7 Note on, F4 key=65 velocity: 92
@26490 Channel: 7 Note on, A3 key=57 velocity: 92
@26490 Channel: 7 Note on, C4 key=60 velocity: 92
@26508 Channel: 7 Note on, C4 key=60 velocity: 0
@26511 Channel: 7 Note on, A3 key=57 velocity: 0
@26511 Channel: 7 Note on, F4 key=65 velocity: 0
@26550 Channel: 7 Note on, C4 key=60 velocity: 90
@26550 Channel: 7 Note on, F4 key=65 velocity: 90
@26550 Channel: 7 Note on, A3 key=57 velocity: 90
@26559 Channel: 7 Note on, C4 key=60 velocity: 0
@26562 Channel: 7 Note on, A3 key=57 velocity: 0
@26562 Channel: 7 Note on, F4 key=65 velocity: 0
@26580 Channel: 7 Note on, F4 key=65 velocity: 90
@26580 Channel: 7 Note on, A3 key=57 velocity: 90
@26580 Channel: 7 Note on, C4 key=60 velocity: 90
@26598 Channel: 7 Note on, C4 key=60 velocity: 0
@26598 Channel: 7 Note on, A3 key=57 velocity: 0
@26601 Channel: 7 Note on, F4 key=65 velocity: 0
@26640 Channel: 7 Note on, B3 key=59 velocity: 90
@26640 Channel: 7 Note on, D4 key=62 velocity: 90
@26640 Channel: 7 Note on, G4 key=67 velocity: 90
@26661 Channel: 7 Note on, D4 key=62 velocity: 0
@26663 Channel: 7 Note on, G4 key=67 velocity: 0
@26663 Channel: 7 Note on, B3 key=59 velocity: 0
@26700 Channel: 7 Note on, G4 key=67 velocity: 90
@26700 Channel: 7 Note on, B3 key=59 velocity: 90
@26700 Channel: 7 Note on, D4 key=62 velocity: 90
@26709 Channel: 7 Note on, D4 key=62 velocity: 0
@26709 Channel: 7 Note on, B3 key=59 velocity: 0
@26712 Channel: 7 Note on, G4 key=67 velocity: 0
@26730 Channel: 7 Note on, G4 key=67 velocity: 90
@26730 Channel: 7 Note on, D4 key=62 velocity: 90
@26730 Channel: 7 Note on, B3 key=59 velocity: 90
@26751 Channel: 7 Note on, B3 key=59 velocity: 0
@26751 Channel: 7 Note on, D4 key=62 velocity: 0
@26751 Channel: 7 Note on, G4 key=67 velocity: 0
@26790 Channel: 7 Note on, G4 key=67 velocity: 89
@26790 Channel: 7 Note on, D4 key=62 velocity: 89
@26790 Channel: 7 Note on, B3 key=59 velocity: 89
@26799 Channel: 7 Note on, B3 key=59 velocity: 0
@26799 Channel: 7 Note on, D4 key=62 velocity: 0
@26799 Channel: 7 Note on, G4 key=67 velocity: 0
@26820 Channel: 7 Note on, B3 key=59 velocity: 89
@26820 Channel: 7 Note on, G4 key=67 velocity: 89
@26820 Channel: 7 Note on, D4 key=62 velocity: 89
@26820 Channel: 7 Note on, F4 key=65 velocity: 89
@26828 Channel: 7 Note on, F4 key=65 velocity: 0
@26847 Channel: 7 Note on, B3 key=59 velocity: 0
@26847 Channel: 7 Note on, G4 key=67 velocity: 0
@26847 Channel: 7 Note on, D4 key=62 velocity: 0
@26880 Channel: 7 Note on, C4 key=60 velocity: 88
@26880 Channel: 7 Note on, G3 key=55 velocity: 88
@26880 Channel: 7 Note on, E4 key=64 velocity: 88
@26910 Channel: 7 Note on, E4 key=64 velocity: 0
@26910 Channel: 7 Note on, G3 key=55 velocity: 0
@26910 Channel: 7 Note on, C4 key=60 velocity: 0
@26940 Channel: 7 Note on, E4 key=64 velocity: 88
@26940 Channel: 7 Note on, G3 key=55 velocity: 88
@26940 Channel: 7 Note on, C4 key=60 velocity: 88
@26952 Channel: 7 Note on, C4 key=60 velocity: 0
@26952 Channel: 7 Note on, G3 key=55 velocity: 0
@26952 Channel: 7 Note on, E4 key=64 velocity: 0
@26970 Channel: 7 Note on, C4 key=60 velocity: 89
@26970 Channel: 7 Note on, G3 key=55 velocity: 89
@26970 Channel: 7 Note on, E4 key=64 velocity: 89
@27000 Channel: 7 Note on, E4 key=64 velocity: 0
@27000 Channel: 7 Note on, G3 key=55 velocity: 0
@27000 Channel: 7 Note on, C4 key=60 velocity: 0
@27030 Channel: 7 Note on, G3 key=55 velocity: 89
@27030 Channel: 7 Note on, C4 key=60 velocity: 89
@27030 Channel: 7 Note on, E4 key=64 velocity: 89
@27042 Channel: 7 Note on, E4 key=64 velocity: 0
@27042 Channel: 7 Note on, C4 key=60 velocity: 0
@27042 Channel: 7 Note on, G3 key=55 velocity: 0
@27060 Channel: 7 Note on, G3 key=55 velocity: 89
@27060 Channel: 7 Note on, C4 key=60 velocity: 89
@27060 Channel: 7 Note on, E4 key=64 velocity: 89
@27090 Channel: 7 Note on, E4 key=64 velocity: 0
@27090 Channel: 7 Note on, C4 key=60 velocity: 0
@27090 Channel: 7 Note on, G3 key=55 velocity: 0
@27120 Channel: 7 Note on, F4 key=65 velocity: 89
@27120 Channel: 7 Note on, G3 key=55 velocity: 89
@27120 Channel: 7 Note on, C4 key=60 velocity: 89
@27150 Channel: 7 Note on, C4 key=60 velocity: 0
@27150 Channel: 7 Note on, G3 key=55 velocity: 0
@27150 Channel: 7 Note on, F4 key=65 velocity: 0
@27180 Channel: 7 Note on, G3 key=55 velocity: 90
@27180 Channel: 7 Note on, C4 key=60 velocity: 90
@27180 Channel: 7 Note on, F4 key=65 velocity: 90
@27192 Channel: 7 Note on, F4 key=65 velocity: 0
@27192 Channel: 7 Note on, C4 key=60 velocity: 0
@27192 Channel: 7 Note on, G3 key=55 velocity: 0
@27210 Channel: 7 Note on, F4 key=65 velocity: 90
@27210 Channel: 7 Note on, C4 key=60 velocity: 90
@27210 Channel: 7 Note on, G3 key=55 velocity: 90
@27240 Channel: 7 Note on, G3 key=55 velocity: 0
@27240 Channel: 7 Note on, C4 key=60 velocity: 0
@27240 Channel: 7 Note on, F4 key=65 velocity: 0
@27270 Channel: 7 Note on, G3 key=55 velocity: 90
@27270 Channel: 7 Note on, C4 key=60 velocity: 90
@27270 Channel: 7 Note on, F4 key=65 velocity: 90
@27282 Channel: 7 Note on, F4 key=65 velocity: 0
@27282 Channel: 7 Note on, C4 key=60 velocity: 0
@27282 Channel: 7 Note on, G3 key=55 velocity: 0
@27300 Channel: 7 Note on, F4 key=65 velocity: 90
@27300 Channel: 7 Note on, G3 key=55 velocity: 90
@27300 Channel: 7 Note on, C4 key=60 velocity: 90
@27330 Channel: 7 Note on, C4 key=60 velocity: 0
@27330 Channel: 7 Note on, G3 key=55 velocity: 0
@27330 Channel: 7 Note on, F4 key=65 velocity: 0
@27360 Channel: 7 Note on, C4 key=60 velocity: 90
@27360 Channel: 7 Note on, G3 key=55 velocity: 90
@27360 Channel: 7 Note on, E4 key=64 velocity: 90
@27390 Channel: 7 Note on, E4 key=64 velocity: 0
@27390 Channel: 7 Note on, G3 key=55 velocity: 0
@27390 Channel: 7 Note on, C4 key=60 velocity: 0
@27420 Channel: 7 Note on, E4 key=64 velocity: 90
@27420 Channel: 7 Note on, G3 key=55 velocity: 90
@27420 Channel: 7 Note on, C4 key=60 velocity: 90
@27432 Channel: 7 Note on, C4 key=60 velocity: 0
@27432 Channel: 7 Note on, G3 key=55 velocity: 0
@27432 Channel: 7 Note on, E4 key=64 velocity: 0
@27450 Channel: 7 Note on, C4 key=60 velocity: 90
@27450 Channel: 7 Note on, G3 key=55 velocity: 90
@27450 Channel: 7 Note on, E4 key=64 velocity: 90
@27480 Channel: 7 Note on, E4 key=64 velocity: 0
@27480 Channel: 7 Note on, G3 key=55 velocity: 0
@27480 Channel: 7 Note on, C4 key=60 velocity: 0
@27510 Channel: 7 Note on, G3 key=55 velocity: 90
@27510 Channel: 7 Note on, C4 key=60 velocity: 90
@27510 Channel: 7 Note on, E4 key=64 velocity: 90
@27522 Channel: 7 Note on, E4 key=64 velocity: 0
@27522 Channel: 7 Note on, C4 key=60 velocity: 0
@27522 Channel: 7 Note on, G3 key=55 velocity: 0
@27540 Channel: 7 Note on, G3 key=55 velocity: 90
@27540 Channel: 7 Note on, C4 key=60 velocity: 90
@27540 Channel: 7 Note on, E4 key=64 velocity: 90
@27570 Channel: 7 Note on, E4 key=64 velocity: 0
@27570 Channel: 7 Note on, C4 key=60 velocity: 0
@27570 Channel: 7 Note on, G3 key=55 velocity: 0
@27600 Channel: 7 Note on, F4 key=65 velocity: 90
@27600 Channel: 7 Note on, G3 key=55 velocity: 90
@27600 Channel: 7 Note on, C4 key=60 velocity: 90
@27630 Channel: 7 Note on, C4 key=60 velocity: 0
@27630 Channel: 7 Note on, G3 key=55 velocity: 0
@27630 Channel: 7 Note on, F4 key=65 velocity: 0
@27660 Channel: 7 Note on, G3 key=55 velocity: 90
@27660 Channel: 7 Note on, C4 key=60 velocity: 90
@27660 Channel: 7 Note on, F4 key=65 velocity: 90
@27672 Channel: 7 Note on, F4 key=65 velocity: 0
@27672 Channel: 7 Note on, C4 key=60 velocity: 0
@27672 Channel: 7 Note on, G3 key=55 velocity: 0
@27690 Channel: 7 Note on, F4 key=65 velocity: 90
@27690 Channel: 7 Note on, C4 key=60 velocity: 90
@27690 Channel: 7 Note on, G3 key=55 velocity: 90
@27720 Channel: 7 Note on, G3 key=55 velocity: 0
@27720 Channel: 7 Note on, C4 key=60 velocity: 0
@27720 Channel: 7 Note on, F4 key=65 velocity: 0
@27750 Channel: 7 Note on, G3 key=55 velocity: 90
@27750 Channel: 7 Note on, C4 key=60 velocity: 90
@27750 Channel: 7 Note on, F4 key=65 velocity: 90
@27762 Channel: 7 Note on, F4 key=65 velocity: 0
@27762 Channel: 7 Note on, C4 key=60 velocity: 0
@27762 Channel: 7 Note on, G3 key=55 velocity: 0
@27780 Channel: 7 Note on, F4 key=65 velocity: 90
@27780 Channel: 7 Note on, G3 key=55 velocity: 90
@27780 Channel: 7 Note on, C4 key=60 velocity: 90
@27810 Channel: 7 Note on, C4 key=60 velocity: 0
@27810 Channel: 7 Note on, G3 key=55 velocity: 0
@27810 Channel: 7 Note on, F4 key=65 velocity: 0
@27840 Channel: 7 Note on, C4 key=60 velocity: 90
@27840 Channel: 7 Note on, G3 key=55 velocity: 90
@27840 Channel: 7 Note on, E4 key=64 velocity: 90
@27870 Channel: 7 Note on, E4 key=64 velocity: 0
@27870 Channel: 7 Note on, G3 key=55 velocity: 0
@27870 Channel: 7 Note on, C4 key=60 velocity: 0
@27900 Channel: 7 Note on, E4 key=64 velocity: 90
@27900 Channel: 7 Note on, G3 key=55 velocity: 90
@27900 Channel: 7 Note on, C4 key=60 velocity: 90
@27912 Channel: 7 Note on, C4 key=60 velocity: 0
@27912 Channel: 7 Note on, G3 key=55 velocity: 0
@27912 Channel: 7 Note on, E4 key=64 velocity: 0
@27930 Channel: 7 Note on, C4 key=60 velocity: 91
@27930 Channel: 7 Note on, G3 key=55 velocity: 91
@27930 Channel: 7 Note on, E4 key=64 velocity: 91
@27960 Channel: 7 Note on, E4 key=64 velocity: 0
@27960 Channel: 7 Note on, G3 key=55 velocity: 0
@27960 Channel: 7 Note on, C4 key=60 velocity: 0
@27990 Channel: 7 Note on, G3 key=55 velocity: 91
@27990 Channel: 7 Note on, C4 key=60 velocity: 91
@27990 Channel: 7 Note on, E4 key=64 velocity: 91
@28002 Channel: 7 Note on, E4 key=64 velocity: 0
@28002 Channel: 7 Note on, C4 key=60 velocity: 0
@28002 Channel: 7 Note on, G3 key=55 velocity: 0
@28020 Channel: 7 Note on, G3 key=55 velocity: 91
@28020 Channel: 7 Note on, C4 key=60 velocity: 91
@28020 Channel: 7 Note on, E4 key=64 velocity: 91
@28050 Channel: 7 Note on, E4 key=64 velocity: 0
@28050 Channel: 7 Note on, C4 key=60 velocity: 0
@28050 Channel: 7 Note on, G3 key=55 velocity: 0
@28080 Channel: 7 Note on, F4 key=65 velocity: 91
@28080 Channel: 7 Note on, G3 key=55 velocity: 91
@28080 Channel: 7 Note on, C4 key=60 velocity: 91
@28110 Channel: 7 Note on, C4 key=60 velocity: 0
@28110 Channel: 7 Note on, G3 key=55 velocity: 0
@28110 Channel: 7 Note on, F4 key=65 velocity: 0
@28140 Channel: 7 Note on, G3 key=55 velocity: 91
@28140 Channel: 7 Note on, C4 key=60 velocity: 91
@28140 Channel: 7 Note on, F4 key=65 velocity: 91
@28152 Channel: 7 Note on, F4 key=65 velocity: 0
@28152 Channel: 7 Note on, C4 key=60 velocity: 0
@28152 Channel: 7 Note on, G3 key=55 velocity: 0
@28170 Channel: 7 Note on, F4 key=65 velocity: 91
@28170 Channel: 7 Note on, C4 key=60 velocity: 91
@28170 Channel: 7 Note on, G3 key=55 velocity: 91
@28200 Channel: 7 Note on, G3 key=55 velocity: 0
@28200 Channel: 7 Note on, C4 key=60 velocity: 0
@28200 Channel: 7 Note on, F4 key=65 velocity: 0
@28230 Channel: 7 Note on, G3 key=55 velocity: 91
@28230 Channel: 7 Note on, C4 key=60 velocity: 91
@28230 Channel: 7 Note on, F4 key=65 velocity: 91
@28242 Channel: 7 Note on, F4 key=65 velocity: 0
@28242 Channel: 7 Note on, C4 key=60 velocity: 0
@28242 Channel: 7 Note on, G3 key=55 velocity: 0
@28260 Channel: 7 Note on, F4 key=65 velocity: 91
@28260 Channel: 7 Note on, G3 key=55 velocity: 91
@28260 Channel: 7 Note on, C4 key=60 velocity: 91
@28290 Channel: 7 Note on, C4 key=60 velocity: 0
@28290 Channel: 7 Note on, G3 key=55 velocity: 0
@28290 Channel: 7 Note on, F4 key=65 velocity: 0
@28320 Channel: 7 Note on, C4 key=60 velocity: 90
@28320 Channel: 7 Note on, G3 key=55 velocity: 90
@28320 Channel: 7 Note on, E4 key=64 velocity: 90
@28350 Channel: 7 Note on, E4 key=64 velocity: 0
@28350 Channel: 7 Note on, G3 key=55 velocity: 0
@28350 Channel: 7 Note on, C4 key=60 velocity: 0
@28380 Channel: 7 Note on, E4 key=64 velocity: 90
@28380 Channel: 7 Note on, G3 key=55 velocity: 90
@28380 Channel: 7 Note on, C4 key=60 velocity: 90
@28392 Channel: 7 Note on, C4 key=60 velocity: 0
@28392 Channel: 7 Note on, G3 key=55 velocity: 0
@28392 Channel: 7 Note on, E4 key=64 velocity: 0
@28410 Channel: 7 Note on, C4 key=60 velocity: 91
@28410 Channel: 7 Note on, G3 key=55 velocity: 91
@28410 Channel: 7 Note on, E4 key=64 velocity: 91
@28440 Channel: 7 Note on, E4 key=64 velocity: 0
@28440 Channel: 7 Note on, G3 key=55 velocity: 0
@28440 Channel: 7 Note on, C4 key=60 velocity: 0
@28470 Channel: 7 Note on, G3 key=55 velocity: 91
@28470 Channel: 7 Note on, C4 key=60 velocity: 91
@28470 Channel: 7 Note on, E4 key=64 velocity: 91
@28482 Channel: 7 Note on, E4 key=64 velocity: 0
@28482 Channel: 7 Note on, C4 key=60 velocity: 0
@28482 Channel: 7 Note on, G3 key=55 velocity: 0
@28500 Channel: 7 Note on, G3 key=55 velocity: 91
@28500 Channel: 7 Note on, C4 key=60 velocity: 91
@28500 Channel: 7 Note on, E4 key=64 velocity: 91
@28530 Channel: 7 Note on, E4 key=64 velocity: 0
@28530 Channel: 7 Note on, C4 key=60 velocity: 0
@28530 Channel: 7 Note on, G3 key=55 velocity: 0
@28560 Channel: 7 Note on, F4 key=65 velocity: 91
@28560 Channel: 7 Note on, G3 key=55 velocity: 91
@28560 Channel: 7 Note on, C4 key=60 velocity: 91
@28590 Channel: 7 Note on, C4 key=60 velocity: 0
@28590 Channel: 7 Note on, G3 key=55 velocity: 0
@28590 Channel: 7 Note on, F4 key=65 velocity: 0
@28620 Channel: 7 Note on, G3 key=55 velocity: 91
@28620 Channel: 7 Note on, C4 key=60 velocity: 91
@28620 Channel: 7 Note on, F4 key=65 velocity: 91
@28632 Channel: 7 Note on, F4 key=65 velocity: 0
@28632 Channel: 7 Note on, C4 key=60 velocity: 0
@28632 Channel: 7 Note on, G3 key=55 velocity: 0
@28650 Channel: 7 Note on, F4 key=65 velocity: 91
@28650 Channel: 7 Note on, C4 key=60 velocity: 91
@28650 Channel: 7 Note on, G3 key=55 velocity: 91
@28680 Channel: 7 Note on, G3 key=55 velocity: 0
@28680 Channel: 7 Note on, C4 key=60 velocity: 0
@28680 Channel: 7 Note on, F4 key=65 velocity: 0
@28710 Channel: 7 Note on, G3 key=55 velocity: 91
@28710 Channel: 7 Note on, C4 key=60 velocity: 91
@28710 Channel: 7 Note on, F4 key=65 velocity: 91
@28722 Channel: 7 Note on, F4 key=65 velocity: 0
@28722 Channel: 7 Note on, C4 key=60 velocity: 0
@28722 Channel: 7 Note on, G3 key=55 velocity: 0
@28740 Channel: 7 Note on, F4 key=65 velocity: 91
@28740 Channel: 7 Note on, G3 key=55 velocity: 91
@28740 Channel: 7 Note on, C4 key=60 velocity: 91
@28770 Channel: 7 Note on, C4 key=60 velocity: 0
@28770 Channel: 7 Note on, G3 key=55 velocity: 0
@28770 Channel: 7 Note on, F4 key=65 velocity: 0
@30720 Channel: 7 Note on, C4 key=60 velocity: 89
@30720 Channel: 7 Note on, G3 key=55 velocity: 89
@30720 Channel: 7 Note on, E4 key=64 velocity: 89
@30750 Channel: 7 Note on, E4 key=64 velocity: 0
@30750 Channel: 7 Note on, G3 key=55 velocity: 0
@30750 Channel: 7 Note on, C4 key=60 velocity: 0
@30780 Channel: 7 Note on, E4 key=64 velocity: 90
@30780 Channel: 7 Note on, G3 key=55 velocity: 90
@30780 Channel: 7 Note on, C4 key=60 velocity: 90
@30792 Channel: 7 Note on, C4 key=60 velocity: 0
@30792 Channel: 7 Note on, G3 key=55 velocity: 0
@30792 Channel: 7 Note on, E4 key=64 velocity: 0
@30810 Channel: 7 Note on, C4 key=60 velocity: 90
@30810 Channel: 7 Note on, G3 key=55 velocity: 90
@30810 Channel: 7 Note on, E4 key=64 velocity: 90
@30840 Channel: 7 Note on, E4 key=64 velocity: 0
@30840 Channel: 7 Note on, G3 key=55 velocity: 0
@30840 Channel: 7 Note on, C4 key=60 velocity: 0
@30870 Channel: 7 Note on, G3 key=55 velocity: 90
@30870 Channel: 7 Note on, C4 key=60 velocity: 90
@30870 Channel: 7 Note on, E4 key=64 velocity: 90
@30882 Channel: 7 Note on, E4 key=64 velocity: 0
@30882 Channel: 7 Note on, C4 key=60 velocity: 0
@30882 Channel: 7 Note on, G3 key=55 velocity: 0
@30900 Channel: 7 Note on, G3 key=55 velocity: 90
@30900 Channel: 7 Note on, C4 key=60 velocity: 90
@30900 Channel: 7 Note on, E4 key=64 velocity: 90
@30930 Channel: 7 Note on, E4 key=64 velocity: 0
@30930 Channel: 7 Note on, C4 key=60 velocity: 0
@30930 Channel: 7 Note on, G3 key=55 velocity: 0
@30960 Channel: 7 Note on, F4 key=65 velocity: 90
@30960 Channel: 7 Note on, G3 key=55 velocity: 90
@30960 Channel: 7 Note on, C4 key=60 velocity: 90
@30990 Channel: 7 Note on, C4 key=60 velocity: 0
@30990 Channel: 7 Note on, G3 key=55 velocity: 0
@30990 Channel: 7 Note on, F4 key=65 velocity: 0
@31020 Channel: 7 Note on, G3 key=55 velocity: 90
@31020 Channel: 7 Note on, C4 key=60 velocity: 90
@31020 Channel: 7 Note on, F4 key=65 velocity: 90
@31032 Channel: 7 Note on, F4 key=65 velocity: 0
@31032 Channel: 7 Note on, C4 key=60 velocity: 0
@31032 Channel: 7 Note on, G3 key=55 velocity: 0
@31050 Channel: 7 Note on, F4 key=65 velocity: 90
@31050 Channel: 7 Note on, C4 key=60 velocity: 90
@31050 Channel: 7 Note on, G3 key=55 velocity: 90
@31080 Channel: 7 Note on, G3 key=55 velocity: 0
@31080 Channel: 7 Note on, C4 key=60 velocity: 0
@31080 Channel: 7 Note on, F4 key=65 velocity: 0
@31110 Channel: 7 Note on, G3 key=55 velocity: 90
@31110 Channel: 7 Note on, C4 key=60 velocity: 90
@31110 Channel: 7 Note on, F4 key=65 velocity: 90
@31122 Channel: 7 Note on, F4 key=65 velocity: 0
@31122 Channel: 7 Note on, C4 key=60 velocity: 0
@31122 Channel: 7 Note on, G3 key=55 velocity: 0
@31140 Channel: 7 Note on, F4 key=65 velocity: 90
@31140 Channel: 7 Note on, G3 key=55 velocity: 90
@31140 Channel: 7 Note on, C4 key=60 velocity: 90
@31170 Channel: 7 Note on, C4 key=60 velocity: 0
@31170 Channel: 7 Note on, G3 key=55 velocity: 0
@31170 Channel: 7 Note on, F4 key=65 velocity: 0
@31200 Channel: 7 Note on, C4 key=60 velocity: 90
@31200 Channel: 7 Note on, G3 key=55 velocity: 90
@31200 Channel: 7 Note on, E4 key=64 velocity: 90
@31230 Channel: 7 Note on, E4 key=64 velocity: 0
@31230 Channel: 7 Note on, G3 key=55 velocity: 0
@31230 Channel: 7 Note on, C4 key=60 velocity: 0
@31260 Channel: 7 Note on, E4 key=64 velocity: 90
@31260 Channel: 7 Note on, G3 key=55 velocity: 90
@31260 Channel: 7 Note on, C4 key=60 velocity: 90
@31272 Channel: 7 Note on, C4 key=60 velocity: 0
@31272 Channel: 7 Note on, G3 key=55 velocity: 0
@31272 Channel: 7 Note on, E4 key=64 velocity: 0
@31290 Channel: 7 Note on, C4 key=60 velocity: 91
@31290 Channel: 7 Note on, G3 key=55 velocity: 91
@31290 Channel: 7 Note on, E4 key=64 velocity: 91
@31320 Channel: 7 Note on, E4 key=64 velocity: 0
@31320 Channel: 7 Note on, G3 key=55 velocity: 0
@31320 Channel: 7 Note on, C4 key=60 velocity: 0
@31350 Channel: 7 Note on, G3 key=55 velocity: 91
@31350 Channel: 7 Note on, C4 key=60 velocity: 91
@31350 Channel: 7 Note on, E4 key=64 velocity: 91
@31362 Channel: 7 Note on, E4 key=64 velocity: 0
@31362 Channel: 7 Note on, C4 key=60 velocity: 0
@31362 Channel: 7 Note on, G3 key=55 velocity: 0
@31380 Channel: 7 Note on, G3 key=55 velocity: 91
@31380 Channel: 7 Note on, C4 key=60 velocity: 91
@31380 Channel: 7 Note on, E4 key=64 velocity: 91
@31410 Channel: 7 Note on, E4 key=64 velocity: 0
@31410 Channel: 7 Note on, C4 key=60 velocity: 0
@31410 Channel: 7 Note on, G3 key=55 velocity: 0
@31440 Channel: 7 Note on, F4 key=65 velocity: 91
@31440 Channel: 7 Note on, G3 key=55 velocity: 91
@31440 Channel: 7 Note on, C4 key=60 velocity: 91
@31470 Channel: 7 Note on, C4 key=60 velocity: 0
@31470 Channel: 7 Note on, G3 key=55 velocity: 0
@31470 Channel: 7 Note on, F4 key=65 velocity: 0
@31500 Channel: 7 Note on, G3 key=55 velocity: 91
@31500 Channel: 7 Note on, C4 key=60 velocity: 91
@31500 Channel: 7 Note on, F4 key=65 velocity: 91
@31512 Channel: 7 Note on, F4 key=65 velocity: 0
@31512 Channel: 7 Note on, C4 key=60 velocity: 0
@31512 Channel: 7 Note on, G3 key=55 velocity: 0
@31530 Channel: 7 Note on, F4 key=65 velocity: 91
@31530 Channel: 7 Note on, C4 key=60 velocity: 91
@31530 Channel: 7 Note on, G3 key=55 velocity: 91
@31560 Channel: 7 Note on, G3 key=55 velocity: 0
@31560 Channel: 7 Note on, C4 key=60 velocity: 0
@31560 Channel: 7 Note on, F4 key=65 velocity: 0
@31590 Channel: 7 Note on, G3 key=55 velocity: 92
@31590 Channel: 7 Note on, C4 key=60 velocity: 92
@31590 Channel: 7 Note on, F4 key=65 velocity: 92
@31602 Channel: 7 Note on, F4 key=65 velocity: 0
@31602 Channel: 7 Note on, C4 key=60 velocity: 0
@31602 Channel: 7 Note on, G3 key=55 velocity: 0
@31620 Channel: 7 Note on, F4 key=65 velocity: 92
@31620 Channel: 7 Note on, G3 key=55 velocity: 92
@31620 Channel: 7 Note on, C4 key=60 velocity: 92
@31650 Channel: 7 Note on, C4 key=60 velocity: 0
@31650 Channel: 7 Note on, G3 key=55 velocity: 0
@31650 Channel: 7 Note on, F4 key=65 velocity: 0
@31680 Channel: 7 Note on, B3 key=59 velocity: 92
@31680 Channel: 7 Note on, D4 key=62 velocity: 92
@31680 Channel: 7 Note on, G3 key=55 velocity: 92
@31710 Channel: 7 Note on, G3 key=55 velocity: 0
@31710 Channel: 7 Note on, D4 key=62 velocity: 0
@31710 Channel: 7 Note on, B3 key=59 velocity: 0
@31740 Channel: 7 Note on, G3 key=55 velocity: 92
@31740 Channel: 7 Note on, D4 key=62 velocity: 92
@31740 Channel: 7 Note on, B3 key=59 velocity: 92
@31752 Channel: 7 Note on, B3 key=59 velocity: 0
@31752 Channel: 7 Note on, D4 key=62 velocity: 0
@31752 Channel: 7 Note on, G3 key=55 velocity: 0
@31770 Channel: 7 Note on, D4 key=62 velocity: 93
@31770 Channel: 7 Note on, G3 key=55 velocity: 93
@31770 Channel: 7 Note on, B3 key=59 velocity: 93
@31800 Channel: 7 Note on, B3 key=59 velocity: 0
@31800 Channel: 7 Note on, G3 key=55 velocity: 0
@31800 Channel: 7 Note on, D4 key=62 velocity: 0
@31830 Channel: 7 Note on, D4 key=62 velocity: 93
@31830 Channel: 7 Note on, G3 key=55 velocity: 93
@31830 Channel: 7 Note on, B3 key=59 velocity: 93
@31842 Channel: 7 Note on, B3 key=59 velocity: 0
@31842 Channel: 7 Note on, G3 key=55 velocity: 0
@31842 Channel: 7 Note on, D4 key=62 velocity: 0
@31860 Channel: 7 Note on, D4 key=62 velocity: 93
@31860 Channel: 7 Note on, B3 key=59 velocity: 93
@31860 Channel: 7 Note on, G3 key=55 velocity: 93
@31890 Channel: 7 Note on, G3 key=55 velocity: 0
@31890 Channel: 7 Note on, B3 key=59 velocity: 0
@31890 Channel: 7 Note on, D4 key=62 velocity: 0
@31920 Channel: 7 Note on, D4 key=62 velocity: 93
@31920 Channel: 7 Note on, G3 key=55 velocity: 93
@31920 Channel: 7 Note on, C4 key=60 velocity: 93
@31950 Channel: 7 Note on, C4 key=60 velocity: 0
@31950 Channel: 7 Note on, G3 key=55 velocity: 0
@31950 Channel: 7 Note on, D4 key=62 velocity: 0
@31980 Channel: 7 Note on, D4 key=62 velocity: 93
@31980 Channel: 7 Note on, G3 key=55 velocity: 93
@31980 Channel: 7 Note on, C4 key=60 velocity: 93
@31992 Channel: 7 Note on, C4 key=60 velocity: 0
@31992 Channel: 7 Note on, G3 key=55 velocity: 0
@31992 Channel: 7 Note on, D4 key=62 velocity: 0
@32010 Channel: 7 Note on, G3 key=55 velocity: 93
@32010 Channel: 7 Note on, C4 key=60 velocity: 93
@32010 Channel: 7 Note on, D4 key=62 velocity: 93
@32040 Channel: 7 Note on, D4 key=62 velocity: 0
@32040 Channel: 7 Note on, C4 key=60 velocity: 0
@32040 Channel: 7 Note on, G3 key=55 velocity: 0
@32070 Channel: 7 Note on, D4 key=62 velocity: 93
@32070 Channel: 7 Note on, G3 key=55 velocity: 93
@32070 Channel: 7 Note on, C4 key=60 velocity: 93
@32082 Channel: 7 Note on, C4 key=60 velocity: 0
@32082 Channel: 7 Note on, G3 key=55 velocity: 0
@32082 Channel: 7 Note on, D4 key=62 velocity: 0
@32100 Channel: 7 Note on, C4 key=60 velocity: 93
@32100 Channel: 7 Note on, D4 key=62 velocity: 93
@32100 Channel: 7 Note on, G3 key=55 velocity: 93
@32130 Channel: 7 Note on, G3 key=55 velocity: 0
@32130 Channel: 7 Note on, D4 key=62 velocity: 0
@32130 Channel: 7 Note on, C4 key=60 velocity: 0
@32160 Channel: 7 Note on, B3 key=59 velocity: 92
@32160 Channel: 7 Note on, D4 key=62 velocity: 92
@32160 Channel: 7 Note on, G3 key=55 velocity: 92
@32190 Channel: 7 Note on, G3 key=55 velocity: 0
@32190 Channel: 7 Note on, D4 key=62 velocity: 0
@32190 Channel: 7 Note on, B3 key=59 velocity: 0
@32220 Channel: 7 Note on, D4 key=62 velocity: 92
@32220 Channel: 7 Note on, G3 key=55 velocity: 92
@32220 Channel: 7 Note on, B3 key=59 velocity: 92
@32232 Channel: 7 Note on, B3 key=59 velocity: 0
@32232 Channel: 7 Note on, G3 key=55 velocity: 0
@32232 Channel: 7 Note on, D4 key=62 velocity: 0
@32250 Channel: 7 Note on, D4 key=62 velocity: 92
@32250 Channel: 7 Note on, G3 key=55 velocity: 92
@32250 Channel: 7 Note on, B3 key=59 velocity: 92
@32280 Channel: 7 Note on, B3 key=59 velocity: 0
@32280 Channel: 7 Note on, G3 key=55 velocity: 0
@32280 Channel: 7 Note on, D4 key=62 velocity: 0
@32310 Channel: 7 Note on, G3 key=55 velocity: 91
@32310 Channel: 7 Note on, D4 key=62 velocity: 91
@32310 Channel: 7 Note on, B3 key=59 velocity: 91
@32322 Channel: 7 Note on, B3 key=59 velocity: 0
@32322 Channel: 7 Note on, D4 key=62 velocity: 0
@32322 Channel: 7 Note on, G3 key=55 velocity: 0
@32340 Channel: 7 Note on, B3 key=59 velocity: 91
@32340 Channel: 7 Note on, D4 key=62 velocity: 91
@32340 Channel: 7 Note on, G3 key=55 velocity: 91
@32370 Channel: 7 Note on, G3 key=55 velocity: 0
@32370 Channel: 7 Note on, D4 key=62 velocity: 0
@32370 Channel: 7 Note on, B3 key=59 velocity: 0
@32400 Channel: 7 Note on, C4 key=60 velocity: 91
@32400 Channel: 7 Note on, G3 key=55 velocity: 91
@32400 Channel: 7 Note on, D4 key=62 velocity: 91
@32430 Channel: 7 Note on, D4 key=62 velocity: 0
@32430 Channel: 7 Note on, G3 key=55 velocity: 0
@32430 Channel: 7 Note on, C4 key=60 velocity: 0
@32460 Channel: 7 Note on, C4 key=60 velocity: 91
@32460 Channel: 7 Note on, D4 key=62 velocity: 91
@32460 Channel: 7 Note on, G3 key=55 velocity: 91
@32472 Channel: 7 Note on, G3 key=55 velocity: 0
@32472 Channel: 7 Note on, D4 key=62 velocity: 0
@32472 Channel: 7 Note on, C4 key=60 velocity: 0
@32490 Channel: 7 Note on, G3 key=55 velocity: 91
@32490 Channel: 7 Note on, D4 key=62 velocity: 91
@32490 Channel: 7 Note on, C4 key=60 velocity: 91
@32520 Channel: 7 Note on, C4 key=60 velocity: 0
@32520 Channel: 7 Note on, D4 key=62 velocity: 0
@32520 Channel: 7 Note on, G3 key=55 velocity: 0
@32550 Channel: 7 Note on, G3 key=55 velocity: 90
@32550 Channel: 7 Note on, D4 key=62 velocity: 90
@32550 Channel: 7 Note on, C4 key=60 velocity: 90
@32562 Channel: 7 Note on, C4 key=60 velocity: 0
@32562 Channel: 7 Note on, D4 key=62 velocity: 0
@32562 Channel: 7 Note on, G3 key=55 velocity: 0
@32580 Channel: 7 Note on, D4 key=62 velocity: 90
@32580 Channel: 7 Note on, C4 key=60 velocity: 90
@32580 Channel: 7 Note on, G3 key=55 velocity: 90
@32610 Channel: 7 Note on, G3 key=55 velocity: 0
@32610 Channel: 7 Note on, C4 key=60 velocity: 0
@32610 Channel: 7 Note on, D4 key=62 velocity: 0
@32640 Channel: 7 Note on, C4 key=60 velocity: 90
@32640 Channel: 7 Note on, A3 key=57 velocity: 90
@32640 Channel: 7 Note on, F4 key=65 velocity: 90
@32670 Channel: 7 Note on, F4 key=65 velocity: 0
@32670 Channel: 7 Note on, A3 key=57 velocity: 0
@32670 Channel: 7 Note on, C4 key=60 velocity: 0
@32700 Channel: 7 Note on, C4 key=60 velocity: 90
@32700 Channel: 7 Note on, F4 key=65 velocity: 90
@32700 Channel: 7 Note on, A3 key=57 velocity: 90
@32712 Channel: 7 Note on, A3 key=57 velocity: 0
@32712 Channel: 7 Note on, F4 key=65 velocity: 0
@32712 Channel: 7 Note on, C4 key=60 velocity: 0
@32730 Channel: 7 Note on, F4 key=65 velocity: 90
@32730 Channel: 7 Note on, A3 key=57 velocity: 90
@32730 Channel: 7 Note on, C4 key=60 velocity: 90
@32760 Channel: 7 Note on, C4 key=60 velocity: 0
@32760 Channel: 7 Note on, A3 key=57 velocity: 0
@32760 Channel: 7 Note on, F4 key=65 velocity: 0
@32790 Channel: 7 Note on, F4 key=65 velocity: 90
@32790 Channel: 7 Note on, C4 key=60 velocity: 90
@32790 Channel: 7 Note on, A3 key=57 velocity: 90
@32802 Channel: 7 Note on, A3 key=57 velocity: 0
@32802 Channel: 7 Note on, C4 key=60 velocity: 0
@32802 Channel: 7 Note on, F4 key=65 velocity: 0
@32820 Channel: 7 Note on, C4 key=60 velocity: 90
@32820 Channel: 7 Note on, A3 key=57 velocity: 90
@32820 Channel: 7 Note on, F4 key=65 velocity: 90
@32850 Channel: 7 Note on, F4 key=65 velocity: 0
@32850 Channel: 7 Note on, A3 key=57 velocity: 0
@32850 Channel: 7 Note on, C4 key=60 velocity: 0
@32880 Channel: 7 Note on, G3 key=55 velocity: 90
@32880 Channel: 7 Note on, C4 key=60 velocity: 90
@32880 Channel: 7 Note on, F4 key=65 velocity: 90
@32910 Channel: 7 Note on, F4 key=65 velocity: 0
@32910 Channel: 7 Note on, C4 key=60 velocity: 0
@32910 Channel: 7 Note on, G3 key=55 velocity: 0
@32940 Channel: 7 Note on, G3 key=55 velocity: 90
@32940 Channel: 7 Note on, C4 key=60 velocity: 90
@32940 Channel: 7 Note on, F4 key=65 velocity: 90
@32952 Channel: 7 Note on, F4 key=65 velocity: 0
@32952 Channel: 7 Note on, C4 key=60 velocity: 0
@32952 Channel: 7 Note on, G3 key=55 velocity: 0
@32970 Channel: 7 Note on, G3 key=55 velocity: 90
@32970 Channel: 7 Note on, C4 key=60 velocity: 90
@32970 Channel: 7 Note on, F4 key=65 velocity: 90
@33000 Channel: 7 Note on, F4 key=65 velocity: 0
@33000 Channel: 7 Note on, C4 key=60 velocity: 0
@33000 Channel: 7 Note on, G3 key=55 velocity: 0
@33030 Channel: 7 Note on, G3 key=55 velocity: 90
@33030 Channel: 7 Note on, F4 key=65 velocity: 90
@33030 Channel: 7 Note on, C4 key=60 velocity: 90
@33042 Channel: 7 Note on, C4 key=60 velocity: 0
@33042 Channel: 7 Note on, F4 key=65 velocity: 0
@33042 Channel: 7 Note on, G3 key=55 velocity: 0
@33060 Channel: 7 Note on, G3 key=55 velocity: 90
@33060 Channel: 7 Note on, C4 key=60 velocity: 90
@33060 Channel: 7 Note on, F4 key=65 velocity: 90
@33090 Channel: 7 Note on, F4 key=65 velocity: 0
@33090 Channel: 7 Note on, C4 key=60 velocity: 0
@33090 Channel: 7 Note on, G3 key=55 velocity: 0
@33120 Channel: 7 Note on, A3 key=57 velocity: 90
@33120 Channel: 7 Note on, C4 key=60 velocity: 90
@33120 Channel: 7 Note on, E4 key=64 velocity: 90
@33141 Channel: 7 Note on, E4 key=64 velocity: 0
@33143 Channel: 7 Note on, C4 key=60 velocity: 0
@33143 Channel: 7 Note on, A3 key=57 velocity: 0
@33180 Channel: 7 Note on, C4 key=60 velocity: 90
@33180 Channel: 7 Note on, A3 key=57 velocity: 90
@33180 Channel: 7 Note on, E4 key=64 velocity: 90
@33189 Channel: 7 Note on, E4 key=64 velocity: 0
@33189 Channel: 7 Note on, C4 key=60 velocity: 0
@33192 Channel: 7 Note on, A3 key=57 velocity: 0
@33210 Channel: 7 Note on, C4 key=60 velocity: 90
@33210 Channel: 7 Note on, A3 key=57 velocity: 90
@33210 Channel: 7 Note on, E4 key=64 velocity: 90
@33231 Channel: 7 Note on, E4 key=64 velocity: 0
@33233 Channel: 7 Note on, A3 key=57 velocity: 0
@33233 Channel: 7 Note on, C4 key=60 velocity: 0
@33270 Channel: 7 Note on, C4 key=60 velocity: 90
@33270 Channel: 7 Note on, A3 key=57 velocity: 90
@33270 Channel: 7 Note on, E4 key=64 velocity: 90
@33279 Channel: 7 Note on, E4 key=64 velocity: 0
@33279 Channel: 7 Note on, C4 key=60 velocity: 0
@33282 Channel: 7 Note on, A3 key=57 velocity: 0
@33300 Channel: 7 Note on, A3 key=57 velocity: 90
@33300 Channel: 7 Note on, C4 key=60 velocity: 90
@33300 Channel: 7 Note on, E4 key=64 velocity: 90
@33321 Channel: 7 Note on, E4 key=64 velocity: 0
@33321 Channel: 7 Note on, C4 key=60 velocity: 0
@33323 Channel: 7 Note on, A3 key=57 velocity: 0
@33360 Channel: 7 Note on, A3 key=57 velocity: 90
@33360 Channel: 7 Note on, E4 key=64 velocity: 90
@33360 Channel: 7 Note on, B3 key=59 velocity: 90
@33383 Channel: 7 Note on, E4 key=64 velocity: 0
@33386 Channel: 7 Note on, B3 key=59 velocity: 0
@33386 Channel: 7 Note on, A3 key=57 velocity: 0
@33420 Channel: 7 Note on, B3 key=59 velocity: 90
@33420 Channel: 7 Note on, A3 key=57 velocity: 90
@33420 Channel: 7 Note on, E4 key=64 velocity: 90
@33428 Channel: 7 Note on, E4 key=64 velocity: 0
@33432 Channel: 7 Note on, A3 key=57 velocity: 0
@33432 Channel: 7 Note on, B3 key=59 velocity: 0
@33450 Channel: 7 Note on, B3 key=59 velocity: 90
@33450 Channel: 7 Note on, A3 key=57 velocity: 90
@33450 Channel: 7 Note on, E4 key=64 velocity: 90
@33468 Channel: 7 Note on, E4 key=64 velocity: 0
@33471 Channel: 7 Note on, A3 key=57 velocity: 0
@33471 Channel: 7 Note on, B3 key=59 velocity: 0
@33510 Channel: 7 Note on, B3 key=59 velocity: 91
@33510 Channel: 7 Note on, A3 key=57 velocity: 91
@33519 Channel: 7 Note on, B3 key=59 velocity: 0
@33522 Channel: 7 Note on, A3 key=57 velocity: 0
@33540 Channel: 7 Note on, A3 key=57 velocity: 91
@33540 Channel: 7 Note on, E4 key=64 velocity: 91
@33540 Channel: 7 Note on, C4 key=60 velocity: 91
@33561 Channel: 7 Note on, C4 key=60 velocity: 0
@33561 Channel: 7 Note on, E4 key=64 velocity: 0
@33563 Channel: 7 Note on, A3 key=57 velocity: 0
@33600 Channel: 7 Note on, C4 key=60 velocity: 91
@33600 Channel: 7 Note on, D4 key=62 velocity: 91
@33600 Channel: 7 Note on, G3 key=55 velocity: 91
@33621 Channel: 7 Note on, G3 key=55 velocity: 0
@33621 Channel: 7 Note on, D4 key=62 velocity: 0
@33623 Channel: 7 Note on, C4 key=60 velocity: 0
@33660 Channel: 7 Note on, C4 key=60 velocity: 92
@33660 Channel: 7 Note on, G3 key=55 velocity: 92
@33660 Channel: 7 Note on, D4 key=62 velocity: 92
@33669 Channel: 7 Note on, D4 key=62 velocity: 0
@33669 Channel: 7 Note on, C4 key=60 velocity: 0
@33672 Channel: 7 Note on, G3 key=55 velocity: 0
@33690 Channel: 7 Note on, G3 key=55 velocity: 92
@33690 Channel: 7 Note on, C4 key=60 velocity: 92
@33690 Channel: 7 Note on, D4 key=62 velocity: 92
@33711 Channel: 7 Note on, D4 key=62 velocity: 0
@33711 Channel: 7 Note on, C4 key=60 velocity: 0
@33711 Channel: 7 Note on, G3 key=55 velocity: 0
@33750 Channel: 7 Note on, C4 key=60 velocity: 92
@33750 Channel: 7 Note on, G3 key=55 velocity: 92
@33750 Channel: 7 Note on, D4 key=62 velocity: 92
@33759 Channel: 7 Note on, C4 key=60 velocity: 0
@33762 Channel: 7 Note on, G3 key=55 velocity: 0
@33764 Channel: 7 Note on, D4 key=62 velocity: 0
@33780 Channel: 7 Note on, C4 key=60 velocity: 92
@33780 Channel: 7 Note on, D4 key=62 velocity: 92
@33780 Channel: 7 Note on, G3 key=55 velocity: 92
@33801 Channel: 7 Note on, G3 key=55 velocity: 0
@33801 Channel: 7 Note on, C4 key=60 velocity: 0
@33803 Channel: 7 Note on, D4 key=62 velocity: 0
@33840 Channel: 7 Note on, D4 key=62 velocity: 91
@33840 Channel: 7 Note on, B3 key=59 velocity: 91
@33840 Channel: 7 Note on, G3 key=55 velocity: 91
@33861 Channel: 7 Note on, B3 key=59 velocity: 0
@33863 Channel: 7 Note on, G3 key=55 velocity: 0
@33863 Channel: 7 Note on, D4 key=62 velocity: 0
@33900 Channel: 7 Note on, D4 key=62 velocity: 91
@33900 Channel: 7 Note on, B3 key=59 velocity: 91
@33900 Channel: 7 Note on, G3 key=55 velocity: 91
@33909 Channel: 7 Note on, B3 key=59 velocity: 0
@33912 Channel: 7 Note on, G3 key=55 velocity: 0
@33912 Channel: 7 Note on, D4 key=62 velocity: 0
@33930 Channel: 7 Note on, D4 key=62 velocity: 91
@33930 Channel: 7 Note on, G3 key=55 velocity: 91
@33930 Channel: 7 Note on, B3 key=59 velocity: 91
@33948 Channel: 7 Note on, B3 key=59 velocity: 0
@33951 Channel: 7 Note on, D4 key=62 velocity: 0
@33953 Channel: 7 Note on, G3 key=55 velocity: 0
@33990 Channel: 7 Note on, B3 key=59 velocity: 90
@33990 Channel: 7 Note on, D4 key=62 velocity: 90
@33990 Channel: 7 Note on, G3 key=55 velocity: 90
@33999 Channel: 7 Note on, G3 key=55 velocity: 0
@33999 Channel: 7 Note on, D4 key=62 velocity: 0
@33999 Channel: 7 Note on, B3 key=59 velocity: 0
@34020 Channel: 7 Note on, B3 key=59 velocity: 90
@34020 Channel: 7 Note on, D4 key=62 velocity: 90
@34020 Channel: 7 Note on, G3 key=55 velocity: 90
@34037 Channel: 7 Note on, G3 key=55 velocity: 0
@34037 Channel: 7 Note on, D4 key=62 velocity: 0
@34037 Channel: 7 Note on, B3 key=59 velocity: 0
@34080 Channel: 7 Note on, G3 key=55 velocity: 90
@34080 Channel: 7 Note on, B3 key=59 velocity: 90
@34080 Channel: 7 Note on, F4 key=65 velocity: 90
@34101 Channel: 7 Note on, F4 key=65 velocity: 0
@34101 Channel: 7 Note on, B3 key=59 velocity: 0
@34103 Channel: 7 Note on, G3 key=55 velocity: 0
@34140 Channel: 7 Note on, B3 key=59 velocity: 90
@34140 Channel: 7 Note on, F4 key=65 velocity: 90
@34140 Channel: 7 Note on, G3 key=55 velocity: 90
@34149 Channel: 7 Note on, B3 key=59 velocity: 0
@34152 Channel: 7 Note on, G3 key=55 velocity: 0
@34152 Channel: 7 Note on, F4 key=65 velocity: 0
@34170 Channel: 7 Note on, F4 key=65 velocity: 90
@34170 Channel: 7 Note on, G3 key=55 velocity: 90
@34170 Channel: 7 Note on, B3 key=59 velocity: 90
@34188 Channel: 7 Note on, B3 key=59 velocity: 0
@34191 Channel: 7 Note on, G3 key=55 velocity: 0
@34191 Channel: 7 Note on, F4 key=65 velocity: 0
@34230 Channel: 7 Note on, F4 key=65 velocity: 90
@34230 Channel: 7 Note on, G3 key=55 velocity: 90
@34230 Channel: 7 Note on, B3 key=59 velocity: 90
@34239 Channel: 7 Note on, B3 key=59 velocity: 0
@34242 Channel: 7 Note on, G3 key=55 velocity: 0
@34260 Channel: 7 Note on, G3 key=55 velocity: 90
@34260 Channel: 7 Note on, B3 key=59 velocity: 90
@34269 Channel: 7 Note on, F4 key=65 velocity: 0
@34281 Channel: 7 Note on, B3 key=59 velocity: 0
@34283 Channel: 7 Note on, G3 key=55 velocity: 0
@34320 Channel: 7 Note on, D4 key=62 velocity: 90
@34320 Channel: 7 Note on, G3 key=55 velocity: 90
@34320 Channel: 7 Note on, B3 key=59 velocity: 90
@34341 Channel: 7 Note on, B3 key=59 velocity: 0
@34343 Channel: 7 Note on, G3 key=55 velocity: 0
@34343 Channel: 7 Note on, D4 key=62 velocity: 0
@34380 Channel: 7 Note on, G3 key=55 velocity: 90
@34380 Channel: 7 Note on, B3 key=59 velocity: 90
@34380 Channel: 7 Note on, D4 key=62 velocity: 90
@34389 Channel: 7 Note on, D4 key=62 velocity: 0
@34389 Channel: 7 Note on, B3 key=59 velocity: 0
@34392 Channel: 7 Note on, G3 key=55 velocity: 0
@34410 Channel: 7 Note on, G3 key=55 velocity: 90
@34410 Channel: 7 Note on, B3 key=59 velocity: 90
@34410 Channel: 7 Note on, D4 key=62 velocity: 90
@34427 Channel: 7 Note on, D4 key=62 velocity: 0
@34431 Channel: 7 Note on, B3 key=59 velocity: 0
@34433 Channel: 7 Note on, G3 key=55 velocity: 0
@34470 Channel: 7 Note on, G3 key=55 velocity: 91
@34470 Channel: 7 Note on, B3 key=59 velocity: 91
@34470 Channel: 7 Note on, D4 key=62 velocity: 91
@34479 Channel: 7 Note on, D4 key=62 velocity: 0
@34479 Channel: 7 Note on, B3 key=59 velocity: 0
@34482 Channel: 7 Note on, G3 key=55 velocity: 0
@34500 Channel: 7 Note on, G3 key=55 velocity: 91
@34500 Channel: 7 Note on, B3 key=59 velocity: 91
@34500 Channel: 7 Note on, D4 key=62 velocity: 91
@34521 Channel: 7 Note on, D4 key=62 velocity: 0
@34523 Channel: 7 Note on, B3 key=59 velocity: 0
@34523 Channel: 7 Note on, G3 key=55 velocity: 0
@34560 Channel: 7 Note on, C4 key=60 velocity: 91
@34560 Channel: 7 Note on, E4 key=64 velocity: 91
@34560 Channel: 7 Note on, G3 key=55 velocity: 91
@34560 Channel: 7 Note on, E4 key=64 velocity: 91
@34560 Channel: 7 Note on, C4 key=60 velocity: 91
@34560 Channel: 7 Note on, G3 key=55 velocity: 91
@34583 Channel: 7 Note on, C4 key=60 velocity: 0
@34583 Channel: 7 Note on, E4 key=64 velocity: 0
@34583 Channel: 7 Note on, G3 key=55 velocity: 0
@34587 Channel: 7 Note on, C4 key=60 velocity: 0
@34587 Channel: 7 Note on, G3 key=55 velocity: 0
@34587 Channel: 7 Note on, E4 key=64 velocity: 0
@34620 Channel: 7 Note on, G3 key=55 velocity: 91
@34620 Channel: 7 Note on, E4 key=64 velocity: 91
@34620 Channel: 7 Note on, C4 key=60 velocity: 91
@34629 Channel: 7 Note on, C4 key=60 velocity: 0
@34629 Channel: 7 Note on, E4 key=64 velocity: 0
@34632 Channel: 7 Note on, G3 key=55 velocity: 0
@34650 Channel: 7 Note on, G3 key=55 velocity: 91
@34650 Channel: 7 Note on, E4 key=64 velocity: 91
@34650 Channel: 7 Note on, C4 key=60 velocity: 91
@34671 Channel: 7 Note on, C4 key=60 velocity: 0
@34676 Channel: 7 Note on, E4 key=64 velocity: 0
@34676 Channel: 7 Note on, G3 key=55 velocity: 0
@34710 Channel: 7 Note on, C4 key=60 velocity: 91
@34710 Channel: 7 Note on, E4 key=64 velocity: 91
@34710 Channel: 7 Note on, G3 key=55 velocity: 91
@34719 Channel: 7 Note on, G3 key=55 velocity: 0
@34719 Channel: 7 Note on, E4 key=64 velocity: 0
@34719 Channel: 7 Note on, C4 key=60 velocity: 0
@34740 Channel: 7 Note on, E4 key=64 velocity: 91
@34740 Channel: 7 Note on, C4 key=60 velocity: 91
@34740 Channel: 7 Note on, G3 key=55 velocity: 91
@34766 Channel: 7 Note on, G3 key=55 velocity: 0
@34766 Channel: 7 Note on, C4 key=60 velocity: 0
@34766 Channel: 7 Note on, E4 key=64 velocity: 0
@34800 Channel: 7 Note on, F4 key=65 velocity: 91
@34800 Channel: 7 Note on, C4 key=60 velocity: 91
@34800 Channel: 7 Note on, G3 key=55 velocity: 91
@34826 Channel: 7 Note on, G3 key=55 velocity: 0
@34826 Channel: 7 Note on, C4 key=60 velocity: 0
@34826 Channel: 7 Note on, F4 key=65 velocity: 0
@34860 Channel: 7 Note on, F4 key=65 velocity: 91
@34860 Channel: 7 Note on, C4 key=60 velocity: 91
@34860 Channel: 7 Note on, G3 key=55 velocity: 91
@34869 Channel: 7 Note on, G3 key=55 velocity: 0
@34869 Channel: 7 Note on, C4 key=60 velocity: 0
@34872 Channel: 7 Note on, F4 key=65 velocity: 0
@34890 Channel: 7 Note on, F4 key=65 velocity: 91
@34890 Channel: 7 Note on, C4 key=60 velocity: 91
@34890 Channel: 7 Note on, G3 key=55 velocity: 91
@34916 Channel: 7 Note on, G3 key=55 velocity: 0
@34916 Channel: 7 Note on, C4 key=60 velocity: 0
@34916 Channel: 7 Note on, F4 key=65 velocity: 0
@34950 Channel: 7 Note on, G3 key=55 velocity: 91
@34950 Channel: 7 Note on, C4 key=60 velocity: 91
@34950 Channel: 7 Note on, F4 key=65 velocity: 91
@34962 Channel: 7 Note on, F4 key=65 velocity: 0
@34962 Channel: 7 Note on, C4 key=60 velocity: 0
@34962 Channel: 7 Note on, G3 key=55 velocity: 0
@34980 Channel: 7 Note on, F4 key=65 velocity: 91
@34980 Channel: 7 Note on, G3 key=55 velocity: 91
@34980 Channel: 7 Note on, C4 key=60 velocity: 91
@35007 Channel: 7 Note on, C4 key=60 velocity: 0
@35007 Channel: 7 Note on, G3 key=55 velocity: 0
@35010 Channel: 7 Note on, F4 key=65 velocity: 0
@35040 Channel: 7 Note on, C4 key=60 velocity: 91
@35040 Channel: 7 Note on, E4 key=64 velocity: 91
@35040 Channel: 7 Note on, G3 key=55 velocity: 91
@35061 Channel: 7 Note on, G3 key=55 velocity: 0
@35061 Channel: 7 Note on, E4 key=64 velocity: 0
@35061 Channel: 7 Note on, C4 key=60 velocity: 0
@35100 Channel: 7 Note on, C4 key=60 velocity: 90
@35100 Channel: 7 Note on, E4 key=64 velocity: 90
@35100 Channel: 7 Note on, G3 key=55 velocity: 90
@35112 Channel: 7 Note on, G3 key=55 velocity: 0
@35112 Channel: 7 Note on, E4 key=64 velocity: 0
@35112 Channel: 7 Note on, C4 key=60 velocity: 0
@35130 Channel: 7 Note on, E4 key=64 velocity: 90
@35130 Channel: 7 Note on, G3 key=55 velocity: 90
@35130 Channel: 7 Note on, C4 key=60 velocity: 90
@35151 Channel: 7 Note on, C4 key=60 velocity: 0
@35153 Channel: 7 Note on, G3 key=55 velocity: 0
@35153 Channel: 7 Note on, E4 key=64 velocity: 0
@35190 Channel: 7 Note on, G3 key=55 velocity: 90
@35190 Channel: 7 Note on, E4 key=64 velocity: 90
@35190 Channel: 7 Note on, C4 key=60 velocity: 90
@35202 Channel: 7 Note on, C4 key=60 velocity: 0
@35202 Channel: 7 Note on, E4 key=64 velocity: 0
@35202 Channel: 7 Note on, G3 key=55 velocity: 0
@35220 Channel: 7 Note on, E4 key=64 velocity: 90
@35220 Channel: 7 Note on, G3 key=55 velocity: 90
@35220 Channel: 7 Note on, C4 key=60 velocity: 90
@35243 Channel: 7 Note on, C4 key=60 velocity: 0
@35243 Channel: 7 Note on, G3 key=55 velocity: 0
@35243 Channel: 7 Note on, E4 key=64 velocity: 0
@35280 Channel: 7 Note on, C4 key=60 velocity: 90
@35280 Channel: 7 Note on, G3 key=55 velocity: 90
@35280 Channel: 7 Note on, F4 key=65 velocity: 90
@35303 Channel: 7 Note on, F4 key=65 velocity: 0
@35303 Channel: 7 Note on, G3 key=55 velocity: 0
@35303 Channel: 7 Note on, C4 key=60 velocity: 0
@35340 Channel: 7 Note on, C4 key=60 velocity: 92
@35340 Channel: 7 Note on, F4 key=65 velocity: 92
@35340 Channel: 7 Note on, G3 key=55 velocity: 92
@35352 Channel: 7 Note on, G3 key=55 velocity: 0
@35352 Channel: 7 Note on, F4 key=65 velocity: 0
@35352 Channel: 7 Note on, C4 key=60 velocity: 0
@35370 Channel: 7 Note on, F4 key=65 velocity: 90
@35370 Channel: 7 Note on, C4 key=60 velocity: 90
@35370 Channel: 7 Note on, G3 key=55 velocity: 90
@35391 Channel: 7 Note on, C4 key=60 velocity: 0
@35391 Channel: 7 Note on, F4 key=65 velocity: 0
@35393 Channel: 7 Note on, G3 key=55 velocity: 0
@35430 Channel: 7 Note on, F4 key=65 velocity: 90
@35430 Channel: 7 Note on, C4 key=60 velocity: 90
@35430 Channel: 7 Note on, G3 key=55 velocity: 90
@35439 Channel: 7 Note on, G3 key=55 velocity: 0
@35439 Channel: 7 Note on, C4 key=60 velocity: 0
@35442 Channel: 7 Note on, F4 key=65 velocity: 0
@35460 Channel: 7 Note on, F4 key=65 velocity: 89
@35460 Channel: 7 Note on, G3 key=55 velocity: 89
@35460 Channel: 7 Note on, C4 key=60 velocity: 89
@35481 Channel: 7 Note on, F4 key=65 velocity: 0
@35483 Channel: 7 Note on, C4 key=60 velocity: 0
@35483 Channel: 7 Note on, G3 key=55 velocity: 0
@35520 Channel: 7 Note on, C4 key=60 velocity: 89
@35520 Channel: 7 Note on, E4 key=64 velocity: 89
@35520 Channel: 7 Note on, A3 key=57 velocity: 89
@35543 Channel: 7 Note on, A3 key=57 velocity: 0
@35543 Channel: 7 Note on, E4 key=64 velocity: 0
@35546 Channel: 7 Note on, C4 key=60 velocity: 0
@35580 Channel: 7 Note on, A3 key=57 velocity: 89
@35580 Channel: 7 Note on, C4 key=60 velocity: 89
@35580 Channel: 7 Note on, E4 key=64 velocity: 89
@35592 Channel: 7 Note on, E4 key=64 velocity: 0
@35592 Channel: 7 Note on, C4 key=60 velocity: 0
@35594 Channel: 7 Note on, A3 key=57 velocity: 0
@35610 Channel: 7 Note on, A3 key=57 velocity: 89
@35610 Channel: 7 Note on, E4 key=64 velocity: 89
@35610 Channel: 7 Note on, C4 key=60 velocity: 89
@35631 Channel: 7 Note on, C4 key=60 velocity: 0
@35633 Channel: 7 Note on, E4 key=64 velocity: 0
@35633 Channel: 7 Note on, A3 key=57 velocity: 0
@35670 Channel: 7 Note on, C4 key=60 velocity: 88
@35670 Channel: 7 Note on, A3 key=57 velocity: 88
@35670 Channel: 7 Note on, E4 key=64 velocity: 88
@35679 Channel: 7 Note on, E4 key=64 velocity: 0
@35679 Channel: 7 Note on, A3 key=57 velocity: 0
@35679 Channel: 7 Note on, C4 key=60 velocity: 0
@35700 Channel: 7 Note on, A3 key=57 velocity: 88
@35700 Channel: 7 Note on, C4 key=60 velocity: 88
@35700 Channel: 7 Note on, E4 key=64 velocity: 88
@35723 Channel: 7 Note on, E4 key=64 velocity: 0
@35723 Channel: 7 Note on, C4 key=60 velocity: 0
@35723 Channel: 7 Note on, A3 key=57 velocity: 0
@35760 Channel: 7 Note on, A3 key=57 velocity: 89
@35760 Channel: 7 Note on, C4 key=60 velocity: 89
@35760 Channel: 7 Note on, E4 key=64 velocity: 89
@35783 Channel: 7 Note on, E4 key=64 velocity: 0
@35783 Channel: 7 Note on, C4 key=60 velocity: 0
@35783 Channel: 7 Note on, A3 key=57 velocity: 0
@35820 Channel: 7 Note on, A3 key=57 velocity: 89
@35820 Channel: 7 Note on, E4 key=64 velocity: 89
@35820 Channel: 7 Note on, C4 key=60 velocity: 89
@35829 Channel: 7 Note on, C4 key=60 velocity: 0
@35832 Channel: 7 Note on, E4 key=64 velocity: 0
@35832 Channel: 7 Note on, A3 key=57 velocity: 0
@35850 Channel: 7 Note on, A3 key=57 velocity: 89
@35850 Channel: 7 Note on, C4 key=60 velocity: 89
@35850 Channel: 7 Note on, E4 key=64 velocity: 89
@35871 Channel: 7 Note on, E4 key=64 velocity: 0
@35871 Channel: 7 Note on, C4 key=60 velocity: 0
@35873 Channel: 7 Note on, A3 key=57 velocity: 0
@35910 Channel: 7 Note on, A3 key=57 velocity: 90
@35910 Channel: 7 Note on, C4 key=60 velocity: 90
@35910 Channel: 7 Note on, E4 key=64 velocity: 90
@35919 Channel: 7 Note on, E4 key=64 velocity: 0
@35919 Channel: 7 Note on, C4 key=60 velocity: 0
@35919 Channel: 7 Note on, A3 key=57 velocity: 0
@35940 Channel: 7 Note on, A3 key=57 velocity: 90
@35940 Channel: 7 Note on, E4 key=64 velocity: 90
@35940 Channel: 7 Note on, C4 key=60 velocity: 90
@35957 Channel: 7 Note on, C4 key=60 velocity: 0
@35957 Channel: 7 Note on, E4 key=64 velocity: 0
@35958 Channel: 7 Note on, A3 key=57 velocity: 0
@36000 Channel: 7 Note on, A3 key=57 velocity: 90
@36000 Channel: 7 Note on, E4 key=64 velocity: 90
@36000 Channel: 7 Note on, C4 key=60 velocity: 90
@36021 Channel: 7 Note on, C4 key=60 velocity: 0
@36023 Channel: 7 Note on, E4 key=64 velocity: 0
@36023 Channel: 7 Note on, A3 key=57 velocity: 0
@36060 Channel: 7 Note on, A3 key=57 velocity: 90
@36060 Channel: 7 Note on, C4 key=60 velocity: 90
@36060 Channel: 7 Note on, E4 key=64 velocity: 90
@36069 Channel: 7 Note on, C4 key=60 velocity: 0
@36072 Channel: 7 Note on, E4 key=64 velocity: 0
@36072 Channel: 7 Note on, A3 key=57 velocity: 0
@36090 Channel: 7 Note on, A3 key=57 velocity: 90
@36090 Channel: 7 Note on, E4 key=64 velocity: 90
@36090 Channel: 7 Note on, C4 key=60 velocity: 90
@36107 Channel: 7 Note on, C4 key=60 velocity: 0
@36108 Channel: 7 Note on, E4 key=64 velocity: 0
@36111 Channel: 7 Note on, A3 key=57 velocity: 0
@36150 Channel: 7 Note on, A3 key=57 velocity: 91
@36150 Channel: 7 Note on, C4 key=60 velocity: 91
@36150 Channel: 7 Note on, E4 key=64 velocity: 91
@36158 Channel: 7 Note on, E4 key=64 velocity: 0
@36158 Channel: 7 Note on, C4 key=60 velocity: 0
@36162 Channel: 7 Note on, A3 key=57 velocity: 0
@36180 Channel: 7 Note on, A3 key=57 velocity: 91
@36180 Channel: 7 Note on, C4 key=60 velocity: 91
@36180 Channel: 7 Note on, E4 key=64 velocity: 91
@36198 Channel: 7 Note on, C4 key=60 velocity: 0
@36201 Channel: 7 Note on, E4 key=64 velocity: 0
@36201 Channel: 7 Note on, A3 key=57 velocity: 0
@36240 Channel: 7 Note on, A3 key=57 velocity: 92
@36240 Channel: 7 Note on, E4 key=64 velocity: 92
@36240 Channel: 7 Note on, C4 key=60 velocity: 92
@36261 Channel: 7 Note on, C4 key=60 velocity: 0
@36263 Channel: 7 Note on, E4 key=64 velocity: 0
@36263 Channel: 7 Note on, A3 key=57 velocity: 0
@36300 Channel: 7 Note on, A3 key=57 velocity: 92
@36300 Channel: 7 Note on, C4 key=60 velocity: 92
@36300 Channel: 7 Note on, E4 key=64 velocity: 92
@36309 Channel: 7 Note on, E4 key=64 velocity: 0
@36309 Channel: 7 Note on, C4 key=60 velocity: 0
@36312 Channel: 7 Note on, A3 key=57 velocity: 0
@36330 Channel: 7 Note on, A3 key=57 velocity: 92
@36330 Channel: 7 Note on, E4 key=64 velocity: 92
@36330 Channel: 7 Note on, C4 key=60 velocity: 92
@36351 Channel: 7 Note on, C4 key=60 velocity: 0
@36351 Channel: 7 Note on, E4 key=64 velocity: 0
@36353 Channel: 7 Note on, A3 key=57 velocity: 0
@36390 Channel: 7 Note on, A3 key=57 velocity: 92
@36390 Channel: 7 Note on, C4 key=60 velocity: 92
@36390 Channel: 7 Note on, E4 key=64 velocity: 92
@36399 Channel: 7 Note on, E4 key=64 velocity: 0
@36399 Channel: 7 Note on, C4 key=60 velocity: 0
@36404 Channel: 7 Note on, A3 key=57 velocity: 0
@36420 Channel: 7 Note on, E4 key=64 velocity: 91
@36420 Channel: 7 Note on, A3 key=57 velocity: 91
@36420 Channel: 7 Note on, C4 key=60 velocity: 91
@36438 Channel: 7 Note on, C4 key=60 velocity: 0
@36438 Channel: 7 Note on, E4 key=64 velocity: 0
@36441 Channel: 7 Note on, A3 key=57 velocity: 0
@36480 Channel: 7 Note on, C4 key=60 velocity: 91
@36480 Channel: 7 Note on, F4 key=65 velocity: 91
@36480 Channel: 7 Note on, A3 key=57 velocity: 91
@36501 Channel: 7 Note on, A3 key=57 velocity: 0
@36501 Channel: 7 Note on, C4 key=60 velocity: 0
@36503 Channel: 7 Note on, F4 key=65 velocity: 0
@36540 Channel: 7 Note on, F4 key=65 velocity: 91
@36540 Channel: 7 Note on, C4 key=60 velocity: 91
@36540 Channel: 7 Note on, A3 key=57 velocity: 91
@36549 Channel: 7 Note on, C4 key=60 velocity: 0
@36552 Channel: 7 Note on, A3 key=57 velocity: 0
@36552 Channel: 7 Note on, F4 key=65 velocity: 0
@36570 Channel: 7 Note on, A3 key=57 velocity: 91
@36570 Channel: 7 Note on, F4 key=65 velocity: 91
@36570 Channel: 7 Note on, C4 key=60 velocity: 91
@36591 Channel: 7 Note on, C4 key=60 velocity: 0
@36591 Channel: 7 Note on, F4 key=65 velocity: 0
@36591 Channel: 7 Note on, A3 key=57 velocity: 0
@36630 Channel: 7 Note on, A3 key=57 velocity: 90
@36630 Channel: 7 Note on, C4 key=60 velocity: 90
@36630 Channel: 7 Note on, F4 key=65 velocity: 90
@36639 Channel: 7 Note on, F4 key=65 velocity: 0
@36639 Channel: 7 Note on, C4 key=60 velocity: 0
@36642 Channel: 7 Note on, A3 key=57 velocity: 0
@36660 Channel: 7 Note on, A3 key=57 velocity: 90
@36660 Channel: 7 Note on, F4 key=65 velocity: 90
@36660 Channel: 7 Note on, C4 key=60 velocity: 90
@36678 Channel: 7 Note on, C4 key=60 velocity: 0
@36678 Channel: 7 Note on, F4 key=65 velocity: 0
@36678 Channel: 7 Note on, A3 key=57 velocity: 0
@36720 Channel: 7 Note on, C4 key=60 velocity: 90
@36720 Channel: 7 Note on, G3 key=55 velocity: 90
@36720 Channel: 7 Note on, F4 key=65 velocity: 90
@36741 Channel: 7 Note on, F4 key=65 velocity: 0
@36741 Channel: 7 Note on, G3 key=55 velocity: 0
@36741 Channel: 7 Note on, C4 key=60 velocity: 0
@36780 Channel: 7 Note on, G3 key=55 velocity: 90
@36780 Channel: 7 Note on, C4 key=60 velocity: 90
@36780 Channel: 7 Note on, F4 key=65 velocity: 90
@36792 Channel: 7 Note on, F4 key=65 velocity: 0
@36792 Channel: 7 Note on, C4 key=60 velocity: 0
@36792 Channel: 7 Note on, G3 key=55 velocity: 0
@36810 Channel: 7 Note on, G3 key=55 velocity: 90
@36810 Channel: 7 Note on, F4 key=65 velocity: 90
@36810 Channel: 7 Note on, C4 key=60 velocity: 90
@36827 Channel: 7 Note on, C4 key=60 velocity: 0
@36827 Channel: 7 Note on, F4 key=65 velocity: 0
@36831 Channel: 7 Note on, G3 key=55 velocity: 0
@36870 Channel: 7 Note on, G3 key=55 velocity: 90
@36870 Channel: 7 Note on, C4 key=60 velocity: 90
@36870 Channel: 7 Note on, F4 key=65 velocity: 90
@36882 Channel: 7 Note on, F4 key=65 velocity: 0
@36882 Channel: 7 Note on, C4 key=60 velocity: 0
@36882 Channel: 7 Note on, G3 key=55 velocity: 0
@36900 Channel: 7 Note on, G3 key=55 velocity: 91
@36900 Channel: 7 Note on, F4 key=65 velocity: 91
@36900 Channel: 7 Note on, C4 key=60 velocity: 91
@36921 Channel: 7 Note on, C4 key=60 velocity: 0
@36921 Channel: 7 Note on, F4 key=65 velocity: 0
@36921 Channel: 7 Note on, G3 key=55 velocity: 0
@36960 Channel: 7 Note on, A3 key=57 velocity: 91
@36960 Channel: 7 Note on, C4 key=60 velocity: 91
@36960 Channel: 7 Note on, F4 key=65 velocity: 91
@36977 Channel: 7 Note on, F4 key=65 velocity: 0
@36978 Channel: 7 Note on, C4 key=60 velocity: 0
@36981 Channel: 7 Note on, A3 key=57 velocity: 0
@37020 Channel: 7 Note on, F4 key=65 velocity: 91
@37020 Channel: 7 Note on, A3 key=57 velocity: 91
@37020 Channel: 7 Note on, C4 key=60 velocity: 91
@37029 Channel: 7 Note on, C4 key=60 velocity: 0
@37029 Channel: 7 Note on, A3 key=57 velocity: 0
@37029 Channel: 7 Note on, F4 key=65 velocity: 0
@37050 Channel: 7 Note on, A3 key=57 velocity: 91
@37050 Channel: 7 Note on, F4 key=65 velocity: 91
@37050 Channel: 7 Note on, C4 key=60 velocity: 91
@37067 Channel: 7 Note on, C4 key=60 velocity: 0
@37068 Channel: 7 Note on, F4 key=65 velocity: 0
@37071 Channel: 7 Note on, A3 key=57 velocity: 0
@37110 Channel: 7 Note on, A3 key=57 velocity: 91
@37110 Channel: 7 Note on, F4 key=65 velocity: 91
@37110 Channel: 7 Note on, C4 key=60 velocity: 91
@37119 Channel: 7 Note on, C4 key=60 velocity: 0
@37122 Channel: 7 Note on, F4 key=65 velocity: 0
@37122 Channel: 7 Note on, A3 key=57 velocity: 0
@37140 Channel: 7 Note on, F4 key=65 velocity: 91
@37140 Channel: 7 Note on, A3 key=57 velocity: 91
@37140 Channel: 7 Note on, C4 key=60 velocity: 91
@37158 Channel: 7 Note on, C4 key=60 velocity: 0
@37161 Channel: 7 Note on, A3 key=57 velocity: 0
@37161 Channel: 7 Note on, F4 key=65 velocity: 0
@37200 Channel: 7 Note on, C4 key=60 velocity: 91
@37200 Channel: 7 Note on, F4 key=65 velocity: 91
@37200 Channel: 7 Note on, G3 key=55 velocity: 91
@37217 Channel: 7 Note on, G3 key=55 velocity: 0
@37218 Channel: 7 Note on, F4 key=65 velocity: 0
@37218 Channel: 7 Note on, C4 key=60 velocity: 0
@37260 Channel: 7 Note on, C4 key=60 velocity: 90
@37260 Channel: 7 Note on, G3 key=55 velocity: 90
@37260 Channel: 7 Note on, F4 key=65 velocity: 90
@37272 Channel: 7 Note on, F4 key=65 velocity: 0
@37272 Channel: 7 Note on, G3 key=55 velocity: 0
@37272 Channel: 7 Note on, C4 key=60 velocity: 0
@37290 Channel: 7 Note on, F4 key=65 velocity: 90
@37290 Channel: 7 Note on, G3 key=55 velocity: 90
@37290 Channel: 7 Note on, C4 key=60 velocity: 90
@37308 Channel: 7 Note on, C4 key=60 velocity: 0
@37311 Channel: 7 Note on, G3 key=55 velocity: 0
@37311 Channel: 7 Note on, F4 key=65 velocity: 0
@37350 Channel: 7 Note on, C4 key=60 velocity: 90
@37350 Channel: 7 Note on, F4 key=65 velocity: 90
@37350 Channel: 7 Note on, G3 key=55 velocity: 90
@37362 Channel: 7 Note on, G3 key=55 velocity: 0
@37362 Channel: 7 Note on, F4 key=65 velocity: 0
@37362 Channel: 7 Note on, C4 key=60 velocity: 0
@37380 Channel: 7 Note on, F4 key=65 velocity: 90
@37380 Channel: 7 Note on, C4 key=60 velocity: 90
@37380 Channel: 7 Note on, G3 key=55 velocity: 90
@37397 Channel: 7 Note on, F4 key=65 velocity: 0
@37398 Channel: 7 Note on, C4 key=60 velocity: 0
@37401 Channel: 7 Note on, G3 key=55 velocity: 0
@37440 Channel: 7 Note on, B3 key=59 velocity: 91
@37440 Channel: 7 Note on, G3 key=55 velocity: 91
@37440 Channel: 7 Note on, E4 key=64 velocity: 91
@37458 Channel: 7 Note on, E4 key=64 velocity: 0
@37458 Channel: 7 Note on, B3 key=59 velocity: 0
@37461 Channel: 7 Note on, G3 key=55 velocity: 0
@37500 Channel: 7 Note on, E4 key=64 velocity: 91
@37500 Channel: 7 Note on, B3 key=59 velocity: 91
@37500 Channel: 7 Note on, G3 key=55 velocity: 91
@37509 Channel: 7 Note on, G3 key=55 velocity: 0
@37509 Channel: 7 Note on, B3 key=59 velocity: 0
@37512 Channel: 7 Note on, E4 key=64 velocity: 0
@37530 Channel: 7 Note on, E4 key=64 velocity: 91
@37530 Channel: 7 Note on, G3 key=55 velocity: 91
@37530 Channel: 7 Note on, B3 key=59 velocity: 91
@37548 Channel: 7 Note on, B3 key=59 velocity: 0
@37548 Channel: 7 Note on, G3 key=55 velocity: 0
@37551 Channel: 7 Note on, E4 key=64 velocity: 0
@37590 Channel: 7 Note on, E4 key=64 velocity: 91
@37590 Channel: 7 Note on, B3 key=59 velocity: 91
@37590 Channel: 7 Note on, G3 key=55 velocity: 91
@37599 Channel: 7 Note on, G3 key=55 velocity: 0
@37599 Channel: 7 Note on, B3 key=59 velocity: 0
@37599 Channel: 7 Note on, E4 key=64 velocity: 0
@37620 Channel: 7 Note on, G3 key=55 velocity: 91
@37620 Channel: 7 Note on, E4 key=64 velocity: 91
@37620 Channel: 7 Note on, B3 key=59 velocity: 91
@37637 Channel: 7 Note on, B3 key=59 velocity: 0
@37637 Channel: 7 Note on, E4 key=64 velocity: 0
@37638 Channel: 7 Note on, G3 key=55 velocity: 0
@37680 Channel: 7 Note on, E4 key=64 velocity: 92
@37680 Channel: 7 Note on, G3 key=55 velocity: 92
@37680 Channel: 7 Note on, B3 key=59 velocity: 92
@37701 Channel: 7 Note on, B3 key=59 velocity: 0
@37703 Channel: 7 Note on, G3 key=55 velocity: 0
@37703 Channel: 7 Note on, E4 key=64 velocity: 0
@37740 Channel: 7 Note on, G3 key=55 velocity: 92
@37740 Channel: 7 Note on, B3 key=59 velocity: 92
@37740 Channel: 7 Note on, E4 key=64 velocity: 92
@37749 Channel: 7 Note on, E4 key=64 velocity: 0
@37749 Channel: 7 Note on, B3 key=59 velocity: 0
@37749 Channel: 7 Note on, G3 key=55 velocity: 0
@37770 Channel: 7 Note on, G3 key=55 velocity: 92
@37770 Channel: 7 Note on, E4 key=64 velocity: 92
@37770 Channel: 7 Note on, B3 key=59 velocity: 92
@37787 Channel: 7 Note on, B3 key=59 velocity: 0
@37787 Channel: 7 Note on, E4 key=64 velocity: 0
@37788 Channel: 7 Note on, G3 key=55 velocity: 0
@37830 Channel: 7 Note on, B3 key=59 velocity: 92
@37830 Channel: 7 Note on, G3 key=55 velocity: 92
@37830 Channel: 7 Note on, E4 key=64 velocity: 92
@37839 Channel: 7 Note on, E4 key=64 velocity: 0
@37839 Channel: 7 Note on, B3 key=59 velocity: 0
@37842 Channel: 7 Note on, G3 key=55 velocity: 0
@37860 Channel: 7 Note on, G3 key=55 velocity: 92
@37860 Channel: 7 Note on, E4 key=64 velocity: 92
@37860 Channel: 7 Note on, B3 key=59 velocity: 92
@37878 Channel: 7 Note on, B3 key=59 velocity: 0
@37878 Channel: 7 Note on, E4 key=64 velocity: 0
@37881 Channel: 7 Note on, G3 key=55 velocity: 0
@37920 Channel: 7 Note on, A3 key=57 velocity: 92
@37920 Channel: 7 Note on, C4 key=60 velocity: 92
@37920 Channel: 7 Note on, F4 key=65 velocity: 92
@37941 Channel: 7 Note on, C4 key=60 velocity: 0
@37941 Channel: 7 Note on, A3 key=57 velocity: 0
@37943 Channel: 7 Note on, F4 key=65 velocity: 0
@37980 Channel: 7 Note on, A3 key=57 velocity: 92
@37980 Channel: 7 Note on, F4 key=65 velocity: 92
@37980 Channel: 7 Note on, C4 key=60 velocity: 92
@37989 Channel: 7 Note on, C4 key=60 velocity: 0
@37989 Channel: 7 Note on, F4 key=65 velocity: 0
@37989 Channel: 7 Note on, A3 key=57 velocity: 0
@38010 Channel: 7 Note on, F4 key=65 velocity: 92
@38010 Channel: 7 Note on, A3 key=57 velocity: 92
@38010 Channel: 7 Note on, C4 key=60 velocity: 92
@38028 Channel: 7 Note on, C4 key=60 velocity: 0
@38031 Channel: 7 Note on, A3 key=57 velocity: 0
@38031 Channel: 7 Note on, F4 key=65 velocity: 0
@38070 Channel: 7 Note on, C4 key=60 velocity: 90
@38070 Channel: 7 Note on, F4 key=65 velocity: 90
@38070 Channel: 7 Note on, A3 key=57 velocity: 90
@38079 Channel: 7 Note on, C4 key=60 velocity: 0
@38082 Channel: 7 Note on, A3 key=57 velocity: 0
@38082 Channel: 7 Note on, F4 key=65 velocity: 0
@38100 Channel: 7 Note on, F4 key=65 velocity: 90
@38100 Channel: 7 Note on, A3 key=57 velocity: 90
@38100 Channel: 7 Note on, C4 key=60 velocity: 90
@38118 Channel: 7 Note on, C4 key=60 velocity: 0
@38118 Channel: 7 Note on, A3 key=57 velocity: 0
@38121 Channel: 7 Note on, F4 key=65 velocity: 0
@38160 Channel: 7 Note on, B3 key=59 velocity: 90
@38160 Channel: 7 Note on, D4 key=62 velocity: 90
@38160 Channel: 7 Note on, G4 key=67 velocity: 90
@38181 Channel: 7 Note on, D4 key=62 velocity: 0
@38183 Channel: 7 Note on, G4 key=67 velocity: 0
@38183 Channel: 7 Note on, B3 key=59 velocity: 0
@38220 Channel: 7 Note on, G4 key=67 velocity: 90
@38220 Channel: 7 Note on, B3 key=59 velocity: 90
@38220 Channel: 7 Note on, D4 key=62 velocity: 90
@38229 Channel: 7 Note on, D4 key=62 velocity: 0
@38229 Channel: 7 Note on, B3 key=59 velocity: 0
@38232 Channel: 7 Note on, G4 key=67 velocity: 0
@38250 Channel: 7 Note on, G4 key=67 velocity: 90
@38250 Channel: 7 Note on, D4 key=62 velocity: 90
@38250 Channel: 7 Note on, B3 key=59 velocity: 90
@38271 Channel: 7 Note on, B3 key=59 velocity: 0
@38271 Channel: 7 Note on, D4 key=62 velocity: 0
@38271 Channel: 7 Note on, G4 key=67 velocity: 0
@38310 Channel: 7 Note on, G4 key=67 velocity: 89
@38310 Channel: 7 Note on, D4 key=62 velocity: 89
@38310 Channel: 7 Note on, B3 key=59 velocity: 89
@38319 Channel: 7 Note on, B3 key=59 velocity: 0
@38319 Channel: 7 Note on, D4 key=62 velocity: 0
@38319 Channel: 7 Note on, G4 key=67 velocity: 0
@38340 Channel: 7 Note on, B3 key=59 velocity: 89
@38340 Channel: 7 Note on, G4 key=67 velocity: 89
@38340 Channel: 7 Note on, D4 key=62 velocity: 89
@38340 Channel: 7 Note on, F4 key=65 velocity: 89
@38348 Channel: 7 Note on, F4 key=65 velocity: 0
@38367 Channel: 7 Note on, B3 key=59 velocity: 0
@38367 Channel: 7 Note on, G4 key=67 velocity: 0
@38367 Channel: 7 Note on, D4 key=62 velocity: 0
@38400 Channel: 7 Note on, C4 key=60 velocity: 91
@38400 Channel: 7 Note on, E4 key=64 velocity: 91
@38400 Channel: 7 Note on, G3 key=55 velocity: 91
@38400 Channel: 7 Note on, E4 key=64 velocity: 91
@38400 Channel: 7 Note on, C4 key=60 velocity: 91
@38400 Channel: 7 Note on, G3 key=55 velocity: 91
@38423 Channel: 7 Note on, C4 key=60 velocity: 0
@38423 Channel: 7 Note on, E4 key=64 velocity: 0
@38423 Channel: 7 Note on, G3 key=55 velocity: 0
@38427 Channel: 7 Note on, C4 key=60 velocity: 0
@38427 Channel: 7 Note on, G3 key=55 velocity: 0
@38427 Channel: 7 Note on, E4 key=64 velocity: 0
@38460 Channel: 7 Note on, G3 key=55 velocity: 91
@38460 Channel: 7 Note on, E4 key=64 velocity: 91
@38460 Channel: 7 Note on, C4 key=60 velocity: 91
@38469 Channel: 7 Note on, C4 key=60 velocity: 0
@38469 Channel: 7 Note on, E4 key=64 velocity: 0
@38472 Channel: 7 Note on, G3 key=55 velocity: 0
@38490 Channel: 7 Note on, G3 key=55 velocity: 91
@38490 Channel: 7 Note on, E4 key=64 velocity: 91
@38490 Channel: 7 Note on, C4 key=60 velocity: 91
@38511 Channel: 7 Note on, C4 key=60 velocity: 0
@38516 Channel: 7 Note on, E4 key=64 velocity: 0
@38516 Channel: 7 Note on, G3 key=55 velocity: 0
@38550 Channel: 7 Note on, C4 key=60 velocity: 91
@38550 Channel: 7 Note on, E4 key=64 velocity: 91
@38550 Channel: 7 Note on, G3 key=55 velocity: 91
@38559 Channel: 7 Note on, G3 key=55 velocity: 0
@38559 Channel: 7 Note on, E4 key=64 velocity: 0
@38559 Channel: 7 Note on, C4 key=60 velocity: 0
@38580 Channel: 7 Note on, E4 key=64 velocity: 91
@38580 Channel: 7 Note on, C4 key=60 velocity: 91
@38580 Channel: 7 Note on, G3 key=55 velocity: 91
@38606 Channel: 7 Note on, G3 key=55 velocity: 0
@38606 Channel: 7 Note on, C4 key=60 velocity: 0
@38606 Channel: 7 Note on, E4 key=64 velocity: 0
@38640 Channel: 7 Note on, F4 key=65 velocity: 91
@38640 Channel: 7 Note on, C4 key=60 velocity: 91
@38640 Channel: 7 Note on, G3 key=55 velocity: 91
@38666 Channel: 7 Note on, G3 key=55 velocity: 0
@38666 Channel: 7 Note on, C4 key=60 velocity: 0
@38666 Channel: 7 Note on, F4 key=65 velocity: 0
@38700 Channel: 7 Note on, F4 key=65 velocity: 91
@38700 Channel: 7 Note on, C4 key=60 velocity: 91
@38700 Channel: 7 Note on, G3 key=55 velocity: 91
@38709 Channel: 7 Note on, G3 key=55 velocity: 0
@38709 Channel: 7 Note on, C4 key=60 velocity: 0
@38712 Channel: 7 Note on, F4 key=65 velocity: 0
@38730 Channel: 7 Note on, F4 key=65 velocity: 91
@38730 Channel: 7 Note on, C4 key=60 velocity: 91
@38730 Channel: 7 Note on, G3 key=55 velocity: 91
@38756 Channel: 7 Note on, G3 key=55 velocity: 0
@38756 Channel: 7 Note on, C4 key=60 velocity: 0
@38756 Channel: 7 Note on, F4 key=65 velocity: 0
@38790 Channel: 7 Note on, G3 key=55 velocity: 91
@38790 Channel: 7 Note on, C4 key=60 velocity: 91
@38790 Channel: 7 Note on, F4 key=65 velocity: 91
@38802 Channel: 7 Note on, F4 key=65 velocity: 0
@38802 Channel: 7 Note on, C4 key=60 velocity: 0
@38802 Channel: 7 Note on, G3 key=55 velocity: 0
@38820 Channel: 7 Note on, F4 key=65 velocity: 91
@38820 Channel: 7 Note on, G3 key=55 velocity: 91
@38820 Channel: 7 Note on, C4 key=60 velocity: 91
@38847 Channel: 7 Note on, C4 key=60 velocity: 0
@38847 Channel: 7 Note on, G3 key=55 velocity: 0
@38850 Channel: 7 Note on, F4 key=65 velocity: 0
@38880 Channel: 7 Note on, C4 key=60 velocity: 91
@38880 Channel: 7 Note on, E4 key=64 velocity: 91
@38880 Channel: 7 Note on, G3 key=55 velocity: 91
@38901 Channel: 7 Note on, G3 key=55 velocity: 0
@38901 Channel: 7 Note on, E4 key=64 velocity: 0
@38901 Channel: 7 Note on, C4 key=60 velocity: 0
@38940 Channel: 7 Note on, C4 key=60 velocity: 90
@38940 Channel: 7 Note on, E4 key=64 velocity: 90
@38940 Channel: 7 Note on, G3 key=55 velocity: 90
@38952 Channel: 7 Note on, G3 key=55 velocity: 0
@38952 Channel: 7 Note on, E4 key=64 velocity: 0
@38952 Channel: 7 Note on, C4 key=60 velocity: 0
@38970 Channel: 7 Note on, E4 key=64 velocity: 90
@38970 Channel: 7 Note on, G3 key=55 velocity: 90
@38970 Channel: 7 Note on, C4 key=60 velocity: 90
@38991 Channel: 7 Note on, C4 key=60 velocity: 0
@38993 Channel: 7 Note on, G3 key=55 velocity: 0
@38993 Channel: 7 Note on, E4 key=64 velocity: 0
@39030 Channel: 7 Note on, G3 key=55 velocity: 90
@39030 Channel: 7 Note on, E4 key=64 velocity: 90
@39030 Channel: 7 Note on, C4 key=60 velocity: 90
@39042 Channel: 7 Note on, C4 key=60 velocity: 0
@39042 Channel: 7 Note on, E4 key=64 velocity: 0
@39042 Channel: 7 Note on, G3 key=55 velocity: 0
@39060 Channel: 7 Note on, E4 key=64 velocity: 90
@39060 Channel: 7 Note on, G3 key=55 velocity: 90
@39060 Channel: 7 Note on, C4 key=60 velocity: 90
@39083 Channel: 7 Note on, C4 key=60 velocity: 0
@39083 Channel: 7 Note on, G3 key=55 velocity: 0
@39083 Channel: 7 Note on, E4 key=64 velocity: 0
@39120 Channel: 7 Note on, C4 key=60 velocity: 90
@39120 Channel: 7 Note on, G3 key=55 velocity: 90
@39120 Channel: 7 Note on, F4 key=65 velocity: 90
@39143 Channel: 7 Note on, F4 key=65 velocity: 0
@39143 Channel: 7 Note on, G3 key=55 velocity: 0
@39143 Channel: 7 Note on, C4 key=60 velocity: 0
@39180 Channel: 7 Note on, C4 key=60 velocity: 92
@39180 Channel: 7 Note on, F4 key=65 velocity: 92
@39180 Channel: 7 Note on, G3 key=55 velocity: 92
@39192 Channel: 7 Note on, G3 key=55 velocity: 0
@39192 Channel: 7 Note on, F4 key=65 velocity: 0
@39192 Channel: 7 Note on, C4 key=60 velocity: 0
@39210 Channel: 7 Note on, F4 key=65 velocity: 90
@39210 Channel: 7 Note on, C4 key=60 velocity: 90
@39210 Channel: 7 Note on, G3 key=55 velocity: 90
@39231 Channel: 7 Note on, C4 key=60 velocity: 0
@39231 Channel: 7 Note on, F4 key=65 velocity: 0
@39233 Channel: 7 Note on, G3 key=55 velocity: 0
@39270 Channel: 7 Note on, F4 key=65 velocity: 90
@39270 Channel: 7 Note on, C4 key=60 velocity: 90
@39270 Channel: 7 Note on, G3 key=55 velocity: 90
@39279 Channel: 7 Note on, G3 key=55 velocity: 0
@39279 Channel: 7 Note on, C4 key=60 velocity: 0
@39282 Channel: 7 Note on, F4 key=65 velocity: 0
@39300 Channel: 7 Note on, F4 key=65 velocity: 89
@39300 Channel: 7 Note on, G3 key=55 velocity: 89
@39300 Channel: 7 Note on, C4 key=60 velocity: 89
@39321 Channel: 7 Note on, F4 key=65 velocity: 0
@39323 Channel: 7 Note on, C4 key=60 velocity: 0
@39323 Channel: 7 Note on, G3 key=55 velocity: 0
@39360 Channel: 7 Note on, C4 key=60 velocity: 89
@39360 Channel: 7 Note on, E4 key=64 velocity: 89
@39360 Channel: 7 Note on, A3 key=57 velocity: 89
@39383 Channel: 7 Note on, A3 key=57 velocity: 0
@39383 Channel: 7 Note on, E4 key=64 velocity: 0
@39386 Channel: 7 Note on, C4 key=60 velocity: 0
@39420 Channel: 7 Note on, A3 key=57 velocity: 89
@39420 Channel: 7 Note on, C4 key=60 velocity: 89
@39420 Channel: 7 Note on, E4 key=64 velocity: 89
@39432 Channel: 7 Note on, E4 key=64 velocity: 0
@39432 Channel: 7 Note on, C4 key=60 velocity: 0
@39434 Channel: 7 Note on, A3 key=57 velocity: 0
@39450 Channel: 7 Note on, A3 key=57 velocity: 89
@39450 Channel: 7 Note on, E4 key=64 velocity: 89
@39450 Channel: 7 Note on, C4 key=60 velocity: 89
@39471 Channel: 7 Note on, C4 key=60 velocity: 0
@39473 Channel: 7 Note on, E4 key=64 velocity: 0
@39473 Channel: 7 Note on, A3 key=57 velocity: 0
@39510 Channel: 7 Note on, C4 key=60 velocity: 88
@39510 Channel: 7 Note on, A3 key=57 velocity: 88
@39510 Channel: 7 Note on, E4 key=64 velocity: 88
@39519 Channel: 7 Note on, E4 key=64 velocity: 0
@39519 Channel: 7 Note on, A3 key=57 velocity: 0
@39519 Channel: 7 Note on, C4 key=60 velocity: 0
@39540 Channel: 7 Note on, A3 key=57 velocity: 88
@39540 Channel: 7 Note on, C4 key=60 velocity: 88
@39540 Channel: 7 Note on, E4 key=64 velocity: 88
@39563 Channel: 7 Note on, E4 key=64 velocity: 0
@39563 Channel: 7 Note on, C4 key=60 velocity: 0
@39563 Channel: 7 Note on, A3 key=57 velocity: 0
@39600 Channel: 7 Note on, A3 key=57 velocity: 89
@39600 Channel: 7 Note on, C4 key=60 velocity: 89
@39600 Channel: 7 Note on, E4 key=64 velocity: 89
@39623 Channel: 7 Note on, E4 key=64 velocity: 0
@39623 Channel: 7 Note on, C4 key=60 velocity: 0
@39623 Channel: 7 Note on, A3 key=57 velocity: 0
@39660 Channel: 7 Note on, A3 key=57 velocity: 89
@39660 Channel: 7 Note on, E4 key=64 velocity: 89
@39660 Channel: 7 Note on, C4 key=60 velocity: 89
@39669 Channel: 7 Note on, C4 key=60 velocity: 0
@39672 Channel: 7 Note on, E4 key=64 velocity: 0
@39672 Channel: 7 Note on, A3 key=57 velocity: 0
@39690 Channel: 7 Note on, A3 key=57 velocity: 89
@39690 Channel: 7 Note on, C4 key=60 velocity: 89
@39690 Channel: 7 Note on, E4 key=64 velocity: 89
@39711 Channel: 7 Note on, E4 key=64 velocity: 0
@39711 Channel: 7 Note on, C4 key=60 velocity: 0
@39713 Channel: 7 Note on, A3 key=57 velocity: 0
@39750 Channel: 7 Note on, A3 key=57 velocity: 90
@39750 Channel: 7 Note on, C4 key=60 velocity: 90
@39750 Channel: 7 Note on, E4 key=64 velocity: 90
@39759 Channel: 7 Note on, E4 key=64 velocity: 0
@39759 Channel: 7 Note on, C4 key=60 velocity: 0
@39759 Channel: 7 Note on, A3 key=57 velocity: 0
@39780 Channel: 7 Note on, A3 key=57 velocity: 90
@39780 Channel: 7 Note on, E4 key=64 velocity: 90
@39780 Channel: 7 Note on, C4 key=60 velocity: 90
@39797 Channel: 7 Note on, C4 key=60 velocity: 0
@39797 Channel: 7 Note on, E4 key=64 velocity: 0
@39798 Channel: 7 Note on, A3 key=57 velocity: 0
@39840 Channel: 7 Note on, A3 key=57 velocity: 90
@39840 Channel: 7 Note on, E4 key=64 velocity: 90
@39840 Channel: 7 Note on, C4 key=60 velocity: 90
@39861 Channel: 7 Note on, C4 key=60 velocity: 0
@39863 Channel: 7 Note on, E4 key=64 velocity: 0
@39863 Channel: 7 Note on, A3 key=57 velocity: 0
@39900 Channel: 7 Note on, A3 key=57 velocity: 90
@39900 Channel: 7 Note on, C4 key=60 velocity: 90
@39900 Channel: 7 Note on, E4 key=64 velocity: 90
@39909 Channel: 7 Note on, C4 key=60 velocity: 0
@39912 Channel: 7 Note on, E4 key=64 velocity: 0
@39912 Channel: 7 Note on, A3 key=57 velocity: 0
@39930 Channel: 7 Note on, A3 key=57 velocity: 90
@39930 Channel: 7 Note on, E4 key=64 velocity: 90
@39930 Channel: 7 Note on, C4 key=60 velocity: 90
@39947 Channel: 7 Note on, C4 key=60 velocity: 0
@39948 Channel: 7 Note on, E4 key=64 velocity: 0
@39951 Channel: 7 Note on, A3 key=57 velocity: 0
@39990 Channel: 7 Note on, A3 key=57 velocity: 91
@39990 Channel: 7 Note on, C4 key=60 velocity: 91
@39990 Channel: 7 Note on, E4 key=64 velocity: 91
@39998 Channel: 7 Note on, E4 key=64 velocity: 0
@39998 Channel: 7 Note on, C4 key=60 velocity: 0
@40002 Channel: 7 Note on, A3 key=57 velocity: 0
@40020 Channel: 7 Note on, A3 key=57 velocity: 91
@40020 Channel: 7 Note on, C4 key=60 velocity: 91
@40020 Channel: 7 Note on, E4 key=64 velocity: 91
@40038 Channel: 7 Note on, C4 key=60 velocity: 0
@40041 Channel: 7 Note on, E4 key=64 velocity: 0
@40041 Channel: 7 Note on, A3 key=57 velocity: 0
@40080 Channel: 7 Note on, A3 key=57 velocity: 92
@40080 Channel: 7 Note on, E4 key=64 velocity: 92
@40080 Channel: 7 Note on, C4 key=60 velocity: 92
@40101 Channel: 7 Note on, C4 key=60 velocity: 0
@40103 Channel: 7 Note on, E4 key=64 velocity: 0
@40103 Channel: 7 Note on, A3 key=57 velocity: 0
@40140 Channel: 7 Note on, A3 key=57 velocity: 92
@40140 Channel: 7 Note on, C4 key=60 velocity: 92
@40140 Channel: 7 Note on, E4 key=64 velocity: 92
@40149 Channel: 7 Note on, E4 key=64 velocity: 0
@40149 Channel: 7 Note on, C4 key=60 velocity: 0
@40152 Channel: 7 Note on, A3 key=57 velocity: 0
@40170 Channel: 7 Note on, A3 key=57 velocity: 92
@40170 Channel: 7 Note on, E4 key=64 velocity: 92
@40170 Channel: 7 Note on, C4 key=60 velocity: 92
@40191 Channel: 7 Note on, C4 key=60 velocity: 0
@40191 Channel: 7 Note on, E4 key=64 velocity: 0
@40193 Channel: 7 Note on, A3 key=57 velocity: 0
@40230 Channel: 7 Note on, A3 key=57 velocity: 92
@40230 Channel: 7 Note on, C4 key=60 velocity: 92
@40230 Channel: 7 Note on, E4 key=64 velocity: 92
@40239 Channel: 7 Note on, E4 key=64 velocity: 0
@40239 Channel: 7 Note on, C4 key=60 velocity: 0
@40244 Channel: 7 Note on, A3 key=57 velocity: 0
@40260 Channel: 7 Note on, E4 key=64 velocity: 91
@40260 Channel: 7 Note on, A3 key=57 velocity: 91
@40260 Channel: 7 Note on, C4 key=60 velocity: 91
@40278 Channel: 7 Note on, C4 key=60 velocity: 0
@40278 Channel: 7 Note on, E4 key=64 velocity: 0
@40281 Channel: 7 Note on, A3 key=57 velocity: 0
@40320 Channel: 7 Note on, C4 key=60 velocity: 91
@40320 Channel: 7 Note on, F4 key=65 velocity: 91
@40320 Channel: 7 Note on, A3 key=57 velocity: 91
@40341 Channel: 7 Note on, A3 key=57 velocity: 0
@40341 Channel: 7 Note on, C4 key=60 velocity: 0
@40343 Channel: 7 Note on, F4 key=65 velocity: 0
@40380 Channel: 7 Note on, F4 key=65 velocity: 91
@40380 Channel: 7 Note on, C4 key=60 velocity: 91
@40380 Channel: 7 Note on, A3 key=57 velocity: 91
@40389 Channel: 7 Note on, C4 key=60 velocity: 0
@40392 Channel: 7 Note on, A3 key=57 velocity: 0
@40392 Channel: 7 Note on, F4 key=65 velocity: 0
@40410 Channel: 7 Note on, A3 key=57 velocity: 91
@40410 Channel: 7 Note on, F4 key=65 velocity: 91
@40410 Channel: 7 Note on, C4 key=60 velocity: 91
@40431 Channel: 7 Note on, C4 key=60 velocity: 0
@40431 Channel: 7 Note on, F4 key=65 velocity: 0
@40431 Channel: 7 Note on, A3 key=57 velocity: 0
@40470 Channel: 7 Note on, A3 key=57 velocity: 90
@40470 Channel: 7 Note on, C4 key=60 velocity: 90
@40470 Channel: 7 Note on, F4 key=65 velocity: 90
@40479 Channel: 7 Note on, F4 key=65 velocity: 0
@40479 Channel: 7 Note on, C4 key=60 velocity: 0
@40482 Channel: 7 Note on, A3 key=57 velocity: 0
@40500 Channel: 7 Note on, A3 key=57 velocity: 90
@40500 Channel: 7 Note on, F4 key=65 velocity: 90
@40500 Channel: 7 Note on, C4 key=60 velocity: 90
@40518 Channel: 7 Note on, C4 key=60 velocity: 0
@40518 Channel: 7 Note on, F4 key=65 velocity: 0
@40518 Channel: 7 Note on, A3 key=57 velocity: 0
@40560 Channel: 7 Note on, C4 key=60 velocity: 90
@40560 Channel: 7 Note on, G3 key=55 velocity: 90
@40560 Channel: 7 Note on, F4 key=65 velocity: 90
@40581 Channel: 7 Note on, F4 key=65 velocity: 0
@40581 Channel: 7 Note on, G3 key=55 velocity: 0
@40581 Channel: 7 Note on, C4 key=60 velocity: 0
@40620 Channel: 7 Note on, G3 key=55 velocity: 90
@40620 Channel: 7 Note on, C4 key=60 velocity: 90
@40620 Channel: 7 Note on, F4 key=65 velocity: 90
@40632 Channel: 7 Note on, F4 key=65 velocity: 0
@40632 Channel: 7 Note on, C4 key=60 velocity: 0
@40632 Channel: 7 Note on, G3 key=55 velocity: 0
@40650 Channel: 7 Note on, G3 key=55 velocity: 90
@40650 Channel: 7 Note on, F4 key=65 velocity: 90
@40650 Channel: 7 Note on, C4 key=60 velocity: 90
@40667 Channel: 7 Note on, C4 key=60 velocity: 0
@40667 Channel: 7 Note on, F4 key=65 velocity: 0
@40671 Channel: 7 Note on, G3 key=55 velocity: 0
@40710 Channel: 7 Note on, G3 key=55 velocity: 90
@40710 Channel: 7 Note on, C4 key=60 velocity: 90
@40710 Channel: 7 Note on, F4 key=65 velocity: 90
@40722 Channel: 7 Note on, F4 key=65 velocity: 0
@40722 Channel: 7 Note on, C4 key=60 velocity: 0
@40722 Channel: 7 Note on, G3 key=55 velocity: 0
@40740 Channel: 7 Note on, G3 key=55 velocity: 91
@40740 Channel: 7 Note on, F4 key=65 velocity: 91
@40740 Channel: 7 Note on, C4 key=60 velocity: 91
@40761 Channel: 7 Note on, C4 key=60 velocity: 0
@40761 Channel: 7 Note on, F4 key=65 velocity: 0
@40761 Channel: 7 Note on, G3 key=55 velocity: 0
@40800 Channel: 7 Note on, A3 key=57 velocity: 91
@40800 Channel: 7 Note on, C4 key=60 velocity: 91
@40800 Channel: 7 Note on, F4 key=65 velocity: 91
@40817 Channel: 7 Note on, F4 key=65 velocity: 0
@40818 Channel: 7 Note on, C4 key=60 velocity: 0
@40821 Channel: 7 Note on, A3 key=57 velocity: 0
@40860 Channel: 7 Note on, F4 key=65 velocity: 91
@40860 Channel: 7 Note on, A3 key=57 velocity: 91
@40860 Channel: 7 Note on, C4 key=60 velocity: 91
@40869 Channel: 7 Note on, C4 key=60 velocity: 0
@40869 Channel: 7 Note on, A3 key=57 velocity: 0
@40869 Channel: 7 Note on, F4 key=65 velocity: 0
@40890 Channel: 7 Note on, A3 key=57 velocity: 91
@40890 Channel: 7 Note on, F4 key=65 velocity: 91
@40890 Channel: 7 Note on, C4 key=60 velocity: 91
@40907 Channel: 7 Note on, C4 key=60 velocity: 0
@40908 Channel: 7 Note on, F4 key=65 velocity: 0
@40911 Channel: 7 Note on, A3 key=57 velocity: 0
@40950 Channel: 7 Note on, A3 key=57 velocity: 91
@40950 Channel: 7 Note on, F4 key=65 velocity: 91
@40950 Channel: 7 Note on, C4 key=60 velocity: 91
@40959 Channel: 7 Note on, C4 key=60 velocity: 0
@40962 Channel: 7 Note on, F4 key=65 velocity: 0
@40962 Channel: 7 Note on, A3 key=57 velocity: 0
@40980 Channel: 7 Note on, F4 key=65 velocity: 91
@40980 Channel: 7 Note on, A3 key=57 velocity: 91
@40980 Channel: 7 Note on, C4 key=60 velocity: 91
@40998 Channel: 7 Note on, C4 key=60 velocity: 0
@41001 Channel: 7 Note on, A3 key=57 velocity: 0
@41001 Channel: 7 Note on, F4 key=65 velocity: 0
@41040 Channel: 7 Note on, C4 key=60 velocity: 91
@41040 Channel: 7 Note on, F4 key=65 velocity: 91
@41040 Channel: 7 Note on, G3 key=55 velocity: 91
@41057 Channel: 7 Note on, G3 key=55 velocity: 0
@41058 Channel: 7 Note on, F4 key=65 velocity: 0
@41058 Channel: 7 Note on, C4 key=60 velocity: 0
@41100 Channel: 7 Note on, C4 key=60 velocity: 90
@41100 Channel: 7 Note on, G3 key=55 velocity: 90
@41100 Channel: 7 Note on, F4 key=65 velocity: 90
@41112 Channel: 7 Note on, F4 key=65 velocity: 0
@41112 Channel: 7 Note on, G3 key=55 velocity: 0
@41112 Channel: 7 Note on, C4 key=60 velocity: 0
@41130 Channel: 7 Note on, F4 key=65 velocity: 90
@41130 Channel: 7 Note on, G3 key=55 velocity: 90
@41130 Channel: 7 Note on, C4 key=60 velocity: 90
@41148 Channel: 7 Note on, C4 key=60 velocity: 0
@41151 Channel: 7 Note on, G3 key=55 velocity: 0
@41151 Channel: 7 Note on, F4 key=65 velocity: 0
@41190 Channel: 7 Note on, C4 key=60 velocity: 90
@41190 Channel: 7 Note on, F4 key=65 velocity: 90
@41190 Channel: 7 Note on, G3 key=55 velocity: 90
@41202 Channel: 7 Note on, G3 key=55 velocity: 0
@41202 Channel: 7 Note on, F4 key=65 velocity: 0
@41202 Channel: 7 Note on, C4 key=60 velocity: 0
@41220 Channel: 7 Note on, F4 key=65 velocity: 90
@41220 Channel: 7 Note on, C4 key=60 velocity: 90
@41220 Channel: 7 Note on, G3 key=55 velocity: 90
@41237 Channel: 7 Note on, F4 key=65 velocity: 0
@41238 Channel: 7 Note on, C4 key=60 velocity: 0
@41241 Channel: 7 Note on, G3 key=55 velocity: 0
@41280 Channel: 7 Note on, B3 key=59 velocity: 91
@41280 Channel: 7 Note on, G3 key=55 velocity: 91
@41280 Channel: 7 Note on, E4 key=64 velocity: 91
@41298 Channel: 7 Note on, E4 key=64 velocity: 0
@41298 Channel: 7 Note on, B3 key=59 velocity: 0
@41301 Channel: 7 Note on, G3 key=55 velocity: 0
@41340 Channel: 7 Note on, E4 key=64 velocity: 91
@41340 Channel: 7 Note on, B3 key=59 velocity: 91
@41340 Channel: 7 Note on, G3 key=55 velocity: 91
@41349 Channel: 7 Note on, G3 key=55 velocity: 0
@41349 Channel: 7 Note on, B3 key=59 velocity: 0
@41352 Channel: 7 Note on, E4 key=64 velocity: 0
@41370 Channel: 7 Note on, E4 key=64 velocity: 91
@41370 Channel: 7 Note on, G3 key=55 velocity: 91
@41370 Channel: 7 Note on, B3 key=59 velocity: 91
@41388 Channel: 7 Note on, B3 key=59 velocity: 0
@41388 Channel: 7 Note on, G3 key=55 velocity: 0
@41391 Channel: 7 Note on, E4 key=64 velocity: 0
@41430 Channel: 7 Note on, E4 key=64 velocity: 91
@41430 Channel: 7 Note on, B3 key=59 velocity: 91
@41430 Channel: 7 Note on, G3 key=55 velocity: 91
@41439 Channel: 7 Note on, G3 key=55 velocity: 0
@41439 Channel: 7 Note on, B3 key=59 velocity: 0
@41439 Channel: 7 Note on, E4 key=64 velocity: 0
@41460 Channel: 7 Note on, G3 key=55 velocity: 91
@41460 Channel: 7 Note on, E4 key=64 velocity: 91
@41460 Channel: 7 Note on, B3 key=59 velocity: 91
@41477 Channel: 7 Note on, B3 key=59 velocity: 0
@41477 Channel: 7 Note on, E4 key=64 velocity: 0
@41478 Channel: 7 Note on, G3 key=55 velocity: 0
@41520 Channel: 7 Note on, E4 key=64 velocity: 92
@41520 Channel: 7 Note on, G3 key=55 velocity: 92
@41520 Channel: 7 Note on, B3 key=59 velocity: 92
@41541 Channel: 7 Note on, B3 key=59 velocity: 0
@41543 Channel: 7 Note on, G3 key=55 velocity: 0
@41543 Channel: 7 Note on, E4 key=64 velocity: 0
@41580 Channel: 7 Note on, G3 key=55 velocity: 92
@41580 Channel: 7 Note on, B3 key=59 velocity: 92
@41580 Channel: 7 Note on, E4 key=64 velocity: 92
@41589 Channel: 7 Note on, E4 key=64 velocity: 0
@41589 Channel: 7 Note on, B3 key=59 velocity: 0
@41589 Channel: 7 Note on, G3 key=55 velocity: 0
@41610 Channel: 7 Note on, G3 key=55 velocity: 92
@41610 Channel: 7 Note on, E4 key=64 velocity: 92
@41610 Channel: 7 Note on, B3 key=59 velocity: 92
@41627 Channel: 7 Note on, B3 key=59 velocity: 0
@41627 Channel: 7 Note on, E4 key=64 velocity: 0
@41628 Channel: 7 Note on, G3 key=55 velocity: 0
@41670 Channel: 7 Note on, B3 key=59 velocity: 92
@41670 Channel: 7 Note on, G3 key=55 velocity: 92
@41670 Channel: 7 Note on, E4 key=64 velocity: 92
@41679 Channel: 7 Note on, E4 key=64 velocity: 0
@41679 Channel: 7 Note on, B3 key=59 velocity: 0
@41682 Channel: 7 Note on, G3 key=55 velocity: 0
@41700 Channel: 7 Note on, G3 key=55 velocity: 92
@41700 Channel: 7 Note on, E4 key=64 velocity: 92
@41700 Channel: 7 Note on, B3 key=59 velocity: 92
@41718 Channel: 7 Note on, B3 key=59 velocity: 0
@41718 Channel: 7 Note on, E4 key=64 velocity: 0
@41721 Channel: 7 Note on, G3 key=55 velocity: 0
@41760 Channel: 7 Note on, A3 key=57 velocity: 92
@41760 Channel: 7 Note on, C4 key=60 velocity: 92
@41760 Channel: 7 Note on, F4 key=65 velocity: 92
@41781 Channel: 7 Note on, C4 key=60 velocity: 0
@41781 Channel: 7 Note on, A3 key=57 velocity: 0
@41783 Channel: 7 Note on, F4 key=65 velocity: 0
@41820 Channel: 7 Note on, A3 key=57 velocity: 92
@41820 Channel: 7 Note on, F4 key=65 velocity: 92
@41820 Channel: 7 Note on, C4 key=60 velocity: 92
@41829 Channel: 7 Note on, C4 key=60 velocity: 0
@41829 Channel: 7 Note on, F4 key=65 velocity: 0
@41829 Channel: 7 Note on, A3 key=57 velocity: 0
@41850 Channel: 7 Note on, F4 key=65 velocity: 92
@41850 Channel: 7 Note on, A3 key=57 velocity: 92
@41850 Channel: 7 Note on, C4 key=60 velocity: 92
@41868 Channel: 7 Note on, C4 key=60 velocity: 0
@41871 Channel: 7 Note on, A3 key=57 velocity: 0
@41871 Channel: 7 Note on, F4 key=65 velocity: 0
@41910 Channel: 7 Note on, C4 key=60 velocity: 90
@41910 Channel: 7 Note on, F4 key=65 velocity: 90
@41910 Channel: 7 Note on, A3 key=57 velocity: 90
@41919 Channel: 7 Note on, C4 key=60 velocity: 0
@41922 Channel: 7 Note on, A3 key=57 velocity: 0
@41922 Channel: 7 Note on, F4 key=65 velocity: 0
@41940 Channel: 7 Note on, F4 key=65 velocity: 90
@41940 Channel: 7 Note on, A3 key=57 velocity: 90
@41940 Channel: 7 Note on, C4 key=60 velocity: 90
@41958 Channel: 7 Note on, C4 key=60 velocity: 0
@41958 Channel: 7 Note on, A3 key=57 velocity: 0
@41961 Channel: 7 Note on, F4 key=65 velocity: 0
@42000 Channel: 7 Note on, B3 key=59 velocity: 90
@42000 Channel: 7 Note on, D4 key=62 velocity: 90
@42000 Channel: 7 Note on, G4 key=67 velocity: 90
@42021 Channel: 7 Note on, D4 key=62 velocity: 0
@42023 Channel: 7 Note on, G4 key=67 velocity: 0
@42023 Channel: 7 Note on, B3 key=59 velocity: 0
@42060 Channel: 7 Note on, G4 key=67 velocity: 90
@42060 Channel: 7 Note on, B3 key=59 velocity: 90
@42060 Channel: 7 Note on, D4 key=62 velocity: 90
@42069 Channel: 7 Note on, D4 key=62 velocity: 0
@42069 Channel: 7 Note on, B3 key=59 velocity: 0
@42072 Channel: 7 Note on, G4 key=67 velocity: 0
@42090 Channel: 7 Note on, G4 key=67 velocity: 90
@42090 Channel: 7 Note on, D4 key=62 velocity: 90
@42090 Channel: 7 Note on, B3 key=59 velocity: 90
@42111 Channel: 7 Note on, B3 key=59 velocity: 0
@42111 Channel: 7 Note on, D4 key=62 velocity: 0
@42111 Channel: 7 Note on, G4 key=67 velocity: 0
@42150 Channel: 7 Note on, G4 key=67 velocity: 89
@42150 Channel: 7 Note on, D4 key=62 velocity: 89
@42150 Channel: 7 Note on, B3 key=59 velocity: 89
@42159 Channel: 7 Note on, B3 key=59 velocity: 0
@42159 Channel: 7 Note on, D4 key=62 velocity: 0
@42159 Channel: 7 Note on, G4 key=67 velocity: 0
@42180 Channel: 7 Note on, B3 key=59 velocity: 89
@42180 Channel: 7 Note on, G4 key=67 velocity: 89
@42180 Channel: 7 Note on, D4 key=62 velocity: 89
@42180 Channel: 7 Note on, F4 key=65 velocity: 89
@42188 Channel: 7 Note on, F4 key=65 velocity: 0
@42207 Channel: 7 Note on, B3 key=59 velocity: 0
@42207 Channel: 7 Note on, G4 key=67 velocity: 0
@42207 Channel: 7 Note on, D4 key=62 velocity: 0
@42240 Channel: 7 Note on, C4 key=60 velocity: 88
@42240 Channel: 7 Note on, G3 key=55 velocity: 88
@42240 Channel: 7 Note on, E4 key=64 velocity: 88
@42270 Channel: 7 Note on, E4 key=64 velocity: 0
@42270 Channel: 7 Note on, G3 key=55 velocity: 0
@42270 Channel: 7 Note on, C4 key=60 velocity: 0
@42300 Channel: 7 Note on, E4 key=64 velocity: 88
@42300 Channel: 7 Note on, G3 key=55 velocity: 88
@42300 Channel: 7 Note on, C4 key=60 velocity: 88
@42312 Channel: 7 Note on, C4 key=60 velocity: 0
@42312 Channel: 7 Note on, G3 key=55 velocity: 0
@42312 Channel: 7 Note on, E4 key=64 velocity: 0
@42330 Channel: 7 Note on, C4 key=60 velocity: 89
@42330 Channel: 7 Note on, G3 key=55 velocity: 89
@42330 Channel: 7 Note on, E4 key=64 velocity: 89
@42360 Channel: 7 Note on, E4 key=64 velocity: 0
@42360 Channel: 7 Note on, G3 key=55 velocity: 0
@42360 Channel: 7 Note on, C4 key=60 velocity: 0
@42390 Channel: 7 Note on, G3 key=55 velocity: 89
@42390 Channel: 7 Note on, C4 key=60 velocity: 89
@42390 Channel: 7 Note on, E4 key=64 velocity: 89
@42402 Channel: 7 Note on, E4 key=64 velocity: 0
@42402 Channel: 7 Note on, C4 key=60 velocity: 0
@42402 Channel: 7 Note on, G3 key=55 velocity: 0
@42420 Channel: 7 Note on, G3 key=55 velocity: 89
@42420 Channel: 7 Note on, C4 key=60 velocity: 89
@42420 Channel: 7 Note on, E4 key=64 velocity: 89
@42450 Channel: 7 Note on, E4 key=64 velocity: 0
@42450 Channel: 7 Note on, C4 key=60 velocity: 0
@42450 Channel: 7 Note on, G3 key=55 velocity: 0
@42480 Channel: 7 Note on, F4 key=65 velocity: 89
@42480 Channel: 7 Note on, G3 key=55 velocity: 89
@42480 Channel: 7 Note on, C4 key=60 velocity: 89
@42510 Channel: 7 Note on, C4 key=60 velocity: 0
@42510 Channel: 7 Note on, G3 key=55 velocity: 0
@42510 Channel: 7 Note on, F4 key=65 velocity: 0
@42540 Channel: 7 Note on, G3 key=55 velocity: 90
@42540 Channel: 7 Note on, C4 key=60 velocity: 90
@42540 Channel: 7 Note on, F4 key=65 velocity: 90
@42552 Channel: 7 Note on, F4 key=65 velocity: 0
@42552 Channel: 7 Note on, C4 key=60 velocity: 0
@42552 Channel: 7 Note on, G3 key=55 velocity: 0
@42570 Channel: 7 Note on, F4 key=65 velocity: 90
@42570 Channel: 7 Note on, C4 key=60 velocity: 90
@42570 Channel: 7 Note on, G3 key=55 velocity: 90
@42600 Channel: 7 Note on, G3 key=55 velocity: 0
@42600 Channel: 7 Note on, C4 key=60 velocity: 0
@42600 Channel: 7 Note on, F4 key=65 velocity: 0
@42630 Channel: 7 Note on, G3 key=55 velocity: 90
@42630 Channel: 7 Note on, C4 key=60 velocity: 90
@42630 Channel: 7 Note on, F4 key=65 velocity: 90
@42642 Channel: 7 Note on, F4 key=65 velocity: 0
@42642 Channel: 7 Note on, C4 key=60 velocity: 0
@42642 Channel: 7 Note on, G3 key=55 velocity: 0
@42660 Channel: 7 Note on, F4 key=65 velocity: 90
@42660 Channel: 7 Note on, G3 key=55 velocity: 90
@42660 Channel: 7 Note on, C4 key=60 velocity: 90
@42690 Channel: 7 Note on, C4 key=60 velocity: 0
@42690 Channel: 7 Note on, G3 key=55 velocity: 0
@42690 Channel: 7 Note on, F4 key=65 velocity: 0
@42720 Channel: 7 Note on, C4 key=60 velocity: 90
@42720 Channel: 7 Note on, G3 key=55 velocity: 90
@42720 Channel: 7 Note on, E4 key=64 velocity: 90
@42750 Channel: 7 Note on, E4 key=64 velocity: 0
@42750 Channel: 7 Note on, G3 key=55 velocity: 0
@42750 Channel: 7 Note on, C4 key=60 velocity: 0
@42780 Channel: 7 Note on, E4 key=64 velocity: 90
@42780 Channel: 7 Note on, G3 key=55 velocity: 90
@42780 Channel: 7 Note on, C4 key=60 velocity: 90
@42792 Channel: 7 Note on, C4 key=60 velocity: 0
@42792 Channel: 7 Note on, G3 key=55 velocity: 0
@42792 Channel: 7 Note on, E4 key=64 velocity: 0
@42810 Channel: 7 Note on, C4 key=60 velocity: 90
@42810 Channel: 7 Note on, G3 key=55 velocity: 90
@42810 Channel: 7 Note on, E4 key=64 velocity: 90
@42840 Channel: 7 Note on, E4 key=64 velocity: 0
@42840 Channel: 7 Note on, G3 key=55 velocity: 0
@42840 Channel: 7 Note on, C4 key=60 velocity: 0
@42870 Channel: 7 Note on, G3 key=55 velocity: 90
@42870 Channel: 7 Note on, C4 key=60 velocity: 90
@42870 Channel: 7 Note on, E4 key=64 velocity: 90
@42882 Channel: 7 Note on, E4 key=64 velocity: 0
@42882 Channel: 7 Note on, C4 key=60 velocity: 0
@42882 Channel: 7 Note on, G3 key=55 velocity: 0
@42900 Channel: 7 Note on, G3 key=55 velocity: 90
@42900 Channel: 7 Note on, C4 key=60 velocity: 90
@42900 Channel: 7 Note on, E4 key=64 velocity: 90
@42930 Channel: 7 Note on, E4 key=64 velocity: 0
@42930 Channel: 7 Note on, C4 key=60 velocity: 0
@42930 Channel: 7 Note on, G3 key=55 velocity: 0
@42960 Channel: 7 Note on, F4 key=65 velocity: 90
@42960 Channel: 7 Note on, G3 key=55 velocity: 90
@42960 Channel: 7 Note on, C4 key=60 velocity: 90
@42990 Channel: 7 Note on, C4 key=60 velocity: 0
@42990 Channel: 7 Note on, G3 key=55 velocity: 0
@42990 Channel: 7 Note on, F4 key=65 velocity: 0
@43020 Channel: 7 Note on, G3 key=55 velocity: 90
@43020 Channel: 7 Note on, C4 key=60 velocity: 90
@43020 Channel: 7 Note on, F4 key=65 velocity: 90
@43032 Channel: 7 Note on, F4 key=65 velocity: 0
@43032 Channel: 7 Note on, C4 key=60 velocity: 0
@43032 Channel: 7 Note on, G3 key=55 velocity: 0
@43050 Channel: 7 Note on, F4 key=65 velocity: 90
@43050 Channel: 7 Note on, C4 key=60 velocity: 90
@43050 Channel: 7 Note on, G3 key=55 velocity: 90
@43080 Channel: 7 Note on, G3 key=55 velocity: 0
@43080 Channel: 7 Note on, C4 key=60 velocity: 0
@43080 Channel: 7 Note on, F4 key=65 velocity: 0
@43110 Channel: 7 Note on, G3 key=55 velocity: 90
@43110 Channel: 7 Note on, C4 key=60 velocity: 90
@43110 Channel: 7 Note on, F4 key=65 velocity: 90
@43122 Channel: 7 Note on, F4 key=65 velocity: 0
@43122 Channel: 7 Note on, C4 key=60 velocity: 0
@43122 Channel: 7 Note on, G3 key=55 velocity: 0
@43140 Channel: 7 Note on, F4 key=65 velocity: 90
@43140 Channel: 7 Note on, G3 key=55 velocity: 90
@43140 Channel: 7 Note on, C4 key=60 velocity: 90
@43170 Channel: 7 Note on, C4 key=60 velocity: 0
@43170 Channel: 7 Note on, G3 key=55 velocity: 0
@43170 Channel: 7 Note on, F4 key=65 velocity: 0
@43200 Channel: 7 Note on, C4 key=60 velocity: 90
@43200 Channel: 7 Note on, G3 key=55 velocity: 90
@43200 Channel: 7 Note on, E4 key=64 velocity: 90
@43230 Channel: 7 Note on, E4 key=64 velocity: 0
@43230 Channel: 7 Note on, G3 key=55 velocity: 0
@43230 Channel: 7 Note on, C4 key=60 velocity: 0
@43260 Channel: 7 Note on, E4 key=64 velocity: 90
@43260 Channel: 7 Note on, G3 key=55 velocity: 90
@43260 Channel: 7 Note on, C4 key=60 velocity: 90
@43272 Channel: 7 Note on, C4 key=60 velocity: 0
@43272 Channel: 7 Note on, G3 key=55 velocity: 0
@43272 Channel: 7 Note on, E4 key=64 velocity: 0
@43290 Channel: 7 Note on, C4 key=60 velocity: 91
@43290 Channel: 7 Note on, G3 key=55 velocity: 91
@43290 Channel: 7 Note on, E4 key=64 velocity: 91
@43320 Channel: 7 Note on, E4 key=64 velocity: 0
@43320 Channel: 7 Note on, G3 key=55 velocity: 0
@43320 Channel: 7 Note on, C4 key=60 velocity: 0
@43350 Channel: 7 Note on, G3 key=55 velocity: 91
@43350 Channel: 7 Note on, C4 key=60 velocity: 91
@43350 Channel: 7 Note on, E4 key=64 velocity: 91
@43362 Channel: 7 Note on, E4 key=64 velocity: 0
@43362 Channel: 7 Note on, C4 key=60 velocity: 0
@43362 Channel: 7 Note on, G3 key=55 velocity: 0
@43380 Channel: 7 Note on, G3 key=55 velocity: 91
@43380 Channel: 7 Note on, C4 key=60 velocity: 91
@43380 Channel: 7 Note on, E4 key=64 velocity: 91
@43410 Channel: 7 Note on, E4 key=64 velocity: 0
@43410 Channel: 7 Note on, C4 key=60 velocity: 0
@43410 Channel: 7 Note on, G3 key=55 velocity: 0
@43440 Channel: 7 Note on, F4 key=65 velocity: 91
@43440 Channel: 7 Note on, G3 key=55 velocity: 91
@43440 Channel: 7 Note on, C4 key=60 velocity: 91
@43470 Channel: 7 Note on, C4 key=60 velocity: 0
@43470 Channel: 7 Note on, G3 key=55 velocity: 0
@43470 Channel: 7 Note on, F4 key=65 velocity: 0
@43500 Channel: 7 Note on, G3 key=55 velocity: 91
@43500 Channel: 7 Note on, C4 key=60 velocity: 91
@43500 Channel: 7 Note on, F4 key=65 velocity: 91
@43512 Channel: 7 Note on, F4 key=65 velocity: 0
@43512 Channel: 7 Note on, C4 key=60 velocity: 0
@43512 Channel: 7 Note on, G3 key=55 velocity: 0
@43530 Channel: 7 Note on, F4 key=65 velocity: 91
@43530 Channel: 7 Note on, C4 key=60 velocity: 91
@43530 Channel: 7 Note on, G3 key=55 velocity: 91
@43560 Channel: 7 Note on, G3 key=55 velocity: 0
@43560 Channel: 7 Note on, C4 key=60 velocity: 0
@43560 Channel: 7 Note on, F4 key=65 velocity: 0
@43590 Channel: 7 Note on, G3 key=55 velocity: 91
@43590 Channel: 7 Note on, C4 key=60 velocity: 91
@43590 Channel: 7 Note on, F4 key=65 velocity: 91
@43602 Channel: 7 Note on, F4 key=65 velocity: 0
@43602 Channel: 7 Note on, C4 key=60 velocity: 0
@43602 Channel: 7 Note on, G3 key=55 velocity: 0
@43620 Channel: 7 Note on, F4 key=65 velocity: 91
@43620 Channel: 7 Note on, G3 key=55 velocity: 91
@43620 Channel: 7 Note on, C4 key=60 velocity: 91
@43650 Channel: 7 Note on, C4 key=60 velocity: 0
@43650 Channel: 7 Note on, G3 key=55 velocity: 0
@43650 Channel: 7 Note on, F4 key=65 velocity: 0
@43680 Channel: 7 Note on, C4 key=60 velocity: 90
@43680 Channel: 7 Note on, G3 key=55 velocity: 90
@43680 Channel: 7 Note on, E4 key=64 velocity: 90
@43710 Channel: 7 Note on, E4 key=64 velocity: 0
@43710 Channel: 7 Note on, G3 key=55 velocity: 0
@43710 Channel: 7 Note on, C4 key=60 velocity: 0
@43740 Channel: 7 Note on, E4 key=64 velocity: 90
@43740 Channel: 7 Note on, G3 key=55 velocity: 90
@43740 Channel: 7 Note on, C4 key=60 velocity: 90
@43752 Channel: 7 Note on, C4 key=60 velocity: 0
@43752 Channel: 7 Note on, G3 key=55 velocity: 0
@43752 Channel: 7 Note on, E4 key=64 velocity: 0
@43770 Channel: 7 Note on, C4 key=60 velocity: 91
@43770 Channel: 7 Note on, G3 key=55 velocity: 91
@43770 Channel: 7 Note on, E4 key=64 velocity: 91
@43800 Channel: 7 Note on, E4 key=64 velocity: 0
@43800 Channel: 7 Note on, G3 key=55 velocity: 0
@43800 Channel: 7 Note on, C4 key=60 velocity: 0
@43830 Channel: 7 Note on, G3 key=55 velocity: 91
@43830 Channel: 7 Note on, C4 key=60 velocity: 91
@43830 Channel: 7 Note on, E4 key=64 velocity: 91
@43842 Channel: 7 Note on, E4 key=64 velocity: 0
@43842 Channel: 7 Note on, C4 key=60 velocity: 0
@43842 Channel: 7 Note on, G3 key=55 velocity: 0
@43860 Channel: 7 Note on, G3 key=55 velocity: 91
@43860 Channel: 7 Note on, C4 key=60 velocity: 91
@43860 Channel: 7 Note on, E4 key=64 velocity: 91
@43890 Channel: 7 Note on, E4 key=64 velocity: 0
@43890 Channel: 7 Note on, C4 key=60 velocity: 0
@43890 Channel: 7 Note on, G3 key=55 velocity: 0
@43920 Channel: 7 Note on, F4 key=65 velocity: 91
@43920 Channel: 7 Note on, G3 key=55 velocity: 91
@43920 Channel: 7 Note on, C4 key=60 velocity: 91
@43950 Channel: 7 Note on, C4 key=60 velocity: 0
@43950 Channel: 7 Note on, G3 key=55 velocity: 0
@43950 Channel: 7 Note on, F4 key=65 velocity: 0
@43980 Channel: 7 Note on, G3 key=55 velocity: 91
@43980 Channel: 7 Note on, C4 key=60 velocity: 91
@43980 Channel: 7 Note on, F4 key=65 velocity: 91
@43992 Channel: 7 Note on, F4 key=65 velocity: 0
@43992 Channel: 7 Note on, C4 key=60 velocity: 0
@43992 Channel: 7 Note on, G3 key=55 velocity: 0
@44010 Channel: 7 Note on, F4 key=65 velocity: 91
@44010 Channel: 7 Note on, C4 key=60 velocity: 91
@44010 Channel: 7 Note on, G3 key=55 velocity: 91
@44040 Channel: 7 Note on, G3 key=55 velocity: 0
@44040 Channel: 7 Note on, C4 key=60 velocity: 0
@44040 Channel: 7 Note on, F4 key=65 velocity: 0
@44070 Channel: 7 Note on, G3 key=55 velocity: 91
@44070 Channel: 7 Note on, C4 key=60 velocity: 91
@44070 Channel: 7 Note on, F4 key=65 velocity: 91
@44082 Channel: 7 Note on, F4 key=65 velocity: 0
@44082 Channel: 7 Note on, C4 key=60 velocity: 0
@44082 Channel: 7 Note on, G3 key=55 velocity: 0
@44100 Channel: 7 Note on, F4 key=65 velocity: 91
@44100 Channel: 7 Note on, G3 key=55 velocity: 91
@44100 Channel: 7 Note on, C4 key=60 velocity: 91
@44130 Channel: 7 Note on, C4 key=60 velocity: 0
@44130 Channel: 7 Note on, G3 key=55 velocity: 0
@44130 Channel: 7 Note on, F4 key=65 velocity: 0
@44160 Channel: 7 Note on, C4 key=60 velocity: 88
@44160 Channel: 7 Note on, G3 key=55 velocity: 88
@44160 Channel: 7 Note on, E4 key=64 velocity: 88
@44190 Channel: 7 Note on, E4 key=64 velocity: 0
@44190 Channel: 7 Note on, G3 key=55 velocity: 0
@44190 Channel: 7 Note on, C4 key=60 velocity: 0
@44220 Channel: 7 Note on, E4 key=64 velocity: 88
@44220 Channel: 7 Note on, G3 key=55 velocity: 88
@44220 Channel: 7 Note on, C4 key=60 velocity: 88
@44232 Channel: 7 Note on, C4 key=60 velocity: 0
@44232 Channel: 7 Note on, G3 key=55 velocity: 0
@44232 Channel: 7 Note on, E4 key=64 velocity: 0
@44250 Channel: 7 Note on, C4 key=60 velocity: 89
@44250 Channel: 7 Note on, G3 key=55 velocity: 89
@44250 Channel: 7 Note on, E4 key=64 velocity: 89
@44280 Channel: 7 Note on, E4 key=64 velocity: 0
@44280 Channel: 7 Note on, G3 key=55 velocity: 0
@44280 Channel: 7 Note on, C4 key=60 velocity: 0
@44310 Channel: 7 Note on, G3 key=55 velocity: 89
@44310 Channel: 7 Note on, C4 key=60 velocity: 89
@44310 Channel: 7 Note on, E4 key=64 velocity: 89
@44322 Channel: 7 Note on, E4 key=64 velocity: 0
@44322 Channel: 7 Note on, C4 key=60 velocity: 0
@44322 Channel: 7 Note on, G3 key=55 velocity: 0
@44340 Channel: 7 Note on, G3 key=55 velocity: 89
@44340 Channel: 7 Note on, C4 key=60 velocity: 89
@44340 Channel: 7 Note on, E4 key=64 velocity: 89
@44370 Channel: 7 Note on, E4 key=64 velocity: 0
@44370 Channel: 7 Note on, C4 key=60 velocity: 0
@44370 Channel: 7 Note on, G3 key=55 velocity: 0
@44400 Channel: 7 Note on, F4 key=65 velocity: 89
@44400 Channel: 7 Note on, G3 key=55 velocity: 89
@44400 Channel: 7 Note on, C4 key=60 velocity: 89
@44430 Channel: 7 Note on, C4 key=60 velocity: 0
@44430 Channel: 7 Note on, G3 key=55 velocity: 0
@44430 Channel: 7 Note on, F4 key=65 velocity: 0
@44460 Channel: 7 Note on, G3 key=55 velocity: 90
@44460 Channel: 7 Note on, C4 key=60 velocity: 90
@44460 Channel: 7 Note on, F4 key=65 velocity: 90
@44472 Channel: 7 Note on, F4 key=65 velocity: 0
@44472 Channel: 7 Note on, C4 key=60 velocity: 0
@44472 Channel: 7 Note on, G3 key=55 velocity: 0
@44490 Channel: 7 Note on, F4 key=65 velocity: 90
@44490 Channel: 7 Note on, C4 key=60 velocity: 90
@44490 Channel: 7 Note on, G3 key=55 velocity: 90
@44520 Channel: 7 Note on, G3 key=55 velocity: 0
@44520 Channel: 7 Note on, C4 key=60 velocity: 0
@44520 Channel: 7 Note on, F4 key=65 velocity: 0
@44550 Channel: 7 Note on, G3 key=55 velocity: 90
@44550 Channel: 7 Note on, C4 key=60 velocity: 90
@44550 Channel: 7 Note on, F4 key=65 velocity: 90
@44562 Channel: 7 Note on, F4 key=65 velocity: 0
@44562 Channel: 7 Note on, C4 key=60 velocity: 0
@44562 Channel: 7 Note on, G3 key=55 velocity: 0
@44580 Channel: 7 Note on, F4 key=65 velocity: 90
@44580 Channel: 7 Note on, G3 key=55 velocity: 90
@44580 Channel: 7 Note on, C4 key=60 velocity: 90
@44610 Channel: 7 Note on, C4 key=60 velocity: 0
@44610 Channel: 7 Note on, G3 key=55 velocity: 0
@44610 Channel: 7 Note on, F4 key=65 velocity: 0
@44640 Channel: 7 Command:176
@44640 Channel: 7 Note on, C4 key=60 velocity: 90
@44640 Channel: 7 Note on, G3 key=55 velocity: 90
@44640 Channel: 7 Note on, E4 key=64 velocity: 90
@44670 Channel: 7 Note on, E4 key=64 velocity: 0
@44670 Channel: 7 Note on, G3 key=55 velocity: 0
@44670 Channel: 7 Note on, C4 key=60 velocity: 0
@44673 Channel: 7 Command:176
@44700 Channel: 7 Note on, E4 key=64 velocity: 90
@44700 Channel: 7 Note on, G3 key=55 velocity: 90
@44700 Channel: 7 Note on, C4 key=60 velocity: 90
@44707 Channel: 7 Command:176
@44712 Channel: 7 Note on, C4 key=60 velocity: 0
@44712 Channel: 7 Note on, G3 key=55 velocity: 0
@44712 Channel: 7 Note on, E4 key=64 velocity: 0
@44730 Channel: 7 Note on, C4 key=60 velocity: 90
@44730 Channel: 7 Note on, G3 key=55 velocity: 90
@44730 Channel: 7 Note on, E4 key=64 velocity: 90
@44740 Channel: 7 Command:176
@44760 Channel: 7 Note on, E4 key=64 velocity: 0
@44760 Channel: 7 Note on, G3 key=55 velocity: 0
@44760 Channel: 7 Note on, C4 key=60 velocity: 0
@44774 Channel: 7 Command:176
@44790 Channel: 7 Note on, G3 key=55 velocity: 90
@44790 Channel: 7 Note on, C4 key=60 velocity: 90
@44790 Channel: 7 Note on, E4 key=64 velocity: 90
@44802 Channel: 7 Note on, E4 key=64 velocity: 0
@44802 Channel: 7 Note on, C4 key=60 velocity: 0
@44802 Channel: 7 Note on, G3 key=55 velocity: 0
@44807 Channel: 7 Command:176
@44820 Channel: 7 Note on, G3 key=55 velocity: 90
@44820 Channel: 7 Note on, C4 key=60 velocity: 90
@44820 Channel: 7 Note on, E4 key=64 velocity: 90
@44841 Channel: 7 Command:176
@44850 Channel: 7 Note on, E4 key=64 velocity: 0
@44850 Channel: 7 Note on, C4 key=60 velocity: 0
@44850 Channel: 7 Note on, G3 key=55 velocity: 0
@44875 Channel: 7 Command:176
@44880 Channel: 7 Note on, F4 key=65 velocity: 90
@44880 Channel: 7 Note on, G3 key=55 velocity: 90
@44880 Channel: 7 Note on, C4 key=60 velocity: 90
@44908 Channel: 7 Command:176
@44910 Channel: 7 Note on, C4 key=60 velocity: 0
@44910 Channel: 7 Note on, G3 key=55 velocity: 0
@44910 Channel: 7 Note on, F4 key=65 velocity: 0
@44940 Channel: 7 Note on, G3 key=55 velocity: 90
@44940 Channel: 7 Note on, C4 key=60 velocity: 90
@44940 Channel: 7 Note on, F4 key=65 velocity: 90
@44942 Channel: 7 Command:176
@44952 Channel: 7 Note on, F4 key=65 velocity: 0
@44952 Channel: 7 Note on, C4 key=60 velocity: 0
@44952 Channel: 7 Note on, G3 key=55 velocity: 0
@44970 Channel: 7 Note on, F4 key=65 velocity: 90
@44970 Channel: 7 Note on, C4 key=60 velocity: 90
@44970 Channel: 7 Note on, G3 key=55 velocity: 90
@44975 Channel: 7 Command:176
@45000 Channel: 7 Note on, G3 key=55 velocity: 0
@45000 Channel: 7 Note on, C4 key=60 velocity: 0
@45000 Channel: 7 Note on, F4 key=65 velocity: 0
@45009 Channel: 7 Command:176
@45030 Channel: 7 Note on, G3 key=55 velocity: 90
@45030 Channel: 7 Note on, C4 key=60 velocity: 90
@45030 Channel: 7 Note on, F4 key=65 velocity: 90
@45042 Channel: 7 Note on, F4 key=65 velocity: 0
@45042 Channel: 7 Note on, C4 key=60 velocity: 0
@45042 Channel: 7 Note on, G3 key=55 velocity: 0
@45043 Channel: 7 Command:176
@45060 Channel: 7 Note on, F4 key=65 velocity: 90
@45060 Channel: 7 Note on, G3 key=55 velocity: 90
@45060 Channel: 7 Note on, C4 key=60 velocity: 90
@45076 Channel: 7 Command:176
@45090 Channel: 7 Note on, C4 key=60 velocity: 0
@45090 Channel: 7 Note on, G3 key=55 velocity: 0
@45090 Channel: 7 Note on, F4 key=65 velocity: 0
@45110 Channel: 7 Command:176
@45120 Channel: 7 Note on, C4 key=60 velocity: 90
@45120 Channel: 7 Note on, G3 key=55 velocity: 90
@45120 Channel: 7 Note on, E4 key=64 velocity: 90
@45143 Channel: 7 Command:176
@45150 Channel: 7 Note on, E4 key=64 velocity: 0
@45150 Channel: 7 Note on, G3 key=55 velocity: 0
@45150 Channel: 7 Note on, C4 key=60 velocity: 0
@45177 Channel: 7 Command:176
@45180 Channel: 7 Note on, E4 key=64 velocity: 90
@45180 Channel: 7 Note on, G3 key=55 velocity: 90
@45180 Channel: 7 Note on, C4 key=60 velocity: 90
@45192 Channel: 7 Note on, C4 key=60 velocity: 0
@45192 Channel: 7 Note on, G3 key=55 velocity: 0
@45192 Channel: 7 Note on, E4 key=64 velocity: 0
@45210 Channel: 7 Note on, C4 key=60 velocity: 91
@45210 Channel: 7 Note on, G3 key=55 velocity: 91
@45210 Channel: 7 Note on, E4 key=64 velocity: 91
@45211 Channel: 7 Command:176
@45240 Channel: 7 Note on, E4 key=64 velocity: 0
@45240 Channel: 7 Note on, G3 key=55 velocity: 0
@45240 Channel: 7 Note on, C4 key=60 velocity: 0
@45244 Channel: 7 Command:176
@45270 Channel: 7 Note on, G3 key=55 velocity: 91
@45270 Channel: 7 Note on, C4 key=60 velocity: 91
@45270 Channel: 7 Note on, E4 key=64 velocity: 91
@45278 Channel: 7 Command:176
@45282 Channel: 7 Note on, E4 key=64 velocity: 0
@45282 Channel: 7 Note on, C4 key=60 velocity: 0
@45282 Channel: 7 Note on, G3 key=55 velocity: 0
@45300 Channel: 7 Note on, G3 key=55 velocity: 91
@45300 Channel: 7 Note on, C4 key=60 velocity: 91
@45300 Channel: 7 Note on, E4 key=64 velocity: 91
@45311 Channel: 7 Command:176
@45330 Channel: 7 Note on, E4 key=64 velocity: 0
@45330 Channel: 7 Note on, C4 key=60 velocity: 0
@45330 Channel: 7 Note on, G3 key=55 velocity: 0
@45345 Channel: 7 Command:176
@45360 Channel: 7 Note on, F4 key=65 velocity: 91
@45360 Channel: 7 Note on, G3 key=55 velocity: 91
@45360 Channel: 7 Note on, C4 key=60 velocity: 91
@45378 Channel: 7 Command:176
@45390 Channel: 7 Note on, C4 key=60 velocity: 0
@45390 Channel: 7 Note on, G3 key=55 velocity: 0
@45390 Channel: 7 Note on, F4 key=65 velocity: 0
@45412 Channel: 7 Command:176
@45420 Channel: 7 Note on, G3 key=55 velocity: 91
@45420 Channel: 7 Note on, C4 key=60 velocity: 91
@45420 Channel: 7 Note on, F4 key=65 velocity: 91
@45432 Channel: 7 Note on, F4 key=65 velocity: 0
@45432 Channel: 7 Note on, C4 key=60 velocity: 0
@45432 Channel: 7 Note on, G3 key=55 velocity: 0
@45446 Channel: 7 Command:176
@45450 Channel: 7 Note on, F4 key=65 velocity: 91
@45450 Channel: 7 Note on, C4 key=60 velocity: 91
@45450 Channel: 7 Note on, G3 key=55 velocity: 91
@45479 Channel: 7 Command:176
@45480 Channel: 7 Note on, G3 key=55 velocity: 0
@45480 Channel: 7 Note on, C4 key=60 velocity: 0
@45480 Channel: 7 Note on, F4 key=65 velocity: 0
@45510 Channel: 7 Note on, G3 key=55 velocity: 91
@45510 Channel: 7 Note on, C4 key=60 velocity: 91
@45510 Channel: 7 Note on, F4 key=65 velocity: 91
@45513 Channel: 7 Command:176
@45522 Channel: 7 Note on, F4 key=65 velocity: 0
@45522 Channel: 7 Note on, C4 key=60 velocity: 0
@45522 Channel: 7 Note on, G3 key=55 velocity: 0
@45540 Channel: 7 Note on, F4 key=65 velocity: 91
@45540 Channel: 7 Note on, G3 key=55 velocity: 91
@45540 Channel: 7 Note on, C4 key=60 velocity: 91
@45546 Channel: 7 Command:176
@45570 Channel: 7 Note on, C4 key=60 velocity: 0
@45570 Channel: 7 Note on, G3 key=55 velocity: 0
@45570 Channel: 7 Note on, F4 key=65 velocity: 0
@45580 Channel: 7 Command:176
@45600 Channel: 7 Note on, C4 key=60 velocity: 90
@45600 Channel: 7 Note on, G3 key=55 velocity: 90
@45600 Channel: 7 Note on, E4 key=64 velocity: 90
@45614 Channel: 7 Command:176
@45630 Channel: 7 Note on, E4 key=64 velocity: 0
@45630 Channel: 7 Note on, G3 key=55 velocity: 0
@45630 Channel: 7 Note on, C4 key=60 velocity: 0
@45647 Channel: 7 Command:176
@45660 Channel: 7 Note on, E4 key=64 velocity: 90
@45660 Channel: 7 Note on, G3 key=55 velocity: 90
@45660 Channel: 7 Note on, C4 key=60 velocity: 90
@45672 Channel: 7 Note on, C4 key=60 velocity: 0
@45672 Channel: 7 Note on, G3 key=55 velocity: 0
@45672 Channel: 7 Note on, E4 key=64 velocity: 0
@45681 Channel: 7 Command:176
@45690 Channel: 7 Note on, C4 key=60 velocity: 91
@45690 Channel: 7 Note on, G3 key=55 velocity: 91
@45690 Channel: 7 Note on, E4 key=64 velocity: 91
@45714 Channel: 7 Command:176
@45720 Channel: 7 Note on, E4 key=64 velocity: 0
@45720 Channel: 7 Note on, G3 key=55 velocity: 0
@45720 Channel: 7 Note on, C4 key=60 velocity: 0
@45748 Channel: 7 Command:176
@45750 Channel: 7 Note on, G3 key=55 velocity: 91
@45750 Channel: 7 Note on, C4 key=60 velocity: 91
@45750 Channel: 7 Note on, E4 key=64 velocity: 91
@45762 Channel: 7 Note on, E4 key=64 velocity: 0
@45762 Channel: 7 Note on, C4 key=60 velocity: 0
@45762 Channel: 7 Note on, G3 key=55 velocity: 0
@45780 Channel: 7 Note on, G3 key=55 velocity: 91
@45780 Channel: 7 Note on, C4 key=60 velocity: 91
@45780 Channel: 7 Note on, E4 key=64 velocity: 91
@45782 Channel: 7 Command:176
@45810 Channel: 7 Note on, E4 key=64 velocity: 0
@45810 Channel: 7 Note on, C4 key=60 velocity: 0
@45810 Channel: 7 Note on, G3 key=55 velocity: 0
@45815 Channel: 7 Command:176
@45840 Channel: 7 Note on, F4 key=65 velocity: 91
@45840 Channel: 7 Note on, G3 key=55 velocity: 91
@45840 Channel: 7 Note on, C4 key=60 velocity: 91
@45849 Channel: 7 Command:176
@45870 Channel: 7 Note on, C4 key=60 velocity: 0
@45870 Channel: 7 Note on, G3 key=55 velocity: 0
@45870 Channel: 7 Note on, F4 key=65 velocity: 0
@45882 Channel: 7 Command:176
@45900 Channel: 7 Note on, G3 key=55 velocity: 91
@45900 Channel: 7 Note on, C4 key=60 velocity: 91
@45900 Channel: 7 Note on, F4 key=65 velocity: 91
@45912 Channel: 7 Note on, F4 key=65 velocity: 0
@45912 Channel: 7 Note on, C4 key=60 velocity: 0
@45912 Channel: 7 Note on, G3 key=55 velocity: 0
@45916 Channel: 7 Command:176
@45930 Channel: 7 Note on, F4 key=65 velocity: 91
@45930 Channel: 7 Note on, C4 key=60 velocity: 91
@45930 Channel: 7 Note on, G3 key=55 velocity: 91
@45950 Channel: 7 Command:176
@45960 Channel: 7 Note on, G3 key=55 velocity: 0
@45960 Channel: 7 Note on, C4 key=60 velocity: 0
@45960 Channel: 7 Note on, F4 key=65 velocity: 0
@45983 Channel: 7 Command:176
@45990 Channel: 7 Note on, G3 key=55 velocity: 91
@45990 Channel: 7 Note on, C4 key=60 velocity: 91
@45990 Channel: 7 Note on, F4 key=65 velocity: 91
@46002 Channel: 7 Note on, F4 key=65 velocity: 0
@46002 Channel: 7 Note on, C4 key=60 velocity: 0
@46002 Channel: 7 Note on, G3 key=55 velocity: 0
@46017 Channel: 7 Command:176
@46020 Channel: 7 Note on, F4 key=65 velocity: 91
@46020 Channel: 7 Note on, G3 key=55 velocity: 91
@46020 Channel: 7 Note on, C4 key=60 velocity: 91
@46050 Channel: 7 Note on, C4 key=60 velocity: 0
@46050 Channel: 7 Note on, G3 key=55 velocity: 0
@46050 Channel: 7 Note on, F4 key=65 velocity: 0
@46050 Channel: 7 Command:176
@46080 Channel: 7 Note on, C4 key=60 velocity: 88
@46080 Channel: 7 Note on, G3 key=55 velocity: 88
@46080 Channel: 7 Note on, E4 key=64 velocity: 88
@46084 Channel: 7 Command:176
@46110 Channel: 7 Note on, E4 key=64 velocity: 0
@46110 Channel: 7 Note on, G3 key=55 velocity: 0
@46110 Channel: 7 Note on, C4 key=60 velocity: 0
@46117 Channel: 7 Command:176
@46140 Channel: 7 Note on, E4 key=64 velocity: 88
@46140 Channel: 7 Note on, G3 key=55 velocity: 88
@46140 Channel: 7 Note on, C4 key=60 velocity: 88
@46151 Channel: 7 Command:176
@46152 Channel: 7 Note on, C4 key=60 velocity: 0
@46152 Channel: 7 Note on, G3 key=55 velocity: 0
@46152 Channel: 7 Note on, E4 key=64 velocity: 0
@46170 Channel: 7 Note on, C4 key=60 velocity: 89
@46170 Channel: 7 Note on, G3 key=55 velocity: 89
@46170 Channel: 7 Note on, E4 key=64 velocity: 89
@46185 Channel: 7 Command:176
@46200 Channel: 7 Note on, E4 key=64 velocity: 0
@46200 Channel: 7 Note on, G3 key=55 velocity: 0
@46200 Channel: 7 Note on, C4 key=60 velocity: 0
@46218 Channel: 7 Command:176
@46230 Channel: 7 Note on, G3 key=55 velocity: 89
@46230 Channel: 7 Note on, C4 key=60 velocity: 89
@46230 Channel: 7 Note on, E4 key=64 velocity: 89
@46242 Channel: 7 Note on, E4 key=64 velocity: 0
@46242 Channel: 7 Note on, C4 key=60 velocity: 0
@46242 Channel: 7 Note on, G3 key=55 velocity: 0
@46252 Channel: 7 Command:176
@46260 Channel: 7 Note on, G3 key=55 velocity: 89
@46260 Channel: 7 Note on, C4 key=60 velocity: 89
@46260 Channel: 7 Note on, E4 key=64 velocity: 89
@46285 Channel: 7 Command:176
@46290 Channel: 7 Note on, E4 key=64 velocity: 0
@46290 Channel: 7 Note on, C4 key=60 velocity: 0
@46290 Channel: 7 Note on, G3 key=55 velocity: 0
@46319 Channel: 7 Command:176
@46320 Channel: 7 Note on, F4 key=65 velocity: 89
@46320 Channel: 7 Note on, G3 key=55 velocity: 89
@46320 Channel: 7 Note on, C4 key=60 velocity: 89
@46350 Channel: 7 Note on, C4 key=60 velocity: 0
@46350 Channel: 7 Note on, G3 key=55 velocity: 0
@46350 Channel: 7 Note on, F4 key=65 velocity: 0
@46353 Channel: 7 Command:176
@46380 Channel: 7 Note on, G3 key=55 velocity: 90
@46380 Channel: 7 Note on, C4 key=60 velocity: 90
@46380 Channel: 7 Note on, F4 key=65 velocity: 90
@46386 Channel: 7 Command:176
@46392 Channel: 7 Note on, F4 key=65 velocity: 0
@46392 Channel: 7 Note on, C4 key=60 velocity: 0
@46392 Channel: 7 Note on, G3 key=55 velocity: 0
@46410 Channel: 7 Note on, F4 key=65 velocity: 90
@46410 Channel: 7 Note on, C4 key=60 velocity: 90
@46410 Channel: 7 Note on, G3 key=55 velocity: 90
@46420 Channel: 7 Command:176
@46440 Channel: 7 Note on, G3 key=55 velocity: 0
@46440 Channel: 7 Note on, C4 key=60 velocity: 0
@46440 Channel: 7 Note on, F4 key=65 velocity: 0
@46453 Channel: 7 Command:176
@46470 Channel: 7 Note on, G3 key=55 velocity: 90
@46470 Channel: 7 Note on, C4 key=60 velocity: 90
@46470 Channel: 7 Note on, F4 key=65 velocity: 90
@46482 Channel: 7 Note on, F4 key=65 velocity: 0
@46482 Channel: 7 Note on, C4 key=60 velocity: 0
@46482 Channel: 7 Note on, G3 key=55 velocity: 0
@46487 Channel: 7 Command:176
@46500 Channel: 7 Note on, F4 key=65 velocity: 90
@46500 Channel: 7 Note on, G3 key=55 velocity: 90
@46500 Channel: 7 Note on, C4 key=60 velocity: 90
@46521 Channel: 7 Command:176
@46530 Channel: 7 Note on, C4 key=60 velocity: 0
@46530 Channel: 7 Note on, G3 key=55 velocity: 0
@46530 Channel: 7 Note on, F4 key=65 velocity: 0
@46554 Channel: 7 Command:176
@46560 Channel: 7 Note on, C4 key=60 velocity: 90
@46560 Channel: 7 Note on, G3 key=55 velocity: 90
@46560 Channel: 7 Note on, E4 key=64 velocity: 90
@46588 Channel: 7 Command:176
@46590 Channel: 7 Note on, E4 key=64 velocity: 0
@46590 Channel: 7 Note on, G3 key=55 velocity: 0
@46590 Channel: 7 Note on, C4 key=60 velocity: 0
@46620 Channel: 7 Note on, E4 key=64 velocity: 90
@46620 Channel: 7 Note on, G3 key=55 velocity: 90
@46620 Channel: 7 Note on, C4 key=60 velocity: 90
@46621 Channel: 7 Command:176
@46632 Channel: 7 Note on, C4 key=60 velocity: 0
@46632 Channel: 7 Note on, G3 key=55 velocity: 0
@46632 Channel: 7 Note on, E4 key=64 velocity: 0
@46650 Channel: 7 Note on, C4 key=60 velocity: 90
@46650 Channel: 7 Note on, G3 key=55 velocity: 90
@46650 Channel: 7 Note on, E4 key=64 velocity: 90
@46655 Channel: 7 Command:176
@46680 Channel: 7 Note on, E4 key=64 velocity: 0
@46680 Channel: 7 Note on, G3 key=55 velocity: 0
@46680 Channel: 7 Note on, C4 key=60 velocity: 0
@46688 Channel: 7 Command:176
@46710 Channel: 7 Note on, G3 key=55 velocity: 90
@46710 Channel: 7 Note on, C4 key=60 velocity: 90
@46710 Channel: 7 Note on, E4 key=64 velocity: 90
@46722 Channel: 7 Note on, E4 key=64 velocity: 0
@46722 Channel: 7 Note on, C4 key=60 velocity: 0
@46722 Channel: 7 Note on, G3 key=55 velocity: 0
@46722 Channel: 7 Command:176
@46740 Channel: 7 Note on, G3 key=55 velocity: 90
@46740 Channel: 7 Note on, C4 key=60 velocity: 90
@46740 Channel: 7 Note on, E4 key=64 velocity: 90
@46756 Channel: 7 Command:176
@46770 Channel: 7 Note on, E4 key=64 velocity: 0
@46770 Channel: 7 Note on, C4 key=60 velocity: 0
@46770 Channel: 7 Note on, G3 key=55 velocity: 0
@46789 Channel: 7 Command:176
@46800 Channel: 7 Note on, F4 key=65 velocity: 90
@46800 Channel: 7 Note on, G3 key=55 velocity: 90
@46800 Channel: 7 Note on, C4 key=60 velocity: 90
@46823 Channel: 7 Command:176
@46830 Channel: 7 Note on, C4 key=60 velocity: 0
@46830 Channel: 7 Note on, G3 key=55 velocity: 0
@46830 Channel: 7 Note on, F4 key=65 velocity: 0
@46856 Channel: 7 Command:176
@46860 Channel: 7 Note on, G3 key=55 velocity: 90
@46860 Channel: 7 Note on, C4 key=60 velocity: 90
@46860 Channel: 7 Note on, F4 key=65 velocity: 90
@46872 Channel: 7 Note on, F4 key=65 velocity: 0
@46872 Channel: 7 Note on, C4 key=60 velocity: 0
@46872 Channel: 7 Note on, G3 key=55 velocity: 0
@46890 Channel: 7 Command:176
@46890 Channel: 7 Note on, F4 key=65 velocity: 90
@46890 Channel: 7 Note on, C4 key=60 velocity: 90
@46890 Channel: 7 Note on, G3 key=55 velocity: 90
@46920 Channel: 7 Note on, G3 key=55 velocity: 0
@46920 Channel: 7 Note on, C4 key=60 velocity: 0
@46920 Channel: 7 Note on, F4 key=65 velocity: 0
@46924 Channel: 7 Command:176
@46950 Channel: 7 Note on, G3 key=55 velocity: 90
@46950 Channel: 7 Note on, C4 key=60 velocity: 90
@46950 Channel: 7 Note on, F4 key=65 velocity: 90
@46957 Channel: 7 Command:176
@46962 Channel: 7 Note on, F4 key=65 velocity: 0
@46962 Channel: 7 Note on, C4 key=60 velocity: 0
@46962 Channel: 7 Note on, G3 key=55 velocity: 0
@46980 Channel: 7 Note on, F4 key=65 velocity: 90
@46980 Channel: 7 Note on, G3 key=55 velocity: 90
@46980 Channel: 7 Note on, C4 key=60 velocity: 90
@46991 Channel: 7 Command:176
@47010 Channel: 7 Note on, C4 key=60 velocity: 0
@47010 Channel: 7 Note on, G3 key=55 velocity: 0
@47010 Channel: 7 Note on, F4 key=65 velocity: 0
@47024 Channel: 7 Command:176
@47040 Channel: 7 Note on, C4 key=60 velocity: 90
@47040 Channel: 7 Note on, G3 key=55 velocity: 90
@47040 Channel: 7 Note on, E4 key=64 velocity: 90
@47058 Channel: 7 Command:176
@47070 Channel: 7 Note on, E4 key=64 velocity: 0
@47070 Channel: 7 Note on, G3 key=55 velocity: 0
@47070 Channel: 7 Note on, C4 key=60 velocity: 0
@47092 Channel: 7 Command:176
@47100 Channel: 7 Note on, E4 key=64 velocity: 90
@47100 Channel: 7 Note on, G3 key=55 velocity: 90
@47100 Channel: 7 Note on, C4 key=60 velocity: 90
@47112 Channel: 7 Note on, C4 key=60 velocity: 0
@47112 Channel: 7 Note on, G3 key=55 velocity: 0
@47112 Channel: 7 Note on, E4 key=64 velocity: 0
@47125 Channel: 7 Command:176
@47130 Channel: 7 Note on, C4 key=60 velocity: 91
@47130 Channel: 7 Note on, G3 key=55 velocity: 91
@47130 Channel: 7 Note on, E4 key=64 velocity: 91
@47159 Channel: 7 Command:176
@47160 Channel: 7 Note on, E4 key=64 velocity: 0
@47160 Channel: 7 Note on, G3 key=55 velocity: 0
@47160 Channel: 7 Note on, C4 key=60 velocity: 0
@47190 Channel: 7 Note on, G3 key=55 velocity: 91
@47190 Channel: 7 Note on, C4 key=60 velocity: 91
@47190 Channel: 7 Note on, E4 key=64 velocity: 91
@47192 Channel: 7 Command:176
@47202 Channel: 7 Note on, E4 key=64 velocity: 0
@47202 Channel: 7 Note on, C4 key=60 velocity: 0
@47202 Channel: 7 Note on, G3 key=55 velocity: 0
@47220 Channel: 7 Note on, G3 key=55 velocity: 91
@47220 Channel: 7 Note on, C4 key=60 velocity: 91
@47220 Channel: 7 Note on, E4 key=64 velocity: 91
@47226 Channel: 7 Command:176
@47250 Channel: 7 Note on, E4 key=64 velocity: 0
@47250 Channel: 7 Note on, C4 key=60 velocity: 0
@47250 Channel: 7 Note on, G3 key=55 velocity: 0
@47260 Channel: 7 Command:176
@47280 Channel: 7 Note on, F4 key=65 velocity: 91
@47280 Channel: 7 Note on, G3 key=55 velocity: 91
@47280 Channel: 7 Note on, C4 key=60 velocity: 91
@47293 Channel: 7 Command:176
@47310 Channel: 7 Note on, C4 key=60 velocity: 0
@47310 Channel: 7 Note on, G3 key=55 velocity: 0
@47310 Channel: 7 Note on, F4 key=65 velocity: 0
@47327 Channel: 7 Command:176
@47340 Channel: 7 Note on, G3 key=55 velocity: 91
@47340 Channel: 7 Note on, C4 key=60 velocity: 91
@47340 Channel: 7 Note on, F4 key=65 velocity: 91
@47352 Channel: 7 Note on, F4 key=65 velocity: 0
@47352 Channel: 7 Note on, C4 key=60 velocity: 0
@47352 Channel: 7 Note on, G3 key=55 velocity: 0
@47360 Channel: 7 Command:176
@47370 Channel: 7 Note on, F4 key=65 velocity: 91
@47370 Channel: 7 Note on, C4 key=60 velocity: 91
@47370 Channel: 7 Note on, G3 key=55 velocity: 91
@47394 Channel: 7 Command:176
@47400 Channel: 7 Note on, G3 key=55 velocity: 0
@47400 Channel: 7 Note on, C4 key=60 velocity: 0
@47400 Channel: 7 Note on, F4 key=65 velocity: 0
@47427 Channel: 7 Command:176
@47430 Channel: 7 Note on, G3 key=55 velocity: 91
@47430 Channel: 7 Note on, C4 key=60 velocity: 91
@47430 Channel: 7 Note on, F4 key=65 velocity: 91
@47442 Channel: 7 Note on, F4 key=65 velocity: 0
@47442 Channel: 7 Note on, C4 key=60 velocity: 0
@47442 Channel: 7 Note on, G3 key=55 velocity: 0
@47460 Channel: 7 Note on, F4 key=65 velocity: 91
@47460 Channel: 7 Note on, G3 key=55 velocity: 91
@47460 Channel: 7 Note on, C4 key=60 velocity: 91
@47461 Channel: 7 Command:176
@47490 Channel: 7 Note on, C4 key=60 velocity: 0
@47490 Channel: 7 Note on, G3 key=55 velocity: 0
@47490 Channel: 7 Note on, F4 key=65 velocity: 0
@47495 Channel: 7 Command:176
@47520 Channel: 7 Note on, C4 key=60 velocity: 90
@47520 Channel: 7 Note on, G3 key=55 velocity: 90
@47520 Channel: 7 Note on, E4 key=64 velocity: 90
@47528 Channel: 7 Command:176
@47550 Channel: 7 Note on, E4 key=64 velocity: 0
@47550 Channel: 7 Note on, G3 key=55 velocity: 0
@47550 Channel: 7 Note on, C4 key=60 velocity: 0
@47562 Channel: 7 Command:176
@47580 Channel: 7 Note on, E4 key=64 velocity: 90
@47580 Channel: 7 Note on, G3 key=55 velocity: 90
@47580 Channel: 7 Note on, C4 key=60 velocity: 90
@47592 Channel: 7 Note on, C4 key=60 velocity: 0
@47592 Channel: 7 Note on, G3 key=55 velocity: 0
@47592 Channel: 7 Note on, E4 key=64 velocity: 0
@47595 Channel: 7 Command:176
@47610 Channel: 7 Note on, C4 key=60 velocity: 91
@47610 Channel: 7 Note on, G3 key=55 velocity: 91
@47610 Channel: 7 Note on, E4 key=64 velocity: 91
@47629 Channel: 7 Command:176
@47640 Channel: 7 Note on, E4 key=64 velocity: 0
@47640 Channel: 7 Note on, G3 key=55 velocity: 0
@47640 Channel: 7 Note on, C4 key=60 velocity: 0
@47663 Channel: 7 Command:176
@47670 Channel: 7 Note on, G3 key=55 velocity: 91
@47670 Channel: 7 Note on, C4 key=60 velocity: 91
@47670 Channel: 7 Note on, E4 key=64 velocity: 91
@47682 Channel: 7 Note on, E4 key=64 velocity: 0
@47682 Channel: 7 Note on, C4 key=60 velocity: 0
@47682 Channel: 7 Note on, G3 key=55 velocity: 0
@47696 Channel: 7 Command:176
@47700 Channel: 7 Note on, G3 key=55 velocity: 91
@47700 Channel: 7 Note on, C4 key=60 velocity: 91
@47700 Channel: 7 Note on, E4 key=64 velocity: 91
@47730 Channel: 7 Note on, E4 key=64 velocity: 0
@47730 Channel: 7 Note on, C4 key=60 velocity: 0
@47730 Channel: 7 Note on, G3 key=55 velocity: 0
@47730 Channel: 7 Command:176
@47760 Channel: 7 Note on, F4 key=65 velocity: 91
@47760 Channel: 7 Note on, G3 key=55 velocity: 91
@47760 Channel: 7 Note on, C4 key=60 velocity: 91
@47763 Channel: 7 Command:176
@47790 Channel: 7 Note on, C4 key=60 velocity: 0
@47790 Channel: 7 Note on, G3 key=55 velocity: 0
@47790 Channel: 7 Note on, F4 key=65 velocity: 0
@47797 Channel: 7 Command:176
@47820 Channel: 7 Note on, G3 key=55 velocity: 91
@47820 Channel: 7 Note on, C4 key=60 velocity: 91
@47820 Channel: 7 Note on, F4 key=65 velocity: 91
@47831 Channel: 7 Command:176
@47832 Channel: 7 Note on, F4 key=65 velocity: 0
@47832 Channel: 7 Note on, C4 key=60 velocity: 0
@47832 Channel: 7 Note on, G3 key=55 velocity: 0
@47850 Channel: 7 Note on, F4 key=65 velocity: 91
@47850 Channel: 7 Note on, C4 key=60 velocity: 91
@47850 Channel: 7 Note on, G3 key=55 velocity: 91
@47864 Channel: 7 Command:176
@47880 Channel: 7 Note on, G3 key=55 velocity: 0
@47880 Channel: 7 Note on, C4 key=60 velocity: 0
@47880 Channel: 7 Note on, F4 key=65 velocity: 0
@47898 Channel: 7 Command:176
@47910 Channel: 7 Note on, G3 key=55 velocity: 91
@47910 Channel: 7 Note on, C4 key=60 velocity: 91
@47910 Channel: 7 Note on, F4 key=65 velocity: 91
@47922 Channel: 7 Note on, F4 key=65 velocity: 0
@47922 Channel: 7 Note on, C4 key=60 velocity: 0
@47922 Channel: 7 Note on, G3 key=55 velocity: 0
@47931 Channel: 7 Command:176
@47940 Channel: 7 Note on, F4 key=65 velocity: 91
@47940 Channel: 7 Note on, G3 key=55 velocity: 91
@47940 Channel: 7 Note on, C4 key=60 velocity: 91
@47965 Channel: 7 Command:176
@47970 Channel: 7 Note on, C4 key=60 velocity: 0
@47970 Channel: 7 Note on, G3 key=55 velocity: 0
@47970 Channel: 7 Note on, F4 key=65 velocity: 0
@47999 Channel: 7 Command:176
@47999 Other message: class javax.sound.midi.Track$ImmutableEndOfTrack

Track 4: size = 5618

@0 Other message: class javax.sound.midi.MetaMessage
@0 Other message: class javax.sound.midi.MetaMessage
@0 Channel: 1 Command:192
@0 Channel: 1 Command:176
@0 Channel: 1 Command:176
@10 Channel: 1 Command:176
@10 Channel: 1 Command:176
@1920 Channel: 1 Note on, C4 key=60 velocity: 81
@1920 Channel: 1 Note on, G3 key=55 velocity: 81
@1920 Channel: 1 Note on, E4 key=64 velocity: 81
@1920 Channel: 1 Command:176
@1920 Channel: 1 Command:176
@1970 Channel: 1 Note on, E4 key=64 velocity: 0
@1970 Channel: 1 Note on, G3 key=55 velocity: 0
@1970 Channel: 1 Note on, C4 key=60 velocity: 0
@1980 Channel: 1 Note on, E4 key=64 velocity: 81
@1980 Channel: 1 Note on, G3 key=55 velocity: 81
@1980 Channel: 1 Note on, C4 key=60 velocity: 81
@2000 Channel: 1 Note on, C4 key=60 velocity: 0
@2000 Channel: 1 Note on, G3 key=55 velocity: 0
@2000 Channel: 1 Note on, E4 key=64 velocity: 0
@2010 Channel: 1 Note on, C4 key=60 velocity: 81
@2010 Channel: 1 Note on, G3 key=55 velocity: 81
@2010 Channel: 1 Note on, E4 key=64 velocity: 81
@2060 Channel: 1 Note on, E4 key=64 velocity: 0
@2060 Channel: 1 Note on, G3 key=55 velocity: 0
@2060 Channel: 1 Note on, C4 key=60 velocity: 0
@2070 Channel: 1 Note on, G3 key=55 velocity: 81
@2070 Channel: 1 Note on, C4 key=60 velocity: 81
@2070 Channel: 1 Note on, E4 key=64 velocity: 81
@2090 Channel: 1 Note on, E4 key=64 velocity: 0
@2090 Channel: 1 Note on, C4 key=60 velocity: 0
@2090 Channel: 1 Note on, G3 key=55 velocity: 0
@2100 Channel: 1 Note on, G3 key=55 velocity: 81
@2100 Channel: 1 Note on, C4 key=60 velocity: 81
@2100 Channel: 1 Note on, E4 key=64 velocity: 81
@2150 Channel: 1 Note on, E4 key=64 velocity: 0
@2150 Channel: 1 Note on, C4 key=60 velocity: 0
@2150 Channel: 1 Note on, G3 key=55 velocity: 0
@2160 Channel: 1 Note on, F4 key=65 velocity: 81
@2160 Channel: 1 Note on, G3 key=55 velocity: 81
@2160 Channel: 1 Note on, C4 key=60 velocity: 81
@2160 Channel: 1 Command:176
@2160 Channel: 1 Command:176
@2210 Channel: 1 Note on, C4 key=60 velocity: 0
@2210 Channel: 1 Note on, G3 key=55 velocity: 0
@2210 Channel: 1 Note on, F4 key=65 velocity: 0
@2220 Channel: 1 Note on, G3 key=55 velocity: 81
@2220 Channel: 1 Note on, C4 key=60 velocity: 81
@2220 Channel: 1 Note on, F4 key=65 velocity: 81
@2240 Channel: 1 Note on, F4 key=65 velocity: 0
@2240 Channel: 1 Note on, C4 key=60 velocity: 0
@2240 Channel: 1 Note on, G3 key=55 velocity: 0
@2250 Channel: 1 Note on, F4 key=65 velocity: 81
@2250 Channel: 1 Note on, C4 key=60 velocity: 81
@2250 Channel: 1 Note on, G3 key=55 velocity: 81
@2300 Channel: 1 Note on, G3 key=55 velocity: 0
@2300 Channel: 1 Note on, C4 key=60 velocity: 0
@2300 Channel: 1 Note on, F4 key=65 velocity: 0
@2310 Channel: 1 Note on, G3 key=55 velocity: 81
@2310 Channel: 1 Note on, C4 key=60 velocity: 81
@2310 Channel: 1 Note on, F4 key=65 velocity: 81
@2330 Channel: 1 Note on, F4 key=65 velocity: 0
@2330 Channel: 1 Note on, C4 key=60 velocity: 0
@2330 Channel: 1 Note on, G3 key=55 velocity: 0
@2340 Channel: 1 Note on, F4 key=65 velocity: 81
@2340 Channel: 1 Note on, G3 key=55 velocity: 81
@2340 Channel: 1 Note on, C4 key=60 velocity: 81
@2390 Channel: 1 Note on, C4 key=60 velocity: 0
@2390 Channel: 1 Note on, G3 key=55 velocity: 0
@2390 Channel: 1 Note on, F4 key=65 velocity: 0
@2400 Channel: 1 Note on, C4 key=60 velocity: 81
@2400 Channel: 1 Note on, G3 key=55 velocity: 81
@2400 Channel: 1 Note on, E4 key=64 velocity: 81
@2400 Channel: 1 Command:176
@2400 Channel: 1 Command:176
@2450 Channel: 1 Note on, E4 key=64 velocity: 0
@2450 Channel: 1 Note on, G3 key=55 velocity: 0
@2450 Channel: 1 Note on, C4 key=60 velocity: 0
@2460 Channel: 1 Note on, E4 key=64 velocity: 81
@2460 Channel: 1 Note on, G3 key=55 velocity: 81
@2460 Channel: 1 Note on, C4 key=60 velocity: 81
@2480 Channel: 1 Note on, C4 key=60 velocity: 0
@2480 Channel: 1 Note on, G3 key=55 velocity: 0
@2480 Channel: 1 Note on, E4 key=64 velocity: 0
@2490 Channel: 1 Note on, C4 key=60 velocity: 80
@2490 Channel: 1 Note on, G3 key=55 velocity: 80
@2490 Channel: 1 Note on, E4 key=64 velocity: 80
@2540 Channel: 1 Note on, E4 key=64 velocity: 0
@2540 Channel: 1 Note on, G3 key=55 velocity: 0
@2540 Channel: 1 Note on, C4 key=60 velocity: 0
@2550 Channel: 1 Note on, G3 key=55 velocity: 80
@2550 Channel: 1 Note on, C4 key=60 velocity: 80
@2550 Channel: 1 Note on, E4 key=64 velocity: 80
@2570 Channel: 1 Note on, E4 key=64 velocity: 0
@2570 Channel: 1 Note on, C4 key=60 velocity: 0
@2570 Channel: 1 Note on, G3 key=55 velocity: 0
@2580 Channel: 1 Note on, G3 key=55 velocity: 80
@2580 Channel: 1 Note on, C4 key=60 velocity: 80
@2580 Channel: 1 Note on, E4 key=64 velocity: 80
@2630 Channel: 1 Note on, E4 key=64 velocity: 0
@2630 Channel: 1 Note on, C4 key=60 velocity: 0
@2630 Channel: 1 Note on, G3 key=55 velocity: 0
@2640 Channel: 1 Note on, F4 key=65 velocity: 79
@2640 Channel: 1 Note on, G3 key=55 velocity: 79
@2640 Channel: 1 Note on, C4 key=60 velocity: 79
@2640 Channel: 1 Command:176
@2640 Channel: 1 Command:176
@2690 Channel: 1 Note on, C4 key=60 velocity: 0
@2690 Channel: 1 Note on, G3 key=55 velocity: 0
@2690 Channel: 1 Note on, F4 key=65 velocity: 0
@2700 Channel: 1 Note on, G3 key=55 velocity: 79
@2700 Channel: 1 Note on, C4 key=60 velocity: 79
@2700 Channel: 1 Note on, F4 key=65 velocity: 79
@2720 Channel: 1 Note on, F4 key=65 velocity: 0
@2720 Channel: 1 Note on, C4 key=60 velocity: 0
@2720 Channel: 1 Note on, G3 key=55 velocity: 0
@2730 Channel: 1 Note on, F4 key=65 velocity: 79
@2730 Channel: 1 Note on, C4 key=60 velocity: 79
@2730 Channel: 1 Note on, G3 key=55 velocity: 79
@2780 Channel: 1 Note on, G3 key=55 velocity: 0
@2780 Channel: 1 Note on, C4 key=60 velocity: 0
@2780 Channel: 1 Note on, F4 key=65 velocity: 0
@2790 Channel: 1 Note on, G3 key=55 velocity: 79
@2790 Channel: 1 Note on, C4 key=60 velocity: 79
@2790 Channel: 1 Note on, F4 key=65 velocity: 79
@2810 Channel: 1 Note on, F4 key=65 velocity: 0
@2810 Channel: 1 Note on, C4 key=60 velocity: 0
@2810 Channel: 1 Note on, G3 key=55 velocity: 0
@2820 Channel: 1 Note on, F4 key=65 velocity: 79
@2820 Channel: 1 Note on, G3 key=55 velocity: 79
@2820 Channel: 1 Note on, C4 key=60 velocity: 79
@2870 Channel: 1 Note on, C4 key=60 velocity: 0
@2870 Channel: 1 Note on, G3 key=55 velocity: 0
@2870 Channel: 1 Note on, F4 key=65 velocity: 0
@2880 Channel: 1 Note on, B3 key=59 velocity: 79
@2880 Channel: 1 Note on, D4 key=62 velocity: 79
@2880 Channel: 1 Note on, G3 key=55 velocity: 79
@2880 Channel: 1 Command:176
@2880 Channel: 1 Command:176
@2930 Channel: 1 Note on, G3 key=55 velocity: 0
@2930 Channel: 1 Note on, D4 key=62 velocity: 0
@2930 Channel: 1 Note on, B3 key=59 velocity: 0
@2940 Channel: 1 Note on, G3 key=55 velocity: 79
@2940 Channel: 1 Note on, D4 key=62 velocity: 79
@2940 Channel: 1 Note on, B3 key=59 velocity: 79
@2960 Channel: 1 Note on, B3 key=59 velocity: 0
@2960 Channel: 1 Note on, D4 key=62 velocity: 0
@2960 Channel: 1 Note on, G3 key=55 velocity: 0
@2970 Channel: 1 Note on, D4 key=62 velocity: 79
@2970 Channel: 1 Note on, G3 key=55 velocity: 79
@2970 Channel: 1 Note on, B3 key=59 velocity: 79
@3020 Channel: 1 Note on, B3 key=59 velocity: 0
@3020 Channel: 1 Note on, G3 key=55 velocity: 0
@3020 Channel: 1 Note on, D4 key=62 velocity: 0
@3030 Channel: 1 Note on, D4 key=62 velocity: 79
@3030 Channel: 1 Note on, G3 key=55 velocity: 79
@3030 Channel: 1 Note on, B3 key=59 velocity: 79
@3050 Channel: 1 Note on, B3 key=59 velocity: 0
@3050 Channel: 1 Note on, G3 key=55 velocity: 0
@3050 Channel: 1 Note on, D4 key=62 velocity: 0
@3060 Channel: 1 Note on, D4 key=62 velocity: 79
@3060 Channel: 1 Note on, B3 key=59 velocity: 79
@3060 Channel: 1 Note on, G3 key=55 velocity: 79
@3110 Channel: 1 Note on, G3 key=55 velocity: 0
@3110 Channel: 1 Note on, B3 key=59 velocity: 0
@3110 Channel: 1 Note on, D4 key=62 velocity: 0
@3120 Channel: 1 Note on, D4 key=62 velocity: 81
@3120 Channel: 1 Note on, G3 key=55 velocity: 81
@3120 Channel: 1 Note on, C4 key=60 velocity: 81
@3120 Channel: 1 Command:176
@3120 Channel: 1 Command:176
@3170 Channel: 1 Note on, C4 key=60 velocity: 0
@3170 Channel: 1 Note on, G3 key=55 velocity: 0
@3170 Channel: 1 Note on, D4 key=62 velocity: 0
@3180 Channel: 1 Note on, D4 key=62 velocity: 81
@3180 Channel: 1 Note on, G3 key=55 velocity: 81
@3180 Channel: 1 Note on, C4 key=60 velocity: 81
@3200 Channel: 1 Note on, C4 key=60 velocity: 0
@3200 Channel: 1 Note on, G3 key=55 velocity: 0
@3200 Channel: 1 Note on, D4 key=62 velocity: 0
@3210 Channel: 1 Note on, G3 key=55 velocity: 81
@3210 Channel: 1 Note on, C4 key=60 velocity: 81
@3210 Channel: 1 Note on, D4 key=62 velocity: 81
@3260 Channel: 1 Note on, D4 key=62 velocity: 0
@3260 Channel: 1 Note on, C4 key=60 velocity: 0
@3260 Channel: 1 Note on, G3 key=55 velocity: 0
@3270 Channel: 1 Note on, D4 key=62 velocity: 81
@3270 Channel: 1 Note on, G3 key=55 velocity: 81
@3270 Channel: 1 Note on, C4 key=60 velocity: 81
@3290 Channel: 1 Note on, C4 key=60 velocity: 0
@3290 Channel: 1 Note on, G3 key=55 velocity: 0
@3290 Channel: 1 Note on, D4 key=62 velocity: 0
@3300 Channel: 1 Note on, C4 key=60 velocity: 81
@3300 Channel: 1 Note on, D4 key=62 velocity: 81
@3300 Channel: 1 Note on, G3 key=55 velocity: 81
@3350 Channel: 1 Note on, G3 key=55 velocity: 0
@3350 Channel: 1 Note on, D4 key=62 velocity: 0
@3350 Channel: 1 Note on, C4 key=60 velocity: 0
@3360 Channel: 1 Note on, B3 key=59 velocity: 81
@3360 Channel: 1 Note on, D4 key=62 velocity: 81
@3360 Channel: 1 Note on, G3 key=55 velocity: 81
@3360 Channel: 1 Command:176
@3360 Channel: 1 Command:176
@3410 Channel: 1 Note on, G3 key=55 velocity: 0
@3410 Channel: 1 Note on, D4 key=62 velocity: 0
@3410 Channel: 1 Note on, B3 key=59 velocity: 0
@3420 Channel: 1 Note on, D4 key=62 velocity: 81
@3420 Channel: 1 Note on, G3 key=55 velocity: 81
@3420 Channel: 1 Note on, B3 key=59 velocity: 81
@3440 Channel: 1 Note on, B3 key=59 velocity: 0
@3440 Channel: 1 Note on, G3 key=55 velocity: 0
@3440 Channel: 1 Note on, D4 key=62 velocity: 0
@3450 Channel: 1 Note on, D4 key=62 velocity: 81
@3450 Channel: 1 Note on, G3 key=55 velocity: 81
@3450 Channel: 1 Note on, B3 key=59 velocity: 81
@3500 Channel: 1 Note on, B3 key=59 velocity: 0
@3500 Channel: 1 Note on, G3 key=55 velocity: 0
@3500 Channel: 1 Note on, D4 key=62 velocity: 0
@3510 Channel: 1 Note on, G3 key=55 velocity: 82
@3510 Channel: 1 Note on, D4 key=62 velocity: 82
@3510 Channel: 1 Note on, B3 key=59 velocity: 82
@3530 Channel: 1 Note on, B3 key=59 velocity: 0
@3530 Channel: 1 Note on, D4 key=62 velocity: 0
@3530 Channel: 1 Note on, G3 key=55 velocity: 0
@3540 Channel: 1 Note on, B3 key=59 velocity: 82
@3540 Channel: 1 Note on, D4 key=62 velocity: 82
@3540 Channel: 1 Note on, G3 key=55 velocity: 82
@3590 Channel: 1 Note on, G3 key=55 velocity: 0
@3590 Channel: 1 Note on, D4 key=62 velocity: 0
@3590 Channel: 1 Note on, B3 key=59 velocity: 0
@3600 Channel: 1 Note on, C4 key=60 velocity: 82
@3600 Channel: 1 Note on, G3 key=55 velocity: 82
@3600 Channel: 1 Note on, D4 key=62 velocity: 82
@3600 Channel: 1 Command:176
@3600 Channel: 1 Command:176
@3650 Channel: 1 Note on, D4 key=62 velocity: 0
@3650 Channel: 1 Note on, G3 key=55 velocity: 0
@3650 Channel: 1 Note on, C4 key=60 velocity: 0
@3660 Channel: 1 Note on, C4 key=60 velocity: 82
@3660 Channel: 1 Note on, D4 key=62 velocity: 82
@3660 Channel: 1 Note on, G3 key=55 velocity: 82
@3680 Channel: 1 Note on, G3 key=55 velocity: 0
@3680 Channel: 1 Note on, D4 key=62 velocity: 0
@3680 Channel: 1 Note on, C4 key=60 velocity: 0
@3690 Channel: 1 Note on, G3 key=55 velocity: 82
@3690 Channel: 1 Note on, D4 key=62 velocity: 82
@3690 Channel: 1 Note on, C4 key=60 velocity: 82
@3740 Channel: 1 Note on, C4 key=60 velocity: 0
@3740 Channel: 1 Note on, D4 key=62 velocity: 0
@3740 Channel: 1 Note on, G3 key=55 velocity: 0
@3750 Channel: 1 Note on, G3 key=55 velocity: 82
@3750 Channel: 1 Note on, D4 key=62 velocity: 82
@3750 Channel: 1 Note on, C4 key=60 velocity: 82
@3770 Channel: 1 Note on, C4 key=60 velocity: 0
@3770 Channel: 1 Note on, D4 key=62 velocity: 0
@3770 Channel: 1 Note on, G3 key=55 velocity: 0
@3780 Channel: 1 Note on, D4 key=62 velocity: 82
@3780 Channel: 1 Note on, C4 key=60 velocity: 82
@3780 Channel: 1 Note on, G3 key=55 velocity: 82
@3830 Channel: 1 Note on, G3 key=55 velocity: 0
@3830 Channel: 1 Note on, C4 key=60 velocity: 0
@3830 Channel: 1 Note on, D4 key=62 velocity: 0
@3840 Channel: 1 Note on, G#3 key=56 velocity: 82
@3840 Channel: 1 Note on, B3 key=59 velocity: 82
@3840 Channel: 1 Note on, E4 key=64 velocity: 82
@3840 Channel: 1 Command:176
@3840 Channel: 1 Command:176
@3890 Channel: 1 Note on, E4 key=64 velocity: 0
@3890 Channel: 1 Note on, B3 key=59 velocity: 0
@3890 Channel: 1 Note on, G#3 key=56 velocity: 0
@3900 Channel: 1 Note on, E4 key=64 velocity: 82
@3900 Channel: 1 Note on, G#3 key=56 velocity: 82
@3900 Channel: 1 Note on, B3 key=59 velocity: 82
@3920 Channel: 1 Note on, B3 key=59 velocity: 0
@3920 Channel: 1 Note on, G#3 key=56 velocity: 0
@3920 Channel: 1 Note on, E4 key=64 velocity: 0
@3930 Channel: 1 Note on, E4 key=64 velocity: 83
@3930 Channel: 1 Note on, B3 key=59 velocity: 83
@3930 Channel: 1 Note on, G#3 key=56 velocity: 83
@3980 Channel: 1 Note on, G#3 key=56 velocity: 0
@3980 Channel: 1 Note on, B3 key=59 velocity: 0
@3980 Channel: 1 Note on, E4 key=64 velocity: 0
@3990 Channel: 1 Note on, G#3 key=56 velocity: 83
@3990 Channel: 1 Note on, E4 key=64 velocity: 83
@3990 Channel: 1 Note on, B3 key=59 velocity: 83
@4010 Channel: 1 Note on, B3 key=59 velocity: 0
@4010 Channel: 1 Note on, E4 key=64 velocity: 0
@4010 Channel: 1 Note on, G#3 key=56 velocity: 0
@4020 Channel: 1 Note on, E4 key=64 velocity: 83
@4020 Channel: 1 Note on, B3 key=59 velocity: 83
@4020 Channel: 1 Note on, G#3 key=56 velocity: 83
@4070 Channel: 1 Note on, G#3 key=56 velocity: 0
@4070 Channel: 1 Note on, B3 key=59 velocity: 0
@4070 Channel: 1 Note on, E4 key=64 velocity: 0
@4080 Channel: 1 Note on, E4 key=64 velocity: 82
@4080 Channel: 1 Note on, A3 key=57 velocity: 82
@4080 Channel: 1 Note on, B3 key=59 velocity: 82
@4080 Channel: 1 Command:176
@4080 Channel: 1 Command:176
@4130 Channel: 1 Note on, B3 key=59 velocity: 0
@4130 Channel: 1 Note on, A3 key=57 velocity: 0
@4130 Channel: 1 Note on, E4 key=64 velocity: 0
@4140 Channel: 1 Note on, B3 key=59 velocity: 82
@4140 Channel: 1 Note on, A3 key=57 velocity: 82
@4140 Channel: 1 Note on, E4 key=64 velocity: 82
@4160 Channel: 1 Note on, E4 key=64 velocity: 0
@4160 Channel: 1 Note on, A3 key=57 velocity: 0
@4160 Channel: 1 Note on, B3 key=59 velocity: 0
@4170 Channel: 1 Note on, B3 key=59 velocity: 82
@4170 Channel: 1 Note on, A3 key=57 velocity: 82
@4170 Channel: 1 Note on, E4 key=64 velocity: 82
@4220 Channel: 1 Note on, E4 key=64 velocity: 0
@4220 Channel: 1 Note on, A3 key=57 velocity: 0
@4220 Channel: 1 Note on, B3 key=59 velocity: 0
@4230 Channel: 1 Note on, E4 key=64 velocity: 82
@4230 Channel: 1 Note on, A3 key=57 velocity: 82
@4230 Channel: 1 Note on, B3 key=59 velocity: 82
@4250 Channel: 1 Note on, B3 key=59 velocity: 0
@4250 Channel: 1 Note on, A3 key=57 velocity: 0
@4250 Channel: 1 Note on, E4 key=64 velocity: 0
@4260 Channel: 1 Note on, B3 key=59 velocity: 82
@4260 Channel: 1 Note on, A3 key=57 velocity: 82
@4260 Channel: 1 Note on, E4 key=64 velocity: 82
@4310 Channel: 1 Note on, E4 key=64 velocity: 0
@4310 Channel: 1 Note on, A3 key=57 velocity: 0
@4310 Channel: 1 Note on, B3 key=59 velocity: 0
@4320 Channel: 1 Note on, B3 key=59 velocity: 82
@4320 Channel: 1 Note on, G#3 key=56 velocity: 82
@4320 Channel: 1 Note on, E4 key=64 velocity: 82
@4320 Channel: 1 Command:176
@4320 Channel: 1 Command:176
@4370 Channel: 1 Note on, E4 key=64 velocity: 0
@4370 Channel: 1 Note on, G#3 key=56 velocity: 0
@4370 Channel: 1 Note on, B3 key=59 velocity: 0
@4380 Channel: 1 Note on, B3 key=59 velocity: 82
@4380 Channel: 1 Note on, G#3 key=56 velocity: 82
@4380 Channel: 1 Note on, E4 key=64 velocity: 82
@4400 Channel: 1 Note on, E4 key=64 velocity: 0
@4400 Channel: 1 Note on, G#3 key=56 velocity: 0
@4400 Channel: 1 Note on, B3 key=59 velocity: 0
@4410 Channel: 1 Note on, B3 key=59 velocity: 82
@4410 Channel: 1 Note on, G#3 key=56 velocity: 82
@4410 Channel: 1 Note on, E4 key=64 velocity: 82
@4460 Channel: 1 Note on, E4 key=64 velocity: 0
@4460 Channel: 1 Note on, G#3 key=56 velocity: 0
@4460 Channel: 1 Note on, B3 key=59 velocity: 0
@4470 Channel: 1 Note on, B3 key=59 velocity: 82
@4470 Channel: 1 Note on, G#3 key=56 velocity: 82
@4470 Channel: 1 Note on, E4 key=64 velocity: 82
@4490 Channel: 1 Note on, E4 key=64 velocity: 0
@4490 Channel: 1 Note on, G#3 key=56 velocity: 0
@4490 Channel: 1 Note on, B3 key=59 velocity: 0
@4500 Channel: 1 Note on, B3 key=59 velocity: 82
@4500 Channel: 1 Note on, G#3 key=56 velocity: 82
@4500 Channel: 1 Note on, E4 key=64 velocity: 82
@4550 Channel: 1 Note on, E4 key=64 velocity: 0
@4550 Channel: 1 Note on, G#3 key=56 velocity: 0
@4550 Channel: 1 Note on, B3 key=59 velocity: 0
@4560 Channel: 1 Note on, A3 key=57 velocity: 82
@4560 Channel: 1 Note on, B3 key=59 velocity: 82
@4560 Channel: 1 Note on, E4 key=64 velocity: 82
@4560 Channel: 1 Command:176
@4560 Channel: 1 Command:176
@4610 Channel: 1 Note on, E4 key=64 velocity: 0
@4610 Channel: 1 Note on, B3 key=59 velocity: 0
@4610 Channel: 1 Note on, A3 key=57 velocity: 0
@4620 Channel: 1 Note on, A3 key=57 velocity: 82
@4620 Channel: 1 Note on, B3 key=59 velocity: 82
@4620 Channel: 1 Note on, E4 key=64 velocity: 82
@4640 Channel: 1 Note on, E4 key=64 velocity: 0
@4640 Channel: 1 Note on, B3 key=59 velocity: 0
@4640 Channel: 1 Note on, A3 key=57 velocity: 0
@4650 Channel: 1 Note on, A3 key=57 velocity: 82
@4650 Channel: 1 Note on, E4 key=64 velocity: 82
@4650 Channel: 1 Note on, B3 key=59 velocity: 82
@4700 Channel: 1 Note on, B3 key=59 velocity: 0
@4700 Channel: 1 Note on, E4 key=64 velocity: 0
@4700 Channel: 1 Note on, A3 key=57 velocity: 0
@4710 Channel: 1 Note on, A3 key=57 velocity: 82
@4710 Channel: 1 Note on, E4 key=64 velocity: 82
@4710 Channel: 1 Note on, B3 key=59 velocity: 82
@4730 Channel: 1 Note on, B3 key=59 velocity: 0
@4730 Channel: 1 Note on, E4 key=64 velocity: 0
@4730 Channel: 1 Note on, A3 key=57 velocity: 0
@4740 Channel: 1 Note on, A3 key=57 velocity: 82
@4740 Channel: 1 Note on, B3 key=59 velocity: 82
@4740 Channel: 1 Note on, E4 key=64 velocity: 82
@4790 Channel: 1 Note on, E4 key=64 velocity: 0
@4790 Channel: 1 Note on, B3 key=59 velocity: 0
@4790 Channel: 1 Note on, A3 key=57 velocity: 0
@4800 Channel: 1 Note on, C4 key=60 velocity: 82
@4800 Channel: 1 Note on, A3 key=57 velocity: 82
@4800 Channel: 1 Note on, F4 key=65 velocity: 82
@4800 Channel: 1 Command:176
@4800 Channel: 1 Command:176
@4850 Channel: 1 Note on, F4 key=65 velocity: 0
@4850 Channel: 1 Note on, A3 key=57 velocity: 0
@4850 Channel: 1 Note on, C4 key=60 velocity: 0
@4860 Channel: 1 Note on, C4 key=60 velocity: 82
@4860 Channel: 1 Note on, F4 key=65 velocity: 82
@4860 Channel: 1 Note on, A3 key=57 velocity: 82
@4880 Channel: 1 Note on, A3 key=57 velocity: 0
@4880 Channel: 1 Note on, F4 key=65 velocity: 0
@4880 Channel: 1 Note on, C4 key=60 velocity: 0
@4890 Channel: 1 Note on, F4 key=65 velocity: 82
@4890 Channel: 1 Note on, A3 key=57 velocity: 82
@4890 Channel: 1 Note on, C4 key=60 velocity: 82
@4940 Channel: 1 Note on, C4 key=60 velocity: 0
@4940 Channel: 1 Note on, A3 key=57 velocity: 0
@4940 Channel: 1 Note on, F4 key=65 velocity: 0
@4950 Channel: 1 Note on, F4 key=65 velocity: 82
@4950 Channel: 1 Note on, C4 key=60 velocity: 82
@4950 Channel: 1 Note on, A3 key=57 velocity: 82
@4970 Channel: 1 Note on, A3 key=57 velocity: 0
@4970 Channel: 1 Note on, C4 key=60 velocity: 0
@4970 Channel: 1 Note on, F4 key=65 velocity: 0
@4980 Channel: 1 Note on, C4 key=60 velocity: 82
@4980 Channel: 1 Note on, A3 key=57 velocity: 82
@4980 Channel: 1 Note on, F4 key=65 velocity: 82
@5030 Channel: 1 Note on, F4 key=65 velocity: 0
@5030 Channel: 1 Note on, A3 key=57 velocity: 0
@5030 Channel: 1 Note on, C4 key=60 velocity: 0
@5040 Channel: 1 Note on, A#3 key=58 velocity: 82
@5040 Channel: 1 Note on, C4 key=60 velocity: 82
@5040 Channel: 1 Note on, F4 key=65 velocity: 82
@5040 Channel: 1 Command:176
@5040 Channel: 1 Command:176
@5090 Channel: 1 Note on, F4 key=65 velocity: 0
@5090 Channel: 1 Note on, C4 key=60 velocity: 0
@5090 Channel: 1 Note on, A#3 key=58 velocity: 0
@5100 Channel: 1 Note on, A#3 key=58 velocity: 81
@5100 Channel: 1 Note on, C4 key=60 velocity: 81
@5100 Channel: 1 Note on, F4 key=65 velocity: 81
@5120 Channel: 1 Note on, F4 key=65 velocity: 0
@5120 Channel: 1 Note on, C4 key=60 velocity: 0
@5120 Channel: 1 Note on, A#3 key=58 velocity: 0
@5130 Channel: 1 Note on, C4 key=60 velocity: 81
@5130 Channel: 1 Note on, A#3 key=58 velocity: 81
@5130 Channel: 1 Note on, F4 key=65 velocity: 81
@5180 Channel: 1 Note on, F4 key=65 velocity: 0
@5180 Channel: 1 Note on, A#3 key=58 velocity: 0
@5180 Channel: 1 Note on, C4 key=60 velocity: 0
@5190 Channel: 1 Note on, F4 key=65 velocity: 81
@5190 Channel: 1 Note on, C4 key=60 velocity: 81
@5190 Channel: 1 Note on, A#3 key=58 velocity: 81
@5210 Channel: 1 Note on, A#3 key=58 velocity: 0
@5210 Channel: 1 Note on, C4 key=60 velocity: 0
@5210 Channel: 1 Note on, F4 key=65 velocity: 0
@5220 Channel: 1 Note on, C4 key=60 velocity: 81
@5220 Channel: 1 Note on, A#3 key=58 velocity: 81
@5220 Channel: 1 Note on, F4 key=65 velocity: 81
@5270 Channel: 1 Note on, F4 key=65 velocity: 0
@5270 Channel: 1 Note on, A#3 key=58 velocity: 0
@5270 Channel: 1 Note on, C4 key=60 velocity: 0
@5280 Channel: 1 Note on, A3 key=57 velocity: 81
@5280 Channel: 1 Note on, F4 key=65 velocity: 81
@5280 Channel: 1 Note on, C4 key=60 velocity: 81
@5280 Channel: 1 Command:176
@5280 Channel: 1 Command:176
@5330 Channel: 1 Note on, C4 key=60 velocity: 0
@5330 Channel: 1 Note on, F4 key=65 velocity: 0
@5330 Channel: 1 Note on, A3 key=57 velocity: 0
@5340 Channel: 1 Note on, C4 key=60 velocity: 81
@5340 Channel: 1 Note on, A3 key=57 velocity: 81
@5340 Channel: 1 Note on, F4 key=65 velocity: 81
@5360 Channel: 1 Note on, F4 key=65 velocity: 0
@5360 Channel: 1 Note on, A3 key=57 velocity: 0
@5360 Channel: 1 Note on, C4 key=60 velocity: 0
@5370 Channel: 1 Note on, F4 key=65 velocity: 81
@5370 Channel: 1 Note on, A3 key=57 velocity: 81
@5370 Channel: 1 Note on, C4 key=60 velocity: 81
@5420 Channel: 1 Note on, C4 key=60 velocity: 0
@5420 Channel: 1 Note on, A3 key=57 velocity: 0
@5420 Channel: 1 Note on, F4 key=65 velocity: 0
@5430 Channel: 1 Note on, C4 key=60 velocity: 80
@5430 Channel: 1 Note on, A3 key=57 velocity: 80
@5430 Channel: 1 Note on, F4 key=65 velocity: 80
@5450 Channel: 1 Note on, F4 key=65 velocity: 0
@5450 Channel: 1 Note on, A3 key=57 velocity: 0
@5450 Channel: 1 Note on, C4 key=60 velocity: 0
@5460 Channel: 1 Note on, C4 key=60 velocity: 80
@5460 Channel: 1 Note on, A3 key=57 velocity: 80
@5460 Channel: 1 Note on, F4 key=65 velocity: 80
@5510 Channel: 1 Note on, F4 key=65 velocity: 0
@5510 Channel: 1 Note on, A3 key=57 velocity: 0
@5510 Channel: 1 Note on, C4 key=60 velocity: 0
@5520 Channel: 1 Note on, C4 key=60 velocity: 81
@5520 Channel: 1 Note on, A#3 key=58 velocity: 81
@5520 Channel: 1 Note on, F4 key=65 velocity: 81
@5520 Channel: 1 Command:176
@5520 Channel: 1 Command:176
@5570 Channel: 1 Note on, F4 key=65 velocity: 0
@5570 Channel: 1 Note on, A#3 key=58 velocity: 0
@5570 Channel: 1 Note on, C4 key=60 velocity: 0
@5580 Channel: 1 Note on, C4 key=60 velocity: 82
@5580 Channel: 1 Note on, A#3 key=58 velocity: 82
@5580 Channel: 1 Note on, F4 key=65 velocity: 82
@5600 Channel: 1 Note on, F4 key=65 velocity: 0
@5600 Channel: 1 Note on, A#3 key=58 velocity: 0
@5600 Channel: 1 Note on, C4 key=60 velocity: 0
@5610 Channel: 1 Note on, F4 key=65 velocity: 79
@5610 Channel: 1 Note on, C4 key=60 velocity: 79
@5610 Channel: 1 Note on, A#3 key=58 velocity: 79
@5660 Channel: 1 Note on, A#3 key=58 velocity: 0
@5660 Channel: 1 Note on, C4 key=60 velocity: 0
@5660 Channel: 1 Note on, F4 key=65 velocity: 0
@5670 Channel: 1 Note on, A#3 key=58 velocity: 79
@5670 Channel: 1 Note on, F4 key=65 velocity: 79
@5670 Channel: 1 Note on, C4 key=60 velocity: 79
@5690 Channel: 1 Note on, C4 key=60 velocity: 0
@5690 Channel: 1 Note on, F4 key=65 velocity: 0
@5690 Channel: 1 Note on, A#3 key=58 velocity: 0
@5700 Channel: 1 Note on, A#3 key=58 velocity: 79
@5700 Channel: 1 Note on, C4 key=60 velocity: 79
@5700 Channel: 1 Note on, F4 key=65 velocity: 79
@5750 Channel: 1 Note on, F4 key=65 velocity: 0
@5750 Channel: 1 Note on, C4 key=60 velocity: 0
@5750 Channel: 1 Note on, A#3 key=58 velocity: 0
@5760 Channel: 1 Note on, C4 key=60 velocity: 79
@5760 Channel: 1 Note on, G3 key=55 velocity: 79
@5760 Channel: 1 Note on, E4 key=64 velocity: 79
@5760 Channel: 1 Command:176
@5760 Channel: 1 Command:176
@5810 Channel: 1 Note on, E4 key=64 velocity: 0
@5810 Channel: 1 Note on, G3 key=55 velocity: 0
@5810 Channel: 1 Note on, C4 key=60 velocity: 0
@5820 Channel: 1 Note on, E4 key=64 velocity: 80
@5820 Channel: 1 Note on, G3 key=55 velocity: 80
@5820 Channel: 1 Note on, C4 key=60 velocity: 80
@5840 Channel: 1 Note on, C4 key=60 velocity: 0
@5840 Channel: 1 Note on, G3 key=55 velocity: 0
@5840 Channel: 1 Note on, E4 key=64 velocity: 0
@5850 Channel: 1 Note on, C4 key=60 velocity: 80
@5850 Channel: 1 Note on, G3 key=55 velocity: 80
@5850 Channel: 1 Note on, E4 key=64 velocity: 80
@5900 Channel: 1 Note on, E4 key=64 velocity: 0
@5900 Channel: 1 Note on, G3 key=55 velocity: 0
@5900 Channel: 1 Note on, C4 key=60 velocity: 0
@5910 Channel: 1 Note on, G3 key=55 velocity: 80
@5910 Channel: 1 Note on, C4 key=60 velocity: 80
@5910 Channel: 1 Note on, E4 key=64 velocity: 80
@5930 Channel: 1 Note on, E4 key=64 velocity: 0
@5930 Channel: 1 Note on, C4 key=60 velocity: 0
@5930 Channel: 1 Note on, G3 key=55 velocity: 0
@5940 Channel: 1 Note on, G3 key=55 velocity: 80
@5940 Channel: 1 Note on, C4 key=60 velocity: 80
@5940 Channel: 1 Note on, E4 key=64 velocity: 80
@5990 Channel: 1 Note on, E4 key=64 velocity: 0
@5990 Channel: 1 Note on, C4 key=60 velocity: 0
@5990 Channel: 1 Note on, G3 key=55 velocity: 0
@6000 Channel: 1 Note on, F4 key=65 velocity: 80
@6000 Channel: 1 Note on, G3 key=55 velocity: 80
@6000 Channel: 1 Note on, C4 key=60 velocity: 80
@6000 Channel: 1 Command:176
@6000 Channel: 1 Command:176
@6050 Channel: 1 Note on, C4 key=60 velocity: 0
@6050 Channel: 1 Note on, G3 key=55 velocity: 0
@6050 Channel: 1 Note on, F4 key=65 velocity: 0
@6060 Channel: 1 Note on, G3 key=55 velocity: 80
@6060 Channel: 1 Note on, C4 key=60 velocity: 80
@6060 Channel: 1 Note on, F4 key=65 velocity: 80
@6080 Channel: 1 Note on, F4 key=65 velocity: 0
@6080 Channel: 1 Note on, C4 key=60 velocity: 0
@6080 Channel: 1 Note on, G3 key=55 velocity: 0
@6090 Channel: 1 Note on, F4 key=65 velocity: 80
@6090 Channel: 1 Note on, C4 key=60 velocity: 80
@6090 Channel: 1 Note on, G3 key=55 velocity: 80
@6140 Channel: 1 Note on, G3 key=55 velocity: 0
@6140 Channel: 1 Note on, C4 key=60 velocity: 0
@6140 Channel: 1 Note on, F4 key=65 velocity: 0
@6150 Channel: 1 Note on, G3 key=55 velocity: 80
@6150 Channel: 1 Note on, C4 key=60 velocity: 80
@6150 Channel: 1 Note on, F4 key=65 velocity: 80
@6170 Channel: 1 Note on, F4 key=65 velocity: 0
@6170 Channel: 1 Note on, C4 key=60 velocity: 0
@6170 Channel: 1 Note on, G3 key=55 velocity: 0
@6180 Channel: 1 Note on, F4 key=65 velocity: 80
@6180 Channel: 1 Note on, G3 key=55 velocity: 80
@6180 Channel: 1 Note on, C4 key=60 velocity: 80
@6230 Channel: 1 Note on, C4 key=60 velocity: 0
@6230 Channel: 1 Note on, G3 key=55 velocity: 0
@6230 Channel: 1 Note on, F4 key=65 velocity: 0
@6240 Channel: 1 Note on, C4 key=60 velocity: 80
@6240 Channel: 1 Note on, G3 key=55 velocity: 80
@6240 Channel: 1 Note on, E4 key=64 velocity: 80
@6240 Channel: 1 Command:176
@6240 Channel: 1 Command:176
@6290 Channel: 1 Note on, E4 key=64 velocity: 0
@6290 Channel: 1 Note on, G3 key=55 velocity: 0
@6290 Channel: 1 Note on, C4 key=60 velocity: 0
@6300 Channel: 1 Note on, E4 key=64 velocity: 80
@6300 Channel: 1 Note on, G3 key=55 velocity: 80
@6300 Channel: 1 Note on, C4 key=60 velocity: 80
@6320 Channel: 1 Note on, C4 key=60 velocity: 0
@6320 Channel: 1 Note on, G3 key=55 velocity: 0
@6320 Channel: 1 Note on, E4 key=64 velocity: 0
@6330 Channel: 1 Note on, C4 key=60 velocity: 81
@6330 Channel: 1 Note on, G3 key=55 velocity: 81
@6330 Channel: 1 Note on, E4 key=64 velocity: 81
@6380 Channel: 1 Note on, E4 key=64 velocity: 0
@6380 Channel: 1 Note on, G3 key=55 velocity: 0
@6380 Channel: 1 Note on, C4 key=60 velocity: 0
@6390 Channel: 1 Note on, G3 key=55 velocity: 81
@6390 Channel: 1 Note on, C4 key=60 velocity: 81
@6390 Channel: 1 Note on, E4 key=64 velocity: 81
@6410 Channel: 1 Note on, E4 key=64 velocity: 0
@6410 Channel: 1 Note on, C4 key=60 velocity: 0
@6410 Channel: 1 Note on, G3 key=55 velocity: 0
@6420 Channel: 1 Note on, G3 key=55 velocity: 81
@6420 Channel: 1 Note on, C4 key=60 velocity: 81
@6420 Channel: 1 Note on, E4 key=64 velocity: 81
@6470 Channel: 1 Note on, E4 key=64 velocity: 0
@6470 Channel: 1 Note on, C4 key=60 velocity: 0
@6470 Channel: 1 Note on, G3 key=55 velocity: 0
@6480 Channel: 1 Note on, F4 key=65 velocity: 81
@6480 Channel: 1 Note on, G3 key=55 velocity: 81
@6480 Channel: 1 Note on, C4 key=60 velocity: 81
@6480 Channel: 1 Command:176
@6480 Channel: 1 Command:176
@6530 Channel: 1 Note on, C4 key=60 velocity: 0
@6530 Channel: 1 Note on, G3 key=55 velocity: 0
@6530 Channel: 1 Note on, F4 key=65 velocity: 0
@6540 Channel: 1 Note on, G3 key=55 velocity: 81
@6540 Channel: 1 Note on, C4 key=60 velocity: 81
@6540 Channel: 1 Note on, F4 key=65 velocity: 81
@6560 Channel: 1 Note on, F4 key=65 velocity: 0
@6560 Channel: 1 Note on, C4 key=60 velocity: 0
@6560 Channel: 1 Note on, G3 key=55 velocity: 0
@6570 Channel: 1 Note on, F4 key=65 velocity: 81
@6570 Channel: 1 Note on, C4 key=60 velocity: 81
@6570 Channel: 1 Note on, G3 key=55 velocity: 81
@6620 Channel: 1 Note on, G3 key=55 velocity: 0
@6620 Channel: 1 Note on, C4 key=60 velocity: 0
@6620 Channel: 1 Note on, F4 key=65 velocity: 0
@6630 Channel: 1 Note on, G3 key=55 velocity: 82
@6630 Channel: 1 Note on, C4 key=60 velocity: 82
@6630 Channel: 1 Note on, F4 key=65 velocity: 82
@6650 Channel: 1 Note on, F4 key=65 velocity: 0
@6650 Channel: 1 Note on, C4 key=60 velocity: 0
@6650 Channel: 1 Note on, G3 key=55 velocity: 0
@6660 Channel: 1 Note on, F4 key=65 velocity: 82
@6660 Channel: 1 Note on, G3 key=55 velocity: 82
@6660 Channel: 1 Note on, C4 key=60 velocity: 82
@6710 Channel: 1 Note on, C4 key=60 velocity: 0
@6710 Channel: 1 Note on, G3 key=55 velocity: 0
@6710 Channel: 1 Note on, F4 key=65 velocity: 0
@6720 Channel: 1 Note on, B3 key=59 velocity: 82
@6720 Channel: 1 Note on, D4 key=62 velocity: 82
@6720 Channel: 1 Note on, G3 key=55 velocity: 82
@6720 Channel: 1 Command:176
@6720 Channel: 1 Command:176
@6770 Channel: 1 Note on, G3 key=55 velocity: 0
@6770 Channel: 1 Note on, D4 key=62 velocity: 0
@6770 Channel: 1 Note on, B3 key=59 velocity: 0
@6780 Channel: 1 Note on, G3 key=55 velocity: 82
@6780 Channel: 1 Note on, D4 key=62 velocity: 82
@6780 Channel: 1 Note on, B3 key=59 velocity: 82
@6800 Channel: 1 Note on, B3 key=59 velocity: 0
@6800 Channel: 1 Note on, D4 key=62 velocity: 0
@6800 Channel: 1 Note on, G3 key=55 velocity: 0
@6810 Channel: 1 Note on, D4 key=62 velocity: 83
@6810 Channel: 1 Note on, G3 key=55 velocity: 83
@6810 Channel: 1 Note on, B3 key=59 velocity: 83
@6860 Channel: 1 Note on, B3 key=59 velocity: 0
@6860 Channel: 1 Note on, G3 key=55 velocity: 0
@6860 Channel: 1 Note on, D4 key=62 velocity: 0
@6870 Channel: 1 Note on, D4 key=62 velocity: 83
@6870 Channel: 1 Note on, G3 key=55 velocity: 83
@6870 Channel: 1 Note on, B3 key=59 velocity: 83
@6890 Channel: 1 Note on, B3 key=59 velocity: 0
@6890 Channel: 1 Note on, G3 key=55 velocity: 0
@6890 Channel: 1 Note on, D4 key=62 velocity: 0
@6900 Channel: 1 Note on, D4 key=62 velocity: 83
@6900 Channel: 1 Note on, B3 key=59 velocity: 83
@6900 Channel: 1 Note on, G3 key=55 velocity: 83
@6950 Channel: 1 Note on, G3 key=55 velocity: 0
@6950 Channel: 1 Note on, B3 key=59 velocity: 0
@6950 Channel: 1 Note on, D4 key=62 velocity: 0
@6960 Channel: 1 Note on, D4 key=62 velocity: 83
@6960 Channel: 1 Note on, G3 key=55 velocity: 83
@6960 Channel: 1 Note on, C4 key=60 velocity: 83
@6960 Channel: 1 Command:176
@6960 Channel: 1 Command:176
@7010 Channel: 1 Note on, C4 key=60 velocity: 0
@7010 Channel: 1 Note on, G3 key=55 velocity: 0
@7010 Channel: 1 Note on, D4 key=62 velocity: 0
@7020 Channel: 1 Note on, D4 key=62 velocity: 83
@7020 Channel: 1 Note on, G3 key=55 velocity: 83
@7020 Channel: 1 Note on, C4 key=60 velocity: 83
@7040 Channel: 1 Note on, C4 key=60 velocity: 0
@7040 Channel: 1 Note on, G3 key=55 velocity: 0
@7040 Channel: 1 Note on, D4 key=62 velocity: 0
@7050 Channel: 1 Note on, G3 key=55 velocity: 83
@7050 Channel: 1 Note on, C4 key=60 velocity: 83
@7050 Channel: 1 Note on, D4 key=62 velocity: 83
@7100 Channel: 1 Note on, D4 key=62 velocity: 0
@7100 Channel: 1 Note on, C4 key=60 velocity: 0
@7100 Channel: 1 Note on, G3 key=55 velocity: 0
@7110 Channel: 1 Note on, D4 key=62 velocity: 83
@7110 Channel: 1 Note on, G3 key=55 velocity: 83
@7110 Channel: 1 Note on, C4 key=60 velocity: 83
@7130 Channel: 1 Note on, C4 key=60 velocity: 0
@7130 Channel: 1 Note on, G3 key=55 velocity: 0
@7130 Channel: 1 Note on, D4 key=62 velocity: 0
@7140 Channel: 1 Note on, C4 key=60 velocity: 83
@7140 Channel: 1 Note on, D4 key=62 velocity: 83
@7140 Channel: 1 Note on, G3 key=55 velocity: 83
@7190 Channel: 1 Note on, G3 key=55 velocity: 0
@7190 Channel: 1 Note on, D4 key=62 velocity: 0
@7190 Channel: 1 Note on, C4 key=60 velocity: 0
@7200 Channel: 1 Note on, B3 key=59 velocity: 82
@7200 Channel: 1 Note on, D4 key=62 velocity: 82
@7200 Channel: 1 Note on, G3 key=55 velocity: 82
@7200 Channel: 1 Command:176
@7200 Channel: 1 Command:176
@7250 Channel: 1 Note on, G3 key=55 velocity: 0
@7250 Channel: 1 Note on, D4 key=62 velocity: 0
@7250 Channel: 1 Note on, B3 key=59 velocity: 0
@7260 Channel: 1 Note on, D4 key=62 velocity: 82
@7260 Channel: 1 Note on, G3 key=55 velocity: 82
@7260 Channel: 1 Note on, B3 key=59 velocity: 82
@7280 Channel: 1 Note on, B3 key=59 velocity: 0
@7280 Channel: 1 Note on, G3 key=55 velocity: 0
@7280 Channel: 1 Note on, D4 key=62 velocity: 0
@7290 Channel: 1 Note on, D4 key=62 velocity: 82
@7290 Channel: 1 Note on, G3 key=55 velocity: 82
@7290 Channel: 1 Note on, B3 key=59 velocity: 82
@7340 Channel: 1 Note on, B3 key=59 velocity: 0
@7340 Channel: 1 Note on, G3 key=55 velocity: 0
@7340 Channel: 1 Note on, D4 key=62 velocity: 0
@7350 Channel: 1 Note on, G3 key=55 velocity: 81
@7350 Channel: 1 Note on, D4 key=62 velocity: 81
@7350 Channel: 1 Note on, B3 key=59 velocity: 81
@7370 Channel: 1 Note on, B3 key=59 velocity: 0
@7370 Channel: 1 Note on, D4 key=62 velocity: 0
@7370 Channel: 1 Note on, G3 key=55 velocity: 0
@7380 Channel: 1 Note on, B3 key=59 velocity: 81
@7380 Channel: 1 Note on, D4 key=62 velocity: 81
@7380 Channel: 1 Note on, G3 key=55 velocity: 81
@7430 Channel: 1 Note on, G3 key=55 velocity: 0
@7430 Channel: 1 Note on, D4 key=62 velocity: 0
@7430 Channel: 1 Note on, B3 key=59 velocity: 0
@7440 Channel: 1 Note on, C4 key=60 velocity: 81
@7440 Channel: 1 Note on, G3 key=55 velocity: 81
@7440 Channel: 1 Note on, D4 key=62 velocity: 81
@7440 Channel: 1 Command:176
@7440 Channel: 1 Command:176
@7490 Channel: 1 Note on, D4 key=62 velocity: 0
@7490 Channel: 1 Note on, G3 key=55 velocity: 0
@7490 Channel: 1 Note on, C4 key=60 velocity: 0
@7500 Channel: 1 Note on, C4 key=60 velocity: 81
@7500 Channel: 1 Note on, D4 key=62 velocity: 81
@7500 Channel: 1 Note on, G3 key=55 velocity: 81
@7520 Channel: 1 Note on, G3 key=55 velocity: 0
@7520 Channel: 1 Note on, D4 key=62 velocity: 0
@7520 Channel: 1 Note on, C4 key=60 velocity: 0
@7530 Channel: 1 Note on, G3 key=55 velocity: 81
@7530 Channel: 1 Note on, D4 key=62 velocity: 81
@7530 Channel: 1 Note on, C4 key=60 velocity: 81
@7580 Channel: 1 Note on, C4 key=60 velocity: 0
@7580 Channel: 1 Note on, D4 key=62 velocity: 0
@7580 Channel: 1 Note on, G3 key=55 velocity: 0
@7590 Channel: 1 Note on, G3 key=55 velocity: 80
@7590 Channel: 1 Note on, D4 key=62 velocity: 80
@7590 Channel: 1 Note on, C4 key=60 velocity: 80
@7610 Channel: 1 Note on, C4 key=60 velocity: 0
@7610 Channel: 1 Note on, D4 key=62 velocity: 0
@7610 Channel: 1 Note on, G3 key=55 velocity: 0
@7620 Channel: 1 Note on, D4 key=62 velocity: 80
@7620 Channel: 1 Note on, C4 key=60 velocity: 80
@7620 Channel: 1 Note on, G3 key=55 velocity: 80
@7670 Channel: 1 Note on, G3 key=55 velocity: 0
@7670 Channel: 1 Note on, C4 key=60 velocity: 0
@7670 Channel: 1 Note on, D4 key=62 velocity: 0
@7680 Channel: 1 Note on, C4 key=60 velocity: 80
@7680 Channel: 1 Note on, A3 key=57 velocity: 80
@7680 Channel: 1 Note on, F4 key=65 velocity: 80
@7680 Channel: 1 Command:176
@7680 Channel: 1 Command:176
@7730 Channel: 1 Note on, F4 key=65 velocity: 0
@7730 Channel: 1 Note on, A3 key=57 velocity: 0
@7730 Channel: 1 Note on, C4 key=60 velocity: 0
@7740 Channel: 1 Note on, C4 key=60 velocity: 80
@7740 Channel: 1 Note on, F4 key=65 velocity: 80
@7740 Channel: 1 Note on, A3 key=57 velocity: 80
@7760 Channel: 1 Note on, A3 key=57 velocity: 0
@7760 Channel: 1 Note on, F4 key=65 velocity: 0
@7760 Channel: 1 Note on, C4 key=60 velocity: 0
@7770 Channel: 1 Note on, F4 key=65 velocity: 80
@7770 Channel: 1 Note on, A3 key=57 velocity: 80
@7770 Channel: 1 Note on, C4 key=60 velocity: 80
@7820 Channel: 1 Note on, C4 key=60 velocity: 0
@7820 Channel: 1 Note on, A3 key=57 velocity: 0
@7820 Channel: 1 Note on, F4 key=65 velocity: 0
@7830 Channel: 1 Note on, F4 key=65 velocity: 80
@7830 Channel: 1 Note on, C4 key=60 velocity: 80
@7830 Channel: 1 Note on, A3 key=57 velocity: 80
@7850 Channel: 1 Note on, A3 key=57 velocity: 0
@7850 Channel: 1 Note on, C4 key=60 velocity: 0
@7850 Channel: 1 Note on, F4 key=65 velocity: 0
@7860 Channel: 1 Note on, C4 key=60 velocity: 80
@7860 Channel: 1 Note on, A3 key=57 velocity: 80
@7860 Channel: 1 Note on, F4 key=65 velocity: 80
@7910 Channel: 1 Note on, F4 key=65 velocity: 0
@7910 Channel: 1 Note on, A3 key=57 velocity: 0
@7910 Channel: 1 Note on, C4 key=60 velocity: 0
@7920 Channel: 1 Command:176
@7920 Channel: 1 Command:176
@7920 Channel: 1 Note on, G3 key=55 velocity: 80
@7920 Channel: 1 Note on, C4 key=60 velocity: 80
@7920 Channel: 1 Note on, F4 key=65 velocity: 80
@7970 Channel: 1 Note on, F4 key=65 velocity: 0
@7970 Channel: 1 Note on, C4 key=60 velocity: 0
@7970 Channel: 1 Note on, G3 key=55 velocity: 0
@7980 Channel: 1 Note on, G3 key=55 velocity: 80
@7980 Channel: 1 Note on, C4 key=60 velocity: 80
@7980 Channel: 1 Note on, F4 key=65 velocity: 80
@8000 Channel: 1 Note on, F4 key=65 velocity: 0
@8000 Channel: 1 Note on, C4 key=60 velocity: 0
@8000 Channel: 1 Note on, G3 key=55 velocity: 0
@8010 Channel: 1 Note on, G3 key=55 velocity: 80
@8010 Channel: 1 Note on, C4 key=60 velocity: 80
@8010 Channel: 1 Note on, F4 key=65 velocity: 80
@8060 Channel: 1 Note on, F4 key=65 velocity: 0
@8060 Channel: 1 Note on, C4 key=60 velocity: 0
@8060 Channel: 1 Note on, G3 key=55 velocity: 0
@8070 Channel: 1 Note on, G3 key=55 velocity: 79
@8070 Channel: 1 Note on, F4 key=65 velocity: 79
@8070 Channel: 1 Note on, C4 key=60 velocity: 79
@8090 Channel: 1 Note on, C4 key=60 velocity: 0
@8090 Channel: 1 Note on, F4 key=65 velocity: 0
@8090 Channel: 1 Note on, G3 key=55 velocity: 0
@8100 Channel: 1 Note on, G3 key=55 velocity: 80
@8100 Channel: 1 Note on, C4 key=60 velocity: 80
@8100 Channel: 1 Note on, F4 key=65 velocity: 80
@8150 Channel: 1 Note on, F4 key=65 velocity: 0
@8150 Channel: 1 Note on, C4 key=60 velocity: 0
@8150 Channel: 1 Note on, G3 key=55 velocity: 0
@8160 Channel: 1 Note on, A3 key=57 velocity: 81
@8160 Channel: 1 Note on, C4 key=60 velocity: 81
@8160 Channel: 1 Note on, E4 key=64 velocity: 81
@8160 Channel: 1 Command:176
@8160 Channel: 1 Command:176
@8193 Channel: 1 Note on, E4 key=64 velocity: 0
@8200 Channel: 1 Note on, C4 key=60 velocity: 0
@8200 Channel: 1 Note on, A3 key=57 velocity: 0
@8220 Channel: 1 Note on, C4 key=60 velocity: 81
@8220 Channel: 1 Note on, A3 key=57 velocity: 81
@8220 Channel: 1 Note on, E4 key=64 velocity: 81
@8236 Channel: 1 Note on, E4 key=64 velocity: 0
@8236 Channel: 1 Note on, C4 key=60 velocity: 0
@8238 Channel: 1 Note on, A3 key=57 velocity: 0
@8250 Channel: 1 Note on, C4 key=60 velocity: 81
@8250 Channel: 1 Note on, A3 key=57 velocity: 81
@8250 Channel: 1 Note on, E4 key=64 velocity: 81
@8285 Channel: 1 Note on, E4 key=64 velocity: 0
@8290 Channel: 1 Note on, A3 key=57 velocity: 0
@8290 Channel: 1 Note on, C4 key=60 velocity: 0
@8310 Channel: 1 Note on, C4 key=60 velocity: 81
@8310 Channel: 1 Note on, A3 key=57 velocity: 81
@8310 Channel: 1 Note on, E4 key=64 velocity: 81
@8323 Channel: 1 Note on, E4 key=64 velocity: 0
@8323 Channel: 1 Note on, C4 key=60 velocity: 0
@8329 Channel: 1 Note on, A3 key=57 velocity: 0
@8340 Channel: 1 Note on, A3 key=57 velocity: 81
@8340 Channel: 1 Note on, C4 key=60 velocity: 81
@8340 Channel: 1 Note on, E4 key=64 velocity: 81
@8375 Channel: 1 Note on, C4 key=60 velocity: 0
@8376 Channel: 1 Note on, E4 key=64 velocity: 0
@8378 Channel: 1 Note on, A3 key=57 velocity: 0
@8400 Channel: 1 Note on, A3 key=57 velocity: 81
@8400 Channel: 1 Note on, E4 key=64 velocity: 81
@8400 Channel: 1 Note on, B3 key=59 velocity: 81
@8400 Channel: 1 Command:176
@8400 Channel: 1 Command:176
@8438 Channel: 1 Note on, E4 key=64 velocity: 0
@8442 Channel: 1 Note on, B3 key=59 velocity: 0
@8442 Channel: 1 Note on, A3 key=57 velocity: 0
@8460 Channel: 1 Note on, B3 key=59 velocity: 81
@8460 Channel: 1 Note on, A3 key=57 velocity: 81
@8460 Channel: 1 Note on, E4 key=64 velocity: 81
@8471 Channel: 1 Note on, E4 key=64 velocity: 0
@8477 Channel: 1 Note on, A3 key=57 velocity: 0
@8477 Channel: 1 Note on, B3 key=59 velocity: 0
@8490 Channel: 1 Note on, B3 key=59 velocity: 81
@8490 Channel: 1 Note on, A3 key=57 velocity: 81
@8490 Channel: 1 Note on, E4 key=64 velocity: 81
@8519 Channel: 1 Note on, E4 key=64 velocity: 0
@8525 Channel: 1 Note on, A3 key=57 velocity: 0
@8525 Channel: 1 Note on, B3 key=59 velocity: 0
@8550 Channel: 1 Note on, B3 key=59 velocity: 81
@8550 Channel: 1 Note on, A3 key=57 velocity: 81
@8565 Channel: 1 Note on, B3 key=59 velocity: 0
@8567 Channel: 1 Note on, A3 key=57 velocity: 0
@8580 Channel: 1 Note on, A3 key=57 velocity: 81
@8580 Channel: 1 Note on, E4 key=64 velocity: 81
@8580 Channel: 1 Note on, C4 key=60 velocity: 81
@8615 Channel: 1 Note on, C4 key=60 velocity: 0
@8615 Channel: 1 Note on, E4 key=64 velocity: 0
@8619 Channel: 1 Note on, A3 key=57 velocity: 0
@8640 Channel: 1 Note on, C4 key=60 velocity: 81
@8640 Channel: 1 Note on, D4 key=62 velocity: 81
@8640 Channel: 1 Note on, G3 key=55 velocity: 81
@8640 Channel: 1 Command:176
@8640 Channel: 1 Command:176
@8673 Channel: 1 Note on, D4 key=62 velocity: 0
@8676 Channel: 1 Note on, G3 key=55 velocity: 0
@8680 Channel: 1 Note on, C4 key=60 velocity: 0
@8700 Channel: 1 Note on, C4 key=60 velocity: 81
@8700 Channel: 1 Note on, G3 key=55 velocity: 81
@8700 Channel: 1 Note on, D4 key=62 velocity: 81
@8713 Channel: 1 Note on, D4 key=62 velocity: 0
@8715 Channel: 1 Note on, C4 key=60 velocity: 0
@8717 Channel: 1 Note on, G3 key=55 velocity: 0
@8730 Channel: 1 Note on, G3 key=55 velocity: 81
@8730 Channel: 1 Note on, C4 key=60 velocity: 81
@8730 Channel: 1 Note on, D4 key=62 velocity: 81
@8763 Channel: 1 Note on, D4 key=62 velocity: 0
@8763 Channel: 1 Note on, C4 key=60 velocity: 0
@8765 Channel: 1 Note on, G3 key=55 velocity: 0
@8790 Channel: 1 Note on, C4 key=60 velocity: 80
@8790 Channel: 1 Note on, G3 key=55 velocity: 80
@8790 Channel: 1 Note on, D4 key=62 velocity: 80
@8805 Channel: 1 Note on, C4 key=60 velocity: 0
@8809 Channel: 1 Note on, G3 key=55 velocity: 0
@8812 Channel: 1 Note on, D4 key=62 velocity: 0
@8820 Channel: 1 Note on, C4 key=60 velocity: 80
@8820 Channel: 1 Note on, D4 key=62 velocity: 80
@8820 Channel: 1 Note on, G3 key=55 velocity: 80
@8853 Channel: 1 Note on, C4 key=60 velocity: 0
@8856 Channel: 1 Note on, G3 key=55 velocity: 0
@8858 Channel: 1 Note on, D4 key=62 velocity: 0
@8880 Channel: 1 Note on, D4 key=62 velocity: 80
@8880 Channel: 1 Note on, B3 key=59 velocity: 80
@8880 Channel: 1 Note on, G3 key=55 velocity: 80
@8880 Channel: 1 Command:176
@8880 Channel: 1 Command:176
@8913 Channel: 1 Note on, B3 key=59 velocity: 0
@8917 Channel: 1 Note on, D4 key=62 velocity: 0
@8918 Channel: 1 Note on, G3 key=55 velocity: 0
@8940 Channel: 1 Note on, D4 key=62 velocity: 80
@8940 Channel: 1 Note on, B3 key=59 velocity: 80
@8940 Channel: 1 Note on, G3 key=55 velocity: 80
@8955 Channel: 1 Note on, B3 key=59 velocity: 0
@8957 Channel: 1 Note on, G3 key=55 velocity: 0
@8957 Channel: 1 Note on, D4 key=62 velocity: 0
@8970 Channel: 1 Note on, D4 key=62 velocity: 80
@8970 Channel: 1 Note on, G3 key=55 velocity: 80
@8970 Channel: 1 Note on, B3 key=59 velocity: 80
@9001 Channel: 1 Note on, B3 key=59 velocity: 0
@9003 Channel: 1 Note on, D4 key=62 velocity: 0
@9007 Channel: 1 Note on, G3 key=55 velocity: 0
@9030 Channel: 1 Note on, B3 key=59 velocity: 80
@9030 Channel: 1 Note on, D4 key=62 velocity: 80
@9030 Channel: 1 Note on, G3 key=55 velocity: 80
@9043 Channel: 1 Note on, G3 key=55 velocity: 0
@9043 Channel: 1 Note on, D4 key=62 velocity: 0
@9045 Channel: 1 Note on, B3 key=59 velocity: 0
@9060 Channel: 1 Note on, B3 key=59 velocity: 80
@9060 Channel: 1 Note on, D4 key=62 velocity: 80
@9060 Channel: 1 Note on, G3 key=55 velocity: 80
@9060 Channel: 1 Command:176
@9060 Channel: 1 Command:176
@9088 Channel: 1 Note on, G3 key=55 velocity: 0
@9088 Channel: 1 Note on, D4 key=62 velocity: 0
@9088 Channel: 1 Note on, B3 key=59 velocity: 0
@9120 Channel: 1 Note on, G3 key=55 velocity: 80
@9120 Channel: 1 Note on, B3 key=59 velocity: 80
@9120 Channel: 1 Note on, F4 key=65 velocity: 80
@9120 Channel: 1 Command:176
@9120 Channel: 1 Command:176
@9153 Channel: 1 Note on, F4 key=65 velocity: 0
@9155 Channel: 1 Note on, B3 key=59 velocity: 0
@9157 Channel: 1 Note on, G3 key=55 velocity: 0
@9180 Channel: 1 Note on, B3 key=59 velocity: 80
@9180 Channel: 1 Note on, F4 key=65 velocity: 80
@9180 Channel: 1 Note on, G3 key=55 velocity: 80
@9196 Channel: 1 Note on, B3 key=59 velocity: 0
@9198 Channel: 1 Note on, G3 key=55 velocity: 0
@9200 Channel: 1 Note on, F4 key=65 velocity: 0
@9210 Channel: 1 Note on, F4 key=65 velocity: 80
@9210 Channel: 1 Note on, G3 key=55 velocity: 80
@9210 Channel: 1 Note on, B3 key=59 velocity: 80
@9239 Channel: 1 Note on, B3 key=59 velocity: 0
@9243 Channel: 1 Note on, G3 key=55 velocity: 0
@9245 Channel: 1 Note on, F4 key=65 velocity: 0
@9270 Channel: 1 Note on, F4 key=65 velocity: 80
@9270 Channel: 1 Note on, G3 key=55 velocity: 80
@9270 Channel: 1 Note on, B3 key=59 velocity: 80
@9285 Channel: 1 Note on, B3 key=59 velocity: 0
@9289 Channel: 1 Note on, G3 key=55 velocity: 0
@9300 Channel: 1 Note on, G3 key=55 velocity: 80
@9300 Channel: 1 Note on, B3 key=59 velocity: 80
@9333 Channel: 1 Note on, B3 key=59 velocity: 0
@9336 Channel: 1 Note on, F4 key=65 velocity: 0
@9338 Channel: 1 Note on, G3 key=55 velocity: 0
@9360 Channel: 1 Note on, D4 key=62 velocity: 80
@9360 Channel: 1 Note on, G3 key=55 velocity: 80
@9360 Channel: 1 Note on, B3 key=59 velocity: 80
@9360 Channel: 1 Command:176
@9360 Channel: 1 Command:176
@9395 Channel: 1 Note on, B3 key=59 velocity: 0
@9397 Channel: 1 Note on, G3 key=55 velocity: 0
@9397 Channel: 1 Note on, D4 key=62 velocity: 0
@9420 Channel: 1 Note on, G3 key=55 velocity: 80
@9420 Channel: 1 Note on, B3 key=59 velocity: 80
@9420 Channel: 1 Note on, D4 key=62 velocity: 80
@9436 Channel: 1 Note on, D4 key=62 velocity: 0
@9436 Channel: 1 Note on, B3 key=59 velocity: 0
@9440 Channel: 1 Note on, G3 key=55 velocity: 0
@9450 Channel: 1 Note on, G3 key=55 velocity: 81
@9450 Channel: 1 Note on, B3 key=59 velocity: 81
@9450 Channel: 1 Note on, D4 key=62 velocity: 81
@9477 Channel: 1 Note on, D4 key=62 velocity: 0
@9485 Channel: 1 Note on, B3 key=59 velocity: 0
@9487 Channel: 1 Note on, G3 key=55 velocity: 0
@9510 Channel: 1 Note on, G3 key=55 velocity: 82
@9510 Channel: 1 Note on, B3 key=59 velocity: 82
@9510 Channel: 1 Note on, D4 key=62 velocity: 82
@9523 Channel: 1 Note on, D4 key=62 velocity: 0
@9525 Channel: 1 Note on, B3 key=59 velocity: 0
@9529 Channel: 1 Note on, G3 key=55 velocity: 0
@9540 Channel: 1 Note on, G3 key=55 velocity: 82
@9540 Channel: 1 Note on, B3 key=59 velocity: 82
@9540 Channel: 1 Note on, D4 key=62 velocity: 82
@9540 Channel: 1 Command:176
@9540 Channel: 1 Command:176
@9575 Channel: 1 Note on, D4 key=62 velocity: 0
@9578 Channel: 1 Note on, B3 key=59 velocity: 0
@9580 Channel: 1 Note on, G3 key=55 velocity: 0
@9600 Channel: 1 Note on, C4 key=60 velocity: 82
@9600 Channel: 1 Note on, E4 key=64 velocity: 82
@9600 Channel: 1 Note on, G3 key=55 velocity: 82
@9600 Channel: 1 Note on, E4 key=64 velocity: 82
@9600 Channel: 1 Note on, C4 key=60 velocity: 82
@9600 Channel: 1 Note on, G3 key=55 velocity: 82
@9600 Channel: 1 Command:176
@9600 Channel: 1 Command:176
@9637 Channel: 1 Note on, E4 key=64 velocity: 0
@9639 Channel: 1 Note on, C4 key=60 velocity: 0
@9639 Channel: 1 Note on, G3 key=55 velocity: 0
@9646 Channel: 1 Note on, C4 key=60 velocity: 0
@9646 Channel: 1 Note on, E4 key=64 velocity: 0
@9648 Channel: 1 Note on, G3 key=55 velocity: 0
@9660 Channel: 1 Note on, G3 key=55 velocity: 82
@9660 Channel: 1 Note on, E4 key=64 velocity: 82
@9660 Channel: 1 Note on, C4 key=60 velocity: 82
@9673 Channel: 1 Note on, C4 key=60 velocity: 0
@9675 Channel: 1 Note on, E4 key=64 velocity: 0
@9679 Channel: 1 Note on, G3 key=55 velocity: 0
@9690 Channel: 1 Note on, G3 key=55 velocity: 82
@9690 Channel: 1 Note on, E4 key=64 velocity: 82
@9690 Channel: 1 Note on, C4 key=60 velocity: 82
@9726 Channel: 1 Note on, C4 key=60 velocity: 0
@9732 Channel: 1 Note on, E4 key=64 velocity: 0
@9732 Channel: 1 Note on, G3 key=55 velocity: 0
@9750 Channel: 1 Note on, C4 key=60 velocity: 82
@9750 Channel: 1 Note on, E4 key=64 velocity: 82
@9750 Channel: 1 Note on, G3 key=55 velocity: 82
@9765 Channel: 1 Note on, G3 key=55 velocity: 0
@9765 Channel: 1 Note on, E4 key=64 velocity: 0
@9765 Channel: 1 Note on, C4 key=60 velocity: 0
@9780 Channel: 1 Note on, E4 key=64 velocity: 82
@9780 Channel: 1 Note on, C4 key=60 velocity: 82
@9780 Channel: 1 Note on, G3 key=55 velocity: 82
@9822 Channel: 1 Note on, G3 key=55 velocity: 0
@9822 Channel: 1 Note on, E4 key=64 velocity: 0
@9824 Channel: 1 Note on, C4 key=60 velocity: 0
@9840 Channel: 1 Note on, F4 key=65 velocity: 80
@9840 Channel: 1 Note on, C4 key=60 velocity: 80
@9840 Channel: 1 Note on, G3 key=55 velocity: 80
@9840 Channel: 1 Command:176
@9840 Channel: 1 Command:176
@9882 Channel: 1 Note on, G3 key=55 velocity: 0
@9882 Channel: 1 Note on, C4 key=60 velocity: 0
@9884 Channel: 1 Note on, F4 key=65 velocity: 0
@9900 Channel: 1 Note on, F4 key=65 velocity: 80
@9900 Channel: 1 Note on, C4 key=60 velocity: 80
@9900 Channel: 1 Note on, G3 key=55 velocity: 80
@9915 Channel: 1 Note on, G3 key=55 velocity: 0
@9915 Channel: 1 Note on, C4 key=60 velocity: 0
@9920 Channel: 1 Note on, F4 key=65 velocity: 0
@9930 Channel: 1 Note on, F4 key=65 velocity: 80
@9930 Channel: 1 Note on, C4 key=60 velocity: 80
@9930 Channel: 1 Note on, G3 key=55 velocity: 80
@9972 Channel: 1 Note on, C4 key=60 velocity: 0
@9972 Channel: 1 Note on, F4 key=65 velocity: 0
@9974 Channel: 1 Note on, G3 key=55 velocity: 0
@9990 Channel: 1 Note on, G3 key=55 velocity: 79
@9990 Channel: 1 Note on, C4 key=60 velocity: 79
@9990 Channel: 1 Note on, F4 key=65 velocity: 79
@10007 Channel: 1 Note on, F4 key=65 velocity: 0
@10007 Channel: 1 Note on, C4 key=60 velocity: 0
@10007 Channel: 1 Note on, G3 key=55 velocity: 0
@10020 Channel: 1 Note on, F4 key=65 velocity: 79
@10020 Channel: 1 Note on, G3 key=55 velocity: 79
@10020 Channel: 1 Note on, C4 key=60 velocity: 79
@10067 Channel: 1 Note on, C4 key=60 velocity: 0
@10067 Channel: 1 Note on, G3 key=55 velocity: 0
@10069 Channel: 1 Note on, F4 key=65 velocity: 0
@10080 Channel: 1 Note on, C4 key=60 velocity: 78
@10080 Channel: 1 Note on, E4 key=64 velocity: 78
@10080 Channel: 1 Note on, G3 key=55 velocity: 78
@10080 Channel: 1 Command:176
@10080 Channel: 1 Command:176
@10115 Channel: 1 Note on, G3 key=55 velocity: 0
@10115 Channel: 1 Note on, E4 key=64 velocity: 0
@10115 Channel: 1 Note on, C4 key=60 velocity: 0
@10140 Channel: 1 Note on, C4 key=60 velocity: 78
@10140 Channel: 1 Note on, E4 key=64 velocity: 78
@10140 Channel: 1 Note on, G3 key=55 velocity: 78
@10158 Channel: 1 Note on, E4 key=64 velocity: 0
@10158 Channel: 1 Note on, C4 key=60 velocity: 0
@10160 Channel: 1 Note on, G3 key=55 velocity: 0
@10170 Channel: 1 Note on, E4 key=64 velocity: 78
@10170 Channel: 1 Note on, G3 key=55 velocity: 78
@10170 Channel: 1 Note on, C4 key=60 velocity: 78
@10205 Channel: 1 Note on, C4 key=60 velocity: 0
@10208 Channel: 1 Note on, E4 key=64 velocity: 0
@10210 Channel: 1 Note on, G3 key=55 velocity: 0
@10230 Channel: 1 Note on, G3 key=55 velocity: 78
@10230 Channel: 1 Note on, E4 key=64 velocity: 78
@10230 Channel: 1 Note on, C4 key=60 velocity: 78
@10248 Channel: 1 Note on, C4 key=60 velocity: 0
@10248 Channel: 1 Note on, E4 key=64 velocity: 0
@10248 Channel: 1 Note on, G3 key=55 velocity: 0
@10260 Channel: 1 Note on, E4 key=64 velocity: 78
@10260 Channel: 1 Note on, G3 key=55 velocity: 78
@10260 Channel: 1 Note on, C4 key=60 velocity: 78
@10298 Channel: 1 Note on, G3 key=55 velocity: 0
@10300 Channel: 1 Note on, C4 key=60 velocity: 0
@10300 Channel: 1 Note on, E4 key=64 velocity: 0
@10320 Channel: 1 Note on, C4 key=60 velocity: 78
@10320 Channel: 1 Note on, G3 key=55 velocity: 78
@10320 Channel: 1 Note on, F4 key=65 velocity: 78
@10320 Channel: 1 Command:176
@10320 Channel: 1 Command:176
@10357 Channel: 1 Note on, F4 key=65 velocity: 0
@10357 Channel: 1 Note on, G3 key=55 velocity: 0
@10359 Channel: 1 Note on, C4 key=60 velocity: 0
@10380 Channel: 1 Note on, C4 key=60 velocity: 78
@10380 Channel: 1 Note on, F4 key=65 velocity: 78
@10380 Channel: 1 Note on, G3 key=55 velocity: 78
@10398 Channel: 1 Note on, G3 key=55 velocity: 0
@10398 Channel: 1 Note on, C4 key=60 velocity: 0
@10400 Channel: 1 Note on, F4 key=65 velocity: 0
@10410 Channel: 1 Note on, F4 key=65 velocity: 78
@10410 Channel: 1 Note on, C4 key=60 velocity: 78
@10410 Channel: 1 Note on, G3 key=55 velocity: 78
@10445 Channel: 1 Note on, C4 key=60 velocity: 0
@10445 Channel: 1 Note on, F4 key=65 velocity: 0
@10447 Channel: 1 Note on, G3 key=55 velocity: 0
@10470 Channel: 1 Note on, F4 key=65 velocity: 79
@10470 Channel: 1 Note on, C4 key=60 velocity: 79
@10470 Channel: 1 Note on, G3 key=55 velocity: 79
@10486 Channel: 1 Note on, G3 key=55 velocity: 0
@10486 Channel: 1 Note on, C4 key=60 velocity: 0
@10490 Channel: 1 Note on, F4 key=65 velocity: 0
@10500 Channel: 1 Note on, F4 key=65 velocity: 80
@10500 Channel: 1 Note on, G3 key=55 velocity: 80
@10500 Channel: 1 Note on, C4 key=60 velocity: 80
@10535 Channel: 1 Note on, F4 key=65 velocity: 0
@10539 Channel: 1 Note on, C4 key=60 velocity: 0
@10539 Channel: 1 Note on, G3 key=55 velocity: 0
@10560 Channel: 1 Note on, C4 key=60 velocity: 80
@10560 Channel: 1 Note on, E4 key=64 velocity: 80
@10560 Channel: 1 Note on, A3 key=57 velocity: 80
@10560 Channel: 1 Command:176
@10560 Channel: 1 Command:176
@10600 Channel: 1 Note on, A3 key=57 velocity: 0
@10600 Channel: 1 Note on, E4 key=64 velocity: 0
@10604 Channel: 1 Note on, C4 key=60 velocity: 0
@10620 Channel: 1 Note on, A3 key=57 velocity: 80
@10620 Channel: 1 Note on, C4 key=60 velocity: 80
@10620 Channel: 1 Note on, E4 key=64 velocity: 80
@10637 Channel: 1 Note on, C4 key=60 velocity: 0
@10640 Channel: 1 Note on, E4 key=64 velocity: 0
@10644 Channel: 1 Note on, A3 key=57 velocity: 0
@10650 Channel: 1 Note on, A3 key=57 velocity: 80
@10650 Channel: 1 Note on, E4 key=64 velocity: 80
@10650 Channel: 1 Note on, C4 key=60 velocity: 80
@10685 Channel: 1 Note on, C4 key=60 velocity: 0
@10687 Channel: 1 Note on, E4 key=64 velocity: 0
@10690 Channel: 1 Note on, A3 key=57 velocity: 0
@10710 Channel: 1 Note on, C4 key=60 velocity: 79
@10710 Channel: 1 Note on, A3 key=57 velocity: 79
@10710 Channel: 1 Note on, E4 key=64 velocity: 79
@10724 Channel: 1 Note on, A3 key=57 velocity: 0
@10724 Channel: 1 Note on, C4 key=60 velocity: 0
@10726 Channel: 1 Note on, E4 key=64 velocity: 0
@10740 Channel: 1 Note on, A3 key=57 velocity: 78
@10740 Channel: 1 Note on, C4 key=60 velocity: 78
@10740 Channel: 1 Note on, E4 key=64 velocity: 78
@10778 Channel: 1 Note on, E4 key=64 velocity: 0
@10778 Channel: 1 Note on, C4 key=60 velocity: 0
@10778 Channel: 1 Note on, A3 key=57 velocity: 0
@10800 Channel: 1 Note on, A3 key=57 velocity: 78
@10800 Channel: 1 Note on, C4 key=60 velocity: 78
@10800 Channel: 1 Note on, E4 key=64 velocity: 78
@10800 Channel: 1 Command:176
@10800 Channel: 1 Command:176
@10837 Channel: 1 Note on, E4 key=64 velocity: 0
@10837 Channel: 1 Note on, C4 key=60 velocity: 0
@10839 Channel: 1 Note on, A3 key=57 velocity: 0
@10860 Channel: 1 Note on, A3 key=57 velocity: 78
@10860 Channel: 1 Note on, E4 key=64 velocity: 78
@10860 Channel: 1 Note on, C4 key=60 velocity: 78
@10873 Channel: 1 Note on, C4 key=60 velocity: 0
@10878 Channel: 1 Note on, E4 key=64 velocity: 0
@10878 Channel: 1 Note on, A3 key=57 velocity: 0
@10890 Channel: 1 Note on, A3 key=57 velocity: 78
@10890 Channel: 1 Note on, C4 key=60 velocity: 78
@10890 Channel: 1 Note on, E4 key=64 velocity: 78
@10923 Channel: 1 Note on, E4 key=64 velocity: 0
@10923 Channel: 1 Note on, C4 key=60 velocity: 0
@10927 Channel: 1 Note on, A3 key=57 velocity: 0
@10950 Channel: 1 Note on, A3 key=57 velocity: 78
@10950 Channel: 1 Note on, C4 key=60 velocity: 78
@10950 Channel: 1 Note on, E4 key=64 velocity: 78
@10965 Channel: 1 Note on, E4 key=64 velocity: 0
@10965 Channel: 1 Note on, C4 key=60 velocity: 0
@10965 Channel: 1 Note on, A3 key=57 velocity: 0
@10980 Channel: 1 Note on, A3 key=57 velocity: 79
@10980 Channel: 1 Note on, E4 key=64 velocity: 79
@10980 Channel: 1 Note on, C4 key=60 velocity: 79
@11006 Channel: 1 Note on, C4 key=60 velocity: 0
@11006 Channel: 1 Note on, E4 key=64 velocity: 0
@11011 Channel: 1 Note on, A3 key=57 velocity: 0
@11040 Channel: 1 Note on, A3 key=57 velocity: 79
@11040 Channel: 1 Note on, E4 key=64 velocity: 79
@11040 Channel: 1 Note on, C4 key=60 velocity: 79
@11040 Channel: 1 Command:176
@11040 Channel: 1 Command:176
@11073 Channel: 1 Note on, C4 key=60 velocity: 0
@11078 Channel: 1 Note on, E4 key=64 velocity: 0
@11078 Channel: 1 Note on, A3 key=57 velocity: 0
@11100 Channel: 1 Note on, A3 key=57 velocity: 79
@11100 Channel: 1 Note on, C4 key=60 velocity: 79
@11100 Channel: 1 Note on, E4 key=64 velocity: 79
@11116 Channel: 1 Note on, C4 key=60 velocity: 0
@11118 Channel: 1 Note on, E4 key=64 velocity: 0
@11120 Channel: 1 Note on, A3 key=57 velocity: 0
@11130 Channel: 1 Note on, A3 key=57 velocity: 79
@11130 Channel: 1 Note on, E4 key=64 velocity: 79
@11130 Channel: 1 Note on, C4 key=60 velocity: 79
@11157 Channel: 1 Note on, C4 key=60 velocity: 0
@11161 Channel: 1 Note on, E4 key=64 velocity: 0
@11163 Channel: 1 Note on, A3 key=57 velocity: 0
@11190 Channel: 1 Note on, A3 key=57 velocity: 77
@11190 Channel: 1 Note on, C4 key=60 velocity: 77
@11190 Channel: 1 Note on, E4 key=64 velocity: 77
@11201 Channel: 1 Note on, E4 key=64 velocity: 0
@11201 Channel: 1 Note on, C4 key=60 velocity: 0
@11209 Channel: 1 Note on, A3 key=57 velocity: 0
@11220 Channel: 1 Note on, A3 key=57 velocity: 77
@11220 Channel: 1 Note on, C4 key=60 velocity: 77
@11220 Channel: 1 Note on, E4 key=64 velocity: 77
@11251 Channel: 1 Note on, C4 key=60 velocity: 0
@11253 Channel: 1 Note on, E4 key=64 velocity: 0
@11255 Channel: 1 Note on, A3 key=57 velocity: 0
@11280 Channel: 1 Note on, A3 key=57 velocity: 77
@11280 Channel: 1 Note on, E4 key=64 velocity: 77
@11280 Channel: 1 Note on, C4 key=60 velocity: 77
@11280 Channel: 1 Command:176
@11280 Channel: 1 Command:176
@11315 Channel: 1 Note on, C4 key=60 velocity: 0
@11320 Channel: 1 Note on, E4 key=64 velocity: 0
@11320 Channel: 1 Note on, A3 key=57 velocity: 0
@11340 Channel: 1 Note on, A3 key=57 velocity: 78
@11340 Channel: 1 Note on, C4 key=60 velocity: 78
@11340 Channel: 1 Note on, E4 key=64 velocity: 78
@11353 Channel: 1 Note on, C4 key=60 velocity: 0
@11355 Channel: 1 Note on, E4 key=64 velocity: 0
@11360 Channel: 1 Note on, A3 key=57 velocity: 0
@11370 Channel: 1 Note on, A3 key=57 velocity: 79
@11370 Channel: 1 Note on, E4 key=64 velocity: 79
@11370 Channel: 1 Note on, C4 key=60 velocity: 79
@11403 Channel: 1 Note on, C4 key=60 velocity: 0
@11405 Channel: 1 Note on, E4 key=64 velocity: 0
@11408 Channel: 1 Note on, A3 key=57 velocity: 0
@11430 Channel: 1 Note on, A3 key=57 velocity: 79
@11430 Channel: 1 Note on, C4 key=60 velocity: 79
@11430 Channel: 1 Note on, E4 key=64 velocity: 79
@11443 Channel: 1 Note on, C4 key=60 velocity: 0
@11445 Channel: 1 Note on, E4 key=64 velocity: 0
@11452 Channel: 1 Note on, A3 key=57 velocity: 0
@11460 Channel: 1 Note on, E4 key=64 velocity: 79
@11460 Channel: 1 Note on, A3 key=57 velocity: 79
@11460 Channel: 1 Note on, C4 key=60 velocity: 79
@11489 Channel: 1 Note on, C4 key=60 velocity: 0
@11491 Channel: 1 Note on, E4 key=64 velocity: 0
@11493 Channel: 1 Note on, A3 key=57 velocity: 0
@11520 Channel: 1 Note on, C4 key=60 velocity: 79
@11520 Channel: 1 Note on, F4 key=65 velocity: 79
@11520 Channel: 1 Note on, A3 key=57 velocity: 79
@11520 Channel: 1 Command:176
@11520 Channel: 1 Command:176
@11555 Channel: 1 Note on, A3 key=57 velocity: 0
@11555 Channel: 1 Note on, C4 key=60 velocity: 0
@11557 Channel: 1 Note on, F4 key=65 velocity: 0
@11580 Channel: 1 Note on, F4 key=65 velocity: 80
@11580 Channel: 1 Note on, C4 key=60 velocity: 80
@11580 Channel: 1 Note on, A3 key=57 velocity: 80
@11596 Channel: 1 Note on, C4 key=60 velocity: 0
@11598 Channel: 1 Note on, A3 key=57 velocity: 0
@11598 Channel: 1 Note on, F4 key=65 velocity: 0
@11610 Channel: 1 Note on, A3 key=57 velocity: 80
@11610 Channel: 1 Note on, F4 key=65 velocity: 80
@11610 Channel: 1 Note on, C4 key=60 velocity: 80
@11645 Channel: 1 Note on, C4 key=60 velocity: 0
@11645 Channel: 1 Note on, F4 key=65 velocity: 0
@11645 Channel: 1 Note on, A3 key=57 velocity: 0
@11670 Channel: 1 Note on, A3 key=57 velocity: 80
@11670 Channel: 1 Note on, C4 key=60 velocity: 80
@11670 Channel: 1 Note on, F4 key=65 velocity: 80
@11686 Channel: 1 Note on, F4 key=65 velocity: 0
@11686 Channel: 1 Note on, C4 key=60 velocity: 0
@11688 Channel: 1 Note on, A3 key=57 velocity: 0
@11700 Channel: 1 Note on, A3 key=57 velocity: 80
@11700 Channel: 1 Note on, F4 key=65 velocity: 80
@11700 Channel: 1 Note on, C4 key=60 velocity: 80
@11731 Channel: 1 Note on, C4 key=60 velocity: 0
@11731 Channel: 1 Note on, F4 key=65 velocity: 0
@11731 Channel: 1 Note on, A3 key=57 velocity: 0
@11760 Channel: 1 Note on, C4 key=60 velocity: 80
@11760 Channel: 1 Note on, G3 key=55 velocity: 80
@11760 Channel: 1 Note on, F4 key=65 velocity: 80
@11760 Channel: 1 Command:176
@11760 Channel: 1 Command:176
@11796 Channel: 1 Note on, F4 key=65 velocity: 0
@11796 Channel: 1 Note on, G3 key=55 velocity: 0
@11796 Channel: 1 Note on, C4 key=60 velocity: 0
@11820 Channel: 1 Note on, G3 key=55 velocity: 80
@11820 Channel: 1 Note on, C4 key=60 velocity: 80
@11820 Channel: 1 Note on, F4 key=65 velocity: 80
@11837 Channel: 1 Note on, F4 key=65 velocity: 0
@11837 Channel: 1 Note on, C4 key=60 velocity: 0
@11837 Channel: 1 Note on, G3 key=55 velocity: 0
@11850 Channel: 1 Note on, G3 key=55 velocity: 80
@11850 Channel: 1 Note on, F4 key=65 velocity: 80
@11850 Channel: 1 Note on, C4 key=60 velocity: 80
@11878 Channel: 1 Note on, C4 key=60 velocity: 0
@11878 Channel: 1 Note on, F4 key=65 velocity: 0
@11883 Channel: 1 Note on, G3 key=55 velocity: 0
@11910 Channel: 1 Note on, G3 key=55 velocity: 80
@11910 Channel: 1 Note on, C4 key=60 velocity: 80
@11910 Channel: 1 Note on, F4 key=65 velocity: 80
@11927 Channel: 1 Note on, F4 key=65 velocity: 0
@11927 Channel: 1 Note on, C4 key=60 velocity: 0
@11930 Channel: 1 Note on, G3 key=55 velocity: 0
@11940 Channel: 1 Note on, G3 key=55 velocity: 80
@11940 Channel: 1 Note on, F4 key=65 velocity: 80
@11940 Channel: 1 Note on, C4 key=60 velocity: 80
@11973 Channel: 1 Note on, C4 key=60 velocity: 0
@11973 Channel: 1 Note on, F4 key=65 velocity: 0
@11973 Channel: 1 Note on, G3 key=55 velocity: 0
@12000 Channel: 1 Note on, A3 key=57 velocity: 80
@12000 Channel: 1 Note on, C4 key=60 velocity: 80
@12000 Channel: 1 Note on, F4 key=65 velocity: 80
@12000 Channel: 1 Command:176
@12000 Channel: 1 Command:176
@12028 Channel: 1 Note on, F4 key=65 velocity: 0
@12031 Channel: 1 Note on, C4 key=60 velocity: 0
@12033 Channel: 1 Note on, A3 key=57 velocity: 0
@12060 Channel: 1 Note on, F4 key=65 velocity: 80
@12060 Channel: 1 Note on, A3 key=57 velocity: 80
@12060 Channel: 1 Note on, C4 key=60 velocity: 80
@12073 Channel: 1 Note on, C4 key=60 velocity: 0
@12075 Channel: 1 Note on, A3 key=57 velocity: 0
@12075 Channel: 1 Note on, F4 key=65 velocity: 0
@12090 Channel: 1 Note on, A3 key=57 velocity: 80
@12090 Channel: 1 Note on, F4 key=65 velocity: 80
@12090 Channel: 1 Note on, C4 key=60 velocity: 80
@12116 Channel: 1 Note on, C4 key=60 velocity: 0
@12121 Channel: 1 Note on, F4 key=65 velocity: 0
@12123 Channel: 1 Note on, A3 key=57 velocity: 0
@12150 Channel: 1 Note on, A3 key=57 velocity: 80
@12150 Channel: 1 Note on, F4 key=65 velocity: 80
@12150 Channel: 1 Note on, C4 key=60 velocity: 80
@12165 Channel: 1 Note on, C4 key=60 velocity: 0
@12168 Channel: 1 Note on, A3 key=57 velocity: 0
@12170 Channel: 1 Note on, F4 key=65 velocity: 0
@12180 Channel: 1 Note on, F4 key=65 velocity: 80
@12180 Channel: 1 Note on, A3 key=57 velocity: 80
@12180 Channel: 1 Note on, C4 key=60 velocity: 80
@12210 Channel: 1 Note on, C4 key=60 velocity: 0
@12213 Channel: 1 Note on, F4 key=65 velocity: 0
@12215 Channel: 1 Note on, A3 key=57 velocity: 0
@12240 Channel: 1 Note on, C4 key=60 velocity: 80
@12240 Channel: 1 Note on, F4 key=65 velocity: 80
@12240 Channel: 1 Note on, G3 key=55 velocity: 80
@12240 Channel: 1 Command:176
@12240 Channel: 1 Command:176
@12266 Channel: 1 Note on, G3 key=55 velocity: 0
@12269 Channel: 1 Note on, C4 key=60 velocity: 0
@12271 Channel: 1 Note on, F4 key=65 velocity: 0
@12300 Channel: 1 Note on, C4 key=60 velocity: 80
@12300 Channel: 1 Note on, G3 key=55 velocity: 80
@12300 Channel: 1 Note on, F4 key=65 velocity: 80
@12318 Channel: 1 Note on, F4 key=65 velocity: 0
@12318 Channel: 1 Note on, G3 key=55 velocity: 0
@12318 Channel: 1 Note on, C4 key=60 velocity: 0
@12330 Channel: 1 Note on, F4 key=65 velocity: 80
@12330 Channel: 1 Note on, G3 key=55 velocity: 80
@12330 Channel: 1 Note on, C4 key=60 velocity: 80
@12361 Channel: 1 Note on, C4 key=60 velocity: 0
@12363 Channel: 1 Note on, G3 key=55 velocity: 0
@12363 Channel: 1 Note on, F4 key=65 velocity: 0
@12390 Channel: 1 Note on, C4 key=60 velocity: 80
@12390 Channel: 1 Note on, F4 key=65 velocity: 80
@12390 Channel: 1 Note on, G3 key=55 velocity: 80
@12408 Channel: 1 Note on, G3 key=55 velocity: 0
@12408 Channel: 1 Note on, C4 key=60 velocity: 0
@12410 Channel: 1 Note on, F4 key=65 velocity: 0
@12420 Channel: 1 Note on, F4 key=65 velocity: 80
@12420 Channel: 1 Note on, C4 key=60 velocity: 80
@12420 Channel: 1 Note on, G3 key=55 velocity: 80
@12447 Channel: 1 Note on, F4 key=65 velocity: 0
@12449 Channel: 1 Note on, C4 key=60 velocity: 0
@12455 Channel: 1 Note on, G3 key=55 velocity: 0
@12480 Channel: 1 Note on, B3 key=59 velocity: 80
@12480 Channel: 1 Note on, G3 key=55 velocity: 80
@12480 Channel: 1 Note on, E4 key=64 velocity: 80
@12480 Channel: 1 Command:176
@12480 Channel: 1 Command:176
@12511 Channel: 1 Note on, E4 key=64 velocity: 0
@12511 Channel: 1 Note on, B3 key=59 velocity: 0
@12513 Channel: 1 Note on, G3 key=55 velocity: 0
@12540 Channel: 1 Note on, E4 key=64 velocity: 80
@12540 Channel: 1 Note on, B3 key=59 velocity: 80
@12540 Channel: 1 Note on, G3 key=55 velocity: 80
@12553 Channel: 1 Note on, B3 key=59 velocity: 0
@12555 Channel: 1 Note on, G3 key=55 velocity: 0
@12557 Channel: 1 Note on, E4 key=64 velocity: 0
@12570 Channel: 1 Note on, E4 key=64 velocity: 80
@12570 Channel: 1 Note on, G3 key=55 velocity: 80
@12570 Channel: 1 Note on, B3 key=59 velocity: 80
@12601 Channel: 1 Note on, B3 key=59 velocity: 0
@12601 Channel: 1 Note on, G3 key=55 velocity: 0
@12603 Channel: 1 Note on, E4 key=64 velocity: 0
@12630 Channel: 1 Note on, E4 key=64 velocity: 80
@12630 Channel: 1 Note on, B3 key=59 velocity: 80
@12630 Channel: 1 Note on, G3 key=55 velocity: 80
@12643 Channel: 1 Note on, B3 key=59 velocity: 0
@12645 Channel: 1 Note on, G3 key=55 velocity: 0
@12645 Channel: 1 Note on, E4 key=64 velocity: 0
@12660 Channel: 1 Note on, G3 key=55 velocity: 80
@12660 Channel: 1 Note on, E4 key=64 velocity: 80
@12660 Channel: 1 Note on, B3 key=59 velocity: 80
@12687 Channel: 1 Note on, B3 key=59 velocity: 0
@12687 Channel: 1 Note on, E4 key=64 velocity: 0
@12691 Channel: 1 Note on, G3 key=55 velocity: 0
@12720 Channel: 1 Note on, E4 key=64 velocity: 80
@12720 Channel: 1 Note on, G3 key=55 velocity: 80
@12720 Channel: 1 Note on, B3 key=59 velocity: 80
@12720 Channel: 1 Command:176
@12720 Channel: 1 Command:176
@12755 Channel: 1 Note on, B3 key=59 velocity: 0
@12757 Channel: 1 Note on, G3 key=55 velocity: 0
@12757 Channel: 1 Note on, E4 key=64 velocity: 0
@12780 Channel: 1 Note on, G3 key=55 velocity: 81
@12780 Channel: 1 Note on, B3 key=59 velocity: 81
@12780 Channel: 1 Note on, E4 key=64 velocity: 81
@12793 Channel: 1 Note on, B3 key=59 velocity: 0
@12795 Channel: 1 Note on, E4 key=64 velocity: 0
@12795 Channel: 1 Note on, G3 key=55 velocity: 0
@12810 Channel: 1 Note on, G3 key=55 velocity: 81
@12810 Channel: 1 Note on, E4 key=64 velocity: 81
@12810 Channel: 1 Note on, B3 key=59 velocity: 81
@12836 Channel: 1 Note on, B3 key=59 velocity: 0
@12836 Channel: 1 Note on, E4 key=64 velocity: 0
@12839 Channel: 1 Note on, G3 key=55 velocity: 0
@12870 Channel: 1 Note on, B3 key=59 velocity: 81
@12870 Channel: 1 Note on, G3 key=55 velocity: 81
@12870 Channel: 1 Note on, E4 key=64 velocity: 81
@12883 Channel: 1 Note on, E4 key=64 velocity: 0
@12883 Channel: 1 Note on, B3 key=59 velocity: 0
@12887 Channel: 1 Note on, G3 key=55 velocity: 0
@12900 Channel: 1 Note on, G3 key=55 velocity: 81
@12900 Channel: 1 Note on, E4 key=64 velocity: 81
@12900 Channel: 1 Note on, B3 key=59 velocity: 81
@12931 Channel: 1 Note on, B3 key=59 velocity: 0
@12931 Channel: 1 Note on, E4 key=64 velocity: 0
@12933 Channel: 1 Note on, G3 key=55 velocity: 0
@12960 Channel: 1 Note on, A3 key=57 velocity: 81
@12960 Channel: 1 Note on, C4 key=60 velocity: 81
@12960 Channel: 1 Note on, F4 key=65 velocity: 81
@12960 Channel: 1 Command:176
@12960 Channel: 1 Command:176
@12996 Channel: 1 Note on, C4 key=60 velocity: 0
@12996 Channel: 1 Note on, A3 key=57 velocity: 0
@12998 Channel: 1 Note on, F4 key=65 velocity: 0
@13020 Channel: 1 Note on, A3 key=57 velocity: 81
@13020 Channel: 1 Note on, F4 key=65 velocity: 81
@13020 Channel: 1 Note on, C4 key=60 velocity: 81
@13033 Channel: 1 Note on, C4 key=60 velocity: 0
@13035 Channel: 1 Note on, F4 key=65 velocity: 0
@13035 Channel: 1 Note on, A3 key=57 velocity: 0
@13050 Channel: 1 Note on, F4 key=65 velocity: 81
@13050 Channel: 1 Note on, A3 key=57 velocity: 81
@13050 Channel: 1 Note on, C4 key=60 velocity: 81
@13081 Channel: 1 Note on, C4 key=60 velocity: 0
@13083 Channel: 1 Note on, A3 key=57 velocity: 0
@13083 Channel: 1 Note on, F4 key=65 velocity: 0
@13110 Channel: 1 Note on, C4 key=60 velocity: 81
@13110 Channel: 1 Note on, F4 key=65 velocity: 81
@13110 Channel: 1 Note on, A3 key=57 velocity: 81
@13125 Channel: 1 Note on, C4 key=60 velocity: 0
@13128 Channel: 1 Note on, A3 key=57 velocity: 0
@13128 Channel: 1 Note on, F4 key=65 velocity: 0
@13140 Channel: 1 Note on, F4 key=65 velocity: 81
@13140 Channel: 1 Note on, A3 key=57 velocity: 81
@13140 Channel: 1 Note on, C4 key=60 velocity: 81
@13169 Channel: 1 Note on, C4 key=60 velocity: 0
@13169 Channel: 1 Note on, A3 key=57 velocity: 0
@13173 Channel: 1 Note on, F4 key=65 velocity: 0
@13200 Channel: 1 Note on, B3 key=59 velocity: 81
@13200 Channel: 1 Note on, D4 key=62 velocity: 81
@13200 Channel: 1 Note on, G4 key=67 velocity: 81
@13200 Channel: 1 Command:176
@13200 Channel: 1 Command:176
@13236 Channel: 1 Note on, D4 key=62 velocity: 0
@13238 Channel: 1 Note on, B3 key=59 velocity: 0
@13240 Channel: 1 Note on, G4 key=67 velocity: 0
@13260 Channel: 1 Note on, G4 key=67 velocity: 82
@13260 Channel: 1 Note on, B3 key=59 velocity: 82
@13260 Channel: 1 Note on, D4 key=62 velocity: 82
@13273 Channel: 1 Note on, D4 key=62 velocity: 0
@13273 Channel: 1 Note on, B3 key=59 velocity: 0
@13280 Channel: 1 Note on, G4 key=67 velocity: 0
@13290 Channel: 1 Note on, G4 key=67 velocity: 82
@13290 Channel: 1 Note on, D4 key=62 velocity: 82
@13290 Channel: 1 Note on, B3 key=59 velocity: 82
@13323 Channel: 1 Note on, B3 key=59 velocity: 0
@13323 Channel: 1 Note on, D4 key=62 velocity: 0
@13325 Channel: 1 Note on, G4 key=67 velocity: 0
@13350 Channel: 1 Note on, G4 key=67 velocity: 82
@13350 Channel: 1 Note on, D4 key=62 velocity: 82
@13350 Channel: 1 Note on, B3 key=59 velocity: 82
@13365 Channel: 1 Note on, B3 key=59 velocity: 0
@13365 Channel: 1 Note on, D4 key=62 velocity: 0
@13365 Channel: 1 Note on, G4 key=67 velocity: 0
@13380 Channel: 1 Note on, B3 key=59 velocity: 82
@13380 Channel: 1 Note on, G4 key=67 velocity: 82
@13380 Channel: 1 Note on, D4 key=62 velocity: 82
@13380 Channel: 1 Note on, F4 key=65 velocity: 82
@13391 Channel: 1 Note on, F4 key=65 velocity: 0
@13426 Channel: 1 Note on, B3 key=59 velocity: 0
@13426 Channel: 1 Note on, G4 key=67 velocity: 0
@13426 Channel: 1 Note on, D4 key=62 velocity: 0
@13440 Channel: 1 Note on, C4 key=60 velocity: 81
@13440 Channel: 1 Note on, G3 key=55 velocity: 81
@13440 Channel: 1 Note on, E4 key=64 velocity: 81
@13440 Channel: 1 Command:176
@13440 Channel: 1 Command:176
@13490 Channel: 1 Note on, E4 key=64 velocity: 0
@13490 Channel: 1 Note on, G3 key=55 velocity: 0
@13490 Channel: 1 Note on, C4 key=60 velocity: 0
@13500 Channel: 1 Note on, E4 key=64 velocity: 81
@13500 Channel: 1 Note on, G3 key=55 velocity: 81
@13500 Channel: 1 Note on, C4 key=60 velocity: 81
@13520 Channel: 1 Note on, C4 key=60 velocity: 0
@13520 Channel: 1 Note on, G3 key=55 velocity: 0
@13520 Channel: 1 Note on, E4 key=64 velocity: 0
@13530 Channel: 1 Note on, C4 key=60 velocity: 81
@13530 Channel: 1 Note on, G3 key=55 velocity: 81
@13530 Channel: 1 Note on, E4 key=64 velocity: 81
@13580 Channel: 1 Note on, E4 key=64 velocity: 0
@13580 Channel: 1 Note on, G3 key=55 velocity: 0
@13580 Channel: 1 Note on, C4 key=60 velocity: 0
@13590 Channel: 1 Note on, G3 key=55 velocity: 79
@13590 Channel: 1 Note on, C4 key=60 velocity: 79
@13590 Channel: 1 Note on, E4 key=64 velocity: 79
@13610 Channel: 1 Note on, E4 key=64 velocity: 0
@13610 Channel: 1 Note on, C4 key=60 velocity: 0
@13610 Channel: 1 Note on, G3 key=55 velocity: 0
@13620 Channel: 1 Note on, G3 key=55 velocity: 79
@13620 Channel: 1 Note on, C4 key=60 velocity: 79
@13620 Channel: 1 Note on, E4 key=64 velocity: 79
@13670 Channel: 1 Note on, E4 key=64 velocity: 0
@13670 Channel: 1 Note on, C4 key=60 velocity: 0
@13670 Channel: 1 Note on, G3 key=55 velocity: 0
@13680 Channel: 1 Note on, F4 key=65 velocity: 79
@13680 Channel: 1 Note on, G3 key=55 velocity: 79
@13680 Channel: 1 Note on, C4 key=60 velocity: 79
@13680 Channel: 1 Command:176
@13680 Channel: 1 Command:176
@13730 Channel: 1 Note on, C4 key=60 velocity: 0
@13730 Channel: 1 Note on, G3 key=55 velocity: 0
@13730 Channel: 1 Note on, F4 key=65 velocity: 0
@13740 Channel: 1 Note on, G3 key=55 velocity: 80
@13740 Channel: 1 Note on, C4 key=60 velocity: 80
@13740 Channel: 1 Note on, F4 key=65 velocity: 80
@13760 Channel: 1 Note on, F4 key=65 velocity: 0
@13760 Channel: 1 Note on, C4 key=60 velocity: 0
@13760 Channel: 1 Note on, G3 key=55 velocity: 0
@13770 Channel: 1 Note on, F4 key=65 velocity: 80
@13770 Channel: 1 Note on, C4 key=60 velocity: 80
@13770 Channel: 1 Note on, G3 key=55 velocity: 80
@13820 Channel: 1 Note on, G3 key=55 velocity: 0
@13820 Channel: 1 Note on, C4 key=60 velocity: 0
@13820 Channel: 1 Note on, F4 key=65 velocity: 0
@13830 Channel: 1 Note on, G3 key=55 velocity: 80
@13830 Channel: 1 Note on, C4 key=60 velocity: 80
@13830 Channel: 1 Note on, F4 key=65 velocity: 80
@13850 Channel: 1 Note on, F4 key=65 velocity: 0
@13850 Channel: 1 Note on, C4 key=60 velocity: 0
@13850 Channel: 1 Note on, G3 key=55 velocity: 0
@13860 Channel: 1 Note on, F4 key=65 velocity: 80
@13860 Channel: 1 Note on, G3 key=55 velocity: 80
@13860 Channel: 1 Note on, C4 key=60 velocity: 80
@13910 Channel: 1 Note on, C4 key=60 velocity: 0
@13910 Channel: 1 Note on, G3 key=55 velocity: 0
@13910 Channel: 1 Note on, F4 key=65 velocity: 0
@13920 Channel: 1 Note on, C4 key=60 velocity: 80
@13920 Channel: 1 Note on, G3 key=55 velocity: 80
@13920 Channel: 1 Note on, E4 key=64 velocity: 80
@13920 Channel: 1 Command:176
@13920 Channel: 1 Command:176
@13970 Channel: 1 Note on, E4 key=64 velocity: 0
@13970 Channel: 1 Note on, G3 key=55 velocity: 0
@13970 Channel: 1 Note on, C4 key=60 velocity: 0
@13980 Channel: 1 Note on, E4 key=64 velocity: 80
@13980 Channel: 1 Note on, G3 key=55 velocity: 80
@13980 Channel: 1 Note on, C4 key=60 velocity: 80
@14000 Channel: 1 Note on, C4 key=60 velocity: 0
@14000 Channel: 1 Note on, G3 key=55 velocity: 0
@14000 Channel: 1 Note on, E4 key=64 velocity: 0
@14010 Channel: 1 Note on, C4 key=60 velocity: 80
@14010 Channel: 1 Note on, G3 key=55 velocity: 80
@14010 Channel: 1 Note on, E4 key=64 velocity: 80
@14060 Channel: 1 Note on, E4 key=64 velocity: 0
@14060 Channel: 1 Note on, G3 key=55 velocity: 0
@14060 Channel: 1 Note on, C4 key=60 velocity: 0
@14070 Channel: 1 Note on, G3 key=55 velocity: 80
@14070 Channel: 1 Note on, C4 key=60 velocity: 80
@14070 Channel: 1 Note on, E4 key=64 velocity: 80
@14090 Channel: 1 Note on, E4 key=64 velocity: 0
@14090 Channel: 1 Note on, C4 key=60 velocity: 0
@14090 Channel: 1 Note on, G3 key=55 velocity: 0
@14100 Channel: 1 Note on, G3 key=55 velocity: 80
@14100 Channel: 1 Note on, C4 key=60 velocity: 80
@14100 Channel: 1 Note on, E4 key=64 velocity: 80
@14150 Channel: 1 Note on, E4 key=64 velocity: 0
@14150 Channel: 1 Note on, C4 key=60 velocity: 0
@14150 Channel: 1 Note on, G3 key=55 velocity: 0
@14160 Channel: 1 Note on, F4 key=65 velocity: 80
@14160 Channel: 1 Note on, G3 key=55 velocity: 80
@14160 Channel: 1 Note on, C4 key=60 velocity: 80
@14160 Channel: 1 Command:176
@14160 Channel: 1 Command:176
@14210 Channel: 1 Note on, C4 key=60 velocity: 0
@14210 Channel: 1 Note on, G3 key=55 velocity: 0
@14210 Channel: 1 Note on, F4 key=65 velocity: 0
@14220 Channel: 1 Note on, G3 key=55 velocity: 80
@14220 Channel: 1 Note on, C4 key=60 velocity: 80
@14220 Channel: 1 Note on, F4 key=65 velocity: 80
@14240 Channel: 1 Note on, F4 key=65 velocity: 0
@14240 Channel: 1 Note on, C4 key=60 velocity: 0
@14240 Channel: 1 Note on, G3 key=55 velocity: 0
@14250 Channel: 1 Note on, F4 key=65 velocity: 80
@14250 Channel: 1 Note on, C4 key=60 velocity: 80
@14250 Channel: 1 Note on, G3 key=55 velocity: 80
@14300 Channel: 1 Note on, G3 key=55 velocity: 0
@14300 Channel: 1 Note on, C4 key=60 velocity: 0
@14300 Channel: 1 Note on, F4 key=65 velocity: 0
@14310 Channel: 1 Note on, G3 key=55 velocity: 80
@14310 Channel: 1 Note on, C4 key=60 velocity: 80
@14310 Channel: 1 Note on, F4 key=65 velocity: 80
@14330 Channel: 1 Note on, F4 key=65 velocity: 0
@14330 Channel: 1 Note on, C4 key=60 velocity: 0
@14330 Channel: 1 Note on, G3 key=55 velocity: 0
@14340 Channel: 1 Note on, F4 key=65 velocity: 80
@14340 Channel: 1 Note on, G3 key=55 velocity: 80
@14340 Channel: 1 Note on, C4 key=60 velocity: 80
@14390 Channel: 1 Note on, C4 key=60 velocity: 0
@14390 Channel: 1 Note on, G3 key=55 velocity: 0
@14390 Channel: 1 Note on, F4 key=65 velocity: 0
@14400 Channel: 1 Note on, C4 key=60 velocity: 80
@14400 Channel: 1 Note on, G3 key=55 velocity: 80
@14400 Channel: 1 Note on, E4 key=64 velocity: 80
@14400 Channel: 1 Command:176
@14400 Channel: 1 Command:176
@14450 Channel: 1 Note on, E4 key=64 velocity: 0
@14450 Channel: 1 Note on, G3 key=55 velocity: 0
@14450 Channel: 1 Note on, C4 key=60 velocity: 0
@14460 Channel: 1 Note on, E4 key=64 velocity: 80
@14460 Channel: 1 Note on, G3 key=55 velocity: 80
@14460 Channel: 1 Note on, C4 key=60 velocity: 80
@14480 Channel: 1 Note on, C4 key=60 velocity: 0
@14480 Channel: 1 Note on, G3 key=55 velocity: 0
@14480 Channel: 1 Note on, E4 key=64 velocity: 0
@14490 Channel: 1 Note on, C4 key=60 velocity: 81
@14490 Channel: 1 Note on, G3 key=55 velocity: 81
@14490 Channel: 1 Note on, E4 key=64 velocity: 81
@14540 Channel: 1 Note on, E4 key=64 velocity: 0
@14540 Channel: 1 Note on, G3 key=55 velocity: 0
@14540 Channel: 1 Note on, C4 key=60 velocity: 0
@14550 Channel: 1 Note on, G3 key=55 velocity: 81
@14550 Channel: 1 Note on, C4 key=60 velocity: 81
@14550 Channel: 1 Note on, E4 key=64 velocity: 81
@14570 Channel: 1 Note on, E4 key=64 velocity: 0
@14570 Channel: 1 Note on, C4 key=60 velocity: 0
@14570 Channel: 1 Note on, G3 key=55 velocity: 0
@14580 Channel: 1 Note on, G3 key=55 velocity: 81
@14580 Channel: 1 Note on, C4 key=60 velocity: 81
@14580 Channel: 1 Note on, E4 key=64 velocity: 81
@14630 Channel: 1 Note on, E4 key=64 velocity: 0
@14630 Channel: 1 Note on, C4 key=60 velocity: 0
@14630 Channel: 1 Note on, G3 key=55 velocity: 0
@14640 Channel: 1 Note on, F4 key=65 velocity: 81
@14640 Channel: 1 Note on, G3 key=55 velocity: 81
@14640 Channel: 1 Note on, C4 key=60 velocity: 81
@14640 Channel: 1 Command:176
@14640 Channel: 1 Command:176
@14690 Channel: 1 Note on, C4 key=60 velocity: 0
@14690 Channel: 1 Note on, G3 key=55 velocity: 0
@14690 Channel: 1 Note on, F4 key=65 velocity: 0
@14700 Channel: 1 Note on, G3 key=55 velocity: 81
@14700 Channel: 1 Note on, C4 key=60 velocity: 81
@14700 Channel: 1 Note on, F4 key=65 velocity: 81
@14720 Channel: 1 Note on, F4 key=65 velocity: 0
@14720 Channel: 1 Note on, C4 key=60 velocity: 0
@14720 Channel: 1 Note on, G3 key=55 velocity: 0
@14730 Channel: 1 Note on, F4 key=65 velocity: 81
@14730 Channel: 1 Note on, C4 key=60 velocity: 81
@14730 Channel: 1 Note on, G3 key=55 velocity: 81
@14780 Channel: 1 Note on, G3 key=55 velocity: 0
@14780 Channel: 1 Note on, C4 key=60 velocity: 0
@14780 Channel: 1 Note on, F4 key=65 velocity: 0
@14790 Channel: 1 Note on, G3 key=55 velocity: 81
@14790 Channel: 1 Note on, C4 key=60 velocity: 81
@14790 Channel: 1 Note on, F4 key=65 velocity: 81
@14810 Channel: 1 Note on, F4 key=65 velocity: 0
@14810 Channel: 1 Note on, C4 key=60 velocity: 0
@14810 Channel: 1 Note on, G3 key=55 velocity: 0
@14820 Channel: 1 Note on, F4 key=65 velocity: 81
@14820 Channel: 1 Note on, G3 key=55 velocity: 81
@14820 Channel: 1 Note on, C4 key=60 velocity: 81
@14870 Channel: 1 Note on, C4 key=60 velocity: 0
@14870 Channel: 1 Note on, G3 key=55 velocity: 0
@14870 Channel: 1 Note on, F4 key=65 velocity: 0
@14880 Channel: 1 Note on, C4 key=60 velocity: 81
@14880 Channel: 1 Note on, G3 key=55 velocity: 81
@14880 Channel: 1 Note on, E4 key=64 velocity: 81
@14880 Channel: 1 Command:176
@14880 Channel: 1 Command:176
@14930 Channel: 1 Note on, E4 key=64 velocity: 0
@14930 Channel: 1 Note on, G3 key=55 velocity: 0
@14930 Channel: 1 Note on, C4 key=60 velocity: 0
@14940 Channel: 1 Note on, E4 key=64 velocity: 81
@14940 Channel: 1 Note on, G3 key=55 velocity: 81
@14940 Channel: 1 Note on, C4 key=60 velocity: 81
@14960 Channel: 1 Note on, C4 key=60 velocity: 0
@14960 Channel: 1 Note on, G3 key=55 velocity: 0
@14960 Channel: 1 Note on, E4 key=64 velocity: 0
@14970 Channel: 1 Note on, C4 key=60 velocity: 81
@14970 Channel: 1 Note on, G3 key=55 velocity: 81
@14970 Channel: 1 Note on, E4 key=64 velocity: 81
@15020 Channel: 1 Note on, E4 key=64 velocity: 0
@15020 Channel: 1 Note on, G3 key=55 velocity: 0
@15020 Channel: 1 Note on, C4 key=60 velocity: 0
@15030 Channel: 1 Note on, G3 key=55 velocity: 81
@15030 Channel: 1 Note on, C4 key=60 velocity: 81
@15030 Channel: 1 Note on, E4 key=64 velocity: 81
@15050 Channel: 1 Note on, E4 key=64 velocity: 0
@15050 Channel: 1 Note on, C4 key=60 velocity: 0
@15050 Channel: 1 Note on, G3 key=55 velocity: 0
@15060 Channel: 1 Note on, G3 key=55 velocity: 81
@15060 Channel: 1 Note on, C4 key=60 velocity: 81
@15060 Channel: 1 Note on, E4 key=64 velocity: 81
@15110 Channel: 1 Note on, E4 key=64 velocity: 0
@15110 Channel: 1 Note on, C4 key=60 velocity: 0
@15110 Channel: 1 Note on, G3 key=55 velocity: 0
@15120 Channel: 1 Note on, F4 key=65 velocity: 81
@15120 Channel: 1 Note on, G3 key=55 velocity: 81
@15120 Channel: 1 Note on, C4 key=60 velocity: 81
@15120 Channel: 1 Command:176
@15120 Channel: 1 Command:176
@15170 Channel: 1 Note on, C4 key=60 velocity: 0
@15170 Channel: 1 Note on, G3 key=55 velocity: 0
@15170 Channel: 1 Note on, F4 key=65 velocity: 0
@15180 Channel: 1 Note on, G3 key=55 velocity: 81
@15180 Channel: 1 Note on, C4 key=60 velocity: 81
@15180 Channel: 1 Note on, F4 key=65 velocity: 81
@15200 Channel: 1 Note on, F4 key=65 velocity: 0
@15200 Channel: 1 Note on, C4 key=60 velocity: 0
@15200 Channel: 1 Note on, G3 key=55 velocity: 0
@15210 Channel: 1 Note on, F4 key=65 velocity: 81
@15210 Channel: 1 Note on, C4 key=60 velocity: 81
@15210 Channel: 1 Note on, G3 key=55 velocity: 81
@15260 Channel: 1 Note on, G3 key=55 velocity: 0
@15260 Channel: 1 Note on, C4 key=60 velocity: 0
@15260 Channel: 1 Note on, F4 key=65 velocity: 0
@15270 Channel: 1 Note on, G3 key=55 velocity: 81
@15270 Channel: 1 Note on, C4 key=60 velocity: 81
@15270 Channel: 1 Note on, F4 key=65 velocity: 81
@15290 Channel: 1 Note on, F4 key=65 velocity: 0
@15290 Channel: 1 Note on, C4 key=60 velocity: 0
@15290 Channel: 1 Note on, G3 key=55 velocity: 0
@15300 Channel: 1 Note on, F4 key=65 velocity: 81
@15300 Channel: 1 Note on, G3 key=55 velocity: 81
@15300 Channel: 1 Note on, C4 key=60 velocity: 81
@15350 Channel: 1 Note on, C4 key=60 velocity: 0
@15350 Channel: 1 Note on, G3 key=55 velocity: 0
@15350 Channel: 1 Note on, F4 key=65 velocity: 0
@15360 Channel: 1 Note on, C4 key=60 velocity: 81
@15360 Channel: 1 Note on, G3 key=55 velocity: 81
@15360 Channel: 1 Note on, E4 key=64 velocity: 81
@15360 Channel: 1 Command:176
@15360 Channel: 1 Command:176
@15410 Channel: 1 Note on, E4 key=64 velocity: 0
@15410 Channel: 1 Note on, G3 key=55 velocity: 0
@15410 Channel: 1 Note on, C4 key=60 velocity: 0
@15420 Channel: 1 Note on, E4 key=64 velocity: 81
@15420 Channel: 1 Note on, G3 key=55 velocity: 81
@15420 Channel: 1 Note on, C4 key=60 velocity: 81
@15440 Channel: 1 Note on, C4 key=60 velocity: 0
@15440 Channel: 1 Note on, G3 key=55 velocity: 0
@15440 Channel: 1 Note on, E4 key=64 velocity: 0
@15450 Channel: 1 Note on, C4 key=60 velocity: 81
@15450 Channel: 1 Note on, G3 key=55 velocity: 81
@15450 Channel: 1 Note on, E4 key=64 velocity: 81
@15500 Channel: 1 Note on, E4 key=64 velocity: 0
@15500 Channel: 1 Note on, G3 key=55 velocity: 0
@15500 Channel: 1 Note on, C4 key=60 velocity: 0
@15510 Channel: 1 Note on, G3 key=55 velocity: 81
@15510 Channel: 1 Note on, C4 key=60 velocity: 81
@15510 Channel: 1 Note on, E4 key=64 velocity: 81
@15530 Channel: 1 Note on, E4 key=64 velocity: 0
@15530 Channel: 1 Note on, C4 key=60 velocity: 0
@15530 Channel: 1 Note on, G3 key=55 velocity: 0
@15540 Channel: 1 Note on, G3 key=55 velocity: 81
@15540 Channel: 1 Note on, C4 key=60 velocity: 81
@15540 Channel: 1 Note on, E4 key=64 velocity: 81
@15590 Channel: 1 Note on, E4 key=64 velocity: 0
@15590 Channel: 1 Note on, C4 key=60 velocity: 0
@15590 Channel: 1 Note on, G3 key=55 velocity: 0
@15600 Channel: 1 Note on, F4 key=65 velocity: 81
@15600 Channel: 1 Note on, G3 key=55 velocity: 81
@15600 Channel: 1 Note on, C4 key=60 velocity: 81
@15600 Channel: 1 Command:176
@15600 Channel: 1 Command:176
@15650 Channel: 1 Note on, C4 key=60 velocity: 0
@15650 Channel: 1 Note on, G3 key=55 velocity: 0
@15650 Channel: 1 Note on, F4 key=65 velocity: 0
@15660 Channel: 1 Note on, G3 key=55 velocity: 81
@15660 Channel: 1 Note on, C4 key=60 velocity: 81
@15660 Channel: 1 Note on, F4 key=65 velocity: 81
@15680 Channel: 1 Note on, F4 key=65 velocity: 0
@15680 Channel: 1 Note on, C4 key=60 velocity: 0
@15680 Channel: 1 Note on, G3 key=55 velocity: 0
@15690 Channel: 1 Note on, F4 key=65 velocity: 81
@15690 Channel: 1 Note on, C4 key=60 velocity: 81
@15690 Channel: 1 Note on, G3 key=55 velocity: 81
@15740 Channel: 1 Note on, G3 key=55 velocity: 0
@15740 Channel: 1 Note on, C4 key=60 velocity: 0
@15740 Channel: 1 Note on, F4 key=65 velocity: 0
@15750 Channel: 1 Note on, G3 key=55 velocity: 81
@15750 Channel: 1 Note on, C4 key=60 velocity: 81
@15750 Channel: 1 Note on, F4 key=65 velocity: 81
@15770 Channel: 1 Note on, F4 key=65 velocity: 0
@15770 Channel: 1 Note on, C4 key=60 velocity: 0
@15770 Channel: 1 Note on, G3 key=55 velocity: 0
@15780 Channel: 1 Note on, F4 key=65 velocity: 81
@15780 Channel: 1 Note on, G3 key=55 velocity: 81
@15780 Channel: 1 Note on, C4 key=60 velocity: 81
@15830 Channel: 1 Note on, C4 key=60 velocity: 0
@15830 Channel: 1 Note on, G3 key=55 velocity: 0
@15830 Channel: 1 Note on, F4 key=65 velocity: 0
@15840 Channel: 1 Note on, C4 key=60 velocity: 81
@15840 Channel: 1 Note on, G3 key=55 velocity: 81
@15840 Channel: 1 Note on, E4 key=64 velocity: 81
@15840 Channel: 1 Command:176
@15840 Channel: 1 Command:176
@15890 Channel: 1 Note on, E4 key=64 velocity: 0
@15890 Channel: 1 Note on, G3 key=55 velocity: 0
@15890 Channel: 1 Note on, C4 key=60 velocity: 0
@15900 Channel: 1 Note on, E4 key=64 velocity: 81
@15900 Channel: 1 Note on, G3 key=55 velocity: 81
@15900 Channel: 1 Note on, C4 key=60 velocity: 81
@15920 Channel: 1 Note on, C4 key=60 velocity: 0
@15920 Channel: 1 Note on, G3 key=55 velocity: 0
@15920 Channel: 1 Note on, E4 key=64 velocity: 0
@15930 Channel: 1 Note on, C4 key=60 velocity: 80
@15930 Channel: 1 Note on, G3 key=55 velocity: 80
@15930 Channel: 1 Note on, E4 key=64 velocity: 80
@15980 Channel: 1 Note on, E4 key=64 velocity: 0
@15980 Channel: 1 Note on, G3 key=55 velocity: 0
@15980 Channel: 1 Note on, C4 key=60 velocity: 0
@15990 Channel: 1 Note on, G3 key=55 velocity: 80
@15990 Channel: 1 Note on, C4 key=60 velocity: 80
@15990 Channel: 1 Note on, E4 key=64 velocity: 80
@16010 Channel: 1 Note on, E4 key=64 velocity: 0
@16010 Channel: 1 Note on, C4 key=60 velocity: 0
@16010 Channel: 1 Note on, G3 key=55 velocity: 0
@16020 Channel: 1 Note on, G3 key=55 velocity: 80
@16020 Channel: 1 Note on, C4 key=60 velocity: 80
@16020 Channel: 1 Note on, E4 key=64 velocity: 80
@16070 Channel: 1 Note on, E4 key=64 velocity: 0
@16070 Channel: 1 Note on, C4 key=60 velocity: 0
@16070 Channel: 1 Note on, G3 key=55 velocity: 0
@16080 Channel: 1 Note on, F4 key=65 velocity: 79
@16080 Channel: 1 Note on, G3 key=55 velocity: 79
@16080 Channel: 1 Note on, C4 key=60 velocity: 79
@16080 Channel: 1 Command:176
@16080 Channel: 1 Command:176
@16130 Channel: 1 Note on, C4 key=60 velocity: 0
@16130 Channel: 1 Note on, G3 key=55 velocity: 0
@16130 Channel: 1 Note on, F4 key=65 velocity: 0
@16140 Channel: 1 Note on, G3 key=55 velocity: 79
@16140 Channel: 1 Note on, C4 key=60 velocity: 79
@16140 Channel: 1 Note on, F4 key=65 velocity: 79
@16160 Channel: 1 Note on, F4 key=65 velocity: 0
@16160 Channel: 1 Note on, C4 key=60 velocity: 0
@16160 Channel: 1 Note on, G3 key=55 velocity: 0
@16170 Channel: 1 Note on, F4 key=65 velocity: 79
@16170 Channel: 1 Note on, C4 key=60 velocity: 79
@16170 Channel: 1 Note on, G3 key=55 velocity: 79
@16220 Channel: 1 Note on, G3 key=55 velocity: 0
@16220 Channel: 1 Note on, C4 key=60 velocity: 0
@16220 Channel: 1 Note on, F4 key=65 velocity: 0
@16230 Channel: 1 Note on, G3 key=55 velocity: 79
@16230 Channel: 1 Note on, C4 key=60 velocity: 79
@16230 Channel: 1 Note on, F4 key=65 velocity: 79
@16250 Channel: 1 Note on, F4 key=65 velocity: 0
@16250 Channel: 1 Note on, C4 key=60 velocity: 0
@16250 Channel: 1 Note on, G3 key=55 velocity: 0
@16260 Channel: 1 Note on, F4 key=65 velocity: 79
@16260 Channel: 1 Note on, G3 key=55 velocity: 79
@16260 Channel: 1 Note on, C4 key=60 velocity: 79
@16310 Channel: 1 Note on, C4 key=60 velocity: 0
@16310 Channel: 1 Note on, G3 key=55 velocity: 0
@16310 Channel: 1 Note on, F4 key=65 velocity: 0
@16320 Channel: 1 Note on, B3 key=59 velocity: 79
@16320 Channel: 1 Note on, D4 key=62 velocity: 79
@16320 Channel: 1 Note on, G3 key=55 velocity: 79
@16320 Channel: 1 Command:176
@16320 Channel: 1 Command:176
@16370 Channel: 1 Note on, G3 key=55 velocity: 0
@16370 Channel: 1 Note on, D4 key=62 velocity: 0
@16370 Channel: 1 Note on, B3 key=59 velocity: 0
@16380 Channel: 1 Note on, G3 key=55 velocity: 79
@16380 Channel: 1 Note on, D4 key=62 velocity: 79
@16380 Channel: 1 Note on, B3 key=59 velocity: 79
@16400 Channel: 1 Note on, B3 key=59 velocity: 0
@16400 Channel: 1 Note on, D4 key=62 velocity: 0
@16400 Channel: 1 Note on, G3 key=55 velocity: 0
@16410 Channel: 1 Note on, D4 key=62 velocity: 79
@16410 Channel: 1 Note on, G3 key=55 velocity: 79
@16410 Channel: 1 Note on, B3 key=59 velocity: 79
@16460 Channel: 1 Note on, B3 key=59 velocity: 0
@16460 Channel: 1 Note on, G3 key=55 velocity: 0
@16460 Channel: 1 Note on, D4 key=62 velocity: 0
@16470 Channel: 1 Note on, D4 key=62 velocity: 79
@16470 Channel: 1 Note on, G3 key=55 velocity: 79
@16470 Channel: 1 Note on, B3 key=59 velocity: 79
@16490 Channel: 1 Note on, B3 key=59 velocity: 0
@16490 Channel: 1 Note on, G3 key=55 velocity: 0
@16490 Channel: 1 Note on, D4 key=62 velocity: 0
@16500 Channel: 1 Note on, D4 key=62 velocity: 79
@16500 Channel: 1 Note on, B3 key=59 velocity: 79
@16500 Channel: 1 Note on, G3 key=55 velocity: 79
@16550 Channel: 1 Note on, G3 key=55 velocity: 0
@16550 Channel: 1 Note on, B3 key=59 velocity: 0
@16550 Channel: 1 Note on, D4 key=62 velocity: 0
@16560 Channel: 1 Note on, D4 key=62 velocity: 81
@16560 Channel: 1 Note on, G3 key=55 velocity: 81
@16560 Channel: 1 Note on, C4 key=60 velocity: 81
@16560 Channel: 1 Command:176
@16560 Channel: 1 Command:176
@16610 Channel: 1 Note on, C4 key=60 velocity: 0
@16610 Channel: 1 Note on, G3 key=55 velocity: 0
@16610 Channel: 1 Note on, D4 key=62 velocity: 0
@16620 Channel: 1 Note on, D4 key=62 velocity: 81
@16620 Channel: 1 Note on, G3 key=55 velocity: 81
@16620 Channel: 1 Note on, C4 key=60 velocity: 81
@16640 Channel: 1 Note on, C4 key=60 velocity: 0
@16640 Channel: 1 Note on, G3 key=55 velocity: 0
@16640 Channel: 1 Note on, D4 key=62 velocity: 0
@16650 Channel: 1 Note on, G3 key=55 velocity: 81
@16650 Channel: 1 Note on, C4 key=60 velocity: 81
@16650 Channel: 1 Note on, D4 key=62 velocity: 81
@16700 Channel: 1 Note on, D4 key=62 velocity: 0
@16700 Channel: 1 Note on, C4 key=60 velocity: 0
@16700 Channel: 1 Note on, G3 key=55 velocity: 0
@16710 Channel: 1 Note on, D4 key=62 velocity: 81
@16710 Channel: 1 Note on, G3 key=55 velocity: 81
@16710 Channel: 1 Note on, C4 key=60 velocity: 81
@16730 Channel: 1 Note on, C4 key=60 velocity: 0
@16730 Channel: 1 Note on, G3 key=55 velocity: 0
@16730 Channel: 1 Note on, D4 key=62 velocity: 0
@16740 Channel: 1 Note on, C4 key=60 velocity: 81
@16740 Channel: 1 Note on, D4 key=62 velocity: 81
@16740 Channel: 1 Note on, G3 key=55 velocity: 81
@16790 Channel: 1 Note on, G3 key=55 velocity: 0
@16790 Channel: 1 Note on, D4 key=62 velocity: 0
@16790 Channel: 1 Note on, C4 key=60 velocity: 0
@16800 Channel: 1 Note on, B3 key=59 velocity: 81
@16800 Channel: 1 Note on, D4 key=62 velocity: 81
@16800 Channel: 1 Note on, G3 key=55 velocity: 81
@16800 Channel: 1 Command:176
@16800 Channel: 1 Command:176
@16850 Channel: 1 Note on, G3 key=55 velocity: 0
@16850 Channel: 1 Note on, D4 key=62 velocity: 0
@16850 Channel: 1 Note on, B3 key=59 velocity: 0
@16860 Channel: 1 Note on, D4 key=62 velocity: 81
@16860 Channel: 1 Note on, G3 key=55 velocity: 81
@16860 Channel: 1 Note on, B3 key=59 velocity: 81
@16880 Channel: 1 Note on, B3 key=59 velocity: 0
@16880 Channel: 1 Note on, G3 key=55 velocity: 0
@16880 Channel: 1 Note on, D4 key=62 velocity: 0
@16890 Channel: 1 Note on, D4 key=62 velocity: 81
@16890 Channel: 1 Note on, G3 key=55 velocity: 81
@16890 Channel: 1 Note on, B3 key=59 velocity: 81
@16940 Channel: 1 Note on, B3 key=59 velocity: 0
@16940 Channel: 1 Note on, G3 key=55 velocity: 0
@16940 Channel: 1 Note on, D4 key=62 velocity: 0
@16950 Channel: 1 Note on, G3 key=55 velocity: 82
@16950 Channel: 1 Note on, D4 key=62 velocity: 82
@16950 Channel: 1 Note on, B3 key=59 velocity: 82
@16970 Channel: 1 Note on, B3 key=59 velocity: 0
@16970 Channel: 1 Note on, D4 key=62 velocity: 0
@16970 Channel: 1 Note on, G3 key=55 velocity: 0
@16980 Channel: 1 Note on, B3 key=59 velocity: 82
@16980 Channel: 1 Note on, D4 key=62 velocity: 82
@16980 Channel: 1 Note on, G3 key=55 velocity: 82
@17030 Channel: 1 Note on, G3 key=55 velocity: 0
@17030 Channel: 1 Note on, D4 key=62 velocity: 0
@17030 Channel: 1 Note on, B3 key=59 velocity: 0
@17040 Channel: 1 Note on, C4 key=60 velocity: 82
@17040 Channel: 1 Note on, G3 key=55 velocity: 82
@17040 Channel: 1 Note on, D4 key=62 velocity: 82
@17040 Channel: 1 Command:176
@17040 Channel: 1 Command:176
@17090 Channel: 1 Note on, D4 key=62 velocity: 0
@17090 Channel: 1 Note on, G3 key=55 velocity: 0
@17090 Channel: 1 Note on, C4 key=60 velocity: 0
@17100 Channel: 1 Note on, C4 key=60 velocity: 82
@17100 Channel: 1 Note on, D4 key=62 velocity: 82
@17100 Channel: 1 Note on, G3 key=55 velocity: 82
@17120 Channel: 1 Note on, G3 key=55 velocity: 0
@17120 Channel: 1 Note on, D4 key=62 velocity: 0
@17120 Channel: 1 Note on, C4 key=60 velocity: 0
@17130 Channel: 1 Note on, G3 key=55 velocity: 82
@17130 Channel: 1 Note on, D4 key=62 velocity: 82
@17130 Channel: 1 Note on, C4 key=60 velocity: 82
@17180 Channel: 1 Note on, C4 key=60 velocity: 0
@17180 Channel: 1 Note on, D4 key=62 velocity: 0
@17180 Channel: 1 Note on, G3 key=55 velocity: 0
@17190 Channel: 1 Note on, G3 key=55 velocity: 82
@17190 Channel: 1 Note on, D4 key=62 velocity: 82
@17190 Channel: 1 Note on, C4 key=60 velocity: 82
@17210 Channel: 1 Note on, C4 key=60 velocity: 0
@17210 Channel: 1 Note on, D4 key=62 velocity: 0
@17210 Channel: 1 Note on, G3 key=55 velocity: 0
@17220 Channel: 1 Note on, D4 key=62 velocity: 82
@17220 Channel: 1 Note on, C4 key=60 velocity: 82
@17220 Channel: 1 Note on, G3 key=55 velocity: 82
@17270 Channel: 1 Note on, G3 key=55 velocity: 0
@17270 Channel: 1 Note on, C4 key=60 velocity: 0
@17270 Channel: 1 Note on, D4 key=62 velocity: 0
@17280 Channel: 1 Note on, G#3 key=56 velocity: 82
@17280 Channel: 1 Note on, B3 key=59 velocity: 82
@17280 Channel: 1 Note on, E4 key=64 velocity: 82
@17280 Channel: 1 Command:176
@17280 Channel: 1 Command:176
@17330 Channel: 1 Note on, E4 key=64 velocity: 0
@17330 Channel: 1 Note on, B3 key=59 velocity: 0
@17330 Channel: 1 Note on, G#3 key=56 velocity: 0
@17340 Channel: 1 Note on, E4 key=64 velocity: 82
@17340 Channel: 1 Note on, G#3 key=56 velocity: 82
@17340 Channel: 1 Note on, B3 key=59 velocity: 82
@17360 Channel: 1 Note on, B3 key=59 velocity: 0
@17360 Channel: 1 Note on, G#3 key=56 velocity: 0
@17360 Channel: 1 Note on, E4 key=64 velocity: 0
@17370 Channel: 1 Note on, E4 key=64 velocity: 83
@17370 Channel: 1 Note on, B3 key=59 velocity: 83
@17370 Channel: 1 Note on, G#3 key=56 velocity: 83
@17420 Channel: 1 Note on, G#3 key=56 velocity: 0
@17420 Channel: 1 Note on, B3 key=59 velocity: 0
@17420 Channel: 1 Note on, E4 key=64 velocity: 0
@17430 Channel: 1 Note on, G#3 key=56 velocity: 83
@17430 Channel: 1 Note on, E4 key=64 velocity: 83
@17430 Channel: 1 Note on, B3 key=59 velocity: 83
@17450 Channel: 1 Note on, B3 key=59 velocity: 0
@17450 Channel: 1 Note on, E4 key=64 velocity: 0
@17450 Channel: 1 Note on, G#3 key=56 velocity: 0
@17460 Channel: 1 Note on, E4 key=64 velocity: 83
@17460 Channel: 1 Note on, B3 key=59 velocity: 83
@17460 Channel: 1 Note on, G#3 key=56 velocity: 83
@17510 Channel: 1 Note on, G#3 key=56 velocity: 0
@17510 Channel: 1 Note on, B3 key=59 velocity: 0
@17510 Channel: 1 Note on, E4 key=64 velocity: 0
@17520 Channel: 1 Note on, E4 key=64 velocity: 82
@17520 Channel: 1 Note on, A3 key=57 velocity: 82
@17520 Channel: 1 Note on, B3 key=59 velocity: 82
@17520 Channel: 1 Command:176
@17520 Channel: 1 Command:176
@17570 Channel: 1 Note on, B3 key=59 velocity: 0
@17570 Channel: 1 Note on, A3 key=57 velocity: 0
@17570 Channel: 1 Note on, E4 key=64 velocity: 0
@17580 Channel: 1 Note on, B3 key=59 velocity: 82
@17580 Channel: 1 Note on, A3 key=57 velocity: 82
@17580 Channel: 1 Note on, E4 key=64 velocity: 82
@17600 Channel: 1 Note on, E4 key=64 velocity: 0
@17600 Channel: 1 Note on, A3 key=57 velocity: 0
@17600 Channel: 1 Note on, B3 key=59 velocity: 0
@17610 Channel: 1 Note on, B3 key=59 velocity: 82
@17610 Channel: 1 Note on, A3 key=57 velocity: 82
@17610 Channel: 1 Note on, E4 key=64 velocity: 82
@17660 Channel: 1 Note on, E4 key=64 velocity: 0
@17660 Channel: 1 Note on, A3 key=57 velocity: 0
@17660 Channel: 1 Note on, B3 key=59 velocity: 0
@17670 Channel: 1 Note on, E4 key=64 velocity: 82
@17670 Channel: 1 Note on, A3 key=57 velocity: 82
@17670 Channel: 1 Note on, B3 key=59 velocity: 82
@17690 Channel: 1 Note on, B3 key=59 velocity: 0
@17690 Channel: 1 Note on, A3 key=57 velocity: 0
@17690 Channel: 1 Note on, E4 key=64 velocity: 0
@17700 Channel: 1 Note on, B3 key=59 velocity: 82
@17700 Channel: 1 Note on, A3 key=57 velocity: 82
@17700 Channel: 1 Note on, E4 key=64 velocity: 82
@17750 Channel: 1 Note on, E4 key=64 velocity: 0
@17750 Channel: 1 Note on, A3 key=57 velocity: 0
@17750 Channel: 1 Note on, B3 key=59 velocity: 0
@17760 Channel: 1 Note on, B3 key=59 velocity: 82
@17760 Channel: 1 Note on, G#3 key=56 velocity: 82
@17760 Channel: 1 Note on, E4 key=64 velocity: 82
@17760 Channel: 1 Command:176
@17760 Channel: 1 Command:176
@17810 Channel: 1 Note on, E4 key=64 velocity: 0
@17810 Channel: 1 Note on, G#3 key=56 velocity: 0
@17810 Channel: 1 Note on, B3 key=59 velocity: 0
@17820 Channel: 1 Note on, B3 key=59 velocity: 82
@17820 Channel: 1 Note on, G#3 key=56 velocity: 82
@17820 Channel: 1 Note on, E4 key=64 velocity: 82
@17840 Channel: 1 Note on, E4 key=64 velocity: 0
@17840 Channel: 1 Note on, G#3 key=56 velocity: 0
@17840 Channel: 1 Note on, B3 key=59 velocity: 0
@17850 Channel: 1 Note on, B3 key=59 velocity: 82
@17850 Channel: 1 Note on, G#3 key=56 velocity: 82
@17850 Channel: 1 Note on, E4 key=64 velocity: 82
@17900 Channel: 1 Note on, E4 key=64 velocity: 0
@17900 Channel: 1 Note on, G#3 key=56 velocity: 0
@17900 Channel: 1 Note on, B3 key=59 velocity: 0
@17910 Channel: 1 Note on, B3 key=59 velocity: 82
@17910 Channel: 1 Note on, G#3 key=56 velocity: 82
@17910 Channel: 1 Note on, E4 key=64 velocity: 82
@17930 Channel: 1 Note on, E4 key=64 velocity: 0
@17930 Channel: 1 Note on, G#3 key=56 velocity: 0
@17930 Channel: 1 Note on, B3 key=59 velocity: 0
@17940 Channel: 1 Note on, B3 key=59 velocity: 82
@17940 Channel: 1 Note on, G#3 key=56 velocity: 82
@17940 Channel: 1 Note on, E4 key=64 velocity: 82
@17990 Channel: 1 Note on, E4 key=64 velocity: 0
@17990 Channel: 1 Note on, G#3 key=56 velocity: 0
@17990 Channel: 1 Note on, B3 key=59 velocity: 0
@18000 Channel: 1 Note on, A3 key=57 velocity: 82
@18000 Channel: 1 Note on, B3 key=59 velocity: 82
@18000 Channel: 1 Note on, E4 key=64 velocity: 82
@18000 Channel: 1 Command:176
@18000 Channel: 1 Command:176
@18050 Channel: 1 Note on, E4 key=64 velocity: 0
@18050 Channel: 1 Note on, B3 key=59 velocity: 0
@18050 Channel: 1 Note on, A3 key=57 velocity: 0
@18060 Channel: 1 Note on, A3 key=57 velocity: 82
@18060 Channel: 1 Note on, B3 key=59 velocity: 82
@18060 Channel: 1 Note on, E4 key=64 velocity: 82
@18080 Channel: 1 Note on, E4 key=64 velocity: 0
@18080 Channel: 1 Note on, B3 key=59 velocity: 0
@18080 Channel: 1 Note on, A3 key=57 velocity: 0
@18090 Channel: 1 Note on, A3 key=57 velocity: 82
@18090 Channel: 1 Note on, E4 key=64 velocity: 82
@18090 Channel: 1 Note on, B3 key=59 velocity: 82
@18140 Channel: 1 Note on, B3 key=59 velocity: 0
@18140 Channel: 1 Note on, E4 key=64 velocity: 0
@18140 Channel: 1 Note on, A3 key=57 velocity: 0
@18150 Channel: 1 Note on, A3 key=57 velocity: 82
@18150 Channel: 1 Note on, E4 key=64 velocity: 82
@18150 Channel: 1 Note on, B3 key=59 velocity: 82
@18170 Channel: 1 Note on, B3 key=59 velocity: 0
@18170 Channel: 1 Note on, E4 key=64 velocity: 0
@18170 Channel: 1 Note on, A3 key=57 velocity: 0
@18180 Channel: 1 Note on, A3 key=57 velocity: 82
@18180 Channel: 1 Note on, B3 key=59 velocity: 82
@18180 Channel: 1 Note on, E4 key=64 velocity: 82
@18230 Channel: 1 Note on, E4 key=64 velocity: 0
@18230 Channel: 1 Note on, B3 key=59 velocity: 0
@18230 Channel: 1 Note on, A3 key=57 velocity: 0
@18240 Channel: 1 Note on, C4 key=60 velocity: 82
@18240 Channel: 1 Note on, A3 key=57 velocity: 82
@18240 Channel: 1 Note on, F4 key=65 velocity: 82
@18240 Channel: 1 Command:176
@18240 Channel: 1 Command:176
@18290 Channel: 1 Note on, F4 key=65 velocity: 0
@18290 Channel: 1 Note on, A3 key=57 velocity: 0
@18290 Channel: 1 Note on, C4 key=60 velocity: 0
@18300 Channel: 1 Note on, C4 key=60 velocity: 82
@18300 Channel: 1 Note on, F4 key=65 velocity: 82
@18300 Channel: 1 Note on, A3 key=57 velocity: 82
@18320 Channel: 1 Note on, A3 key=57 velocity: 0
@18320 Channel: 1 Note on, F4 key=65 velocity: 0
@18320 Channel: 1 Note on, C4 key=60 velocity: 0
@18330 Channel: 1 Note on, F4 key=65 velocity: 82
@18330 Channel: 1 Note on, A3 key=57 velocity: 82
@18330 Channel: 1 Note on, C4 key=60 velocity: 82
@18380 Channel: 1 Note on, C4 key=60 velocity: 0
@18380 Channel: 1 Note on, A3 key=57 velocity: 0
@18380 Channel: 1 Note on, F4 key=65 velocity: 0
@18390 Channel: 1 Note on, F4 key=65 velocity: 82
@18390 Channel: 1 Note on, C4 key=60 velocity: 82
@18390 Channel: 1 Note on, A3 key=57 velocity: 82
@18410 Channel: 1 Note on, A3 key=57 velocity: 0
@18410 Channel: 1 Note on, C4 key=60 velocity: 0
@18410 Channel: 1 Note on, F4 key=65 velocity: 0
@18420 Channel: 1 Note on, C4 key=60 velocity: 82
@18420 Channel: 1 Note on, A3 key=57 velocity: 82
@18420 Channel: 1 Note on, F4 key=65 velocity: 82
@18470 Channel: 1 Note on, F4 key=65 velocity: 0
@18470 Channel: 1 Note on, A3 key=57 velocity: 0
@18470 Channel: 1 Note on, C4 key=60 velocity: 0
@18480 Channel: 1 Note on, A#3 key=58 velocity: 82
@18480 Channel: 1 Note on, C4 key=60 velocity: 82
@18480 Channel: 1 Note on, F4 key=65 velocity: 82
@18480 Channel: 1 Command:176
@18480 Channel: 1 Command:176
@18530 Channel: 1 Note on, F4 key=65 velocity: 0
@18530 Channel: 1 Note on, C4 key=60 velocity: 0
@18530 Channel: 1 Note on, A#3 key=58 velocity: 0
@18540 Channel: 1 Note on, A#3 key=58 velocity: 81
@18540 Channel: 1 Note on, C4 key=60 velocity: 81
@18540 Channel: 1 Note on, F4 key=65 velocity: 81
@18560 Channel: 1 Note on, F4 key=65 velocity: 0
@18560 Channel: 1 Note on, C4 key=60 velocity: 0
@18560 Channel: 1 Note on, A#3 key=58 velocity: 0
@18570 Channel: 1 Note on, C4 key=60 velocity: 81
@18570 Channel: 1 Note on, A#3 key=58 velocity: 81
@18570 Channel: 1 Note on, F4 key=65 velocity: 81
@18620 Channel: 1 Note on, F4 key=65 velocity: 0
@18620 Channel: 1 Note on, A#3 key=58 velocity: 0
@18620 Channel: 1 Note on, C4 key=60 velocity: 0
@18630 Channel: 1 Note on, F4 key=65 velocity: 81
@18630 Channel: 1 Note on, C4 key=60 velocity: 81
@18630 Channel: 1 Note on, A#3 key=58 velocity: 81
@18650 Channel: 1 Note on, A#3 key=58 velocity: 0
@18650 Channel: 1 Note on, C4 key=60 velocity: 0
@18650 Channel: 1 Note on, F4 key=65 velocity: 0
@18660 Channel: 1 Note on, C4 key=60 velocity: 81
@18660 Channel: 1 Note on, A#3 key=58 velocity: 81
@18660 Channel: 1 Note on, F4 key=65 velocity: 81
@18710 Channel: 1 Note on, F4 key=65 velocity: 0
@18710 Channel: 1 Note on, A#3 key=58 velocity: 0
@18710 Channel: 1 Note on, C4 key=60 velocity: 0
@18720 Channel: 1 Note on, A3 key=57 velocity: 81
@18720 Channel: 1 Note on, F4 key=65 velocity: 81
@18720 Channel: 1 Note on, C4 key=60 velocity: 81
@18720 Channel: 1 Command:176
@18720 Channel: 1 Command:176
@18770 Channel: 1 Note on, C4 key=60 velocity: 0
@18770 Channel: 1 Note on, F4 key=65 velocity: 0
@18770 Channel: 1 Note on, A3 key=57 velocity: 0
@18780 Channel: 1 Note on, C4 key=60 velocity: 81
@18780 Channel: 1 Note on, A3 key=57 velocity: 81
@18780 Channel: 1 Note on, F4 key=65 velocity: 81
@18800 Channel: 1 Note on, F4 key=65 velocity: 0
@18800 Channel: 1 Note on, A3 key=57 velocity: 0
@18800 Channel: 1 Note on, C4 key=60 velocity: 0
@18810 Channel: 1 Note on, F4 key=65 velocity: 81
@18810 Channel: 1 Note on, A3 key=57 velocity: 81
@18810 Channel: 1 Note on, C4 key=60 velocity: 81
@18860 Channel: 1 Note on, C4 key=60 velocity: 0
@18860 Channel: 1 Note on, A3 key=57 velocity: 0
@18860 Channel: 1 Note on, F4 key=65 velocity: 0
@18870 Channel: 1 Note on, C4 key=60 velocity: 80
@18870 Channel: 1 Note on, A3 key=57 velocity: 80
@18870 Channel: 1 Note on, F4 key=65 velocity: 80
@18890 Channel: 1 Note on, F4 key=65 velocity: 0
@18890 Channel: 1 Note on, A3 key=57 velocity: 0
@18890 Channel: 1 Note on, C4 key=60 velocity: 0
@18900 Channel: 1 Note on, C4 key=60 velocity: 80
@18900 Channel: 1 Note on, A3 key=57 velocity: 80
@18900 Channel: 1 Note on, F4 key=65 velocity: 80
@18950 Channel: 1 Note on, F4 key=65 velocity: 0
@18950 Channel: 1 Note on, A3 key=57 velocity: 0
@18950 Channel: 1 Note on, C4 key=60 velocity: 0
@18960 Channel: 1 Note on, C4 key=60 velocity: 81
@18960 Channel: 1 Note on, A#3 key=58 velocity: 81
@18960 Channel: 1 Note on, F4 key=65 velocity: 81
@18960 Channel: 1 Command:176
@18960 Channel: 1 Command:176
@19010 Channel: 1 Note on, F4 key=65 velocity: 0
@19010 Channel: 1 Note on, A#3 key=58 velocity: 0
@19010 Channel: 1 Note on, C4 key=60 velocity: 0
@19020 Channel: 1 Note on, C4 key=60 velocity: 82
@19020 Channel: 1 Note on, A#3 key=58 velocity: 82
@19020 Channel: 1 Note on, F4 key=65 velocity: 82
@19040 Channel: 1 Note on, F4 key=65 velocity: 0
@19040 Channel: 1 Note on, A#3 key=58 velocity: 0
@19040 Channel: 1 Note on, C4 key=60 velocity: 0
@19050 Channel: 1 Note on, F4 key=65 velocity: 79
@19050 Channel: 1 Note on, C4 key=60 velocity: 79
@19050 Channel: 1 Note on, A#3 key=58 velocity: 79
@19100 Channel: 1 Note on, A#3 key=58 velocity: 0
@19100 Channel: 1 Note on, C4 key=60 velocity: 0
@19100 Channel: 1 Note on, F4 key=65 velocity: 0
@19110 Channel: 1 Note on, A#3 key=58 velocity: 79
@19110 Channel: 1 Note on, F4 key=65 velocity: 79
@19110 Channel: 1 Note on, C4 key=60 velocity: 79
@19130 Channel: 1 Note on, C4 key=60 velocity: 0
@19130 Channel: 1 Note on, F4 key=65 velocity: 0
@19130 Channel: 1 Note on, A#3 key=58 velocity: 0
@19140 Channel: 1 Note on, A#3 key=58 velocity: 79
@19140 Channel: 1 Note on, C4 key=60 velocity: 79
@19140 Channel: 1 Note on, F4 key=65 velocity: 79
@19190 Channel: 1 Note on, F4 key=65 velocity: 0
@19190 Channel: 1 Note on, C4 key=60 velocity: 0
@19190 Channel: 1 Note on, A#3 key=58 velocity: 0
@19200 Channel: 1 Note on, C4 key=60 velocity: 79
@19200 Channel: 1 Note on, G3 key=55 velocity: 79
@19200 Channel: 1 Note on, E4 key=64 velocity: 79
@19200 Channel: 1 Command:176
@19200 Channel: 1 Command:176
@19250 Channel: 1 Note on, E4 key=64 velocity: 0
@19250 Channel: 1 Note on, G3 key=55 velocity: 0
@19250 Channel: 1 Note on, C4 key=60 velocity: 0
@19260 Channel: 1 Note on, E4 key=64 velocity: 80
@19260 Channel: 1 Note on, G3 key=55 velocity: 80
@19260 Channel: 1 Note on, C4 key=60 velocity: 80
@19280 Channel: 1 Note on, C4 key=60 velocity: 0
@19280 Channel: 1 Note on, G3 key=55 velocity: 0
@19280 Channel: 1 Note on, E4 key=64 velocity: 0
@19290 Channel: 1 Note on, C4 key=60 velocity: 80
@19290 Channel: 1 Note on, G3 key=55 velocity: 80
@19290 Channel: 1 Note on, E4 key=64 velocity: 80
@19340 Channel: 1 Note on, E4 key=64 velocity: 0
@19340 Channel: 1 Note on, G3 key=55 velocity: 0
@19340 Channel: 1 Note on, C4 key=60 velocity: 0
@19350 Channel: 1 Note on, G3 key=55 velocity: 80
@19350 Channel: 1 Note on, C4 key=60 velocity: 80
@19350 Channel: 1 Note on, E4 key=64 velocity: 80
@19370 Channel: 1 Note on, E4 key=64 velocity: 0
@19370 Channel: 1 Note on, C4 key=60 velocity: 0
@19370 Channel: 1 Note on, G3 key=55 velocity: 0
@19380 Channel: 1 Note on, G3 key=55 velocity: 80
@19380 Channel: 1 Note on, C4 key=60 velocity: 80
@19380 Channel: 1 Note on, E4 key=64 velocity: 80
@19430 Channel: 1 Note on, E4 key=64 velocity: 0
@19430 Channel: 1 Note on, C4 key=60 velocity: 0
@19430 Channel: 1 Note on, G3 key=55 velocity: 0
@19440 Channel: 1 Note on, F4 key=65 velocity: 80
@19440 Channel: 1 Note on, G3 key=55 velocity: 80
@19440 Channel: 1 Note on, C4 key=60 velocity: 80
@19440 Channel: 1 Command:176
@19440 Channel: 1 Command:176
@19490 Channel: 1 Note on, C4 key=60 velocity: 0
@19490 Channel: 1 Note on, G3 key=55 velocity: 0
@19490 Channel: 1 Note on, F4 key=65 velocity: 0
@19500 Channel: 1 Note on, G3 key=55 velocity: 80
@19500 Channel: 1 Note on, C4 key=60 velocity: 80
@19500 Channel: 1 Note on, F4 key=65 velocity: 80
@19520 Channel: 1 Note on, F4 key=65 velocity: 0
@19520 Channel: 1 Note on, C4 key=60 velocity: 0
@19520 Channel: 1 Note on, G3 key=55 velocity: 0
@19530 Channel: 1 Note on, F4 key=65 velocity: 80
@19530 Channel: 1 Note on, C4 key=60 velocity: 80
@19530 Channel: 1 Note on, G3 key=55 velocity: 80
@19580 Channel: 1 Note on, G3 key=55 velocity: 0
@19580 Channel: 1 Note on, C4 key=60 velocity: 0
@19580 Channel: 1 Note on, F4 key=65 velocity: 0
@19590 Channel: 1 Note on, G3 key=55 velocity: 80
@19590 Channel: 1 Note on, C4 key=60 velocity: 80
@19590 Channel: 1 Note on, F4 key=65 velocity: 80
@19610 Channel: 1 Note on, F4 key=65 velocity: 0
@19610 Channel: 1 Note on, C4 key=60 velocity: 0
@19610 Channel: 1 Note on, G3 key=55 velocity: 0
@19620 Channel: 1 Note on, F4 key=65 velocity: 80
@19620 Channel: 1 Note on, G3 key=55 velocity: 80
@19620 Channel: 1 Note on, C4 key=60 velocity: 80
@19670 Channel: 1 Note on, C4 key=60 velocity: 0
@19670 Channel: 1 Note on, G3 key=55 velocity: 0
@19670 Channel: 1 Note on, F4 key=65 velocity: 0
@19680 Channel: 1 Note on, C4 key=60 velocity: 80
@19680 Channel: 1 Note on, G3 key=55 velocity: 80
@19680 Channel: 1 Note on, E4 key=64 velocity: 80
@19680 Channel: 1 Command:176
@19680 Channel: 1 Command:176
@19730 Channel: 1 Note on, E4 key=64 velocity: 0
@19730 Channel: 1 Note on, G3 key=55 velocity: 0
@19730 Channel: 1 Note on, C4 key=60 velocity: 0
@19740 Channel: 1 Note on, E4 key=64 velocity: 80
@19740 Channel: 1 Note on, G3 key=55 velocity: 80
@19740 Channel: 1 Note on, C4 key=60 velocity: 80
@19760 Channel: 1 Note on, C4 key=60 velocity: 0
@19760 Channel: 1 Note on, G3 key=55 velocity: 0
@19760 Channel: 1 Note on, E4 key=64 velocity: 0
@19770 Channel: 1 Note on, C4 key=60 velocity: 81
@19770 Channel: 1 Note on, G3 key=55 velocity: 81
@19770 Channel: 1 Note on, E4 key=64 velocity: 81
@19820 Channel: 1 Note on, E4 key=64 velocity: 0
@19820 Channel: 1 Note on, G3 key=55 velocity: 0
@19820 Channel: 1 Note on, C4 key=60 velocity: 0
@19830 Channel: 1 Note on, G3 key=55 velocity: 81
@19830 Channel: 1 Note on, C4 key=60 velocity: 81
@19830 Channel: 1 Note on, E4 key=64 velocity: 81
@19850 Channel: 1 Note on, E4 key=64 velocity: 0
@19850 Channel: 1 Note on, C4 key=60 velocity: 0
@19850 Channel: 1 Note on, G3 key=55 velocity: 0
@19860 Channel: 1 Note on, G3 key=55 velocity: 81
@19860 Channel: 1 Note on, C4 key=60 velocity: 81
@19860 Channel: 1 Note on, E4 key=64 velocity: 81
@19910 Channel: 1 Note on, E4 key=64 velocity: 0
@19910 Channel: 1 Note on, C4 key=60 velocity: 0
@19910 Channel: 1 Note on, G3 key=55 velocity: 0
@19920 Channel: 1 Note on, F4 key=65 velocity: 81
@19920 Channel: 1 Note on, G3 key=55 velocity: 81
@19920 Channel: 1 Note on, C4 key=60 velocity: 81
@19920 Channel: 1 Command:176
@19920 Channel: 1 Command:176
@19970 Channel: 1 Note on, C4 key=60 velocity: 0
@19970 Channel: 1 Note on, G3 key=55 velocity: 0
@19970 Channel: 1 Note on, F4 key=65 velocity: 0
@19980 Channel: 1 Note on, G3 key=55 velocity: 81
@19980 Channel: 1 Note on, C4 key=60 velocity: 81
@19980 Channel: 1 Note on, F4 key=65 velocity: 81
@20000 Channel: 1 Note on, F4 key=65 velocity: 0
@20000 Channel: 1 Note on, C4 key=60 velocity: 0
@20000 Channel: 1 Note on, G3 key=55 velocity: 0
@20010 Channel: 1 Note on, F4 key=65 velocity: 81
@20010 Channel: 1 Note on, C4 key=60 velocity: 81
@20010 Channel: 1 Note on, G3 key=55 velocity: 81
@20060 Channel: 1 Note on, G3 key=55 velocity: 0
@20060 Channel: 1 Note on, C4 key=60 velocity: 0
@20060 Channel: 1 Note on, F4 key=65 velocity: 0
@20070 Channel: 1 Note on, G3 key=55 velocity: 82
@20070 Channel: 1 Note on, C4 key=60 velocity: 82
@20070 Channel: 1 Note on, F4 key=65 velocity: 82
@20090 Channel: 1 Note on, F4 key=65 velocity: 0
@20090 Channel: 1 Note on, C4 key=60 velocity: 0
@20090 Channel: 1 Note on, G3 key=55 velocity: 0
@20100 Channel: 1 Note on, F4 key=65 velocity: 82
@20100 Channel: 1 Note on, G3 key=55 velocity: 82
@20100 Channel: 1 Note on, C4 key=60 velocity: 82
@20150 Channel: 1 Note on, C4 key=60 velocity: 0
@20150 Channel: 1 Note on, G3 key=55 velocity: 0
@20150 Channel: 1 Note on, F4 key=65 velocity: 0
@20160 Channel: 1 Note on, B3 key=59 velocity: 82
@20160 Channel: 1 Note on, D4 key=62 velocity: 82
@20160 Channel: 1 Note on, G3 key=55 velocity: 82
@20160 Channel: 1 Command:176
@20160 Channel: 1 Command:176
@20210 Channel: 1 Note on, G3 key=55 velocity: 0
@20210 Channel: 1 Note on, D4 key=62 velocity: 0
@20210 Channel: 1 Note on, B3 key=59 velocity: 0
@20220 Channel: 1 Note on, G3 key=55 velocity: 82
@20220 Channel: 1 Note on, D4 key=62 velocity: 82
@20220 Channel: 1 Note on, B3 key=59 velocity: 82
@20240 Channel: 1 Note on, B3 key=59 velocity: 0
@20240 Channel: 1 Note on, D4 key=62 velocity: 0
@20240 Channel: 1 Note on, G3 key=55 velocity: 0
@20250 Channel: 1 Note on, D4 key=62 velocity: 83
@20250 Channel: 1 Note on, G3 key=55 velocity: 83
@20250 Channel: 1 Note on, B3 key=59 velocity: 83
@20300 Channel: 1 Note on, B3 key=59 velocity: 0
@20300 Channel: 1 Note on, G3 key=55 velocity: 0
@20300 Channel: 1 Note on, D4 key=62 velocity: 0
@20310 Channel: 1 Note on, D4 key=62 velocity: 83
@20310 Channel: 1 Note on, G3 key=55 velocity: 83
@20310 Channel: 1 Note on, B3 key=59 velocity: 83
@20330 Channel: 1 Note on, B3 key=59 velocity: 0
@20330 Channel: 1 Note on, G3 key=55 velocity: 0
@20330 Channel: 1 Note on, D4 key=62 velocity: 0
@20340 Channel: 1 Note on, D4 key=62 velocity: 83
@20340 Channel: 1 Note on, B3 key=59 velocity: 83
@20340 Channel: 1 Note on, G3 key=55 velocity: 83
@20390 Channel: 1 Note on, G3 key=55 velocity: 0
@20390 Channel: 1 Note on, B3 key=59 velocity: 0
@20390 Channel: 1 Note on, D4 key=62 velocity: 0
@20400 Channel: 1 Note on, D4 key=62 velocity: 83
@20400 Channel: 1 Note on, G3 key=55 velocity: 83
@20400 Channel: 1 Note on, C4 key=60 velocity: 83
@20400 Channel: 1 Command:176
@20400 Channel: 1 Command:176
@20450 Channel: 1 Note on, C4 key=60 velocity: 0
@20450 Channel: 1 Note on, G3 key=55 velocity: 0
@20450 Channel: 1 Note on, D4 key=62 velocity: 0
@20460 Channel: 1 Note on, D4 key=62 velocity: 83
@20460 Channel: 1 Note on, G3 key=55 velocity: 83
@20460 Channel: 1 Note on, C4 key=60 velocity: 83
@20480 Channel: 1 Note on, C4 key=60 velocity: 0
@20480 Channel: 1 Note on, G3 key=55 velocity: 0
@20480 Channel: 1 Note on, D4 key=62 velocity: 0
@20490 Channel: 1 Note on, G3 key=55 velocity: 83
@20490 Channel: 1 Note on, C4 key=60 velocity: 83
@20490 Channel: 1 Note on, D4 key=62 velocity: 83
@20540 Channel: 1 Note on, D4 key=62 velocity: 0
@20540 Channel: 1 Note on, C4 key=60 velocity: 0
@20540 Channel: 1 Note on, G3 key=55 velocity: 0
@20550 Channel: 1 Note on, D4 key=62 velocity: 83
@20550 Channel: 1 Note on, G3 key=55 velocity: 83
@20550 Channel: 1 Note on, C4 key=60 velocity: 83
@20570 Channel: 1 Note on, C4 key=60 velocity: 0
@20570 Channel: 1 Note on, G3 key=55 velocity: 0
@20570 Channel: 1 Note on, D4 key=62 velocity: 0
@20580 Channel: 1 Note on, C4 key=60 velocity: 83
@20580 Channel: 1 Note on, D4 key=62 velocity: 83
@20580 Channel: 1 Note on, G3 key=55 velocity: 83
@20630 Channel: 1 Note on, G3 key=55 velocity: 0
@20630 Channel: 1 Note on, D4 key=62 velocity: 0
@20630 Channel: 1 Note on, C4 key=60 velocity: 0
@20640 Channel: 1 Note on, B3 key=59 velocity: 82
@20640 Channel: 1 Note on, D4 key=62 velocity: 82
@20640 Channel: 1 Note on, G3 key=55 velocity: 82
@20640 Channel: 1 Command:176
@20640 Channel: 1 Command:176
@20690 Channel: 1 Note on, G3 key=55 velocity: 0
@20690 Channel: 1 Note on, D4 key=62 velocity: 0
@20690 Channel: 1 Note on, B3 key=59 velocity: 0
@20700 Channel: 1 Note on, D4 key=62 velocity: 82
@20700 Channel: 1 Note on, G3 key=55 velocity: 82
@20700 Channel: 1 Note on, B3 key=59 velocity: 82
@20720 Channel: 1 Note on, B3 key=59 velocity: 0
@20720 Channel: 1 Note on, G3 key=55 velocity: 0
@20720 Channel: 1 Note on, D4 key=62 velocity: 0
@20730 Channel: 1 Note on, D4 key=62 velocity: 82
@20730 Channel: 1 Note on, G3 key=55 velocity: 82
@20730 Channel: 1 Note on, B3 key=59 velocity: 82
@20780 Channel: 1 Note on, B3 key=59 velocity: 0
@20780 Channel: 1 Note on, G3 key=55 velocity: 0
@20780 Channel: 1 Note on, D4 key=62 velocity: 0
@20790 Channel: 1 Note on, G3 key=55 velocity: 81
@20790 Channel: 1 Note on, D4 key=62 velocity: 81
@20790 Channel: 1 Note on, B3 key=59 velocity: 81
@20810 Channel: 1 Note on, B3 key=59 velocity: 0
@20810 Channel: 1 Note on, D4 key=62 velocity: 0
@20810 Channel: 1 Note on, G3 key=55 velocity: 0
@20820 Channel: 1 Note on, B3 key=59 velocity: 81
@20820 Channel: 1 Note on, D4 key=62 velocity: 81
@20820 Channel: 1 Note on, G3 key=55 velocity: 81
@20870 Channel: 1 Note on, G3 key=55 velocity: 0
@20870 Channel: 1 Note on, D4 key=62 velocity: 0
@20870 Channel: 1 Note on, B3 key=59 velocity: 0
@20880 Channel: 1 Note on, C4 key=60 velocity: 81
@20880 Channel: 1 Note on, G3 key=55 velocity: 81
@20880 Channel: 1 Note on, D4 key=62 velocity: 81
@20880 Channel: 1 Command:176
@20880 Channel: 1 Command:176
@20930 Channel: 1 Note on, D4 key=62 velocity: 0
@20930 Channel: 1 Note on, G3 key=55 velocity: 0
@20930 Channel: 1 Note on, C4 key=60 velocity: 0
@20940 Channel: 1 Note on, C4 key=60 velocity: 81
@20940 Channel: 1 Note on, D4 key=62 velocity: 81
@20940 Channel: 1 Note on, G3 key=55 velocity: 81
@20960 Channel: 1 Note on, G3 key=55 velocity: 0
@20960 Channel: 1 Note on, D4 key=62 velocity: 0
@20960 Channel: 1 Note on, C4 key=60 velocity: 0
@20970 Channel: 1 Note on, G3 key=55 velocity: 81
@20970 Channel: 1 Note on, D4 key=62 velocity: 81
@20970 Channel: 1 Note on, C4 key=60 velocity: 81
@21020 Channel: 1 Note on, C4 key=60 velocity: 0
@21020 Channel: 1 Note on, D4 key=62 velocity: 0
@21020 Channel: 1 Note on, G3 key=55 velocity: 0
@21030 Channel: 1 Note on, G3 key=55 velocity: 80
@21030 Channel: 1 Note on, D4 key=62 velocity: 80
@21030 Channel: 1 Note on, C4 key=60 velocity: 80
@21050 Channel: 1 Note on, C4 key=60 velocity: 0
@21050 Channel: 1 Note on, D4 key=62 velocity: 0
@21050 Channel: 1 Note on, G3 key=55 velocity: 0
@21060 Channel: 1 Note on, D4 key=62 velocity: 80
@21060 Channel: 1 Note on, C4 key=60 velocity: 80
@21060 Channel: 1 Note on, G3 key=55 velocity: 80
@21110 Channel: 1 Note on, G3 key=55 velocity: 0
@21110 Channel: 1 Note on, C4 key=60 velocity: 0
@21110 Channel: 1 Note on, D4 key=62 velocity: 0
@21120 Channel: 1 Note on, C4 key=60 velocity: 80
@21120 Channel: 1 Note on, A3 key=57 velocity: 80
@21120 Channel: 1 Note on, F4 key=65 velocity: 80
@21120 Channel: 1 Command:176
@21120 Channel: 1 Command:176
@21170 Channel: 1 Note on, F4 key=65 velocity: 0
@21170 Channel: 1 Note on, A3 key=57 velocity: 0
@21170 Channel: 1 Note on, C4 key=60 velocity: 0
@21180 Channel: 1 Note on, C4 key=60 velocity: 80
@21180 Channel: 1 Note on, F4 key=65 velocity: 80
@21180 Channel: 1 Note on, A3 key=57 velocity: 80
@21200 Channel: 1 Note on, A3 key=57 velocity: 0
@21200 Channel: 1 Note on, F4 key=65 velocity: 0
@21200 Channel: 1 Note on, C4 key=60 velocity: 0
@21210 Channel: 1 Note on, F4 key=65 velocity: 80
@21210 Channel: 1 Note on, A3 key=57 velocity: 80
@21210 Channel: 1 Note on, C4 key=60 velocity: 80
@21260 Channel: 1 Note on, C4 key=60 velocity: 0
@21260 Channel: 1 Note on, A3 key=57 velocity: 0
@21260 Channel: 1 Note on, F4 key=65 velocity: 0
@21270 Channel: 1 Note on, F4 key=65 velocity: 80
@21270 Channel: 1 Note on, C4 key=60 velocity: 80
@21270 Channel: 1 Note on, A3 key=57 velocity: 80
@21290 Channel: 1 Note on, A3 key=57 velocity: 0
@21290 Channel: 1 Note on, C4 key=60 velocity: 0
@21290 Channel: 1 Note on, F4 key=65 velocity: 0
@21300 Channel: 1 Note on, C4 key=60 velocity: 80
@21300 Channel: 1 Note on, A3 key=57 velocity: 80
@21300 Channel: 1 Note on, F4 key=65 velocity: 80
@21350 Channel: 1 Note on, F4 key=65 velocity: 0
@21350 Channel: 1 Note on, A3 key=57 velocity: 0
@21350 Channel: 1 Note on, C4 key=60 velocity: 0
@21360 Channel: 1 Note on, G3 key=55 velocity: 80
@21360 Channel: 1 Note on, C4 key=60 velocity: 80
@21360 Channel: 1 Note on, F4 key=65 velocity: 80
@21360 Channel: 1 Command:176
@21360 Channel: 1 Command:176
@21410 Channel: 1 Note on, F4 key=65 velocity: 0
@21410 Channel: 1 Note on, C4 key=60 velocity: 0
@21410 Channel: 1 Note on, G3 key=55 velocity: 0
@21420 Channel: 1 Note on, G3 key=55 velocity: 80
@21420 Channel: 1 Note on, C4 key=60 velocity: 80
@21420 Channel: 1 Note on, F4 key=65 velocity: 80
@21440 Channel: 1 Note on, F4 key=65 velocity: 0
@21440 Channel: 1 Note on, C4 key=60 velocity: 0
@21440 Channel: 1 Note on, G3 key=55 velocity: 0
@21450 Channel: 1 Note on, G3 key=55 velocity: 80
@21450 Channel: 1 Note on, C4 key=60 velocity: 80
@21450 Channel: 1 Note on, F4 key=65 velocity: 80
@21500 Channel: 1 Note on, F4 key=65 velocity: 0
@21500 Channel: 1 Note on, C4 key=60 velocity: 0
@21500 Channel: 1 Note on, G3 key=55 velocity: 0
@21510 Channel: 1 Note on, G3 key=55 velocity: 80
@21510 Channel: 1 Note on, F4 key=65 velocity: 80
@21510 Channel: 1 Note on, C4 key=60 velocity: 80
@21530 Channel: 1 Note on, C4 key=60 velocity: 0
@21530 Channel: 1 Note on, F4 key=65 velocity: 0
@21530 Channel: 1 Note on, G3 key=55 velocity: 0
@21540 Channel: 1 Note on, G3 key=55 velocity: 80
@21540 Channel: 1 Note on, C4 key=60 velocity: 80
@21540 Channel: 1 Note on, F4 key=65 velocity: 80
@21590 Channel: 1 Note on, F4 key=65 velocity: 0
@21590 Channel: 1 Note on, C4 key=60 velocity: 0
@21590 Channel: 1 Note on, G3 key=55 velocity: 0
@21600 Channel: 1 Note on, A3 key=57 velocity: 80
@21600 Channel: 1 Note on, C4 key=60 velocity: 80
@21600 Channel: 1 Note on, E4 key=64 velocity: 80
@21600 Channel: 1 Command:176
@21600 Channel: 1 Command:176
@21633 Channel: 1 Note on, E4 key=64 velocity: 0
@21640 Channel: 1 Note on, C4 key=60 velocity: 0
@21640 Channel: 1 Note on, A3 key=57 velocity: 0
@21660 Channel: 1 Note on, C4 key=60 velocity: 80
@21660 Channel: 1 Note on, A3 key=57 velocity: 80
@21660 Channel: 1 Note on, E4 key=64 velocity: 80
@21676 Channel: 1 Note on, E4 key=64 velocity: 0
@21676 Channel: 1 Note on, C4 key=60 velocity: 0
@21678 Channel: 1 Note on, A3 key=57 velocity: 0
@21690 Channel: 1 Note on, C4 key=60 velocity: 80
@21690 Channel: 1 Note on, A3 key=57 velocity: 80
@21690 Channel: 1 Note on, E4 key=64 velocity: 80
@21725 Channel: 1 Note on, E4 key=64 velocity: 0
@21730 Channel: 1 Note on, A3 key=57 velocity: 0
@21730 Channel: 1 Note on, C4 key=60 velocity: 0
@21750 Channel: 1 Note on, C4 key=60 velocity: 80
@21750 Channel: 1 Note on, A3 key=57 velocity: 80
@21750 Channel: 1 Note on, E4 key=64 velocity: 80
@21763 Channel: 1 Note on, E4 key=64 velocity: 0
@21763 Channel: 1 Note on, C4 key=60 velocity: 0
@21769 Channel: 1 Note on, A3 key=57 velocity: 0
@21780 Channel: 1 Note on, A3 key=57 velocity: 80
@21780 Channel: 1 Note on, C4 key=60 velocity: 80
@21780 Channel: 1 Note on, E4 key=64 velocity: 80
@21815 Channel: 1 Note on, C4 key=60 velocity: 0
@21816 Channel: 1 Note on, E4 key=64 velocity: 0
@21818 Channel: 1 Note on, A3 key=57 velocity: 0
@21840 Channel: 1 Note on, A3 key=57 velocity: 80
@21840 Channel: 1 Note on, E4 key=64 velocity: 80
@21840 Channel: 1 Note on, B3 key=59 velocity: 80
@21840 Channel: 1 Command:176
@21840 Channel: 1 Command:176
@21878 Channel: 1 Note on, E4 key=64 velocity: 0
@21882 Channel: 1 Note on, B3 key=59 velocity: 0
@21882 Channel: 1 Note on, A3 key=57 velocity: 0
@21900 Channel: 1 Note on, B3 key=59 velocity: 80
@21900 Channel: 1 Note on, A3 key=57 velocity: 80
@21900 Channel: 1 Note on, E4 key=64 velocity: 80
@21911 Channel: 1 Note on, E4 key=64 velocity: 0
@21917 Channel: 1 Note on, A3 key=57 velocity: 0
@21917 Channel: 1 Note on, B3 key=59 velocity: 0
@21930 Channel: 1 Note on, B3 key=59 velocity: 80
@21930 Channel: 1 Note on, A3 key=57 velocity: 80
@21930 Channel: 1 Note on, E4 key=64 velocity: 80
@21959 Channel: 1 Note on, E4 key=64 velocity: 0
@21965 Channel: 1 Note on, A3 key=57 velocity: 0
@21965 Channel: 1 Note on, B3 key=59 velocity: 0
@21990 Channel: 1 Note on, B3 key=59 velocity: 81
@21990 Channel: 1 Note on, A3 key=57 velocity: 81
@22005 Channel: 1 Note on, B3 key=59 velocity: 0
@22007 Channel: 1 Note on, A3 key=57 velocity: 0
@22020 Channel: 1 Note on, A3 key=57 velocity: 81
@22020 Channel: 1 Note on, E4 key=64 velocity: 81
@22020 Channel: 1 Note on, C4 key=60 velocity: 81
@22055 Channel: 1 Note on, C4 key=60 velocity: 0
@22055 Channel: 1 Note on, E4 key=64 velocity: 0
@22059 Channel: 1 Note on, A3 key=57 velocity: 0
@22080 Channel: 1 Note on, C4 key=60 velocity: 81
@22080 Channel: 1 Note on, D4 key=62 velocity: 81
@22080 Channel: 1 Note on, G3 key=55 velocity: 81
@22080 Channel: 1 Command:176
@22080 Channel: 1 Command:176
@22113 Channel: 1 Note on, D4 key=62 velocity: 0
@22116 Channel: 1 Note on, G3 key=55 velocity: 0
@22120 Channel: 1 Note on, C4 key=60 velocity: 0
@22140 Channel: 1 Note on, C4 key=60 velocity: 82
@22140 Channel: 1 Note on, G3 key=55 velocity: 82
@22140 Channel: 1 Note on, D4 key=62 velocity: 82
@22153 Channel: 1 Note on, D4 key=62 velocity: 0
@22155 Channel: 1 Note on, C4 key=60 velocity: 0
@22157 Channel: 1 Note on, G3 key=55 velocity: 0
@22170 Channel: 1 Note on, G3 key=55 velocity: 82
@22170 Channel: 1 Note on, C4 key=60 velocity: 82
@22170 Channel: 1 Note on, D4 key=62 velocity: 82
@22203 Channel: 1 Note on, D4 key=62 velocity: 0
@22203 Channel: 1 Note on, C4 key=60 velocity: 0
@22205 Channel: 1 Note on, G3 key=55 velocity: 0
@22230 Channel: 1 Note on, C4 key=60 velocity: 82
@22230 Channel: 1 Note on, G3 key=55 velocity: 82
@22230 Channel: 1 Note on, D4 key=62 velocity: 82
@22245 Channel: 1 Note on, C4 key=60 velocity: 0
@22249 Channel: 1 Note on, G3 key=55 velocity: 0
@22252 Channel: 1 Note on, D4 key=62 velocity: 0
@22260 Channel: 1 Note on, C4 key=60 velocity: 82
@22260 Channel: 1 Note on, D4 key=62 velocity: 82
@22260 Channel: 1 Note on, G3 key=55 velocity: 82
@22293 Channel: 1 Note on, C4 key=60 velocity: 0
@22296 Channel: 1 Note on, G3 key=55 velocity: 0
@22298 Channel: 1 Note on, D4 key=62 velocity: 0
@22320 Channel: 1 Note on, D4 key=62 velocity: 81
@22320 Channel: 1 Note on, B3 key=59 velocity: 81
@22320 Channel: 1 Note on, G3 key=55 velocity: 81
@22320 Channel: 1 Command:176
@22320 Channel: 1 Command:176
@22353 Channel: 1 Note on, B3 key=59 velocity: 0
@22357 Channel: 1 Note on, D4 key=62 velocity: 0
@22358 Channel: 1 Note on, G3 key=55 velocity: 0
@22380 Channel: 1 Note on, D4 key=62 velocity: 81
@22380 Channel: 1 Note on, B3 key=59 velocity: 81
@22380 Channel: 1 Note on, G3 key=55 velocity: 81
@22395 Channel: 1 Note on, B3 key=59 velocity: 0
@22397 Channel: 1 Note on, G3 key=55 velocity: 0
@22397 Channel: 1 Note on, D4 key=62 velocity: 0
@22410 Channel: 1 Note on, D4 key=62 velocity: 81
@22410 Channel: 1 Note on, G3 key=55 velocity: 81
@22410 Channel: 1 Note on, B3 key=59 velocity: 81
@22441 Channel: 1 Note on, B3 key=59 velocity: 0
@22443 Channel: 1 Note on, D4 key=62 velocity: 0
@22447 Channel: 1 Note on, G3 key=55 velocity: 0
@22470 Channel: 1 Note on, B3 key=59 velocity: 80
@22470 Channel: 1 Note on, D4 key=62 velocity: 80
@22470 Channel: 1 Note on, G3 key=55 velocity: 80
@22483 Channel: 1 Note on, G3 key=55 velocity: 0
@22483 Channel: 1 Note on, D4 key=62 velocity: 0
@22485 Channel: 1 Note on, B3 key=59 velocity: 0
@22500 Channel: 1 Note on, B3 key=59 velocity: 80
@22500 Channel: 1 Note on, D4 key=62 velocity: 80
@22500 Channel: 1 Note on, G3 key=55 velocity: 80
@22500 Channel: 1 Command:176
@22500 Channel: 1 Command:176
@22528 Channel: 1 Note on, G3 key=55 velocity: 0
@22528 Channel: 1 Note on, D4 key=62 velocity: 0
@22528 Channel: 1 Note on, B3 key=59 velocity: 0
@22560 Channel: 1 Note on, G3 key=55 velocity: 80
@22560 Channel: 1 Note on, B3 key=59 velocity: 80
@22560 Channel: 1 Note on, F4 key=65 velocity: 80
@22560 Channel: 1 Command:176
@22560 Channel: 1 Command:176
@22593 Channel: 1 Note on, F4 key=65 velocity: 0
@22595 Channel: 1 Note on, B3 key=59 velocity: 0
@22597 Channel: 1 Note on, G3 key=55 velocity: 0
@22620 Channel: 1 Note on, B3 key=59 velocity: 80
@22620 Channel: 1 Note on, F4 key=65 velocity: 80
@22620 Channel: 1 Note on, G3 key=55 velocity: 80
@22636 Channel: 1 Note on, B3 key=59 velocity: 0
@22638 Channel: 1 Note on, G3 key=55 velocity: 0
@22640 Channel: 1 Note on, F4 key=65 velocity: 0
@22650 Channel: 1 Note on, F4 key=65 velocity: 80
@22650 Channel: 1 Note on, G3 key=55 velocity: 80
@22650 Channel: 1 Note on, B3 key=59 velocity: 80
@22679 Channel: 1 Note on, B3 key=59 velocity: 0
@22683 Channel: 1 Note on, G3 key=55 velocity: 0
@22685 Channel: 1 Note on, F4 key=65 velocity: 0
@22710 Channel: 1 Note on, F4 key=65 velocity: 80
@22710 Channel: 1 Note on, G3 key=55 velocity: 80
@22710 Channel: 1 Note on, B3 key=59 velocity: 80
@22725 Channel: 1 Note on, B3 key=59 velocity: 0
@22729 Channel: 1 Note on, G3 key=55 velocity: 0
@22740 Channel: 1 Note on, G3 key=55 velocity: 80
@22740 Channel: 1 Note on, B3 key=59 velocity: 80
@22773 Channel: 1 Note on, B3 key=59 velocity: 0
@22776 Channel: 1 Note on, F4 key=65 velocity: 0
@22778 Channel: 1 Note on, G3 key=55 velocity: 0
@22800 Channel: 1 Note on, D4 key=62 velocity: 80
@22800 Channel: 1 Note on, G3 key=55 velocity: 80
@22800 Channel: 1 Note on, B3 key=59 velocity: 80
@22800 Channel: 1 Command:176
@22800 Channel: 1 Command:176
@22835 Channel: 1 Note on, B3 key=59 velocity: 0
@22837 Channel: 1 Note on, G3 key=55 velocity: 0
@22837 Channel: 1 Note on, D4 key=62 velocity: 0
@22860 Channel: 1 Note on, G3 key=55 velocity: 80
@22860 Channel: 1 Note on, B3 key=59 velocity: 80
@22860 Channel: 1 Note on, D4 key=62 velocity: 80
@22876 Channel: 1 Note on, D4 key=62 velocity: 0
@22876 Channel: 1 Note on, B3 key=59 velocity: 0
@22880 Channel: 1 Note on, G3 key=55 velocity: 0
@22890 Channel: 1 Note on, G3 key=55 velocity: 80
@22890 Channel: 1 Note on, B3 key=59 velocity: 80
@22890 Channel: 1 Note on, D4 key=62 velocity: 80
@22917 Channel: 1 Note on, D4 key=62 velocity: 0
@22925 Channel: 1 Note on, B3 key=59 velocity: 0
@22927 Channel: 1 Note on, G3 key=55 velocity: 0
@22950 Channel: 1 Note on, G3 key=55 velocity: 81
@22950 Channel: 1 Note on, B3 key=59 velocity: 81
@22950 Channel: 1 Note on, D4 key=62 velocity: 81
@22963 Channel: 1 Note on, D4 key=62 velocity: 0
@22965 Channel: 1 Note on, B3 key=59 velocity: 0
@22969 Channel: 1 Note on, G3 key=55 velocity: 0
@22980 Channel: 1 Note on, G3 key=55 velocity: 81
@22980 Channel: 1 Note on, B3 key=59 velocity: 81
@22980 Channel: 1 Note on, D4 key=62 velocity: 81
@22980 Channel: 1 Command:176
@22980 Channel: 1 Command:176
@23015 Channel: 1 Note on, D4 key=62 velocity: 0
@23018 Channel: 1 Note on, B3 key=59 velocity: 0
@23020 Channel: 1 Note on, G3 key=55 velocity: 0
@23040 Channel: 1 Note on, C4 key=60 velocity: 81
@23040 Channel: 1 Note on, E4 key=64 velocity: 81
@23040 Channel: 1 Note on, G3 key=55 velocity: 81
@23040 Channel: 1 Note on, E4 key=64 velocity: 81
@23040 Channel: 1 Note on, C4 key=60 velocity: 81
@23040 Channel: 1 Note on, G3 key=55 velocity: 81
@23040 Channel: 1 Command:176
@23040 Channel: 1 Command:176
@23077 Channel: 1 Note on, E4 key=64 velocity: 0
@23079 Channel: 1 Note on, C4 key=60 velocity: 0
@23079 Channel: 1 Note on, G3 key=55 velocity: 0
@23086 Channel: 1 Note on, C4 key=60 velocity: 0
@23086 Channel: 1 Note on, E4 key=64 velocity: 0
@23088 Channel: 1 Note on, G3 key=55 velocity: 0
@23100 Channel: 1 Note on, G3 key=55 velocity: 81
@23100 Channel: 1 Note on, E4 key=64 velocity: 81
@23100 Channel: 1 Note on, C4 key=60 velocity: 81
@23113 Channel: 1 Note on, C4 key=60 velocity: 0
@23115 Channel: 1 Note on, E4 key=64 velocity: 0
@23119 Channel: 1 Note on, G3 key=55 velocity: 0
@23130 Channel: 1 Note on, G3 key=55 velocity: 81
@23130 Channel: 1 Note on, E4 key=64 velocity: 81
@23130 Channel: 1 Note on, C4 key=60 velocity: 81
@23166 Channel: 1 Note on, C4 key=60 velocity: 0
@23172 Channel: 1 Note on, E4 key=64 velocity: 0
@23172 Channel: 1 Note on, G3 key=55 velocity: 0
@23190 Channel: 1 Note on, C4 key=60 velocity: 81
@23190 Channel: 1 Note on, E4 key=64 velocity: 81
@23190 Channel: 1 Note on, G3 key=55 velocity: 81
@23205 Channel: 1 Note on, G3 key=55 velocity: 0
@23205 Channel: 1 Note on, E4 key=64 velocity: 0
@23205 Channel: 1 Note on, C4 key=60 velocity: 0
@23220 Channel: 1 Note on, E4 key=64 velocity: 81
@23220 Channel: 1 Note on, C4 key=60 velocity: 81
@23220 Channel: 1 Note on, G3 key=55 velocity: 81
@23262 Channel: 1 Note on, G3 key=55 velocity: 0
@23262 Channel: 1 Note on, E4 key=64 velocity: 0
@23264 Channel: 1 Note on, C4 key=60 velocity: 0
@23280 Channel: 1 Note on, F4 key=65 velocity: 81
@23280 Channel: 1 Note on, C4 key=60 velocity: 81
@23280 Channel: 1 Note on, G3 key=55 velocity: 81
@23280 Channel: 1 Command:176
@23280 Channel: 1 Command:176
@23322 Channel: 1 Note on, G3 key=55 velocity: 0
@23322 Channel: 1 Note on, C4 key=60 velocity: 0
@23324 Channel: 1 Note on, F4 key=65 velocity: 0
@23340 Channel: 1 Note on, F4 key=65 velocity: 81
@23340 Channel: 1 Note on, C4 key=60 velocity: 81
@23340 Channel: 1 Note on, G3 key=55 velocity: 81
@23355 Channel: 1 Note on, G3 key=55 velocity: 0
@23355 Channel: 1 Note on, C4 key=60 velocity: 0
@23360 Channel: 1 Note on, F4 key=65 velocity: 0
@23370 Channel: 1 Note on, F4 key=65 velocity: 81
@23370 Channel: 1 Note on, C4 key=60 velocity: 81
@23370 Channel: 1 Note on, G3 key=55 velocity: 81
@23412 Channel: 1 Note on, C4 key=60 velocity: 0
@23412 Channel: 1 Note on, F4 key=65 velocity: 0
@23414 Channel: 1 Note on, G3 key=55 velocity: 0
@23430 Channel: 1 Note on, G3 key=55 velocity: 81
@23430 Channel: 1 Note on, C4 key=60 velocity: 81
@23430 Channel: 1 Note on, F4 key=65 velocity: 81
@23447 Channel: 1 Note on, F4 key=65 velocity: 0
@23447 Channel: 1 Note on, C4 key=60 velocity: 0
@23447 Channel: 1 Note on, G3 key=55 velocity: 0
@23460 Channel: 1 Note on, F4 key=65 velocity: 81
@23460 Channel: 1 Note on, G3 key=55 velocity: 81
@23460 Channel: 1 Note on, C4 key=60 velocity: 81
@23507 Channel: 1 Note on, C4 key=60 velocity: 0
@23507 Channel: 1 Note on, G3 key=55 velocity: 0
@23509 Channel: 1 Note on, F4 key=65 velocity: 0
@23520 Channel: 1 Note on, C4 key=60 velocity: 81
@23520 Channel: 1 Note on, E4 key=64 velocity: 81
@23520 Channel: 1 Note on, G3 key=55 velocity: 81
@23520 Channel: 1 Command:176
@23520 Channel: 1 Command:176
@23555 Channel: 1 Note on, G3 key=55 velocity: 0
@23555 Channel: 1 Note on, E4 key=64 velocity: 0
@23555 Channel: 1 Note on, C4 key=60 velocity: 0
@23580 Channel: 1 Note on, C4 key=60 velocity: 80
@23580 Channel: 1 Note on, E4 key=64 velocity: 80
@23580 Channel: 1 Note on, G3 key=55 velocity: 80
@23598 Channel: 1 Note on, E4 key=64 velocity: 0
@23598 Channel: 1 Note on, C4 key=60 velocity: 0
@23600 Channel: 1 Note on, G3 key=55 velocity: 0
@23610 Channel: 1 Note on, E4 key=64 velocity: 80
@23610 Channel: 1 Note on, G3 key=55 velocity: 80
@23610 Channel: 1 Note on, C4 key=60 velocity: 80
@23645 Channel: 1 Note on, C4 key=60 velocity: 0
@23648 Channel: 1 Note on, E4 key=64 velocity: 0
@23650 Channel: 1 Note on, G3 key=55 velocity: 0
@23670 Channel: 1 Note on, G3 key=55 velocity: 80
@23670 Channel: 1 Note on, E4 key=64 velocity: 80
@23670 Channel: 1 Note on, C4 key=60 velocity: 80
@23688 Channel: 1 Note on, C4 key=60 velocity: 0
@23688 Channel: 1 Note on, E4 key=64 velocity: 0
@23688 Channel: 1 Note on, G3 key=55 velocity: 0
@23700 Channel: 1 Note on, E4 key=64 velocity: 80
@23700 Channel: 1 Note on, G3 key=55 velocity: 80
@23700 Channel: 1 Note on, C4 key=60 velocity: 80
@23738 Channel: 1 Note on, G3 key=55 velocity: 0
@23740 Channel: 1 Note on, C4 key=60 velocity: 0
@23740 Channel: 1 Note on, E4 key=64 velocity: 0
@23760 Channel: 1 Note on, C4 key=60 velocity: 80
@23760 Channel: 1 Note on, G3 key=55 velocity: 80
@23760 Channel: 1 Note on, F4 key=65 velocity: 80
@23760 Channel: 1 Command:176
@23760 Channel: 1 Command:176
@23797 Channel: 1 Note on, F4 key=65 velocity: 0
@23797 Channel: 1 Note on, G3 key=55 velocity: 0
@23799 Channel: 1 Note on, C4 key=60 velocity: 0
@23820 Channel: 1 Note on, C4 key=60 velocity: 82
@23820 Channel: 1 Note on, F4 key=65 velocity: 82
@23820 Channel: 1 Note on, G3 key=55 velocity: 82
@23838 Channel: 1 Note on, G3 key=55 velocity: 0
@23838 Channel: 1 Note on, C4 key=60 velocity: 0
@23840 Channel: 1 Note on, F4 key=65 velocity: 0
@23850 Channel: 1 Note on, F4 key=65 velocity: 80
@23850 Channel: 1 Note on, C4 key=60 velocity: 80
@23850 Channel: 1 Note on, G3 key=55 velocity: 80
@23885 Channel: 1 Note on, C4 key=60 velocity: 0
@23885 Channel: 1 Note on, F4 key=65 velocity: 0
@23887 Channel: 1 Note on, G3 key=55 velocity: 0
@23910 Channel: 1 Note on, F4 key=65 velocity: 80
@23910 Channel: 1 Note on, C4 key=60 velocity: 80
@23910 Channel: 1 Note on, G3 key=55 velocity: 80
@23926 Channel: 1 Note on, G3 key=55 velocity: 0
@23926 Channel: 1 Note on, C4 key=60 velocity: 0
@23930 Channel: 1 Note on, F4 key=65 velocity: 0
@23940 Channel: 1 Note on, F4 key=65 velocity: 79
@23940 Channel: 1 Note on, G3 key=55 velocity: 79
@23940 Channel: 1 Note on, C4 key=60 velocity: 79
@23975 Channel: 1 Note on, F4 key=65 velocity: 0
@23979 Channel: 1 Note on, C4 key=60 velocity: 0
@23979 Channel: 1 Note on, G3 key=55 velocity: 0
@24000 Channel: 1 Note on, C4 key=60 velocity: 79
@24000 Channel: 1 Note on, E4 key=64 velocity: 79
@24000 Channel: 1 Note on, A3 key=57 velocity: 79
@24000 Channel: 1 Command:176
@24000 Channel: 1 Command:176
@24040 Channel: 1 Note on, A3 key=57 velocity: 0
@24040 Channel: 1 Note on, E4 key=64 velocity: 0
@24044 Channel: 1 Note on, C4 key=60 velocity: 0
@24060 Channel: 1 Note on, A3 key=57 velocity: 79
@24060 Channel: 1 Note on, C4 key=60 velocity: 79
@24060 Channel: 1 Note on, E4 key=64 velocity: 79
@24077 Channel: 1 Note on, C4 key=60 velocity: 0
@24080 Channel: 1 Note on, E4 key=64 velocity: 0
@24084 Channel: 1 Note on, A3 key=57 velocity: 0
@24090 Channel: 1 Note on, A3 key=57 velocity: 79
@24090 Channel: 1 Note on, E4 key=64 velocity: 79
@24090 Channel: 1 Note on, C4 key=60 velocity: 79
@24125 Channel: 1 Note on, C4 key=60 velocity: 0
@24127 Channel: 1 Note on, E4 key=64 velocity: 0
@24130 Channel: 1 Note on, A3 key=57 velocity: 0
@24150 Channel: 1 Note on, C4 key=60 velocity: 78
@24150 Channel: 1 Note on, A3 key=57 velocity: 78
@24150 Channel: 1 Note on, E4 key=64 velocity: 78
@24164 Channel: 1 Note on, A3 key=57 velocity: 0
@24164 Channel: 1 Note on, C4 key=60 velocity: 0
@24166 Channel: 1 Note on, E4 key=64 velocity: 0
@24180 Channel: 1 Note on, A3 key=57 velocity: 78
@24180 Channel: 1 Note on, C4 key=60 velocity: 78
@24180 Channel: 1 Note on, E4 key=64 velocity: 78
@24218 Channel: 1 Note on, E4 key=64 velocity: 0
@24218 Channel: 1 Note on, C4 key=60 velocity: 0
@24218 Channel: 1 Note on, A3 key=57 velocity: 0
@24240 Channel: 1 Note on, A3 key=57 velocity: 79
@24240 Channel: 1 Note on, C4 key=60 velocity: 79
@24240 Channel: 1 Note on, E4 key=64 velocity: 79
@24240 Channel: 1 Command:176
@24240 Channel: 1 Command:176
@24277 Channel: 1 Note on, E4 key=64 velocity: 0
@24277 Channel: 1 Note on, C4 key=60 velocity: 0
@24279 Channel: 1 Note on, A3 key=57 velocity: 0
@24300 Channel: 1 Note on, A3 key=57 velocity: 79
@24300 Channel: 1 Note on, E4 key=64 velocity: 79
@24300 Channel: 1 Note on, C4 key=60 velocity: 79
@24313 Channel: 1 Note on, C4 key=60 velocity: 0
@24318 Channel: 1 Note on, E4 key=64 velocity: 0
@24318 Channel: 1 Note on, A3 key=57 velocity: 0
@24330 Channel: 1 Note on, A3 key=57 velocity: 79
@24330 Channel: 1 Note on, C4 key=60 velocity: 79
@24330 Channel: 1 Note on, E4 key=64 velocity: 79
@24363 Channel: 1 Note on, E4 key=64 velocity: 0
@24363 Channel: 1 Note on, C4 key=60 velocity: 0
@24367 Channel: 1 Note on, A3 key=57 velocity: 0
@24390 Channel: 1 Note on, A3 key=57 velocity: 80
@24390 Channel: 1 Note on, C4 key=60 velocity: 80
@24390 Channel: 1 Note on, E4 key=64 velocity: 80
@24405 Channel: 1 Note on, E4 key=64 velocity: 0
@24405 Channel: 1 Note on, C4 key=60 velocity: 0
@24405 Channel: 1 Note on, A3 key=57 velocity: 0
@24420 Channel: 1 Note on, A3 key=57 velocity: 80
@24420 Channel: 1 Note on, E4 key=64 velocity: 80
@24420 Channel: 1 Note on, C4 key=60 velocity: 80
@24446 Channel: 1 Note on, C4 key=60 velocity: 0
@24446 Channel: 1 Note on, E4 key=64 velocity: 0
@24451 Channel: 1 Note on, A3 key=57 velocity: 0
@24480 Channel: 1 Note on, A3 key=57 velocity: 80
@24480 Channel: 1 Note on, E4 key=64 velocity: 80
@24480 Channel: 1 Note on, C4 key=60 velocity: 80
@24480 Channel: 1 Command:176
@24480 Channel: 1 Command:176
@24513 Channel: 1 Note on, C4 key=60 velocity: 0
@24518 Channel: 1 Note on, E4 key=64 velocity: 0
@24518 Channel: 1 Note on, A3 key=57 velocity: 0
@24540 Channel: 1 Note on, A3 key=57 velocity: 80
@24540 Channel: 1 Note on, C4 key=60 velocity: 80
@24540 Channel: 1 Note on, E4 key=64 velocity: 80
@24556 Channel: 1 Note on, C4 key=60 velocity: 0
@24558 Channel: 1 Note on, E4 key=64 velocity: 0
@24560 Channel: 1 Note on, A3 key=57 velocity: 0
@24570 Channel: 1 Note on, A3 key=57 velocity: 80
@24570 Channel: 1 Note on, E4 key=64 velocity: 80
@24570 Channel: 1 Note on, C4 key=60 velocity: 80
@24597 Channel: 1 Note on, C4 key=60 velocity: 0
@24601 Channel: 1 Note on, E4 key=64 velocity: 0
@24603 Channel: 1 Note on, A3 key=57 velocity: 0
@24630 Channel: 1 Note on, A3 key=57 velocity: 81
@24630 Channel: 1 Note on, C4 key=60 velocity: 81
@24630 Channel: 1 Note on, E4 key=64 velocity: 81
@24641 Channel: 1 Note on, E4 key=64 velocity: 0
@24641 Channel: 1 Note on, C4 key=60 velocity: 0
@24649 Channel: 1 Note on, A3 key=57 velocity: 0
@24660 Channel: 1 Note on, A3 key=57 velocity: 81
@24660 Channel: 1 Note on, C4 key=60 velocity: 81
@24660 Channel: 1 Note on, E4 key=64 velocity: 81
@24691 Channel: 1 Note on, C4 key=60 velocity: 0
@24693 Channel: 1 Note on, E4 key=64 velocity: 0
@24695 Channel: 1 Note on, A3 key=57 velocity: 0
@24720 Channel: 1 Note on, A3 key=57 velocity: 82
@24720 Channel: 1 Note on, E4 key=64 velocity: 82
@24720 Channel: 1 Note on, C4 key=60 velocity: 82
@24720 Channel: 1 Command:176
@24720 Channel: 1 Command:176
@24755 Channel: 1 Note on, C4 key=60 velocity: 0
@24760 Channel: 1 Note on, E4 key=64 velocity: 0
@24760 Channel: 1 Note on, A3 key=57 velocity: 0
@24780 Channel: 1 Note on, A3 key=57 velocity: 82
@24780 Channel: 1 Note on, C4 key=60 velocity: 82
@24780 Channel: 1 Note on, E4 key=64 velocity: 82
@24793 Channel: 1 Note on, C4 key=60 velocity: 0
@24795 Channel: 1 Note on, E4 key=64 velocity: 0
@24800 Channel: 1 Note on, A3 key=57 velocity: 0
@24810 Channel: 1 Note on, A3 key=57 velocity: 82
@24810 Channel: 1 Note on, E4 key=64 velocity: 82
@24810 Channel: 1 Note on, C4 key=60 velocity: 82
@24843 Channel: 1 Note on, C4 key=60 velocity: 0
@24845 Channel: 1 Note on, E4 key=64 velocity: 0
@24848 Channel: 1 Note on, A3 key=57 velocity: 0
@24870 Channel: 1 Note on, A3 key=57 velocity: 82
@24870 Channel: 1 Note on, C4 key=60 velocity: 82
@24870 Channel: 1 Note on, E4 key=64 velocity: 82
@24883 Channel: 1 Note on, C4 key=60 velocity: 0
@24885 Channel: 1 Note on, E4 key=64 velocity: 0
@24892 Channel: 1 Note on, A3 key=57 velocity: 0
@24900 Channel: 1 Note on, E4 key=64 velocity: 81
@24900 Channel: 1 Note on, A3 key=57 velocity: 81
@24900 Channel: 1 Note on, C4 key=60 velocity: 81
@24929 Channel: 1 Note on, C4 key=60 velocity: 0
@24931 Channel: 1 Note on, E4 key=64 velocity: 0
@24933 Channel: 1 Note on, A3 key=57 velocity: 0
@24960 Channel: 1 Note on, C4 key=60 velocity: 81
@24960 Channel: 1 Note on, F4 key=65 velocity: 81
@24960 Channel: 1 Note on, A3 key=57 velocity: 81
@24960 Channel: 1 Command:176
@24960 Channel: 1 Command:176
@24995 Channel: 1 Note on, A3 key=57 velocity: 0
@24995 Channel: 1 Note on, C4 key=60 velocity: 0
@24997 Channel: 1 Note on, F4 key=65 velocity: 0
@25020 Channel: 1 Note on, F4 key=65 velocity: 81
@25020 Channel: 1 Note on, C4 key=60 velocity: 81
@25020 Channel: 1 Note on, A3 key=57 velocity: 81
@25036 Channel: 1 Note on, C4 key=60 velocity: 0
@25038 Channel: 1 Note on, A3 key=57 velocity: 0
@25038 Channel: 1 Note on, F4 key=65 velocity: 0
@25050 Channel: 1 Note on, A3 key=57 velocity: 81
@25050 Channel: 1 Note on, F4 key=65 velocity: 81
@25050 Channel: 1 Note on, C4 key=60 velocity: 81
@25085 Channel: 1 Note on, C4 key=60 velocity: 0
@25085 Channel: 1 Note on, F4 key=65 velocity: 0
@25085 Channel: 1 Note on, A3 key=57 velocity: 0
@25110 Channel: 1 Note on, A3 key=57 velocity: 80
@25110 Channel: 1 Note on, C4 key=60 velocity: 80
@25110 Channel: 1 Note on, F4 key=65 velocity: 80
@25126 Channel: 1 Note on, F4 key=65 velocity: 0
@25126 Channel: 1 Note on, C4 key=60 velocity: 0
@25128 Channel: 1 Note on, A3 key=57 velocity: 0
@25140 Channel: 1 Note on, A3 key=57 velocity: 80
@25140 Channel: 1 Note on, F4 key=65 velocity: 80
@25140 Channel: 1 Note on, C4 key=60 velocity: 80
@25171 Channel: 1 Note on, C4 key=60 velocity: 0
@25171 Channel: 1 Note on, F4 key=65 velocity: 0
@25171 Channel: 1 Note on, A3 key=57 velocity: 0
@25200 Channel: 1 Note on, C4 key=60 velocity: 80
@25200 Channel: 1 Note on, G3 key=55 velocity: 80
@25200 Channel: 1 Note on, F4 key=65 velocity: 80
@25200 Channel: 1 Command:176
@25200 Channel: 1 Command:176
@25236 Channel: 1 Note on, F4 key=65 velocity: 0
@25236 Channel: 1 Note on, G3 key=55 velocity: 0
@25236 Channel: 1 Note on, C4 key=60 velocity: 0
@25260 Channel: 1 Note on, G3 key=55 velocity: 80
@25260 Channel: 1 Note on, C4 key=60 velocity: 80
@25260 Channel: 1 Note on, F4 key=65 velocity: 80
@25277 Channel: 1 Note on, F4 key=65 velocity: 0
@25277 Channel: 1 Note on, C4 key=60 velocity: 0
@25277 Channel: 1 Note on, G3 key=55 velocity: 0
@25290 Channel: 1 Note on, G3 key=55 velocity: 80
@25290 Channel: 1 Note on, F4 key=65 velocity: 80
@25290 Channel: 1 Note on, C4 key=60 velocity: 80
@25318 Channel: 1 Note on, C4 key=60 velocity: 0
@25318 Channel: 1 Note on, F4 key=65 velocity: 0
@25323 Channel: 1 Note on, G3 key=55 velocity: 0
@25350 Channel: 1 Note on, G3 key=55 velocity: 80
@25350 Channel: 1 Note on, C4 key=60 velocity: 80
@25350 Channel: 1 Note on, F4 key=65 velocity: 80
@25367 Channel: 1 Note on, F4 key=65 velocity: 0
@25367 Channel: 1 Note on, C4 key=60 velocity: 0
@25370 Channel: 1 Note on, G3 key=55 velocity: 0
@25380 Channel: 1 Note on, G3 key=55 velocity: 81
@25380 Channel: 1 Note on, F4 key=65 velocity: 81
@25380 Channel: 1 Note on, C4 key=60 velocity: 81
@25413 Channel: 1 Note on, C4 key=60 velocity: 0
@25413 Channel: 1 Note on, F4 key=65 velocity: 0
@25413 Channel: 1 Note on, G3 key=55 velocity: 0
@25440 Channel: 1 Note on, A3 key=57 velocity: 81
@25440 Channel: 1 Note on, C4 key=60 velocity: 81
@25440 Channel: 1 Note on, F4 key=65 velocity: 81
@25440 Channel: 1 Command:176
@25440 Channel: 1 Command:176
@25468 Channel: 1 Note on, F4 key=65 velocity: 0
@25471 Channel: 1 Note on, C4 key=60 velocity: 0
@25473 Channel: 1 Note on, A3 key=57 velocity: 0
@25500 Channel: 1 Note on, F4 key=65 velocity: 81
@25500 Channel: 1 Note on, A3 key=57 velocity: 81
@25500 Channel: 1 Note on, C4 key=60 velocity: 81
@25513 Channel: 1 Note on, C4 key=60 velocity: 0
@25515 Channel: 1 Note on, A3 key=57 velocity: 0
@25515 Channel: 1 Note on, F4 key=65 velocity: 0
@25530 Channel: 1 Note on, A3 key=57 velocity: 81
@25530 Channel: 1 Note on, F4 key=65 velocity: 81
@25530 Channel: 1 Note on, C4 key=60 velocity: 81
@25556 Channel: 1 Note on, C4 key=60 velocity: 0
@25561 Channel: 1 Note on, F4 key=65 velocity: 0
@25563 Channel: 1 Note on, A3 key=57 velocity: 0
@25590 Channel: 1 Note on, A3 key=57 velocity: 81
@25590 Channel: 1 Note on, F4 key=65 velocity: 81
@25590 Channel: 1 Note on, C4 key=60 velocity: 81
@25605 Channel: 1 Note on, C4 key=60 velocity: 0
@25608 Channel: 1 Note on, A3 key=57 velocity: 0
@25610 Channel: 1 Note on, F4 key=65 velocity: 0
@25620 Channel: 1 Note on, F4 key=65 velocity: 81
@25620 Channel: 1 Note on, A3 key=57 velocity: 81
@25620 Channel: 1 Note on, C4 key=60 velocity: 81
@25650 Channel: 1 Note on, C4 key=60 velocity: 0
@25653 Channel: 1 Note on, F4 key=65 velocity: 0
@25655 Channel: 1 Note on, A3 key=57 velocity: 0
@25680 Channel: 1 Note on, C4 key=60 velocity: 81
@25680 Channel: 1 Note on, F4 key=65 velocity: 81
@25680 Channel: 1 Note on, G3 key=55 velocity: 81
@25680 Channel: 1 Command:176
@25680 Channel: 1 Command:176
@25706 Channel: 1 Note on, G3 key=55 velocity: 0
@25709 Channel: 1 Note on, C4 key=60 velocity: 0
@25711 Channel: 1 Note on, F4 key=65 velocity: 0
@25740 Channel: 1 Note on, C4 key=60 velocity: 80
@25740 Channel: 1 Note on, G3 key=55 velocity: 80
@25740 Channel: 1 Note on, F4 key=65 velocity: 80
@25758 Channel: 1 Note on, F4 key=65 velocity: 0
@25758 Channel: 1 Note on, G3 key=55 velocity: 0
@25758 Channel: 1 Note on, C4 key=60 velocity: 0
@25770 Channel: 1 Note on, F4 key=65 velocity: 80
@25770 Channel: 1 Note on, G3 key=55 velocity: 80
@25770 Channel: 1 Note on, C4 key=60 velocity: 80
@25801 Channel: 1 Note on, C4 key=60 velocity: 0
@25803 Channel: 1 Note on, G3 key=55 velocity: 0
@25803 Channel: 1 Note on, F4 key=65 velocity: 0
@25830 Channel: 1 Note on, C4 key=60 velocity: 80
@25830 Channel: 1 Note on, F4 key=65 velocity: 80
@25830 Channel: 1 Note on, G3 key=55 velocity: 80
@25848 Channel: 1 Note on, G3 key=55 velocity: 0
@25848 Channel: 1 Note on, C4 key=60 velocity: 0
@25850 Channel: 1 Note on, F4 key=65 velocity: 0
@25860 Channel: 1 Note on, F4 key=65 velocity: 80
@25860 Channel: 1 Note on, C4 key=60 velocity: 80
@25860 Channel: 1 Note on, G3 key=55 velocity: 80
@25887 Channel: 1 Note on, F4 key=65 velocity: 0
@25889 Channel: 1 Note on, C4 key=60 velocity: 0
@25895 Channel: 1 Note on, G3 key=55 velocity: 0
@25920 Channel: 1 Note on, B3 key=59 velocity: 81
@25920 Channel: 1 Note on, G3 key=55 velocity: 81
@25920 Channel: 1 Note on, E4 key=64 velocity: 81
@25920 Channel: 1 Command:176
@25920 Channel: 1 Command:176
@25951 Channel: 1 Note on, E4 key=64 velocity: 0
@25951 Channel: 1 Note on, B3 key=59 velocity: 0
@25953 Channel: 1 Note on, G3 key=55 velocity: 0
@25980 Channel: 1 Note on, E4 key=64 velocity: 81
@25980 Channel: 1 Note on, B3 key=59 velocity: 81
@25980 Channel: 1 Note on, G3 key=55 velocity: 81
@25993 Channel: 1 Note on, B3 key=59 velocity: 0
@25995 Channel: 1 Note on, G3 key=55 velocity: 0
@25997 Channel: 1 Note on, E4 key=64 velocity: 0
@26010 Channel: 1 Note on, E4 key=64 velocity: 81
@26010 Channel: 1 Note on, G3 key=55 velocity: 81
@26010 Channel: 1 Note on, B3 key=59 velocity: 81
@26041 Channel: 1 Note on, B3 key=59 velocity: 0
@26041 Channel: 1 Note on, G3 key=55 velocity: 0
@26043 Channel: 1 Note on, E4 key=64 velocity: 0
@26070 Channel: 1 Note on, E4 key=64 velocity: 81
@26070 Channel: 1 Note on, B3 key=59 velocity: 81
@26070 Channel: 1 Note on, G3 key=55 velocity: 81
@26083 Channel: 1 Note on, B3 key=59 velocity: 0
@26085 Channel: 1 Note on, G3 key=55 velocity: 0
@26085 Channel: 1 Note on, E4 key=64 velocity: 0
@26100 Channel: 1 Note on, G3 key=55 velocity: 81
@26100 Channel: 1 Note on, E4 key=64 velocity: 81
@26100 Channel: 1 Note on, B3 key=59 velocity: 81
@26127 Channel: 1 Note on, B3 key=59 velocity: 0
@26127 Channel: 1 Note on, E4 key=64 velocity: 0
@26131 Channel: 1 Note on, G3 key=55 velocity: 0
@26160 Channel: 1 Note on, E4 key=64 velocity: 82
@26160 Channel: 1 Note on, G3 key=55 velocity: 82
@26160 Channel: 1 Note on, B3 key=59 velocity: 82
@26160 Channel: 1 Command:176
@26160 Channel: 1 Command:176
@26195 Channel: 1 Note on, B3 key=59 velocity: 0
@26197 Channel: 1 Note on, G3 key=55 velocity: 0
@26197 Channel: 1 Note on, E4 key=64 velocity: 0
@26220 Channel: 1 Note on, G3 key=55 velocity: 82
@26220 Channel: 1 Note on, B3 key=59 velocity: 82
@26220 Channel: 1 Note on, E4 key=64 velocity: 82
@26233 Channel: 1 Note on, B3 key=59 velocity: 0
@26235 Channel: 1 Note on, E4 key=64 velocity: 0
@26235 Channel: 1 Note on, G3 key=55 velocity: 0
@26250 Channel: 1 Note on, G3 key=55 velocity: 82
@26250 Channel: 1 Note on, E4 key=64 velocity: 82
@26250 Channel: 1 Note on, B3 key=59 velocity: 82
@26276 Channel: 1 Note on, B3 key=59 velocity: 0
@26276 Channel: 1 Note on, E4 key=64 velocity: 0
@26279 Channel: 1 Note on, G3 key=55 velocity: 0
@26310 Channel: 1 Note on, B3 key=59 velocity: 82
@26310 Channel: 1 Note on, G3 key=55 velocity: 82
@26310 Channel: 1 Note on, E4 key=64 velocity: 82
@26323 Channel: 1 Note on, E4 key=64 velocity: 0
@26323 Channel: 1 Note on, B3 key=59 velocity: 0
@26327 Channel: 1 Note on, G3 key=55 velocity: 0
@26340 Channel: 1 Note on, G3 key=55 velocity: 82
@26340 Channel: 1 Note on, E4 key=64 velocity: 82
@26340 Channel: 1 Note on, B3 key=59 velocity: 82
@26371 Channel: 1 Note on, B3 key=59 velocity: 0
@26371 Channel: 1 Note on, E4 key=64 velocity: 0
@26373 Channel: 1 Note on, G3 key=55 velocity: 0
@26400 Channel: 1 Note on, A3 key=57 velocity: 82
@26400 Channel: 1 Note on, C4 key=60 velocity: 82
@26400 Channel: 1 Note on, F4 key=65 velocity: 82
@26400 Channel: 1 Command:176
@26400 Channel: 1 Command:176
@26436 Channel: 1 Note on, C4 key=60 velocity: 0
@26436 Channel: 1 Note on, A3 key=57 velocity: 0
@26438 Channel: 1 Note on, F4 key=65 velocity: 0
@26460 Channel: 1 Note on, A3 key=57 velocity: 82
@26460 Channel: 1 Note on, F4 key=65 velocity: 82
@26460 Channel: 1 Note on, C4 key=60 velocity: 82
@26473 Channel: 1 Note on, C4 key=60 velocity: 0
@26475 Channel: 1 Note on, F4 key=65 velocity: 0
@26475 Channel: 1 Note on, A3 key=57 velocity: 0
@26490 Channel: 1 Note on, F4 key=65 velocity: 82
@26490 Channel: 1 Note on, A3 key=57 velocity: 82
@26490 Channel: 1 Note on, C4 key=60 velocity: 82
@26521 Channel: 1 Note on, C4 key=60 velocity: 0
@26523 Channel: 1 Note on, A3 key=57 velocity: 0
@26523 Channel: 1 Note on, F4 key=65 velocity: 0
@26550 Channel: 1 Note on, C4 key=60 velocity: 80
@26550 Channel: 1 Note on, F4 key=65 velocity: 80
@26550 Channel: 1 Note on, A3 key=57 velocity: 80
@26565 Channel: 1 Note on, C4 key=60 velocity: 0
@26568 Channel: 1 Note on, A3 key=57 velocity: 0
@26568 Channel: 1 Note on, F4 key=65 velocity: 0
@26580 Channel: 1 Note on, F4 key=65 velocity: 80
@26580 Channel: 1 Note on, A3 key=57 velocity: 80
@26580 Channel: 1 Note on, C4 key=60 velocity: 80
@26609 Channel: 1 Note on, C4 key=60 velocity: 0
@26609 Channel: 1 Note on, A3 key=57 velocity: 0
@26613 Channel: 1 Note on, F4 key=65 velocity: 0
@26640 Channel: 1 Note on, B3 key=59 velocity: 80
@26640 Channel: 1 Note on, D4 key=62 velocity: 80
@26640 Channel: 1 Note on, G4 key=67 velocity: 80
@26640 Channel: 1 Command:176
@26640 Channel: 1 Command:176
@26676 Channel: 1 Note on, D4 key=62 velocity: 0
@26678 Channel: 1 Note on, B3 key=59 velocity: 0
@26680 Channel: 1 Note on, G4 key=67 velocity: 0
@26700 Channel: 1 Note on, G4 key=67 velocity: 80
@26700 Channel: 1 Note on, B3 key=59 velocity: 80
@26700 Channel: 1 Note on, D4 key=62 velocity: 80
@26713 Channel: 1 Note on, D4 key=62 velocity: 0
@26713 Channel: 1 Note on, B3 key=59 velocity: 0
@26720 Channel: 1 Note on, G4 key=67 velocity: 0
@26730 Channel: 1 Note on, G4 key=67 velocity: 80
@26730 Channel: 1 Note on, D4 key=62 velocity: 80
@26730 Channel: 1 Note on, B3 key=59 velocity: 80
@26763 Channel: 1 Note on, B3 key=59 velocity: 0
@26763 Channel: 1 Note on, D4 key=62 velocity: 0
@26765 Channel: 1 Note on, G4 key=67 velocity: 0
@26790 Channel: 1 Note on, G4 key=67 velocity: 79
@26790 Channel: 1 Note on, D4 key=62 velocity: 79
@26790 Channel: 1 Note on, B3 key=59 velocity: 79
@26805 Channel: 1 Note on, B3 key=59 velocity: 0
@26805 Channel: 1 Note on, D4 key=62 velocity: 0
@26805 Channel: 1 Note on, G4 key=67 velocity: 0
@26820 Channel: 1 Note on, B3 key=59 velocity: 79
@26820 Channel: 1 Note on, G4 key=67 velocity: 79
@26820 Channel: 1 Note on, D4 key=62 velocity: 79
@26820 Channel: 1 Note on, F4 key=65 velocity: 79
@26831 Channel: 1 Note on, F4 key=65 velocity: 0
@26866 Channel: 1 Note on, B3 key=59 velocity: 0
@26866 Channel: 1 Note on, G4 key=67 velocity: 0
@26866 Channel: 1 Note on, D4 key=62 velocity: 0
@26880 Channel: 1 Note on, C4 key=60 velocity: 78
@26880 Channel: 1 Note on, G3 key=55 velocity: 78
@26880 Channel: 1 Note on, E4 key=64 velocity: 78
@26880 Channel: 1 Command:176
@26880 Channel: 1 Command:176
@26930 Channel: 1 Note on, E4 key=64 velocity: 0
@26930 Channel: 1 Note on, G3 key=55 velocity: 0
@26930 Channel: 1 Note on, C4 key=60 velocity: 0
@26940 Channel: 1 Note on, E4 key=64 velocity: 78
@26940 Channel: 1 Note on, G3 key=55 velocity: 78
@26940 Channel: 1 Note on, C4 key=60 velocity: 78
@26960 Channel: 1 Note on, C4 key=60 velocity: 0
@26960 Channel: 1 Note on, G3 key=55 velocity: 0
@26960 Channel: 1 Note on, E4 key=64 velocity: 0
@26970 Channel: 1 Note on, C4 key=60 velocity: 79
@26970 Channel: 1 Note on, G3 key=55 velocity: 79
@26970 Channel: 1 Note on, E4 key=64 velocity: 79
@27020 Channel: 1 Note on, E4 key=64 velocity: 0
@27020 Channel: 1 Note on, G3 key=55 velocity: 0
@27020 Channel: 1 Note on, C4 key=60 velocity: 0
@27030 Channel: 1 Note on, G3 key=55 velocity: 79
@27030 Channel: 1 Note on, C4 key=60 velocity: 79
@27030 Channel: 1 Note on, E4 key=64 velocity: 79
@27050 Channel: 1 Note on, E4 key=64 velocity: 0
@27050 Channel: 1 Note on, C4 key=60 velocity: 0
@27050 Channel: 1 Note on, G3 key=55 velocity: 0
@27060 Channel: 1 Note on, G3 key=55 velocity: 79
@27060 Channel: 1 Note on, C4 key=60 velocity: 79
@27060 Channel: 1 Note on, E4 key=64 velocity: 79
@27110 Channel: 1 Note on, E4 key=64 velocity: 0
@27110 Channel: 1 Note on, C4 key=60 velocity: 0
@27110 Channel: 1 Note on, G3 key=55 velocity: 0
@27120 Channel: 1 Note on, F4 key=65 velocity: 79
@27120 Channel: 1 Note on, G3 key=55 velocity: 79
@27120 Channel: 1 Note on, C4 key=60 velocity: 79
@27120 Channel: 1 Command:176
@27120 Channel: 1 Command:176
@27170 Channel: 1 Note on, C4 key=60 velocity: 0
@27170 Channel: 1 Note on, G3 key=55 velocity: 0
@27170 Channel: 1 Note on, F4 key=65 velocity: 0
@27180 Channel: 1 Note on, G3 key=55 velocity: 80
@27180 Channel: 1 Note on, C4 key=60 velocity: 80
@27180 Channel: 1 Note on, F4 key=65 velocity: 80
@27200 Channel: 1 Note on, F4 key=65 velocity: 0
@27200 Channel: 1 Note on, C4 key=60 velocity: 0
@27200 Channel: 1 Note on, G3 key=55 velocity: 0
@27210 Channel: 1 Note on, F4 key=65 velocity: 80
@27210 Channel: 1 Note on, C4 key=60 velocity: 80
@27210 Channel: 1 Note on, G3 key=55 velocity: 80
@27260 Channel: 1 Note on, G3 key=55 velocity: 0
@27260 Channel: 1 Note on, C4 key=60 velocity: 0
@27260 Channel: 1 Note on, F4 key=65 velocity: 0
@27270 Channel: 1 Note on, G3 key=55 velocity: 80
@27270 Channel: 1 Note on, C4 key=60 velocity: 80
@27270 Channel: 1 Note on, F4 key=65 velocity: 80
@27290 Channel: 1 Note on, F4 key=65 velocity: 0
@27290 Channel: 1 Note on, C4 key=60 velocity: 0
@27290 Channel: 1 Note on, G3 key=55 velocity: 0
@27300 Channel: 1 Note on, F4 key=65 velocity: 80
@27300 Channel: 1 Note on, G3 key=55 velocity: 80
@27300 Channel: 1 Note on, C4 key=60 velocity: 80
@27350 Channel: 1 Note on, C4 key=60 velocity: 0
@27350 Channel: 1 Note on, G3 key=55 velocity: 0
@27350 Channel: 1 Note on, F4 key=65 velocity: 0
@27360 Channel: 1 Note on, C4 key=60 velocity: 80
@27360 Channel: 1 Note on, G3 key=55 velocity: 80
@27360 Channel: 1 Note on, E4 key=64 velocity: 80
@27360 Channel: 1 Command:176
@27360 Channel: 1 Command:176
@27410 Channel: 1 Note on, E4 key=64 velocity: 0
@27410 Channel: 1 Note on, G3 key=55 velocity: 0
@27410 Channel: 1 Note on, C4 key=60 velocity: 0
@27420 Channel: 1 Note on, E4 key=64 velocity: 80
@27420 Channel: 1 Note on, G3 key=55 velocity: 80
@27420 Channel: 1 Note on, C4 key=60 velocity: 80
@27440 Channel: 1 Note on, C4 key=60 velocity: 0
@27440 Channel: 1 Note on, G3 key=55 velocity: 0
@27440 Channel: 1 Note on, E4 key=64 velocity: 0
@27450 Channel: 1 Note on, C4 key=60 velocity: 80
@27450 Channel: 1 Note on, G3 key=55 velocity: 80
@27450 Channel: 1 Note on, E4 key=64 velocity: 80
@27500 Channel: 1 Note on, E4 key=64 velocity: 0
@27500 Channel: 1 Note on, G3 key=55 velocity: 0
@27500 Channel: 1 Note on, C4 key=60 velocity: 0
@27510 Channel: 1 Note on, G3 key=55 velocity: 80
@27510 Channel: 1 Note on, C4 key=60 velocity: 80
@27510 Channel: 1 Note on, E4 key=64 velocity: 80
@27530 Channel: 1 Note on, E4 key=64 velocity: 0
@27530 Channel: 1 Note on, C4 key=60 velocity: 0
@27530 Channel: 1 Note on, G3 key=55 velocity: 0
@27540 Channel: 1 Note on, G3 key=55 velocity: 80
@27540 Channel: 1 Note on, C4 key=60 velocity: 80
@27540 Channel: 1 Note on, E4 key=64 velocity: 80
@27590 Channel: 1 Note on, E4 key=64 velocity: 0
@27590 Channel: 1 Note on, C4 key=60 velocity: 0
@27590 Channel: 1 Note on, G3 key=55 velocity: 0
@27600 Channel: 1 Note on, F4 key=65 velocity: 80
@27600 Channel: 1 Note on, G3 key=55 velocity: 80
@27600 Channel: 1 Note on, C4 key=60 velocity: 80
@27600 Channel: 1 Command:176
@27600 Channel: 1 Command:176
@27650 Channel: 1 Note on, C4 key=60 velocity: 0
@27650 Channel: 1 Note on, G3 key=55 velocity: 0
@27650 Channel: 1 Note on, F4 key=65 velocity: 0
@27660 Channel: 1 Note on, G3 key=55 velocity: 80
@27660 Channel: 1 Note on, C4 key=60 velocity: 80
@27660 Channel: 1 Note on, F4 key=65 velocity: 80
@27680 Channel: 1 Note on, F4 key=65 velocity: 0
@27680 Channel: 1 Note on, C4 key=60 velocity: 0
@27680 Channel: 1 Note on, G3 key=55 velocity: 0
@27690 Channel: 1 Note on, F4 key=65 velocity: 80
@27690 Channel: 1 Note on, C4 key=60 velocity: 80
@27690 Channel: 1 Note on, G3 key=55 velocity: 80
@27740 Channel: 1 Note on, G3 key=55 velocity: 0
@27740 Channel: 1 Note on, C4 key=60 velocity: 0
@27740 Channel: 1 Note on, F4 key=65 velocity: 0
@27750 Channel: 1 Note on, G3 key=55 velocity: 80
@27750 Channel: 1 Note on, C4 key=60 velocity: 80
@27750 Channel: 1 Note on, F4 key=65 velocity: 80
@27770 Channel: 1 Note on, F4 key=65 velocity: 0
@27770 Channel: 1 Note on, C4 key=60 velocity: 0
@27770 Channel: 1 Note on, G3 key=55 velocity: 0
@27780 Channel: 1 Note on, F4 key=65 velocity: 80
@27780 Channel: 1 Note on, G3 key=55 velocity: 80
@27780 Channel: 1 Note on, C4 key=60 velocity: 80
@27830 Channel: 1 Note on, C4 key=60 velocity: 0
@27830 Channel: 1 Note on, G3 key=55 velocity: 0
@27830 Channel: 1 Note on, F4 key=65 velocity: 0
@27840 Channel: 1 Note on, C4 key=60 velocity: 80
@27840 Channel: 1 Note on, G3 key=55 velocity: 80
@27840 Channel: 1 Note on, E4 key=64 velocity: 80
@27840 Channel: 1 Command:176
@27840 Channel: 1 Command:176
@27890 Channel: 1 Note on, E4 key=64 velocity: 0
@27890 Channel: 1 Note on, G3 key=55 velocity: 0
@27890 Channel: 1 Note on, C4 key=60 velocity: 0
@27900 Channel: 1 Note on, E4 key=64 velocity: 80
@27900 Channel: 1 Note on, G3 key=55 velocity: 80
@27900 Channel: 1 Note on, C4 key=60 velocity: 80
@27920 Channel: 1 Note on, C4 key=60 velocity: 0
@27920 Channel: 1 Note on, G3 key=55 velocity: 0
@27920 Channel: 1 Note on, E4 key=64 velocity: 0
@27930 Channel: 1 Note on, C4 key=60 velocity: 81
@27930 Channel: 1 Note on, G3 key=55 velocity: 81
@27930 Channel: 1 Note on, E4 key=64 velocity: 81
@27980 Channel: 1 Note on, E4 key=64 velocity: 0
@27980 Channel: 1 Note on, G3 key=55 velocity: 0
@27980 Channel: 1 Note on, C4 key=60 velocity: 0
@27990 Channel: 1 Note on, G3 key=55 velocity: 81
@27990 Channel: 1 Note on, C4 key=60 velocity: 81
@27990 Channel: 1 Note on, E4 key=64 velocity: 81
@28010 Channel: 1 Note on, E4 key=64 velocity: 0
@28010 Channel: 1 Note on, C4 key=60 velocity: 0
@28010 Channel: 1 Note on, G3 key=55 velocity: 0
@28020 Channel: 1 Note on, G3 key=55 velocity: 81
@28020 Channel: 1 Note on, C4 key=60 velocity: 81
@28020 Channel: 1 Note on, E4 key=64 velocity: 81
@28070 Channel: 1 Note on, E4 key=64 velocity: 0
@28070 Channel: 1 Note on, C4 key=60 velocity: 0
@28070 Channel: 1 Note on, G3 key=55 velocity: 0
@28080 Channel: 1 Note on, F4 key=65 velocity: 81
@28080 Channel: 1 Note on, G3 key=55 velocity: 81
@28080 Channel: 1 Note on, C4 key=60 velocity: 81
@28080 Channel: 1 Command:176
@28080 Channel: 1 Command:176
@28130 Channel: 1 Note on, C4 key=60 velocity: 0
@28130 Channel: 1 Note on, G3 key=55 velocity: 0
@28130 Channel: 1 Note on, F4 key=65 velocity: 0
@28140 Channel: 1 Note on, G3 key=55 velocity: 81
@28140 Channel: 1 Note on, C4 key=60 velocity: 81
@28140 Channel: 1 Note on, F4 key=65 velocity: 81
@28160 Channel: 1 Note on, F4 key=65 velocity: 0
@28160 Channel: 1 Note on, C4 key=60 velocity: 0
@28160 Channel: 1 Note on, G3 key=55 velocity: 0
@28170 Channel: 1 Note on, F4 key=65 velocity: 81
@28170 Channel: 1 Note on, C4 key=60 velocity: 81
@28170 Channel: 1 Note on, G3 key=55 velocity: 81
@28220 Channel: 1 Note on, G3 key=55 velocity: 0
@28220 Channel: 1 Note on, C4 key=60 velocity: 0
@28220 Channel: 1 Note on, F4 key=65 velocity: 0
@28230 Channel: 1 Note on, G3 key=55 velocity: 81
@28230 Channel: 1 Note on, C4 key=60 velocity: 81
@28230 Channel: 1 Note on, F4 key=65 velocity: 81
@28250 Channel: 1 Note on, F4 key=65 velocity: 0
@28250 Channel: 1 Note on, C4 key=60 velocity: 0
@28250 Channel: 1 Note on, G3 key=55 velocity: 0
@28260 Channel: 1 Note on, F4 key=65 velocity: 81
@28260 Channel: 1 Note on, G3 key=55 velocity: 81
@28260 Channel: 1 Note on, C4 key=60 velocity: 81
@28310 Channel: 1 Note on, C4 key=60 velocity: 0
@28310 Channel: 1 Note on, G3 key=55 velocity: 0
@28310 Channel: 1 Note on, F4 key=65 velocity: 0
@28320 Channel: 1 Note on, C4 key=60 velocity: 80
@28320 Channel: 1 Note on, G3 key=55 velocity: 80
@28320 Channel: 1 Note on, E4 key=64 velocity: 80
@28320 Channel: 1 Command:176
@28320 Channel: 1 Command:176
@28370 Channel: 1 Note on, E4 key=64 velocity: 0
@28370 Channel: 1 Note on, G3 key=55 velocity: 0
@28370 Channel: 1 Note on, C4 key=60 velocity: 0
@28380 Channel: 1 Note on, E4 key=64 velocity: 80
@28380 Channel: 1 Note on, G3 key=55 velocity: 80
@28380 Channel: 1 Note on, C4 key=60 velocity: 80
@28400 Channel: 1 Note on, C4 key=60 velocity: 0
@28400 Channel: 1 Note on, G3 key=55 velocity: 0
@28400 Channel: 1 Note on, E4 key=64 velocity: 0
@28410 Channel: 1 Note on, C4 key=60 velocity: 81
@28410 Channel: 1 Note on, G3 key=55 velocity: 81
@28410 Channel: 1 Note on, E4 key=64 velocity: 81
@28460 Channel: 1 Note on, E4 key=64 velocity: 0
@28460 Channel: 1 Note on, G3 key=55 velocity: 0
@28460 Channel: 1 Note on, C4 key=60 velocity: 0
@28470 Channel: 1 Note on, G3 key=55 velocity: 81
@28470 Channel: 1 Note on, C4 key=60 velocity: 81
@28470 Channel: 1 Note on, E4 key=64 velocity: 81
@28490 Channel: 1 Note on, E4 key=64 velocity: 0
@28490 Channel: 1 Note on, C4 key=60 velocity: 0
@28490 Channel: 1 Note on, G3 key=55 velocity: 0
@28500 Channel: 1 Note on, G3 key=55 velocity: 81
@28500 Channel: 1 Note on, C4 key=60 velocity: 81
@28500 Channel: 1 Note on, E4 key=64 velocity: 81
@28550 Channel: 1 Note on, E4 key=64 velocity: 0
@28550 Channel: 1 Note on, C4 key=60 velocity: 0
@28550 Channel: 1 Note on, G3 key=55 velocity: 0
@28560 Channel: 1 Note on, F4 key=65 velocity: 81
@28560 Channel: 1 Note on, G3 key=55 velocity: 81
@28560 Channel: 1 Note on, C4 key=60 velocity: 81
@28560 Channel: 1 Command:176
@28560 Channel: 1 Command:176
@28610 Channel: 1 Note on, C4 key=60 velocity: 0
@28610 Channel: 1 Note on, G3 key=55 velocity: 0
@28610 Channel: 1 Note on, F4 key=65 velocity: 0
@28620 Channel: 1 Note on, G3 key=55 velocity: 81
@28620 Channel: 1 Note on, C4 key=60 velocity: 81
@28620 Channel: 1 Note on, F4 key=65 velocity: 81
@28640 Channel: 1 Note on, F4 key=65 velocity: 0
@28640 Channel: 1 Note on, C4 key=60 velocity: 0
@28640 Channel: 1 Note on, G3 key=55 velocity: 0
@28650 Channel: 1 Note on, F4 key=65 velocity: 81
@28650 Channel: 1 Note on, C4 key=60 velocity: 81
@28650 Channel: 1 Note on, G3 key=55 velocity: 81
@28700 Channel: 1 Note on, G3 key=55 velocity: 0
@28700 Channel: 1 Note on, C4 key=60 velocity: 0
@28700 Channel: 1 Note on, F4 key=65 velocity: 0
@28710 Channel: 1 Note on, G3 key=55 velocity: 81
@28710 Channel: 1 Note on, C4 key=60 velocity: 81
@28710 Channel: 1 Note on, F4 key=65 velocity: 81
@28730 Channel: 1 Note on, F4 key=65 velocity: 0
@28730 Channel: 1 Note on, C4 key=60 velocity: 0
@28730 Channel: 1 Note on, G3 key=55 velocity: 0
@28740 Channel: 1 Note on, F4 key=65 velocity: 81
@28740 Channel: 1 Note on, G3 key=55 velocity: 81
@28740 Channel: 1 Note on, C4 key=60 velocity: 81
@28790 Channel: 1 Note on, C4 key=60 velocity: 0
@28790 Channel: 1 Note on, G3 key=55 velocity: 0
@28790 Channel: 1 Note on, F4 key=65 velocity: 0
@30720 Channel: 1 Note on, C4 key=60 velocity: 79
@30720 Channel: 1 Note on, G3 key=55 velocity: 79
@30720 Channel: 1 Note on, E4 key=64 velocity: 79
@30720 Channel: 1 Command:176
@30720 Channel: 1 Command:176
@30770 Channel: 1 Note on, E4 key=64 velocity: 0
@30770 Channel: 1 Note on, G3 key=55 velocity: 0
@30770 Channel: 1 Note on, C4 key=60 velocity: 0
@30780 Channel: 1 Note on, E4 key=64 velocity: 80
@30780 Channel: 1 Note on, G3 key=55 velocity: 80
@30780 Channel: 1 Note on, C4 key=60 velocity: 80
@30800 Channel: 1 Note on, C4 key=60 velocity: 0
@30800 Channel: 1 Note on, G3 key=55 velocity: 0
@30800 Channel: 1 Note on, E4 key=64 velocity: 0
@30810 Channel: 1 Note on, C4 key=60 velocity: 80
@30810 Channel: 1 Note on, G3 key=55 velocity: 80
@30810 Channel: 1 Note on, E4 key=64 velocity: 80
@30860 Channel: 1 Note on, E4 key=64 velocity: 0
@30860 Channel: 1 Note on, G3 key=55 velocity: 0
@30860 Channel: 1 Note on, C4 key=60 velocity: 0
@30870 Channel: 1 Note on, G3 key=55 velocity: 80
@30870 Channel: 1 Note on, C4 key=60 velocity: 80
@30870 Channel: 1 Note on, E4 key=64 velocity: 80
@30890 Channel: 1 Note on, E4 key=64 velocity: 0
@30890 Channel: 1 Note on, C4 key=60 velocity: 0
@30890 Channel: 1 Note on, G3 key=55 velocity: 0
@30900 Channel: 1 Note on, G3 key=55 velocity: 80
@30900 Channel: 1 Note on, C4 key=60 velocity: 80
@30900 Channel: 1 Note on, E4 key=64 velocity: 80
@30950 Channel: 1 Note on, E4 key=64 velocity: 0
@30950 Channel: 1 Note on, C4 key=60 velocity: 0
@30950 Channel: 1 Note on, G3 key=55 velocity: 0
@30960 Channel: 1 Note on, F4 key=65 velocity: 80
@30960 Channel: 1 Note on, G3 key=55 velocity: 80
@30960 Channel: 1 Note on, C4 key=60 velocity: 80
@30960 Channel: 1 Command:176
@30960 Channel: 1 Command:176
@31010 Channel: 1 Note on, C4 key=60 velocity: 0
@31010 Channel: 1 Note on, G3 key=55 velocity: 0
@31010 Channel: 1 Note on, F4 key=65 velocity: 0
@31020 Channel: 1 Note on, G3 key=55 velocity: 80
@31020 Channel: 1 Note on, C4 key=60 velocity: 80
@31020 Channel: 1 Note on, F4 key=65 velocity: 80
@31040 Channel: 1 Note on, F4 key=65 velocity: 0
@31040 Channel: 1 Note on, C4 key=60 velocity: 0
@31040 Channel: 1 Note on, G3 key=55 velocity: 0
@31050 Channel: 1 Note on, F4 key=65 velocity: 80
@31050 Channel: 1 Note on, C4 key=60 velocity: 80
@31050 Channel: 1 Note on, G3 key=55 velocity: 80
@31100 Channel: 1 Note on, G3 key=55 velocity: 0
@31100 Channel: 1 Note on, C4 key=60 velocity: 0
@31100 Channel: 1 Note on, F4 key=65 velocity: 0
@31110 Channel: 1 Note on, G3 key=55 velocity: 80
@31110 Channel: 1 Note on, C4 key=60 velocity: 80
@31110 Channel: 1 Note on, F4 key=65 velocity: 80
@31130 Channel: 1 Note on, F4 key=65 velocity: 0
@31130 Channel: 1 Note on, C4 key=60 velocity: 0
@31130 Channel: 1 Note on, G3 key=55 velocity: 0
@31140 Channel: 1 Note on, F4 key=65 velocity: 80
@31140 Channel: 1 Note on, G3 key=55 velocity: 80
@31140 Channel: 1 Note on, C4 key=60 velocity: 80
@31190 Channel: 1 Note on, C4 key=60 velocity: 0
@31190 Channel: 1 Note on, G3 key=55 velocity: 0
@31190 Channel: 1 Note on, F4 key=65 velocity: 0
@31200 Channel: 1 Note on, C4 key=60 velocity: 80
@31200 Channel: 1 Note on, G3 key=55 velocity: 80
@31200 Channel: 1 Note on, E4 key=64 velocity: 80
@31200 Channel: 1 Command:176
@31200 Channel: 1 Command:176
@31250 Channel: 1 Note on, E4 key=64 velocity: 0
@31250 Channel: 1 Note on, G3 key=55 velocity: 0
@31250 Channel: 1 Note on, C4 key=60 velocity: 0
@31260 Channel: 1 Note on, E4 key=64 velocity: 80
@31260 Channel: 1 Note on, G3 key=55 velocity: 80
@31260 Channel: 1 Note on, C4 key=60 velocity: 80
@31280 Channel: 1 Note on, C4 key=60 velocity: 0
@31280 Channel: 1 Note on, G3 key=55 velocity: 0
@31280 Channel: 1 Note on, E4 key=64 velocity: 0
@31290 Channel: 1 Note on, C4 key=60 velocity: 81
@31290 Channel: 1 Note on, G3 key=55 velocity: 81
@31290 Channel: 1 Note on, E4 key=64 velocity: 81
@31340 Channel: 1 Note on, E4 key=64 velocity: 0
@31340 Channel: 1 Note on, G3 key=55 velocity: 0
@31340 Channel: 1 Note on, C4 key=60 velocity: 0
@31350 Channel: 1 Note on, G3 key=55 velocity: 81
@31350 Channel: 1 Note on, C4 key=60 velocity: 81
@31350 Channel: 1 Note on, E4 key=64 velocity: 81
@31370 Channel: 1 Note on, E4 key=64 velocity: 0
@31370 Channel: 1 Note on, C4 key=60 velocity: 0
@31370 Channel: 1 Note on, G3 key=55 velocity: 0
@31380 Channel: 1 Note on, G3 key=55 velocity: 81
@31380 Channel: 1 Note on, C4 key=60 velocity: 81
@31380 Channel: 1 Note on, E4 key=64 velocity: 81
@31430 Channel: 1 Note on, E4 key=64 velocity: 0
@31430 Channel: 1 Note on, C4 key=60 velocity: 0
@31430 Channel: 1 Note on, G3 key=55 velocity: 0
@31440 Channel: 1 Note on, F4 key=65 velocity: 81
@31440 Channel: 1 Note on, G3 key=55 velocity: 81
@31440 Channel: 1 Note on, C4 key=60 velocity: 81
@31440 Channel: 1 Command:176
@31440 Channel: 1 Command:176
@31490 Channel: 1 Note on, C4 key=60 velocity: 0
@31490 Channel: 1 Note on, G3 key=55 velocity: 0
@31490 Channel: 1 Note on, F4 key=65 velocity: 0
@31500 Channel: 1 Note on, G3 key=55 velocity: 81
@31500 Channel: 1 Note on, C4 key=60 velocity: 81
@31500 Channel: 1 Note on, F4 key=65 velocity: 81
@31520 Channel: 1 Note on, F4 key=65 velocity: 0
@31520 Channel: 1 Note on, C4 key=60 velocity: 0
@31520 Channel: 1 Note on, G3 key=55 velocity: 0
@31530 Channel: 1 Note on, F4 key=65 velocity: 81
@31530 Channel: 1 Note on, C4 key=60 velocity: 81
@31530 Channel: 1 Note on, G3 key=55 velocity: 81
@31580 Channel: 1 Note on, G3 key=55 velocity: 0
@31580 Channel: 1 Note on, C4 key=60 velocity: 0
@31580 Channel: 1 Note on, F4 key=65 velocity: 0
@31590 Channel: 1 Note on, G3 key=55 velocity: 82
@31590 Channel: 1 Note on, C4 key=60 velocity: 82
@31590 Channel: 1 Note on, F4 key=65 velocity: 82
@31610 Channel: 1 Note on, F4 key=65 velocity: 0
@31610 Channel: 1 Note on, C4 key=60 velocity: 0
@31610 Channel: 1 Note on, G3 key=55 velocity: 0
@31620 Channel: 1 Note on, F4 key=65 velocity: 82
@31620 Channel: 1 Note on, G3 key=55 velocity: 82
@31620 Channel: 1 Note on, C4 key=60 velocity: 82
@31670 Channel: 1 Note on, C4 key=60 velocity: 0
@31670 Channel: 1 Note on, G3 key=55 velocity: 0
@31670 Channel: 1 Note on, F4 key=65 velocity: 0
@31680 Channel: 1 Note on, B3 key=59 velocity: 82
@31680 Channel: 1 Note on, D4 key=62 velocity: 82
@31680 Channel: 1 Note on, G3 key=55 velocity: 82
@31680 Channel: 1 Command:176
@31680 Channel: 1 Command:176
@31730 Channel: 1 Note on, G3 key=55 velocity: 0
@31730 Channel: 1 Note on, D4 key=62 velocity: 0
@31730 Channel: 1 Note on, B3 key=59 velocity: 0
@31740 Channel: 1 Note on, G3 key=55 velocity: 82
@31740 Channel: 1 Note on, D4 key=62 velocity: 82
@31740 Channel: 1 Note on, B3 key=59 velocity: 82
@31760 Channel: 1 Note on, B3 key=59 velocity: 0
@31760 Channel: 1 Note on, D4 key=62 velocity: 0
@31760 Channel: 1 Note on, G3 key=55 velocity: 0
@31770 Channel: 1 Note on, D4 key=62 velocity: 83
@31770 Channel: 1 Note on, G3 key=55 velocity: 83
@31770 Channel: 1 Note on, B3 key=59 velocity: 83
@31820 Channel: 1 Note on, B3 key=59 velocity: 0
@31820 Channel: 1 Note on, G3 key=55 velocity: 0
@31820 Channel: 1 Note on, D4 key=62 velocity: 0
@31830 Channel: 1 Note on, D4 key=62 velocity: 83
@31830 Channel: 1 Note on, G3 key=55 velocity: 83
@31830 Channel: 1 Note on, B3 key=59 velocity: 83
@31850 Channel: 1 Note on, B3 key=59 velocity: 0
@31850 Channel: 1 Note on, G3 key=55 velocity: 0
@31850 Channel: 1 Note on, D4 key=62 velocity: 0
@31860 Channel: 1 Note on, D4 key=62 velocity: 83
@31860 Channel: 1 Note on, B3 key=59 velocity: 83
@31860 Channel: 1 Note on, G3 key=55 velocity: 83
@31910 Channel: 1 Note on, G3 key=55 velocity: 0
@31910 Channel: 1 Note on, B3 key=59 velocity: 0
@31910 Channel: 1 Note on, D4 key=62 velocity: 0
@31920 Channel: 1 Note on, D4 key=62 velocity: 83
@31920 Channel: 1 Note on, G3 key=55 velocity: 83
@31920 Channel: 1 Note on, C4 key=60 velocity: 83
@31920 Channel: 1 Command:176
@31920 Channel: 1 Command:176
@31970 Channel: 1 Note on, C4 key=60 velocity: 0
@31970 Channel: 1 Note on, G3 key=55 velocity: 0
@31970 Channel: 1 Note on, D4 key=62 velocity: 0
@31980 Channel: 1 Note on, D4 key=62 velocity: 83
@31980 Channel: 1 Note on, G3 key=55 velocity: 83
@31980 Channel: 1 Note on, C4 key=60 velocity: 83
@32000 Channel: 1 Note on, C4 key=60 velocity: 0
@32000 Channel: 1 Note on, G3 key=55 velocity: 0
@32000 Channel: 1 Note on, D4 key=62 velocity: 0
@32010 Channel: 1 Note on, G3 key=55 velocity: 83
@32010 Channel: 1 Note on, C4 key=60 velocity: 83
@32010 Channel: 1 Note on, D4 key=62 velocity: 83
@32060 Channel: 1 Note on, D4 key=62 velocity: 0
@32060 Channel: 1 Note on, C4 key=60 velocity: 0
@32060 Channel: 1 Note on, G3 key=55 velocity: 0
@32070 Channel: 1 Note on, D4 key=62 velocity: 83
@32070 Channel: 1 Note on, G3 key=55 velocity: 83
@32070 Channel: 1 Note on, C4 key=60 velocity: 83
@32090 Channel: 1 Note on, C4 key=60 velocity: 0
@32090 Channel: 1 Note on, G3 key=55 velocity: 0
@32090 Channel: 1 Note on, D4 key=62 velocity: 0
@32100 Channel: 1 Note on, C4 key=60 velocity: 83
@32100 Channel: 1 Note on, D4 key=62 velocity: 83
@32100 Channel: 1 Note on, G3 key=55 velocity: 83
@32150 Channel: 1 Note on, G3 key=55 velocity: 0
@32150 Channel: 1 Note on, D4 key=62 velocity: 0
@32150 Channel: 1 Note on, C4 key=60 velocity: 0
@32160 Channel: 1 Note on, B3 key=59 velocity: 82
@32160 Channel: 1 Note on, D4 key=62 velocity: 82
@32160 Channel: 1 Note on, G3 key=55 velocity: 82
@32160 Channel: 1 Command:176
@32160 Channel: 1 Command:176
@32210 Channel: 1 Note on, G3 key=55 velocity: 0
@32210 Channel: 1 Note on, D4 key=62 velocity: 0
@32210 Channel: 1 Note on, B3 key=59 velocity: 0
@32220 Channel: 1 Note on, D4 key=62 velocity: 82
@32220 Channel: 1 Note on, G3 key=55 velocity: 82
@32220 Channel: 1 Note on, B3 key=59 velocity: 82
@32240 Channel: 1 Note on, B3 key=59 velocity: 0
@32240 Channel: 1 Note on, G3 key=55 velocity: 0
@32240 Channel: 1 Note on, D4 key=62 velocity: 0
@32250 Channel: 1 Note on, D4 key=62 velocity: 82
@32250 Channel: 1 Note on, G3 key=55 velocity: 82
@32250 Channel: 1 Note on, B3 key=59 velocity: 82
@32300 Channel: 1 Note on, B3 key=59 velocity: 0
@32300 Channel: 1 Note on, G3 key=55 velocity: 0
@32300 Channel: 1 Note on, D4 key=62 velocity: 0
@32310 Channel: 1 Note on, G3 key=55 velocity: 81
@32310 Channel: 1 Note on, D4 key=62 velocity: 81
@32310 Channel: 1 Note on, B3 key=59 velocity: 81
@32330 Channel: 1 Note on, B3 key=59 velocity: 0
@32330 Channel: 1 Note on, D4 key=62 velocity: 0
@32330 Channel: 1 Note on, G3 key=55 velocity: 0
@32340 Channel: 1 Note on, B3 key=59 velocity: 81
@32340 Channel: 1 Note on, D4 key=62 velocity: 81
@32340 Channel: 1 Note on, G3 key=55 velocity: 81
@32390 Channel: 1 Note on, G3 key=55 velocity: 0
@32390 Channel: 1 Note on, D4 key=62 velocity: 0
@32390 Channel: 1 Note on, B3 key=59 velocity: 0
@32400 Channel: 1 Note on, C4 key=60 velocity: 81
@32400 Channel: 1 Note on, G3 key=55 velocity: 81
@32400 Channel: 1 Note on, D4 key=62 velocity: 81
@32400 Channel: 1 Command:176
@32400 Channel: 1 Command:176
@32450 Channel: 1 Note on, D4 key=62 velocity: 0
@32450 Channel: 1 Note on, G3 key=55 velocity: 0
@32450 Channel: 1 Note on, C4 key=60 velocity: 0
@32460 Channel: 1 Note on, C4 key=60 velocity: 81
@32460 Channel: 1 Note on, D4 key=62 velocity: 81
@32460 Channel: 1 Note on, G3 key=55 velocity: 81
@32480 Channel: 1 Note on, G3 key=55 velocity: 0
@32480 Channel: 1 Note on, D4 key=62 velocity: 0
@32480 Channel: 1 Note on, C4 key=60 velocity: 0
@32490 Channel: 1 Note on, G3 key=55 velocity: 81
@32490 Channel: 1 Note on, D4 key=62 velocity: 81
@32490 Channel: 1 Note on, C4 key=60 velocity: 81
@32540 Channel: 1 Note on, C4 key=60 velocity: 0
@32540 Channel: 1 Note on, D4 key=62 velocity: 0
@32540 Channel: 1 Note on, G3 key=55 velocity: 0
@32550 Channel: 1 Note on, G3 key=55 velocity: 80
@32550 Channel: 1 Note on, D4 key=62 velocity: 80
@32550 Channel: 1 Note on, C4 key=60 velocity: 80
@32570 Channel: 1 Note on, C4 key=60 velocity: 0
@32570 Channel: 1 Note on, D4 key=62 velocity: 0
@32570 Channel: 1 Note on, G3 key=55 velocity: 0
@32580 Channel: 1 Note on, D4 key=62 velocity: 80
@32580 Channel: 1 Note on, C4 key=60 velocity: 80
@32580 Channel: 1 Note on, G3 key=55 velocity: 80
@32630 Channel: 1 Note on, G3 key=55 velocity: 0
@32630 Channel: 1 Note on, C4 key=60 velocity: 0
@32630 Channel: 1 Note on, D4 key=62 velocity: 0
@32640 Channel: 1 Note on, C4 key=60 velocity: 80
@32640 Channel: 1 Note on, A3 key=57 velocity: 80
@32640 Channel: 1 Note on, F4 key=65 velocity: 80
@32640 Channel: 1 Command:176
@32640 Channel: 1 Command:176
@32690 Channel: 1 Note on, F4 key=65 velocity: 0
@32690 Channel: 1 Note on, A3 key=57 velocity: 0
@32690 Channel: 1 Note on, C4 key=60 velocity: 0
@32700 Channel: 1 Note on, C4 key=60 velocity: 80
@32700 Channel: 1 Note on, F4 key=65 velocity: 80
@32700 Channel: 1 Note on, A3 key=57 velocity: 80
@32720 Channel: 1 Note on, A3 key=57 velocity: 0
@32720 Channel: 1 Note on, F4 key=65 velocity: 0
@32720 Channel: 1 Note on, C4 key=60 velocity: 0
@32730 Channel: 1 Note on, F4 key=65 velocity: 80
@32730 Channel: 1 Note on, A3 key=57 velocity: 80
@32730 Channel: 1 Note on, C4 key=60 velocity: 80
@32780 Channel: 1 Note on, C4 key=60 velocity: 0
@32780 Channel: 1 Note on, A3 key=57 velocity: 0
@32780 Channel: 1 Note on, F4 key=65 velocity: 0
@32790 Channel: 1 Note on, F4 key=65 velocity: 80
@32790 Channel: 1 Note on, C4 key=60 velocity: 80
@32790 Channel: 1 Note on, A3 key=57 velocity: 80
@32810 Channel: 1 Note on, A3 key=57 velocity: 0
@32810 Channel: 1 Note on, C4 key=60 velocity: 0
@32810 Channel: 1 Note on, F4 key=65 velocity: 0
@32820 Channel: 1 Note on, C4 key=60 velocity: 80
@32820 Channel: 1 Note on, A3 key=57 velocity: 80
@32820 Channel: 1 Note on, F4 key=65 velocity: 80
@32870 Channel: 1 Note on, F4 key=65 velocity: 0
@32870 Channel: 1 Note on, A3 key=57 velocity: 0
@32870 Channel: 1 Note on, C4 key=60 velocity: 0
@32880 Channel: 1 Note on, G3 key=55 velocity: 80
@32880 Channel: 1 Note on, C4 key=60 velocity: 80
@32880 Channel: 1 Note on, F4 key=65 velocity: 80
@32880 Channel: 1 Command:176
@32880 Channel: 1 Command:176
@32930 Channel: 1 Note on, F4 key=65 velocity: 0
@32930 Channel: 1 Note on, C4 key=60 velocity: 0
@32930 Channel: 1 Note on, G3 key=55 velocity: 0
@32940 Channel: 1 Note on, G3 key=55 velocity: 80
@32940 Channel: 1 Note on, C4 key=60 velocity: 80
@32940 Channel: 1 Note on, F4 key=65 velocity: 80
@32960 Channel: 1 Note on, F4 key=65 velocity: 0
@32960 Channel: 1 Note on, C4 key=60 velocity: 0
@32960 Channel: 1 Note on, G3 key=55 velocity: 0
@32970 Channel: 1 Note on, G3 key=55 velocity: 80
@32970 Channel: 1 Note on, C4 key=60 velocity: 80
@32970 Channel: 1 Note on, F4 key=65 velocity: 80
@33020 Channel: 1 Note on, F4 key=65 velocity: 0
@33020 Channel: 1 Note on, C4 key=60 velocity: 0
@33020 Channel: 1 Note on, G3 key=55 velocity: 0
@33030 Channel: 1 Note on, G3 key=55 velocity: 80
@33030 Channel: 1 Note on, F4 key=65 velocity: 80
@33030 Channel: 1 Note on, C4 key=60 velocity: 80
@33050 Channel: 1 Note on, C4 key=60 velocity: 0
@33050 Channel: 1 Note on, F4 key=65 velocity: 0
@33050 Channel: 1 Note on, G3 key=55 velocity: 0
@33060 Channel: 1 Note on, G3 key=55 velocity: 80
@33060 Channel: 1 Note on, C4 key=60 velocity: 80
@33060 Channel: 1 Note on, F4 key=65 velocity: 80
@33110 Channel: 1 Note on, F4 key=65 velocity: 0
@33110 Channel: 1 Note on, C4 key=60 velocity: 0
@33110 Channel: 1 Note on, G3 key=55 velocity: 0
@33120 Channel: 1 Note on, A3 key=57 velocity: 80
@33120 Channel: 1 Note on, C4 key=60 velocity: 80
@33120 Channel: 1 Note on, E4 key=64 velocity: 80
@33120 Channel: 1 Command:176
@33120 Channel: 1 Command:176
@33153 Channel: 1 Note on, E4 key=64 velocity: 0
@33160 Channel: 1 Note on, C4 key=60 velocity: 0
@33160 Channel: 1 Note on, A3 key=57 velocity: 0
@33180 Channel: 1 Note on, C4 key=60 velocity: 80
@33180 Channel: 1 Note on, A3 key=57 velocity: 80
@33180 Channel: 1 Note on, E4 key=64 velocity: 80
@33196 Channel: 1 Note on, E4 key=64 velocity: 0
@33196 Channel: 1 Note on, C4 key=60 velocity: 0
@33198 Channel: 1 Note on, A3 key=57 velocity: 0
@33210 Channel: 1 Note on, C4 key=60 velocity: 80
@33210 Channel: 1 Note on, A3 key=57 velocity: 80
@33210 Channel: 1 Note on, E4 key=64 velocity: 80
@33245 Channel: 1 Note on, E4 key=64 velocity: 0
@33250 Channel: 1 Note on, A3 key=57 velocity: 0
@33250 Channel: 1 Note on, C4 key=60 velocity: 0
@33270 Channel: 1 Note on, C4 key=60 velocity: 80
@33270 Channel: 1 Note on, A3 key=57 velocity: 80
@33270 Channel: 1 Note on, E4 key=64 velocity: 80
@33283 Channel: 1 Note on, E4 key=64 velocity: 0
@33283 Channel: 1 Note on, C4 key=60 velocity: 0
@33289 Channel: 1 Note on, A3 key=57 velocity: 0
@33300 Channel: 1 Note on, A3 key=57 velocity: 80
@33300 Channel: 1 Note on, C4 key=60 velocity: 80
@33300 Channel: 1 Note on, E4 key=64 velocity: 80
@33335 Channel: 1 Note on, C4 key=60 velocity: 0
@33336 Channel: 1 Note on, E4 key=64 velocity: 0
@33338 Channel: 1 Note on, A3 key=57 velocity: 0
@33360 Channel: 1 Note on, A3 key=57 velocity: 80
@33360 Channel: 1 Note on, E4 key=64 velocity: 80
@33360 Channel: 1 Note on, B3 key=59 velocity: 80
@33360 Channel: 1 Command:176
@33360 Channel: 1 Command:176
@33398 Channel: 1 Note on, E4 key=64 velocity: 0
@33402 Channel: 1 Note on, B3 key=59 velocity: 0
@33402 Channel: 1 Note on, A3 key=57 velocity: 0
@33420 Channel: 1 Note on, B3 key=59 velocity: 80
@33420 Channel: 1 Note on, A3 key=57 velocity: 80
@33420 Channel: 1 Note on, E4 key=64 velocity: 80
@33431 Channel: 1 Note on, E4 key=64 velocity: 0
@33437 Channel: 1 Note on, A3 key=57 velocity: 0
@33437 Channel: 1 Note on, B3 key=59 velocity: 0
@33450 Channel: 1 Note on, B3 key=59 velocity: 80
@33450 Channel: 1 Note on, A3 key=57 velocity: 80
@33450 Channel: 1 Note on, E4 key=64 velocity: 80
@33479 Channel: 1 Note on, E4 key=64 velocity: 0
@33485 Channel: 1 Note on, A3 key=57 velocity: 0
@33485 Channel: 1 Note on, B3 key=59 velocity: 0
@33510 Channel: 1 Note on, B3 key=59 velocity: 81
@33510 Channel: 1 Note on, A3 key=57 velocity: 81
@33525 Channel: 1 Note on, B3 key=59 velocity: 0
@33527 Channel: 1 Note on, A3 key=57 velocity: 0
@33540 Channel: 1 Note on, A3 key=57 velocity: 81
@33540 Channel: 1 Note on, E4 key=64 velocity: 81
@33540 Channel: 1 Note on, C4 key=60 velocity: 81
@33575 Channel: 1 Note on, C4 key=60 velocity: 0
@33575 Channel: 1 Note on, E4 key=64 velocity: 0
@33579 Channel: 1 Note on, A3 key=57 velocity: 0
@33600 Channel: 1 Note on, C4 key=60 velocity: 81
@33600 Channel: 1 Note on, D4 key=62 velocity: 81
@33600 Channel: 1 Note on, G3 key=55 velocity: 81
@33600 Channel: 1 Command:176
@33600 Channel: 1 Command:176
@33633 Channel: 1 Note on, D4 key=62 velocity: 0
@33636 Channel: 1 Note on, G3 key=55 velocity: 0
@33640 Channel: 1 Note on, C4 key=60 velocity: 0
@33660 Channel: 1 Note on, C4 key=60 velocity: 82
@33660 Channel: 1 Note on, G3 key=55 velocity: 82
@33660 Channel: 1 Note on, D4 key=62 velocity: 82
@33673 Channel: 1 Note on, D4 key=62 velocity: 0
@33675 Channel: 1 Note on, C4 key=60 velocity: 0
@33677 Channel: 1 Note on, G3 key=55 velocity: 0
@33690 Channel: 1 Note on, G3 key=55 velocity: 82
@33690 Channel: 1 Note on, C4 key=60 velocity: 82
@33690 Channel: 1 Note on, D4 key=62 velocity: 82
@33723 Channel: 1 Note on, D4 key=62 velocity: 0
@33723 Channel: 1 Note on, C4 key=60 velocity: 0
@33725 Channel: 1 Note on, G3 key=55 velocity: 0
@33750 Channel: 1 Note on, C4 key=60 velocity: 82
@33750 Channel: 1 Note on, G3 key=55 velocity: 82
@33750 Channel: 1 Note on, D4 key=62 velocity: 82
@33765 Channel: 1 Note on, C4 key=60 velocity: 0
@33769 Channel: 1 Note on, G3 key=55 velocity: 0
@33772 Channel: 1 Note on, D4 key=62 velocity: 0
@33780 Channel: 1 Note on, C4 key=60 velocity: 82
@33780 Channel: 1 Note on, D4 key=62 velocity: 82
@33780 Channel: 1 Note on, G3 key=55 velocity: 82
@33813 Channel: 1 Note on, C4 key=60 velocity: 0
@33816 Channel: 1 Note on, G3 key=55 velocity: 0
@33818 Channel: 1 Note on, D4 key=62 velocity: 0
@33840 Channel: 1 Note on, D4 key=62 velocity: 81
@33840 Channel: 1 Note on, B3 key=59 velocity: 81
@33840 Channel: 1 Note on, G3 key=55 velocity: 81
@33840 Channel: 1 Command:176
@33840 Channel: 1 Command:176
@33873 Channel: 1 Note on, B3 key=59 velocity: 0
@33877 Channel: 1 Note on, D4 key=62 velocity: 0
@33878 Channel: 1 Note on, G3 key=55 velocity: 0
@33900 Channel: 1 Note on, D4 key=62 velocity: 81
@33900 Channel: 1 Note on, B3 key=59 velocity: 81
@33900 Channel: 1 Note on, G3 key=55 velocity: 81
@33915 Channel: 1 Note on, B3 key=59 velocity: 0
@33917 Channel: 1 Note on, G3 key=55 velocity: 0
@33917 Channel: 1 Note on, D4 key=62 velocity: 0
@33930 Channel: 1 Note on, D4 key=62 velocity: 81
@33930 Channel: 1 Note on, G3 key=55 velocity: 81
@33930 Channel: 1 Note on, B3 key=59 velocity: 81
@33961 Channel: 1 Note on, B3 key=59 velocity: 0
@33963 Channel: 1 Note on, D4 key=62 velocity: 0
@33967 Channel: 1 Note on, G3 key=55 velocity: 0
@33990 Channel: 1 Note on, B3 key=59 velocity: 80
@33990 Channel: 1 Note on, D4 key=62 velocity: 80
@33990 Channel: 1 Note on, G3 key=55 velocity: 80
@34003 Channel: 1 Note on, G3 key=55 velocity: 0
@34003 Channel: 1 Note on, D4 key=62 velocity: 0
@34005 Channel: 1 Note on, B3 key=59 velocity: 0
@34020 Channel: 1 Note on, B3 key=59 velocity: 80
@34020 Channel: 1 Note on, D4 key=62 velocity: 80
@34020 Channel: 1 Note on, G3 key=55 velocity: 80
@34020 Channel: 1 Command:176
@34020 Channel: 1 Command:176
@34048 Channel: 1 Note on, G3 key=55 velocity: 0
@34048 Channel: 1 Note on, D4 key=62 velocity: 0
@34048 Channel: 1 Note on, B3 key=59 velocity: 0
@34080 Channel: 1 Note on, G3 key=55 velocity: 80
@34080 Channel: 1 Note on, B3 key=59 velocity: 80
@34080 Channel: 1 Note on, F4 key=65 velocity: 80
@34080 Channel: 1 Command:176
@34080 Channel: 1 Command:176
@34113 Channel: 1 Note on, F4 key=65 velocity: 0
@34115 Channel: 1 Note on, B3 key=59 velocity: 0
@34117 Channel: 1 Note on, G3 key=55 velocity: 0
@34140 Channel: 1 Note on, B3 key=59 velocity: 80
@34140 Channel: 1 Note on, F4 key=65 velocity: 80
@34140 Channel: 1 Note on, G3 key=55 velocity: 80
@34156 Channel: 1 Note on, B3 key=59 velocity: 0
@34158 Channel: 1 Note on, G3 key=55 velocity: 0
@34160 Channel: 1 Note on, F4 key=65 velocity: 0
@34170 Channel: 1 Note on, F4 key=65 velocity: 80
@34170 Channel: 1 Note on, G3 key=55 velocity: 80
@34170 Channel: 1 Note on, B3 key=59 velocity: 80
@34199 Channel: 1 Note on, B3 key=59 velocity: 0
@34203 Channel: 1 Note on, G3 key=55 velocity: 0
@34205 Channel: 1 Note on, F4 key=65 velocity: 0
@34230 Channel: 1 Note on, F4 key=65 velocity: 80
@34230 Channel: 1 Note on, G3 key=55 velocity: 80
@34230 Channel: 1 Note on, B3 key=59 velocity: 80
@34245 Channel: 1 Note on, B3 key=59 velocity: 0
@34249 Channel: 1 Note on, G3 key=55 velocity: 0
@34260 Channel: 1 Note on, G3 key=55 velocity: 80
@34260 Channel: 1 Note on, B3 key=59 velocity: 80
@34293 Channel: 1 Note on, B3 key=59 velocity: 0
@34296 Channel: 1 Note on, F4 key=65 velocity: 0
@34298 Channel: 1 Note on, G3 key=55 velocity: 0
@34320 Channel: 1 Note on, D4 key=62 velocity: 80
@34320 Channel: 1 Note on, G3 key=55 velocity: 80
@34320 Channel: 1 Note on, B3 key=59 velocity: 80
@34320 Channel: 1 Command:176
@34320 Channel: 1 Command:176
@34355 Channel: 1 Note on, B3 key=59 velocity: 0
@34357 Channel: 1 Note on, G3 key=55 velocity: 0
@34357 Channel: 1 Note on, D4 key=62 velocity: 0
@34380 Channel: 1 Note on, G3 key=55 velocity: 80
@34380 Channel: 1 Note on, B3 key=59 velocity: 80
@34380 Channel: 1 Note on, D4 key=62 velocity: 80
@34396 Channel: 1 Note on, D4 key=62 velocity: 0
@34396 Channel: 1 Note on, B3 key=59 velocity: 0
@34400 Channel: 1 Note on, G3 key=55 velocity: 0
@34410 Channel: 1 Note on, G3 key=55 velocity: 80
@34410 Channel: 1 Note on, B3 key=59 velocity: 80
@34410 Channel: 1 Note on, D4 key=62 velocity: 80
@34437 Channel: 1 Note on, D4 key=62 velocity: 0
@34445 Channel: 1 Note on, B3 key=59 velocity: 0
@34447 Channel: 1 Note on, G3 key=55 velocity: 0
@34470 Channel: 1 Note on, G3 key=55 velocity: 81
@34470 Channel: 1 Note on, B3 key=59 velocity: 81
@34470 Channel: 1 Note on, D4 key=62 velocity: 81
@34483 Channel: 1 Note on, D4 key=62 velocity: 0
@34485 Channel: 1 Note on, B3 key=59 velocity: 0
@34489 Channel: 1 Note on, G3 key=55 velocity: 0
@34500 Channel: 1 Note on, G3 key=55 velocity: 81
@34500 Channel: 1 Note on, B3 key=59 velocity: 81
@34500 Channel: 1 Note on, D4 key=62 velocity: 81
@34500 Channel: 1 Command:176
@34500 Channel: 1 Command:176
@34535 Channel: 1 Note on, D4 key=62 velocity: 0
@34538 Channel: 1 Note on, B3 key=59 velocity: 0
@34540 Channel: 1 Note on, G3 key=55 velocity: 0
@34560 Channel: 1 Note on, C4 key=60 velocity: 81
@34560 Channel: 1 Note on, E4 key=64 velocity: 81
@34560 Channel: 1 Note on, G3 key=55 velocity: 81
@34560 Channel: 1 Note on, E4 key=64 velocity: 81
@34560 Channel: 1 Note on, C4 key=60 velocity: 81
@34560 Channel: 1 Note on, G3 key=55 velocity: 81
@34560 Channel: 1 Command:176
@34560 Channel: 1 Command:176
@34597 Channel: 1 Note on, E4 key=64 velocity: 0
@34599 Channel: 1 Note on, C4 key=60 velocity: 0
@34599 Channel: 1 Note on, G3 key=55 velocity: 0
@34606 Channel: 1 Note on, C4 key=60 velocity: 0
@34606 Channel: 1 Note on, E4 key=64 velocity: 0
@34608 Channel: 1 Note on, G3 key=55 velocity: 0
@34620 Channel: 1 Note on, G3 key=55 velocity: 81
@34620 Channel: 1 Note on, E4 key=64 velocity: 81
@34620 Channel: 1 Note on, C4 key=60 velocity: 81
@34633 Channel: 1 Note on, C4 key=60 velocity: 0
@34635 Channel: 1 Note on, E4 key=64 velocity: 0
@34639 Channel: 1 Note on, G3 key=55 velocity: 0
@34650 Channel: 1 Note on, G3 key=55 velocity: 81
@34650 Channel: 1 Note on, E4 key=64 velocity: 81
@34650 Channel: 1 Note on, C4 key=60 velocity: 81
@34686 Channel: 1 Note on, C4 key=60 velocity: 0
@34692 Channel: 1 Note on, E4 key=64 velocity: 0
@34692 Channel: 1 Note on, G3 key=55 velocity: 0
@34710 Channel: 1 Note on, C4 key=60 velocity: 81
@34710 Channel: 1 Note on, E4 key=64 velocity: 81
@34710 Channel: 1 Note on, G3 key=55 velocity: 81
@34725 Channel: 1 Note on, G3 key=55 velocity: 0
@34725 Channel: 1 Note on, E4 key=64 velocity: 0
@34725 Channel: 1 Note on, C4 key=60 velocity: 0
@34740 Channel: 1 Note on, E4 key=64 velocity: 81
@34740 Channel: 1 Note on, C4 key=60 velocity: 81
@34740 Channel: 1 Note on, G3 key=55 velocity: 81
@34782 Channel: 1 Note on, G3 key=55 velocity: 0
@34782 Channel: 1 Note on, E4 key=64 velocity: 0
@34784 Channel: 1 Note on, C4 key=60 velocity: 0
@34800 Channel: 1 Note on, F4 key=65 velocity: 81
@34800 Channel: 1 Note on, C4 key=60 velocity: 81
@34800 Channel: 1 Note on, G3 key=55 velocity: 81
@34800 Channel: 1 Command:176
@34800 Channel: 1 Command:176
@34842 Channel: 1 Note on, G3 key=55 velocity: 0
@34842 Channel: 1 Note on, C4 key=60 velocity: 0
@34844 Channel: 1 Note on, F4 key=65 velocity: 0
@34860 Channel: 1 Note on, F4 key=65 velocity: 81
@34860 Channel: 1 Note on, C4 key=60 velocity: 81
@34860 Channel: 1 Note on, G3 key=55 velocity: 81
@34875 Channel: 1 Note on, G3 key=55 velocity: 0
@34875 Channel: 1 Note on, C4 key=60 velocity: 0
@34880 Channel: 1 Note on, F4 key=65 velocity: 0
@34890 Channel: 1 Note on, F4 key=65 velocity: 81
@34890 Channel: 1 Note on, C4 key=60 velocity: 81
@34890 Channel: 1 Note on, G3 key=55 velocity: 81
@34932 Channel: 1 Note on, C4 key=60 velocity: 0
@34932 Channel: 1 Note on, F4 key=65 velocity: 0
@34934 Channel: 1 Note on, G3 key=55 velocity: 0
@34950 Channel: 1 Note on, G3 key=55 velocity: 81
@34950 Channel: 1 Note on, C4 key=60 velocity: 81
@34950 Channel: 1 Note on, F4 key=65 velocity: 81
@34967 Channel: 1 Note on, F4 key=65 velocity: 0
@34967 Channel: 1 Note on, C4 key=60 velocity: 0
@34967 Channel: 1 Note on, G3 key=55 velocity: 0
@34980 Channel: 1 Note on, F4 key=65 velocity: 81
@34980 Channel: 1 Note on, G3 key=55 velocity: 81
@34980 Channel: 1 Note on, C4 key=60 velocity: 81
@35027 Channel: 1 Note on, C4 key=60 velocity: 0
@35027 Channel: 1 Note on, G3 key=55 velocity: 0
@35029 Channel: 1 Note on, F4 key=65 velocity: 0
@35040 Channel: 1 Note on, C4 key=60 velocity: 81
@35040 Channel: 1 Note on, E4 key=64 velocity: 81
@35040 Channel: 1 Note on, G3 key=55 velocity: 81
@35040 Channel: 1 Command:176
@35040 Channel: 1 Command:176
@35075 Channel: 1 Note on, G3 key=55 velocity: 0
@35075 Channel: 1 Note on, E4 key=64 velocity: 0
@35075 Channel: 1 Note on, C4 key=60 velocity: 0
@35100 Channel: 1 Note on, C4 key=60 velocity: 80
@35100 Channel: 1 Note on, E4 key=64 velocity: 80
@35100 Channel: 1 Note on, G3 key=55 velocity: 80
@35118 Channel: 1 Note on, E4 key=64 velocity: 0
@35118 Channel: 1 Note on, C4 key=60 velocity: 0
@35120 Channel: 1 Note on, G3 key=55 velocity: 0
@35130 Channel: 1 Note on, E4 key=64 velocity: 80
@35130 Channel: 1 Note on, G3 key=55 velocity: 80
@35130 Channel: 1 Note on, C4 key=60 velocity: 80
@35165 Channel: 1 Note on, C4 key=60 velocity: 0
@35168 Channel: 1 Note on, E4 key=64 velocity: 0
@35170 Channel: 1 Note on, G3 key=55 velocity: 0
@35190 Channel: 1 Note on, G3 key=55 velocity: 80
@35190 Channel: 1 Note on, E4 key=64 velocity: 80
@35190 Channel: 1 Note on, C4 key=60 velocity: 80
@35208 Channel: 1 Note on, C4 key=60 velocity: 0
@35208 Channel: 1 Note on, E4 key=64 velocity: 0
@35208 Channel: 1 Note on, G3 key=55 velocity: 0
@35220 Channel: 1 Note on, E4 key=64 velocity: 80
@35220 Channel: 1 Note on, G3 key=55 velocity: 80
@35220 Channel: 1 Note on, C4 key=60 velocity: 80
@35258 Channel: 1 Note on, G3 key=55 velocity: 0
@35260 Channel: 1 Note on, C4 key=60 velocity: 0
@35260 Channel: 1 Note on, E4 key=64 velocity: 0
@35280 Channel: 1 Note on, C4 key=60 velocity: 80
@35280 Channel: 1 Note on, G3 key=55 velocity: 80
@35280 Channel: 1 Note on, F4 key=65 velocity: 80
@35280 Channel: 1 Command:176
@35280 Channel: 1 Command:176
@35317 Channel: 1 Note on, F4 key=65 velocity: 0
@35317 Channel: 1 Note on, G3 key=55 velocity: 0
@35319 Channel: 1 Note on, C4 key=60 velocity: 0
@35340 Channel: 1 Note on, C4 key=60 velocity: 82
@35340 Channel: 1 Note on, F4 key=65 velocity: 82
@35340 Channel: 1 Note on, G3 key=55 velocity: 82
@35358 Channel: 1 Note on, G3 key=55 velocity: 0
@35358 Channel: 1 Note on, C4 key=60 velocity: 0
@35360 Channel: 1 Note on, F4 key=65 velocity: 0
@35370 Channel: 1 Note on, F4 key=65 velocity: 80
@35370 Channel: 1 Note on, C4 key=60 velocity: 80
@35370 Channel: 1 Note on, G3 key=55 velocity: 80
@35405 Channel: 1 Note on, C4 key=60 velocity: 0
@35405 Channel: 1 Note on, F4 key=65 velocity: 0
@35407 Channel: 1 Note on, G3 key=55 velocity: 0
@35430 Channel: 1 Note on, F4 key=65 velocity: 80
@35430 Channel: 1 Note on, C4 key=60 velocity: 80
@35430 Channel: 1 Note on, G3 key=55 velocity: 80
@35446 Channel: 1 Note on, G3 key=55 velocity: 0
@35446 Channel: 1 Note on, C4 key=60 velocity: 0
@35450 Channel: 1 Note on, F4 key=65 velocity: 0
@35460 Channel: 1 Note on, F4 key=65 velocity: 79
@35460 Channel: 1 Note on, G3 key=55 velocity: 79
@35460 Channel: 1 Note on, C4 key=60 velocity: 79
@35495 Channel: 1 Note on, F4 key=65 velocity: 0
@35499 Channel: 1 Note on, C4 key=60 velocity: 0
@35499 Channel: 1 Note on, G3 key=55 velocity: 0
@35520 Channel: 1 Note on, C4 key=60 velocity: 79
@35520 Channel: 1 Note on, E4 key=64 velocity: 79
@35520 Channel: 1 Note on, A3 key=57 velocity: 79
@35520 Channel: 1 Command:176
@35520 Channel: 1 Command:176
@35560 Channel: 1 Note on, A3 key=57 velocity: 0
@35560 Channel: 1 Note on, E4 key=64 velocity: 0
@35564 Channel: 1 Note on, C4 key=60 velocity: 0
@35580 Channel: 1 Note on, A3 key=57 velocity: 79
@35580 Channel: 1 Note on, C4 key=60 velocity: 79
@35580 Channel: 1 Note on, E4 key=64 velocity: 79
@35597 Channel: 1 Note on, C4 key=60 velocity: 0
@35600 Channel: 1 Note on, E4 key=64 velocity: 0
@35604 Channel: 1 Note on, A3 key=57 velocity: 0
@35610 Channel: 1 Note on, A3 key=57 velocity: 79
@35610 Channel: 1 Note on, E4 key=64 velocity: 79
@35610 Channel: 1 Note on, C4 key=60 velocity: 79
@35645 Channel: 1 Note on, C4 key=60 velocity: 0
@35647 Channel: 1 Note on, E4 key=64 velocity: 0
@35650 Channel: 1 Note on, A3 key=57 velocity: 0
@35670 Channel: 1 Note on, C4 key=60 velocity: 78
@35670 Channel: 1 Note on, A3 key=57 velocity: 78
@35670 Channel: 1 Note on, E4 key=64 velocity: 78
@35684 Channel: 1 Note on, A3 key=57 velocity: 0
@35684 Channel: 1 Note on, C4 key=60 velocity: 0
@35686 Channel: 1 Note on, E4 key=64 velocity: 0
@35700 Channel: 1 Note on, A3 key=57 velocity: 78
@35700 Channel: 1 Note on, C4 key=60 velocity: 78
@35700 Channel: 1 Note on, E4 key=64 velocity: 78
@35738 Channel: 1 Note on, E4 key=64 velocity: 0
@35738 Channel: 1 Note on, C4 key=60 velocity: 0
@35738 Channel: 1 Note on, A3 key=57 velocity: 0
@35760 Channel: 1 Note on, A3 key=57 velocity: 79
@35760 Channel: 1 Note on, C4 key=60 velocity: 79
@35760 Channel: 1 Note on, E4 key=64 velocity: 79
@35760 Channel: 1 Command:176
@35760 Channel: 1 Command:176
@35797 Channel: 1 Note on, E4 key=64 velocity: 0
@35797 Channel: 1 Note on, C4 key=60 velocity: 0
@35799 Channel: 1 Note on, A3 key=57 velocity: 0
@35820 Channel: 1 Note on, A3 key=57 velocity: 79
@35820 Channel: 1 Note on, E4 key=64 velocity: 79
@35820 Channel: 1 Note on, C4 key=60 velocity: 79
@35833 Channel: 1 Note on, C4 key=60 velocity: 0
@35838 Channel: 1 Note on, E4 key=64 velocity: 0
@35838 Channel: 1 Note on, A3 key=57 velocity: 0
@35850 Channel: 1 Note on, A3 key=57 velocity: 79
@35850 Channel: 1 Note on, C4 key=60 velocity: 79
@35850 Channel: 1 Note on, E4 key=64 velocity: 79
@35883 Channel: 1 Note on, E4 key=64 velocity: 0
@35883 Channel: 1 Note on, C4 key=60 velocity: 0
@35887 Channel: 1 Note on, A3 key=57 velocity: 0
@35910 Channel: 1 Note on, A3 key=57 velocity: 80
@35910 Channel: 1 Note on, C4 key=60 velocity: 80
@35910 Channel: 1 Note on, E4 key=64 velocity: 80
@35925 Channel: 1 Note on, E4 key=64 velocity: 0
@35925 Channel: 1 Note on, C4 key=60 velocity: 0
@35925 Channel: 1 Note on, A3 key=57 velocity: 0
@35940 Channel: 1 Note on, A3 key=57 velocity: 80
@35940 Channel: 1 Note on, E4 key=64 velocity: 80
@35940 Channel: 1 Note on, C4 key=60 velocity: 80
@35966 Channel: 1 Note on, C4 key=60 velocity: 0
@35966 Channel: 1 Note on, E4 key=64 velocity: 0
@35971 Channel: 1 Note on, A3 key=57 velocity: 0
@36000 Channel: 1 Note on, A3 key=57 velocity: 80
@36000 Channel: 1 Note on, E4 key=64 velocity: 80
@36000 Channel: 1 Note on, C4 key=60 velocity: 80
@36000 Channel: 1 Command:176
@36000 Channel: 1 Command:176
@36033 Channel: 1 Note on, C4 key=60 velocity: 0
@36038 Channel: 1 Note on, E4 key=64 velocity: 0
@36038 Channel: 1 Note on, A3 key=57 velocity: 0
@36060 Channel: 1 Note on, A3 key=57 velocity: 80
@36060 Channel: 1 Note on, C4 key=60 velocity: 80
@36060 Channel: 1 Note on, E4 key=64 velocity: 80
@36076 Channel: 1 Note on, C4 key=60 velocity: 0
@36078 Channel: 1 Note on, E4 key=64 velocity: 0
@36080 Channel: 1 Note on, A3 key=57 velocity: 0
@36090 Channel: 1 Note on, A3 key=57 velocity: 80
@36090 Channel: 1 Note on, E4 key=64 velocity: 80
@36090 Channel: 1 Note on, C4 key=60 velocity: 80
@36117 Channel: 1 Note on, C4 key=60 velocity: 0
@36121 Channel: 1 Note on, E4 key=64 velocity: 0
@36123 Channel: 1 Note on, A3 key=57 velocity: 0
@36150 Channel: 1 Note on, A3 key=57 velocity: 81
@36150 Channel: 1 Note on, C4 key=60 velocity: 81
@36150 Channel: 1 Note on, E4 key=64 velocity: 81
@36161 Channel: 1 Note on, E4 key=64 velocity: 0
@36161 Channel: 1 Note on, C4 key=60 velocity: 0
@36169 Channel: 1 Note on, A3 key=57 velocity: 0
@36180 Channel: 1 Note on, A3 key=57 velocity: 81
@36180 Channel: 1 Note on, C4 key=60 velocity: 81
@36180 Channel: 1 Note on, E4 key=64 velocity: 81
@36211 Channel: 1 Note on, C4 key=60 velocity: 0
@36213 Channel: 1 Note on, E4 key=64 velocity: 0
@36215 Channel: 1 Note on, A3 key=57 velocity: 0
@36240 Channel: 1 Note on, A3 key=57 velocity: 82
@36240 Channel: 1 Note on, E4 key=64 velocity: 82
@36240 Channel: 1 Note on, C4 key=60 velocity: 82
@36240 Channel: 1 Command:176
@36240 Channel: 1 Command:176
@36275 Channel: 1 Note on, C4 key=60 velocity: 0
@36280 Channel: 1 Note on, E4 key=64 velocity: 0
@36280 Channel: 1 Note on, A3 key=57 velocity: 0
@36300 Channel: 1 Note on, A3 key=57 velocity: 82
@36300 Channel: 1 Note on, C4 key=60 velocity: 82
@36300 Channel: 1 Note on, E4 key=64 velocity: 82
@36313 Channel: 1 Note on, C4 key=60 velocity: 0
@36315 Channel: 1 Note on, E4 key=64 velocity: 0
@36320 Channel: 1 Note on, A3 key=57 velocity: 0
@36330 Channel: 1 Note on, A3 key=57 velocity: 82
@36330 Channel: 1 Note on, E4 key=64 velocity: 82
@36330 Channel: 1 Note on, C4 key=60 velocity: 82
@36363 Channel: 1 Note on, C4 key=60 velocity: 0
@36365 Channel: 1 Note on, E4 key=64 velocity: 0
@36368 Channel: 1 Note on, A3 key=57 velocity: 0
@36390 Channel: 1 Note on, A3 key=57 velocity: 82
@36390 Channel: 1 Note on, C4 key=60 velocity: 82
@36390 Channel: 1 Note on, E4 key=64 velocity: 82
@36403 Channel: 1 Note on, C4 key=60 velocity: 0
@36405 Channel: 1 Note on, E4 key=64 velocity: 0
@36412 Channel: 1 Note on, A3 key=57 velocity: 0
@36420 Channel: 1 Note on, E4 key=64 velocity: 81
@36420 Channel: 1 Note on, A3 key=57 velocity: 81
@36420 Channel: 1 Note on, C4 key=60 velocity: 81
@36449 Channel: 1 Note on, C4 key=60 velocity: 0
@36451 Channel: 1 Note on, E4 key=64 velocity: 0
@36453 Channel: 1 Note on, A3 key=57 velocity: 0
@36480 Channel: 1 Note on, C4 key=60 velocity: 81
@36480 Channel: 1 Note on, F4 key=65 velocity: 81
@36480 Channel: 1 Note on, A3 key=57 velocity: 81
@36480 Channel: 1 Command:176
@36480 Channel: 1 Command:176
@36515 Channel: 1 Note on, A3 key=57 velocity: 0
@36515 Channel: 1 Note on, C4 key=60 velocity: 0
@36517 Channel: 1 Note on, F4 key=65 velocity: 0
@36540 Channel: 1 Note on, F4 key=65 velocity: 81
@36540 Channel: 1 Note on, C4 key=60 velocity: 81
@36540 Channel: 1 Note on, A3 key=57 velocity: 81
@36556 Channel: 1 Note on, C4 key=60 velocity: 0
@36558 Channel: 1 Note on, A3 key=57 velocity: 0
@36558 Channel: 1 Note on, F4 key=65 velocity: 0
@36570 Channel: 1 Note on, A3 key=57 velocity: 81
@36570 Channel: 1 Note on, F4 key=65 velocity: 81
@36570 Channel: 1 Note on, C4 key=60 velocity: 81
@36605 Channel: 1 Note on, C4 key=60 velocity: 0
@36605 Channel: 1 Note on, F4 key=65 velocity: 0
@36605 Channel: 1 Note on, A3 key=57 velocity: 0
@36630 Channel: 1 Note on, A3 key=57 velocity: 80
@36630 Channel: 1 Note on, C4 key=60 velocity: 80
@36630 Channel: 1 Note on, F4 key=65 velocity: 80
@36646 Channel: 1 Note on, F4 key=65 velocity: 0
@36646 Channel: 1 Note on, C4 key=60 velocity: 0
@36648 Channel: 1 Note on, A3 key=57 velocity: 0
@36660 Channel: 1 Note on, A3 key=57 velocity: 80
@36660 Channel: 1 Note on, F4 key=65 velocity: 80
@36660 Channel: 1 Note on, C4 key=60 velocity: 80
@36691 Channel: 1 Note on, C4 key=60 velocity: 0
@36691 Channel: 1 Note on, F4 key=65 velocity: 0
@36691 Channel: 1 Note on, A3 key=57 velocity: 0
@36720 Channel: 1 Note on, C4 key=60 velocity: 80
@36720 Channel: 1 Note on, G3 key=55 velocity: 80
@36720 Channel: 1 Note on, F4 key=65 velocity: 80
@36720 Channel: 1 Command:176
@36720 Channel: 1 Command:176
@36756 Channel: 1 Note on, F4 key=65 velocity: 0
@36756 Channel: 1 Note on, G3 key=55 velocity: 0
@36756 Channel: 1 Note on, C4 key=60 velocity: 0
@36780 Channel: 1 Note on, G3 key=55 velocity: 80
@36780 Channel: 1 Note on, C4 key=60 velocity: 80
@36780 Channel: 1 Note on, F4 key=65 velocity: 80
@36797 Channel: 1 Note on, F4 key=65 velocity: 0
@36797 Channel: 1 Note on, C4 key=60 velocity: 0
@36797 Channel: 1 Note on, G3 key=55 velocity: 0
@36810 Channel: 1 Note on, G3 key=55 velocity: 80
@36810 Channel: 1 Note on, F4 key=65 velocity: 80
@36810 Channel: 1 Note on, C4 key=60 velocity: 80
@36838 Channel: 1 Note on, C4 key=60 velocity: 0
@36838 Channel: 1 Note on, F4 key=65 velocity: 0
@36843 Channel: 1 Note on, G3 key=55 velocity: 0
@36870 Channel: 1 Note on, G3 key=55 velocity: 80
@36870 Channel: 1 Note on, C4 key=60 velocity: 80
@36870 Channel: 1 Note on, F4 key=65 velocity: 80
@36887 Channel: 1 Note on, F4 key=65 velocity: 0
@36887 Channel: 1 Note on, C4 key=60 velocity: 0
@36890 Channel: 1 Note on, G3 key=55 velocity: 0
@36900 Channel: 1 Note on, G3 key=55 velocity: 81
@36900 Channel: 1 Note on, F4 key=65 velocity: 81
@36900 Channel: 1 Note on, C4 key=60 velocity: 81
@36933 Channel: 1 Note on, C4 key=60 velocity: 0
@36933 Channel: 1 Note on, F4 key=65 velocity: 0
@36933 Channel: 1 Note on, G3 key=55 velocity: 0
@36960 Channel: 1 Note on, A3 key=57 velocity: 81
@36960 Channel: 1 Note on, C4 key=60 velocity: 81
@36960 Channel: 1 Note on, F4 key=65 velocity: 81
@36960 Channel: 1 Command:176
@36960 Channel: 1 Command:176
@36988 Channel: 1 Note on, F4 key=65 velocity: 0
@36991 Channel: 1 Note on, C4 key=60 velocity: 0
@36993 Channel: 1 Note on, A3 key=57 velocity: 0
@37020 Channel: 1 Note on, F4 key=65 velocity: 81
@37020 Channel: 1 Note on, A3 key=57 velocity: 81
@37020 Channel: 1 Note on, C4 key=60 velocity: 81
@37033 Channel: 1 Note on, C4 key=60 velocity: 0
@37035 Channel: 1 Note on, A3 key=57 velocity: 0
@37035 Channel: 1 Note on, F4 key=65 velocity: 0
@37050 Channel: 1 Note on, A3 key=57 velocity: 81
@37050 Channel: 1 Note on, F4 key=65 velocity: 81
@37050 Channel: 1 Note on, C4 key=60 velocity: 81
@37076 Channel: 1 Note on, C4 key=60 velocity: 0
@37081 Channel: 1 Note on, F4 key=65 velocity: 0
@37083 Channel: 1 Note on, A3 key=57 velocity: 0
@37110 Channel: 1 Note on, A3 key=57 velocity: 81
@37110 Channel: 1 Note on, F4 key=65 velocity: 81
@37110 Channel: 1 Note on, C4 key=60 velocity: 81
@37125 Channel: 1 Note on, C4 key=60 velocity: 0
@37128 Channel: 1 Note on, A3 key=57 velocity: 0
@37130 Channel: 1 Note on, F4 key=65 velocity: 0
@37140 Channel: 1 Note on, F4 key=65 velocity: 81
@37140 Channel: 1 Note on, A3 key=57 velocity: 81
@37140 Channel: 1 Note on, C4 key=60 velocity: 81
@37170 Channel: 1 Note on, C4 key=60 velocity: 0
@37173 Channel: 1 Note on, F4 key=65 velocity: 0
@37175 Channel: 1 Note on, A3 key=57 velocity: 0
@37200 Channel: 1 Note on, C4 key=60 velocity: 81
@37200 Channel: 1 Note on, F4 key=65 velocity: 81
@37200 Channel: 1 Note on, G3 key=55 velocity: 81
@37200 Channel: 1 Command:176
@37200 Channel: 1 Command:176
@37226 Channel: 1 Note on, G3 key=55 velocity: 0
@37229 Channel: 1 Note on, C4 key=60 velocity: 0
@37231 Channel: 1 Note on, F4 key=65 velocity: 0
@37260 Channel: 1 Note on, C4 key=60 velocity: 80
@37260 Channel: 1 Note on, G3 key=55 velocity: 80
@37260 Channel: 1 Note on, F4 key=65 velocity: 80
@37278 Channel: 1 Note on, F4 key=65 velocity: 0
@37278 Channel: 1 Note on, G3 key=55 velocity: 0
@37278 Channel: 1 Note on, C4 key=60 velocity: 0
@37290 Channel: 1 Note on, F4 key=65 velocity: 80
@37290 Channel: 1 Note on, G3 key=55 velocity: 80
@37290 Channel: 1 Note on, C4 key=60 velocity: 80
@37321 Channel: 1 Note on, C4 key=60 velocity: 0
@37323 Channel: 1 Note on, G3 key=55 velocity: 0
@37323 Channel: 1 Note on, F4 key=65 velocity: 0
@37350 Channel: 1 Note on, C4 key=60 velocity: 80
@37350 Channel: 1 Note on, F4 key=65 velocity: 80
@37350 Channel: 1 Note on, G3 key=55 velocity: 80
@37368 Channel: 1 Note on, G3 key=55 velocity: 0
@37368 Channel: 1 Note on, C4 key=60 velocity: 0
@37370 Channel: 1 Note on, F4 key=65 velocity: 0
@37380 Channel: 1 Note on, F4 key=65 velocity: 80
@37380 Channel: 1 Note on, C4 key=60 velocity: 80
@37380 Channel: 1 Note on, G3 key=55 velocity: 80
@37407 Channel: 1 Note on, F4 key=65 velocity: 0
@37409 Channel: 1 Note on, C4 key=60 velocity: 0
@37415 Channel: 1 Note on, G3 key=55 velocity: 0
@37440 Channel: 1 Note on, B3 key=59 velocity: 81
@37440 Channel: 1 Note on, G3 key=55 velocity: 81
@37440 Channel: 1 Note on, E4 key=64 velocity: 81
@37440 Channel: 1 Command:176
@37440 Channel: 1 Command:176
@37471 Channel: 1 Note on, E4 key=64 velocity: 0
@37471 Channel: 1 Note on, B3 key=59 velocity: 0
@37473 Channel: 1 Note on, G3 key=55 velocity: 0
@37500 Channel: 1 Note on, E4 key=64 velocity: 81
@37500 Channel: 1 Note on, B3 key=59 velocity: 81
@37500 Channel: 1 Note on, G3 key=55 velocity: 81
@37513 Channel: 1 Note on, B3 key=59 velocity: 0
@37515 Channel: 1 Note on, G3 key=55 velocity: 0
@37517 Channel: 1 Note on, E4 key=64 velocity: 0
@37530 Channel: 1 Note on, E4 key=64 velocity: 81
@37530 Channel: 1 Note on, G3 key=55 velocity: 81
@37530 Channel: 1 Note on, B3 key=59 velocity: 81
@37561 Channel: 1 Note on, B3 key=59 velocity: 0
@37561 Channel: 1 Note on, G3 key=55 velocity: 0
@37563 Channel: 1 Note on, E4 key=64 velocity: 0
@37590 Channel: 1 Note on, E4 key=64 velocity: 81
@37590 Channel: 1 Note on, B3 key=59 velocity: 81
@37590 Channel: 1 Note on, G3 key=55 velocity: 81
@37603 Channel: 1 Note on, B3 key=59 velocity: 0
@37605 Channel: 1 Note on, G3 key=55 velocity: 0
@37605 Channel: 1 Note on, E4 key=64 velocity: 0
@37620 Channel: 1 Note on, G3 key=55 velocity: 81
@37620 Channel: 1 Note on, E4 key=64 velocity: 81
@37620 Channel: 1 Note on, B3 key=59 velocity: 81
@37647 Channel: 1 Note on, B3 key=59 velocity: 0
@37647 Channel: 1 Note on, E4 key=64 velocity: 0
@37651 Channel: 1 Note on, G3 key=55 velocity: 0
@37680 Channel: 1 Note on, E4 key=64 velocity: 82
@37680 Channel: 1 Note on, G3 key=55 velocity: 82
@37680 Channel: 1 Note on, B3 key=59 velocity: 82
@37680 Channel: 1 Command:176
@37680 Channel: 1 Command:176
@37715 Channel: 1 Note on, B3 key=59 velocity: 0
@37717 Channel: 1 Note on, G3 key=55 velocity: 0
@37717 Channel: 1 Note on, E4 key=64 velocity: 0
@37740 Channel: 1 Note on, G3 key=55 velocity: 82
@37740 Channel: 1 Note on, B3 key=59 velocity: 82
@37740 Channel: 1 Note on, E4 key=64 velocity: 82
@37753 Channel: 1 Note on, B3 key=59 velocity: 0
@37755 Channel: 1 Note on, E4 key=64 velocity: 0
@37755 Channel: 1 Note on, G3 key=55 velocity: 0
@37770 Channel: 1 Note on, G3 key=55 velocity: 82
@37770 Channel: 1 Note on, E4 key=64 velocity: 82
@37770 Channel: 1 Note on, B3 key=59 velocity: 82
@37796 Channel: 1 Note on, B3 key=59 velocity: 0
@37796 Channel: 1 Note on, E4 key=64 velocity: 0
@37799 Channel: 1 Note on, G3 key=55 velocity: 0
@37830 Channel: 1 Note on, B3 key=59 velocity: 82
@37830 Channel: 1 Note on, G3 key=55 velocity: 82
@37830 Channel: 1 Note on, E4 key=64 velocity: 82
@37843 Channel: 1 Note on, E4 key=64 velocity: 0
@37843 Channel: 1 Note on, B3 key=59 velocity: 0
@37847 Channel: 1 Note on, G3 key=55 velocity: 0
@37860 Channel: 1 Note on, G3 key=55 velocity: 82
@37860 Channel: 1 Note on, E4 key=64 velocity: 82
@37860 Channel: 1 Note on, B3 key=59 velocity: 82
@37891 Channel: 1 Note on, B3 key=59 velocity: 0
@37891 Channel: 1 Note on, E4 key=64 velocity: 0
@37893 Channel: 1 Note on, G3 key=55 velocity: 0
@37920 Channel: 1 Note on, A3 key=57 velocity: 82
@37920 Channel: 1 Note on, C4 key=60 velocity: 82
@37920 Channel: 1 Note on, F4 key=65 velocity: 82
@37920 Channel: 1 Command:176
@37920 Channel: 1 Command:176
@37956 Channel: 1 Note on, C4 key=60 velocity: 0
@37956 Channel: 1 Note on, A3 key=57 velocity: 0
@37958 Channel: 1 Note on, F4 key=65 velocity: 0
@37980 Channel: 1 Note on, A3 key=57 velocity: 82
@37980 Channel: 1 Note on, F4 key=65 velocity: 82
@37980 Channel: 1 Note on, C4 key=60 velocity: 82
@37993 Channel: 1 Note on, C4 key=60 velocity: 0
@37995 Channel: 1 Note on, F4 key=65 velocity: 0
@37995 Channel: 1 Note on, A3 key=57 velocity: 0
@38010 Channel: 1 Note on, F4 key=65 velocity: 82
@38010 Channel: 1 Note on, A3 key=57 velocity: 82
@38010 Channel: 1 Note on, C4 key=60 velocity: 82
@38041 Channel: 1 Note on, C4 key=60 velocity: 0
@38043 Channel: 1 Note on, A3 key=57 velocity: 0
@38043 Channel: 1 Note on, F4 key=65 velocity: 0
@38070 Channel: 1 Note on, C4 key=60 velocity: 80
@38070 Channel: 1 Note on, F4 key=65 velocity: 80
@38070 Channel: 1 Note on, A3 key=57 velocity: 80
@38085 Channel: 1 Note on, C4 key=60 velocity: 0
@38088 Channel: 1 Note on, A3 key=57 velocity: 0
@38088 Channel: 1 Note on, F4 key=65 velocity: 0
@38100 Channel: 1 Note on, F4 key=65 velocity: 80
@38100 Channel: 1 Note on, A3 key=57 velocity: 80
@38100 Channel: 1 Note on, C4 key=60 velocity: 80
@38129 Channel: 1 Note on, C4 key=60 velocity: 0
@38129 Channel: 1 Note on, A3 key=57 velocity: 0
@38133 Channel: 1 Note on, F4 key=65 velocity: 0
@38160 Channel: 1 Note on, B3 key=59 velocity: 80
@38160 Channel: 1 Note on, D4 key=62 velocity: 80
@38160 Channel: 1 Note on, G4 key=67 velocity: 80
@38160 Channel: 1 Command:176
@38160 Channel: 1 Command:176
@38196 Channel: 1 Note on, D4 key=62 velocity: 0
@38198 Channel: 1 Note on, B3 key=59 velocity: 0
@38200 Channel: 1 Note on, G4 key=67 velocity: 0
@38220 Channel: 1 Note on, G4 key=67 velocity: 80
@38220 Channel: 1 Note on, B3 key=59 velocity: 80
@38220 Channel: 1 Note on, D4 key=62 velocity: 80
@38233 Channel: 1 Note on, D4 key=62 velocity: 0
@38233 Channel: 1 Note on, B3 key=59 velocity: 0
@38240 Channel: 1 Note on, G4 key=67 velocity: 0
@38250 Channel: 1 Note on, G4 key=67 velocity: 80
@38250 Channel: 1 Note on, D4 key=62 velocity: 80
@38250 Channel: 1 Note on, B3 key=59 velocity: 80
@38283 Channel: 1 Note on, B3 key=59 velocity: 0
@38283 Channel: 1 Note on, D4 key=62 velocity: 0
@38285 Channel: 1 Note on, G4 key=67 velocity: 0
@38310 Channel: 1 Note on, G4 key=67 velocity: 79
@38310 Channel: 1 Note on, D4 key=62 velocity: 79
@38310 Channel: 1 Note on, B3 key=59 velocity: 79
@38325 Channel: 1 Note on, B3 key=59 velocity: 0
@38325 Channel: 1 Note on, D4 key=62 velocity: 0
@38325 Channel: 1 Note on, G4 key=67 velocity: 0
@38340 Channel: 1 Note on, B3 key=59 velocity: 79
@38340 Channel: 1 Note on, G4 key=67 velocity: 79
@38340 Channel: 1 Note on, D4 key=62 velocity: 79
@38340 Channel: 1 Note on, F4 key=65 velocity: 79
@38351 Channel: 1 Note on, F4 key=65 velocity: 0
@38386 Channel: 1 Note on, B3 key=59 velocity: 0
@38386 Channel: 1 Note on, G4 key=67 velocity: 0
@38386 Channel: 1 Note on, D4 key=62 velocity: 0
@38400 Channel: 1 Note on, C4 key=60 velocity: 81
@38400 Channel: 1 Note on, E4 key=64 velocity: 81
@38400 Channel: 1 Note on, G3 key=55 velocity: 81
@38400 Channel: 1 Note on, E4 key=64 velocity: 81
@38400 Channel: 1 Note on, C4 key=60 velocity: 81
@38400 Channel: 1 Note on, G3 key=55 velocity: 81
@38400 Channel: 1 Command:176
@38400 Channel: 1 Command:176
@38437 Channel: 1 Note on, E4 key=64 velocity: 0
@38439 Channel: 1 Note on, C4 key=60 velocity: 0
@38439 Channel: 1 Note on, G3 key=55 velocity: 0
@38446 Channel: 1 Note on, C4 key=60 velocity: 0
@38446 Channel: 1 Note on, E4 key=64 velocity: 0
@38448 Channel: 1 Note on, G3 key=55 velocity: 0
@38460 Channel: 1 Note on, G3 key=55 velocity: 81
@38460 Channel: 1 Note on, E4 key=64 velocity: 81
@38460 Channel: 1 Note on, C4 key=60 velocity: 81
@38473 Channel: 1 Note on, C4 key=60 velocity: 0
@38475 Channel: 1 Note on, E4 key=64 velocity: 0
@38479 Channel: 1 Note on, G3 key=55 velocity: 0
@38490 Channel: 1 Note on, G3 key=55 velocity: 81
@38490 Channel: 1 Note on, E4 key=64 velocity: 81
@38490 Channel: 1 Note on, C4 key=60 velocity: 81
@38526 Channel: 1 Note on, C4 key=60 velocity: 0
@38532 Channel: 1 Note on, E4 key=64 velocity: 0
@38532 Channel: 1 Note on, G3 key=55 velocity: 0
@38550 Channel: 1 Note on, C4 key=60 velocity: 81
@38550 Channel: 1 Note on, E4 key=64 velocity: 81
@38550 Channel: 1 Note on, G3 key=55 velocity: 81
@38565 Channel: 1 Note on, G3 key=55 velocity: 0
@38565 Channel: 1 Note on, E4 key=64 velocity: 0
@38565 Channel: 1 Note on, C4 key=60 velocity: 0
@38580 Channel: 1 Note on, E4 key=64 velocity: 81
@38580 Channel: 1 Note on, C4 key=60 velocity: 81
@38580 Channel: 1 Note on, G3 key=55 velocity: 81
@38622 Channel: 1 Note on, G3 key=55 velocity: 0
@38622 Channel: 1 Note on, E4 key=64 velocity: 0
@38624 Channel: 1 Note on, C4 key=60 velocity: 0
@38640 Channel: 1 Note on, F4 key=65 velocity: 81
@38640 Channel: 1 Note on, C4 key=60 velocity: 81
@38640 Channel: 1 Note on, G3 key=55 velocity: 81
@38640 Channel: 1 Command:176
@38640 Channel: 1 Command:176
@38682 Channel: 1 Note on, G3 key=55 velocity: 0
@38682 Channel: 1 Note on, C4 key=60 velocity: 0
@38684 Channel: 1 Note on, F4 key=65 velocity: 0
@38700 Channel: 1 Note on, F4 key=65 velocity: 81
@38700 Channel: 1 Note on, C4 key=60 velocity: 81
@38700 Channel: 1 Note on, G3 key=55 velocity: 81
@38715 Channel: 1 Note on, G3 key=55 velocity: 0
@38715 Channel: 1 Note on, C4 key=60 velocity: 0
@38720 Channel: 1 Note on, F4 key=65 velocity: 0
@38730 Channel: 1 Note on, F4 key=65 velocity: 81
@38730 Channel: 1 Note on, C4 key=60 velocity: 81
@38730 Channel: 1 Note on, G3 key=55 velocity: 81
@38772 Channel: 1 Note on, C4 key=60 velocity: 0
@38772 Channel: 1 Note on, F4 key=65 velocity: 0
@38774 Channel: 1 Note on, G3 key=55 velocity: 0
@38790 Channel: 1 Note on, G3 key=55 velocity: 81
@38790 Channel: 1 Note on, C4 key=60 velocity: 81
@38790 Channel: 1 Note on, F4 key=65 velocity: 81
@38807 Channel: 1 Note on, F4 key=65 velocity: 0
@38807 Channel: 1 Note on, C4 key=60 velocity: 0
@38807 Channel: 1 Note on, G3 key=55 velocity: 0
@38820 Channel: 1 Note on, F4 key=65 velocity: 81
@38820 Channel: 1 Note on, G3 key=55 velocity: 81
@38820 Channel: 1 Note on, C4 key=60 velocity: 81
@38867 Channel: 1 Note on, C4 key=60 velocity: 0
@38867 Channel: 1 Note on, G3 key=55 velocity: 0
@38869 Channel: 1 Note on, F4 key=65 velocity: 0
@38880 Channel: 1 Note on, C4 key=60 velocity: 81
@38880 Channel: 1 Note on, E4 key=64 velocity: 81
@38880 Channel: 1 Note on, G3 key=55 velocity: 81
@38880 Channel: 1 Command:176
@38880 Channel: 1 Command:176
@38915 Channel: 1 Note on, G3 key=55 velocity: 0
@38915 Channel: 1 Note on, E4 key=64 velocity: 0
@38915 Channel: 1 Note on, C4 key=60 velocity: 0
@38940 Channel: 1 Note on, C4 key=60 velocity: 80
@38940 Channel: 1 Note on, E4 key=64 velocity: 80
@38940 Channel: 1 Note on, G3 key=55 velocity: 80
@38958 Channel: 1 Note on, E4 key=64 velocity: 0
@38958 Channel: 1 Note on, C4 key=60 velocity: 0
@38960 Channel: 1 Note on, G3 key=55 velocity: 0
@38970 Channel: 1 Note on, E4 key=64 velocity: 80
@38970 Channel: 1 Note on, G3 key=55 velocity: 80
@38970 Channel: 1 Note on, C4 key=60 velocity: 80
@39005 Channel: 1 Note on, C4 key=60 velocity: 0
@39008 Channel: 1 Note on, E4 key=64 velocity: 0
@39010 Channel: 1 Note on, G3 key=55 velocity: 0
@39030 Channel: 1 Note on, G3 key=55 velocity: 80
@39030 Channel: 1 Note on, E4 key=64 velocity: 80
@39030 Channel: 1 Note on, C4 key=60 velocity: 80
@39048 Channel: 1 Note on, C4 key=60 velocity: 0
@39048 Channel: 1 Note on, E4 key=64 velocity: 0
@39048 Channel: 1 Note on, G3 key=55 velocity: 0
@39060 Channel: 1 Note on, E4 key=64 velocity: 80
@39060 Channel: 1 Note on, G3 key=55 velocity: 80
@39060 Channel: 1 Note on, C4 key=60 velocity: 80
@39098 Channel: 1 Note on, G3 key=55 velocity: 0
@39100 Channel: 1 Note on, C4 key=60 velocity: 0
@39100 Channel: 1 Note on, E4 key=64 velocity: 0
@39120 Channel: 1 Note on, C4 key=60 velocity: 80
@39120 Channel: 1 Note on, G3 key=55 velocity: 80
@39120 Channel: 1 Note on, F4 key=65 velocity: 80
@39120 Channel: 1 Command:176
@39120 Channel: 1 Command:176
@39157 Channel: 1 Note on, F4 key=65 velocity: 0
@39157 Channel: 1 Note on, G3 key=55 velocity: 0
@39159 Channel: 1 Note on, C4 key=60 velocity: 0
@39180 Channel: 1 Note on, C4 key=60 velocity: 82
@39180 Channel: 1 Note on, F4 key=65 velocity: 82
@39180 Channel: 1 Note on, G3 key=55 velocity: 82
@39198 Channel: 1 Note on, G3 key=55 velocity: 0
@39198 Channel: 1 Note on, C4 key=60 velocity: 0
@39200 Channel: 1 Note on, F4 key=65 velocity: 0
@39210 Channel: 1 Note on, F4 key=65 velocity: 80
@39210 Channel: 1 Note on, C4 key=60 velocity: 80
@39210 Channel: 1 Note on, G3 key=55 velocity: 80
@39245 Channel: 1 Note on, C4 key=60 velocity: 0
@39245 Channel: 1 Note on, F4 key=65 velocity: 0
@39247 Channel: 1 Note on, G3 key=55 velocity: 0
@39270 Channel: 1 Note on, F4 key=65 velocity: 80
@39270 Channel: 1 Note on, C4 key=60 velocity: 80
@39270 Channel: 1 Note on, G3 key=55 velocity: 80
@39286 Channel: 1 Note on, G3 key=55 velocity: 0
@39286 Channel: 1 Note on, C4 key=60 velocity: 0
@39290 Channel: 1 Note on, F4 key=65 velocity: 0
@39300 Channel: 1 Note on, F4 key=65 velocity: 79
@39300 Channel: 1 Note on, G3 key=55 velocity: 79
@39300 Channel: 1 Note on, C4 key=60 velocity: 79
@39335 Channel: 1 Note on, F4 key=65 velocity: 0
@39339 Channel: 1 Note on, C4 key=60 velocity: 0
@39339 Channel: 1 Note on, G3 key=55 velocity: 0
@39360 Channel: 1 Note on, C4 key=60 velocity: 79
@39360 Channel: 1 Note on, E4 key=64 velocity: 79
@39360 Channel: 1 Note on, A3 key=57 velocity: 79
@39360 Channel: 1 Command:176
@39360 Channel: 1 Command:176
@39400 Channel: 1 Note on, A3 key=57 velocity: 0
@39400 Channel: 1 Note on, E4 key=64 velocity: 0
@39404 Channel: 1 Note on, C4 key=60 velocity: 0
@39420 Channel: 1 Note on, A3 key=57 velocity: 79
@39420 Channel: 1 Note on, C4 key=60 velocity: 79
@39420 Channel: 1 Note on, E4 key=64 velocity: 79
@39437 Channel: 1 Note on, C4 key=60 velocity: 0
@39440 Channel: 1 Note on, E4 key=64 velocity: 0
@39444 Channel: 1 Note on, A3 key=57 velocity: 0
@39450 Channel: 1 Note on, A3 key=57 velocity: 79
@39450 Channel: 1 Note on, E4 key=64 velocity: 79
@39450 Channel: 1 Note on, C4 key=60 velocity: 79
@39485 Channel: 1 Note on, C4 key=60 velocity: 0
@39487 Channel: 1 Note on, E4 key=64 velocity: 0
@39490 Channel: 1 Note on, A3 key=57 velocity: 0
@39510 Channel: 1 Note on, C4 key=60 velocity: 78
@39510 Channel: 1 Note on, A3 key=57 velocity: 78
@39510 Channel: 1 Note on, E4 key=64 velocity: 78
@39524 Channel: 1 Note on, A3 key=57 velocity: 0
@39524 Channel: 1 Note on, C4 key=60 velocity: 0
@39526 Channel: 1 Note on, E4 key=64 velocity: 0
@39540 Channel: 1 Note on, A3 key=57 velocity: 78
@39540 Channel: 1 Note on, C4 key=60 velocity: 78
@39540 Channel: 1 Note on, E4 key=64 velocity: 78
@39578 Channel: 1 Note on, E4 key=64 velocity: 0
@39578 Channel: 1 Note on, C4 key=60 velocity: 0
@39578 Channel: 1 Note on, A3 key=57 velocity: 0
@39600 Channel: 1 Note on, A3 key=57 velocity: 79
@39600 Channel: 1 Note on, C4 key=60 velocity: 79
@39600 Channel: 1 Note on, E4 key=64 velocity: 79
@39600 Channel: 1 Command:176
@39600 Channel: 1 Command:176
@39637 Channel: 1 Note on, E4 key=64 velocity: 0
@39637 Channel: 1 Note on, C4 key=60 velocity: 0
@39639 Channel: 1 Note on, A3 key=57 velocity: 0
@39660 Channel: 1 Note on, A3 key=57 velocity: 79
@39660 Channel: 1 Note on, E4 key=64 velocity: 79
@39660 Channel: 1 Note on, C4 key=60 velocity: 79
@39673 Channel: 1 Note on, C4 key=60 velocity: 0
@39678 Channel: 1 Note on, E4 key=64 velocity: 0
@39678 Channel: 1 Note on, A3 key=57 velocity: 0
@39690 Channel: 1 Note on, A3 key=57 velocity: 79
@39690 Channel: 1 Note on, C4 key=60 velocity: 79
@39690 Channel: 1 Note on, E4 key=64 velocity: 79
@39723 Channel: 1 Note on, E4 key=64 velocity: 0
@39723 Channel: 1 Note on, C4 key=60 velocity: 0
@39727 Channel: 1 Note on, A3 key=57 velocity: 0
@39750 Channel: 1 Note on, A3 key=57 velocity: 80
@39750 Channel: 1 Note on, C4 key=60 velocity: 80
@39750 Channel: 1 Note on, E4 key=64 velocity: 80
@39765 Channel: 1 Note on, E4 key=64 velocity: 0
@39765 Channel: 1 Note on, C4 key=60 velocity: 0
@39765 Channel: 1 Note on, A3 key=57 velocity: 0
@39780 Channel: 1 Note on, A3 key=57 velocity: 80
@39780 Channel: 1 Note on, E4 key=64 velocity: 80
@39780 Channel: 1 Note on, C4 key=60 velocity: 80
@39806 Channel: 1 Note on, C4 key=60 velocity: 0
@39806 Channel: 1 Note on, E4 key=64 velocity: 0
@39811 Channel: 1 Note on, A3 key=57 velocity: 0
@39840 Channel: 1 Note on, A3 key=57 velocity: 80
@39840 Channel: 1 Note on, E4 key=64 velocity: 80
@39840 Channel: 1 Note on, C4 key=60 velocity: 80
@39840 Channel: 1 Command:176
@39840 Channel: 1 Command:176
@39873 Channel: 1 Note on, C4 key=60 velocity: 0
@39878 Channel: 1 Note on, E4 key=64 velocity: 0
@39878 Channel: 1 Note on, A3 key=57 velocity: 0
@39900 Channel: 1 Note on, A3 key=57 velocity: 80
@39900 Channel: 1 Note on, C4 key=60 velocity: 80
@39900 Channel: 1 Note on, E4 key=64 velocity: 80
@39916 Channel: 1 Note on, C4 key=60 velocity: 0
@39918 Channel: 1 Note on, E4 key=64 velocity: 0
@39920 Channel: 1 Note on, A3 key=57 velocity: 0
@39930 Channel: 1 Note on, A3 key=57 velocity: 80
@39930 Channel: 1 Note on, E4 key=64 velocity: 80
@39930 Channel: 1 Note on, C4 key=60 velocity: 80
@39957 Channel: 1 Note on, C4 key=60 velocity: 0
@39961 Channel: 1 Note on, E4 key=64 velocity: 0
@39963 Channel: 1 Note on, A3 key=57 velocity: 0
@39990 Channel: 1 Note on, A3 key=57 velocity: 81
@39990 Channel: 1 Note on, C4 key=60 velocity: 81
@39990 Channel: 1 Note on, E4 key=64 velocity: 81
@40001 Channel: 1 Note on, E4 key=64 velocity: 0
@40001 Channel: 1 Note on, C4 key=60 velocity: 0
@40009 Channel: 1 Note on, A3 key=57 velocity: 0
@40020 Channel: 1 Note on, A3 key=57 velocity: 81
@40020 Channel: 1 Note on, C4 key=60 velocity: 81
@40020 Channel: 1 Note on, E4 key=64 velocity: 81
@40051 Channel: 1 Note on, C4 key=60 velocity: 0
@40053 Channel: 1 Note on, E4 key=64 velocity: 0
@40055 Channel: 1 Note on, A3 key=57 velocity: 0
@40080 Channel: 1 Note on, A3 key=57 velocity: 82
@40080 Channel: 1 Note on, E4 key=64 velocity: 82
@40080 Channel: 1 Note on, C4 key=60 velocity: 82
@40080 Channel: 1 Command:176
@40080 Channel: 1 Command:176
@40115 Channel: 1 Note on, C4 key=60 velocity: 0
@40120 Channel: 1 Note on, E4 key=64 velocity: 0
@40120 Channel: 1 Note on, A3 key=57 velocity: 0
@40140 Channel: 1 Note on, A3 key=57 velocity: 82
@40140 Channel: 1 Note on, C4 key=60 velocity: 82
@40140 Channel: 1 Note on, E4 key=64 velocity: 82
@40153 Channel: 1 Note on, C4 key=60 velocity: 0
@40155 Channel: 1 Note on, E4 key=64 velocity: 0
@40160 Channel: 1 Note on, A3 key=57 velocity: 0
@40170 Channel: 1 Note on, A3 key=57 velocity: 82
@40170 Channel: 1 Note on, E4 key=64 velocity: 82
@40170 Channel: 1 Note on, C4 key=60 velocity: 82
@40203 Channel: 1 Note on, C4 key=60 velocity: 0
@40205 Channel: 1 Note on, E4 key=64 velocity: 0
@40208 Channel: 1 Note on, A3 key=57 velocity: 0
@40230 Channel: 1 Note on, A3 key=57 velocity: 82
@40230 Channel: 1 Note on, C4 key=60 velocity: 82
@40230 Channel: 1 Note on, E4 key=64 velocity: 82
@40243 Channel: 1 Note on, C4 key=60 velocity: 0
@40245 Channel: 1 Note on, E4 key=64 velocity: 0
@40252 Channel: 1 Note on, A3 key=57 velocity: 0
@40260 Channel: 1 Note on, E4 key=64 velocity: 81
@40260 Channel: 1 Note on, A3 key=57 velocity: 81
@40260 Channel: 1 Note on, C4 key=60 velocity: 81
@40289 Channel: 1 Note on, C4 key=60 velocity: 0
@40291 Channel: 1 Note on, E4 key=64 velocity: 0
@40293 Channel: 1 Note on, A3 key=57 velocity: 0
@40320 Channel: 1 Note on, C4 key=60 velocity: 81
@40320 Channel: 1 Note on, F4 key=65 velocity: 81
@40320 Channel: 1 Note on, A3 key=57 velocity: 81
@40320 Channel: 1 Command:176
@40320 Channel: 1 Command:176
@40355 Channel: 1 Note on, A3 key=57 velocity: 0
@40355 Channel: 1 Note on, C4 key=60 velocity: 0
@40357 Channel: 1 Note on, F4 key=65 velocity: 0
@40380 Channel: 1 Note on, F4 key=65 velocity: 81
@40380 Channel: 1 Note on, C4 key=60 velocity: 81
@40380 Channel: 1 Note on, A3 key=57 velocity: 81
@40396 Channel: 1 Note on, C4 key=60 velocity: 0
@40398 Channel: 1 Note on, A3 key=57 velocity: 0
@40398 Channel: 1 Note on, F4 key=65 velocity: 0
@40410 Channel: 1 Note on, A3 key=57 velocity: 81
@40410 Channel: 1 Note on, F4 key=65 velocity: 81
@40410 Channel: 1 Note on, C4 key=60 velocity: 81
@40445 Channel: 1 Note on, C4 key=60 velocity: 0
@40445 Channel: 1 Note on, F4 key=65 velocity: 0
@40445 Channel: 1 Note on, A3 key=57 velocity: 0
@40470 Channel: 1 Note on, A3 key=57 velocity: 80
@40470 Channel: 1 Note on, C4 key=60 velocity: 80
@40470 Channel: 1 Note on, F4 key=65 velocity: 80
@40486 Channel: 1 Note on, F4 key=65 velocity: 0
@40486 Channel: 1 Note on, C4 key=60 velocity: 0
@40488 Channel: 1 Note on, A3 key=57 velocity: 0
@40500 Channel: 1 Note on, A3 key=57 velocity: 80
@40500 Channel: 1 Note on, F4 key=65 velocity: 80
@40500 Channel: 1 Note on, C4 key=60 velocity: 80
@40531 Channel: 1 Note on, C4 key=60 velocity: 0
@40531 Channel: 1 Note on, F4 key=65 velocity: 0
@40531 Channel: 1 Note on, A3 key=57 velocity: 0
@40560 Channel: 1 Note on, C4 key=60 velocity: 80
@40560 Channel: 1 Note on, G3 key=55 velocity: 80
@40560 Channel: 1 Note on, F4 key=65 velocity: 80
@40560 Channel: 1 Command:176
@40560 Channel: 1 Command:176
@40596 Channel: 1 Note on, F4 key=65 velocity: 0
@40596 Channel: 1 Note on, G3 key=55 velocity: 0
@40596 Channel: 1 Note on, C4 key=60 velocity: 0
@40620 Channel: 1 Note on, G3 key=55 velocity: 80
@40620 Channel: 1 Note on, C4 key=60 velocity: 80
@40620 Channel: 1 Note on, F4 key=65 velocity: 80
@40637 Channel: 1 Note on, F4 key=65 velocity: 0
@40637 Channel: 1 Note on, C4 key=60 velocity: 0
@40637 Channel: 1 Note on, G3 key=55 velocity: 0
@40650 Channel: 1 Note on, G3 key=55 velocity: 80
@40650 Channel: 1 Note on, F4 key=65 velocity: 80
@40650 Channel: 1 Note on, C4 key=60 velocity: 80
@40678 Channel: 1 Note on, C4 key=60 velocity: 0
@40678 Channel: 1 Note on, F4 key=65 velocity: 0
@40683 Channel: 1 Note on, G3 key=55 velocity: 0
@40710 Channel: 1 Note on, G3 key=55 velocity: 80
@40710 Channel: 1 Note on, C4 key=60 velocity: 80
@40710 Channel: 1 Note on, F4 key=65 velocity: 80
@40727 Channel: 1 Note on, F4 key=65 velocity: 0
@40727 Channel: 1 Note on, C4 key=60 velocity: 0
@40730 Channel: 1 Note on, G3 key=55 velocity: 0
@40740 Channel: 1 Note on, G3 key=55 velocity: 81
@40740 Channel: 1 Note on, F4 key=65 velocity: 81
@40740 Channel: 1 Note on, C4 key=60 velocity: 81
@40773 Channel: 1 Note on, C4 key=60 velocity: 0
@40773 Channel: 1 Note on, F4 key=65 velocity: 0
@40773 Channel: 1 Note on, G3 key=55 velocity: 0
@40800 Channel: 1 Note on, A3 key=57 velocity: 81
@40800 Channel: 1 Note on, C4 key=60 velocity: 81
@40800 Channel: 1 Note on, F4 key=65 velocity: 81
@40800 Channel: 1 Command:176
@40800 Channel: 1 Command:176
@40828 Channel: 1 Note on, F4 key=65 velocity: 0
@40831 Channel: 1 Note on, C4 key=60 velocity: 0
@40833 Channel: 1 Note on, A3 key=57 velocity: 0
@40860 Channel: 1 Note on, F4 key=65 velocity: 81
@40860 Channel: 1 Note on, A3 key=57 velocity: 81
@40860 Channel: 1 Note on, C4 key=60 velocity: 81
@40873 Channel: 1 Note on, C4 key=60 velocity: 0
@40875 Channel: 1 Note on, A3 key=57 velocity: 0
@40875 Channel: 1 Note on, F4 key=65 velocity: 0
@40890 Channel: 1 Note on, A3 key=57 velocity: 81
@40890 Channel: 1 Note on, F4 key=65 velocity: 81
@40890 Channel: 1 Note on, C4 key=60 velocity: 81
@40916 Channel: 1 Note on, C4 key=60 velocity: 0
@40921 Channel: 1 Note on, F4 key=65 velocity: 0
@40923 Channel: 1 Note on, A3 key=57 velocity: 0
@40950 Channel: 1 Note on, A3 key=57 velocity: 81
@40950 Channel: 1 Note on, F4 key=65 velocity: 81
@40950 Channel: 1 Note on, C4 key=60 velocity: 81
@40965 Channel: 1 Note on, C4 key=60 velocity: 0
@40968 Channel: 1 Note on, A3 key=57 velocity: 0
@40970 Channel: 1 Note on, F4 key=65 velocity: 0
@40980 Channel: 1 Note on, F4 key=65 velocity: 81
@40980 Channel: 1 Note on, A3 key=57 velocity: 81
@40980 Channel: 1 Note on, C4 key=60 velocity: 81
@41010 Channel: 1 Note on, C4 key=60 velocity: 0
@41013 Channel: 1 Note on, F4 key=65 velocity: 0
@41015 Channel: 1 Note on, A3 key=57 velocity: 0
@41040 Channel: 1 Note on, C4 key=60 velocity: 81
@41040 Channel: 1 Note on, F4 key=65 velocity: 81
@41040 Channel: 1 Note on, G3 key=55 velocity: 81
@41040 Channel: 1 Command:176
@41040 Channel: 1 Command:176
@41066 Channel: 1 Note on, G3 key=55 velocity: 0
@41069 Channel: 1 Note on, C4 key=60 velocity: 0
@41071 Channel: 1 Note on, F4 key=65 velocity: 0
@41100 Channel: 1 Note on, C4 key=60 velocity: 80
@41100 Channel: 1 Note on, G3 key=55 velocity: 80
@41100 Channel: 1 Note on, F4 key=65 velocity: 80
@41118 Channel: 1 Note on, F4 key=65 velocity: 0
@41118 Channel: 1 Note on, G3 key=55 velocity: 0
@41118 Channel: 1 Note on, C4 key=60 velocity: 0
@41130 Channel: 1 Note on, F4 key=65 velocity: 80
@41130 Channel: 1 Note on, G3 key=55 velocity: 80
@41130 Channel: 1 Note on, C4 key=60 velocity: 80
@41161 Channel: 1 Note on, C4 key=60 velocity: 0
@41163 Channel: 1 Note on, G3 key=55 velocity: 0
@41163 Channel: 1 Note on, F4 key=65 velocity: 0
@41190 Channel: 1 Note on, C4 key=60 velocity: 80
@41190 Channel: 1 Note on, F4 key=65 velocity: 80
@41190 Channel: 1 Note on, G3 key=55 velocity: 80
@41208 Channel: 1 Note on, G3 key=55 velocity: 0
@41208 Channel: 1 Note on, C4 key=60 velocity: 0
@41210 Channel: 1 Note on, F4 key=65 velocity: 0
@41220 Channel: 1 Note on, F4 key=65 velocity: 80
@41220 Channel: 1 Note on, C4 key=60 velocity: 80
@41220 Channel: 1 Note on, G3 key=55 velocity: 80
@41247 Channel: 1 Note on, F4 key=65 velocity: 0
@41249 Channel: 1 Note on, C4 key=60 velocity: 0
@41255 Channel: 1 Note on, G3 key=55 velocity: 0
@41280 Channel: 1 Note on, B3 key=59 velocity: 81
@41280 Channel: 1 Note on, G3 key=55 velocity: 81
@41280 Channel: 1 Note on, E4 key=64 velocity: 81
@41280 Channel: 1 Command:176
@41280 Channel: 1 Command:176
@41311 Channel: 1 Note on, E4 key=64 velocity: 0
@41311 Channel: 1 Note on, B3 key=59 velocity: 0
@41313 Channel: 1 Note on, G3 key=55 velocity: 0
@41340 Channel: 1 Note on, E4 key=64 velocity: 81
@41340 Channel: 1 Note on, B3 key=59 velocity: 81
@41340 Channel: 1 Note on, G3 key=55 velocity: 81
@41353 Channel: 1 Note on, B3 key=59 velocity: 0
@41355 Channel: 1 Note on, G3 key=55 velocity: 0
@41357 Channel: 1 Note on, E4 key=64 velocity: 0
@41370 Channel: 1 Note on, E4 key=64 velocity: 81
@41370 Channel: 1 Note on, G3 key=55 velocity: 81
@41370 Channel: 1 Note on, B3 key=59 velocity: 81
@41401 Channel: 1 Note on, B3 key=59 velocity: 0
@41401 Channel: 1 Note on, G3 key=55 velocity: 0
@41403 Channel: 1 Note on, E4 key=64 velocity: 0
@41430 Channel: 1 Note on, E4 key=64 velocity: 81
@41430 Channel: 1 Note on, B3 key=59 velocity: 81
@41430 Channel: 1 Note on, G3 key=55 velocity: 81
@41443 Channel: 1 Note on, B3 key=59 velocity: 0
@41445 Channel: 1 Note on, G3 key=55 velocity: 0
@41445 Channel: 1 Note on, E4 key=64 velocity: 0
@41460 Channel: 1 Note on, G3 key=55 velocity: 81
@41460 Channel: 1 Note on, E4 key=64 velocity: 81
@41460 Channel: 1 Note on, B3 key=59 velocity: 81
@41487 Channel: 1 Note on, B3 key=59 velocity: 0
@41487 Channel: 1 Note on, E4 key=64 velocity: 0
@41491 Channel: 1 Note on, G3 key=55 velocity: 0
@41520 Channel: 1 Note on, E4 key=64 velocity: 82
@41520 Channel: 1 Note on, G3 key=55 velocity: 82
@41520 Channel: 1 Note on, B3 key=59 velocity: 82
@41520 Channel: 1 Command:176
@41520 Channel: 1 Command:176
@41555 Channel: 1 Note on, B3 key=59 velocity: 0
@41557 Channel: 1 Note on, G3 key=55 velocity: 0
@41557 Channel: 1 Note on, E4 key=64 velocity: 0
@41580 Channel: 1 Note on, G3 key=55 velocity: 82
@41580 Channel: 1 Note on, B3 key=59 velocity: 82
@41580 Channel: 1 Note on, E4 key=64 velocity: 82
@41593 Channel: 1 Note on, B3 key=59 velocity: 0
@41595 Channel: 1 Note on, E4 key=64 velocity: 0
@41595 Channel: 1 Note on, G3 key=55 velocity: 0
@41610 Channel: 1 Note on, G3 key=55 velocity: 82
@41610 Channel: 1 Note on, E4 key=64 velocity: 82
@41610 Channel: 1 Note on, B3 key=59 velocity: 82
@41636 Channel: 1 Note on, B3 key=59 velocity: 0
@41636 Channel: 1 Note on, E4 key=64 velocity: 0
@41639 Channel: 1 Note on, G3 key=55 velocity: 0
@41670 Channel: 1 Note on, B3 key=59 velocity: 82
@41670 Channel: 1 Note on, G3 key=55 velocity: 82
@41670 Channel: 1 Note on, E4 key=64 velocity: 82
@41683 Channel: 1 Note on, E4 key=64 velocity: 0
@41683 Channel: 1 Note on, B3 key=59 velocity: 0
@41687 Channel: 1 Note on, G3 key=55 velocity: 0
@41700 Channel: 1 Note on, G3 key=55 velocity: 82
@41700 Channel: 1 Note on, E4 key=64 velocity: 82
@41700 Channel: 1 Note on, B3 key=59 velocity: 82
@41731 Channel: 1 Note on, B3 key=59 velocity: 0
@41731 Channel: 1 Note on, E4 key=64 velocity: 0
@41733 Channel: 1 Note on, G3 key=55 velocity: 0
@41760 Channel: 1 Note on, A3 key=57 velocity: 82
@41760 Channel: 1 Note on, C4 key=60 velocity: 82
@41760 Channel: 1 Note on, F4 key=65 velocity: 82
@41760 Channel: 1 Command:176
@41760 Channel: 1 Command:176
@41796 Channel: 1 Note on, C4 key=60 velocity: 0
@41796 Channel: 1 Note on, A3 key=57 velocity: 0
@41798 Channel: 1 Note on, F4 key=65 velocity: 0
@41820 Channel: 1 Note on, A3 key=57 velocity: 82
@41820 Channel: 1 Note on, F4 key=65 velocity: 82
@41820 Channel: 1 Note on, C4 key=60 velocity: 82
@41833 Channel: 1 Note on, C4 key=60 velocity: 0
@41835 Channel: 1 Note on, F4 key=65 velocity: 0
@41835 Channel: 1 Note on, A3 key=57 velocity: 0
@41850 Channel: 1 Note on, F4 key=65 velocity: 82
@41850 Channel: 1 Note on, A3 key=57 velocity: 82
@41850 Channel: 1 Note on, C4 key=60 velocity: 82
@41881 Channel: 1 Note on, C4 key=60 velocity: 0
@41883 Channel: 1 Note on, A3 key=57 velocity: 0
@41883 Channel: 1 Note on, F4 key=65 velocity: 0
@41910 Channel: 1 Note on, C4 key=60 velocity: 80
@41910 Channel: 1 Note on, F4 key=65 velocity: 80
@41910 Channel: 1 Note on, A3 key=57 velocity: 80
@41925 Channel: 1 Note on, C4 key=60 velocity: 0
@41928 Channel: 1 Note on, A3 key=57 velocity: 0
@41928 Channel: 1 Note on, F4 key=65 velocity: 0
@41940 Channel: 1 Note on, F4 key=65 velocity: 80
@41940 Channel: 1 Note on, A3 key=57 velocity: 80
@41940 Channel: 1 Note on, C4 key=60 velocity: 80
@41969 Channel: 1 Note on, C4 key=60 velocity: 0
@41969 Channel: 1 Note on, A3 key=57 velocity: 0
@41973 Channel: 1 Note on, F4 key=65 velocity: 0
@42000 Channel: 1 Note on, B3 key=59 velocity: 80
@42000 Channel: 1 Note on, D4 key=62 velocity: 80
@42000 Channel: 1 Note on, G4 key=67 velocity: 80
@42000 Channel: 1 Command:176
@42000 Channel: 1 Command:176
@42036 Channel: 1 Note on, D4 key=62 velocity: 0
@42038 Channel: 1 Note on, B3 key=59 velocity: 0
@42040 Channel: 1 Note on, G4 key=67 velocity: 0
@42060 Channel: 1 Note on, G4 key=67 velocity: 80
@42060 Channel: 1 Note on, B3 key=59 velocity: 80
@42060 Channel: 1 Note on, D4 key=62 velocity: 80
@42073 Channel: 1 Note on, D4 key=62 velocity: 0
@42073 Channel: 1 Note on, B3 key=59 velocity: 0
@42080 Channel: 1 Note on, G4 key=67 velocity: 0
@42090 Channel: 1 Note on, G4 key=67 velocity: 80
@42090 Channel: 1 Note on, D4 key=62 velocity: 80
@42090 Channel: 1 Note on, B3 key=59 velocity: 80
@42123 Channel: 1 Note on, B3 key=59 velocity: 0
@42123 Channel: 1 Note on, D4 key=62 velocity: 0
@42125 Channel: 1 Note on, G4 key=67 velocity: 0
@42150 Channel: 1 Note on, G4 key=67 velocity: 79
@42150 Channel: 1 Note on, D4 key=62 velocity: 79
@42150 Channel: 1 Note on, B3 key=59 velocity: 79
@42165 Channel: 1 Note on, B3 key=59 velocity: 0
@42165 Channel: 1 Note on, D4 key=62 velocity: 0
@42165 Channel: 1 Note on, G4 key=67 velocity: 0
@42180 Channel: 1 Note on, B3 key=59 velocity: 79
@42180 Channel: 1 Note on, G4 key=67 velocity: 79
@42180 Channel: 1 Note on, D4 key=62 velocity: 79
@42180 Channel: 1 Note on, F4 key=65 velocity: 79
@42191 Channel: 1 Note on, F4 key=65 velocity: 0
@42226 Channel: 1 Note on, B3 key=59 velocity: 0
@42226 Channel: 1 Note on, G4 key=67 velocity: 0
@42226 Channel: 1 Note on, D4 key=62 velocity: 0
@42240 Channel: 1 Note on, C4 key=60 velocity: 78
@42240 Channel: 1 Note on, G3 key=55 velocity: 78
@42240 Channel: 1 Note on, E4 key=64 velocity: 78
@42240 Channel: 1 Command:176
@42240 Channel: 1 Command:176
@42290 Channel: 1 Note on, E4 key=64 velocity: 0
@42290 Channel: 1 Note on, G3 key=55 velocity: 0
@42290 Channel: 1 Note on, C4 key=60 velocity: 0
@42300 Channel: 1 Note on, E4 key=64 velocity: 78
@42300 Channel: 1 Note on, G3 key=55 velocity: 78
@42300 Channel: 1 Note on, C4 key=60 velocity: 78
@42320 Channel: 1 Note on, C4 key=60 velocity: 0
@42320 Channel: 1 Note on, G3 key=55 velocity: 0
@42320 Channel: 1 Note on, E4 key=64 velocity: 0
@42330 Channel: 1 Note on, C4 key=60 velocity: 79
@42330 Channel: 1 Note on, G3 key=55 velocity: 79
@42330 Channel: 1 Note on, E4 key=64 velocity: 79
@42380 Channel: 1 Note on, E4 key=64 velocity: 0
@42380 Channel: 1 Note on, G3 key=55 velocity: 0
@42380 Channel: 1 Note on, C4 key=60 velocity: 0
@42390 Channel: 1 Note on, G3 key=55 velocity: 79
@42390 Channel: 1 Note on, C4 key=60 velocity: 79
@42390 Channel: 1 Note on, E4 key=64 velocity: 79
@42410 Channel: 1 Note on, E4 key=64 velocity: 0
@42410 Channel: 1 Note on, C4 key=60 velocity: 0
@42410 Channel: 1 Note on, G3 key=55 velocity: 0
@42420 Channel: 1 Note on, G3 key=55 velocity: 79
@42420 Channel: 1 Note on, C4 key=60 velocity: 79
@42420 Channel: 1 Note on, E4 key=64 velocity: 79
@42470 Channel: 1 Note on, E4 key=64 velocity: 0
@42470 Channel: 1 Note on, C4 key=60 velocity: 0
@42470 Channel: 1 Note on, G3 key=55 velocity: 0
@42480 Channel: 1 Note on, F4 key=65 velocity: 79
@42480 Channel: 1 Note on, G3 key=55 velocity: 79
@42480 Channel: 1 Note on, C4 key=60 velocity: 79
@42480 Channel: 1 Command:176
@42480 Channel: 1 Command:176
@42530 Channel: 1 Note on, C4 key=60 velocity: 0
@42530 Channel: 1 Note on, G3 key=55 velocity: 0
@42530 Channel: 1 Note on, F4 key=65 velocity: 0
@42540 Channel: 1 Note on, G3 key=55 velocity: 80
@42540 Channel: 1 Note on, C4 key=60 velocity: 80
@42540 Channel: 1 Note on, F4 key=65 velocity: 80
@42560 Channel: 1 Note on, F4 key=65 velocity: 0
@42560 Channel: 1 Note on, C4 key=60 velocity: 0
@42560 Channel: 1 Note on, G3 key=55 velocity: 0
@42570 Channel: 1 Note on, F4 key=65 velocity: 80
@42570 Channel: 1 Note on, C4 key=60 velocity: 80
@42570 Channel: 1 Note on, G3 key=55 velocity: 80
@42620 Channel: 1 Note on, G3 key=55 velocity: 0
@42620 Channel: 1 Note on, C4 key=60 velocity: 0
@42620 Channel: 1 Note on, F4 key=65 velocity: 0
@42630 Channel: 1 Note on, G3 key=55 velocity: 80
@42630 Channel: 1 Note on, C4 key=60 velocity: 80
@42630 Channel: 1 Note on, F4 key=65 velocity: 80
@42650 Channel: 1 Note on, F4 key=65 velocity: 0
@42650 Channel: 1 Note on, C4 key=60 velocity: 0
@42650 Channel: 1 Note on, G3 key=55 velocity: 0
@42660 Channel: 1 Note on, F4 key=65 velocity: 80
@42660 Channel: 1 Note on, G3 key=55 velocity: 80
@42660 Channel: 1 Note on, C4 key=60 velocity: 80
@42710 Channel: 1 Note on, C4 key=60 velocity: 0
@42710 Channel: 1 Note on, G3 key=55 velocity: 0
@42710 Channel: 1 Note on, F4 key=65 velocity: 0
@42720 Channel: 1 Note on, C4 key=60 velocity: 80
@42720 Channel: 1 Note on, G3 key=55 velocity: 80
@42720 Channel: 1 Note on, E4 key=64 velocity: 80
@42720 Channel: 1 Command:176
@42720 Channel: 1 Command:176
@42770 Channel: 1 Note on, E4 key=64 velocity: 0
@42770 Channel: 1 Note on, G3 key=55 velocity: 0
@42770 Channel: 1 Note on, C4 key=60 velocity: 0
@42780 Channel: 1 Note on, E4 key=64 velocity: 80
@42780 Channel: 1 Note on, G3 key=55 velocity: 80
@42780 Channel: 1 Note on, C4 key=60 velocity: 80
@42800 Channel: 1 Note on, C4 key=60 velocity: 0
@42800 Channel: 1 Note on, G3 key=55 velocity: 0
@42800 Channel: 1 Note on, E4 key=64 velocity: 0
@42810 Channel: 1 Note on, C4 key=60 velocity: 80
@42810 Channel: 1 Note on, G3 key=55 velocity: 80
@42810 Channel: 1 Note on, E4 key=64 velocity: 80
@42860 Channel: 1 Note on, E4 key=64 velocity: 0
@42860 Channel: 1 Note on, G3 key=55 velocity: 0
@42860 Channel: 1 Note on, C4 key=60 velocity: 0
@42870 Channel: 1 Note on, G3 key=55 velocity: 80
@42870 Channel: 1 Note on, C4 key=60 velocity: 80
@42870 Channel: 1 Note on, E4 key=64 velocity: 80
@42890 Channel: 1 Note on, E4 key=64 velocity: 0
@42890 Channel: 1 Note on, C4 key=60 velocity: 0
@42890 Channel: 1 Note on, G3 key=55 velocity: 0
@42900 Channel: 1 Note on, G3 key=55 velocity: 80
@42900 Channel: 1 Note on, C4 key=60 velocity: 80
@42900 Channel: 1 Note on, E4 key=64 velocity: 80
@42950 Channel: 1 Note on, E4 key=64 velocity: 0
@42950 Channel: 1 Note on, C4 key=60 velocity: 0
@42950 Channel: 1 Note on, G3 key=55 velocity: 0
@42960 Channel: 1 Note on, F4 key=65 velocity: 80
@42960 Channel: 1 Note on, G3 key=55 velocity: 80
@42960 Channel: 1 Note on, C4 key=60 velocity: 80
@42960 Channel: 1 Command:176
@42960 Channel: 1 Command:176
@43010 Channel: 1 Note on, C4 key=60 velocity: 0
@43010 Channel: 1 Note on, G3 key=55 velocity: 0
@43010 Channel: 1 Note on, F4 key=65 velocity: 0
@43020 Channel: 1 Note on, G3 key=55 velocity: 80
@43020 Channel: 1 Note on, C4 key=60 velocity: 80
@43020 Channel: 1 Note on, F4 key=65 velocity: 80
@43040 Channel: 1 Note on, F4 key=65 velocity: 0
@43040 Channel: 1 Note on, C4 key=60 velocity: 0
@43040 Channel: 1 Note on, G3 key=55 velocity: 0
@43050 Channel: 1 Note on, F4 key=65 velocity: 80
@43050 Channel: 1 Note on, C4 key=60 velocity: 80
@43050 Channel: 1 Note on, G3 key=55 velocity: 80
@43100 Channel: 1 Note on, G3 key=55 velocity: 0
@43100 Channel: 1 Note on, C4 key=60 velocity: 0
@43100 Channel: 1 Note on, F4 key=65 velocity: 0
@43110 Channel: 1 Note on, G3 key=55 velocity: 80
@43110 Channel: 1 Note on, C4 key=60 velocity: 80
@43110 Channel: 1 Note on, F4 key=65 velocity: 80
@43130 Channel: 1 Note on, F4 key=65 velocity: 0
@43130 Channel: 1 Note on, C4 key=60 velocity: 0
@43130 Channel: 1 Note on, G3 key=55 velocity: 0
@43140 Channel: 1 Note on, F4 key=65 velocity: 80
@43140 Channel: 1 Note on, G3 key=55 velocity: 80
@43140 Channel: 1 Note on, C4 key=60 velocity: 80
@43190 Channel: 1 Note on, C4 key=60 velocity: 0
@43190 Channel: 1 Note on, G3 key=55 velocity: 0
@43190 Channel: 1 Note on, F4 key=65 velocity: 0
@43200 Channel: 1 Note on, C4 key=60 velocity: 80
@43200 Channel: 1 Note on, G3 key=55 velocity: 80
@43200 Channel: 1 Note on, E4 key=64 velocity: 80
@43200 Channel: 1 Command:176
@43200 Channel: 1 Command:176
@43250 Channel: 1 Note on, E4 key=64 velocity: 0
@43250 Channel: 1 Note on, G3 key=55 velocity: 0
@43250 Channel: 1 Note on, C4 key=60 velocity: 0
@43260 Channel: 1 Note on, E4 key=64 velocity: 80
@43260 Channel: 1 Note on, G3 key=55 velocity: 80
@43260 Channel: 1 Note on, C4 key=60 velocity: 80
@43280 Channel: 1 Note on, C4 key=60 velocity: 0
@43280 Channel: 1 Note on, G3 key=55 velocity: 0
@43280 Channel: 1 Note on, E4 key=64 velocity: 0
@43290 Channel: 1 Note on, C4 key=60 velocity: 81
@43290 Channel: 1 Note on, G3 key=55 velocity: 81
@43290 Channel: 1 Note on, E4 key=64 velocity: 81
@43340 Channel: 1 Note on, E4 key=64 velocity: 0
@43340 Channel: 1 Note on, G3 key=55 velocity: 0
@43340 Channel: 1 Note on, C4 key=60 velocity: 0
@43350 Channel: 1 Note on, G3 key=55 velocity: 81
@43350 Channel: 1 Note on, C4 key=60 velocity: 81
@43350 Channel: 1 Note on, E4 key=64 velocity: 81
@43370 Channel: 1 Note on, E4 key=64 velocity: 0
@43370 Channel: 1 Note on, C4 key=60 velocity: 0
@43370 Channel: 1 Note on, G3 key=55 velocity: 0
@43380 Channel: 1 Note on, G3 key=55 velocity: 81
@43380 Channel: 1 Note on, C4 key=60 velocity: 81
@43380 Channel: 1 Note on, E4 key=64 velocity: 81
@43430 Channel: 1 Note on, E4 key=64 velocity: 0
@43430 Channel: 1 Note on, C4 key=60 velocity: 0
@43430 Channel: 1 Note on, G3 key=55 velocity: 0
@43440 Channel: 1 Note on, F4 key=65 velocity: 81
@43440 Channel: 1 Note on, G3 key=55 velocity: 81
@43440 Channel: 1 Note on, C4 key=60 velocity: 81
@43440 Channel: 1 Command:176
@43440 Channel: 1 Command:176
@43490 Channel: 1 Note on, C4 key=60 velocity: 0
@43490 Channel: 1 Note on, G3 key=55 velocity: 0
@43490 Channel: 1 Note on, F4 key=65 velocity: 0
@43500 Channel: 1 Note on, G3 key=55 velocity: 81
@43500 Channel: 1 Note on, C4 key=60 velocity: 81
@43500 Channel: 1 Note on, F4 key=65 velocity: 81
@43520 Channel: 1 Note on, F4 key=65 velocity: 0
@43520 Channel: 1 Note on, C4 key=60 velocity: 0
@43520 Channel: 1 Note on, G3 key=55 velocity: 0
@43530 Channel: 1 Note on, F4 key=65 velocity: 81
@43530 Channel: 1 Note on, C4 key=60 velocity: 81
@43530 Channel: 1 Note on, G3 key=55 velocity: 81
@43580 Channel: 1 Note on, G3 key=55 velocity: 0
@43580 Channel: 1 Note on, C4 key=60 velocity: 0
@43580 Channel: 1 Note on, F4 key=65 velocity: 0
@43590 Channel: 1 Note on, G3 key=55 velocity: 81
@43590 Channel: 1 Note on, C4 key=60 velocity: 81
@43590 Channel: 1 Note on, F4 key=65 velocity: 81
@43610 Channel: 1 Note on, F4 key=65 velocity: 0
@43610 Channel: 1 Note on, C4 key=60 velocity: 0
@43610 Channel: 1 Note on, G3 key=55 velocity: 0
@43620 Channel: 1 Note on, F4 key=65 velocity: 81
@43620 Channel: 1 Note on, G3 key=55 velocity: 81
@43620 Channel: 1 Note on, C4 key=60 velocity: 81
@43670 Channel: 1 Note on, C4 key=60 velocity: 0
@43670 Channel: 1 Note on, G3 key=55 velocity: 0
@43670 Channel: 1 Note on, F4 key=65 velocity: 0
@43680 Channel: 1 Note on, C4 key=60 velocity: 80
@43680 Channel: 1 Note on, G3 key=55 velocity: 80
@43680 Channel: 1 Note on, E4 key=64 velocity: 80
@43680 Channel: 1 Command:176
@43680 Channel: 1 Command:176
@43730 Channel: 1 Note on, E4 key=64 velocity: 0
@43730 Channel: 1 Note on, G3 key=55 velocity: 0
@43730 Channel: 1 Note on, C4 key=60 velocity: 0
@43740 Channel: 1 Note on, E4 key=64 velocity: 80
@43740 Channel: 1 Note on, G3 key=55 velocity: 80
@43740 Channel: 1 Note on, C4 key=60 velocity: 80
@43760 Channel: 1 Note on, C4 key=60 velocity: 0
@43760 Channel: 1 Note on, G3 key=55 velocity: 0
@43760 Channel: 1 Note on, E4 key=64 velocity: 0
@43770 Channel: 1 Note on, C4 key=60 velocity: 81
@43770 Channel: 1 Note on, G3 key=55 velocity: 81
@43770 Channel: 1 Note on, E4 key=64 velocity: 81
@43820 Channel: 1 Note on, E4 key=64 velocity: 0
@43820 Channel: 1 Note on, G3 key=55 velocity: 0
@43820 Channel: 1 Note on, C4 key=60 velocity: 0
@43830 Channel: 1 Note on, G3 key=55 velocity: 81
@43830 Channel: 1 Note on, C4 key=60 velocity: 81
@43830 Channel: 1 Note on, E4 key=64 velocity: 81
@43850 Channel: 1 Note on, E4 key=64 velocity: 0
@43850 Channel: 1 Note on, C4 key=60 velocity: 0
@43850 Channel: 1 Note on, G3 key=55 velocity: 0
@43860 Channel: 1 Note on, G3 key=55 velocity: 81
@43860 Channel: 1 Note on, C4 key=60 velocity: 81
@43860 Channel: 1 Note on, E4 key=64 velocity: 81
@43910 Channel: 1 Note on, E4 key=64 velocity: 0
@43910 Channel: 1 Note on, C4 key=60 velocity: 0
@43910 Channel: 1 Note on, G3 key=55 velocity: 0
@43920 Channel: 1 Note on, F4 key=65 velocity: 81
@43920 Channel: 1 Note on, G3 key=55 velocity: 81
@43920 Channel: 1 Note on, C4 key=60 velocity: 81
@43920 Channel: 1 Command:176
@43920 Channel: 1 Command:176
@43970 Channel: 1 Note on, C4 key=60 velocity: 0
@43970 Channel: 1 Note on, G3 key=55 velocity: 0
@43970 Channel: 1 Note on, F4 key=65 velocity: 0
@43980 Channel: 1 Note on, G3 key=55 velocity: 81
@43980 Channel: 1 Note on, C4 key=60 velocity: 81
@43980 Channel: 1 Note on, F4 key=65 velocity: 81
@44000 Channel: 1 Note on, F4 key=65 velocity: 0
@44000 Channel: 1 Note on, C4 key=60 velocity: 0
@44000 Channel: 1 Note on, G3 key=55 velocity: 0
@44010 Channel: 1 Note on, F4 key=65 velocity: 81
@44010 Channel: 1 Note on, C4 key=60 velocity: 81
@44010 Channel: 1 Note on, G3 key=55 velocity: 81
@44060 Channel: 1 Note on, G3 key=55 velocity: 0
@44060 Channel: 1 Note on, C4 key=60 velocity: 0
@44060 Channel: 1 Note on, F4 key=65 velocity: 0
@44070 Channel: 1 Note on, G3 key=55 velocity: 81
@44070 Channel: 1 Note on, C4 key=60 velocity: 81
@44070 Channel: 1 Note on, F4 key=65 velocity: 81
@44090 Channel: 1 Note on, F4 key=65 velocity: 0
@44090 Channel: 1 Note on, C4 key=60 velocity: 0
@44090 Channel: 1 Note on, G3 key=55 velocity: 0
@44100 Channel: 1 Note on, F4 key=65 velocity: 81
@44100 Channel: 1 Note on, G3 key=55 velocity: 81
@44100 Channel: 1 Note on, C4 key=60 velocity: 81
@44150 Channel: 1 Note on, C4 key=60 velocity: 0
@44150 Channel: 1 Note on, G3 key=55 velocity: 0
@44150 Channel: 1 Note on, F4 key=65 velocity: 0
@44160 Channel: 1 Note on, C3 key=48 velocity: 119
@44220 Channel: 1 Note on, C3 key=48 velocity: 0
@44220 Channel: 1 Note on, G3 key=55 velocity: 119
@44278 Channel: 1 Note on, G3 key=55 velocity: 0
@44280 Channel: 1 Note on, E4 key=64 velocity: 121
@44340 Channel: 1 Note on, E4 key=64 velocity: 0
@44340 Channel: 1 Note on, G3 key=55 velocity: 121
@44400 Channel: 1 Note on, D4 key=62 velocity: 121
@44402 Channel: 1 Note on, G3 key=55 velocity: 0
@44458 Channel: 1 Note on, D4 key=62 velocity: 0
@44460 Channel: 1 Note on, C4 key=60 velocity: 121
@44520 Channel: 1 Note on, G3 key=55 velocity: 121
@44524 Channel: 1 Note on, C4 key=60 velocity: 0
@44577 Channel: 1 Note on, G3 key=55 velocity: 0
@44580 Channel: 1 Note on, C3 key=48 velocity: 121
@44634 Channel: 1 Note on, C3 key=48 velocity: 0
@44640 Channel: 1 Command:176
@44681 Channel: 1 Command:176
@44700 Channel: 1 Note on, G3 key=55 velocity: 121
@44723 Channel: 1 Command:176
@44752 Channel: 1 Note on, G3 key=55 velocity: 0
@44760 Channel: 1 Note on, E4 key=64 velocity: 121
@44765 Channel: 1 Command:176
@44807 Channel: 1 Command:176
@44818 Channel: 1 Note on, E4 key=64 velocity: 0
@44820 Channel: 1 Note on, G3 key=55 velocity: 121
@44849 Channel: 1 Command:176
@44880 Channel: 1 Note on, D4 key=62 velocity: 121
@44882 Channel: 1 Note on, G3 key=55 velocity: 0
@44891 Channel: 1 Command:176
@44933 Channel: 1 Command:176
@44939 Channel: 1 Note on, D4 key=62 velocity: 0
@44940 Channel: 1 Note on, C4 key=60 velocity: 121
@44975 Channel: 1 Command:176
@44998 Channel: 1 Note on, C4 key=60 velocity: 0
@45000 Channel: 1 Note on, G3 key=55 velocity: 121
@45017 Channel: 1 Command:176
@45059 Channel: 1 Command:176
@45060 Channel: 1 Note on, C4 key=60 velocity: 121
@45064 Channel: 1 Note on, G3 key=55 velocity: 0
@45101 Channel: 1 Command:176
@45112 Channel: 1 Note on, C4 key=60 velocity: 0
@45120 Channel: 1 Note on, C3 key=48 velocity: 121
@45143 Channel: 1 Command:176
@45180 Channel: 1 Note on, C3 key=48 velocity: 0
@45180 Channel: 1 Note on, G3 key=55 velocity: 121
@45185 Channel: 1 Command:176
@45227 Channel: 1 Command:176
@45238 Channel: 1 Note on, G3 key=55 velocity: 0
@45240 Channel: 1 Note on, E4 key=64 velocity: 121
@45269 Channel: 1 Command:176
@45300 Channel: 1 Note on, E4 key=64 velocity: 0
@45300 Channel: 1 Note on, G3 key=55 velocity: 122
@45311 Channel: 1 Command:176
@45353 Channel: 1 Command:176
@45360 Channel: 1 Note on, D4 key=62 velocity: 122
@45364 Channel: 1 Note on, G3 key=55 velocity: 0
@45395 Channel: 1 Command:176
@45411 Channel: 1 Note on, D4 key=62 velocity: 0
@45420 Channel: 1 Note on, C4 key=60 velocity: 122
@45437 Channel: 1 Command:176
@45479 Channel: 1 Command:176
@45480 Channel: 1 Note on, C4 key=60 velocity: 0
@45480 Channel: 1 Note on, G3 key=55 velocity: 122
@45521 Channel: 1 Command:176
@45540 Channel: 1 Note on, G3 key=55 velocity: 0
@45540 Channel: 1 Note on, C3 key=48 velocity: 120
@45563 Channel: 1 Command:176
@45594 Channel: 1 Note on, C3 key=48 velocity: 0
@45605 Channel: 1 Command:176
@45647 Channel: 1 Command:176
@45660 Channel: 1 Note on, G3 key=55 velocity: 120
@45689 Channel: 1 Command:176
@45720 Channel: 1 Note on, E4 key=64 velocity: 120
@45721 Channel: 1 Note on, G3 key=55 velocity: 0
@45731 Channel: 1 Command:176
@45773 Channel: 1 Command:176
@45777 Channel: 1 Note on, E4 key=64 velocity: 0
@45780 Channel: 1 Note on, G3 key=55 velocity: 120
@45815 Channel: 1 Command:176
@45840 Channel: 1 Note on, G3 key=55 velocity: 0
@45840 Channel: 1 Note on, D4 key=62 velocity: 120
@45857 Channel: 1 Command:176
@45899 Channel: 1 Command:176
@45900 Channel: 1 Note on, D4 key=62 velocity: 0
@45900 Channel: 1 Note on, C4 key=60 velocity: 120
@45941 Channel: 1 Command:176
@45954 Channel: 1 Note on, C4 key=60 velocity: 0
@45960 Channel: 1 Note on, G3 key=55 velocity: 120
@45983 Channel: 1 Command:176
@46020 Channel: 1 Note on, C4 key=60 velocity: 122
@46025 Channel: 1 Command:176
@46030 Channel: 1 Note on, G3 key=55 velocity: 0
@46059 Channel: 1 Note on, C4 key=60 velocity: 0
@46067 Channel: 1 Command:176
@46080 Channel: 1 Note on, C3 key=48 velocity: 119
@46109 Channel: 1 Command:176
@46140 Channel: 1 Note on, C3 key=48 velocity: 0
@46140 Channel: 1 Note on, G3 key=55 velocity: 119
@46151 Channel: 1 Command:176
@46193 Channel: 1 Command:176
@46198 Channel: 1 Note on, G3 key=55 velocity: 0
@46200 Channel: 1 Note on, E4 key=64 velocity: 121
@46235 Channel: 1 Command:176
@46260 Channel: 1 Note on, E4 key=64 velocity: 0
@46260 Channel: 1 Note on, G3 key=55 velocity: 121
@46277 Channel: 1 Command:176
@46319 Channel: 1 Command:176
@46320 Channel: 1 Note on, D4 key=62 velocity: 121
@46322 Channel: 1 Note on, G3 key=55 velocity: 0
@46361 Channel: 1 Command:176
@46378 Channel: 1 Note on, D4 key=62 velocity: 0
@46380 Channel: 1 Note on, C4 key=60 velocity: 121
@46403 Channel: 1 Command:176
@46440 Channel: 1 Note on, G3 key=55 velocity: 121
@46444 Channel: 1 Note on, C4 key=60 velocity: 0
@46445 Channel: 1 Command:176
@46487 Channel: 1 Command:176
@46497 Channel: 1 Note on, G3 key=55 velocity: 0
@46500 Channel: 1 Note on, C3 key=48 velocity: 121
@46529 Channel: 1 Command:176
@46554 Channel: 1 Note on, C3 key=48 velocity: 0
@46571 Channel: 1 Command:176
@46613 Channel: 1 Command:176
@46620 Channel: 1 Note on, G3 key=55 velocity: 121
@46655 Channel: 1 Command:176
@46672 Channel: 1 Note on, G3 key=55 velocity: 0
@46680 Channel: 1 Note on, E4 key=64 velocity: 121
@46697 Channel: 1 Command:176
@46738 Channel: 1 Note on, E4 key=64 velocity: 0
@46739 Channel: 1 Command:176
@46740 Channel: 1 Note on, G3 key=55 velocity: 121
@46781 Channel: 1 Command:176
@46800 Channel: 1 Note on, D4 key=62 velocity: 121
@46802 Channel: 1 Note on, G3 key=55 velocity: 0
@46823 Channel: 1 Command:176
@46859 Channel: 1 Note on, D4 key=62 velocity: 0
@46860 Channel: 1 Note on, C4 key=60 velocity: 121
@46865 Channel: 1 Command:176
@46907 Channel: 1 Command:176
@46918 Channel: 1 Note on, C4 key=60 velocity: 0
@46920 Channel: 1 Note on, G3 key=55 velocity: 121
@46949 Channel: 1 Command:176
@46980 Channel: 1 Note on, C4 key=60 velocity: 121
@46984 Channel: 1 Note on, G3 key=55 velocity: 0
@46991 Channel: 1 Command:176
@47032 Channel: 1 Note on, C4 key=60 velocity: 0
@47033 Channel: 1 Command:176
@47040 Channel: 1 Note on, C3 key=48 velocity: 121
@47075 Channel: 1 Command:176
@47100 Channel: 1 Note on, C3 key=48 velocity: 0
@47100 Channel: 1 Note on, G3 key=55 velocity: 121
@47117 Channel: 1 Command:176
@47158 Channel: 1 Note on, G3 key=55 velocity: 0
@47159 Channel: 1 Command:176
@47160 Channel: 1 Note on, E4 key=64 velocity: 121
@47201 Channel: 1 Command:176
@47220 Channel: 1 Note on, E4 key=64 velocity: 0
@47220 Channel: 1 Note on, G3 key=55 velocity: 122
@47243 Channel: 1 Command:176
@47280 Channel: 1 Note on, D4 key=62 velocity: 122
@47284 Channel: 1 Note on, G3 key=55 velocity: 0
@47285 Channel: 1 Command:176
@47327 Channel: 1 Command:176
@47331 Channel: 1 Note on, D4 key=62 velocity: 0
@47340 Channel: 1 Note on, C4 key=60 velocity: 122
@47369 Channel: 1 Command:176
@47400 Channel: 1 Note on, C4 key=60 velocity: 0
@47400 Channel: 1 Note on, G3 key=55 velocity: 122
@47411 Channel: 1 Command:176
@47453 Channel: 1 Command:176
@47460 Channel: 1 Note on, G3 key=55 velocity: 0
@47460 Channel: 1 Note on, C3 key=48 velocity: 120
@47495 Channel: 1 Command:176
@47514 Channel: 1 Note on, C3 key=48 velocity: 0
@47537 Channel: 1 Command:176
@47579 Channel: 1 Command:176
@47580 Channel: 1 Note on, G3 key=55 velocity: 120
@47621 Channel: 1 Command:176
@47640 Channel: 1 Note on, E4 key=64 velocity: 120
@47641 Channel: 1 Note on, G3 key=55 velocity: 0
@47663 Channel: 1 Command:176
@47697 Channel: 1 Note on, E4 key=64 velocity: 0
@47700 Channel: 1 Note on, G3 key=55 velocity: 120
@47705 Channel: 1 Command:176
@47747 Channel: 1 Command:176
@47760 Channel: 1 Note on, G3 key=55 velocity: 0
@47760 Channel: 1 Note on, D4 key=62 velocity: 120
@47789 Channel: 1 Command:176
@47820 Channel: 1 Note on, D4 key=62 velocity: 0
@47820 Channel: 1 Note on, C4 key=60 velocity: 120
@47831 Channel: 1 Command:176
@47873 Channel: 1 Command:176
@47874 Channel: 1 Note on, C4 key=60 velocity: 0
@47880 Channel: 1 Note on, G3 key=55 velocity: 120
@47915 Channel: 1 Command:176
@47940 Channel: 1 Note on, C4 key=60 velocity: 122
@47950 Channel: 1 Note on, G3 key=55 velocity: 0
@47957 Channel: 1 Command:176
@47979 Channel: 1 Note on, C4 key=60 velocity: 0
@47990 Channel: 1 Command:176
@47999 Channel: 1 Command:176
@47999 Other message: class javax.sound.midi.Track$ImmutableEndOfTrack

Track 5: size = 140

@0 Other message: class javax.sound.midi.MetaMessage
@0 Other message: class javax.sound.midi.MetaMessage
@0 Channel: 6 Command:192
@0 Channel: 6 Command:176
@0 Channel: 6 Command:176
@20 Channel: 6 Command:176
@20 Channel: 6 Command:176
@5760 Channel: 6 Note on, E3 key=52 velocity: 100
@5969 Channel: 6 Note on, E3 key=52 velocity: 0
@6000 Channel: 6 Note on, F3 key=53 velocity: 100
@6209 Channel: 6 Note on, F3 key=53 velocity: 0
@6240 Channel: 6 Note on, G3 key=55 velocity: 100
@6479 Channel: 6 Note on, G3 key=55 velocity: 0
@6480 Channel: 6 Note on, C3 key=48 velocity: 100
@6689 Channel: 6 Note on, C3 key=48 velocity: 0
@6720 Channel: 6 Note on, G3 key=55 velocity: 100
@7169 Channel: 6 Note on, G3 key=55 velocity: 0
@7200 Channel: 6 Note on, D3 key=50 velocity: 100
@7649 Channel: 6 Note on, D3 key=50 velocity: 0
@7680 Channel: 6 Note on, A3 key=57 velocity: 100
@7919 Channel: 6 Note on, A3 key=57 velocity: 0
@7920 Channel: 6 Note on, C4 key=60 velocity: 100
@8129 Channel: 6 Note on, C4 key=60 velocity: 0
@8160 Channel: 6 Note on, D4 key=62 velocity: 100
@8369 Channel: 6 Note on, D4 key=62 velocity: 0
@8400 Channel: 6 Note on, E4 key=64 velocity: 100
@8609 Channel: 6 Note on, E4 key=64 velocity: 0
@8640 Channel: 6 Note on, D4 key=62 velocity: 100
@9569 Channel: 6 Note on, D4 key=62 velocity: 0
@9600 Channel: 6 Note on, C4 key=60 velocity: 68
@10539 Channel: 6 Note on, C4 key=60 velocity: 0
@10560 Channel: 6 Note on, C4 key=60 velocity: 68
@11497 Channel: 6 Note on, C4 key=60 velocity: 0
@11520 Channel: 6 Note on, A3 key=57 velocity: 68
@12451 Channel: 6 Note on, A3 key=57 velocity: 0
@12480 Channel: 6 Note on, G3 key=55 velocity: 68
@12947 Channel: 6 Note on, G3 key=55 velocity: 0
@12960 Channel: 6 Note on, A3 key=57 velocity: 68
@13195 Channel: 6 Note on, A3 key=57 velocity: 0
@13200 Channel: 6 Note on, B3 key=59 velocity: 68
@13425 Channel: 6 Note on, B3 key=59 velocity: 0
@13440 Channel: 6 Note on, C4 key=60 velocity: 68
@14400 Channel: 6 Note on, C4 key=60 velocity: 0
@19200 Channel: 6 Note on, E3 key=52 velocity: 100
@19409 Channel: 6 Note on, E3 key=52 velocity: 0
@19440 Channel: 6 Note on, F3 key=53 velocity: 100
@19649 Channel: 6 Note on, F3 key=53 velocity: 0
@19680 Channel: 6 Note on, G3 key=55 velocity: 100
@19919 Channel: 6 Note on, G3 key=55 velocity: 0
@19920 Channel: 6 Note on, C3 key=48 velocity: 100
@20129 Channel: 6 Note on, C3 key=48 velocity: 0
@20160 Channel: 6 Note on, G3 key=55 velocity: 100
@20609 Channel: 6 Note on, G3 key=55 velocity: 0
@20640 Channel: 6 Note on, D3 key=50 velocity: 100
@21089 Channel: 6 Note on, D3 key=50 velocity: 0
@21120 Channel: 6 Note on, A3 key=57 velocity: 100
@21359 Channel: 6 Note on, A3 key=57 velocity: 0
@21360 Channel: 6 Note on, C4 key=60 velocity: 100
@21569 Channel: 6 Note on, C4 key=60 velocity: 0
@21600 Channel: 6 Note on, D4 key=62 velocity: 100
@21809 Channel: 6 Note on, D4 key=62 velocity: 0
@21840 Channel: 6 Note on, E4 key=64 velocity: 100
@22049 Channel: 6 Note on, E4 key=64 velocity: 0
@22080 Channel: 6 Note on, D4 key=62 velocity: 100
@23009 Channel: 6 Note on, D4 key=62 velocity: 0
@23040 Channel: 6 Note on, C4 key=60 velocity: 68
@23979 Channel: 6 Note on, C4 key=60 velocity: 0
@24000 Channel: 6 Note on, C4 key=60 velocity: 68
@24937 Channel: 6 Note on, C4 key=60 velocity: 0
@24960 Channel: 6 Note on, A3 key=57 velocity: 68
@25891 Channel: 6 Note on, A3 key=57 velocity: 0
@25920 Channel: 6 Note on, G3 key=55 velocity: 68
@26387 Channel: 6 Note on, G3 key=55 velocity: 0
@26400 Channel: 6 Note on, A3 key=57 velocity: 68
@26635 Channel: 6 Note on, A3 key=57 velocity: 0
@26640 Channel: 6 Note on, B3 key=59 velocity: 68
@26865 Channel: 6 Note on, B3 key=59 velocity: 0
@26880 Channel: 6 Note on, C4 key=60 velocity: 68
@27840 Channel: 6 Note on, C4 key=60 velocity: 0
@28800 Channel: 6 Note on, A#3 key=58 velocity: 103
@29277 Channel: 6 Note on, A#3 key=58 velocity: 0
@29280 Channel: 6 Note on, F3 key=53 velocity: 103
@29748 Channel: 6 Note on, F3 key=53 velocity: 0
@29760 Channel: 6 Note on, G3 key=55 velocity: 103
@30000 Channel: 6 Note on, B3 key=59 velocity: 103
@30001 Channel: 6 Note on, G3 key=55 velocity: 0
@30240 Channel: 6 Note on, D4 key=62 velocity: 103
@30242 Channel: 6 Note on, B3 key=59 velocity: 0
@30480 Channel: 6 Note on, D4 key=62 velocity: 0
@30480 Channel: 6 Note on, F4 key=65 velocity: 103
@30715 Channel: 6 Note on, F4 key=65 velocity: 0
@30720 Channel: 6 Note on, E3 key=52 velocity: 100
@30929 Channel: 6 Note on, E3 key=52 velocity: 0
@30960 Channel: 6 Note on, F3 key=53 velocity: 100
@31169 Channel: 6 Note on, F3 key=53 velocity: 0
@31200 Channel: 6 Note on, G3 key=55 velocity: 100
@31439 Channel: 6 Note on, G3 key=55 velocity: 0
@31440 Channel: 6 Note on, C3 key=48 velocity: 100
@31649 Channel: 6 Note on, C3 key=48 velocity: 0
@31680 Channel: 6 Note on, G3 key=55 velocity: 100
@32129 Channel: 6 Note on, G3 key=55 velocity: 0
@32160 Channel: 6 Note on, D3 key=50 velocity: 100
@32609 Channel: 6 Note on, D3 key=50 velocity: 0
@32640 Channel: 6 Note on, A3 key=57 velocity: 100
@32879 Channel: 6 Note on, A3 key=57 velocity: 0
@32880 Channel: 6 Note on, C4 key=60 velocity: 100
@33089 Channel: 6 Note on, C4 key=60 velocity: 0
@33120 Channel: 6 Note on, D4 key=62 velocity: 100
@33329 Channel: 6 Note on, D4 key=62 velocity: 0
@33360 Channel: 6 Note on, E4 key=64 velocity: 100
@33569 Channel: 6 Note on, E4 key=64 velocity: 0
@33600 Channel: 6 Note on, D4 key=62 velocity: 100
@34529 Channel: 6 Note on, D4 key=62 velocity: 0
@34560 Channel: 6 Note on, C4 key=60 velocity: 68
@35499 Channel: 6 Note on, C4 key=60 velocity: 0
@35520 Channel: 6 Note on, C4 key=60 velocity: 68
@36457 Channel: 6 Note on, C4 key=60 velocity: 0
@36480 Channel: 6 Note on, A3 key=57 velocity: 68
@37411 Channel: 6 Note on, A3 key=57 velocity: 0
@37440 Channel: 6 Note on, G3 key=55 velocity: 68
@37907 Channel: 6 Note on, G3 key=55 velocity: 0
@37920 Channel: 6 Note on, A3 key=57 velocity: 68
@38155 Channel: 6 Note on, A3 key=57 velocity: 0
@38160 Channel: 6 Note on, B3 key=59 velocity: 68
@38385 Channel: 6 Note on, B3 key=59 velocity: 0
@38400 Channel: 6 Note on, C4 key=60 velocity: 68
@39339 Channel: 6 Note on, C4 key=60 velocity: 0
@39360 Channel: 6 Note on, C4 key=60 velocity: 68
@40297 Channel: 6 Note on, C4 key=60 velocity: 0
@40320 Channel: 6 Note on, A3 key=57 velocity: 68
@41251 Channel: 6 Note on, A3 key=57 velocity: 0
@41280 Channel: 6 Note on, G3 key=55 velocity: 68
@41747 Channel: 6 Note on, G3 key=55 velocity: 0
@41760 Channel: 6 Note on, A3 key=57 velocity: 68
@41995 Channel: 6 Note on, A3 key=57 velocity: 0
@42000 Channel: 6 Note on, B3 key=59 velocity: 68
@42225 Channel: 6 Note on, B3 key=59 velocity: 0
@42240 Channel: 6 Note on, C4 key=60 velocity: 68
@43200 Channel: 6 Note on, C4 key=60 velocity: 0
@43200 Other message: class javax.sound.midi.Track$ImmutableEndOfTrack

Track 6: size = 64

@0 Other message: class javax.sound.midi.MetaMessage
@0 Other message: class javax.sound.midi.MetaMessage
@0 Channel: 2 Command:192
@0 Channel: 2 Command:176
@0 Channel: 2 Command:176
@30 Channel: 2 Command:176
@30 Channel: 2 Command:176
@28500 Channel: 2 Note on, C5 key=72 velocity: 127
@28500 Channel: 2 Note on, G5 key=79 velocity: 127
@28517 Channel: 2 Note on, G5 key=79 velocity: 0
@28519 Channel: 2 Note on, C5 key=72 velocity: 0
@28530 Channel: 2 Note on, C5 key=72 velocity: 127
@28530 Channel: 2 Note on, G5 key=79 velocity: 127
@28539 Channel: 2 Note on, G5 key=79 velocity: 0
@28543 Channel: 2 Note on, C5 key=72 velocity: 0
@28560 Channel: 2 Note on, G5 key=79 velocity: 127
@28560 Channel: 2 Note on, C5 key=72 velocity: 127
@28620 Channel: 2 Note on, C5 key=72 velocity: 0
@28620 Channel: 2 Note on, G5 key=79 velocity: 0
@28650 Channel: 2 Note on, C5 key=72 velocity: 127
@28650 Channel: 2 Note on, F5 key=77 velocity: 127
@28722 Channel: 2 Note on, C5 key=72 velocity: 0
@28726 Channel: 2 Note on, F5 key=77 velocity: 0
@28740 Channel: 2 Note on, E5 key=76 velocity: 127
@28740 Channel: 2 Note on, C5 key=72 velocity: 127
@28780 Channel: 2 Note on, C5 key=72 velocity: 0
@28780 Channel: 2 Note on, E5 key=76 velocity: 0
@28800 Channel: 2 Note on, D5 key=74 velocity: 127
@28800 Channel: 2 Note on, A#4 key=70 velocity: 127
@29394 Channel: 2 Note on, A#4 key=70 velocity: 0
@29406 Channel: 2 Note on, D5 key=74 velocity: 0
@29460 Channel: 2 Note on, D5 key=74 velocity: 127
@29460 Channel: 2 Note on, G5 key=79 velocity: 127
@29472 Channel: 2 Note on, G5 key=79 velocity: 0
@29474 Channel: 2 Note on, D5 key=74 velocity: 0
@29490 Channel: 2 Note on, G5 key=79 velocity: 127
@29490 Channel: 2 Note on, D5 key=74 velocity: 127
@29505 Channel: 2 Note on, D5 key=74 velocity: 0
@29505 Channel: 2 Note on, G5 key=79 velocity: 0
@29520 Channel: 2 Note on, D5 key=74 velocity: 127
@29520 Channel: 2 Note on, G5 key=79 velocity: 127
@29583 Channel: 2 Note on, G5 key=79 velocity: 0
@29585 Channel: 2 Note on, D5 key=74 velocity: 0
@29610 Channel: 2 Note on, F5 key=77 velocity: 127
@29610 Channel: 2 Note on, D5 key=74 velocity: 127
@29678 Channel: 2 Note on, D5 key=74 velocity: 0
@29682 Channel: 2 Note on, F5 key=77 velocity: 0
@29700 Channel: 2 Note on, D5 key=74 velocity: 127
@29700 Channel: 2 Note on, E5 key=76 velocity: 127
@29738 Channel: 2 Note on, D5 key=74 velocity: 0
@29740 Channel: 2 Note on, E5 key=76 velocity: 0
@29760 Channel: 2 Note on, G4 key=67 velocity: 127
@29760 Channel: 2 Note on, D5 key=74 velocity: 127
@30028 Channel: 2 Note on, D5 key=74 velocity: 0
@30032 Channel: 2 Note on, G4 key=67 velocity: 0
@30060 Channel: 2 Note on, G4 key=67 velocity: 127
@30060 Channel: 2 Note on, C5 key=72 velocity: 127
@30166 Channel: 2 Note on, C5 key=72 velocity: 0
@30166 Channel: 2 Note on, G4 key=67 velocity: 0
@30180 Channel: 2 Note on, G4 key=67 velocity: 127
@30180 Channel: 2 Note on, B4 key=71 velocity: 127
@30691 Channel: 2 Note on, B4 key=71 velocity: 0
@30691 Channel: 2 Note on, G4 key=67 velocity: 0
@30691 Other message: class javax.sound.midi.Track$ImmutableEndOfTrack

Track 7: size = 64

@0 Other message: class javax.sound.midi.MetaMessage
@0 Other message: class javax.sound.midi.MetaMessage
@0 Channel: 3 Command:192
@0 Channel: 3 Command:176
@0 Channel: 3 Command:176
@45 Channel: 3 Command:176
@45 Channel: 3 Command:176
@28500 Channel: 3 Note on, C5 key=72 velocity: 127
@28500 Channel: 3 Note on, G5 key=79 velocity: 127
@28517 Channel: 3 Note on, G5 key=79 velocity: 0
@28519 Channel: 3 Note on, C5 key=72 velocity: 0
@28530 Channel: 3 Note on, C5 key=72 velocity: 127
@28530 Channel: 3 Note on, G5 key=79 velocity: 127
@28539 Channel: 3 Note on, G5 key=79 velocity: 0
@28543 Channel: 3 Note on, C5 key=72 velocity: 0
@28560 Channel: 3 Note on, G5 key=79 velocity: 127
@28560 Channel: 3 Note on, C5 key=72 velocity: 127
@28620 Channel: 3 Note on, C5 key=72 velocity: 0
@28620 Channel: 3 Note on, G5 key=79 velocity: 0
@28650 Channel: 3 Note on, C5 key=72 velocity: 127
@28650 Channel: 3 Note on, F5 key=77 velocity: 127
@28722 Channel: 3 Note on, C5 key=72 velocity: 0
@28726 Channel: 3 Note on, F5 key=77 velocity: 0
@28740 Channel: 3 Note on, E5 key=76 velocity: 127
@28740 Channel: 3 Note on, C5 key=72 velocity: 127
@28764 Channel: 3 Note on, C5 key=72 velocity: 0
@28772 Channel: 3 Note on, E5 key=76 velocity: 0
@28800 Channel: 3 Note on, D5 key=74 velocity: 127
@28800 Channel: 3 Note on, A#4 key=70 velocity: 127
@29394 Channel: 3 Note on, A#4 key=70 velocity: 0
@29406 Channel: 3 Note on, D5 key=74 velocity: 0
@29460 Channel: 3 Note on, D5 key=74 velocity: 127
@29460 Channel: 3 Note on, G5 key=79 velocity: 127
@29472 Channel: 3 Note on, G5 key=79 velocity: 0
@29474 Channel: 3 Note on, D5 key=74 velocity: 0
@29490 Channel: 3 Note on, G5 key=79 velocity: 127
@29490 Channel: 3 Note on, D5 key=74 velocity: 127
@29505 Channel: 3 Note on, D5 key=74 velocity: 0
@29505 Channel: 3 Note on, G5 key=79 velocity: 0
@29520 Channel: 3 Note on, D5 key=74 velocity: 127
@29520 Channel: 3 Note on, G5 key=79 velocity: 127
@29583 Channel: 3 Note on, G5 key=79 velocity: 0
@29585 Channel: 3 Note on, D5 key=74 velocity: 0
@29610 Channel: 3 Note on, F5 key=77 velocity: 127
@29610 Channel: 3 Note on, D5 key=74 velocity: 127
@29678 Channel: 3 Note on, D5 key=74 velocity: 0
@29682 Channel: 3 Note on, F5 key=77 velocity: 0
@29700 Channel: 3 Note on, D5 key=74 velocity: 127
@29700 Channel: 3 Note on, E5 key=76 velocity: 127
@29738 Channel: 3 Note on, D5 key=74 velocity: 0
@29740 Channel: 3 Note on, E5 key=76 velocity: 0
@29760 Channel: 3 Note on, G4 key=67 velocity: 127
@29760 Channel: 3 Note on, D5 key=74 velocity: 127
@30028 Channel: 3 Note on, D5 key=74 velocity: 0
@30032 Channel: 3 Note on, G4 key=67 velocity: 0
@30060 Channel: 3 Note on, G4 key=67 velocity: 127
@30060 Channel: 3 Note on, C5 key=72 velocity: 127
@30166 Channel: 3 Note on, C5 key=72 velocity: 0
@30166 Channel: 3 Note on, G4 key=67 velocity: 0
@30180 Channel: 3 Note on, G4 key=67 velocity: 127
@30180 Channel: 3 Note on, B4 key=71 velocity: 127
@30691 Channel: 3 Note on, B4 key=71 velocity: 0
@30691 Channel: 3 Note on, G4 key=67 velocity: 0
@30691 Other message: class javax.sound.midi.Track$ImmutableEndOfTrack

Track 8: size = 893

@0 Other message: class javax.sound.midi.MetaMessage
@0 Other message: class javax.sound.midi.MetaMessage
@0 Channel: 9 Command:192
@0 Channel: 9 Command:176
@0 Channel: 9 Command:176
@50 Channel: 9 Command:176
@50 Channel: 9 Command:176
@960 Channel: 9 Note on, C2 key=36 velocity: 127
@1080 Channel: 9 Note on, C2 key=36 velocity: 0
@1080 Channel: 9 Note on, C2 key=36 velocity: 127
@1200 Channel: 9 Note on, C2 key=36 velocity: 0
@1200 Channel: 9 Note on, C2 key=36 velocity: 127
@1320 Channel: 9 Note on, C2 key=36 velocity: 0
@1320 Channel: 9 Note on, C2 key=36 velocity: 127
@1440 Channel: 9 Note on, C2 key=36 velocity: 0
@1440 Channel: 9 Note on, C2 key=36 velocity: 127
@1560 Channel: 9 Note on, C2 key=36 velocity: 0
@1560 Channel: 9 Note on, C2 key=36 velocity: 127
@1680 Channel: 9 Note on, C2 key=36 velocity: 0
@1680 Channel: 9 Note on, C2 key=36 velocity: 127
@1800 Channel: 9 Note on, C2 key=36 velocity: 0
@1800 Channel: 9 Note on, C2 key=36 velocity: 127
@1920 Channel: 9 Note on, C2 key=36 velocity: 0
@1920 Channel: 9 Note on, C2 key=36 velocity: 127
@2040 Channel: 9 Note on, C2 key=36 velocity: 0
@2040 Channel: 9 Note on, C2 key=36 velocity: 127
@2160 Channel: 9 Note on, C2 key=36 velocity: 0
@2160 Channel: 9 Note on, C2 key=36 velocity: 127
@2280 Channel: 9 Note on, C2 key=36 velocity: 0
@2280 Channel: 9 Note on, C2 key=36 velocity: 127
@2400 Channel: 9 Note on, C2 key=36 velocity: 0
@2400 Channel: 9 Note on, C2 key=36 velocity: 127
@2520 Channel: 9 Note on, C2 key=36 velocity: 0
@2520 Channel: 9 Note on, C2 key=36 velocity: 127
@2640 Channel: 9 Note on, C2 key=36 velocity: 0
@2640 Channel: 9 Note on, C2 key=36 velocity: 127
@2760 Channel: 9 Note on, C2 key=36 velocity: 0
@2760 Channel: 9 Note on, C2 key=36 velocity: 127
@2880 Channel: 9 Note on, C2 key=36 velocity: 0
@2880 Channel: 9 Note on, C2 key=36 velocity: 127
@3000 Channel: 9 Note on, C2 key=36 velocity: 0
@3000 Channel: 9 Note on, C2 key=36 velocity: 127
@3120 Channel: 9 Note on, C2 key=36 velocity: 0
@3120 Channel: 9 Note on, C2 key=36 velocity: 127
@3240 Channel: 9 Note on, C2 key=36 velocity: 0
@3240 Channel: 9 Note on, C2 key=36 velocity: 127
@3360 Channel: 9 Note on, C2 key=36 velocity: 0
@3360 Channel: 9 Note on, C2 key=36 velocity: 127
@3480 Channel: 9 Note on, C2 key=36 velocity: 0
@3480 Channel: 9 Note on, C2 key=36 velocity: 127
@3600 Channel: 9 Note on, C2 key=36 velocity: 0
@3600 Channel: 9 Note on, C2 key=36 velocity: 127
@3720 Channel: 9 Note on, C2 key=36 velocity: 0
@3720 Channel: 9 Note on, C2 key=36 velocity: 127
@3840 Channel: 9 Note on, C2 key=36 velocity: 0
@3840 Channel: 9 Note on, C2 key=36 velocity: 127
@3960 Channel: 9 Note on, C2 key=36 velocity: 0
@3960 Channel: 9 Note on, C2 key=36 velocity: 127
@4080 Channel: 9 Note on, C2 key=36 velocity: 0
@4080 Channel: 9 Note on, C2 key=36 velocity: 127
@4200 Channel: 9 Note on, C2 key=36 velocity: 0
@4200 Channel: 9 Note on, C2 key=36 velocity: 127
@4320 Channel: 9 Note on, C2 key=36 velocity: 0
@4320 Channel: 9 Note on, C2 key=36 velocity: 127
@4440 Channel: 9 Note on, C2 key=36 velocity: 0
@4440 Channel: 9 Note on, C2 key=36 velocity: 127
@4560 Channel: 9 Note on, C2 key=36 velocity: 0
@4560 Channel: 9 Note on, C2 key=36 velocity: 127
@4680 Channel: 9 Note on, C2 key=36 velocity: 0
@4680 Channel: 9 Note on, C2 key=36 velocity: 127
@4800 Channel: 9 Note on, C2 key=36 velocity: 0
@4800 Channel: 9 Note on, C2 key=36 velocity: 127
@4920 Channel: 9 Note on, C2 key=36 velocity: 0
@4920 Channel: 9 Note on, C2 key=36 velocity: 127
@5040 Channel: 9 Note on, C2 key=36 velocity: 0
@5040 Channel: 9 Note on, C2 key=36 velocity: 127
@5160 Channel: 9 Note on, C2 key=36 velocity: 0
@5160 Channel: 9 Note on, C2 key=36 velocity: 127
@5280 Channel: 9 Note on, C2 key=36 velocity: 0
@5280 Channel: 9 Note on, C2 key=36 velocity: 127
@5400 Channel: 9 Note on, C2 key=36 velocity: 0
@5400 Channel: 9 Note on, C2 key=36 velocity: 127
@5520 Channel: 9 Note on, C2 key=36 velocity: 0
@5520 Channel: 9 Note on, C2 key=36 velocity: 127
@5640 Channel: 9 Note on, C2 key=36 velocity: 0
@5640 Channel: 9 Note on, C2 key=36 velocity: 127
@5760 Channel: 9 Note on, C2 key=36 velocity: 0
@5760 Channel: 9 Note on, C2 key=36 velocity: 127
@5880 Channel: 9 Note on, C2 key=36 velocity: 0
@5880 Channel: 9 Note on, C2 key=36 velocity: 127
@6000 Channel: 9 Note on, C2 key=36 velocity: 0
@6000 Channel: 9 Note on, C2 key=36 velocity: 127
@6120 Channel: 9 Note on, C2 key=36 velocity: 0
@6120 Channel: 9 Note on, C2 key=36 velocity: 127
@6240 Channel: 9 Note on, C2 key=36 velocity: 0
@6240 Channel: 9 Note on, C2 key=36 velocity: 127
@6360 Channel: 9 Note on, C2 key=36 velocity: 0
@6360 Channel: 9 Note on, C2 key=36 velocity: 127
@6480 Channel: 9 Note on, C2 key=36 velocity: 0
@6480 Channel: 9 Note on, C2 key=36 velocity: 127
@6600 Channel: 9 Note on, C2 key=36 velocity: 0
@6600 Channel: 9 Note on, C2 key=36 velocity: 127
@6720 Channel: 9 Note on, C2 key=36 velocity: 0
@6720 Channel: 9 Note on, C2 key=36 velocity: 127
@6840 Channel: 9 Note on, C2 key=36 velocity: 0
@6840 Channel: 9 Note on, C2 key=36 velocity: 127
@6960 Channel: 9 Note on, C2 key=36 velocity: 0
@6960 Channel: 9 Note on, C2 key=36 velocity: 127
@7080 Channel: 9 Note on, C2 key=36 velocity: 0
@7080 Channel: 9 Note on, C2 key=36 velocity: 127
@7200 Channel: 9 Note on, C2 key=36 velocity: 0
@7200 Channel: 9 Note on, C2 key=36 velocity: 127
@7320 Channel: 9 Note on, C2 key=36 velocity: 0
@7320 Channel: 9 Note on, C2 key=36 velocity: 127
@7440 Channel: 9 Note on, C2 key=36 velocity: 0
@7440 Channel: 9 Note on, C2 key=36 velocity: 127
@7560 Channel: 9 Note on, C2 key=36 velocity: 0
@7560 Channel: 9 Note on, C2 key=36 velocity: 127
@7680 Channel: 9 Note on, C2 key=36 velocity: 0
@7680 Channel: 9 Note on, C2 key=36 velocity: 127
@7800 Channel: 9 Note on, C2 key=36 velocity: 0
@7800 Channel: 9 Note on, C2 key=36 velocity: 127
@7920 Channel: 9 Note on, C2 key=36 velocity: 0
@7920 Channel: 9 Note on, C2 key=36 velocity: 127
@8040 Channel: 9 Note on, C2 key=36 velocity: 0
@8040 Channel: 9 Note on, C2 key=36 velocity: 127
@8160 Channel: 9 Note on, C2 key=36 velocity: 0
@8160 Channel: 9 Note on, C2 key=36 velocity: 127
@8280 Channel: 9 Note on, C2 key=36 velocity: 0
@8280 Channel: 9 Note on, C2 key=36 velocity: 127
@8400 Channel: 9 Note on, C2 key=36 velocity: 0
@8400 Channel: 9 Note on, C2 key=36 velocity: 127
@8520 Channel: 9 Note on, C2 key=36 velocity: 0
@8520 Channel: 9 Note on, C2 key=36 velocity: 127
@8640 Channel: 9 Note on, C2 key=36 velocity: 0
@8640 Channel: 9 Note on, C2 key=36 velocity: 127
@8760 Channel: 9 Note on, C2 key=36 velocity: 0
@8760 Channel: 9 Note on, C2 key=36 velocity: 127
@8880 Channel: 9 Note on, C2 key=36 velocity: 0
@8880 Channel: 9 Note on, C2 key=36 velocity: 127
@9000 Channel: 9 Note on, C2 key=36 velocity: 0
@9000 Channel: 9 Note on, C2 key=36 velocity: 127
@9120 Channel: 9 Note on, C2 key=36 velocity: 0
@9120 Channel: 9 Note on, C2 key=36 velocity: 127
@9240 Channel: 9 Note on, C2 key=36 velocity: 0
@9240 Channel: 9 Note on, C2 key=36 velocity: 127
@9360 Channel: 9 Note on, C2 key=36 velocity: 0
@9360 Channel: 9 Note on, C2 key=36 velocity: 127
@9480 Channel: 9 Note on, C2 key=36 velocity: 0
@9480 Channel: 9 Note on, C2 key=36 velocity: 127
@9600 Channel: 9 Note on, C2 key=36 velocity: 0
@9600 Channel: 9 Note on, C2 key=36 velocity: 127
@9720 Channel: 9 Note on, C2 key=36 velocity: 0
@9720 Channel: 9 Note on, C2 key=36 velocity: 127
@9840 Channel: 9 Note on, C2 key=36 velocity: 0
@9840 Channel: 9 Note on, C2 key=36 velocity: 127
@9960 Channel: 9 Note on, C2 key=36 velocity: 0
@9960 Channel: 9 Note on, C2 key=36 velocity: 127
@10080 Channel: 9 Note on, C2 key=36 velocity: 0
@10080 Channel: 9 Note on, C2 key=36 velocity: 127
@10200 Channel: 9 Note on, C2 key=36 velocity: 0
@10200 Channel: 9 Note on, C2 key=36 velocity: 127
@10320 Channel: 9 Note on, C2 key=36 velocity: 0
@10320 Channel: 9 Note on, C2 key=36 velocity: 127
@10440 Channel: 9 Note on, C2 key=36 velocity: 0
@10440 Channel: 9 Note on, C2 key=36 velocity: 127
@10560 Channel: 9 Note on, C2 key=36 velocity: 0
@10560 Channel: 9 Note on, C2 key=36 velocity: 127
@10680 Channel: 9 Note on, C2 key=36 velocity: 0
@10680 Channel: 9 Note on, C2 key=36 velocity: 127
@10800 Channel: 9 Note on, C2 key=36 velocity: 0
@10800 Channel: 9 Note on, C2 key=36 velocity: 127
@10920 Channel: 9 Note on, C2 key=36 velocity: 0
@10920 Channel: 9 Note on, C2 key=36 velocity: 127
@11040 Channel: 9 Note on, C2 key=36 velocity: 0
@11040 Channel: 9 Note on, C2 key=36 velocity: 127
@11160 Channel: 9 Note on, C2 key=36 velocity: 0
@11160 Channel: 9 Note on, C2 key=36 velocity: 127
@11280 Channel: 9 Note on, C2 key=36 velocity: 0
@11280 Channel: 9 Note on, C2 key=36 velocity: 127
@11400 Channel: 9 Note on, C2 key=36 velocity: 0
@11400 Channel: 9 Note on, C2 key=36 velocity: 127
@11520 Channel: 9 Note on, C2 key=36 velocity: 0
@11520 Channel: 9 Note on, C2 key=36 velocity: 127
@11640 Channel: 9 Note on, C2 key=36 velocity: 0
@11640 Channel: 9 Note on, C2 key=36 velocity: 127
@11760 Channel: 9 Note on, C2 key=36 velocity: 0
@11760 Channel: 9 Note on, C2 key=36 velocity: 127
@11880 Channel: 9 Note on, C2 key=36 velocity: 0
@11880 Channel: 9 Note on, C2 key=36 velocity: 127
@12000 Channel: 9 Note on, C2 key=36 velocity: 0
@12000 Channel: 9 Note on, C2 key=36 velocity: 127
@12120 Channel: 9 Note on, C2 key=36 velocity: 0
@12120 Channel: 9 Note on, C2 key=36 velocity: 127
@12240 Channel: 9 Note on, C2 key=36 velocity: 0
@12240 Channel: 9 Note on, C2 key=36 velocity: 127
@12360 Channel: 9 Note on, C2 key=36 velocity: 0
@12360 Channel: 9 Note on, C2 key=36 velocity: 127
@12480 Channel: 9 Note on, C2 key=36 velocity: 0
@12480 Channel: 9 Note on, C2 key=36 velocity: 127
@12600 Channel: 9 Note on, C2 key=36 velocity: 0
@12600 Channel: 9 Note on, C2 key=36 velocity: 127
@12720 Channel: 9 Note on, C2 key=36 velocity: 0
@12720 Channel: 9 Note on, C2 key=36 velocity: 127
@12840 Channel: 9 Note on, C2 key=36 velocity: 0
@12840 Channel: 9 Note on, C2 key=36 velocity: 127
@12960 Channel: 9 Note on, C2 key=36 velocity: 0
@12960 Channel: 9 Note on, C2 key=36 velocity: 127
@13080 Channel: 9 Note on, C2 key=36 velocity: 0
@13080 Channel: 9 Note on, C2 key=36 velocity: 127
@13200 Channel: 9 Note on, C2 key=36 velocity: 0
@13200 Channel: 9 Note on, C2 key=36 velocity: 127
@13320 Channel: 9 Note on, C2 key=36 velocity: 0
@13320 Channel: 9 Note on, C2 key=36 velocity: 127
@13440 Channel: 9 Note on, C2 key=36 velocity: 0
@13440 Channel: 9 Note on, C2 key=36 velocity: 127
@13560 Channel: 9 Note on, C2 key=36 velocity: 0
@13560 Channel: 9 Note on, C2 key=36 velocity: 127
@13680 Channel: 9 Note on, C2 key=36 velocity: 0
@13680 Channel: 9 Note on, C2 key=36 velocity: 127
@13800 Channel: 9 Note on, C2 key=36 velocity: 0
@13800 Channel: 9 Note on, C2 key=36 velocity: 127
@13920 Channel: 9 Note on, C2 key=36 velocity: 0
@13920 Channel: 9 Note on, C2 key=36 velocity: 127
@14040 Channel: 9 Note on, C2 key=36 velocity: 0
@14040 Channel: 9 Note on, C2 key=36 velocity: 127
@14160 Channel: 9 Note on, C2 key=36 velocity: 0
@14160 Channel: 9 Note on, C2 key=36 velocity: 127
@14280 Channel: 9 Note on, C2 key=36 velocity: 0
@14280 Channel: 9 Note on, C2 key=36 velocity: 127
@14400 Channel: 9 Note on, C2 key=36 velocity: 0
@14400 Channel: 9 Note on, C2 key=36 velocity: 127
@14520 Channel: 9 Note on, C2 key=36 velocity: 0
@14520 Channel: 9 Note on, C2 key=36 velocity: 127
@14640 Channel: 9 Note on, C2 key=36 velocity: 0
@14640 Channel: 9 Note on, C2 key=36 velocity: 127
@14760 Channel: 9 Note on, C2 key=36 velocity: 0
@14760 Channel: 9 Note on, C2 key=36 velocity: 127
@14880 Channel: 9 Note on, C2 key=36 velocity: 0
@14880 Channel: 9 Note on, C2 key=36 velocity: 127
@15000 Channel: 9 Note on, C2 key=36 velocity: 0
@15000 Channel: 9 Note on, C2 key=36 velocity: 127
@15120 Channel: 9 Note on, C2 key=36 velocity: 0
@15120 Channel: 9 Note on, C2 key=36 velocity: 127
@15240 Channel: 9 Note on, C2 key=36 velocity: 0
@15240 Channel: 9 Note on, C2 key=36 velocity: 127
@15360 Channel: 9 Note on, C2 key=36 velocity: 0
@15360 Channel: 9 Note on, C2 key=36 velocity: 127
@15480 Channel: 9 Note on, C2 key=36 velocity: 0
@15480 Channel: 9 Note on, C2 key=36 velocity: 127
@15600 Channel: 9 Note on, C2 key=36 velocity: 0
@15600 Channel: 9 Note on, C2 key=36 velocity: 127
@15720 Channel: 9 Note on, C2 key=36 velocity: 0
@15720 Channel: 9 Note on, C2 key=36 velocity: 127
@15840 Channel: 9 Note on, C2 key=36 velocity: 0
@15840 Channel: 9 Note on, C2 key=36 velocity: 127
@15960 Channel: 9 Note on, C2 key=36 velocity: 0
@15960 Channel: 9 Note on, C2 key=36 velocity: 127
@16080 Channel: 9 Note on, C2 key=36 velocity: 0
@16080 Channel: 9 Note on, C2 key=36 velocity: 127
@16200 Channel: 9 Note on, C2 key=36 velocity: 0
@16200 Channel: 9 Note on, C2 key=36 velocity: 127
@16320 Channel: 9 Note on, C2 key=36 velocity: 0
@16320 Channel: 9 Note on, C2 key=36 velocity: 127
@16440 Channel: 9 Note on, C2 key=36 velocity: 0
@16440 Channel: 9 Note on, C2 key=36 velocity: 127
@16560 Channel: 9 Note on, C2 key=36 velocity: 0
@16560 Channel: 9 Note on, C2 key=36 velocity: 127
@16680 Channel: 9 Note on, C2 key=36 velocity: 0
@16680 Channel: 9 Note on, C2 key=36 velocity: 127
@16800 Channel: 9 Note on, C2 key=36 velocity: 0
@16800 Channel: 9 Note on, C2 key=36 velocity: 127
@16920 Channel: 9 Note on, C2 key=36 velocity: 0
@16920 Channel: 9 Note on, C2 key=36 velocity: 127
@17040 Channel: 9 Note on, C2 key=36 velocity: 0
@17040 Channel: 9 Note on, C2 key=36 velocity: 127
@17160 Channel: 9 Note on, C2 key=36 velocity: 0
@17160 Channel: 9 Note on, C2 key=36 velocity: 127
@17280 Channel: 9 Note on, C2 key=36 velocity: 0
@17280 Channel: 9 Note on, C2 key=36 velocity: 127
@17400 Channel: 9 Note on, C2 key=36 velocity: 0
@17400 Channel: 9 Note on, C2 key=36 velocity: 127
@17520 Channel: 9 Note on, C2 key=36 velocity: 0
@17520 Channel: 9 Note on, C2 key=36 velocity: 127
@17640 Channel: 9 Note on, C2 key=36 velocity: 0
@17640 Channel: 9 Note on, C2 key=36 velocity: 127
@17760 Channel: 9 Note on, C2 key=36 velocity: 0
@17760 Channel: 9 Note on, C2 key=36 velocity: 127
@17880 Channel: 9 Note on, C2 key=36 velocity: 0
@17880 Channel: 9 Note on, C2 key=36 velocity: 127
@18000 Channel: 9 Note on, C2 key=36 velocity: 0
@18000 Channel: 9 Note on, C2 key=36 velocity: 127
@18120 Channel: 9 Note on, C2 key=36 velocity: 0
@18120 Channel: 9 Note on, C2 key=36 velocity: 127
@18240 Channel: 9 Note on, C2 key=36 velocity: 0
@18240 Channel: 9 Note on, C2 key=36 velocity: 127
@18360 Channel: 9 Note on, C2 key=36 velocity: 0
@18360 Channel: 9 Note on, C2 key=36 velocity: 127
@18480 Channel: 9 Note on, C2 key=36 velocity: 0
@18480 Channel: 9 Note on, C2 key=36 velocity: 127
@18600 Channel: 9 Note on, C2 key=36 velocity: 0
@18600 Channel: 9 Note on, C2 key=36 velocity: 127
@18720 Channel: 9 Note on, C2 key=36 velocity: 0
@18720 Channel: 9 Note on, C2 key=36 velocity: 127
@18840 Channel: 9 Note on, C2 key=36 velocity: 0
@18840 Channel: 9 Note on, C2 key=36 velocity: 127
@18960 Channel: 9 Note on, C2 key=36 velocity: 0
@18960 Channel: 9 Note on, C2 key=36 velocity: 127
@19080 Channel: 9 Note on, C2 key=36 velocity: 0
@19080 Channel: 9 Note on, C2 key=36 velocity: 127
@19200 Channel: 9 Note on, C2 key=36 velocity: 0
@19200 Channel: 9 Note on, C2 key=36 velocity: 127
@19320 Channel: 9 Note on, C2 key=36 velocity: 0
@19320 Channel: 9 Note on, C2 key=36 velocity: 127
@19440 Channel: 9 Note on, C2 key=36 velocity: 0
@19440 Channel: 9 Note on, C2 key=36 velocity: 127
@19560 Channel: 9 Note on, C2 key=36 velocity: 0
@19560 Channel: 9 Note on, C2 key=36 velocity: 127
@19680 Channel: 9 Note on, C2 key=36 velocity: 0
@19680 Channel: 9 Note on, C2 key=36 velocity: 127
@19800 Channel: 9 Note on, C2 key=36 velocity: 0
@19800 Channel: 9 Note on, C2 key=36 velocity: 127
@19920 Channel: 9 Note on, C2 key=36 velocity: 0
@19920 Channel: 9 Note on, C2 key=36 velocity: 127
@20040 Channel: 9 Note on, C2 key=36 velocity: 0
@20040 Channel: 9 Note on, C2 key=36 velocity: 127
@20160 Channel: 9 Note on, C2 key=36 velocity: 0
@20160 Channel: 9 Note on, C2 key=36 velocity: 127
@20280 Channel: 9 Note on, C2 key=36 velocity: 0
@20280 Channel: 9 Note on, C2 key=36 velocity: 127
@20400 Channel: 9 Note on, C2 key=36 velocity: 0
@20400 Channel: 9 Note on, C2 key=36 velocity: 127
@20520 Channel: 9 Note on, C2 key=36 velocity: 0
@20520 Channel: 9 Note on, C2 key=36 velocity: 127
@20640 Channel: 9 Note on, C2 key=36 velocity: 0
@20640 Channel: 9 Note on, C2 key=36 velocity: 127
@20760 Channel: 9 Note on, C2 key=36 velocity: 0
@20760 Channel: 9 Note on, C2 key=36 velocity: 127
@20880 Channel: 9 Note on, C2 key=36 velocity: 0
@20880 Channel: 9 Note on, C2 key=36 velocity: 127
@21000 Channel: 9 Note on, C2 key=36 velocity: 0
@21000 Channel: 9 Note on, C2 key=36 velocity: 127
@21120 Channel: 9 Note on, C2 key=36 velocity: 0
@21120 Channel: 9 Note on, C2 key=36 velocity: 127
@21240 Channel: 9 Note on, C2 key=36 velocity: 0
@21240 Channel: 9 Note on, C2 key=36 velocity: 127
@21360 Channel: 9 Note on, C2 key=36 velocity: 0
@21360 Channel: 9 Note on, C2 key=36 velocity: 127
@21480 Channel: 9 Note on, C2 key=36 velocity: 0
@21480 Channel: 9 Note on, C2 key=36 velocity: 127
@21600 Channel: 9 Note on, C2 key=36 velocity: 0
@21600 Channel: 9 Note on, C2 key=36 velocity: 127
@21720 Channel: 9 Note on, C2 key=36 velocity: 0
@21720 Channel: 9 Note on, C2 key=36 velocity: 127
@21840 Channel: 9 Note on, C2 key=36 velocity: 0
@21840 Channel: 9 Note on, C2 key=36 velocity: 127
@21960 Channel: 9 Note on, C2 key=36 velocity: 0
@21960 Channel: 9 Note on, C2 key=36 velocity: 127
@22080 Channel: 9 Note on, C2 key=36 velocity: 0
@22080 Channel: 9 Note on, C2 key=36 velocity: 127
@22200 Channel: 9 Note on, C2 key=36 velocity: 0
@22200 Channel: 9 Note on, C2 key=36 velocity: 127
@22320 Channel: 9 Note on, C2 key=36 velocity: 0
@22320 Channel: 9 Note on, C2 key=36 velocity: 127
@22440 Channel: 9 Note on, C2 key=36 velocity: 0
@22440 Channel: 9 Note on, C2 key=36 velocity: 127
@22560 Channel: 9 Note on, C2 key=36 velocity: 0
@22560 Channel: 9 Note on, C2 key=36 velocity: 127
@22680 Channel: 9 Note on, C2 key=36 velocity: 0
@22680 Channel: 9 Note on, C2 key=36 velocity: 127
@22800 Channel: 9 Note on, C2 key=36 velocity: 0
@22800 Channel: 9 Note on, C2 key=36 velocity: 127
@22920 Channel: 9 Note on, C2 key=36 velocity: 0
@22920 Channel: 9 Note on, C2 key=36 velocity: 127
@23040 Channel: 9 Note on, C2 key=36 velocity: 0
@23040 Channel: 9 Note on, C2 key=36 velocity: 127
@23160 Channel: 9 Note on, C2 key=36 velocity: 0
@23160 Channel: 9 Note on, C2 key=36 velocity: 127
@23280 Channel: 9 Note on, C2 key=36 velocity: 0
@23280 Channel: 9 Note on, C2 key=36 velocity: 127
@23400 Channel: 9 Note on, C2 key=36 velocity: 0
@23400 Channel: 9 Note on, C2 key=36 velocity: 127
@23520 Channel: 9 Note on, C2 key=36 velocity: 0
@23520 Channel: 9 Note on, C2 key=36 velocity: 127
@23640 Channel: 9 Note on, C2 key=36 velocity: 0
@23640 Channel: 9 Note on, C2 key=36 velocity: 127
@23760 Channel: 9 Note on, C2 key=36 velocity: 0
@23760 Channel: 9 Note on, C2 key=36 velocity: 127
@23880 Channel: 9 Note on, C2 key=36 velocity: 0
@23880 Channel: 9 Note on, C2 key=36 velocity: 127
@24000 Channel: 9 Note on, C2 key=36 velocity: 0
@24000 Channel: 9 Note on, C2 key=36 velocity: 127
@24120 Channel: 9 Note on, C2 key=36 velocity: 0
@24120 Channel: 9 Note on, C2 key=36 velocity: 127
@24240 Channel: 9 Note on, C2 key=36 velocity: 0
@24240 Channel: 9 Note on, C2 key=36 velocity: 127
@24360 Channel: 9 Note on, C2 key=36 velocity: 0
@24360 Channel: 9 Note on, C2 key=36 velocity: 127
@24480 Channel: 9 Note on, C2 key=36 velocity: 0
@24480 Channel: 9 Note on, C2 key=36 velocity: 127
@24600 Channel: 9 Note on, C2 key=36 velocity: 0
@24600 Channel: 9 Note on, C2 key=36 velocity: 127
@24720 Channel: 9 Note on, C2 key=36 velocity: 0
@24720 Channel: 9 Note on, C2 key=36 velocity: 127
@24840 Channel: 9 Note on, C2 key=36 velocity: 0
@24840 Channel: 9 Note on, C2 key=36 velocity: 127
@24960 Channel: 9 Note on, C2 key=36 velocity: 0
@24960 Channel: 9 Note on, C2 key=36 velocity: 127
@25080 Channel: 9 Note on, C2 key=36 velocity: 0
@25080 Channel: 9 Note on, C2 key=36 velocity: 127
@25200 Channel: 9 Note on, C2 key=36 velocity: 0
@25200 Channel: 9 Note on, C2 key=36 velocity: 127
@25320 Channel: 9 Note on, C2 key=36 velocity: 0
@25320 Channel: 9 Note on, C2 key=36 velocity: 127
@25440 Channel: 9 Note on, C2 key=36 velocity: 0
@25440 Channel: 9 Note on, C2 key=36 velocity: 127
@25560 Channel: 9 Note on, C2 key=36 velocity: 0
@25560 Channel: 9 Note on, C2 key=36 velocity: 127
@25680 Channel: 9 Note on, C2 key=36 velocity: 0
@25680 Channel: 9 Note on, C2 key=36 velocity: 127
@25800 Channel: 9 Note on, C2 key=36 velocity: 0
@25800 Channel: 9 Note on, C2 key=36 velocity: 127
@25920 Channel: 9 Note on, C2 key=36 velocity: 0
@25920 Channel: 9 Note on, C2 key=36 velocity: 127
@26040 Channel: 9 Note on, C2 key=36 velocity: 0
@26040 Channel: 9 Note on, C2 key=36 velocity: 127
@26160 Channel: 9 Note on, C2 key=36 velocity: 0
@26160 Channel: 9 Note on, C2 key=36 velocity: 127
@26280 Channel: 9 Note on, C2 key=36 velocity: 0
@26280 Channel: 9 Note on, C2 key=36 velocity: 127
@26400 Channel: 9 Note on, C2 key=36 velocity: 0
@26400 Channel: 9 Note on, C2 key=36 velocity: 127
@26520 Channel: 9 Note on, C2 key=36 velocity: 0
@26520 Channel: 9 Note on, C2 key=36 velocity: 127
@26640 Channel: 9 Note on, C2 key=36 velocity: 0
@26640 Channel: 9 Note on, C2 key=36 velocity: 127
@26760 Channel: 9 Note on, C2 key=36 velocity: 0
@26760 Channel: 9 Note on, C2 key=36 velocity: 127
@26880 Channel: 9 Note on, C2 key=36 velocity: 0
@26880 Channel: 9 Note on, C2 key=36 velocity: 127
@27000 Channel: 9 Note on, C2 key=36 velocity: 0
@27000 Channel: 9 Note on, C2 key=36 velocity: 127
@27120 Channel: 9 Note on, C2 key=36 velocity: 0
@27120 Channel: 9 Note on, C2 key=36 velocity: 127
@27240 Channel: 9 Note on, C2 key=36 velocity: 0
@27240 Channel: 9 Note on, C2 key=36 velocity: 127
@27360 Channel: 9 Note on, C2 key=36 velocity: 0
@27360 Channel: 9 Note on, C2 key=36 velocity: 127
@27480 Channel: 9 Note on, C2 key=36 velocity: 0
@27480 Channel: 9 Note on, C2 key=36 velocity: 127
@27600 Channel: 9 Note on, C2 key=36 velocity: 0
@27600 Channel: 9 Note on, C2 key=36 velocity: 127
@27720 Channel: 9 Note on, C2 key=36 velocity: 0
@27720 Channel: 9 Note on, C2 key=36 velocity: 127
@27840 Channel: 9 Note on, C2 key=36 velocity: 0
@27840 Channel: 9 Note on, C2 key=36 velocity: 127
@27960 Channel: 9 Note on, C2 key=36 velocity: 0
@27960 Channel: 9 Note on, C2 key=36 velocity: 127
@28080 Channel: 9 Note on, C2 key=36 velocity: 0
@28080 Channel: 9 Note on, C2 key=36 velocity: 127
@28200 Channel: 9 Note on, C2 key=36 velocity: 0
@28200 Channel: 9 Note on, C2 key=36 velocity: 127
@28320 Channel: 9 Note on, C2 key=36 velocity: 0
@28320 Channel: 9 Note on, C2 key=36 velocity: 127
@28440 Channel: 9 Note on, C2 key=36 velocity: 0
@28440 Channel: 9 Note on, C2 key=36 velocity: 127
@28560 Channel: 9 Note on, C2 key=36 velocity: 0
@28560 Channel: 9 Note on, C2 key=36 velocity: 127
@28680 Channel: 9 Note on, C2 key=36 velocity: 0
@28680 Channel: 9 Note on, C2 key=36 velocity: 127
@28800 Channel: 9 Note on, C2 key=36 velocity: 0
@28800 Channel: 9 Note on, C2 key=36 velocity: 127
@28920 Channel: 9 Note on, C2 key=36 velocity: 0
@28920 Channel: 9 Note on, C2 key=36 velocity: 127
@29040 Channel: 9 Note on, C2 key=36 velocity: 0
@29040 Channel: 9 Note on, C2 key=36 velocity: 127
@29160 Channel: 9 Note on, C2 key=36 velocity: 0
@29160 Channel: 9 Note on, C2 key=36 velocity: 127
@29280 Channel: 9 Note on, C2 key=36 velocity: 0
@29280 Channel: 9 Note on, C2 key=36 velocity: 127
@29400 Channel: 9 Note on, C2 key=36 velocity: 0
@29400 Channel: 9 Note on, C2 key=36 velocity: 127
@29520 Channel: 9 Note on, C2 key=36 velocity: 0
@29520 Channel: 9 Note on, C2 key=36 velocity: 127
@29640 Channel: 9 Note on, C2 key=36 velocity: 0
@29640 Channel: 9 Note on, C2 key=36 velocity: 127
@29760 Channel: 9 Note on, C2 key=36 velocity: 0
@29760 Channel: 9 Note on, C2 key=36 velocity: 127
@29880 Channel: 9 Note on, C2 key=36 velocity: 0
@29880 Channel: 9 Note on, C2 key=36 velocity: 127
@30000 Channel: 9 Note on, C2 key=36 velocity: 0
@30000 Channel: 9 Note on, C2 key=36 velocity: 127
@30120 Channel: 9 Note on, C2 key=36 velocity: 0
@30120 Channel: 9 Note on, C2 key=36 velocity: 127
@30240 Channel: 9 Note on, C2 key=36 velocity: 0
@30240 Channel: 9 Note on, C2 key=36 velocity: 127
@30360 Channel: 9 Note on, C2 key=36 velocity: 0
@30360 Channel: 9 Note on, C2 key=36 velocity: 127
@30480 Channel: 9 Note on, C2 key=36 velocity: 0
@30480 Channel: 9 Note on, C2 key=36 velocity: 127
@30600 Channel: 9 Note on, C2 key=36 velocity: 0
@30600 Channel: 9 Note on, C2 key=36 velocity: 127
@30720 Channel: 9 Note on, C2 key=36 velocity: 0
@30720 Channel: 9 Note on, C2 key=36 velocity: 127
@30840 Channel: 9 Note on, C2 key=36 velocity: 0
@30840 Channel: 9 Note on, C2 key=36 velocity: 127
@30960 Channel: 9 Note on, C2 key=36 velocity: 0
@30960 Channel: 9 Note on, C2 key=36 velocity: 127
@31080 Channel: 9 Note on, C2 key=36 velocity: 0
@31080 Channel: 9 Note on, C2 key=36 velocity: 127
@31200 Channel: 9 Note on, C2 key=36 velocity: 0
@31200 Channel: 9 Note on, C2 key=36 velocity: 127
@31320 Channel: 9 Note on, C2 key=36 velocity: 0
@31320 Channel: 9 Note on, C2 key=36 velocity: 127
@31440 Channel: 9 Note on, C2 key=36 velocity: 0
@31440 Channel: 9 Note on, C2 key=36 velocity: 127
@31560 Channel: 9 Note on, C2 key=36 velocity: 0
@31560 Channel: 9 Note on, C2 key=36 velocity: 127
@31680 Channel: 9 Note on, C2 key=36 velocity: 0
@31680 Channel: 9 Note on, C2 key=36 velocity: 127
@31800 Channel: 9 Note on, C2 key=36 velocity: 0
@31800 Channel: 9 Note on, C2 key=36 velocity: 127
@31920 Channel: 9 Note on, C2 key=36 velocity: 0
@31920 Channel: 9 Note on, C2 key=36 velocity: 127
@32040 Channel: 9 Note on, C2 key=36 velocity: 0
@32040 Channel: 9 Note on, C2 key=36 velocity: 127
@32160 Channel: 9 Note on, C2 key=36 velocity: 0
@32160 Channel: 9 Note on, C2 key=36 velocity: 127
@32280 Channel: 9 Note on, C2 key=36 velocity: 0
@32280 Channel: 9 Note on, C2 key=36 velocity: 127
@32400 Channel: 9 Note on, C2 key=36 velocity: 0
@32400 Channel: 9 Note on, C2 key=36 velocity: 127
@32520 Channel: 9 Note on, C2 key=36 velocity: 0
@32520 Channel: 9 Note on, C2 key=36 velocity: 127
@32640 Channel: 9 Note on, C2 key=36 velocity: 0
@32640 Channel: 9 Note on, C2 key=36 velocity: 127
@32760 Channel: 9 Note on, C2 key=36 velocity: 0
@32760 Channel: 9 Note on, C2 key=36 velocity: 127
@32880 Channel: 9 Note on, C2 key=36 velocity: 0
@32880 Channel: 9 Note on, C2 key=36 velocity: 127
@33000 Channel: 9 Note on, C2 key=36 velocity: 0
@33000 Channel: 9 Note on, C2 key=36 velocity: 127
@33120 Channel: 9 Note on, C2 key=36 velocity: 0
@33120 Channel: 9 Note on, C2 key=36 velocity: 127
@33240 Channel: 9 Note on, C2 key=36 velocity: 0
@33240 Channel: 9 Note on, C2 key=36 velocity: 127
@33360 Channel: 9 Note on, C2 key=36 velocity: 0
@33360 Channel: 9 Note on, C2 key=36 velocity: 127
@33480 Channel: 9 Note on, C2 key=36 velocity: 0
@33480 Channel: 9 Note on, C2 key=36 velocity: 127
@33600 Channel: 9 Note on, C2 key=36 velocity: 0
@33600 Channel: 9 Note on, C2 key=36 velocity: 127
@33720 Channel: 9 Note on, C2 key=36 velocity: 0
@33720 Channel: 9 Note on, C2 key=36 velocity: 127
@33840 Channel: 9 Note on, C2 key=36 velocity: 0
@33840 Channel: 9 Note on, C2 key=36 velocity: 127
@33960 Channel: 9 Note on, C2 key=36 velocity: 0
@33960 Channel: 9 Note on, C2 key=36 velocity: 127
@34080 Channel: 9 Note on, C2 key=36 velocity: 0
@34080 Channel: 9 Note on, C2 key=36 velocity: 127
@34200 Channel: 9 Note on, C2 key=36 velocity: 0
@34200 Channel: 9 Note on, C2 key=36 velocity: 127
@34320 Channel: 9 Note on, C2 key=36 velocity: 0
@34320 Channel: 9 Note on, C2 key=36 velocity: 127
@34440 Channel: 9 Note on, C2 key=36 velocity: 0
@34440 Channel: 9 Note on, C2 key=36 velocity: 127
@34560 Channel: 9 Note on, C2 key=36 velocity: 0
@34560 Channel: 9 Note on, C2 key=36 velocity: 127
@34680 Channel: 9 Note on, C2 key=36 velocity: 0
@34680 Channel: 9 Note on, C2 key=36 velocity: 127
@34800 Channel: 9 Note on, C2 key=36 velocity: 0
@34800 Channel: 9 Note on, C2 key=36 velocity: 127
@34920 Channel: 9 Note on, C2 key=36 velocity: 0
@34920 Channel: 9 Note on, C2 key=36 velocity: 127
@35040 Channel: 9 Note on, C2 key=36 velocity: 0
@35040 Channel: 9 Note on, C2 key=36 velocity: 127
@35160 Channel: 9 Note on, C2 key=36 velocity: 0
@35160 Channel: 9 Note on, C2 key=36 velocity: 127
@35280 Channel: 9 Note on, C2 key=36 velocity: 0
@35280 Channel: 9 Note on, C2 key=36 velocity: 127
@35400 Channel: 9 Note on, C2 key=36 velocity: 0
@35400 Channel: 9 Note on, C2 key=36 velocity: 127
@35520 Channel: 9 Note on, C2 key=36 velocity: 0
@35520 Channel: 9 Note on, C2 key=36 velocity: 127
@35640 Channel: 9 Note on, C2 key=36 velocity: 0
@35640 Channel: 9 Note on, C2 key=36 velocity: 127
@35760 Channel: 9 Note on, C2 key=36 velocity: 0
@35760 Channel: 9 Note on, C2 key=36 velocity: 127
@35880 Channel: 9 Note on, C2 key=36 velocity: 0
@35880 Channel: 9 Note on, C2 key=36 velocity: 127
@36000 Channel: 9 Note on, C2 key=36 velocity: 0
@36000 Channel: 9 Note on, C2 key=36 velocity: 127
@36120 Channel: 9 Note on, C2 key=36 velocity: 0
@36120 Channel: 9 Note on, C2 key=36 velocity: 127
@36240 Channel: 9 Note on, C2 key=36 velocity: 0
@36240 Channel: 9 Note on, C2 key=36 velocity: 127
@36360 Channel: 9 Note on, C2 key=36 velocity: 0
@36360 Channel: 9 Note on, C2 key=36 velocity: 127
@36480 Channel: 9 Note on, C2 key=36 velocity: 0
@36480 Channel: 9 Note on, C2 key=36 velocity: 127
@36600 Channel: 9 Note on, C2 key=36 velocity: 0
@36600 Channel: 9 Note on, C2 key=36 velocity: 127
@36720 Channel: 9 Note on, C2 key=36 velocity: 0
@36720 Channel: 9 Note on, C2 key=36 velocity: 127
@36840 Channel: 9 Note on, C2 key=36 velocity: 0
@36840 Channel: 9 Note on, C2 key=36 velocity: 127
@36960 Channel: 9 Note on, C2 key=36 velocity: 0
@36960 Channel: 9 Note on, C2 key=36 velocity: 127
@37080 Channel: 9 Note on, C2 key=36 velocity: 0
@37080 Channel: 9 Note on, C2 key=36 velocity: 127
@37200 Channel: 9 Note on, C2 key=36 velocity: 0
@37200 Channel: 9 Note on, C2 key=36 velocity: 127
@37320 Channel: 9 Note on, C2 key=36 velocity: 0
@37320 Channel: 9 Note on, C2 key=36 velocity: 127
@37440 Channel: 9 Note on, C2 key=36 velocity: 0
@37440 Channel: 9 Note on, C2 key=36 velocity: 127
@37560 Channel: 9 Note on, C2 key=36 velocity: 0
@37560 Channel: 9 Note on, C2 key=36 velocity: 127
@37680 Channel: 9 Note on, C2 key=36 velocity: 0
@37680 Channel: 9 Note on, C2 key=36 velocity: 127
@37800 Channel: 9 Note on, C2 key=36 velocity: 0
@37800 Channel: 9 Note on, C2 key=36 velocity: 127
@37920 Channel: 9 Note on, C2 key=36 velocity: 0
@37920 Channel: 9 Note on, C2 key=36 velocity: 127
@38040 Channel: 9 Note on, C2 key=36 velocity: 0
@38040 Channel: 9 Note on, C2 key=36 velocity: 127
@38160 Channel: 9 Note on, C2 key=36 velocity: 0
@38160 Channel: 9 Note on, C2 key=36 velocity: 127
@38280 Channel: 9 Note on, C2 key=36 velocity: 0
@38280 Channel: 9 Note on, C2 key=36 velocity: 127
@38400 Channel: 9 Note on, C2 key=36 velocity: 0
@38400 Channel: 9 Note on, C2 key=36 velocity: 127
@38520 Channel: 9 Note on, C2 key=36 velocity: 0
@38520 Channel: 9 Note on, C2 key=36 velocity: 127
@38640 Channel: 9 Note on, C2 key=36 velocity: 0
@38640 Channel: 9 Note on, C2 key=36 velocity: 127
@38760 Channel: 9 Note on, C2 key=36 velocity: 0
@38760 Channel: 9 Note on, C2 key=36 velocity: 127
@38880 Channel: 9 Note on, C2 key=36 velocity: 0
@38880 Channel: 9 Note on, C2 key=36 velocity: 127
@39000 Channel: 9 Note on, C2 key=36 velocity: 0
@39000 Channel: 9 Note on, C2 key=36 velocity: 127
@39120 Channel: 9 Note on, C2 key=36 velocity: 0
@39120 Channel: 9 Note on, C2 key=36 velocity: 127
@39240 Channel: 9 Note on, C2 key=36 velocity: 0
@39240 Channel: 9 Note on, C2 key=36 velocity: 127
@39360 Channel: 9 Note on, C2 key=36 velocity: 0
@39360 Channel: 9 Note on, C2 key=36 velocity: 127
@39480 Channel: 9 Note on, C2 key=36 velocity: 0
@39480 Channel: 9 Note on, C2 key=36 velocity: 127
@39600 Channel: 9 Note on, C2 key=36 velocity: 0
@39600 Channel: 9 Note on, C2 key=36 velocity: 127
@39720 Channel: 9 Note on, C2 key=36 velocity: 0
@39720 Channel: 9 Note on, C2 key=36 velocity: 127
@39840 Channel: 9 Note on, C2 key=36 velocity: 0
@39840 Channel: 9 Note on, C2 key=36 velocity: 127
@39960 Channel: 9 Note on, C2 key=36 velocity: 0
@39960 Channel: 9 Note on, C2 key=36 velocity: 127
@40080 Channel: 9 Note on, C2 key=36 velocity: 0
@40080 Channel: 9 Note on, C2 key=36 velocity: 127
@40200 Channel: 9 Note on, C2 key=36 velocity: 0
@40200 Channel: 9 Note on, C2 key=36 velocity: 127
@40320 Channel: 9 Note on, C2 key=36 velocity: 0
@40320 Channel: 9 Note on, C2 key=36 velocity: 127
@40440 Channel: 9 Note on, C2 key=36 velocity: 0
@40440 Channel: 9 Note on, C2 key=36 velocity: 127
@40560 Channel: 9 Note on, C2 key=36 velocity: 0
@40560 Channel: 9 Note on, C2 key=36 velocity: 127
@40680 Channel: 9 Note on, C2 key=36 velocity: 0
@40680 Channel: 9 Note on, C2 key=36 velocity: 127
@40800 Channel: 9 Note on, C2 key=36 velocity: 0
@40800 Channel: 9 Note on, C2 key=36 velocity: 127
@40920 Channel: 9 Note on, C2 key=36 velocity: 0
@40920 Channel: 9 Note on, C2 key=36 velocity: 127
@41040 Channel: 9 Note on, C2 key=36 velocity: 0
@41040 Channel: 9 Note on, C2 key=36 velocity: 127
@41160 Channel: 9 Note on, C2 key=36 velocity: 0
@41160 Channel: 9 Note on, C2 key=36 velocity: 127
@41280 Channel: 9 Note on, C2 key=36 velocity: 0
@41280 Channel: 9 Note on, C2 key=36 velocity: 127
@41400 Channel: 9 Note on, C2 key=36 velocity: 0
@41400 Channel: 9 Note on, C2 key=36 velocity: 127
@41520 Channel: 9 Note on, C2 key=36 velocity: 0
@41520 Channel: 9 Note on, C2 key=36 velocity: 127
@41640 Channel: 9 Note on, C2 key=36 velocity: 0
@41640 Channel: 9 Note on, C2 key=36 velocity: 127
@41760 Channel: 9 Note on, C2 key=36 velocity: 0
@41760 Channel: 9 Note on, C2 key=36 velocity: 127
@41880 Channel: 9 Note on, C2 key=36 velocity: 0
@41880 Channel: 9 Note on, C2 key=36 velocity: 127
@42000 Channel: 9 Note on, C2 key=36 velocity: 0
@42000 Channel: 9 Note on, C2 key=36 velocity: 127
@42120 Channel: 9 Note on, C2 key=36 velocity: 0
@42120 Channel: 9 Note on, C2 key=36 velocity: 127
@42240 Channel: 9 Note on, C2 key=36 velocity: 0
@42240 Channel: 9 Note on, C2 key=36 velocity: 127
@42360 Channel: 9 Note on, C2 key=36 velocity: 0
@42360 Channel: 9 Note on, C2 key=36 velocity: 127
@42480 Channel: 9 Note on, C2 key=36 velocity: 0
@42480 Channel: 9 Note on, C2 key=36 velocity: 127
@42600 Channel: 9 Note on, C2 key=36 velocity: 0
@42600 Channel: 9 Note on, C2 key=36 velocity: 127
@42720 Channel: 9 Note on, C2 key=36 velocity: 0
@42720 Channel: 9 Note on, C2 key=36 velocity: 127
@42840 Channel: 9 Note on, C2 key=36 velocity: 0
@42840 Channel: 9 Note on, C2 key=36 velocity: 127
@42960 Channel: 9 Note on, C2 key=36 velocity: 0
@42960 Channel: 9 Note on, C2 key=36 velocity: 127
@43080 Channel: 9 Note on, C2 key=36 velocity: 0
@43080 Channel: 9 Note on, C2 key=36 velocity: 127
@43200 Channel: 9 Note on, C2 key=36 velocity: 0
@43200 Channel: 9 Note on, C2 key=36 velocity: 127
@43320 Channel: 9 Note on, C2 key=36 velocity: 0
@43320 Channel: 9 Note on, C2 key=36 velocity: 127
@43440 Channel: 9 Note on, C2 key=36 velocity: 0
@43440 Channel: 9 Note on, C2 key=36 velocity: 127
@43560 Channel: 9 Note on, C2 key=36 velocity: 0
@43560 Channel: 9 Note on, C2 key=36 velocity: 127
@43680 Channel: 9 Note on, C2 key=36 velocity: 0
@43680 Channel: 9 Note on, C2 key=36 velocity: 127
@43800 Channel: 9 Note on, C2 key=36 velocity: 0
@43800 Channel: 9 Note on, C2 key=36 velocity: 127
@43920 Channel: 9 Note on, C2 key=36 velocity: 0
@43920 Channel: 9 Note on, C2 key=36 velocity: 127
@44040 Channel: 9 Note on, C2 key=36 velocity: 0
@44040 Channel: 9 Note on, C2 key=36 velocity: 127
@44160 Channel: 9 Note on, C2 key=36 velocity: 0
@44160 Channel: 9 Note on, C2 key=36 velocity: 127
@44280 Channel: 9 Note on, C2 key=36 velocity: 0
@44280 Channel: 9 Note on, C2 key=36 velocity: 127
@44400 Channel: 9 Note on, C2 key=36 velocity: 0
@44400 Channel: 9 Note on, C2 key=36 velocity: 127
@44520 Channel: 9 Note on, C2 key=36 velocity: 0
@44520 Channel: 9 Note on, C2 key=36 velocity: 127
@44640 Channel: 9 Note on, C2 key=36 velocity: 0
@44640 Channel: 9 Command:176
@44640 Channel: 9 Note on, C2 key=36 velocity: 127
@44673 Channel: 9 Command:176
@44707 Channel: 9 Command:176
@44740 Channel: 9 Command:176
@44760 Channel: 9 Note on, C2 key=36 velocity: 0
@44760 Channel: 9 Note on, C2 key=36 velocity: 127
@44774 Channel: 9 Command:176
@44807 Channel: 9 Command:176
@44841 Channel: 9 Command:176
@44875 Channel: 9 Command:176
@44880 Channel: 9 Note on, C2 key=36 velocity: 0
@44880 Channel: 9 Note on, C2 key=36 velocity: 127
@44908 Channel: 9 Command:176
@44942 Channel: 9 Command:176
@44975 Channel: 9 Command:176
@45000 Channel: 9 Note on, C2 key=36 velocity: 0
@45000 Channel: 9 Note on, C2 key=36 velocity: 127
@45009 Channel: 9 Command:176
@45043 Channel: 9 Command:176
@45076 Channel: 9 Command:176
@45110 Channel: 9 Command:176
@45120 Channel: 9 Note on, C2 key=36 velocity: 0
@45120 Channel: 9 Note on, C2 key=36 velocity: 127
@45143 Channel: 9 Command:176
@45177 Channel: 9 Command:176
@45211 Channel: 9 Command:176
@45240 Channel: 9 Note on, C2 key=36 velocity: 0
@45240 Channel: 9 Note on, C2 key=36 velocity: 127
@45244 Channel: 9 Command:176
@45278 Channel: 9 Command:176
@45311 Channel: 9 Command:176
@45345 Channel: 9 Command:176
@45360 Channel: 9 Note on, C2 key=36 velocity: 0
@45360 Channel: 9 Note on, C2 key=36 velocity: 127
@45378 Channel: 9 Command:176
@45412 Channel: 9 Command:176
@45446 Channel: 9 Command:176
@45479 Channel: 9 Command:176
@45480 Channel: 9 Note on, C2 key=36 velocity: 0
@45480 Channel: 9 Note on, C2 key=36 velocity: 127
@45513 Channel: 9 Command:176
@45546 Channel: 9 Command:176
@45580 Channel: 9 Command:176
@45600 Channel: 9 Note on, C2 key=36 velocity: 0
@45600 Channel: 9 Note on, C2 key=36 velocity: 127
@45614 Channel: 9 Command:176
@45647 Channel: 9 Command:176
@45681 Channel: 9 Command:176
@45714 Channel: 9 Command:176
@45720 Channel: 9 Note on, C2 key=36 velocity: 0
@45720 Channel: 9 Note on, C2 key=36 velocity: 127
@45748 Channel: 9 Command:176
@45782 Channel: 9 Command:176
@45815 Channel: 9 Command:176
@45840 Channel: 9 Note on, C2 key=36 velocity: 0
@45840 Channel: 9 Note on, C2 key=36 velocity: 127
@45849 Channel: 9 Command:176
@45882 Channel: 9 Command:176
@45916 Channel: 9 Command:176
@45950 Channel: 9 Command:176
@45960 Channel: 9 Note on, C2 key=36 velocity: 0
@45960 Channel: 9 Note on, C2 key=36 velocity: 127
@45983 Channel: 9 Command:176
@46017 Channel: 9 Command:176
@46050 Channel: 9 Command:176
@46080 Channel: 9 Note on, C2 key=36 velocity: 0
@46080 Channel: 9 Note on, C2 key=36 velocity: 127
@46084 Channel: 9 Command:176
@46117 Channel: 9 Command:176
@46151 Channel: 9 Command:176
@46185 Channel: 9 Command:176
@46200 Channel: 9 Note on, C2 key=36 velocity: 0
@46200 Channel: 9 Note on, C2 key=36 velocity: 127
@46218 Channel: 9 Command:176
@46252 Channel: 9 Command:176
@46285 Channel: 9 Command:176
@46319 Channel: 9 Command:176
@46320 Channel: 9 Note on, C2 key=36 velocity: 0
@46320 Channel: 9 Note on, C2 key=36 velocity: 127
@46353 Channel: 9 Command:176
@46386 Channel: 9 Command:176
@46420 Channel: 9 Command:176
@46440 Channel: 9 Note on, C2 key=36 velocity: 0
@46440 Channel: 9 Note on, C2 key=36 velocity: 127
@46453 Channel: 9 Command:176
@46487 Channel: 9 Command:176
@46521 Channel: 9 Command:176
@46554 Channel: 9 Command:176
@46560 Channel: 9 Note on, C2 key=36 velocity: 0
@46560 Channel: 9 Note on, C2 key=36 velocity: 127
@46588 Channel: 9 Command:176
@46621 Channel: 9 Command:176
@46655 Channel: 9 Command:176
@46680 Channel: 9 Note on, C2 key=36 velocity: 0
@46680 Channel: 9 Note on, C2 key=36 velocity: 127
@46688 Channel: 9 Command:176
@46722 Channel: 9 Command:176
@46756 Channel: 9 Command:176
@46789 Channel: 9 Command:176
@46800 Channel: 9 Note on, C2 key=36 velocity: 0
@46800 Channel: 9 Note on, C2 key=36 velocity: 127
@46823 Channel: 9 Command:176
@46856 Channel: 9 Command:176
@46890 Channel: 9 Command:176
@46920 Channel: 9 Note on, C2 key=36 velocity: 0
@46920 Channel: 9 Note on, C2 key=36 velocity: 127
@46924 Channel: 9 Command:176
@46957 Channel: 9 Command:176
@46991 Channel: 9 Command:176
@47024 Channel: 9 Command:176
@47040 Channel: 9 Note on, C2 key=36 velocity: 0
@47040 Channel: 9 Note on, C2 key=36 velocity: 127
@47058 Channel: 9 Command:176
@47092 Channel: 9 Command:176
@47125 Channel: 9 Command:176
@47159 Channel: 9 Command:176
@47160 Channel: 9 Note on, C2 key=36 velocity: 0
@47160 Channel: 9 Note on, C2 key=36 velocity: 127
@47192 Channel: 9 Command:176
@47226 Channel: 9 Command:176
@47260 Channel: 9 Command:176
@47280 Channel: 9 Note on, C2 key=36 velocity: 0
@47280 Channel: 9 Note on, C2 key=36 velocity: 127
@47293 Channel: 9 Command:176
@47327 Channel: 9 Command:176
@47360 Channel: 9 Command:176
@47394 Channel: 9 Command:176
@47400 Channel: 9 Note on, C2 key=36 velocity: 0
@47400 Channel: 9 Note on, C2 key=36 velocity: 127
@47427 Channel: 9 Command:176
@47461 Channel: 9 Command:176
@47495 Channel: 9 Command:176
@47520 Channel: 9 Note on, C2 key=36 velocity: 0
@47520 Channel: 9 Note on, C2 key=36 velocity: 127
@47528 Channel: 9 Command:176
@47562 Channel: 9 Command:176
@47595 Channel: 9 Command:176
@47629 Channel: 9 Command:176
@47640 Channel: 9 Note on, C2 key=36 velocity: 0
@47640 Channel: 9 Note on, C2 key=36 velocity: 127
@47663 Channel: 9 Command:176
@47696 Channel: 9 Command:176
@47730 Channel: 9 Command:176
@47760 Channel: 9 Note on, C2 key=36 velocity: 0
@47760 Channel: 9 Note on, C2 key=36 velocity: 127
@47763 Channel: 9 Command:176
@47797 Channel: 9 Command:176
@47831 Channel: 9 Command:176
@47864 Channel: 9 Command:176
@47880 Channel: 9 Note on, C2 key=36 velocity: 0
@47880 Channel: 9 Note on, C2 key=36 velocity: 127
@47898 Channel: 9 Command:176
@47931 Channel: 9 Command:176
@47965 Channel: 9 Command:176
@47999 Channel: 9 Command:176
@48000 Channel: 9 Note on, C2 key=36 velocity: 0
@48000 Other message: class javax.sound.midi.Track$ImmutableEndOfTrack

Track 9: size = 438

@0 Other message: class javax.sound.midi.MetaMessage
@0 Other message: class javax.sound.midi.MetaMessage
@0 Channel: 9 Command:192
@0 Channel: 9 Command:176
@0 Channel: 9 Command:176
@600 Channel: 9 Note on, A#4 key=70 velocity: 127
@653 Channel: 9 Note on, A#4 key=70 velocity: 0
@840 Channel: 9 Note on, A4 key=69 velocity: 127
@840 Channel: 9 Note on, A#3 key=58 velocity: 127
@840 Channel: 9 Note on, A#4 key=70 velocity: 127
@872 Channel: 9 Note on, A4 key=69 velocity: 0
@897 Channel: 9 Note on, A#4 key=70 velocity: 0
@961 Channel: 9 Note on, A#3 key=58 velocity: 0
@1320 Channel: 9 Note on, A4 key=69 velocity: 127
@1320 Channel: 9 Note on, A#4 key=70 velocity: 127
@1320 Channel: 9 Note on, A#3 key=58 velocity: 127
@1341 Channel: 9 Note on, A4 key=69 velocity: 0
@1352 Channel: 9 Note on, A#4 key=70 velocity: 0
@1555 Channel: 9 Note on, A#3 key=58 velocity: 0
@1800 Channel: 9 Note on, A#3 key=58 velocity: 127
@1800 Channel: 9 Note on, A4 key=69 velocity: 127
@1800 Channel: 9 Note on, A#4 key=70 velocity: 127
@1822 Channel: 9 Note on, A4 key=69 velocity: 0
@1838 Channel: 9 Note on, A#4 key=70 velocity: 0
@2157 Channel: 9 Note on, A#3 key=58 velocity: 0
@2280 Channel: 9 Note on, A4 key=69 velocity: 127
@2280 Channel: 9 Note on, A#4 key=70 velocity: 127
@2280 Channel: 9 Note on, A#3 key=58 velocity: 127
@2301 Channel: 9 Note on, A4 key=69 velocity: 0
@2312 Channel: 9 Note on, A#4 key=70 velocity: 0
@2513 Channel: 9 Note on, A#3 key=58 velocity: 0
@2760 Channel: 9 Note on, A#3 key=58 velocity: 127
@2760 Channel: 9 Note on, A4 key=69 velocity: 127
@2760 Channel: 9 Note on, A#4 key=70 velocity: 127
@2782 Channel: 9 Note on, A4 key=69 velocity: 0
@2798 Channel: 9 Note on, A#4 key=70 velocity: 0
@3004 Channel: 9 Note on, A#3 key=58 velocity: 0
@3240 Channel: 9 Note on, A4 key=69 velocity: 127
@3240 Channel: 9 Note on, A#4 key=70 velocity: 127
@3240 Channel: 9 Note on, A#3 key=58 velocity: 127
@3261 Channel: 9 Note on, A4 key=69 velocity: 0
@3272 Channel: 9 Note on, A#4 key=70 velocity: 0
@3477 Channel: 9 Note on, A#3 key=58 velocity: 0
@3720 Channel: 9 Note on, A#3 key=58 velocity: 127
@3720 Channel: 9 Note on, A4 key=69 velocity: 127
@3720 Channel: 9 Note on, A#4 key=70 velocity: 127
@3742 Channel: 9 Note on, A4 key=69 velocity: 0
@3758 Channel: 9 Note on, A#4 key=70 velocity: 0
@3966 Channel: 9 Note on, A#3 key=58 velocity: 0
@4200 Channel: 9 Note on, A#3 key=58 velocity: 127
@4200 Channel: 9 Note on, A4 key=69 velocity: 127
@4200 Channel: 9 Note on, A#4 key=70 velocity: 127
@4221 Channel: 9 Note on, A4 key=69 velocity: 0
@4232 Channel: 9 Note on, A#4 key=70 velocity: 0
@4447 Channel: 9 Note on, A#3 key=58 velocity: 0
@4680 Channel: 9 Note on, A4 key=69 velocity: 127
@4680 Channel: 9 Note on, A#4 key=70 velocity: 127
@4680 Channel: 9 Note on, A#3 key=58 velocity: 127
@4702 Channel: 9 Note on, A4 key=69 velocity: 0
@4718 Channel: 9 Note on, A#4 key=70 velocity: 0
@4915 Channel: 9 Note on, A#3 key=58 velocity: 0
@5160 Channel: 9 Note on, A#3 key=58 velocity: 127
@5160 Channel: 9 Note on, A4 key=69 velocity: 127
@5160 Channel: 9 Note on, A#4 key=70 velocity: 127
@5181 Channel: 9 Note on, A4 key=69 velocity: 0
@5192 Channel: 9 Note on, A#4 key=70 velocity: 0
@5409 Channel: 9 Note on, A#3 key=58 velocity: 0
@5640 Channel: 9 Note on, A4 key=69 velocity: 127
@5640 Channel: 9 Note on, A#4 key=70 velocity: 127
@5640 Channel: 9 Note on, A#3 key=58 velocity: 127
@5662 Channel: 9 Note on, A4 key=69 velocity: 0
@5678 Channel: 9 Note on, A#4 key=70 velocity: 0
@5887 Channel: 9 Note on, A#3 key=58 velocity: 0
@6120 Channel: 9 Note on, A4 key=69 velocity: 127
@6120 Channel: 9 Note on, A#4 key=70 velocity: 127
@6120 Channel: 9 Note on, A#3 key=58 velocity: 127
@6141 Channel: 9 Note on, A4 key=69 velocity: 0
@6152 Channel: 9 Note on, A#4 key=70 velocity: 0
@6360 Channel: 9 Note on, A#3 key=58 velocity: 0
@6600 Channel: 9 Note on, A4 key=69 velocity: 127
@6600 Channel: 9 Note on, A#4 key=70 velocity: 127
@6600 Channel: 9 Note on, A#3 key=58 velocity: 127
@6622 Channel: 9 Note on, A4 key=69 velocity: 0
@6638 Channel: 9 Note on, A#4 key=70 velocity: 0
@6833 Channel: 9 Note on, A#3 key=58 velocity: 0
@7080 Channel: 9 Note on, A#3 key=58 velocity: 127
@7080 Channel: 9 Note on, A4 key=69 velocity: 127
@7080 Channel: 9 Note on, A#4 key=70 velocity: 127
@7101 Channel: 9 Note on, A4 key=69 velocity: 0
@7112 Channel: 9 Note on, A#4 key=70 velocity: 0
@7322 Channel: 9 Note on, A#3 key=58 velocity: 0
@7560 Channel: 9 Note on, A4 key=69 velocity: 127
@7560 Channel: 9 Note on, A#4 key=70 velocity: 127
@7560 Channel: 9 Note on, A#3 key=58 velocity: 127
@7582 Channel: 9 Note on, A4 key=69 velocity: 0
@7598 Channel: 9 Note on, A#4 key=70 velocity: 0
@7797 Channel: 9 Note on, A#3 key=58 velocity: 0
@8040 Channel: 9 Note on, A#3 key=58 velocity: 127
@8040 Channel: 9 Note on, A4 key=69 velocity: 127
@8040 Channel: 9 Note on, A#4 key=70 velocity: 127
@8061 Channel: 9 Note on, A4 key=69 velocity: 0
@8072 Channel: 9 Note on, A#4 key=70 velocity: 0
@8279 Channel: 9 Note on, A#3 key=58 velocity: 0
@8520 Channel: 9 Note on, A4 key=69 velocity: 127
@8520 Channel: 9 Note on, A#4 key=70 velocity: 127
@8520 Channel: 9 Note on, A#3 key=58 velocity: 127
@8542 Channel: 9 Note on, A4 key=69 velocity: 0
@8558 Channel: 9 Note on, A#4 key=70 velocity: 0
@8762 Channel: 9 Note on, A#3 key=58 velocity: 0
@9000 Channel: 9 Note on, A4 key=69 velocity: 127
@9000 Channel: 9 Note on, A#4 key=70 velocity: 127
@9000 Channel: 9 Note on, A#3 key=58 velocity: 127
@9021 Channel: 9 Note on, A4 key=69 velocity: 0
@9032 Channel: 9 Note on, A#4 key=70 velocity: 0
@9230 Channel: 9 Note on, A#3 key=58 velocity: 0
@9480 Channel: 9 Note on, A#3 key=58 velocity: 127
@9480 Channel: 9 Note on, A4 key=69 velocity: 127
@9480 Channel: 9 Note on, A#4 key=70 velocity: 127
@9502 Channel: 9 Note on, A4 key=69 velocity: 0
@9518 Channel: 9 Note on, A#4 key=70 velocity: 0
@9724 Channel: 9 Note on, A#3 key=58 velocity: 0
@9960 Channel: 9 Note on, A#3 key=58 velocity: 127
@9960 Channel: 9 Note on, A4 key=69 velocity: 127
@9960 Channel: 9 Note on, A#4 key=70 velocity: 127
@9981 Channel: 9 Note on, A4 key=69 velocity: 0
@9992 Channel: 9 Note on, A#4 key=70 velocity: 0
@10201 Channel: 9 Note on, A#3 key=58 velocity: 0
@10440 Channel: 9 Note on, A#3 key=58 velocity: 127
@10440 Channel: 9 Note on, A4 key=69 velocity: 127
@10440 Channel: 9 Note on, A#4 key=70 velocity: 127
@10462 Channel: 9 Note on, A4 key=69 velocity: 0
@10478 Channel: 9 Note on, A#4 key=70 velocity: 0
@10682 Channel: 9 Note on, A#3 key=58 velocity: 0
@10920 Channel: 9 Note on, A#3 key=58 velocity: 127
@10920 Channel: 9 Note on, A4 key=69 velocity: 127
@10920 Channel: 9 Note on, A#4 key=70 velocity: 127
@10941 Channel: 9 Note on, A4 key=69 velocity: 0
@10952 Channel: 9 Note on, A#4 key=70 velocity: 0
@11161 Channel: 9 Note on, A#3 key=58 velocity: 0
@11400 Channel: 9 Note on, A4 key=69 velocity: 127
@11400 Channel: 9 Note on, A#4 key=70 velocity: 127
@11400 Channel: 9 Note on, A#3 key=58 velocity: 127
@11422 Channel: 9 Note on, A4 key=69 velocity: 0
@11438 Channel: 9 Note on, A#4 key=70 velocity: 0
@11639 Channel: 9 Note on, A#3 key=58 velocity: 0
@11880 Channel: 9 Note on, A#3 key=58 velocity: 127
@11880 Channel: 9 Note on, A4 key=69 velocity: 127
@11880 Channel: 9 Note on, A#4 key=70 velocity: 127
@11901 Channel: 9 Note on, A4 key=69 velocity: 0
@11912 Channel: 9 Note on, A#4 key=70 velocity: 0
@12133 Channel: 9 Note on, A#3 key=58 velocity: 0
@12360 Channel: 9 Note on, A4 key=69 velocity: 127
@12360 Channel: 9 Note on, A#4 key=70 velocity: 127
@12360 Channel: 9 Note on, A#3 key=58 velocity: 127
@12382 Channel: 9 Note on, A4 key=69 velocity: 0
@12398 Channel: 9 Note on, A#4 key=70 velocity: 0
@12595 Channel: 9 Note on, A#3 key=58 velocity: 0
@12840 Channel: 9 Note on, A4 key=69 velocity: 127
@12840 Channel: 9 Note on, A#4 key=70 velocity: 127
@12840 Channel: 9 Note on, A#3 key=58 velocity: 127
@12861 Channel: 9 Note on, A4 key=69 velocity: 0
@12872 Channel: 9 Note on, A#4 key=70 velocity: 0
@13079 Channel: 9 Note on, A#3 key=58 velocity: 0
@13320 Channel: 9 Note on, A4 key=69 velocity: 127
@13320 Channel: 9 Note on, A#4 key=70 velocity: 127
@13320 Channel: 9 Note on, A#3 key=58 velocity: 127
@13342 Channel: 9 Note on, A4 key=69 velocity: 0
@13358 Channel: 9 Note on, A#4 key=70 velocity: 0
@13545 Channel: 9 Note on, A#3 key=58 velocity: 0
@13560 Channel: 9 Note on, E2 key=40 velocity: 127
@13679 Channel: 9 Note on, E2 key=40 velocity: 0
@13800 Channel: 9 Note on, E2 key=40 velocity: 127
@13919 Channel: 9 Note on, E2 key=40 velocity: 0
@14040 Channel: 9 Note on, E2 key=40 velocity: 127
@14159 Channel: 9 Note on, E2 key=40 velocity: 0
@14280 Channel: 9 Note on, E2 key=40 velocity: 127
@14399 Channel: 9 Note on, E2 key=40 velocity: 0
@14520 Channel: 9 Note on, E2 key=40 velocity: 127
@14639 Channel: 9 Note on, E2 key=40 velocity: 0
@14760 Channel: 9 Note on, E2 key=40 velocity: 127
@14879 Channel: 9 Note on, E2 key=40 velocity: 0
@15000 Channel: 9 Note on, E2 key=40 velocity: 127
@15119 Channel: 9 Note on, E2 key=40 velocity: 0
@15240 Channel: 9 Note on, E2 key=40 velocity: 127
@15359 Channel: 9 Note on, E2 key=40 velocity: 0
@15480 Channel: 9 Note on, E2 key=40 velocity: 127
@15599 Channel: 9 Note on, E2 key=40 velocity: 0
@15720 Channel: 9 Note on, E2 key=40 velocity: 127
@15839 Channel: 9 Note on, E2 key=40 velocity: 0
@15960 Channel: 9 Note on, E2 key=40 velocity: 127
@16079 Channel: 9 Note on, E2 key=40 velocity: 0
@16200 Channel: 9 Note on, E2 key=40 velocity: 127
@16319 Channel: 9 Note on, E2 key=40 velocity: 0
@16440 Channel: 9 Note on, E2 key=40 velocity: 127
@16559 Channel: 9 Note on, E2 key=40 velocity: 0
@16680 Channel: 9 Note on, E2 key=40 velocity: 127
@16799 Channel: 9 Note on, E2 key=40 velocity: 0
@16920 Channel: 9 Note on, E2 key=40 velocity: 127
@17039 Channel: 9 Note on, E2 key=40 velocity: 0
@17160 Channel: 9 Note on, E2 key=40 velocity: 127
@17279 Channel: 9 Note on, E2 key=40 velocity: 0
@17400 Channel: 9 Note on, E2 key=40 velocity: 127
@17519 Channel: 9 Note on, E2 key=40 velocity: 0
@17640 Channel: 9 Note on, E2 key=40 velocity: 127
@17759 Channel: 9 Note on, E2 key=40 velocity: 0
@17880 Channel: 9 Note on, E2 key=40 velocity: 127
@17999 Channel: 9 Note on, E2 key=40 velocity: 0
@18120 Channel: 9 Note on, E2 key=40 velocity: 127
@18239 Channel: 9 Note on, E2 key=40 velocity: 0
@18360 Channel: 9 Note on, E2 key=40 velocity: 127
@18479 Channel: 9 Note on, E2 key=40 velocity: 0
@18600 Channel: 9 Note on, E2 key=40 velocity: 127
@18719 Channel: 9 Note on, E2 key=40 velocity: 0
@18840 Channel: 9 Note on, E2 key=40 velocity: 127
@18959 Channel: 9 Note on, E2 key=40 velocity: 0
@19080 Channel: 9 Note on, E2 key=40 velocity: 127
@19199 Channel: 9 Note on, E2 key=40 velocity: 0
@19320 Channel: 9 Note on, E2 key=40 velocity: 127
@19439 Channel: 9 Note on, E2 key=40 velocity: 0
@19560 Channel: 9 Note on, E2 key=40 velocity: 127
@19679 Channel: 9 Note on, E2 key=40 velocity: 0
@19800 Channel: 9 Note on, E2 key=40 velocity: 127
@19919 Channel: 9 Note on, E2 key=40 velocity: 0
@20040 Channel: 9 Note on, E2 key=40 velocity: 127
@20159 Channel: 9 Note on, E2 key=40 velocity: 0
@20280 Channel: 9 Note on, E2 key=40 velocity: 127
@20399 Channel: 9 Note on, E2 key=40 velocity: 0
@20520 Channel: 9 Note on, E2 key=40 velocity: 127
@20639 Channel: 9 Note on, E2 key=40 velocity: 0
@20760 Channel: 9 Note on, E2 key=40 velocity: 127
@20879 Channel: 9 Note on, E2 key=40 velocity: 0
@21000 Channel: 9 Note on, E2 key=40 velocity: 127
@21119 Channel: 9 Note on, E2 key=40 velocity: 0
@21240 Channel: 9 Note on, E2 key=40 velocity: 127
@21359 Channel: 9 Note on, E2 key=40 velocity: 0
@21480 Channel: 9 Note on, E2 key=40 velocity: 127
@21599 Channel: 9 Note on, E2 key=40 velocity: 0
@21720 Channel: 9 Note on, E2 key=40 velocity: 127
@21839 Channel: 9 Note on, E2 key=40 velocity: 0
@21960 Channel: 9 Note on, E2 key=40 velocity: 127
@22079 Channel: 9 Note on, E2 key=40 velocity: 0
@22200 Channel: 9 Note on, E2 key=40 velocity: 127
@22319 Channel: 9 Note on, E2 key=40 velocity: 0
@22440 Channel: 9 Note on, E2 key=40 velocity: 127
@22559 Channel: 9 Note on, E2 key=40 velocity: 0
@22680 Channel: 9 Note on, E2 key=40 velocity: 127
@22799 Channel: 9 Note on, E2 key=40 velocity: 0
@22920 Channel: 9 Note on, E2 key=40 velocity: 127
@23039 Channel: 9 Note on, E2 key=40 velocity: 0
@23160 Channel: 9 Note on, E2 key=40 velocity: 127
@23279 Channel: 9 Note on, E2 key=40 velocity: 0
@23400 Channel: 9 Note on, E2 key=40 velocity: 127
@23519 Channel: 9 Note on, E2 key=40 velocity: 0
@23640 Channel: 9 Note on, E2 key=40 velocity: 127
@23759 Channel: 9 Note on, E2 key=40 velocity: 0
@23880 Channel: 9 Note on, E2 key=40 velocity: 127
@23999 Channel: 9 Note on, E2 key=40 velocity: 0
@24120 Channel: 9 Note on, E2 key=40 velocity: 127
@24239 Channel: 9 Note on, E2 key=40 velocity: 0
@24360 Channel: 9 Note on, E2 key=40 velocity: 127
@24479 Channel: 9 Note on, E2 key=40 velocity: 0
@24600 Channel: 9 Note on, E2 key=40 velocity: 127
@24719 Channel: 9 Note on, E2 key=40 velocity: 0
@24840 Channel: 9 Note on, E2 key=40 velocity: 127
@24959 Channel: 9 Note on, E2 key=40 velocity: 0
@25080 Channel: 9 Note on, E2 key=40 velocity: 127
@25199 Channel: 9 Note on, E2 key=40 velocity: 0
@25320 Channel: 9 Note on, E2 key=40 velocity: 127
@25439 Channel: 9 Note on, E2 key=40 velocity: 0
@25560 Channel: 9 Note on, E2 key=40 velocity: 127
@25679 Channel: 9 Note on, E2 key=40 velocity: 0
@25800 Channel: 9 Note on, E2 key=40 velocity: 127
@25919 Channel: 9 Note on, E2 key=40 velocity: 0
@26040 Channel: 9 Note on, E2 key=40 velocity: 127
@26159 Channel: 9 Note on, E2 key=40 velocity: 0
@26280 Channel: 9 Note on, E2 key=40 velocity: 127
@26399 Channel: 9 Note on, E2 key=40 velocity: 0
@26520 Channel: 9 Note on, E2 key=40 velocity: 127
@26639 Channel: 9 Note on, E2 key=40 velocity: 0
@26760 Channel: 9 Note on, E2 key=40 velocity: 127
@26879 Channel: 9 Note on, E2 key=40 velocity: 0
@27000 Channel: 9 Note on, E2 key=40 velocity: 127
@27119 Channel: 9 Note on, E2 key=40 velocity: 0
@27240 Channel: 9 Note on, E2 key=40 velocity: 127
@27359 Channel: 9 Note on, E2 key=40 velocity: 0
@27480 Channel: 9 Note on, E2 key=40 velocity: 127
@27599 Channel: 9 Note on, E2 key=40 velocity: 0
@27720 Channel: 9 Note on, E2 key=40 velocity: 127
@27839 Channel: 9 Note on, E2 key=40 velocity: 0
@27960 Channel: 9 Note on, E2 key=40 velocity: 127
@28079 Channel: 9 Note on, E2 key=40 velocity: 0
@28200 Channel: 9 Note on, E2 key=40 velocity: 127
@28319 Channel: 9 Note on, E2 key=40 velocity: 0
@30840 Channel: 9 Note on, E2 key=40 velocity: 127
@30959 Channel: 9 Note on, E2 key=40 velocity: 0
@31080 Channel: 9 Note on, E2 key=40 velocity: 127
@31199 Channel: 9 Note on, E2 key=40 velocity: 0
@31320 Channel: 9 Note on, E2 key=40 velocity: 127
@31439 Channel: 9 Note on, E2 key=40 velocity: 0
@31560 Channel: 9 Note on, E2 key=40 velocity: 127
@31679 Channel: 9 Note on, E2 key=40 velocity: 0
@31800 Channel: 9 Note on, E2 key=40 velocity: 127
@31919 Channel: 9 Note on, E2 key=40 velocity: 0
@32040 Channel: 9 Note on, E2 key=40 velocity: 127
@32159 Channel: 9 Note on, E2 key=40 velocity: 0
@32280 Channel: 9 Note on, E2 key=40 velocity: 127
@32399 Channel: 9 Note on, E2 key=40 velocity: 0
@32520 Channel: 9 Note on, E2 key=40 velocity: 127
@32639 Channel: 9 Note on, E2 key=40 velocity: 0
@32760 Channel: 9 Note on, E2 key=40 velocity: 127
@32879 Channel: 9 Note on, E2 key=40 velocity: 0
@33000 Channel: 9 Note on, E2 key=40 velocity: 127
@33119 Channel: 9 Note on, E2 key=40 velocity: 0
@33240 Channel: 9 Note on, E2 key=40 velocity: 127
@33359 Channel: 9 Note on, E2 key=40 velocity: 0
@33480 Channel: 9 Note on, E2 key=40 velocity: 127
@33599 Channel: 9 Note on, E2 key=40 velocity: 0
@33720 Channel: 9 Note on, E2 key=40 velocity: 127
@33839 Channel: 9 Note on, E2 key=40 velocity: 0
@33960 Channel: 9 Note on, E2 key=40 velocity: 127
@34079 Channel: 9 Note on, E2 key=40 velocity: 0
@34200 Channel: 9 Note on, E2 key=40 velocity: 127
@34319 Channel: 9 Note on, E2 key=40 velocity: 0
@34440 Channel: 9 Note on, E2 key=40 velocity: 127
@34559 Channel: 9 Note on, E2 key=40 velocity: 0
@34680 Channel: 9 Note on, E2 key=40 velocity: 127
@34799 Channel: 9 Note on, E2 key=40 velocity: 0
@34920 Channel: 9 Note on, E2 key=40 velocity: 127
@35039 Channel: 9 Note on, E2 key=40 velocity: 0
@35160 Channel: 9 Note on, E2 key=40 velocity: 127
@35279 Channel: 9 Note on, E2 key=40 velocity: 0
@35400 Channel: 9 Note on, E2 key=40 velocity: 127
@35519 Channel: 9 Note on, E2 key=40 velocity: 0
@35640 Channel: 9 Note on, E2 key=40 velocity: 127
@35759 Channel: 9 Note on, E2 key=40 velocity: 0
@35880 Channel: 9 Note on, E2 key=40 velocity: 127
@35999 Channel: 9 Note on, E2 key=40 velocity: 0
@36120 Channel: 9 Note on, E2 key=40 velocity: 127
@36239 Channel: 9 Note on, E2 key=40 velocity: 0
@36360 Channel: 9 Note on, E2 key=40 velocity: 127
@36479 Channel: 9 Note on, E2 key=40 velocity: 0
@36600 Channel: 9 Note on, E2 key=40 velocity: 127
@36719 Channel: 9 Note on, E2 key=40 velocity: 0
@36840 Channel: 9 Note on, E2 key=40 velocity: 127
@36959 Channel: 9 Note on, E2 key=40 velocity: 0
@37080 Channel: 9 Note on, E2 key=40 velocity: 127
@37199 Channel: 9 Note on, E2 key=40 velocity: 0
@37320 Channel: 9 Note on, E2 key=40 velocity: 127
@37439 Channel: 9 Note on, E2 key=40 velocity: 0
@37560 Channel: 9 Note on, E2 key=40 velocity: 127
@37679 Channel: 9 Note on, E2 key=40 velocity: 0
@37800 Channel: 9 Note on, E2 key=40 velocity: 127
@37919 Channel: 9 Note on, E2 key=40 velocity: 0
@38040 Channel: 9 Note on, E2 key=40 velocity: 127
@38159 Channel: 9 Note on, E2 key=40 velocity: 0
@38280 Channel: 9 Note on, E2 key=40 velocity: 127
@38399 Channel: 9 Note on, E2 key=40 velocity: 0
@38520 Channel: 9 Note on, E2 key=40 velocity: 127
@38639 Channel: 9 Note on, E2 key=40 velocity: 0
@38760 Channel: 9 Note on, E2 key=40 velocity: 127
@38879 Channel: 9 Note on, E2 key=40 velocity: 0
@39000 Channel: 9 Note on, E2 key=40 velocity: 127
@39119 Channel: 9 Note on, E2 key=40 velocity: 0
@39240 Channel: 9 Note on, E2 key=40 velocity: 127
@39359 Channel: 9 Note on, E2 key=40 velocity: 0
@39480 Channel: 9 Note on, E2 key=40 velocity: 127
@39599 Channel: 9 Note on, E2 key=40 velocity: 0
@39720 Channel: 9 Note on, E2 key=40 velocity: 127
@39839 Channel: 9 Note on, E2 key=40 velocity: 0
@39960 Channel: 9 Note on, E2 key=40 velocity: 127
@40079 Channel: 9 Note on, E2 key=40 velocity: 0
@40200 Channel: 9 Note on, E2 key=40 velocity: 127
@40319 Channel: 9 Note on, E2 key=40 velocity: 0
@40440 Channel: 9 Note on, E2 key=40 velocity: 127
@40559 Channel: 9 Note on, E2 key=40 velocity: 0
@40680 Channel: 9 Note on, E2 key=40 velocity: 127
@40799 Channel: 9 Note on, E2 key=40 velocity: 0
@40920 Channel: 9 Note on, E2 key=40 velocity: 127
@41039 Channel: 9 Note on, E2 key=40 velocity: 0
@41160 Channel: 9 Note on, E2 key=40 velocity: 127
@41279 Channel: 9 Note on, E2 key=40 velocity: 0
@41400 Channel: 9 Note on, E2 key=40 velocity: 127
@41519 Channel: 9 Note on, E2 key=40 velocity: 0
@41640 Channel: 9 Note on, E2 key=40 velocity: 127
@41759 Channel: 9 Note on, E2 key=40 velocity: 0
@41880 Channel: 9 Note on, E2 key=40 velocity: 127
@41999 Channel: 9 Note on, E2 key=40 velocity: 0
@42120 Channel: 9 Note on, E2 key=40 velocity: 127
@42239 Channel: 9 Note on, E2 key=40 velocity: 0
@42360 Channel: 9 Note on, E2 key=40 velocity: 127
@42479 Channel: 9 Note on, E2 key=40 velocity: 0
@42600 Channel: 9 Note on, E2 key=40 velocity: 127
@42719 Channel: 9 Note on, E2 key=40 velocity: 0
@42840 Channel: 9 Note on, E2 key=40 velocity: 127
@42959 Channel: 9 Note on, E2 key=40 velocity: 0
@43080 Channel: 9 Note on, E2 key=40 velocity: 127
@43199 Channel: 9 Note on, E2 key=40 velocity: 0
@43320 Channel: 9 Note on, E2 key=40 velocity: 127
@43439 Channel: 9 Note on, E2 key=40 velocity: 0
@43560 Channel: 9 Note on, E2 key=40 velocity: 127
@43679 Channel: 9 Note on, E2 key=40 velocity: 0
@43800 Channel: 9 Note on, E2 key=40 velocity: 127
@43919 Channel: 9 Note on, E2 key=40 velocity: 0
@44040 Channel: 9 Note on, E2 key=40 velocity: 127
@44159 Channel: 9 Note on, E2 key=40 velocity: 0
@44280 Channel: 9 Note on, E2 key=40 velocity: 127
@44399 Channel: 9 Note on, E2 key=40 velocity: 0
@44520 Channel: 9 Note on, E2 key=40 velocity: 127
@44639 Channel: 9 Note on, E2 key=40 velocity: 0
@44760 Channel: 9 Note on, E2 key=40 velocity: 127
@44879 Channel: 9 Note on, E2 key=40 velocity: 0
@45000 Channel: 9 Note on, E2 key=40 velocity: 127
@45119 Channel: 9 Note on, E2 key=40 velocity: 0
@45240 Channel: 9 Note on, E2 key=40 velocity: 127
@45359 Channel: 9 Note on, E2 key=40 velocity: 0
@45480 Channel: 9 Note on, E2 key=40 velocity: 127
@45599 Channel: 9 Note on, E2 key=40 velocity: 0
@45720 Channel: 9 Note on, E2 key=40 velocity: 127
@45839 Channel: 9 Note on, E2 key=40 velocity: 0
@45960 Channel: 9 Note on, E2 key=40 velocity: 127
@46079 Channel: 9 Note on, E2 key=40 velocity: 0
@46200 Channel: 9 Note on, E2 key=40 velocity: 127
@46319 Channel: 9 Note on, E2 key=40 velocity: 0
@46440 Channel: 9 Note on, E2 key=40 velocity: 127
@46559 Channel: 9 Note on, E2 key=40 velocity: 0
@46680 Channel: 9 Note on, E2 key=40 velocity: 127
@46799 Channel: 9 Note on, E2 key=40 velocity: 0
@46920 Channel: 9 Note on, E2 key=40 velocity: 127
@47039 Channel: 9 Note on, E2 key=40 velocity: 0
@47160 Channel: 9 Note on, E2 key=40 velocity: 127
@47279 Channel: 9 Note on, E2 key=40 velocity: 0
@47400 Channel: 9 Note on, E2 key=40 velocity: 127
@47519 Channel: 9 Note on, E2 key=40 velocity: 0
@47640 Channel: 9 Note on, E2 key=40 velocity: 127
@47759 Channel: 9 Note on, E2 key=40 velocity: 0
@47880 Channel: 9 Note on, E2 key=40 velocity: 127
@47999 Channel: 9 Note on, E2 key=40 velocity: 0
@47999 Other message: class javax.sound.midi.Track$ImmutableEndOfTrack

Track 10: size = 1158

@0 Other message: class javax.sound.midi.MetaMessage
@0 Other message: class javax.sound.midi.MetaMessage
@0 Channel: 9 Command:192
@0 Channel: 9 Command:176
@0 Channel: 9 Command:176
@13500 Channel: 9 Note on, A#4 key=70 velocity: 117
@13500 Channel: 9 Note on, A4 key=69 velocity: 117
@13529 Channel: 9 Note on, A4 key=69 velocity: 0
@13529 Channel: 9 Note on, A#4 key=70 velocity: 0
@13620 Channel: 9 Note on, A#4 key=70 velocity: 117
@13620 Channel: 9 Note on, A4 key=69 velocity: 117
@13649 Channel: 9 Note on, A4 key=69 velocity: 0
@13649 Channel: 9 Note on, A#4 key=70 velocity: 0
@13740 Channel: 9 Note on, A4 key=69 velocity: 117
@13740 Channel: 9 Note on, A#4 key=70 velocity: 117
@13769 Channel: 9 Note on, A#4 key=70 velocity: 0
@13769 Channel: 9 Note on, A4 key=69 velocity: 0
@13860 Channel: 9 Note on, A#4 key=70 velocity: 117
@13860 Channel: 9 Note on, A4 key=69 velocity: 117
@13889 Channel: 9 Note on, A4 key=69 velocity: 0
@13889 Channel: 9 Note on, A#4 key=70 velocity: 0
@13980 Channel: 9 Note on, A#4 key=70 velocity: 117
@13980 Channel: 9 Note on, A4 key=69 velocity: 117
@14009 Channel: 9 Note on, A4 key=69 velocity: 0
@14009 Channel: 9 Note on, A#4 key=70 velocity: 0
@14100 Channel: 9 Note on, A#4 key=70 velocity: 117
@14100 Channel: 9 Note on, A4 key=69 velocity: 117
@14129 Channel: 9 Note on, A4 key=69 velocity: 0
@14129 Channel: 9 Note on, A#4 key=70 velocity: 0
@14220 Channel: 9 Note on, A#4 key=70 velocity: 117
@14220 Channel: 9 Note on, A4 key=69 velocity: 117
@14249 Channel: 9 Note on, A4 key=69 velocity: 0
@14249 Channel: 9 Note on, A#4 key=70 velocity: 0
@14340 Channel: 9 Note on, A#4 key=70 velocity: 117
@14340 Channel: 9 Note on, A4 key=69 velocity: 117
@14369 Channel: 9 Note on, A4 key=69 velocity: 0
@14369 Channel: 9 Note on, A#4 key=70 velocity: 0
@14460 Channel: 9 Note on, A#4 key=70 velocity: 117
@14460 Channel: 9 Note on, A4 key=69 velocity: 117
@14489 Channel: 9 Note on, A4 key=69 velocity: 0
@14489 Channel: 9 Note on, A#4 key=70 velocity: 0
@14580 Channel: 9 Note on, A#4 key=70 velocity: 117
@14580 Channel: 9 Note on, A4 key=69 velocity: 117
@14609 Channel: 9 Note on, A4 key=69 velocity: 0
@14609 Channel: 9 Note on, A#4 key=70 velocity: 0
@14700 Channel: 9 Note on, A#4 key=70 velocity: 117
@14700 Channel: 9 Note on, A4 key=69 velocity: 117
@14729 Channel: 9 Note on, A4 key=69 velocity: 0
@14729 Channel: 9 Note on, A#4 key=70 velocity: 0
@14820 Channel: 9 Note on, A#4 key=70 velocity: 117
@14820 Channel: 9 Note on, A4 key=69 velocity: 117
@14849 Channel: 9 Note on, A4 key=69 velocity: 0
@14849 Channel: 9 Note on, A#4 key=70 velocity: 0
@14940 Channel: 9 Note on, A#4 key=70 velocity: 117
@14940 Channel: 9 Note on, A4 key=69 velocity: 117
@14969 Channel: 9 Note on, A4 key=69 velocity: 0
@14969 Channel: 9 Note on, A#4 key=70 velocity: 0
@15060 Channel: 9 Note on, A#4 key=70 velocity: 117
@15060 Channel: 9 Note on, A4 key=69 velocity: 117
@15089 Channel: 9 Note on, A4 key=69 velocity: 0
@15089 Channel: 9 Note on, A#4 key=70 velocity: 0
@15180 Channel: 9 Note on, A#4 key=70 velocity: 117
@15180 Channel: 9 Note on, A4 key=69 velocity: 117
@15209 Channel: 9 Note on, A4 key=69 velocity: 0
@15209 Channel: 9 Note on, A#4 key=70 velocity: 0
@15300 Channel: 9 Note on, A#4 key=70 velocity: 117
@15300 Channel: 9 Note on, A4 key=69 velocity: 117
@15329 Channel: 9 Note on, A4 key=69 velocity: 0
@15329 Channel: 9 Note on, A#4 key=70 velocity: 0
@15420 Channel: 9 Note on, A#4 key=70 velocity: 117
@15420 Channel: 9 Note on, A4 key=69 velocity: 117
@15449 Channel: 9 Note on, A4 key=69 velocity: 0
@15449 Channel: 9 Note on, A#4 key=70 velocity: 0
@15540 Channel: 9 Note on, A#4 key=70 velocity: 117
@15540 Channel: 9 Note on, A4 key=69 velocity: 117
@15569 Channel: 9 Note on, A4 key=69 velocity: 0
@15569 Channel: 9 Note on, A#4 key=70 velocity: 0
@15660 Channel: 9 Note on, A4 key=69 velocity: 117
@15660 Channel: 9 Note on, A#4 key=70 velocity: 117
@15689 Channel: 9 Note on, A#4 key=70 velocity: 0
@15689 Channel: 9 Note on, A4 key=69 velocity: 0
@15780 Channel: 9 Note on, A#4 key=70 velocity: 117
@15780 Channel: 9 Note on, A4 key=69 velocity: 117
@15809 Channel: 9 Note on, A4 key=69 velocity: 0
@15809 Channel: 9 Note on, A#4 key=70 velocity: 0
@15900 Channel: 9 Note on, A#4 key=70 velocity: 117
@15900 Channel: 9 Note on, A4 key=69 velocity: 117
@15929 Channel: 9 Note on, A4 key=69 velocity: 0
@15929 Channel: 9 Note on, A#4 key=70 velocity: 0
@16020 Channel: 9 Note on, A#4 key=70 velocity: 117
@16020 Channel: 9 Note on, A4 key=69 velocity: 117
@16049 Channel: 9 Note on, A4 key=69 velocity: 0
@16049 Channel: 9 Note on, A#4 key=70 velocity: 0
@16140 Channel: 9 Note on, A#4 key=70 velocity: 117
@16140 Channel: 9 Note on, A4 key=69 velocity: 117
@16169 Channel: 9 Note on, A4 key=69 velocity: 0
@16169 Channel: 9 Note on, A#4 key=70 velocity: 0
@16260 Channel: 9 Note on, A#4 key=70 velocity: 117
@16260 Channel: 9 Note on, A4 key=69 velocity: 117
@16289 Channel: 9 Note on, A4 key=69 velocity: 0
@16289 Channel: 9 Note on, A#4 key=70 velocity: 0
@16380 Channel: 9 Note on, A#4 key=70 velocity: 117
@16380 Channel: 9 Note on, A4 key=69 velocity: 117
@16409 Channel: 9 Note on, A4 key=69 velocity: 0
@16409 Channel: 9 Note on, A#4 key=70 velocity: 0
@16500 Channel: 9 Note on, A#4 key=70 velocity: 117
@16500 Channel: 9 Note on, A4 key=69 velocity: 117
@16529 Channel: 9 Note on, A4 key=69 velocity: 0
@16529 Channel: 9 Note on, A#4 key=70 velocity: 0
@16620 Channel: 9 Note on, A#4 key=70 velocity: 117
@16620 Channel: 9 Note on, A4 key=69 velocity: 117
@16649 Channel: 9 Note on, A4 key=69 velocity: 0
@16649 Channel: 9 Note on, A#4 key=70 velocity: 0
@16740 Channel: 9 Note on, A#4 key=70 velocity: 117
@16740 Channel: 9 Note on, A4 key=69 velocity: 117
@16769 Channel: 9 Note on, A4 key=69 velocity: 0
@16769 Channel: 9 Note on, A#4 key=70 velocity: 0
@16860 Channel: 9 Note on, A#4 key=70 velocity: 117
@16860 Channel: 9 Note on, A4 key=69 velocity: 117
@16889 Channel: 9 Note on, A4 key=69 velocity: 0
@16889 Channel: 9 Note on, A#4 key=70 velocity: 0
@16980 Channel: 9 Note on, A#4 key=70 velocity: 117
@16980 Channel: 9 Note on, A4 key=69 velocity: 117
@17009 Channel: 9 Note on, A4 key=69 velocity: 0
@17009 Channel: 9 Note on, A#4 key=70 velocity: 0
@17100 Channel: 9 Note on, A#4 key=70 velocity: 117
@17100 Channel: 9 Note on, A4 key=69 velocity: 117
@17129 Channel: 9 Note on, A4 key=69 velocity: 0
@17129 Channel: 9 Note on, A#4 key=70 velocity: 0
@17220 Channel: 9 Note on, A#4 key=70 velocity: 117
@17220 Channel: 9 Note on, A4 key=69 velocity: 117
@17249 Channel: 9 Note on, A4 key=69 velocity: 0
@17249 Channel: 9 Note on, A#4 key=70 velocity: 0
@17340 Channel: 9 Note on, A#4 key=70 velocity: 117
@17340 Channel: 9 Note on, A4 key=69 velocity: 117
@17369 Channel: 9 Note on, A4 key=69 velocity: 0
@17369 Channel: 9 Note on, A#4 key=70 velocity: 0
@17460 Channel: 9 Note on, A#4 key=70 velocity: 117
@17460 Channel: 9 Note on, A4 key=69 velocity: 117
@17489 Channel: 9 Note on, A4 key=69 velocity: 0
@17489 Channel: 9 Note on, A#4 key=70 velocity: 0
@17580 Channel: 9 Note on, A4 key=69 velocity: 117
@17580 Channel: 9 Note on, A#4 key=70 velocity: 117
@17609 Channel: 9 Note on, A#4 key=70 velocity: 0
@17609 Channel: 9 Note on, A4 key=69 velocity: 0
@17700 Channel: 9 Note on, A#4 key=70 velocity: 117
@17700 Channel: 9 Note on, A4 key=69 velocity: 117
@17729 Channel: 9 Note on, A4 key=69 velocity: 0
@17729 Channel: 9 Note on, A#4 key=70 velocity: 0
@17820 Channel: 9 Note on, A#4 key=70 velocity: 117
@17820 Channel: 9 Note on, A4 key=69 velocity: 117
@17849 Channel: 9 Note on, A4 key=69 velocity: 0
@17849 Channel: 9 Note on, A#4 key=70 velocity: 0
@17940 Channel: 9 Note on, A#4 key=70 velocity: 117
@17940 Channel: 9 Note on, A4 key=69 velocity: 117
@17969 Channel: 9 Note on, A4 key=69 velocity: 0
@17969 Channel: 9 Note on, A#4 key=70 velocity: 0
@18060 Channel: 9 Note on, A#4 key=70 velocity: 117
@18060 Channel: 9 Note on, A4 key=69 velocity: 117
@18089 Channel: 9 Note on, A4 key=69 velocity: 0
@18089 Channel: 9 Note on, A#4 key=70 velocity: 0
@18180 Channel: 9 Note on, A#4 key=70 velocity: 117
@18180 Channel: 9 Note on, A4 key=69 velocity: 117
@18209 Channel: 9 Note on, A4 key=69 velocity: 0
@18209 Channel: 9 Note on, A#4 key=70 velocity: 0
@18300 Channel: 9 Note on, A#4 key=70 velocity: 117
@18300 Channel: 9 Note on, A4 key=69 velocity: 117
@18329 Channel: 9 Note on, A4 key=69 velocity: 0
@18329 Channel: 9 Note on, A#4 key=70 velocity: 0
@18420 Channel: 9 Note on, A#4 key=70 velocity: 117
@18420 Channel: 9 Note on, A4 key=69 velocity: 117
@18449 Channel: 9 Note on, A4 key=69 velocity: 0
@18449 Channel: 9 Note on, A#4 key=70 velocity: 0
@18540 Channel: 9 Note on, A#4 key=70 velocity: 117
@18540 Channel: 9 Note on, A4 key=69 velocity: 117
@18569 Channel: 9 Note on, A4 key=69 velocity: 0
@18569 Channel: 9 Note on, A#4 key=70 velocity: 0
@18660 Channel: 9 Note on, A#4 key=70 velocity: 117
@18660 Channel: 9 Note on, A4 key=69 velocity: 117
@18689 Channel: 9 Note on, A4 key=69 velocity: 0
@18689 Channel: 9 Note on, A#4 key=70 velocity: 0
@18780 Channel: 9 Note on, A#4 key=70 velocity: 117
@18780 Channel: 9 Note on, A4 key=69 velocity: 117
@18809 Channel: 9 Note on, A4 key=69 velocity: 0
@18809 Channel: 9 Note on, A#4 key=70 velocity: 0
@18900 Channel: 9 Note on, A#4 key=70 velocity: 117
@18900 Channel: 9 Note on, A4 key=69 velocity: 117
@18929 Channel: 9 Note on, A4 key=69 velocity: 0
@18929 Channel: 9 Note on, A#4 key=70 velocity: 0
@19020 Channel: 9 Note on, A#4 key=70 velocity: 117
@19020 Channel: 9 Note on, A4 key=69 velocity: 117
@19049 Channel: 9 Note on, A4 key=69 velocity: 0
@19049 Channel: 9 Note on, A#4 key=70 velocity: 0
@19140 Channel: 9 Note on, A#4 key=70 velocity: 117
@19140 Channel: 9 Note on, A4 key=69 velocity: 117
@19169 Channel: 9 Note on, A4 key=69 velocity: 0
@19169 Channel: 9 Note on, A#4 key=70 velocity: 0
@19260 Channel: 9 Note on, A#4 key=70 velocity: 117
@19260 Channel: 9 Note on, A4 key=69 velocity: 117
@19289 Channel: 9 Note on, A4 key=69 velocity: 0
@19289 Channel: 9 Note on, A#4 key=70 velocity: 0
@19380 Channel: 9 Note on, A#4 key=70 velocity: 117
@19380 Channel: 9 Note on, A4 key=69 velocity: 117
@19409 Channel: 9 Note on, A4 key=69 velocity: 0
@19409 Channel: 9 Note on, A#4 key=70 velocity: 0
@19500 Channel: 9 Note on, A4 key=69 velocity: 117
@19500 Channel: 9 Note on, A#4 key=70 velocity: 117
@19529 Channel: 9 Note on, A#4 key=70 velocity: 0
@19529 Channel: 9 Note on, A4 key=69 velocity: 0
@19620 Channel: 9 Note on, A#4 key=70 velocity: 117
@19620 Channel: 9 Note on, A4 key=69 velocity: 117
@19649 Channel: 9 Note on, A4 key=69 velocity: 0
@19649 Channel: 9 Note on, A#4 key=70 velocity: 0
@19740 Channel: 9 Note on, A#4 key=70 velocity: 117
@19740 Channel: 9 Note on, A4 key=69 velocity: 117
@19769 Channel: 9 Note on, A4 key=69 velocity: 0
@19769 Channel: 9 Note on, A#4 key=70 velocity: 0
@19860 Channel: 9 Note on, A#4 key=70 velocity: 117
@19860 Channel: 9 Note on, A4 key=69 velocity: 117
@19889 Channel: 9 Note on, A4 key=69 velocity: 0
@19889 Channel: 9 Note on, A#4 key=70 velocity: 0
@19980 Channel: 9 Note on, A#4 key=70 velocity: 117
@19980 Channel: 9 Note on, A4 key=69 velocity: 117
@20009 Channel: 9 Note on, A4 key=69 velocity: 0
@20009 Channel: 9 Note on, A#4 key=70 velocity: 0
@20100 Channel: 9 Note on, A#4 key=70 velocity: 117
@20100 Channel: 9 Note on, A4 key=69 velocity: 117
@20129 Channel: 9 Note on, A4 key=69 velocity: 0
@20129 Channel: 9 Note on, A#4 key=70 velocity: 0
@20220 Channel: 9 Note on, A#4 key=70 velocity: 117
@20220 Channel: 9 Note on, A4 key=69 velocity: 117
@20249 Channel: 9 Note on, A4 key=69 velocity: 0
@20249 Channel: 9 Note on, A#4 key=70 velocity: 0
@20340 Channel: 9 Note on, A#4 key=70 velocity: 117
@20340 Channel: 9 Note on, A4 key=69 velocity: 117
@20369 Channel: 9 Note on, A4 key=69 velocity: 0
@20369 Channel: 9 Note on, A#4 key=70 velocity: 0
@20460 Channel: 9 Note on, A#4 key=70 velocity: 117
@20460 Channel: 9 Note on, A4 key=69 velocity: 117
@20489 Channel: 9 Note on, A4 key=69 velocity: 0
@20489 Channel: 9 Note on, A#4 key=70 velocity: 0
@20580 Channel: 9 Note on, A#4 key=70 velocity: 117
@20580 Channel: 9 Note on, A4 key=69 velocity: 117
@20609 Channel: 9 Note on, A4 key=69 velocity: 0
@20609 Channel: 9 Note on, A#4 key=70 velocity: 0
@20700 Channel: 9 Note on, A#4 key=70 velocity: 117
@20700 Channel: 9 Note on, A4 key=69 velocity: 117
@20729 Channel: 9 Note on, A4 key=69 velocity: 0
@20729 Channel: 9 Note on, A#4 key=70 velocity: 0
@20820 Channel: 9 Note on, A#4 key=70 velocity: 117
@20820 Channel: 9 Note on, A4 key=69 velocity: 117
@20849 Channel: 9 Note on, A4 key=69 velocity: 0
@20849 Channel: 9 Note on, A#4 key=70 velocity: 0
@20940 Channel: 9 Note on, A#4 key=70 velocity: 117
@20940 Channel: 9 Note on, A4 key=69 velocity: 117
@20969 Channel: 9 Note on, A4 key=69 velocity: 0
@20969 Channel: 9 Note on, A#4 key=70 velocity: 0
@21060 Channel: 9 Note on, A#4 key=70 velocity: 117
@21060 Channel: 9 Note on, A4 key=69 velocity: 117
@21089 Channel: 9 Note on, A4 key=69 velocity: 0
@21089 Channel: 9 Note on, A#4 key=70 velocity: 0
@21180 Channel: 9 Note on, A#4 key=70 velocity: 117
@21180 Channel: 9 Note on, A4 key=69 velocity: 117
@21209 Channel: 9 Note on, A4 key=69 velocity: 0
@21209 Channel: 9 Note on, A#4 key=70 velocity: 0
@21300 Channel: 9 Note on, A#4 key=70 velocity: 117
@21300 Channel: 9 Note on, A4 key=69 velocity: 117
@21329 Channel: 9 Note on, A4 key=69 velocity: 0
@21329 Channel: 9 Note on, A#4 key=70 velocity: 0
@21420 Channel: 9 Note on, A4 key=69 velocity: 117
@21420 Channel: 9 Note on, A#4 key=70 velocity: 117
@21449 Channel: 9 Note on, A#4 key=70 velocity: 0
@21449 Channel: 9 Note on, A4 key=69 velocity: 0
@21540 Channel: 9 Note on, A#4 key=70 velocity: 117
@21540 Channel: 9 Note on, A4 key=69 velocity: 117
@21569 Channel: 9 Note on, A4 key=69 velocity: 0
@21569 Channel: 9 Note on, A#4 key=70 velocity: 0
@21660 Channel: 9 Note on, A#4 key=70 velocity: 117
@21660 Channel: 9 Note on, A4 key=69 velocity: 117
@21689 Channel: 9 Note on, A4 key=69 velocity: 0
@21689 Channel: 9 Note on, A#4 key=70 velocity: 0
@21780 Channel: 9 Note on, A#4 key=70 velocity: 117
@21780 Channel: 9 Note on, A4 key=69 velocity: 117
@21809 Channel: 9 Note on, A4 key=69 velocity: 0
@21809 Channel: 9 Note on, A#4 key=70 velocity: 0
@21900 Channel: 9 Note on, A#4 key=70 velocity: 117
@21900 Channel: 9 Note on, A4 key=69 velocity: 117
@21929 Channel: 9 Note on, A4 key=69 velocity: 0
@21929 Channel: 9 Note on, A#4 key=70 velocity: 0
@22020 Channel: 9 Note on, A#4 key=70 velocity: 117
@22020 Channel: 9 Note on, A4 key=69 velocity: 117
@22049 Channel: 9 Note on, A4 key=69 velocity: 0
@22049 Channel: 9 Note on, A#4 key=70 velocity: 0
@22140 Channel: 9 Note on, A#4 key=70 velocity: 117
@22140 Channel: 9 Note on, A4 key=69 velocity: 117
@22169 Channel: 9 Note on, A4 key=69 velocity: 0
@22169 Channel: 9 Note on, A#4 key=70 velocity: 0
@22260 Channel: 9 Note on, A#4 key=70 velocity: 117
@22260 Channel: 9 Note on, A4 key=69 velocity: 117
@22289 Channel: 9 Note on, A4 key=69 velocity: 0
@22289 Channel: 9 Note on, A#4 key=70 velocity: 0
@22380 Channel: 9 Note on, A#4 key=70 velocity: 117
@22380 Channel: 9 Note on, A4 key=69 velocity: 117
@22409 Channel: 9 Note on, A4 key=69 velocity: 0
@22409 Channel: 9 Note on, A#4 key=70 velocity: 0
@22500 Channel: 9 Note on, A#4 key=70 velocity: 117
@22500 Channel: 9 Note on, A4 key=69 velocity: 117
@22529 Channel: 9 Note on, A4 key=69 velocity: 0
@22529 Channel: 9 Note on, A#4 key=70 velocity: 0
@22620 Channel: 9 Note on, A#4 key=70 velocity: 117
@22620 Channel: 9 Note on, A4 key=69 velocity: 117
@22649 Channel: 9 Note on, A4 key=69 velocity: 0
@22649 Channel: 9 Note on, A#4 key=70 velocity: 0
@22740 Channel: 9 Note on, A#4 key=70 velocity: 117
@22740 Channel: 9 Note on, A4 key=69 velocity: 117
@22769 Channel: 9 Note on, A4 key=69 velocity: 0
@22769 Channel: 9 Note on, A#4 key=70 velocity: 0
@22860 Channel: 9 Note on, A#4 key=70 velocity: 117
@22860 Channel: 9 Note on, A4 key=69 velocity: 117
@22889 Channel: 9 Note on, A4 key=69 velocity: 0
@22889 Channel: 9 Note on, A#4 key=70 velocity: 0
@22980 Channel: 9 Note on, A#4 key=70 velocity: 117
@22980 Channel: 9 Note on, A4 key=69 velocity: 117
@23009 Channel: 9 Note on, A4 key=69 velocity: 0
@23009 Channel: 9 Note on, A#4 key=70 velocity: 0
@23100 Channel: 9 Note on, A#4 key=70 velocity: 117
@23100 Channel: 9 Note on, A4 key=69 velocity: 117
@23129 Channel: 9 Note on, A4 key=69 velocity: 0
@23129 Channel: 9 Note on, A#4 key=70 velocity: 0
@23220 Channel: 9 Note on, A#4 key=70 velocity: 117
@23220 Channel: 9 Note on, A4 key=69 velocity: 117
@23249 Channel: 9 Note on, A4 key=69 velocity: 0
@23249 Channel: 9 Note on, A#4 key=70 velocity: 0
@23340 Channel: 9 Note on, A4 key=69 velocity: 117
@23340 Channel: 9 Note on, A#4 key=70 velocity: 117
@23369 Channel: 9 Note on, A#4 key=70 velocity: 0
@23369 Channel: 9 Note on, A4 key=69 velocity: 0
@23460 Channel: 9 Note on, A#4 key=70 velocity: 117
@23460 Channel: 9 Note on, A4 key=69 velocity: 117
@23489 Channel: 9 Note on, A4 key=69 velocity: 0
@23489 Channel: 9 Note on, A#4 key=70 velocity: 0
@23580 Channel: 9 Note on, A#4 key=70 velocity: 117
@23580 Channel: 9 Note on, A4 key=69 velocity: 117
@23609 Channel: 9 Note on, A4 key=69 velocity: 0
@23609 Channel: 9 Note on, A#4 key=70 velocity: 0
@23700 Channel: 9 Note on, A#4 key=70 velocity: 117
@23700 Channel: 9 Note on, A4 key=69 velocity: 117
@23729 Channel: 9 Note on, A4 key=69 velocity: 0
@23729 Channel: 9 Note on, A#4 key=70 velocity: 0
@23820 Channel: 9 Note on, A#4 key=70 velocity: 117
@23820 Channel: 9 Note on, A4 key=69 velocity: 117
@23849 Channel: 9 Note on, A4 key=69 velocity: 0
@23849 Channel: 9 Note on, A#4 key=70 velocity: 0
@23940 Channel: 9 Note on, A#4 key=70 velocity: 117
@23940 Channel: 9 Note on, A4 key=69 velocity: 117
@23969 Channel: 9 Note on, A4 key=69 velocity: 0
@23969 Channel: 9 Note on, A#4 key=70 velocity: 0
@24060 Channel: 9 Note on, A#4 key=70 velocity: 117
@24060 Channel: 9 Note on, A4 key=69 velocity: 117
@24089 Channel: 9 Note on, A4 key=69 velocity: 0
@24089 Channel: 9 Note on, A#4 key=70 velocity: 0
@24180 Channel: 9 Note on, A#4 key=70 velocity: 117
@24180 Channel: 9 Note on, A4 key=69 velocity: 117
@24209 Channel: 9 Note on, A4 key=69 velocity: 0
@24209 Channel: 9 Note on, A#4 key=70 velocity: 0
@24300 Channel: 9 Note on, A#4 key=70 velocity: 117
@24300 Channel: 9 Note on, A4 key=69 velocity: 117
@24329 Channel: 9 Note on, A4 key=69 velocity: 0
@24329 Channel: 9 Note on, A#4 key=70 velocity: 0
@24420 Channel: 9 Note on, A#4 key=70 velocity: 117
@24420 Channel: 9 Note on, A4 key=69 velocity: 117
@24449 Channel: 9 Note on, A4 key=69 velocity: 0
@24449 Channel: 9 Note on, A#4 key=70 velocity: 0
@24540 Channel: 9 Note on, A#4 key=70 velocity: 117
@24540 Channel: 9 Note on, A4 key=69 velocity: 117
@24569 Channel: 9 Note on, A4 key=69 velocity: 0
@24569 Channel: 9 Note on, A#4 key=70 velocity: 0
@24660 Channel: 9 Note on, A#4 key=70 velocity: 117
@24660 Channel: 9 Note on, A4 key=69 velocity: 117
@24689 Channel: 9 Note on, A4 key=69 velocity: 0
@24689 Channel: 9 Note on, A#4 key=70 velocity: 0
@24780 Channel: 9 Note on, A#4 key=70 velocity: 117
@24780 Channel: 9 Note on, A4 key=69 velocity: 117
@24809 Channel: 9 Note on, A4 key=69 velocity: 0
@24809 Channel: 9 Note on, A#4 key=70 velocity: 0
@24900 Channel: 9 Note on, A#4 key=70 velocity: 117
@24900 Channel: 9 Note on, A4 key=69 velocity: 117
@24929 Channel: 9 Note on, A4 key=69 velocity: 0
@24929 Channel: 9 Note on, A#4 key=70 velocity: 0
@25020 Channel: 9 Note on, A#4 key=70 velocity: 117
@25020 Channel: 9 Note on, A4 key=69 velocity: 117
@25049 Channel: 9 Note on, A4 key=69 velocity: 0
@25049 Channel: 9 Note on, A#4 key=70 velocity: 0
@25140 Channel: 9 Note on, A#4 key=70 velocity: 117
@25140 Channel: 9 Note on, A4 key=69 velocity: 117
@25169 Channel: 9 Note on, A4 key=69 velocity: 0
@25169 Channel: 9 Note on, A#4 key=70 velocity: 0
@25260 Channel: 9 Note on, A4 key=69 velocity: 117
@25260 Channel: 9 Note on, A#4 key=70 velocity: 117
@25289 Channel: 9 Note on, A#4 key=70 velocity: 0
@25289 Channel: 9 Note on, A4 key=69 velocity: 0
@25380 Channel: 9 Note on, A#4 key=70 velocity: 117
@25380 Channel: 9 Note on, A4 key=69 velocity: 117
@25409 Channel: 9 Note on, A4 key=69 velocity: 0
@25409 Channel: 9 Note on, A#4 key=70 velocity: 0
@25500 Channel: 9 Note on, A#4 key=70 velocity: 117
@25500 Channel: 9 Note on, A4 key=69 velocity: 117
@25529 Channel: 9 Note on, A4 key=69 velocity: 0
@25529 Channel: 9 Note on, A#4 key=70 velocity: 0
@25620 Channel: 9 Note on, A#4 key=70 velocity: 117
@25620 Channel: 9 Note on, A4 key=69 velocity: 117
@25649 Channel: 9 Note on, A4 key=69 velocity: 0
@25649 Channel: 9 Note on, A#4 key=70 velocity: 0
@25740 Channel: 9 Note on, A#4 key=70 velocity: 117
@25740 Channel: 9 Note on, A4 key=69 velocity: 117
@25769 Channel: 9 Note on, A4 key=69 velocity: 0
@25769 Channel: 9 Note on, A#4 key=70 velocity: 0
@25860 Channel: 9 Note on, A#4 key=70 velocity: 117
@25860 Channel: 9 Note on, A4 key=69 velocity: 117
@25889 Channel: 9 Note on, A4 key=69 velocity: 0
@25889 Channel: 9 Note on, A#4 key=70 velocity: 0
@25980 Channel: 9 Note on, A#4 key=70 velocity: 117
@25980 Channel: 9 Note on, A4 key=69 velocity: 117
@26009 Channel: 9 Note on, A4 key=69 velocity: 0
@26009 Channel: 9 Note on, A#4 key=70 velocity: 0
@26100 Channel: 9 Note on, A#4 key=70 velocity: 117
@26100 Channel: 9 Note on, A4 key=69 velocity: 117
@26129 Channel: 9 Note on, A4 key=69 velocity: 0
@26129 Channel: 9 Note on, A#4 key=70 velocity: 0
@26220 Channel: 9 Note on, A#4 key=70 velocity: 117
@26220 Channel: 9 Note on, A4 key=69 velocity: 117
@26249 Channel: 9 Note on, A4 key=69 velocity: 0
@26249 Channel: 9 Note on, A#4 key=70 velocity: 0
@26340 Channel: 9 Note on, A#4 key=70 velocity: 117
@26340 Channel: 9 Note on, A4 key=69 velocity: 117
@26369 Channel: 9 Note on, A4 key=69 velocity: 0
@26369 Channel: 9 Note on, A#4 key=70 velocity: 0
@26460 Channel: 9 Note on, A#4 key=70 velocity: 117
@26460 Channel: 9 Note on, A4 key=69 velocity: 117
@26489 Channel: 9 Note on, A4 key=69 velocity: 0
@26489 Channel: 9 Note on, A#4 key=70 velocity: 0
@26580 Channel: 9 Note on, A#4 key=70 velocity: 117
@26580 Channel: 9 Note on, A4 key=69 velocity: 117
@26609 Channel: 9 Note on, A4 key=69 velocity: 0
@26609 Channel: 9 Note on, A#4 key=70 velocity: 0
@26700 Channel: 9 Note on, A#4 key=70 velocity: 117
@26700 Channel: 9 Note on, A4 key=69 velocity: 117
@26729 Channel: 9 Note on, A4 key=69 velocity: 0
@26729 Channel: 9 Note on, A#4 key=70 velocity: 0
@26820 Channel: 9 Note on, A#4 key=70 velocity: 117
@26820 Channel: 9 Note on, A4 key=69 velocity: 117
@26849 Channel: 9 Note on, A4 key=69 velocity: 0
@26849 Channel: 9 Note on, A#4 key=70 velocity: 0
@26940 Channel: 9 Note on, A#4 key=70 velocity: 117
@26940 Channel: 9 Note on, A4 key=69 velocity: 117
@26969 Channel: 9 Note on, A4 key=69 velocity: 0
@26969 Channel: 9 Note on, A#4 key=70 velocity: 0
@27060 Channel: 9 Note on, A#4 key=70 velocity: 117
@27060 Channel: 9 Note on, A4 key=69 velocity: 117
@27089 Channel: 9 Note on, A4 key=69 velocity: 0
@27089 Channel: 9 Note on, A#4 key=70 velocity: 0
@27180 Channel: 9 Note on, A4 key=69 velocity: 117
@27180 Channel: 9 Note on, A#4 key=70 velocity: 117
@27209 Channel: 9 Note on, A#4 key=70 velocity: 0
@27209 Channel: 9 Note on, A4 key=69 velocity: 0
@27300 Channel: 9 Note on, A#4 key=70 velocity: 117
@27300 Channel: 9 Note on, A4 key=69 velocity: 117
@27329 Channel: 9 Note on, A4 key=69 velocity: 0
@27329 Channel: 9 Note on, A#4 key=70 velocity: 0
@27420 Channel: 9 Note on, A#4 key=70 velocity: 117
@27420 Channel: 9 Note on, A4 key=69 velocity: 117
@27449 Channel: 9 Note on, A4 key=69 velocity: 0
@27449 Channel: 9 Note on, A#4 key=70 velocity: 0
@27540 Channel: 9 Note on, A#4 key=70 velocity: 117
@27540 Channel: 9 Note on, A4 key=69 velocity: 117
@27569 Channel: 9 Note on, A4 key=69 velocity: 0
@27569 Channel: 9 Note on, A#4 key=70 velocity: 0
@27660 Channel: 9 Note on, A#4 key=70 velocity: 117
@27660 Channel: 9 Note on, A4 key=69 velocity: 117
@27689 Channel: 9 Note on, A4 key=69 velocity: 0
@27689 Channel: 9 Note on, A#4 key=70 velocity: 0
@27780 Channel: 9 Note on, A#4 key=70 velocity: 117
@27780 Channel: 9 Note on, A4 key=69 velocity: 117
@27809 Channel: 9 Note on, A4 key=69 velocity: 0
@27809 Channel: 9 Note on, A#4 key=70 velocity: 0
@27900 Channel: 9 Note on, A#4 key=70 velocity: 117
@27900 Channel: 9 Note on, A4 key=69 velocity: 117
@27929 Channel: 9 Note on, A4 key=69 velocity: 0
@27929 Channel: 9 Note on, A#4 key=70 velocity: 0
@28020 Channel: 9 Note on, A#4 key=70 velocity: 117
@28020 Channel: 9 Note on, A4 key=69 velocity: 117
@28049 Channel: 9 Note on, A4 key=69 velocity: 0
@28049 Channel: 9 Note on, A#4 key=70 velocity: 0
@28140 Channel: 9 Note on, A#4 key=70 velocity: 117
@28140 Channel: 9 Note on, A4 key=69 velocity: 117
@28169 Channel: 9 Note on, A4 key=69 velocity: 0
@28169 Channel: 9 Note on, A#4 key=70 velocity: 0
@28260 Channel: 9 Note on, A#4 key=70 velocity: 117
@28260 Channel: 9 Note on, A4 key=69 velocity: 117
@28289 Channel: 9 Note on, A4 key=69 velocity: 0
@28289 Channel: 9 Note on, A#4 key=70 velocity: 0
@28380 Channel: 9 Note on, A#4 key=70 velocity: 117
@28380 Channel: 9 Note on, A4 key=69 velocity: 117
@28409 Channel: 9 Note on, A4 key=69 velocity: 0
@28409 Channel: 9 Note on, A#4 key=70 velocity: 0
@28500 Channel: 9 Note on, A#4 key=70 velocity: 117
@28500 Channel: 9 Note on, A4 key=69 velocity: 117
@28529 Channel: 9 Note on, A4 key=69 velocity: 0
@28529 Channel: 9 Note on, A#4 key=70 velocity: 0
@28620 Channel: 9 Note on, A#4 key=70 velocity: 117
@28620 Channel: 9 Note on, A4 key=69 velocity: 117
@28649 Channel: 9 Note on, A4 key=69 velocity: 0
@28649 Channel: 9 Note on, A#4 key=70 velocity: 0
@28740 Channel: 9 Note on, A#4 key=70 velocity: 117
@28740 Channel: 9 Note on, A4 key=69 velocity: 117
@28769 Channel: 9 Note on, A4 key=69 velocity: 0
@28769 Channel: 9 Note on, A#4 key=70 velocity: 0
@28860 Channel: 9 Note on, A#4 key=70 velocity: 117
@28860 Channel: 9 Note on, A4 key=69 velocity: 117
@28889 Channel: 9 Note on, A4 key=69 velocity: 0
@28889 Channel: 9 Note on, A#4 key=70 velocity: 0
@28980 Channel: 9 Note on, A#4 key=70 velocity: 117
@28980 Channel: 9 Note on, A4 key=69 velocity: 117
@29009 Channel: 9 Note on, A4 key=69 velocity: 0
@29009 Channel: 9 Note on, A#4 key=70 velocity: 0
@29100 Channel: 9 Note on, A4 key=69 velocity: 117
@29100 Channel: 9 Note on, A#4 key=70 velocity: 117
@29129 Channel: 9 Note on, A#4 key=70 velocity: 0
@29129 Channel: 9 Note on, A4 key=69 velocity: 0
@29220 Channel: 9 Note on, A#4 key=70 velocity: 117
@29220 Channel: 9 Note on, A4 key=69 velocity: 117
@29249 Channel: 9 Note on, A4 key=69 velocity: 0
@29249 Channel: 9 Note on, A#4 key=70 velocity: 0
@29340 Channel: 9 Note on, A#4 key=70 velocity: 117
@29340 Channel: 9 Note on, A4 key=69 velocity: 117
@29369 Channel: 9 Note on, A4 key=69 velocity: 0
@29369 Channel: 9 Note on, A#4 key=70 velocity: 0
@29460 Channel: 9 Note on, A#4 key=70 velocity: 117
@29460 Channel: 9 Note on, A4 key=69 velocity: 117
@29489 Channel: 9 Note on, A4 key=69 velocity: 0
@29489 Channel: 9 Note on, A#4 key=70 velocity: 0
@29580 Channel: 9 Note on, A#4 key=70 velocity: 117
@29580 Channel: 9 Note on, A4 key=69 velocity: 117
@29609 Channel: 9 Note on, A4 key=69 velocity: 0
@29609 Channel: 9 Note on, A#4 key=70 velocity: 0
@29700 Channel: 9 Note on, A#4 key=70 velocity: 117
@29700 Channel: 9 Note on, A4 key=69 velocity: 117
@29729 Channel: 9 Note on, A4 key=69 velocity: 0
@29729 Channel: 9 Note on, A#4 key=70 velocity: 0
@29820 Channel: 9 Note on, A#4 key=70 velocity: 117
@29820 Channel: 9 Note on, A4 key=69 velocity: 117
@29849 Channel: 9 Note on, A4 key=69 velocity: 0
@29849 Channel: 9 Note on, A#4 key=70 velocity: 0
@29940 Channel: 9 Note on, A#4 key=70 velocity: 117
@29940 Channel: 9 Note on, A4 key=69 velocity: 117
@29969 Channel: 9 Note on, A4 key=69 velocity: 0
@29969 Channel: 9 Note on, A#4 key=70 velocity: 0
@30060 Channel: 9 Note on, A#4 key=70 velocity: 117
@30060 Channel: 9 Note on, A4 key=69 velocity: 117
@30089 Channel: 9 Note on, A4 key=69 velocity: 0
@30089 Channel: 9 Note on, A#4 key=70 velocity: 0
@30180 Channel: 9 Note on, A#4 key=70 velocity: 117
@30180 Channel: 9 Note on, A4 key=69 velocity: 117
@30209 Channel: 9 Note on, A4 key=69 velocity: 0
@30209 Channel: 9 Note on, A#4 key=70 velocity: 0
@30300 Channel: 9 Note on, A#4 key=70 velocity: 117
@30300 Channel: 9 Note on, A4 key=69 velocity: 117
@30329 Channel: 9 Note on, A4 key=69 velocity: 0
@30329 Channel: 9 Note on, A#4 key=70 velocity: 0
@30420 Channel: 9 Note on, A#4 key=70 velocity: 117
@30420 Channel: 9 Note on, A4 key=69 velocity: 117
@30449 Channel: 9 Note on, A4 key=69 velocity: 0
@30449 Channel: 9 Note on, A#4 key=70 velocity: 0
@30540 Channel: 9 Note on, A#4 key=70 velocity: 117
@30540 Channel: 9 Note on, A4 key=69 velocity: 117
@30569 Channel: 9 Note on, A4 key=69 velocity: 0
@30569 Channel: 9 Note on, A#4 key=70 velocity: 0
@30660 Channel: 9 Note on, A#4 key=70 velocity: 117
@30660 Channel: 9 Note on, A4 key=69 velocity: 117
@30689 Channel: 9 Note on, A4 key=69 velocity: 0
@30689 Channel: 9 Note on, A#4 key=70 velocity: 0
@30780 Channel: 9 Note on, A#4 key=70 velocity: 117
@30780 Channel: 9 Note on, A4 key=69 velocity: 117
@30809 Channel: 9 Note on, A4 key=69 velocity: 0
@30809 Channel: 9 Note on, A#4 key=70 velocity: 0
@30900 Channel: 9 Note on, A#4 key=70 velocity: 117
@30900 Channel: 9 Note on, A4 key=69 velocity: 117
@30929 Channel: 9 Note on, A4 key=69 velocity: 0
@30929 Channel: 9 Note on, A#4 key=70 velocity: 0
@31020 Channel: 9 Note on, A4 key=69 velocity: 117
@31020 Channel: 9 Note on, A#4 key=70 velocity: 117
@31049 Channel: 9 Note on, A#4 key=70 velocity: 0
@31049 Channel: 9 Note on, A4 key=69 velocity: 0
@31140 Channel: 9 Note on, A#4 key=70 velocity: 117
@31140 Channel: 9 Note on, A4 key=69 velocity: 117
@31169 Channel: 9 Note on, A4 key=69 velocity: 0
@31169 Channel: 9 Note on, A#4 key=70 velocity: 0
@31260 Channel: 9 Note on, A#4 key=70 velocity: 117
@31260 Channel: 9 Note on, A4 key=69 velocity: 117
@31289 Channel: 9 Note on, A4 key=69 velocity: 0
@31289 Channel: 9 Note on, A#4 key=70 velocity: 0
@31380 Channel: 9 Note on, A#4 key=70 velocity: 117
@31380 Channel: 9 Note on, A4 key=69 velocity: 117
@31409 Channel: 9 Note on, A4 key=69 velocity: 0
@31409 Channel: 9 Note on, A#4 key=70 velocity: 0
@31500 Channel: 9 Note on, A#4 key=70 velocity: 117
@31500 Channel: 9 Note on, A4 key=69 velocity: 117
@31529 Channel: 9 Note on, A4 key=69 velocity: 0
@31529 Channel: 9 Note on, A#4 key=70 velocity: 0
@31620 Channel: 9 Note on, A#4 key=70 velocity: 117
@31620 Channel: 9 Note on, A4 key=69 velocity: 117
@31649 Channel: 9 Note on, A4 key=69 velocity: 0
@31649 Channel: 9 Note on, A#4 key=70 velocity: 0
@31740 Channel: 9 Note on, A#4 key=70 velocity: 117
@31740 Channel: 9 Note on, A4 key=69 velocity: 117
@31769 Channel: 9 Note on, A4 key=69 velocity: 0
@31769 Channel: 9 Note on, A#4 key=70 velocity: 0
@31860 Channel: 9 Note on, A#4 key=70 velocity: 117
@31860 Channel: 9 Note on, A4 key=69 velocity: 117
@31889 Channel: 9 Note on, A4 key=69 velocity: 0
@31889 Channel: 9 Note on, A#4 key=70 velocity: 0
@31980 Channel: 9 Note on, A#4 key=70 velocity: 117
@31980 Channel: 9 Note on, A4 key=69 velocity: 117
@32009 Channel: 9 Note on, A4 key=69 velocity: 0
@32009 Channel: 9 Note on, A#4 key=70 velocity: 0
@32100 Channel: 9 Note on, A#4 key=70 velocity: 117
@32100 Channel: 9 Note on, A4 key=69 velocity: 117
@32129 Channel: 9 Note on, A4 key=69 velocity: 0
@32129 Channel: 9 Note on, A#4 key=70 velocity: 0
@32220 Channel: 9 Note on, A#4 key=70 velocity: 117
@32220 Channel: 9 Note on, A4 key=69 velocity: 117
@32249 Channel: 9 Note on, A4 key=69 velocity: 0
@32249 Channel: 9 Note on, A#4 key=70 velocity: 0
@32340 Channel: 9 Note on, A#4 key=70 velocity: 117
@32340 Channel: 9 Note on, A4 key=69 velocity: 117
@32369 Channel: 9 Note on, A4 key=69 velocity: 0
@32369 Channel: 9 Note on, A#4 key=70 velocity: 0
@32460 Channel: 9 Note on, A#4 key=70 velocity: 117
@32460 Channel: 9 Note on, A4 key=69 velocity: 117
@32489 Channel: 9 Note on, A4 key=69 velocity: 0
@32489 Channel: 9 Note on, A#4 key=70 velocity: 0
@32580 Channel: 9 Note on, A#4 key=70 velocity: 117
@32580 Channel: 9 Note on, A4 key=69 velocity: 117
@32609 Channel: 9 Note on, A4 key=69 velocity: 0
@32609 Channel: 9 Note on, A#4 key=70 velocity: 0
@32700 Channel: 9 Note on, A#4 key=70 velocity: 117
@32700 Channel: 9 Note on, A4 key=69 velocity: 117
@32729 Channel: 9 Note on, A4 key=69 velocity: 0
@32729 Channel: 9 Note on, A#4 key=70 velocity: 0
@32820 Channel: 9 Note on, A#4 key=70 velocity: 117
@32820 Channel: 9 Note on, A4 key=69 velocity: 117
@32849 Channel: 9 Note on, A4 key=69 velocity: 0
@32849 Channel: 9 Note on, A#4 key=70 velocity: 0
@32940 Channel: 9 Note on, A4 key=69 velocity: 117
@32940 Channel: 9 Note on, A#4 key=70 velocity: 117
@32969 Channel: 9 Note on, A#4 key=70 velocity: 0
@32969 Channel: 9 Note on, A4 key=69 velocity: 0
@33060 Channel: 9 Note on, A#4 key=70 velocity: 117
@33060 Channel: 9 Note on, A4 key=69 velocity: 117
@33089 Channel: 9 Note on, A4 key=69 velocity: 0
@33089 Channel: 9 Note on, A#4 key=70 velocity: 0
@33180 Channel: 9 Note on, A#4 key=70 velocity: 117
@33180 Channel: 9 Note on, A4 key=69 velocity: 117
@33209 Channel: 9 Note on, A4 key=69 velocity: 0
@33209 Channel: 9 Note on, A#4 key=70 velocity: 0
@33300 Channel: 9 Note on, A#4 key=70 velocity: 117
@33300 Channel: 9 Note on, A4 key=69 velocity: 117
@33329 Channel: 9 Note on, A4 key=69 velocity: 0
@33329 Channel: 9 Note on, A#4 key=70 velocity: 0
@33420 Channel: 9 Note on, A#4 key=70 velocity: 117
@33420 Channel: 9 Note on, A4 key=69 velocity: 117
@33449 Channel: 9 Note on, A4 key=69 velocity: 0
@33449 Channel: 9 Note on, A#4 key=70 velocity: 0
@33540 Channel: 9 Note on, A#4 key=70 velocity: 117
@33540 Channel: 9 Note on, A4 key=69 velocity: 117
@33569 Channel: 9 Note on, A4 key=69 velocity: 0
@33569 Channel: 9 Note on, A#4 key=70 velocity: 0
@33660 Channel: 9 Note on, A#4 key=70 velocity: 117
@33660 Channel: 9 Note on, A4 key=69 velocity: 117
@33689 Channel: 9 Note on, A4 key=69 velocity: 0
@33689 Channel: 9 Note on, A#4 key=70 velocity: 0
@33780 Channel: 9 Note on, A#4 key=70 velocity: 117
@33780 Channel: 9 Note on, A4 key=69 velocity: 117
@33809 Channel: 9 Note on, A4 key=69 velocity: 0
@33809 Channel: 9 Note on, A#4 key=70 velocity: 0
@33900 Channel: 9 Note on, A#4 key=70 velocity: 117
@33900 Channel: 9 Note on, A4 key=69 velocity: 117
@33929 Channel: 9 Note on, A4 key=69 velocity: 0
@33929 Channel: 9 Note on, A#4 key=70 velocity: 0
@34020 Channel: 9 Note on, A#4 key=70 velocity: 117
@34020 Channel: 9 Note on, A4 key=69 velocity: 117
@34049 Channel: 9 Note on, A4 key=69 velocity: 0
@34049 Channel: 9 Note on, A#4 key=70 velocity: 0
@34140 Channel: 9 Note on, A#4 key=70 velocity: 117
@34140 Channel: 9 Note on, A4 key=69 velocity: 117
@34169 Channel: 9 Note on, A4 key=69 velocity: 0
@34169 Channel: 9 Note on, A#4 key=70 velocity: 0
@34260 Channel: 9 Note on, A#4 key=70 velocity: 117
@34260 Channel: 9 Note on, A4 key=69 velocity: 117
@34289 Channel: 9 Note on, A4 key=69 velocity: 0
@34289 Channel: 9 Note on, A#4 key=70 velocity: 0
@34380 Channel: 9 Note on, A#4 key=70 velocity: 117
@34380 Channel: 9 Note on, A4 key=69 velocity: 117
@34409 Channel: 9 Note on, A4 key=69 velocity: 0
@34409 Channel: 9 Note on, A#4 key=70 velocity: 0
@34500 Channel: 9 Note on, A#4 key=70 velocity: 117
@34500 Channel: 9 Note on, A4 key=69 velocity: 117
@34529 Channel: 9 Note on, A4 key=69 velocity: 0
@34529 Channel: 9 Note on, A#4 key=70 velocity: 0
@34620 Channel: 9 Note on, A#4 key=70 velocity: 117
@34620 Channel: 9 Note on, A4 key=69 velocity: 117
@34649 Channel: 9 Note on, A4 key=69 velocity: 0
@34649 Channel: 9 Note on, A#4 key=70 velocity: 0
@34740 Channel: 9 Note on, A#4 key=70 velocity: 117
@34740 Channel: 9 Note on, A4 key=69 velocity: 117
@34769 Channel: 9 Note on, A4 key=69 velocity: 0
@34769 Channel: 9 Note on, A#4 key=70 velocity: 0
@34860 Channel: 9 Note on, A4 key=69 velocity: 117
@34860 Channel: 9 Note on, A#4 key=70 velocity: 117
@34889 Channel: 9 Note on, A#4 key=70 velocity: 0
@34889 Channel: 9 Note on, A4 key=69 velocity: 0
@34980 Channel: 9 Note on, A#4 key=70 velocity: 117
@34980 Channel: 9 Note on, A4 key=69 velocity: 117
@35009 Channel: 9 Note on, A4 key=69 velocity: 0
@35009 Channel: 9 Note on, A#4 key=70 velocity: 0
@35100 Channel: 9 Note on, A#4 key=70 velocity: 117
@35100 Channel: 9 Note on, A4 key=69 velocity: 117
@35129 Channel: 9 Note on, A4 key=69 velocity: 0
@35129 Channel: 9 Note on, A#4 key=70 velocity: 0
@35220 Channel: 9 Note on, A#4 key=70 velocity: 117
@35220 Channel: 9 Note on, A4 key=69 velocity: 117
@35249 Channel: 9 Note on, A4 key=69 velocity: 0
@35249 Channel: 9 Note on, A#4 key=70 velocity: 0
@35340 Channel: 9 Note on, A#4 key=70 velocity: 117
@35340 Channel: 9 Note on, A4 key=69 velocity: 117
@35369 Channel: 9 Note on, A4 key=69 velocity: 0
@35369 Channel: 9 Note on, A#4 key=70 velocity: 0
@35460 Channel: 9 Note on, A#4 key=70 velocity: 117
@35460 Channel: 9 Note on, A4 key=69 velocity: 117
@35489 Channel: 9 Note on, A4 key=69 velocity: 0
@35489 Channel: 9 Note on, A#4 key=70 velocity: 0
@35580 Channel: 9 Note on, A#4 key=70 velocity: 117
@35580 Channel: 9 Note on, A4 key=69 velocity: 117
@35609 Channel: 9 Note on, A4 key=69 velocity: 0
@35609 Channel: 9 Note on, A#4 key=70 velocity: 0
@35700 Channel: 9 Note on, A#4 key=70 velocity: 117
@35700 Channel: 9 Note on, A4 key=69 velocity: 117
@35729 Channel: 9 Note on, A4 key=69 velocity: 0
@35729 Channel: 9 Note on, A#4 key=70 velocity: 0
@35820 Channel: 9 Note on, A#4 key=70 velocity: 117
@35820 Channel: 9 Note on, A4 key=69 velocity: 117
@35849 Channel: 9 Note on, A4 key=69 velocity: 0
@35849 Channel: 9 Note on, A#4 key=70 velocity: 0
@35940 Channel: 9 Note on, A#4 key=70 velocity: 117
@35940 Channel: 9 Note on, A4 key=69 velocity: 117
@35969 Channel: 9 Note on, A4 key=69 velocity: 0
@35969 Channel: 9 Note on, A#4 key=70 velocity: 0
@36060 Channel: 9 Note on, A#4 key=70 velocity: 117
@36060 Channel: 9 Note on, A4 key=69 velocity: 117
@36089 Channel: 9 Note on, A4 key=69 velocity: 0
@36089 Channel: 9 Note on, A#4 key=70 velocity: 0
@36180 Channel: 9 Note on, A#4 key=70 velocity: 117
@36180 Channel: 9 Note on, A4 key=69 velocity: 117
@36209 Channel: 9 Note on, A4 key=69 velocity: 0
@36209 Channel: 9 Note on, A#4 key=70 velocity: 0
@36300 Channel: 9 Note on, A#4 key=70 velocity: 117
@36300 Channel: 9 Note on, A4 key=69 velocity: 117
@36329 Channel: 9 Note on, A4 key=69 velocity: 0
@36329 Channel: 9 Note on, A#4 key=70 velocity: 0
@36420 Channel: 9 Note on, A#4 key=70 velocity: 117
@36420 Channel: 9 Note on, A4 key=69 velocity: 117
@36449 Channel: 9 Note on, A4 key=69 velocity: 0
@36449 Channel: 9 Note on, A#4 key=70 velocity: 0
@36540 Channel: 9 Note on, A#4 key=70 velocity: 117
@36540 Channel: 9 Note on, A4 key=69 velocity: 117
@36569 Channel: 9 Note on, A4 key=69 velocity: 0
@36569 Channel: 9 Note on, A#4 key=70 velocity: 0
@36660 Channel: 9 Note on, A#4 key=70 velocity: 117
@36660 Channel: 9 Note on, A4 key=69 velocity: 117
@36689 Channel: 9 Note on, A4 key=69 velocity: 0
@36689 Channel: 9 Note on, A#4 key=70 velocity: 0
@36780 Channel: 9 Note on, A4 key=69 velocity: 117
@36780 Channel: 9 Note on, A#4 key=70 velocity: 117
@36809 Channel: 9 Note on, A#4 key=70 velocity: 0
@36809 Channel: 9 Note on, A4 key=69 velocity: 0
@36900 Channel: 9 Note on, A#4 key=70 velocity: 117
@36900 Channel: 9 Note on, A4 key=69 velocity: 117
@36929 Channel: 9 Note on, A4 key=69 velocity: 0
@36929 Channel: 9 Note on, A#4 key=70 velocity: 0
@37020 Channel: 9 Note on, A#4 key=70 velocity: 117
@37020 Channel: 9 Note on, A4 key=69 velocity: 117
@37049 Channel: 9 Note on, A4 key=69 velocity: 0
@37049 Channel: 9 Note on, A#4 key=70 velocity: 0
@37140 Channel: 9 Note on, A#4 key=70 velocity: 117
@37140 Channel: 9 Note on, A4 key=69 velocity: 117
@37169 Channel: 9 Note on, A4 key=69 velocity: 0
@37169 Channel: 9 Note on, A#4 key=70 velocity: 0
@37260 Channel: 9 Note on, A#4 key=70 velocity: 117
@37260 Channel: 9 Note on, A4 key=69 velocity: 117
@37289 Channel: 9 Note on, A4 key=69 velocity: 0
@37289 Channel: 9 Note on, A#4 key=70 velocity: 0
@37380 Channel: 9 Note on, A#4 key=70 velocity: 117
@37380 Channel: 9 Note on, A4 key=69 velocity: 117
@37409 Channel: 9 Note on, A4 key=69 velocity: 0
@37409 Channel: 9 Note on, A#4 key=70 velocity: 0
@37500 Channel: 9 Note on, A#4 key=70 velocity: 117
@37500 Channel: 9 Note on, A4 key=69 velocity: 117
@37529 Channel: 9 Note on, A4 key=69 velocity: 0
@37529 Channel: 9 Note on, A#4 key=70 velocity: 0
@37620 Channel: 9 Note on, A#4 key=70 velocity: 117
@37620 Channel: 9 Note on, A4 key=69 velocity: 117
@37649 Channel: 9 Note on, A4 key=69 velocity: 0
@37649 Channel: 9 Note on, A#4 key=70 velocity: 0
@37740 Channel: 9 Note on, A#4 key=70 velocity: 117
@37740 Channel: 9 Note on, A4 key=69 velocity: 117
@37769 Channel: 9 Note on, A4 key=69 velocity: 0
@37769 Channel: 9 Note on, A#4 key=70 velocity: 0
@37860 Channel: 9 Note on, A#4 key=70 velocity: 117
@37860 Channel: 9 Note on, A4 key=69 velocity: 117
@37889 Channel: 9 Note on, A4 key=69 velocity: 0
@37889 Channel: 9 Note on, A#4 key=70 velocity: 0
@37980 Channel: 9 Note on, A#4 key=70 velocity: 117
@37980 Channel: 9 Note on, A4 key=69 velocity: 117
@38009 Channel: 9 Note on, A4 key=69 velocity: 0
@38009 Channel: 9 Note on, A#4 key=70 velocity: 0
@38100 Channel: 9 Note on, A#4 key=70 velocity: 117
@38100 Channel: 9 Note on, A4 key=69 velocity: 117
@38129 Channel: 9 Note on, A4 key=69 velocity: 0
@38129 Channel: 9 Note on, A#4 key=70 velocity: 0
@38220 Channel: 9 Note on, A#4 key=70 velocity: 117
@38220 Channel: 9 Note on, A4 key=69 velocity: 117
@38249 Channel: 9 Note on, A4 key=69 velocity: 0
@38249 Channel: 9 Note on, A#4 key=70 velocity: 0
@38340 Channel: 9 Note on, A#4 key=70 velocity: 117
@38340 Channel: 9 Note on, A4 key=69 velocity: 117
@38369 Channel: 9 Note on, A4 key=69 velocity: 0
@38369 Channel: 9 Note on, A#4 key=70 velocity: 0
@38460 Channel: 9 Note on, A#4 key=70 velocity: 117
@38460 Channel: 9 Note on, A4 key=69 velocity: 117
@38489 Channel: 9 Note on, A4 key=69 velocity: 0
@38489 Channel: 9 Note on, A#4 key=70 velocity: 0
@38580 Channel: 9 Note on, A#4 key=70 velocity: 117
@38580 Channel: 9 Note on, A4 key=69 velocity: 117
@38609 Channel: 9 Note on, A4 key=69 velocity: 0
@38609 Channel: 9 Note on, A#4 key=70 velocity: 0
@38700 Channel: 9 Note on, A4 key=69 velocity: 117
@38700 Channel: 9 Note on, A#4 key=70 velocity: 117
@38729 Channel: 9 Note on, A#4 key=70 velocity: 0
@38729 Channel: 9 Note on, A4 key=69 velocity: 0
@38820 Channel: 9 Note on, A#4 key=70 velocity: 117
@38820 Channel: 9 Note on, A4 key=69 velocity: 117
@38849 Channel: 9 Note on, A4 key=69 velocity: 0
@38849 Channel: 9 Note on, A#4 key=70 velocity: 0
@38940 Channel: 9 Note on, A#4 key=70 velocity: 117
@38940 Channel: 9 Note on, A4 key=69 velocity: 117
@38969 Channel: 9 Note on, A4 key=69 velocity: 0
@38969 Channel: 9 Note on, A#4 key=70 velocity: 0
@39060 Channel: 9 Note on, A#4 key=70 velocity: 117
@39060 Channel: 9 Note on, A4 key=69 velocity: 117
@39089 Channel: 9 Note on, A4 key=69 velocity: 0
@39089 Channel: 9 Note on, A#4 key=70 velocity: 0
@39180 Channel: 9 Note on, A#4 key=70 velocity: 117
@39180 Channel: 9 Note on, A4 key=69 velocity: 117
@39209 Channel: 9 Note on, A4 key=69 velocity: 0
@39209 Channel: 9 Note on, A#4 key=70 velocity: 0
@39300 Channel: 9 Note on, A#4 key=70 velocity: 117
@39300 Channel: 9 Note on, A4 key=69 velocity: 117
@39329 Channel: 9 Note on, A4 key=69 velocity: 0
@39329 Channel: 9 Note on, A#4 key=70 velocity: 0
@39420 Channel: 9 Note on, A#4 key=70 velocity: 117
@39420 Channel: 9 Note on, A4 key=69 velocity: 117
@39449 Channel: 9 Note on, A4 key=69 velocity: 0
@39449 Channel: 9 Note on, A#4 key=70 velocity: 0
@39540 Channel: 9 Note on, A#4 key=70 velocity: 117
@39540 Channel: 9 Note on, A4 key=69 velocity: 117
@39569 Channel: 9 Note on, A4 key=69 velocity: 0
@39569 Channel: 9 Note on, A#4 key=70 velocity: 0
@39660 Channel: 9 Note on, A#4 key=70 velocity: 117
@39660 Channel: 9 Note on, A4 key=69 velocity: 117
@39689 Channel: 9 Note on, A4 key=69 velocity: 0
@39689 Channel: 9 Note on, A#4 key=70 velocity: 0
@39780 Channel: 9 Note on, A#4 key=70 velocity: 117
@39780 Channel: 9 Note on, A4 key=69 velocity: 117
@39809 Channel: 9 Note on, A4 key=69 velocity: 0
@39809 Channel: 9 Note on, A#4 key=70 velocity: 0
@39900 Channel: 9 Note on, A#4 key=70 velocity: 117
@39900 Channel: 9 Note on, A4 key=69 velocity: 117
@39929 Channel: 9 Note on, A4 key=69 velocity: 0
@39929 Channel: 9 Note on, A#4 key=70 velocity: 0
@40020 Channel: 9 Note on, A#4 key=70 velocity: 117
@40020 Channel: 9 Note on, A4 key=69 velocity: 117
@40049 Channel: 9 Note on, A4 key=69 velocity: 0
@40049 Channel: 9 Note on, A#4 key=70 velocity: 0
@40140 Channel: 9 Note on, A#4 key=70 velocity: 117
@40140 Channel: 9 Note on, A4 key=69 velocity: 117
@40169 Channel: 9 Note on, A4 key=69 velocity: 0
@40169 Channel: 9 Note on, A#4 key=70 velocity: 0
@40260 Channel: 9 Note on, A#4 key=70 velocity: 117
@40260 Channel: 9 Note on, A4 key=69 velocity: 117
@40289 Channel: 9 Note on, A4 key=69 velocity: 0
@40289 Channel: 9 Note on, A#4 key=70 velocity: 0
@40380 Channel: 9 Note on, A#4 key=70 velocity: 117
@40380 Channel: 9 Note on, A4 key=69 velocity: 117
@40409 Channel: 9 Note on, A4 key=69 velocity: 0
@40409 Channel: 9 Note on, A#4 key=70 velocity: 0
@40500 Channel: 9 Note on, A#4 key=70 velocity: 117
@40500 Channel: 9 Note on, A4 key=69 velocity: 117
@40529 Channel: 9 Note on, A4 key=69 velocity: 0
@40529 Channel: 9 Note on, A#4 key=70 velocity: 0
@40620 Channel: 9 Note on, A4 key=69 velocity: 117
@40620 Channel: 9 Note on, A#4 key=70 velocity: 117
@40649 Channel: 9 Note on, A#4 key=70 velocity: 0
@40649 Channel: 9 Note on, A4 key=69 velocity: 0
@40740 Channel: 9 Note on, A#4 key=70 velocity: 117
@40740 Channel: 9 Note on, A4 key=69 velocity: 117
@40769 Channel: 9 Note on, A4 key=69 velocity: 0
@40769 Channel: 9 Note on, A#4 key=70 velocity: 0
@40860 Channel: 9 Note on, A#4 key=70 velocity: 117
@40860 Channel: 9 Note on, A4 key=69 velocity: 117
@40889 Channel: 9 Note on, A4 key=69 velocity: 0
@40889 Channel: 9 Note on, A#4 key=70 velocity: 0
@40980 Channel: 9 Note on, A#4 key=70 velocity: 117
@40980 Channel: 9 Note on, A4 key=69 velocity: 117
@41009 Channel: 9 Note on, A4 key=69 velocity: 0
@41009 Channel: 9 Note on, A#4 key=70 velocity: 0
@41100 Channel: 9 Note on, A#4 key=70 velocity: 117
@41100 Channel: 9 Note on, A4 key=69 velocity: 117
@41129 Channel: 9 Note on, A4 key=69 velocity: 0
@41129 Channel: 9 Note on, A#4 key=70 velocity: 0
@41220 Channel: 9 Note on, A#4 key=70 velocity: 117
@41220 Channel: 9 Note on, A4 key=69 velocity: 117
@41249 Channel: 9 Note on, A4 key=69 velocity: 0
@41249 Channel: 9 Note on, A#4 key=70 velocity: 0
@41340 Channel: 9 Note on, A#4 key=70 velocity: 117
@41340 Channel: 9 Note on, A4 key=69 velocity: 117
@41369 Channel: 9 Note on, A4 key=69 velocity: 0
@41369 Channel: 9 Note on, A#4 key=70 velocity: 0
@41460 Channel: 9 Note on, A#4 key=70 velocity: 117
@41460 Channel: 9 Note on, A4 key=69 velocity: 117
@41489 Channel: 9 Note on, A4 key=69 velocity: 0
@41489 Channel: 9 Note on, A#4 key=70 velocity: 0
@41580 Channel: 9 Note on, A#4 key=70 velocity: 117
@41580 Channel: 9 Note on, A4 key=69 velocity: 117
@41609 Channel: 9 Note on, A4 key=69 velocity: 0
@41609 Channel: 9 Note on, A#4 key=70 velocity: 0
@41700 Channel: 9 Note on, A#4 key=70 velocity: 117
@41700 Channel: 9 Note on, A4 key=69 velocity: 117
@41729 Channel: 9 Note on, A4 key=69 velocity: 0
@41729 Channel: 9 Note on, A#4 key=70 velocity: 0
@41820 Channel: 9 Note on, A#4 key=70 velocity: 117
@41820 Channel: 9 Note on, A4 key=69 velocity: 117
@41849 Channel: 9 Note on, A4 key=69 velocity: 0
@41849 Channel: 9 Note on, A#4 key=70 velocity: 0
@41940 Channel: 9 Note on, A#4 key=70 velocity: 117
@41940 Channel: 9 Note on, A4 key=69 velocity: 117
@41969 Channel: 9 Note on, A4 key=69 velocity: 0
@41969 Channel: 9 Note on, A#4 key=70 velocity: 0
@42060 Channel: 9 Note on, A#4 key=70 velocity: 117
@42060 Channel: 9 Note on, A4 key=69 velocity: 117
@42089 Channel: 9 Note on, A4 key=69 velocity: 0
@42089 Channel: 9 Note on, A#4 key=70 velocity: 0
@42180 Channel: 9 Note on, A#4 key=70 velocity: 117
@42180 Channel: 9 Note on, A4 key=69 velocity: 117
@42209 Channel: 9 Note on, A4 key=69 velocity: 0
@42209 Channel: 9 Note on, A#4 key=70 velocity: 0
@42300 Channel: 9 Note on, A#4 key=70 velocity: 117
@42300 Channel: 9 Note on, A4 key=69 velocity: 117
@42329 Channel: 9 Note on, A4 key=69 velocity: 0
@42329 Channel: 9 Note on, A#4 key=70 velocity: 0
@42420 Channel: 9 Note on, A#4 key=70 velocity: 117
@42420 Channel: 9 Note on, A4 key=69 velocity: 117
@42449 Channel: 9 Note on, A4 key=69 velocity: 0
@42449 Channel: 9 Note on, A#4 key=70 velocity: 0
@42540 Channel: 9 Note on, A4 key=69 velocity: 117
@42540 Channel: 9 Note on, A#4 key=70 velocity: 117
@42569 Channel: 9 Note on, A#4 key=70 velocity: 0
@42569 Channel: 9 Note on, A4 key=69 velocity: 0
@42660 Channel: 9 Note on, A#4 key=70 velocity: 117
@42660 Channel: 9 Note on, A4 key=69 velocity: 117
@42689 Channel: 9 Note on, A4 key=69 velocity: 0
@42689 Channel: 9 Note on, A#4 key=70 velocity: 0
@42780 Channel: 9 Note on, A#4 key=70 velocity: 117
@42780 Channel: 9 Note on, A4 key=69 velocity: 117
@42809 Channel: 9 Note on, A4 key=69 velocity: 0
@42809 Channel: 9 Note on, A#4 key=70 velocity: 0
@42900 Channel: 9 Note on, A#4 key=70 velocity: 117
@42900 Channel: 9 Note on, A4 key=69 velocity: 117
@42929 Channel: 9 Note on, A4 key=69 velocity: 0
@42929 Channel: 9 Note on, A#4 key=70 velocity: 0
@43020 Channel: 9 Note on, A#4 key=70 velocity: 117
@43020 Channel: 9 Note on, A4 key=69 velocity: 117
@43049 Channel: 9 Note on, A4 key=69 velocity: 0
@43049 Channel: 9 Note on, A#4 key=70 velocity: 0
@43140 Channel: 9 Note on, A#4 key=70 velocity: 117
@43140 Channel: 9 Note on, A4 key=69 velocity: 117
@43169 Channel: 9 Note on, A4 key=69 velocity: 0
@43169 Channel: 9 Note on, A#4 key=70 velocity: 0
@43260 Channel: 9 Note on, A#4 key=70 velocity: 117
@43260 Channel: 9 Note on, A4 key=69 velocity: 117
@43289 Channel: 9 Note on, A4 key=69 velocity: 0
@43289 Channel: 9 Note on, A#4 key=70 velocity: 0
@43380 Channel: 9 Note on, A#4 key=70 velocity: 117
@43380 Channel: 9 Note on, A4 key=69 velocity: 117
@43409 Channel: 9 Note on, A4 key=69 velocity: 0
@43409 Channel: 9 Note on, A#4 key=70 velocity: 0
@43500 Channel: 9 Note on, A#4 key=70 velocity: 117
@43500 Channel: 9 Note on, A4 key=69 velocity: 117
@43529 Channel: 9 Note on, A4 key=69 velocity: 0
@43529 Channel: 9 Note on, A#4 key=70 velocity: 0
@43620 Channel: 9 Note on, A#4 key=70 velocity: 117
@43620 Channel: 9 Note on, A4 key=69 velocity: 117
@43649 Channel: 9 Note on, A4 key=69 velocity: 0
@43649 Channel: 9 Note on, A#4 key=70 velocity: 0
@43740 Channel: 9 Note on, A#4 key=70 velocity: 117
@43740 Channel: 9 Note on, A4 key=69 velocity: 117
@43769 Channel: 9 Note on, A4 key=69 velocity: 0
@43769 Channel: 9 Note on, A#4 key=70 velocity: 0
@43860 Channel: 9 Note on, A#4 key=70 velocity: 117
@43860 Channel: 9 Note on, A4 key=69 velocity: 117
@43889 Channel: 9 Note on, A4 key=69 velocity: 0
@43889 Channel: 9 Note on, A#4 key=70 velocity: 0
@43980 Channel: 9 Note on, A#4 key=70 velocity: 117
@43980 Channel: 9 Note on, A4 key=69 velocity: 117
@44009 Channel: 9 Note on, A4 key=69 velocity: 0
@44009 Channel: 9 Note on, A#4 key=70 velocity: 0
@44100 Channel: 9 Note on, A#4 key=70 velocity: 117
@44100 Channel: 9 Note on, A4 key=69 velocity: 117
@44129 Channel: 9 Note on, A4 key=69 velocity: 0
@44129 Channel: 9 Note on, A#4 key=70 velocity: 0
@44220 Channel: 9 Note on, A#4 key=70 velocity: 117
@44220 Channel: 9 Note on, A4 key=69 velocity: 117
@44249 Channel: 9 Note on, A4 key=69 velocity: 0
@44249 Channel: 9 Note on, A#4 key=70 velocity: 0
@44340 Channel: 9 Note on, A#4 key=70 velocity: 117
@44340 Channel: 9 Note on, A4 key=69 velocity: 117
@44369 Channel: 9 Note on, A4 key=69 velocity: 0
@44369 Channel: 9 Note on, A#4 key=70 velocity: 0
@44460 Channel: 9 Note on, A4 key=69 velocity: 117
@44460 Channel: 9 Note on, A#4 key=70 velocity: 117
@44489 Channel: 9 Note on, A#4 key=70 velocity: 0
@44489 Channel: 9 Note on, A4 key=69 velocity: 0
@44580 Channel: 9 Note on, A#4 key=70 velocity: 117
@44580 Channel: 9 Note on, A4 key=69 velocity: 117
@44609 Channel: 9 Note on, A4 key=69 velocity: 0
@44609 Channel: 9 Note on, A#4 key=70 velocity: 0
@44700 Channel: 9 Note on, A#4 key=70 velocity: 117
@44700 Channel: 9 Note on, A4 key=69 velocity: 117
@44729 Channel: 9 Note on, A4 key=69 velocity: 0
@44729 Channel: 9 Note on, A#4 key=70 velocity: 0
@44820 Channel: 9 Note on, A#4 key=70 velocity: 117
@44820 Channel: 9 Note on, A4 key=69 velocity: 117
@44849 Channel: 9 Note on, A4 key=69 velocity: 0
@44849 Channel: 9 Note on, A#4 key=70 velocity: 0
@44940 Channel: 9 Note on, A#4 key=70 velocity: 117
@44940 Channel: 9 Note on, A4 key=69 velocity: 117
@44969 Channel: 9 Note on, A4 key=69 velocity: 0
@44969 Channel: 9 Note on, A#4 key=70 velocity: 0
@45060 Channel: 9 Note on, A#4 key=70 velocity: 117
@45060 Channel: 9 Note on, A4 key=69 velocity: 117
@45089 Channel: 9 Note on, A4 key=69 velocity: 0
@45089 Channel: 9 Note on, A#4 key=70 velocity: 0
@45180 Channel: 9 Note on, A#4 key=70 velocity: 117
@45180 Channel: 9 Note on, A4 key=69 velocity: 117
@45209 Channel: 9 Note on, A4 key=69 velocity: 0
@45209 Channel: 9 Note on, A#4 key=70 velocity: 0
@45300 Channel: 9 Note on, A#4 key=70 velocity: 117
@45300 Channel: 9 Note on, A4 key=69 velocity: 117
@45329 Channel: 9 Note on, A4 key=69 velocity: 0
@45329 Channel: 9 Note on, A#4 key=70 velocity: 0
@45420 Channel: 9 Note on, A#4 key=70 velocity: 117
@45420 Channel: 9 Note on, A4 key=69 velocity: 117
@45449 Channel: 9 Note on, A4 key=69 velocity: 0
@45449 Channel: 9 Note on, A#4 key=70 velocity: 0
@45540 Channel: 9 Note on, A#4 key=70 velocity: 117
@45540 Channel: 9 Note on, A4 key=69 velocity: 117
@45569 Channel: 9 Note on, A4 key=69 velocity: 0
@45569 Channel: 9 Note on, A#4 key=70 velocity: 0
@45660 Channel: 9 Note on, A#4 key=70 velocity: 117
@45660 Channel: 9 Note on, A4 key=69 velocity: 117
@45689 Channel: 9 Note on, A4 key=69 velocity: 0
@45689 Channel: 9 Note on, A#4 key=70 velocity: 0
@45780 Channel: 9 Note on, A#4 key=70 velocity: 117
@45780 Channel: 9 Note on, A4 key=69 velocity: 117
@45809 Channel: 9 Note on, A4 key=69 velocity: 0
@45809 Channel: 9 Note on, A#4 key=70 velocity: 0
@45900 Channel: 9 Note on, A#4 key=70 velocity: 117
@45900 Channel: 9 Note on, A4 key=69 velocity: 117
@45929 Channel: 9 Note on, A4 key=69 velocity: 0
@45929 Channel: 9 Note on, A#4 key=70 velocity: 0
@46020 Channel: 9 Note on, A#4 key=70 velocity: 117
@46020 Channel: 9 Note on, A4 key=69 velocity: 117
@46049 Channel: 9 Note on, A4 key=69 velocity: 0
@46049 Channel: 9 Note on, A#4 key=70 velocity: 0
@46140 Channel: 9 Note on, A#4 key=70 velocity: 117
@46140 Channel: 9 Note on, A4 key=69 velocity: 117
@46169 Channel: 9 Note on, A4 key=69 velocity: 0
@46169 Channel: 9 Note on, A#4 key=70 velocity: 0
@46260 Channel: 9 Note on, A#4 key=70 velocity: 117
@46260 Channel: 9 Note on, A4 key=69 velocity: 117
@46289 Channel: 9 Note on, A4 key=69 velocity: 0
@46289 Channel: 9 Note on, A#4 key=70 velocity: 0
@46380 Channel: 9 Note on, A4 key=69 velocity: 117
@46380 Channel: 9 Note on, A#4 key=70 velocity: 117
@46409 Channel: 9 Note on, A#4 key=70 velocity: 0
@46409 Channel: 9 Note on, A4 key=69 velocity: 0
@46500 Channel: 9 Note on, A#4 key=70 velocity: 117
@46500 Channel: 9 Note on, A4 key=69 velocity: 117
@46529 Channel: 9 Note on, A4 key=69 velocity: 0
@46529 Channel: 9 Note on, A#4 key=70 velocity: 0
@46620 Channel: 9 Note on, A#4 key=70 velocity: 117
@46620 Channel: 9 Note on, A4 key=69 velocity: 117
@46649 Channel: 9 Note on, A4 key=69 velocity: 0
@46649 Channel: 9 Note on, A#4 key=70 velocity: 0
@46740 Channel: 9 Note on, A#4 key=70 velocity: 117
@46740 Channel: 9 Note on, A4 key=69 velocity: 117
@46769 Channel: 9 Note on, A4 key=69 velocity: 0
@46769 Channel: 9 Note on, A#4 key=70 velocity: 0
@46860 Channel: 9 Note on, A#4 key=70 velocity: 117
@46860 Channel: 9 Note on, A4 key=69 velocity: 117
@46889 Channel: 9 Note on, A4 key=69 velocity: 0
@46889 Channel: 9 Note on, A#4 key=70 velocity: 0
@46980 Channel: 9 Note on, A#4 key=70 velocity: 117
@46980 Channel: 9 Note on, A4 key=69 velocity: 117
@47009 Channel: 9 Note on, A4 key=69 velocity: 0
@47009 Channel: 9 Note on, A#4 key=70 velocity: 0
@47100 Channel: 9 Note on, A#4 key=70 velocity: 117
@47100 Channel: 9 Note on, A4 key=69 velocity: 117
@47129 Channel: 9 Note on, A4 key=69 velocity: 0
@47129 Channel: 9 Note on, A#4 key=70 velocity: 0
@47220 Channel: 9 Note on, A#4 key=70 velocity: 117
@47220 Channel: 9 Note on, A4 key=69 velocity: 117
@47249 Channel: 9 Note on, A4 key=69 velocity: 0
@47249 Channel: 9 Note on, A#4 key=70 velocity: 0
@47340 Channel: 9 Note on, A#4 key=70 velocity: 117
@47340 Channel: 9 Note on, A4 key=69 velocity: 117
@47369 Channel: 9 Note on, A4 key=69 velocity: 0
@47369 Channel: 9 Note on, A#4 key=70 velocity: 0
@47460 Channel: 9 Note on, A#4 key=70 velocity: 117
@47460 Channel: 9 Note on, A4 key=69 velocity: 117
@47489 Channel: 9 Note on, A4 key=69 velocity: 0
@47489 Channel: 9 Note on, A#4 key=70 velocity: 0
@47580 Channel: 9 Note on, A#4 key=70 velocity: 117
@47580 Channel: 9 Note on, A4 key=69 velocity: 117
@47609 Channel: 9 Note on, A4 key=69 velocity: 0
@47609 Channel: 9 Note on, A#4 key=70 velocity: 0
@47700 Channel: 9 Note on, A#4 key=70 velocity: 117
@47700 Channel: 9 Note on, A4 key=69 velocity: 117
@47729 Channel: 9 Note on, A4 key=69 velocity: 0
@47729 Channel: 9 Note on, A#4 key=70 velocity: 0
@47820 Channel: 9 Note on, A#4 key=70 velocity: 117
@47820 Channel: 9 Note on, A4 key=69 velocity: 117
@47849 Channel: 9 Note on, A4 key=69 velocity: 0
@47849 Channel: 9 Note on, A#4 key=70 velocity: 0
@47940 Channel: 9 Note on, A#4 key=70 velocity: 117
@47940 Channel: 9 Note on, A4 key=69 velocity: 117
@47969 Channel: 9 Note on, A4 key=69 velocity: 0
@47969 Channel: 9 Note on, A#4 key=70 velocity: 0
@47969 Other message: class javax.sound.midi.Track$ImmutableEndOfTrack

Track 11: size = 172

@0 Other message: class javax.sound.midi.MetaMessage
@0 Other message: class javax.sound.midi.MetaMessage
@0 Channel: 9 Command:192
@0 Channel: 9 Command:176
@0 Channel: 9 Command:176
@13320 Channel: 9 Note on, E2 key=40 velocity: 127
@13349 Channel: 9 Note on, E2 key=40 velocity: 0
@13350 Channel: 9 Note on, E2 key=40 velocity: 127
@13379 Channel: 9 Note on, E2 key=40 velocity: 0
@13380 Channel: 9 Note on, E2 key=40 velocity: 127
@13409 Channel: 9 Note on, E2 key=40 velocity: 0
@13410 Channel: 9 Note on, E2 key=40 velocity: 127
@13439 Channel: 9 Note on, E2 key=40 velocity: 0
@13440 Channel: 9 Note on, C#3 key=49 velocity: 127
@13440 Channel: 9 Note on, A3 key=57 velocity: 127
@13679 Channel: 9 Note on, A3 key=57 velocity: 0
@13679 Channel: 9 Note on, C#3 key=49 velocity: 0
@15240 Channel: 9 Note on, E2 key=40 velocity: 127
@15258 Channel: 9 Note on, E2 key=40 velocity: 0
@15270 Channel: 9 Note on, E2 key=40 velocity: 127
@15295 Channel: 9 Note on, E2 key=40 velocity: 0
@15300 Channel: 9 Note on, E2 key=40 velocity: 127
@15323 Channel: 9 Note on, E2 key=40 velocity: 0
@15330 Channel: 9 Note on, E2 key=40 velocity: 127
@15358 Channel: 9 Note on, E2 key=40 velocity: 0
@15360 Channel: 9 Note on, C#3 key=49 velocity: 127
@15360 Channel: 9 Note on, A3 key=57 velocity: 127
@15599 Channel: 9 Note on, A3 key=57 velocity: 0
@15599 Channel: 9 Note on, C#3 key=49 velocity: 0
@19080 Channel: 9 Note on, E2 key=40 velocity: 127
@19109 Channel: 9 Note on, E2 key=40 velocity: 0
@19140 Channel: 9 Note on, E2 key=40 velocity: 127
@19156 Channel: 9 Note on, E2 key=40 velocity: 0
@19170 Channel: 9 Note on, E2 key=40 velocity: 127
@19195 Channel: 9 Note on, E2 key=40 velocity: 0
@19200 Channel: 9 Note on, C#3 key=49 velocity: 127
@19200 Channel: 9 Note on, A3 key=57 velocity: 127
@19439 Channel: 9 Note on, A3 key=57 velocity: 0
@19439 Channel: 9 Note on, C#3 key=49 velocity: 0
@22740 Channel: 9 Note on, E2 key=40 velocity: 127
@22753 Channel: 9 Note on, E2 key=40 velocity: 0
@22770 Channel: 9 Note on, E2 key=40 velocity: 127
@22793 Channel: 9 Note on, E2 key=40 velocity: 0
@22800 Channel: 9 Note on, E2 key=40 velocity: 127
@22829 Channel: 9 Note on, E2 key=40 velocity: 0
@22920 Channel: 9 Note on, E2 key=40 velocity: 127
@22934 Channel: 9 Note on, E2 key=40 velocity: 0
@22950 Channel: 9 Note on, E2 key=40 velocity: 127
@22973 Channel: 9 Note on, E2 key=40 velocity: 0
@22980 Channel: 9 Note on, E2 key=40 velocity: 127
@23000 Channel: 9 Note on, E2 key=40 velocity: 0
@23010 Channel: 9 Note on, E2 key=40 velocity: 127
@23038 Channel: 9 Note on, E2 key=40 velocity: 0
@23040 Channel: 9 Note on, C#3 key=49 velocity: 127
@23040 Channel: 9 Note on, A3 key=57 velocity: 127
@23279 Channel: 9 Note on, A3 key=57 velocity: 0
@23279 Channel: 9 Note on, C#3 key=49 velocity: 0
@26760 Channel: 9 Note on, E2 key=40 velocity: 127
@26789 Channel: 9 Note on, E2 key=40 velocity: 0
@26790 Channel: 9 Note on, E2 key=40 velocity: 127
@26819 Channel: 9 Note on, E2 key=40 velocity: 0
@26820 Channel: 9 Note on, E2 key=40 velocity: 127
@26849 Channel: 9 Note on, E2 key=40 velocity: 0
@26850 Channel: 9 Note on, E2 key=40 velocity: 127
@26879 Channel: 9 Note on, E2 key=40 velocity: 0
@26880 Channel: 9 Note on, C#3 key=49 velocity: 127
@26880 Channel: 9 Note on, A3 key=57 velocity: 127
@27119 Channel: 9 Note on, A3 key=57 velocity: 0
@27119 Channel: 9 Note on, C#3 key=49 velocity: 0
@28560 Channel: 9 Note on, E3 key=52 velocity: 127
@28680 Channel: 9 Note on, E2 key=40 velocity: 127
@28696 Channel: 9 Note on, E2 key=40 velocity: 0
@28710 Channel: 9 Note on, E2 key=40 velocity: 127
@28732 Channel: 9 Note on, E2 key=40 velocity: 0
@28740 Channel: 9 Note on, E2 key=40 velocity: 127
@28763 Channel: 9 Note on, E2 key=40 velocity: 0
@28770 Channel: 9 Note on, E2 key=40 velocity: 127
@28792 Channel: 9 Note on, E2 key=40 velocity: 0
@28859 Channel: 9 Note on, E3 key=52 velocity: 0
@29100 Channel: 9 Note on, F2 key=41 velocity: 127
@29118 Channel: 9 Note on, F2 key=41 velocity: 0
@29130 Channel: 9 Note on, F2 key=41 velocity: 127
@29150 Channel: 9 Note on, F2 key=41 velocity: 0
@29160 Channel: 9 Note on, F2 key=41 velocity: 127
@29176 Channel: 9 Note on, F2 key=41 velocity: 0
@29190 Channel: 9 Note on, F2 key=41 velocity: 127
@29213 Channel: 9 Note on, F2 key=41 velocity: 0
@29220 Channel: 9 Note on, F2 key=41 velocity: 127
@29236 Channel: 9 Note on, F2 key=41 velocity: 0
@29250 Channel: 9 Note on, F2 key=41 velocity: 127
@29278 Channel: 9 Note on, F2 key=41 velocity: 0
@29280 Channel: 9 Note on, F2 key=41 velocity: 127
@29321 Channel: 9 Note on, F2 key=41 velocity: 0
@30540 Channel: 9 Note on, E2 key=40 velocity: 127
@30556 Channel: 9 Note on, E2 key=40 velocity: 0
@30570 Channel: 9 Note on, E2 key=40 velocity: 127
@30593 Channel: 9 Note on, E2 key=40 velocity: 0
@30600 Channel: 9 Note on, E2 key=40 velocity: 127
@30616 Channel: 9 Note on, E2 key=40 velocity: 0
@30630 Channel: 9 Note on, E2 key=40 velocity: 127
@30658 Channel: 9 Note on, E2 key=40 velocity: 0
@30660 Channel: 9 Note on, E2 key=40 velocity: 127
@30676 Channel: 9 Note on, E2 key=40 velocity: 0
@30690 Channel: 9 Note on, E2 key=40 velocity: 127
@30720 Channel: 9 Note on, C#3 key=49 velocity: 127
@30720 Channel: 9 Note on, A3 key=57 velocity: 127
@30731 Channel: 9 Note on, E2 key=40 velocity: 0
@30959 Channel: 9 Note on, A3 key=57 velocity: 0
@30959 Channel: 9 Note on, C#3 key=49 velocity: 0
@34260 Channel: 9 Note on, E2 key=40 velocity: 127
@34273 Channel: 9 Note on, E2 key=40 velocity: 0
@34290 Channel: 9 Note on, E2 key=40 velocity: 127
@34313 Channel: 9 Note on, E2 key=40 velocity: 0
@34320 Channel: 9 Note on, E2 key=40 velocity: 127
@34349 Channel: 9 Note on, E2 key=40 velocity: 0
@34440 Channel: 9 Note on, E2 key=40 velocity: 127
@34454 Channel: 9 Note on, E2 key=40 velocity: 0
@34470 Channel: 9 Note on, E2 key=40 velocity: 127
@34493 Channel: 9 Note on, E2 key=40 velocity: 0
@34500 Channel: 9 Note on, E2 key=40 velocity: 127
@34520 Channel: 9 Note on, E2 key=40 velocity: 0
@34530 Channel: 9 Note on, E2 key=40 velocity: 127
@34558 Channel: 9 Note on, E2 key=40 velocity: 0
@34560 Channel: 9 Note on, C#3 key=49 velocity: 127
@34560 Channel: 9 Note on, A3 key=57 velocity: 127
@34799 Channel: 9 Note on, A3 key=57 velocity: 0
@34799 Channel: 9 Note on, C#3 key=49 velocity: 0
@38280 Channel: 9 Note on, E2 key=40 velocity: 127
@38309 Channel: 9 Note on, E2 key=40 velocity: 0
@38310 Channel: 9 Note on, E2 key=40 velocity: 127
@38339 Channel: 9 Note on, E2 key=40 velocity: 0
@38340 Channel: 9 Note on, E2 key=40 velocity: 127
@38369 Channel: 9 Note on, E2 key=40 velocity: 0
@38370 Channel: 9 Note on, E2 key=40 velocity: 127
@38399 Channel: 9 Note on, E2 key=40 velocity: 0
@38400 Channel: 9 Note on, C#3 key=49 velocity: 127
@38400 Channel: 9 Note on, A3 key=57 velocity: 127
@38639 Channel: 9 Note on, A3 key=57 velocity: 0
@38639 Channel: 9 Note on, C#3 key=49 velocity: 0
@41940 Channel: 9 Note on, E2 key=40 velocity: 127
@41962 Channel: 9 Note on, E2 key=40 velocity: 0
@41970 Channel: 9 Note on, E2 key=40 velocity: 127
@41993 Channel: 9 Note on, E2 key=40 velocity: 0
@42000 Channel: 9 Note on, E2 key=40 velocity: 127
@42039 Channel: 9 Note on, E2 key=40 velocity: 0
@42120 Channel: 9 Note on, E2 key=40 velocity: 127
@42149 Channel: 9 Note on, E2 key=40 velocity: 0
@42150 Channel: 9 Note on, E2 key=40 velocity: 127
@42179 Channel: 9 Note on, E2 key=40 velocity: 0
@42180 Channel: 9 Note on, E2 key=40 velocity: 127
@42209 Channel: 9 Note on, E2 key=40 velocity: 0
@42210 Channel: 9 Note on, E2 key=40 velocity: 127
@42239 Channel: 9 Note on, E2 key=40 velocity: 0
@42240 Channel: 9 Note on, C#3 key=49 velocity: 127
@42240 Channel: 9 Note on, A3 key=57 velocity: 127
@42479 Channel: 9 Note on, A3 key=57 velocity: 0
@42479 Channel: 9 Note on, C#3 key=49 velocity: 0
@43920 Channel: 9 Note on, E3 key=52 velocity: 127
@44040 Channel: 9 Note on, E2 key=40 velocity: 127
@44069 Channel: 9 Note on, E2 key=40 velocity: 0
@44070 Channel: 9 Note on, E2 key=40 velocity: 127
@44099 Channel: 9 Note on, E2 key=40 velocity: 0
@44100 Channel: 9 Note on, E2 key=40 velocity: 127
@44129 Channel: 9 Note on, E2 key=40 velocity: 0
@44130 Channel: 9 Note on, E2 key=40 velocity: 127
@44159 Channel: 9 Note on, E2 key=40 velocity: 0
@44160 Channel: 9 Note on, C#3 key=49 velocity: 127
@44160 Channel: 9 Note on, A3 key=57 velocity: 127
@44218 Channel: 9 Note on, E3 key=52 velocity: 0
@44399 Channel: 9 Note on, A3 key=57 velocity: 0
@44399 Channel: 9 Note on, C#3 key=49 velocity: 0
@44399 Other message: class javax.sound.midi.Track$ImmutableEndOfTrack

Track 12: size = 684

@0 Other message: class javax.sound.midi.MetaMessage
@0 Other message: class javax.sound.midi.MetaMessage
@0 Channel: 4 Command:192
@0 Channel: 4 Command:176
@0 Channel: 4 Command:176
@60 Channel: 4 Command:176
@60 Channel: 4 Command:176
@1620 Channel: 4 Note on, C5 key=72 velocity: 100
@1680 Channel: 4 Note on, C5 key=72 velocity: 0
@1680 Channel: 4 Note on, C5 key=72 velocity: 100
@1740 Channel: 4 Note on, C5 key=72 velocity: 0
@1740 Channel: 4 Note on, D5 key=74 velocity: 100
@1800 Channel: 4 Note on, D5 key=74 velocity: 0
@1800 Channel: 4 Note on, E5 key=76 velocity: 100
@1860 Channel: 4 Note on, E5 key=76 velocity: 0
@1860 Channel: 4 Note on, F5 key=77 velocity: 100
@1980 Channel: 4 Note on, F5 key=77 velocity: 0
@1980 Channel: 4 Note on, E5 key=76 velocity: 100
@2160 Channel: 4 Note on, E5 key=76 velocity: 0
@2460 Channel: 4 Note on, D5 key=74 velocity: 100
@2520 Channel: 4 Note on, D5 key=74 velocity: 0
@2520 Channel: 4 Note on, E5 key=76 velocity: 100
@2580 Channel: 4 Note on, E5 key=76 velocity: 0
@2580 Channel: 4 Note on, D5 key=74 velocity: 100
@2640 Channel: 4 Note on, D5 key=74 velocity: 0
@2640 Channel: 4 Note on, E5 key=76 velocity: 100
@2700 Channel: 4 Note on, E5 key=76 velocity: 0
@2700 Channel: 4 Note on, D5 key=74 velocity: 100
@2760 Channel: 4 Note on, D5 key=74 velocity: 0
@2760 Channel: 4 Note on, E5 key=76 velocity: 100
@2820 Channel: 4 Note on, E5 key=76 velocity: 0
@2820 Channel: 4 Note on, G5 key=79 velocity: 100
@2940 Channel: 4 Note on, G5 key=79 velocity: 0
@2940 Channel: 4 Note on, D5 key=74 velocity: 100
@3060 Channel: 4 Note on, D5 key=74 velocity: 0
@3060 Channel: 4 Note on, B4 key=71 velocity: 100
@3120 Channel: 4 Note on, B4 key=71 velocity: 0
@3120 Channel: 4 Note on, A4 key=69 velocity: 100
@3180 Channel: 4 Note on, A4 key=69 velocity: 0
@3180 Channel: 4 Note on, G4 key=67 velocity: 100
@3360 Channel: 4 Note on, G4 key=67 velocity: 0
@3540 Channel: 4 Note on, D5 key=74 velocity: 100
@3600 Channel: 4 Note on, D5 key=74 velocity: 0
@3600 Channel: 4 Note on, D5 key=74 velocity: 100
@3660 Channel: 4 Note on, D5 key=74 velocity: 0
@3660 Channel: 4 Note on, D5 key=74 velocity: 100
@3720 Channel: 4 Note on, D5 key=74 velocity: 0
@3720 Channel: 4 Note on, D5 key=74 velocity: 100
@3780 Channel: 4 Note on, D5 key=74 velocity: 0
@3780 Channel: 4 Note on, E5 key=76 velocity: 100
@3960 Channel: 4 Note on, E5 key=76 velocity: 0
@4500 Channel: 4 Note on, B4 key=71 velocity: 100
@4560 Channel: 4 Note on, B4 key=71 velocity: 0
@4560 Channel: 4 Note on, E5 key=76 velocity: 100
@4620 Channel: 4 Note on, E5 key=76 velocity: 0
@4620 Channel: 4 Note on, D5 key=74 velocity: 100
@4680 Channel: 4 Note on, D5 key=74 velocity: 0
@4680 Channel: 4 Note on, D5 key=74 velocity: 100
@4740 Channel: 4 Note on, D5 key=74 velocity: 0
@4740 Channel: 4 Note on, D5 key=74 velocity: 100
@4860 Channel: 4 Note on, D5 key=74 velocity: 0
@4860 Channel: 4 Note on, C5 key=72 velocity: 100
@4890 Channel: 4 Note on, B4 key=71 velocity: 100
@4920 Channel: 4 Note on, B4 key=71 velocity: 0
@4920 Channel: 4 Note on, C5 key=72 velocity: 0
@4920 Channel: 4 Note on, C5 key=72 velocity: 100
@5280 Channel: 4 Note on, C5 key=72 velocity: 0
@5340 Channel: 4 Note on, A4 key=69 velocity: 100
@5460 Channel: 4 Note on, A4 key=69 velocity: 0
@5460 Channel: 4 Note on, C5 key=72 velocity: 100
@5580 Channel: 4 Note on, C5 key=72 velocity: 0
@5580 Channel: 4 Note on, F5 key=77 velocity: 100
@5700 Channel: 4 Note on, F5 key=77 velocity: 0
@5700 Channel: 4 Note on, E5 key=76 velocity: 100
@5820 Channel: 4 Note on, E5 key=76 velocity: 0
@5820 Channel: 4 Note on, C5 key=72 velocity: 100
@5940 Channel: 4 Note on, C5 key=72 velocity: 0
@5940 Channel: 4 Note on, G4 key=67 velocity: 100
@6030 Channel: 4 Note on, G4 key=67 velocity: 0
@6030 Channel: 4 Note on, F4 key=65 velocity: 100
@6060 Channel: 4 Note on, F4 key=65 velocity: 0
@6060 Channel: 4 Note on, E4 key=64 velocity: 100
@6240 Channel: 4 Note on, E4 key=64 velocity: 0
@6300 Channel: 4 Note on, G4 key=67 velocity: 100
@6420 Channel: 4 Note on, G4 key=67 velocity: 0
@6420 Channel: 4 Note on, C5 key=72 velocity: 100
@6540 Channel: 4 Note on, C5 key=72 velocity: 0
@6540 Channel: 4 Note on, E5 key=76 velocity: 100
@6660 Channel: 4 Note on, E5 key=76 velocity: 0
@6660 Channel: 4 Note on, D5 key=74 velocity: 100
@6780 Channel: 4 Note on, D5 key=74 velocity: 0
@6780 Channel: 4 Note on, B4 key=71 velocity: 100
@6900 Channel: 4 Note on, B4 key=71 velocity: 0
@6900 Channel: 4 Note on, F4 key=65 velocity: 100
@6990 Channel: 4 Note on, F4 key=65 velocity: 0
@6990 Channel: 4 Note on, E4 key=64 velocity: 100
@7020 Channel: 4 Note on, E4 key=64 velocity: 0
@7020 Channel: 4 Note on, D4 key=62 velocity: 100
@7140 Channel: 4 Note on, D4 key=62 velocity: 0
@7440 Channel: 4 Note on, C5 key=72 velocity: 100
@7500 Channel: 4 Note on, C5 key=72 velocity: 0
@7500 Channel: 4 Note on, C5 key=72 velocity: 100
@7530 Channel: 4 Note on, C5 key=72 velocity: 0
@7530 Channel: 4 Note on, C5 key=72 velocity: 100
@7590 Channel: 4 Note on, C5 key=72 velocity: 0
@7590 Channel: 4 Note on, C5 key=72 velocity: 100
@7620 Channel: 4 Note on, C5 key=72 velocity: 0
@7620 Channel: 4 Note on, D5 key=74 velocity: 100
@7680 Channel: 4 Note on, D5 key=74 velocity: 0
@7680 Channel: 4 Note on, C5 key=72 velocity: 100
@7740 Channel: 4 Note on, C5 key=72 velocity: 0
@7740 Channel: 4 Note on, C5 key=72 velocity: 100
@7800 Channel: 4 Note on, C5 key=72 velocity: 0
@7920 Channel: 4 Note on, C5 key=72 velocity: 100
@7980 Channel: 4 Note on, C5 key=72 velocity: 0
@7980 Channel: 4 Note on, A4 key=69 velocity: 100
@8010 Channel: 4 Note on, A4 key=69 velocity: 0
@8010 Channel: 4 Note on, C5 key=72 velocity: 100
@8100 Channel: 4 Note on, C5 key=72 velocity: 0
@8100 Channel: 4 Note on, C5 key=72 velocity: 100
@8160 Channel: 4 Note on, C5 key=72 velocity: 0
@8160 Channel: 4 Note on, G5 key=79 velocity: 100
@8220 Channel: 4 Note on, G5 key=79 velocity: 0
@8220 Channel: 4 Note on, E5 key=76 velocity: 100
@8280 Channel: 4 Note on, E5 key=76 velocity: 0
@8280 Channel: 4 Note on, D5 key=74 velocity: 100
@8340 Channel: 4 Note on, D5 key=74 velocity: 0
@8340 Channel: 4 Note on, C5 key=72 velocity: 100
@8640 Channel: 4 Note on, C5 key=72 velocity: 0
@8640 Channel: 4 Note on, C5 key=72 velocity: 94
@8669 Channel: 4 Note on, C5 key=72 velocity: 0
@8700 Channel: 4 Note on, C5 key=72 velocity: 94
@8729 Channel: 4 Note on, C5 key=72 velocity: 0
@8730 Channel: 4 Note on, C5 key=72 velocity: 94
@8759 Channel: 4 Note on, C5 key=72 velocity: 0
@8790 Channel: 4 Note on, C5 key=72 velocity: 94
@8819 Channel: 4 Note on, C5 key=72 velocity: 0
@8820 Channel: 4 Note on, C5 key=72 velocity: 94
@8849 Channel: 4 Note on, C5 key=72 velocity: 0
@8880 Channel: 4 Note on, B4 key=71 velocity: 94
@8909 Channel: 4 Note on, B4 key=71 velocity: 0
@8940 Channel: 4 Note on, B4 key=71 velocity: 94
@8969 Channel: 4 Note on, B4 key=71 velocity: 0
@8970 Channel: 4 Note on, B4 key=71 velocity: 94
@8999 Channel: 4 Note on, B4 key=71 velocity: 0
@9030 Channel: 4 Note on, B4 key=71 velocity: 94
@9059 Channel: 4 Note on, B4 key=71 velocity: 0
@9060 Channel: 4 Note on, B4 key=71 velocity: 94
@9089 Channel: 4 Note on, B4 key=71 velocity: 0
@9120 Channel: 4 Note on, E5 key=76 velocity: 94
@9149 Channel: 4 Note on, E5 key=76 velocity: 0
@9179 Channel: 4 Note on, E5 key=76 velocity: 94
@9194 Channel: 4 Note on, E5 key=76 velocity: 0
@9210 Channel: 4 Note on, E5 key=76 velocity: 94
@9248 Channel: 4 Note on, E5 key=76 velocity: 0
@9269 Channel: 4 Note on, E5 key=76 velocity: 94
@9287 Channel: 4 Note on, E5 key=76 velocity: 0
@9298 Channel: 4 Note on, E5 key=76 velocity: 94
@9336 Channel: 4 Note on, E5 key=76 velocity: 0
@9358 Channel: 4 Note on, D5 key=74 velocity: 94
@9398 Channel: 4 Note on, D5 key=74 velocity: 0
@9419 Channel: 4 Note on, D5 key=74 velocity: 94
@9434 Channel: 4 Note on, D5 key=74 velocity: 0
@9450 Channel: 4 Note on, D5 key=74 velocity: 94
@9480 Channel: 4 Note on, D5 key=74 velocity: 0
@9507 Channel: 4 Note on, D5 key=74 velocity: 94
@9519 Channel: 4 Note on, D5 key=74 velocity: 0
@9534 Channel: 4 Note on, D5 key=74 velocity: 94
@9557 Channel: 4 Note on, D5 key=74 velocity: 0
@9600 Channel: 4 Note on, C5 key=72 velocity: 94
@9780 Channel: 4 Note on, G4 key=67 velocity: 94
@9782 Channel: 4 Note on, C5 key=72 velocity: 0
@9899 Channel: 4 Note on, G4 key=67 velocity: 0
@9900 Channel: 4 Note on, F4 key=65 velocity: 94
@9960 Channel: 4 Note on, F4 key=65 velocity: 0
@9960 Channel: 4 Note on, E4 key=64 velocity: 94
@9989 Channel: 4 Note on, E4 key=64 velocity: 0
@9990 Channel: 4 Note on, F4 key=65 velocity: 94
@10019 Channel: 4 Note on, F4 key=65 velocity: 0
@10020 Channel: 4 Note on, G4 key=67 velocity: 94
@10122 Channel: 4 Note on, G4 key=67 velocity: 0
@10140 Channel: 4 Note on, G4 key=67 velocity: 94
@10240 Channel: 4 Note on, G4 key=67 velocity: 0
@10260 Channel: 4 Note on, C5 key=72 velocity: 94
@10366 Channel: 4 Note on, C5 key=72 velocity: 0
@10380 Channel: 4 Note on, D5 key=74 velocity: 94
@10491 Channel: 4 Note on, D5 key=74 velocity: 0
@10500 Channel: 4 Note on, B4 key=71 velocity: 94
@10740 Channel: 4 Note on, B4 key=71 velocity: 0
@10740 Channel: 4 Note on, G4 key=67 velocity: 94
@10857 Channel: 4 Note on, G4 key=67 velocity: 0
@10860 Channel: 4 Note on, F4 key=65 velocity: 94
@10920 Channel: 4 Note on, F4 key=65 velocity: 0
@10920 Channel: 4 Note on, E4 key=64 velocity: 94
@10950 Channel: 4 Note on, F4 key=65 velocity: 94
@10951 Channel: 4 Note on, E4 key=64 velocity: 0
@10971 Channel: 4 Note on, F4 key=65 velocity: 0
@10980 Channel: 4 Note on, G4 key=67 velocity: 94
@11058 Channel: 4 Note on, G4 key=67 velocity: 0
@11100 Channel: 4 Note on, G4 key=67 velocity: 94
@11198 Channel: 4 Note on, G4 key=67 velocity: 0
@11220 Channel: 4 Note on, A4 key=69 velocity: 94
@11322 Channel: 4 Note on, A4 key=69 velocity: 0
@11340 Channel: 4 Note on, G4 key=67 velocity: 94
@11438 Channel: 4 Note on, G4 key=67 velocity: 0
@11460 Channel: 4 Note on, G5 key=79 velocity: 94
@12228 Channel: 4 Note on, G5 key=79 velocity: 0
@12240 Channel: 4 Note on, G5 key=79 velocity: 94
@12283 Channel: 4 Note on, G5 key=79 velocity: 0
@12300 Channel: 4 Note on, G5 key=79 velocity: 94
@12321 Channel: 4 Note on, G5 key=79 velocity: 0
@12330 Channel: 4 Note on, G5 key=79 velocity: 94
@12374 Channel: 4 Note on, G5 key=79 velocity: 0
@12390 Channel: 4 Note on, G5 key=79 velocity: 94
@12408 Channel: 4 Note on, G5 key=79 velocity: 0
@12420 Channel: 4 Note on, G5 key=79 velocity: 94
@12476 Channel: 4 Note on, G5 key=79 velocity: 0
@12480 Channel: 4 Note on, A5 key=81 velocity: 94
@12533 Channel: 4 Note on, A5 key=81 velocity: 0
@12540 Channel: 4 Note on, G5 key=79 velocity: 94
@12943 Channel: 4 Note on, G5 key=79 velocity: 0
@12960 Channel: 4 Note on, A5 key=81 velocity: 94
@13020 Channel: 4 Note on, A5 key=81 velocity: 0
@13020 Channel: 4 Note on, G5 key=79 velocity: 94
@13200 Channel: 4 Note on, G5 key=79 velocity: 0
@13200 Channel: 4 Note on, A5 key=81 velocity: 94
@13260 Channel: 4 Note on, A5 key=81 velocity: 0
@13260 Channel: 4 Note on, C6 key=84 velocity: 94
@13354 Channel: 4 Note on, C6 key=84 velocity: 0
@13380 Channel: 4 Note on, C6 key=84 velocity: 94
@13924 Channel: 4 Note on, C6 key=84 velocity: 0
@15060 Channel: 4 Note on, C5 key=72 velocity: 100
@15120 Channel: 4 Note on, C5 key=72 velocity: 0
@15120 Channel: 4 Note on, C5 key=72 velocity: 100
@15180 Channel: 4 Note on, C5 key=72 velocity: 0
@15180 Channel: 4 Note on, D5 key=74 velocity: 100
@15240 Channel: 4 Note on, D5 key=74 velocity: 0
@15240 Channel: 4 Note on, E5 key=76 velocity: 100
@15300 Channel: 4 Note on, E5 key=76 velocity: 0
@15300 Channel: 4 Note on, F5 key=77 velocity: 100
@15420 Channel: 4 Note on, F5 key=77 velocity: 0
@15420 Channel: 4 Note on, E5 key=76 velocity: 100
@15600 Channel: 4 Note on, E5 key=76 velocity: 0
@15900 Channel: 4 Note on, D5 key=74 velocity: 100
@15960 Channel: 4 Note on, D5 key=74 velocity: 0
@15960 Channel: 4 Note on, E5 key=76 velocity: 100
@16020 Channel: 4 Note on, E5 key=76 velocity: 0
@16020 Channel: 4 Note on, D5 key=74 velocity: 100
@16080 Channel: 4 Note on, D5 key=74 velocity: 0
@16080 Channel: 4 Note on, E5 key=76 velocity: 100
@16140 Channel: 4 Note on, E5 key=76 velocity: 0
@16140 Channel: 4 Note on, D5 key=74 velocity: 100
@16200 Channel: 4 Note on, D5 key=74 velocity: 0
@16200 Channel: 4 Note on, E5 key=76 velocity: 100
@16260 Channel: 4 Note on, E5 key=76 velocity: 0
@16260 Channel: 4 Note on, G5 key=79 velocity: 100
@16380 Channel: 4 Note on, G5 key=79 velocity: 0
@16380 Channel: 4 Note on, D5 key=74 velocity: 100
@16500 Channel: 4 Note on, D5 key=74 velocity: 0
@16500 Channel: 4 Note on, B4 key=71 velocity: 100
@16560 Channel: 4 Note on, B4 key=71 velocity: 0
@16560 Channel: 4 Note on, A4 key=69 velocity: 100
@16620 Channel: 4 Note on, A4 key=69 velocity: 0
@16620 Channel: 4 Note on, G4 key=67 velocity: 100
@16800 Channel: 4 Note on, G4 key=67 velocity: 0
@16980 Channel: 4 Note on, D5 key=74 velocity: 100
@17040 Channel: 4 Note on, D5 key=74 velocity: 0
@17040 Channel: 4 Note on, D5 key=74 velocity: 100
@17100 Channel: 4 Note on, D5 key=74 velocity: 0
@17100 Channel: 4 Note on, D5 key=74 velocity: 100
@17160 Channel: 4 Note on, D5 key=74 velocity: 0
@17160 Channel: 4 Note on, D5 key=74 velocity: 100
@17220 Channel: 4 Note on, D5 key=74 velocity: 0
@17220 Channel: 4 Note on, E5 key=76 velocity: 100
@17400 Channel: 4 Note on, E5 key=76 velocity: 0
@17940 Channel: 4 Note on, B4 key=71 velocity: 100
@18000 Channel: 4 Note on, B4 key=71 velocity: 0
@18000 Channel: 4 Note on, E5 key=76 velocity: 100
@18060 Channel: 4 Note on, E5 key=76 velocity: 0
@18060 Channel: 4 Note on, D5 key=74 velocity: 100
@18120 Channel: 4 Note on, D5 key=74 velocity: 0
@18120 Channel: 4 Note on, D5 key=74 velocity: 100
@18180 Channel: 4 Note on, D5 key=74 velocity: 0
@18180 Channel: 4 Note on, D5 key=74 velocity: 100
@18300 Channel: 4 Note on, D5 key=74 velocity: 0
@18300 Channel: 4 Note on, C5 key=72 velocity: 100
@18330 Channel: 4 Note on, B4 key=71 velocity: 100
@18360 Channel: 4 Note on, B4 key=71 velocity: 0
@18360 Channel: 4 Note on, C5 key=72 velocity: 0
@18360 Channel: 4 Note on, C5 key=72 velocity: 100
@18720 Channel: 4 Note on, C5 key=72 velocity: 0
@18780 Channel: 4 Note on, A4 key=69 velocity: 100
@18900 Channel: 4 Note on, A4 key=69 velocity: 0
@18900 Channel: 4 Note on, C5 key=72 velocity: 100
@19020 Channel: 4 Note on, C5 key=72 velocity: 0
@19020 Channel: 4 Note on, F5 key=77 velocity: 100
@19140 Channel: 4 Note on, F5 key=77 velocity: 0
@19140 Channel: 4 Note on, E5 key=76 velocity: 100
@19260 Channel: 4 Note on, E5 key=76 velocity: 0
@19260 Channel: 4 Note on, C5 key=72 velocity: 100
@19380 Channel: 4 Note on, C5 key=72 velocity: 0
@19380 Channel: 4 Note on, G4 key=67 velocity: 100
@19470 Channel: 4 Note on, G4 key=67 velocity: 0
@19470 Channel: 4 Note on, F4 key=65 velocity: 100
@19500 Channel: 4 Note on, F4 key=65 velocity: 0
@19500 Channel: 4 Note on, E4 key=64 velocity: 100
@19680 Channel: 4 Note on, E4 key=64 velocity: 0
@19740 Channel: 4 Note on, G4 key=67 velocity: 100
@19860 Channel: 4 Note on, G4 key=67 velocity: 0
@19860 Channel: 4 Note on, C5 key=72 velocity: 100
@19980 Channel: 4 Note on, C5 key=72 velocity: 0
@19980 Channel: 4 Note on, E5 key=76 velocity: 100
@20100 Channel: 4 Note on, E5 key=76 velocity: 0
@20100 Channel: 4 Note on, D5 key=74 velocity: 100
@20220 Channel: 4 Note on, D5 key=74 velocity: 0
@20220 Channel: 4 Note on, B4 key=71 velocity: 100
@20340 Channel: 4 Note on, B4 key=71 velocity: 0
@20340 Channel: 4 Note on, F4 key=65 velocity: 100
@20430 Channel: 4 Note on, F4 key=65 velocity: 0
@20430 Channel: 4 Note on, E4 key=64 velocity: 100
@20460 Channel: 4 Note on, E4 key=64 velocity: 0
@20460 Channel: 4 Note on, D4 key=62 velocity: 100
@20550 Channel: 4 Note on, D4 key=62 velocity: 0
@20880 Channel: 4 Note on, C5 key=72 velocity: 100
@20940 Channel: 4 Note on, C5 key=72 velocity: 0
@20940 Channel: 4 Note on, C5 key=72 velocity: 100
@20970 Channel: 4 Note on, C5 key=72 velocity: 0
@20970 Channel: 4 Note on, C5 key=72 velocity: 100
@21030 Channel: 4 Note on, C5 key=72 velocity: 0
@21030 Channel: 4 Note on, C5 key=72 velocity: 100
@21060 Channel: 4 Note on, C5 key=72 velocity: 0
@21060 Channel: 4 Note on, D5 key=74 velocity: 100
@21120 Channel: 4 Note on, D5 key=74 velocity: 0
@21120 Channel: 4 Note on, C5 key=72 velocity: 100
@21180 Channel: 4 Note on, C5 key=72 velocity: 0
@21180 Channel: 4 Note on, C5 key=72 velocity: 100
@21240 Channel: 4 Note on, C5 key=72 velocity: 0
@21360 Channel: 4 Note on, C5 key=72 velocity: 100
@21420 Channel: 4 Note on, C5 key=72 velocity: 0
@21420 Channel: 4 Note on, A4 key=69 velocity: 100
@21450 Channel: 4 Note on, A4 key=69 velocity: 0
@21450 Channel: 4 Note on, C5 key=72 velocity: 100
@21540 Channel: 4 Note on, C5 key=72 velocity: 0
@21540 Channel: 4 Note on, C5 key=72 velocity: 100
@21600 Channel: 4 Note on, C5 key=72 velocity: 0
@21600 Channel: 4 Note on, G5 key=79 velocity: 100
@21660 Channel: 4 Note on, G5 key=79 velocity: 0
@21660 Channel: 4 Note on, E5 key=76 velocity: 100
@21720 Channel: 4 Note on, E5 key=76 velocity: 0
@21720 Channel: 4 Note on, D5 key=74 velocity: 100
@21780 Channel: 4 Note on, D5 key=74 velocity: 0
@21780 Channel: 4 Note on, C5 key=72 velocity: 100
@22080 Channel: 4 Note on, C5 key=72 velocity: 0
@22080 Channel: 4 Note on, C5 key=72 velocity: 94
@22110 Channel: 4 Note on, C5 key=72 velocity: 0
@22140 Channel: 4 Note on, C5 key=72 velocity: 94
@22170 Channel: 4 Note on, C5 key=72 velocity: 0
@22170 Channel: 4 Note on, C5 key=72 velocity: 94
@22200 Channel: 4 Note on, C5 key=72 velocity: 0
@22230 Channel: 4 Note on, C5 key=72 velocity: 94
@22260 Channel: 4 Note on, C5 key=72 velocity: 0
@22260 Channel: 4 Note on, C5 key=72 velocity: 94
@22290 Channel: 4 Note on, C5 key=72 velocity: 0
@22320 Channel: 4 Note on, B4 key=71 velocity: 94
@22350 Channel: 4 Note on, B4 key=71 velocity: 0
@22380 Channel: 4 Note on, B4 key=71 velocity: 94
@22410 Channel: 4 Note on, B4 key=71 velocity: 0
@22410 Channel: 4 Note on, B4 key=71 velocity: 94
@22440 Channel: 4 Note on, B4 key=71 velocity: 0
@22470 Channel: 4 Note on, B4 key=71 velocity: 94
@22500 Channel: 4 Note on, B4 key=71 velocity: 0
@22500 Channel: 4 Note on, B4 key=71 velocity: 94
@22530 Channel: 4 Note on, B4 key=71 velocity: 0
@22560 Channel: 4 Note on, E5 key=76 velocity: 94
@22590 Channel: 4 Note on, E5 key=76 velocity: 0
@22620 Channel: 4 Note on, E5 key=76 velocity: 94
@22650 Channel: 4 Note on, E5 key=76 velocity: 0
@22650 Channel: 4 Note on, E5 key=76 velocity: 94
@22680 Channel: 4 Note on, E5 key=76 velocity: 0
@22710 Channel: 4 Note on, E5 key=76 velocity: 94
@22740 Channel: 4 Note on, E5 key=76 velocity: 0
@22740 Channel: 4 Note on, E5 key=76 velocity: 94
@22770 Channel: 4 Note on, E5 key=76 velocity: 0
@22800 Channel: 4 Note on, D5 key=74 velocity: 94
@22830 Channel: 4 Note on, D5 key=74 velocity: 0
@22860 Channel: 4 Note on, D5 key=74 velocity: 94
@22890 Channel: 4 Note on, D5 key=74 velocity: 0
@22890 Channel: 4 Note on, D5 key=74 velocity: 94
@22920 Channel: 4 Note on, D5 key=74 velocity: 0
@22950 Channel: 4 Note on, D5 key=74 velocity: 94
@22980 Channel: 4 Note on, D5 key=74 velocity: 0
@22980 Channel: 4 Note on, D5 key=74 velocity: 94
@23010 Channel: 4 Note on, D5 key=74 velocity: 0
@23040 Channel: 4 Note on, C5 key=72 velocity: 94
@23220 Channel: 4 Note on, G4 key=67 velocity: 94
@23222 Channel: 4 Note on, C5 key=72 velocity: 0
@23339 Channel: 4 Note on, G4 key=67 velocity: 0
@23340 Channel: 4 Note on, F4 key=65 velocity: 94
@23400 Channel: 4 Note on, F4 key=65 velocity: 0
@23400 Channel: 4 Note on, E4 key=64 velocity: 94
@23429 Channel: 4 Note on, E4 key=64 velocity: 0
@23430 Channel: 4 Note on, F4 key=65 velocity: 94
@23459 Channel: 4 Note on, F4 key=65 velocity: 0
@23460 Channel: 4 Note on, G4 key=67 velocity: 94
@23562 Channel: 4 Note on, G4 key=67 velocity: 0
@23580 Channel: 4 Note on, G4 key=67 velocity: 94
@23680 Channel: 4 Note on, G4 key=67 velocity: 0
@23700 Channel: 4 Note on, C5 key=72 velocity: 94
@23806 Channel: 4 Note on, C5 key=72 velocity: 0
@23820 Channel: 4 Note on, D5 key=74 velocity: 94
@23931 Channel: 4 Note on, D5 key=74 velocity: 0
@23940 Channel: 4 Note on, B4 key=71 velocity: 94
@24180 Channel: 4 Note on, B4 key=71 velocity: 0
@24180 Channel: 4 Note on, G4 key=67 velocity: 94
@24297 Channel: 4 Note on, G4 key=67 velocity: 0
@24300 Channel: 4 Note on, F4 key=65 velocity: 94
@24360 Channel: 4 Note on, F4 key=65 velocity: 0
@24360 Channel: 4 Note on, E4 key=64 velocity: 94
@24390 Channel: 4 Note on, F4 key=65 velocity: 94
@24391 Channel: 4 Note on, E4 key=64 velocity: 0
@24411 Channel: 4 Note on, F4 key=65 velocity: 0
@24420 Channel: 4 Note on, G4 key=67 velocity: 94
@24498 Channel: 4 Note on, G4 key=67 velocity: 0
@24540 Channel: 4 Note on, G4 key=67 velocity: 94
@24638 Channel: 4 Note on, G4 key=67 velocity: 0
@24660 Channel: 4 Note on, A4 key=69 velocity: 94
@24762 Channel: 4 Note on, A4 key=69 velocity: 0
@24780 Channel: 4 Note on, G4 key=67 velocity: 94
@24878 Channel: 4 Note on, G4 key=67 velocity: 0
@24900 Channel: 4 Note on, G5 key=79 velocity: 94
@25668 Channel: 4 Note on, G5 key=79 velocity: 0
@25680 Channel: 4 Note on, G5 key=79 velocity: 94
@25723 Channel: 4 Note on, G5 key=79 velocity: 0
@25740 Channel: 4 Note on, G5 key=79 velocity: 94
@25761 Channel: 4 Note on, G5 key=79 velocity: 0
@25770 Channel: 4 Note on, G5 key=79 velocity: 94
@25814 Channel: 4 Note on, G5 key=79 velocity: 0
@25830 Channel: 4 Note on, G5 key=79 velocity: 94
@25848 Channel: 4 Note on, G5 key=79 velocity: 0
@25860 Channel: 4 Note on, G5 key=79 velocity: 94
@25916 Channel: 4 Note on, G5 key=79 velocity: 0
@25920 Channel: 4 Note on, A5 key=81 velocity: 94
@25973 Channel: 4 Note on, A5 key=81 velocity: 0
@25980 Channel: 4 Note on, G5 key=79 velocity: 94
@26383 Channel: 4 Note on, G5 key=79 velocity: 0
@26400 Channel: 4 Note on, A5 key=81 velocity: 94
@26460 Channel: 4 Note on, A5 key=81 velocity: 0
@26460 Channel: 4 Note on, G5 key=79 velocity: 94
@26640 Channel: 4 Note on, G5 key=79 velocity: 0
@26640 Channel: 4 Note on, A5 key=81 velocity: 94
@26700 Channel: 4 Note on, A5 key=81 velocity: 0
@26700 Channel: 4 Note on, C6 key=84 velocity: 94
@26794 Channel: 4 Note on, C6 key=84 velocity: 0
@26820 Channel: 4 Note on, C6 key=84 velocity: 94
@27364 Channel: 4 Note on, C6 key=84 velocity: 0
@30300 Channel: 4 Note on, G4 key=67 velocity: 100
@30420 Channel: 4 Note on, G4 key=67 velocity: 0
@30420 Channel: 4 Note on, C5 key=72 velocity: 100
@30540 Channel: 4 Note on, C5 key=72 velocity: 0
@30540 Channel: 4 Note on, F5 key=77 velocity: 100
@30660 Channel: 4 Note on, F5 key=77 velocity: 0
@30660 Channel: 4 Note on, G4 key=67 velocity: 100
@30660 Channel: 4 Note on, E5 key=76 velocity: 100
@30780 Channel: 4 Note on, E5 key=76 velocity: 0
@30780 Channel: 4 Note on, G4 key=67 velocity: 0
@30780 Channel: 4 Note on, C5 key=72 velocity: 100
@30900 Channel: 4 Note on, C5 key=72 velocity: 0
@30900 Channel: 4 Note on, G4 key=67 velocity: 100
@30990 Channel: 4 Note on, G4 key=67 velocity: 0
@30990 Channel: 4 Note on, F4 key=65 velocity: 100
@31020 Channel: 4 Note on, F4 key=65 velocity: 0
@31020 Channel: 4 Note on, E4 key=64 velocity: 100
@31200 Channel: 4 Note on, E4 key=64 velocity: 0
@31260 Channel: 4 Note on, G4 key=67 velocity: 100
@31380 Channel: 4 Note on, G4 key=67 velocity: 0
@31380 Channel: 4 Note on, C5 key=72 velocity: 100
@31500 Channel: 4 Note on, C5 key=72 velocity: 0
@31500 Channel: 4 Note on, E5 key=76 velocity: 100
@31620 Channel: 4 Note on, E5 key=76 velocity: 0
@31620 Channel: 4 Note on, D5 key=74 velocity: 100
@31740 Channel: 4 Note on, D5 key=74 velocity: 0
@31740 Channel: 4 Note on, B4 key=71 velocity: 100
@31860 Channel: 4 Note on, B4 key=71 velocity: 0
@31860 Channel: 4 Note on, F4 key=65 velocity: 100
@31950 Channel: 4 Note on, F4 key=65 velocity: 0
@31950 Channel: 4 Note on, E4 key=64 velocity: 100
@31980 Channel: 4 Note on, E4 key=64 velocity: 0
@31980 Channel: 4 Note on, D4 key=62 velocity: 100
@32070 Channel: 4 Note on, D4 key=62 velocity: 0
@32400 Channel: 4 Note on, C5 key=72 velocity: 100
@32460 Channel: 4 Note on, C5 key=72 velocity: 0
@32460 Channel: 4 Note on, C5 key=72 velocity: 100
@32490 Channel: 4 Note on, C5 key=72 velocity: 0
@32490 Channel: 4 Note on, C5 key=72 velocity: 100
@32550 Channel: 4 Note on, C5 key=72 velocity: 0
@32550 Channel: 4 Note on, C5 key=72 velocity: 100
@32580 Channel: 4 Note on, C5 key=72 velocity: 0
@32580 Channel: 4 Note on, D5 key=74 velocity: 100
@32640 Channel: 4 Note on, D5 key=74 velocity: 0
@32640 Channel: 4 Note on, C5 key=72 velocity: 100
@32700 Channel: 4 Note on, C5 key=72 velocity: 0
@32700 Channel: 4 Note on, C5 key=72 velocity: 100
@32760 Channel: 4 Note on, C5 key=72 velocity: 0
@32880 Channel: 4 Note on, C5 key=72 velocity: 100
@32940 Channel: 4 Note on, C5 key=72 velocity: 0
@32940 Channel: 4 Note on, A4 key=69 velocity: 100
@32970 Channel: 4 Note on, A4 key=69 velocity: 0
@32970 Channel: 4 Note on, C5 key=72 velocity: 100
@33060 Channel: 4 Note on, C5 key=72 velocity: 0
@33060 Channel: 4 Note on, C5 key=72 velocity: 100
@33120 Channel: 4 Note on, C5 key=72 velocity: 0
@33120 Channel: 4 Note on, G5 key=79 velocity: 100
@33180 Channel: 4 Note on, G5 key=79 velocity: 0
@33180 Channel: 4 Note on, E5 key=76 velocity: 100
@33240 Channel: 4 Note on, E5 key=76 velocity: 0
@33240 Channel: 4 Note on, D5 key=74 velocity: 100
@33300 Channel: 4 Note on, D5 key=74 velocity: 0
@33300 Channel: 4 Note on, C5 key=72 velocity: 100
@33600 Channel: 4 Note on, C5 key=72 velocity: 0
@33600 Channel: 4 Note on, C5 key=72 velocity: 94
@33630 Channel: 4 Note on, C5 key=72 velocity: 0
@33660 Channel: 4 Note on, C5 key=72 velocity: 94
@33690 Channel: 4 Note on, C5 key=72 velocity: 0
@33690 Channel: 4 Note on, C5 key=72 velocity: 94
@33720 Channel: 4 Note on, C5 key=72 velocity: 0
@33750 Channel: 4 Note on, C5 key=72 velocity: 94
@33780 Channel: 4 Note on, C5 key=72 velocity: 0
@33780 Channel: 4 Note on, C5 key=72 velocity: 94
@33810 Channel: 4 Note on, C5 key=72 velocity: 0
@33840 Channel: 4 Note on, B4 key=71 velocity: 94
@33870 Channel: 4 Note on, B4 key=71 velocity: 0
@33900 Channel: 4 Note on, B4 key=71 velocity: 94
@33930 Channel: 4 Note on, B4 key=71 velocity: 0
@33930 Channel: 4 Note on, B4 key=71 velocity: 94
@33960 Channel: 4 Note on, B4 key=71 velocity: 0
@33990 Channel: 4 Note on, B4 key=71 velocity: 94
@34020 Channel: 4 Note on, B4 key=71 velocity: 0
@34020 Channel: 4 Note on, B4 key=71 velocity: 94
@34050 Channel: 4 Note on, B4 key=71 velocity: 0
@34080 Channel: 4 Note on, E5 key=76 velocity: 94
@34110 Channel: 4 Note on, E5 key=76 velocity: 0
@34140 Channel: 4 Note on, E5 key=76 velocity: 94
@34170 Channel: 4 Note on, E5 key=76 velocity: 0
@34170 Channel: 4 Note on, E5 key=76 velocity: 94
@34200 Channel: 4 Note on, E5 key=76 velocity: 0
@34230 Channel: 4 Note on, E5 key=76 velocity: 94
@34260 Channel: 4 Note on, E5 key=76 velocity: 0
@34260 Channel: 4 Note on, E5 key=76 velocity: 94
@34290 Channel: 4 Note on, E5 key=76 velocity: 0
@34320 Channel: 4 Note on, D5 key=74 velocity: 94
@34350 Channel: 4 Note on, D5 key=74 velocity: 0
@34380 Channel: 4 Note on, D5 key=74 velocity: 94
@34410 Channel: 4 Note on, D5 key=74 velocity: 0
@34410 Channel: 4 Note on, D5 key=74 velocity: 94
@34440 Channel: 4 Note on, D5 key=74 velocity: 0
@34470 Channel: 4 Note on, D5 key=74 velocity: 94
@34500 Channel: 4 Note on, D5 key=74 velocity: 0
@34500 Channel: 4 Note on, D5 key=74 velocity: 94
@34530 Channel: 4 Note on, D5 key=74 velocity: 0
@34560 Channel: 4 Note on, C5 key=72 velocity: 94
@34740 Channel: 4 Note on, G4 key=67 velocity: 94
@34742 Channel: 4 Note on, C5 key=72 velocity: 0
@34859 Channel: 4 Note on, G4 key=67 velocity: 0
@34860 Channel: 4 Note on, F4 key=65 velocity: 94
@34920 Channel: 4 Note on, F4 key=65 velocity: 0
@34920 Channel: 4 Note on, E4 key=64 velocity: 94
@34949 Channel: 4 Note on, E4 key=64 velocity: 0
@34950 Channel: 4 Note on, F4 key=65 velocity: 94
@34979 Channel: 4 Note on, F4 key=65 velocity: 0
@34980 Channel: 4 Note on, G4 key=67 velocity: 94
@35082 Channel: 4 Note on, G4 key=67 velocity: 0
@35100 Channel: 4 Note on, G4 key=67 velocity: 94
@35200 Channel: 4 Note on, G4 key=67 velocity: 0
@35220 Channel: 4 Note on, C5 key=72 velocity: 94
@35326 Channel: 4 Note on, C5 key=72 velocity: 0
@35340 Channel: 4 Note on, D5 key=74 velocity: 94
@35451 Channel: 4 Note on, D5 key=74 velocity: 0
@35460 Channel: 4 Note on, B4 key=71 velocity: 94
@35700 Channel: 4 Note on, B4 key=71 velocity: 0
@35700 Channel: 4 Note on, G4 key=67 velocity: 94
@35817 Channel: 4 Note on, G4 key=67 velocity: 0
@35820 Channel: 4 Note on, F4 key=65 velocity: 94
@35880 Channel: 4 Note on, F4 key=65 velocity: 0
@35880 Channel: 4 Note on, E4 key=64 velocity: 94
@35910 Channel: 4 Note on, F4 key=65 velocity: 94
@35911 Channel: 4 Note on, E4 key=64 velocity: 0
@35931 Channel: 4 Note on, F4 key=65 velocity: 0
@35940 Channel: 4 Note on, G4 key=67 velocity: 94
@36018 Channel: 4 Note on, G4 key=67 velocity: 0
@36060 Channel: 4 Note on, G4 key=67 velocity: 94
@36158 Channel: 4 Note on, G4 key=67 velocity: 0
@36180 Channel: 4 Note on, A4 key=69 velocity: 94
@36282 Channel: 4 Note on, A4 key=69 velocity: 0
@36300 Channel: 4 Note on, G4 key=67 velocity: 94
@36398 Channel: 4 Note on, G4 key=67 velocity: 0
@36420 Channel: 4 Note on, G5 key=79 velocity: 94
@37188 Channel: 4 Note on, G5 key=79 velocity: 0
@37200 Channel: 4 Note on, G5 key=79 velocity: 94
@37243 Channel: 4 Note on, G5 key=79 velocity: 0
@37260 Channel: 4 Note on, G5 key=79 velocity: 94
@37281 Channel: 4 Note on, G5 key=79 velocity: 0
@37290 Channel: 4 Note on, G5 key=79 velocity: 94
@37334 Channel: 4 Note on, G5 key=79 velocity: 0
@37350 Channel: 4 Note on, G5 key=79 velocity: 94
@37368 Channel: 4 Note on, G5 key=79 velocity: 0
@37380 Channel: 4 Note on, G5 key=79 velocity: 94
@37436 Channel: 4 Note on, G5 key=79 velocity: 0
@37440 Channel: 4 Note on, A5 key=81 velocity: 94
@37493 Channel: 4 Note on, A5 key=81 velocity: 0
@37500 Channel: 4 Note on, G5 key=79 velocity: 94
@37903 Channel: 4 Note on, G5 key=79 velocity: 0
@37920 Channel: 4 Note on, A5 key=81 velocity: 94
@37980 Channel: 4 Note on, A5 key=81 velocity: 0
@37980 Channel: 4 Note on, G5 key=79 velocity: 94
@38160 Channel: 4 Note on, G5 key=79 velocity: 0
@38160 Channel: 4 Note on, A5 key=81 velocity: 94
@38220 Channel: 4 Note on, A5 key=81 velocity: 0
@38220 Channel: 4 Note on, C6 key=84 velocity: 94
@38314 Channel: 4 Note on, C6 key=84 velocity: 0
@38340 Channel: 4 Note on, C5 key=72 velocity: 94
@38340 Channel: 4 Note on, C6 key=84 velocity: 94
@38580 Channel: 4 Note on, C5 key=72 velocity: 0
@38580 Channel: 4 Note on, G4 key=67 velocity: 94
@38699 Channel: 4 Note on, G4 key=67 velocity: 0
@38700 Channel: 4 Note on, C6 key=84 velocity: 0
@38700 Channel: 4 Note on, F4 key=65 velocity: 94
@38760 Channel: 4 Note on, F4 key=65 velocity: 0
@38760 Channel: 4 Note on, E4 key=64 velocity: 94
@38789 Channel: 4 Note on, E4 key=64 velocity: 0
@38790 Channel: 4 Note on, F4 key=65 velocity: 94
@38819 Channel: 4 Note on, F4 key=65 velocity: 0
@38820 Channel: 4 Note on, G4 key=67 velocity: 94
@38922 Channel: 4 Note on, G4 key=67 velocity: 0
@38940 Channel: 4 Note on, G4 key=67 velocity: 94
@39040 Channel: 4 Note on, G4 key=67 velocity: 0
@39060 Channel: 4 Note on, C5 key=72 velocity: 94
@39166 Channel: 4 Note on, C5 key=72 velocity: 0
@39180 Channel: 4 Note on, D5 key=74 velocity: 94
@39291 Channel: 4 Note on, D5 key=74 velocity: 0
@39300 Channel: 4 Note on, B4 key=71 velocity: 94
@39540 Channel: 4 Note on, B4 key=71 velocity: 0
@39540 Channel: 4 Note on, G4 key=67 velocity: 94
@39657 Channel: 4 Note on, G4 key=67 velocity: 0
@39660 Channel: 4 Note on, F4 key=65 velocity: 94
@39720 Channel: 4 Note on, F4 key=65 velocity: 0
@39720 Channel: 4 Note on, E4 key=64 velocity: 94
@39750 Channel: 4 Note on, F4 key=65 velocity: 94
@39751 Channel: 4 Note on, E4 key=64 velocity: 0
@39771 Channel: 4 Note on, F4 key=65 velocity: 0
@39780 Channel: 4 Note on, G4 key=67 velocity: 94
@39858 Channel: 4 Note on, G4 key=67 velocity: 0
@39900 Channel: 4 Note on, G4 key=67 velocity: 94
@39998 Channel: 4 Note on, G4 key=67 velocity: 0
@40020 Channel: 4 Note on, A4 key=69 velocity: 94
@40122 Channel: 4 Note on, A4 key=69 velocity: 0
@40140 Channel: 4 Note on, G4 key=67 velocity: 94
@40238 Channel: 4 Note on, G4 key=67 velocity: 0
@40260 Channel: 4 Note on, G5 key=79 velocity: 94
@41028 Channel: 4 Note on, G5 key=79 velocity: 0
@41040 Channel: 4 Note on, G5 key=79 velocity: 94
@41083 Channel: 4 Note on, G5 key=79 velocity: 0
@41100 Channel: 4 Note on, G5 key=79 velocity: 94
@41121 Channel: 4 Note on, G5 key=79 velocity: 0
@41130 Channel: 4 Note on, G5 key=79 velocity: 94
@41174 Channel: 4 Note on, G5 key=79 velocity: 0
@41190 Channel: 4 Note on, G5 key=79 velocity: 94
@41208 Channel: 4 Note on, G5 key=79 velocity: 0
@41220 Channel: 4 Note on, G5 key=79 velocity: 94
@41276 Channel: 4 Note on, G5 key=79 velocity: 0
@41280 Channel: 4 Note on, A5 key=81 velocity: 94
@41333 Channel: 4 Note on, A5 key=81 velocity: 0
@41340 Channel: 4 Note on, G5 key=79 velocity: 94
@41743 Channel: 4 Note on, G5 key=79 velocity: 0
@41760 Channel: 4 Note on, A5 key=81 velocity: 94
@41820 Channel: 4 Note on, A5 key=81 velocity: 0
@41820 Channel: 4 Note on, G5 key=79 velocity: 94
@42000 Channel: 4 Note on, G5 key=79 velocity: 0
@42000 Channel: 4 Note on, A5 key=81 velocity: 94
@42060 Channel: 4 Note on, A5 key=81 velocity: 0
@42060 Channel: 4 Note on, C6 key=84 velocity: 94
@42154 Channel: 4 Note on, C6 key=84 velocity: 0
@42180 Channel: 4 Note on, C6 key=84 velocity: 94
@42660 Channel: 4 Note on, C6 key=84 velocity: 0
@42660 Other message: class javax.sound.midi.Track$ImmutableEndOfTrack

Track 13: size = 1044

@0 Other message: class javax.sound.midi.MetaMessage
@0 Other message: class javax.sound.midi.MetaMessage
@0 Channel: 5 Command:192
@0 Channel: 5 Command:176
@0 Channel: 5 Command:176
@70 Channel: 5 Command:176
@70 Channel: 5 Command:176
@9600 Channel: 5 Note on, C4 key=60 velocity: 100
@9660 Channel: 5 Note on, C4 key=60 velocity: 0
@9660 Channel: 5 Note on, G4 key=67 velocity: 108
@9720 Channel: 5 Note on, G4 key=67 velocity: 0
@9720 Channel: 5 Note on, E5 key=76 velocity: 108
@9776 Channel: 5 Note on, E5 key=76 velocity: 0
@9780 Channel: 5 Note on, G4 key=67 velocity: 108
@9840 Channel: 5 Note on, D5 key=74 velocity: 108
@9848 Channel: 5 Note on, G4 key=67 velocity: 0
@9898 Channel: 5 Note on, D5 key=74 velocity: 0
@9900 Channel: 5 Note on, C5 key=72 velocity: 108
@9958 Channel: 5 Note on, C5 key=72 velocity: 0
@9960 Channel: 5 Note on, G4 key=67 velocity: 108
@10020 Channel: 5 Note on, C4 key=60 velocity: 108
@10022 Channel: 5 Note on, G4 key=67 velocity: 0
@10086 Channel: 5 Note on, C4 key=60 velocity: 0
@10140 Channel: 5 Note on, G4 key=67 velocity: 108
@10200 Channel: 5 Note on, E5 key=76 velocity: 108
@10202 Channel: 5 Note on, G4 key=67 velocity: 0
@10258 Channel: 5 Note on, E5 key=76 velocity: 0
@10260 Channel: 5 Note on, G4 key=67 velocity: 108
@10320 Channel: 5 Note on, D5 key=74 velocity: 108
@10322 Channel: 5 Note on, G4 key=67 velocity: 0
@10380 Channel: 5 Note on, D5 key=74 velocity: 0
@10380 Channel: 5 Note on, C5 key=72 velocity: 108
@10439 Channel: 5 Note on, C5 key=72 velocity: 0
@10440 Channel: 5 Note on, G4 key=67 velocity: 108
@10500 Channel: 5 Note on, G4 key=67 velocity: 0
@10500 Channel: 5 Note on, C5 key=72 velocity: 108
@10560 Channel: 5 Note on, A3 key=57 velocity: 108
@10566 Channel: 5 Note on, C5 key=72 velocity: 0
@10620 Channel: 5 Note on, E4 key=64 velocity: 108
@10668 Channel: 5 Note on, A3 key=57 velocity: 0
@10672 Channel: 5 Note on, E4 key=64 velocity: 0
@10680 Channel: 5 Note on, E5 key=76 velocity: 108
@10740 Channel: 5 Note on, E5 key=76 velocity: 0
@10740 Channel: 5 Note on, E4 key=64 velocity: 108
@10800 Channel: 5 Note on, D5 key=74 velocity: 108
@10802 Channel: 5 Note on, E4 key=64 velocity: 0
@10857 Channel: 5 Note on, D5 key=74 velocity: 0
@10860 Channel: 5 Note on, C5 key=72 velocity: 108
@10920 Channel: 5 Note on, A4 key=69 velocity: 108
@10921 Channel: 5 Note on, C5 key=72 velocity: 0
@10980 Channel: 5 Note on, A3 key=57 velocity: 108
@10982 Channel: 5 Note on, A4 key=69 velocity: 0
@11038 Channel: 5 Note on, A3 key=57 velocity: 0
@11100 Channel: 5 Note on, E4 key=64 velocity: 108
@11160 Channel: 5 Note on, E5 key=76 velocity: 108
@11164 Channel: 5 Note on, E4 key=64 velocity: 0
@11214 Channel: 5 Note on, E5 key=76 velocity: 0
@11220 Channel: 5 Note on, E4 key=64 velocity: 108
@11280 Channel: 5 Note on, D5 key=74 velocity: 108
@11288 Channel: 5 Note on, E4 key=64 velocity: 0
@11340 Channel: 5 Note on, C5 key=72 velocity: 108
@11344 Channel: 5 Note on, D5 key=74 velocity: 0
@11398 Channel: 5 Note on, C5 key=72 velocity: 0
@11400 Channel: 5 Note on, E4 key=64 velocity: 108
@11460 Channel: 5 Note on, C5 key=72 velocity: 108
@11462 Channel: 5 Note on, E4 key=64 velocity: 0
@11516 Channel: 5 Note on, C5 key=72 velocity: 0
@11520 Channel: 5 Note on, C4 key=60 velocity: 108
@11580 Channel: 5 Note on, F4 key=65 velocity: 108
@11588 Channel: 5 Note on, C4 key=60 velocity: 0
@11640 Channel: 5 Note on, F4 key=65 velocity: 0
@11640 Channel: 5 Note on, E5 key=76 velocity: 108
@11697 Channel: 5 Note on, E5 key=76 velocity: 0
@11700 Channel: 5 Note on, F4 key=65 velocity: 108
@11760 Channel: 5 Note on, D5 key=74 velocity: 108
@11773 Channel: 5 Note on, F4 key=65 velocity: 0
@11820 Channel: 5 Note on, D5 key=74 velocity: 0
@11820 Channel: 5 Note on, C5 key=72 velocity: 108
@11880 Channel: 5 Note on, F4 key=65 velocity: 108
@11882 Channel: 5 Note on, C5 key=72 velocity: 0
@11940 Channel: 5 Note on, F4 key=65 velocity: 0
@11940 Channel: 5 Note on, C4 key=60 velocity: 108
@12006 Channel: 5 Note on, C4 key=60 velocity: 0
@12060 Channel: 5 Note on, F4 key=65 velocity: 108
@12120 Channel: 5 Note on, F4 key=65 velocity: 0
@12120 Channel: 5 Note on, E5 key=76 velocity: 108
@12179 Channel: 5 Note on, E5 key=76 velocity: 0
@12180 Channel: 5 Note on, F4 key=65 velocity: 108
@12240 Channel: 5 Note on, D5 key=74 velocity: 108
@12246 Channel: 5 Note on, F4 key=65 velocity: 0
@12300 Channel: 5 Note on, D5 key=74 velocity: 0
@12300 Channel: 5 Note on, C5 key=72 velocity: 108
@12352 Channel: 5 Note on, C5 key=72 velocity: 0
@12360 Channel: 5 Note on, F4 key=65 velocity: 108
@12420 Channel: 5 Note on, C5 key=72 velocity: 108
@12424 Channel: 5 Note on, F4 key=65 velocity: 0
@12480 Channel: 5 Note on, C5 key=72 velocity: 0
@12480 Channel: 5 Note on, B3 key=59 velocity: 108
@12540 Channel: 5 Note on, E4 key=64 velocity: 108
@12546 Channel: 5 Note on, B3 key=59 velocity: 0
@12595 Channel: 5 Note on, E4 key=64 velocity: 0
@12600 Channel: 5 Note on, E5 key=76 velocity: 108
@12650 Channel: 5 Note on, E5 key=76 velocity: 0
@12660 Channel: 5 Note on, E4 key=64 velocity: 108
@12720 Channel: 5 Note on, E4 key=64 velocity: 0
@12720 Channel: 5 Note on, D5 key=74 velocity: 108
@12774 Channel: 5 Note on, D5 key=74 velocity: 0
@12780 Channel: 5 Note on, C5 key=72 velocity: 108
@12836 Channel: 5 Note on, C5 key=72 velocity: 0
@12840 Channel: 5 Note on, E4 key=64 velocity: 108
@12900 Channel: 5 Note on, C5 key=72 velocity: 108
@12904 Channel: 5 Note on, E4 key=64 velocity: 0
@12959 Channel: 5 Note on, C5 key=72 velocity: 0
@12960 Channel: 5 Note on, C4 key=60 velocity: 108
@13010 Channel: 5 Note on, C4 key=60 velocity: 0
@13020 Channel: 5 Note on, F4 key=65 velocity: 108
@13078 Channel: 5 Note on, F4 key=65 velocity: 0
@13080 Channel: 5 Note on, E5 key=76 velocity: 108
@13138 Channel: 5 Note on, E5 key=76 velocity: 0
@13140 Channel: 5 Note on, F4 key=65 velocity: 108
@13200 Channel: 5 Note on, D5 key=74 velocity: 108
@13202 Channel: 5 Note on, F4 key=65 velocity: 0
@13260 Channel: 5 Note on, D5 key=74 velocity: 0
@13260 Channel: 5 Note on, C5 key=72 velocity: 108
@13315 Channel: 5 Note on, C5 key=72 velocity: 0
@13320 Channel: 5 Note on, G4 key=67 velocity: 108
@13378 Channel: 5 Note on, G4 key=67 velocity: 0
@13380 Channel: 5 Note on, C5 key=72 velocity: 108
@13440 Channel: 5 Note on, C4 key=60 velocity: 108
@13444 Channel: 5 Note on, C5 key=72 velocity: 0
@13500 Channel: 5 Note on, C4 key=60 velocity: 0
@13500 Channel: 5 Note on, G4 key=67 velocity: 108
@13558 Channel: 5 Note on, G4 key=67 velocity: 0
@13560 Channel: 5 Note on, E5 key=76 velocity: 108
@13620 Channel: 5 Note on, E5 key=76 velocity: 0
@13620 Channel: 5 Note on, G4 key=67 velocity: 108
@13680 Channel: 5 Note on, D5 key=74 velocity: 108
@13682 Channel: 5 Note on, G4 key=67 velocity: 0
@13738 Channel: 5 Note on, D5 key=74 velocity: 0
@13740 Channel: 5 Note on, C5 key=72 velocity: 108
@13800 Channel: 5 Note on, G4 key=67 velocity: 108
@13804 Channel: 5 Note on, C5 key=72 velocity: 0
@13857 Channel: 5 Note on, G4 key=67 velocity: 0
@13860 Channel: 5 Note on, C4 key=60 velocity: 108
@13914 Channel: 5 Note on, C4 key=60 velocity: 0
@13980 Channel: 5 Note on, G4 key=67 velocity: 108
@14032 Channel: 5 Note on, G4 key=67 velocity: 0
@14040 Channel: 5 Note on, E5 key=76 velocity: 108
@14098 Channel: 5 Note on, E5 key=76 velocity: 0
@14100 Channel: 5 Note on, G4 key=67 velocity: 108
@14160 Channel: 5 Note on, D5 key=74 velocity: 108
@14162 Channel: 5 Note on, G4 key=67 velocity: 0
@14219 Channel: 5 Note on, D5 key=74 velocity: 0
@14220 Channel: 5 Note on, C5 key=72 velocity: 108
@14278 Channel: 5 Note on, C5 key=72 velocity: 0
@14280 Channel: 5 Note on, G4 key=67 velocity: 108
@14340 Channel: 5 Note on, C5 key=72 velocity: 108
@14344 Channel: 5 Note on, G4 key=67 velocity: 0
@14392 Channel: 5 Note on, C5 key=72 velocity: 0
@14400 Channel: 5 Note on, C4 key=60 velocity: 108
@14460 Channel: 5 Note on, C4 key=60 velocity: 0
@14460 Channel: 5 Note on, G4 key=67 velocity: 108
@14518 Channel: 5 Note on, G4 key=67 velocity: 0
@14520 Channel: 5 Note on, E5 key=76 velocity: 108
@14580 Channel: 5 Note on, E5 key=76 velocity: 0
@14580 Channel: 5 Note on, G4 key=67 velocity: 108
@14640 Channel: 5 Note on, D5 key=74 velocity: 108
@14644 Channel: 5 Note on, G4 key=67 velocity: 0
@14691 Channel: 5 Note on, D5 key=74 velocity: 0
@14700 Channel: 5 Note on, C5 key=72 velocity: 108
@14760 Channel: 5 Note on, C5 key=72 velocity: 0
@14760 Channel: 5 Note on, G4 key=67 velocity: 108
@14820 Channel: 5 Note on, G4 key=67 velocity: 0
@14820 Channel: 5 Note on, C4 key=60 velocity: 108
@14874 Channel: 5 Note on, C4 key=60 velocity: 0
@14940 Channel: 5 Note on, G4 key=67 velocity: 108
@15000 Channel: 5 Note on, E5 key=76 velocity: 108
@15001 Channel: 5 Note on, G4 key=67 velocity: 0
@15057 Channel: 5 Note on, E5 key=76 velocity: 0
@15060 Channel: 5 Note on, G4 key=67 velocity: 108
@15120 Channel: 5 Note on, G4 key=67 velocity: 0
@15120 Channel: 5 Note on, D5 key=74 velocity: 108
@15180 Channel: 5 Note on, D5 key=74 velocity: 0
@15180 Channel: 5 Note on, C5 key=72 velocity: 108
@15234 Channel: 5 Note on, C5 key=72 velocity: 0
@15240 Channel: 5 Note on, G4 key=67 velocity: 108
@15300 Channel: 5 Note on, C5 key=72 velocity: 108
@15310 Channel: 5 Note on, G4 key=67 velocity: 0
@15339 Channel: 5 Note on, C5 key=72 velocity: 0
@15360 Channel: 5 Note on, C4 key=60 velocity: 100
@15420 Channel: 5 Note on, C4 key=60 velocity: 0
@15420 Channel: 5 Note on, G4 key=67 velocity: 108
@15480 Channel: 5 Note on, G4 key=67 velocity: 0
@15480 Channel: 5 Note on, E5 key=76 velocity: 108
@15536 Channel: 5 Note on, E5 key=76 velocity: 0
@15540 Channel: 5 Note on, G4 key=67 velocity: 108
@15600 Channel: 5 Note on, D5 key=74 velocity: 108
@15608 Channel: 5 Note on, G4 key=67 velocity: 0
@15658 Channel: 5 Note on, D5 key=74 velocity: 0
@15660 Channel: 5 Note on, C5 key=72 velocity: 108
@15718 Channel: 5 Note on, C5 key=72 velocity: 0
@15720 Channel: 5 Note on, G4 key=67 velocity: 108
@15780 Channel: 5 Note on, C4 key=60 velocity: 108
@15782 Channel: 5 Note on, G4 key=67 velocity: 0
@15846 Channel: 5 Note on, C4 key=60 velocity: 0
@15900 Channel: 5 Note on, G4 key=67 velocity: 108
@15960 Channel: 5 Note on, E5 key=76 velocity: 108
@15962 Channel: 5 Note on, G4 key=67 velocity: 0
@16018 Channel: 5 Note on, E5 key=76 velocity: 0
@16020 Channel: 5 Note on, G4 key=67 velocity: 108
@16080 Channel: 5 Note on, D5 key=74 velocity: 108
@16082 Channel: 5 Note on, G4 key=67 velocity: 0
@16140 Channel: 5 Note on, D5 key=74 velocity: 0
@16140 Channel: 5 Note on, C5 key=72 velocity: 108
@16199 Channel: 5 Note on, C5 key=72 velocity: 0
@16200 Channel: 5 Note on, G4 key=67 velocity: 108
@16260 Channel: 5 Note on, G4 key=67 velocity: 0
@16260 Channel: 5 Note on, C5 key=72 velocity: 108
@16319 Channel: 5 Note on, D4 key=62 velocity: 109
@16326 Channel: 5 Note on, C5 key=72 velocity: 0
@16380 Channel: 5 Note on, G4 key=67 velocity: 107
@16391 Channel: 5 Note on, D4 key=62 velocity: 0
@16429 Channel: 5 Note on, G4 key=67 velocity: 0
@16440 Channel: 5 Note on, D5 key=74 velocity: 107
@16495 Channel: 5 Note on, D5 key=74 velocity: 0
@16500 Channel: 5 Note on, G4 key=67 velocity: 107
@16560 Channel: 5 Note on, C5 key=72 velocity: 107
@16571 Channel: 5 Note on, G4 key=67 velocity: 0
@16606 Channel: 5 Note on, C5 key=72 velocity: 0
@16620 Channel: 5 Note on, B4 key=71 velocity: 107
@16677 Channel: 5 Note on, B4 key=71 velocity: 0
@16680 Channel: 5 Note on, G4 key=67 velocity: 107
@16737 Channel: 5 Note on, G4 key=67 velocity: 0
@16740 Channel: 5 Note on, D4 key=62 velocity: 107
@16797 Channel: 5 Note on, D4 key=62 velocity: 0
@16860 Channel: 5 Note on, D4 key=62 velocity: 108
@16917 Channel: 5 Note on, D4 key=62 velocity: 0
@16920 Channel: 5 Note on, D5 key=74 velocity: 108
@16980 Channel: 5 Note on, G4 key=67 velocity: 108
@16982 Channel: 5 Note on, D5 key=74 velocity: 0
@17039 Channel: 5 Note on, G4 key=67 velocity: 0
@17040 Channel: 5 Note on, C5 key=72 velocity: 108
@17100 Channel: 5 Note on, B4 key=71 velocity: 108
@17111 Channel: 5 Note on, C5 key=72 velocity: 0
@17150 Channel: 5 Note on, B4 key=71 velocity: 0
@17160 Channel: 5 Note on, G4 key=67 velocity: 108
@17220 Channel: 5 Note on, G4 key=67 velocity: 0
@17220 Channel: 5 Note on, B4 key=71 velocity: 108
@17255 Channel: 5 Note on, B4 key=71 velocity: 0
@17278 Channel: 5 Note on, B3 key=59 velocity: 108
@17340 Channel: 5 Note on, B3 key=59 velocity: 0
@17340 Channel: 5 Note on, E4 key=64 velocity: 108
@17400 Channel: 5 Note on, B4 key=71 velocity: 109
@17401 Channel: 5 Note on, E4 key=64 velocity: 0
@17460 Channel: 5 Note on, B4 key=71 velocity: 0
@17460 Channel: 5 Note on, E4 key=64 velocity: 109
@17519 Channel: 5 Note on, E4 key=64 velocity: 0
@17520 Channel: 5 Note on, A4 key=69 velocity: 109
@17577 Channel: 5 Note on, A4 key=69 velocity: 0
@17580 Channel: 5 Note on, G#4 key=68 velocity: 109
@17638 Channel: 5 Note on, G#4 key=68 velocity: 0
@17640 Channel: 5 Note on, E4 key=64 velocity: 109
@17700 Channel: 5 Note on, B3 key=59 velocity: 109
@17702 Channel: 5 Note on, E4 key=64 velocity: 0
@17759 Channel: 5 Note on, B3 key=59 velocity: 0
@17820 Channel: 5 Note on, E4 key=64 velocity: 108
@17879 Channel: 5 Note on, E4 key=64 velocity: 0
@17880 Channel: 5 Note on, B4 key=71 velocity: 108
@17940 Channel: 5 Note on, E4 key=64 velocity: 108
@17946 Channel: 5 Note on, B4 key=71 velocity: 0
@18000 Channel: 5 Note on, E4 key=64 velocity: 0
@18000 Channel: 5 Note on, A4 key=69 velocity: 107
@18060 Channel: 5 Note on, G#4 key=68 velocity: 107
@18061 Channel: 5 Note on, A4 key=69 velocity: 0
@18118 Channel: 5 Note on, G#4 key=68 velocity: 0
@18120 Channel: 5 Note on, E4 key=64 velocity: 106
@18177 Channel: 5 Note on, E4 key=64 velocity: 0
@18180 Channel: 5 Note on, G#4 key=68 velocity: 106
@18220 Channel: 5 Note on, G#4 key=68 velocity: 0
@18239 Channel: 5 Note on, C4 key=60 velocity: 106
@18296 Channel: 5 Note on, C4 key=60 velocity: 0
@18300 Channel: 5 Note on, F4 key=65 velocity: 106
@18359 Channel: 5 Note on, F4 key=65 velocity: 0
@18360 Channel: 5 Note on, C5 key=72 velocity: 106
@18419 Channel: 5 Note on, C5 key=72 velocity: 0
@18420 Channel: 5 Note on, F4 key=65 velocity: 106
@18480 Channel: 5 Note on, A#4 key=70 velocity: 106
@18482 Channel: 5 Note on, F4 key=65 velocity: 0
@18540 Channel: 5 Note on, A4 key=69 velocity: 106
@18550 Channel: 5 Note on, A#4 key=70 velocity: 0
@18589 Channel: 5 Note on, A4 key=69 velocity: 0
@18600 Channel: 5 Note on, F4 key=65 velocity: 106
@18657 Channel: 5 Note on, F4 key=65 velocity: 0
@18660 Channel: 5 Note on, C4 key=60 velocity: 106
@18772 Channel: 5 Note on, C4 key=60 velocity: 0
@18780 Channel: 5 Note on, F4 key=65 velocity: 106
@18840 Channel: 5 Note on, C5 key=72 velocity: 107
@18842 Channel: 5 Note on, F4 key=65 velocity: 0
@18897 Channel: 5 Note on, C5 key=72 velocity: 0
@18900 Channel: 5 Note on, F4 key=65 velocity: 107
@18960 Channel: 5 Note on, A#4 key=70 velocity: 108
@18964 Channel: 5 Note on, F4 key=65 velocity: 0
@19019 Channel: 5 Note on, A#4 key=70 velocity: 0
@19020 Channel: 5 Note on, A4 key=69 velocity: 108
@19080 Channel: 5 Note on, F4 key=65 velocity: 108
@19082 Channel: 5 Note on, A4 key=69 velocity: 0
@19139 Channel: 5 Note on, F4 key=65 velocity: 0
@19140 Channel: 5 Note on, A4 key=69 velocity: 108
@19182 Channel: 5 Note on, A4 key=69 velocity: 0
@19200 Channel: 5 Note on, C4 key=60 velocity: 109
@19260 Channel: 5 Note on, C4 key=60 velocity: 0
@19260 Channel: 5 Note on, G4 key=67 velocity: 109
@19320 Channel: 5 Note on, G4 key=67 velocity: 0
@19320 Channel: 5 Note on, E5 key=76 velocity: 109
@19376 Channel: 5 Note on, E5 key=76 velocity: 0
@19380 Channel: 5 Note on, G4 key=67 velocity: 108
@19440 Channel: 5 Note on, D5 key=74 velocity: 108
@19448 Channel: 5 Note on, G4 key=67 velocity: 0
@19498 Channel: 5 Note on, D5 key=74 velocity: 0
@19500 Channel: 5 Note on, C5 key=72 velocity: 108
@19558 Channel: 5 Note on, C5 key=72 velocity: 0
@19560 Channel: 5 Note on, G4 key=67 velocity: 108
@19620 Channel: 5 Note on, C4 key=60 velocity: 108
@19622 Channel: 5 Note on, G4 key=67 velocity: 0
@19686 Channel: 5 Note on, C4 key=60 velocity: 0
@19740 Channel: 5 Note on, G4 key=67 velocity: 108
@19800 Channel: 5 Note on, E5 key=76 velocity: 108
@19802 Channel: 5 Note on, G4 key=67 velocity: 0
@19858 Channel: 5 Note on, E5 key=76 velocity: 0
@19860 Channel: 5 Note on, G4 key=67 velocity: 108
@19920 Channel: 5 Note on, D5 key=74 velocity: 108
@19922 Channel: 5 Note on, G4 key=67 velocity: 0
@19980 Channel: 5 Note on, D5 key=74 velocity: 0
@19980 Channel: 5 Note on, C5 key=72 velocity: 108
@20039 Channel: 5 Note on, C5 key=72 velocity: 0
@20040 Channel: 5 Note on, G4 key=67 velocity: 105
@20100 Channel: 5 Note on, G4 key=67 velocity: 0
@20100 Channel: 5 Note on, C5 key=72 velocity: 105
@20159 Channel: 5 Note on, D4 key=62 velocity: 105
@20166 Channel: 5 Note on, C5 key=72 velocity: 0
@20220 Channel: 5 Note on, G4 key=67 velocity: 106
@20231 Channel: 5 Note on, D4 key=62 velocity: 0
@20269 Channel: 5 Note on, G4 key=67 velocity: 0
@20280 Channel: 5 Note on, D5 key=74 velocity: 106
@20335 Channel: 5 Note on, D5 key=74 velocity: 0
@20340 Channel: 5 Note on, G4 key=67 velocity: 106
@20400 Channel: 5 Note on, C5 key=72 velocity: 106
@20411 Channel: 5 Note on, G4 key=67 velocity: 0
@20446 Channel: 5 Note on, C5 key=72 velocity: 0
@20460 Channel: 5 Note on, B4 key=71 velocity: 106
@20517 Channel: 5 Note on, B4 key=71 velocity: 0
@20520 Channel: 5 Note on, G4 key=67 velocity: 106
@20577 Channel: 5 Note on, G4 key=67 velocity: 0
@20580 Channel: 5 Note on, D4 key=62 velocity: 106
@20637 Channel: 5 Note on, D4 key=62 velocity: 0
@20700 Channel: 5 Note on, D4 key=62 velocity: 106
@20757 Channel: 5 Note on, D4 key=62 velocity: 0
@20760 Channel: 5 Note on, D5 key=74 velocity: 107
@20820 Channel: 5 Note on, G4 key=67 velocity: 107
@20822 Channel: 5 Note on, D5 key=74 velocity: 0
@20879 Channel: 5 Note on, G4 key=67 velocity: 0
@20880 Channel: 5 Note on, C5 key=72 velocity: 107
@20940 Channel: 5 Note on, B4 key=71 velocity: 107
@20951 Channel: 5 Note on, C5 key=72 velocity: 0
@20990 Channel: 5 Note on, B4 key=71 velocity: 0
@21000 Channel: 5 Note on, G4 key=67 velocity: 107
@21060 Channel: 5 Note on, G4 key=67 velocity: 0
@21060 Channel: 5 Note on, B4 key=71 velocity: 107
@21095 Channel: 5 Note on, B4 key=71 velocity: 0
@21120 Channel: 5 Note on, C4 key=60 velocity: 107
@21179 Channel: 5 Note on, C4 key=60 velocity: 0
@21180 Channel: 5 Note on, F4 key=65 velocity: 107
@21239 Channel: 5 Note on, F4 key=65 velocity: 0
@21240 Channel: 5 Note on, C5 key=72 velocity: 107
@21298 Channel: 5 Note on, C5 key=72 velocity: 0
@21300 Channel: 5 Note on, F4 key=65 velocity: 107
@21360 Channel: 5 Note on, A#4 key=70 velocity: 108
@21374 Channel: 5 Note on, F4 key=65 velocity: 0
@21420 Channel: 5 Note on, A#4 key=70 velocity: 0
@21420 Channel: 5 Note on, A4 key=69 velocity: 108
@21479 Channel: 5 Note on, A4 key=69 velocity: 0
@21480 Channel: 5 Note on, F4 key=65 velocity: 108
@21540 Channel: 5 Note on, F4 key=65 velocity: 0
@21540 Channel: 5 Note on, A4 key=69 velocity: 108
@21600 Channel: 5 Note on, A3 key=57 velocity: 108
@21601 Channel: 5 Note on, A4 key=69 velocity: 0
@21660 Channel: 5 Note on, E4 key=64 velocity: 108
@21673 Channel: 5 Note on, A3 key=57 velocity: 0
@21713 Channel: 5 Note on, E4 key=64 velocity: 0
@21720 Channel: 5 Note on, C5 key=72 velocity: 109
@21772 Channel: 5 Note on, C5 key=72 velocity: 0
@21780 Channel: 5 Note on, E4 key=64 velocity: 109
@21840 Channel: 5 Note on, B4 key=71 velocity: 109
@21851 Channel: 5 Note on, E4 key=64 velocity: 0
@21890 Channel: 5 Note on, B4 key=71 velocity: 0
@21900 Channel: 5 Note on, A4 key=69 velocity: 109
@21960 Channel: 5 Note on, A4 key=69 velocity: 0
@21960 Channel: 5 Note on, E4 key=64 velocity: 108
@22020 Channel: 5 Note on, A4 key=69 velocity: 108
@22021 Channel: 5 Note on, E4 key=64 velocity: 0
@22064 Channel: 5 Note on, A4 key=69 velocity: 0
@22080 Channel: 5 Note on, D4 key=62 velocity: 108
@22140 Channel: 5 Note on, G4 key=67 velocity: 108
@22142 Channel: 5 Note on, D4 key=62 velocity: 0
@22189 Channel: 5 Note on, G4 key=67 velocity: 0
@22200 Channel: 5 Note on, D5 key=74 velocity: 108
@22255 Channel: 5 Note on, D5 key=74 velocity: 0
@22260 Channel: 5 Note on, G4 key=67 velocity: 108
@22320 Channel: 5 Note on, C5 key=72 velocity: 109
@22331 Channel: 5 Note on, G4 key=67 velocity: 0
@22366 Channel: 5 Note on, C5 key=72 velocity: 0
@22380 Channel: 5 Note on, B4 key=71 velocity: 109
@22437 Channel: 5 Note on, B4 key=71 velocity: 0
@22440 Channel: 5 Note on, G4 key=67 velocity: 109
@22497 Channel: 5 Note on, G4 key=67 velocity: 0
@22500 Channel: 5 Note on, B4 key=71 velocity: 109
@22557 Channel: 5 Note on, B4 key=71 velocity: 0
@22560 Channel: 5 Note on, D4 key=62 velocity: 109
@22617 Channel: 5 Note on, D4 key=62 velocity: 0
@22620 Channel: 5 Note on, G4 key=67 velocity: 107
@22677 Channel: 5 Note on, G4 key=67 velocity: 0
@22680 Channel: 5 Note on, D5 key=74 velocity: 107
@22740 Channel: 5 Note on, G4 key=67 velocity: 107
@22742 Channel: 5 Note on, D5 key=74 velocity: 0
@22799 Channel: 5 Note on, G4 key=67 velocity: 0
@22800 Channel: 5 Note on, C5 key=72 velocity: 107
@22860 Channel: 5 Note on, B4 key=71 velocity: 107
@22871 Channel: 5 Note on, C5 key=72 velocity: 0
@22910 Channel: 5 Note on, B4 key=71 velocity: 0
@22920 Channel: 5 Note on, G4 key=67 velocity: 107
@22980 Channel: 5 Note on, G4 key=67 velocity: 0
@22980 Channel: 5 Note on, B4 key=71 velocity: 107
@23015 Channel: 5 Note on, B4 key=71 velocity: 0
@23040 Channel: 5 Note on, C4 key=60 velocity: 107
@23100 Channel: 5 Note on, G4 key=67 velocity: 107
@23102 Channel: 5 Note on, C4 key=60 velocity: 0
@23160 Channel: 5 Note on, G4 key=67 velocity: 0
@23160 Channel: 5 Note on, E5 key=76 velocity: 107
@23216 Channel: 5 Note on, E5 key=76 velocity: 0
@23220 Channel: 5 Note on, G4 key=67 velocity: 107
@23280 Channel: 5 Note on, D5 key=74 velocity: 107
@23288 Channel: 5 Note on, G4 key=67 velocity: 0
@23338 Channel: 5 Note on, D5 key=74 velocity: 0
@23340 Channel: 5 Note on, C5 key=72 velocity: 107
@23398 Channel: 5 Note on, C5 key=72 velocity: 0
@23400 Channel: 5 Note on, G4 key=67 velocity: 108
@23460 Channel: 5 Note on, C4 key=60 velocity: 108
@23462 Channel: 5 Note on, G4 key=67 velocity: 0
@23526 Channel: 5 Note on, C4 key=60 velocity: 0
@23580 Channel: 5 Note on, G4 key=67 velocity: 108
@23640 Channel: 5 Note on, E5 key=76 velocity: 108
@23642 Channel: 5 Note on, G4 key=67 velocity: 0
@23698 Channel: 5 Note on, E5 key=76 velocity: 0
@23700 Channel: 5 Note on, G4 key=67 velocity: 108
@23760 Channel: 5 Note on, D5 key=74 velocity: 108
@23762 Channel: 5 Note on, G4 key=67 velocity: 0
@23820 Channel: 5 Note on, D5 key=74 velocity: 0
@23820 Channel: 5 Note on, C5 key=72 velocity: 108
@23879 Channel: 5 Note on, C5 key=72 velocity: 0
@23880 Channel: 5 Note on, G4 key=67 velocity: 108
@23940 Channel: 5 Note on, G4 key=67 velocity: 0
@23940 Channel: 5 Note on, C5 key=72 velocity: 108
@24000 Channel: 5 Note on, A3 key=57 velocity: 108
@24006 Channel: 5 Note on, C5 key=72 velocity: 0
@24060 Channel: 5 Note on, E4 key=64 velocity: 108
@24108 Channel: 5 Note on, A3 key=57 velocity: 0
@24112 Channel: 5 Note on, E4 key=64 velocity: 0
@24120 Channel: 5 Note on, E5 key=76 velocity: 108
@24180 Channel: 5 Note on, E5 key=76 velocity: 0
@24180 Channel: 5 Note on, E4 key=64 velocity: 108
@24240 Channel: 5 Note on, D5 key=74 velocity: 108
@24242 Channel: 5 Note on, E4 key=64 velocity: 0
@24297 Channel: 5 Note on, D5 key=74 velocity: 0
@24300 Channel: 5 Note on, C5 key=72 velocity: 108
@24360 Channel: 5 Note on, A4 key=69 velocity: 108
@24361 Channel: 5 Note on, C5 key=72 velocity: 0
@24420 Channel: 5 Note on, A3 key=57 velocity: 108
@24422 Channel: 5 Note on, A4 key=69 velocity: 0
@24478 Channel: 5 Note on, A3 key=57 velocity: 0
@24540 Channel: 5 Note on, E4 key=64 velocity: 108
@24600 Channel: 5 Note on, E5 key=76 velocity: 108
@24604 Channel: 5 Note on, E4 key=64 velocity: 0
@24654 Channel: 5 Note on, E5 key=76 velocity: 0
@24660 Channel: 5 Note on, E4 key=64 velocity: 108
@24720 Channel: 5 Note on, D5 key=74 velocity: 108
@24728 Channel: 5 Note on, E4 key=64 velocity: 0
@24780 Channel: 5 Note on, C5 key=72 velocity: 108
@24784 Channel: 5 Note on, D5 key=74 velocity: 0
@24838 Channel: 5 Note on, C5 key=72 velocity: 0
@24840 Channel: 5 Note on, E4 key=64 velocity: 108
@24900 Channel: 5 Note on, C5 key=72 velocity: 108
@24902 Channel: 5 Note on, E4 key=64 velocity: 0
@24956 Channel: 5 Note on, C5 key=72 velocity: 0
@24960 Channel: 5 Note on, C4 key=60 velocity: 108
@25020 Channel: 5 Note on, F4 key=65 velocity: 108
@25028 Channel: 5 Note on, C4 key=60 velocity: 0
@25080 Channel: 5 Note on, F4 key=65 velocity: 0
@25080 Channel: 5 Note on, E5 key=76 velocity: 108
@25137 Channel: 5 Note on, E5 key=76 velocity: 0
@25140 Channel: 5 Note on, F4 key=65 velocity: 108
@25200 Channel: 5 Note on, D5 key=74 velocity: 108
@25213 Channel: 5 Note on, F4 key=65 velocity: 0
@25260 Channel: 5 Note on, D5 key=74 velocity: 0
@25260 Channel: 5 Note on, C5 key=72 velocity: 108
@25320 Channel: 5 Note on, F4 key=65 velocity: 108
@25322 Channel: 5 Note on, C5 key=72 velocity: 0
@25380 Channel: 5 Note on, F4 key=65 velocity: 0
@25380 Channel: 5 Note on, C4 key=60 velocity: 108
@25446 Channel: 5 Note on, C4 key=60 velocity: 0
@25500 Channel: 5 Note on, F4 key=65 velocity: 108
@25560 Channel: 5 Note on, F4 key=65 velocity: 0
@25560 Channel: 5 Note on, E5 key=76 velocity: 108
@25619 Channel: 5 Note on, E5 key=76 velocity: 0
@25620 Channel: 5 Note on, F4 key=65 velocity: 108
@25680 Channel: 5 Note on, D5 key=74 velocity: 108
@25686 Channel: 5 Note on, F4 key=65 velocity: 0
@25740 Channel: 5 Note on, D5 key=74 velocity: 0
@25740 Channel: 5 Note on, C5 key=72 velocity: 108
@25792 Channel: 5 Note on, C5 key=72 velocity: 0
@25800 Channel: 5 Note on, F4 key=65 velocity: 108
@25860 Channel: 5 Note on, C5 key=72 velocity: 108
@25864 Channel: 5 Note on, F4 key=65 velocity: 0
@25920 Channel: 5 Note on, C5 key=72 velocity: 0
@25920 Channel: 5 Note on, B3 key=59 velocity: 108
@25980 Channel: 5 Note on, E4 key=64 velocity: 108
@25986 Channel: 5 Note on, B3 key=59 velocity: 0
@26035 Channel: 5 Note on, E4 key=64 velocity: 0
@26040 Channel: 5 Note on, E5 key=76 velocity: 108
@26090 Channel: 5 Note on, E5 key=76 velocity: 0
@26100 Channel: 5 Note on, E4 key=64 velocity: 108
@26160 Channel: 5 Note on, E4 key=64 velocity: 0
@26160 Channel: 5 Note on, D5 key=74 velocity: 108
@26214 Channel: 5 Note on, D5 key=74 velocity: 0
@26220 Channel: 5 Note on, C5 key=72 velocity: 108
@26276 Channel: 5 Note on, C5 key=72 velocity: 0
@26280 Channel: 5 Note on, E4 key=64 velocity: 108
@26340 Channel: 5 Note on, C5 key=72 velocity: 108
@26344 Channel: 5 Note on, E4 key=64 velocity: 0
@26399 Channel: 5 Note on, C5 key=72 velocity: 0
@26400 Channel: 5 Note on, C4 key=60 velocity: 108
@26450 Channel: 5 Note on, C4 key=60 velocity: 0
@26460 Channel: 5 Note on, F4 key=65 velocity: 108
@26518 Channel: 5 Note on, F4 key=65 velocity: 0
@26520 Channel: 5 Note on, E5 key=76 velocity: 108
@26578 Channel: 5 Note on, E5 key=76 velocity: 0
@26580 Channel: 5 Note on, F4 key=65 velocity: 108
@26640 Channel: 5 Note on, D5 key=74 velocity: 108
@26642 Channel: 5 Note on, F4 key=65 velocity: 0
@26700 Channel: 5 Note on, D5 key=74 velocity: 0
@26700 Channel: 5 Note on, C5 key=72 velocity: 108
@26755 Channel: 5 Note on, C5 key=72 velocity: 0
@26760 Channel: 5 Note on, G4 key=67 velocity: 108
@26818 Channel: 5 Note on, G4 key=67 velocity: 0
@26820 Channel: 5 Note on, C5 key=72 velocity: 108
@26880 Channel: 5 Note on, C4 key=60 velocity: 108
@26884 Channel: 5 Note on, C5 key=72 velocity: 0
@26940 Channel: 5 Note on, C4 key=60 velocity: 0
@26940 Channel: 5 Note on, G4 key=67 velocity: 108
@26998 Channel: 5 Note on, G4 key=67 velocity: 0
@27000 Channel: 5 Note on, E5 key=76 velocity: 108
@27060 Channel: 5 Note on, E5 key=76 velocity: 0
@27060 Channel: 5 Note on, G4 key=67 velocity: 108
@27120 Channel: 5 Note on, D5 key=74 velocity: 108
@27122 Channel: 5 Note on, G4 key=67 velocity: 0
@27178 Channel: 5 Note on, D5 key=74 velocity: 0
@27180 Channel: 5 Note on, C5 key=72 velocity: 108
@27240 Channel: 5 Note on, G4 key=67 velocity: 108
@27244 Channel: 5 Note on, C5 key=72 velocity: 0
@27297 Channel: 5 Note on, G4 key=67 velocity: 0
@27300 Channel: 5 Note on, C4 key=60 velocity: 108
@27354 Channel: 5 Note on, C4 key=60 velocity: 0
@27420 Channel: 5 Note on, G4 key=67 velocity: 108
@27472 Channel: 5 Note on, G4 key=67 velocity: 0
@27480 Channel: 5 Note on, E5 key=76 velocity: 108
@27538 Channel: 5 Note on, E5 key=76 velocity: 0
@27540 Channel: 5 Note on, G4 key=67 velocity: 108
@27600 Channel: 5 Note on, D5 key=74 velocity: 108
@27602 Channel: 5 Note on, G4 key=67 velocity: 0
@27659 Channel: 5 Note on, D5 key=74 velocity: 0
@27660 Channel: 5 Note on, C5 key=72 velocity: 108
@27718 Channel: 5 Note on, C5 key=72 velocity: 0
@27720 Channel: 5 Note on, G4 key=67 velocity: 108
@27780 Channel: 5 Note on, C5 key=72 velocity: 108
@27784 Channel: 5 Note on, G4 key=67 velocity: 0
@27832 Channel: 5 Note on, C5 key=72 velocity: 0
@27840 Channel: 5 Note on, C4 key=60 velocity: 108
@27900 Channel: 5 Note on, C4 key=60 velocity: 0
@27900 Channel: 5 Note on, G4 key=67 velocity: 108
@27958 Channel: 5 Note on, G4 key=67 velocity: 0
@27960 Channel: 5 Note on, E5 key=76 velocity: 108
@28020 Channel: 5 Note on, E5 key=76 velocity: 0
@28020 Channel: 5 Note on, G4 key=67 velocity: 108
@28080 Channel: 5 Note on, D5 key=74 velocity: 108
@28084 Channel: 5 Note on, G4 key=67 velocity: 0
@28131 Channel: 5 Note on, D5 key=74 velocity: 0
@28140 Channel: 5 Note on, C5 key=72 velocity: 108
@28200 Channel: 5 Note on, C5 key=72 velocity: 0
@28200 Channel: 5 Note on, G4 key=67 velocity: 108
@28260 Channel: 5 Note on, G4 key=67 velocity: 0
@28260 Channel: 5 Note on, C4 key=60 velocity: 108
@28314 Channel: 5 Note on, C4 key=60 velocity: 0
@28380 Channel: 5 Note on, G4 key=67 velocity: 108
@28440 Channel: 5 Note on, E5 key=76 velocity: 108
@28441 Channel: 5 Note on, G4 key=67 velocity: 0
@28497 Channel: 5 Note on, E5 key=76 velocity: 0
@28500 Channel: 5 Note on, G4 key=67 velocity: 108
@28560 Channel: 5 Note on, G4 key=67 velocity: 0
@28560 Channel: 5 Note on, D5 key=74 velocity: 108
@28620 Channel: 5 Note on, D5 key=74 velocity: 0
@28620 Channel: 5 Note on, C5 key=72 velocity: 108
@28674 Channel: 5 Note on, C5 key=72 velocity: 0
@28680 Channel: 5 Note on, G4 key=67 velocity: 108
@28740 Channel: 5 Note on, C5 key=72 velocity: 108
@28750 Channel: 5 Note on, G4 key=67 velocity: 0
@28779 Channel: 5 Note on, C5 key=72 velocity: 0
@30720 Channel: 5 Note on, C4 key=60 velocity: 109
@30780 Channel: 5 Note on, C4 key=60 velocity: 0
@30780 Channel: 5 Note on, G4 key=67 velocity: 109
@30840 Channel: 5 Note on, G4 key=67 velocity: 0
@30840 Channel: 5 Note on, E5 key=76 velocity: 109
@30896 Channel: 5 Note on, E5 key=76 velocity: 0
@30900 Channel: 5 Note on, G4 key=67 velocity: 108
@30960 Channel: 5 Note on, D5 key=74 velocity: 108
@30968 Channel: 5 Note on, G4 key=67 velocity: 0
@31018 Channel: 5 Note on, D5 key=74 velocity: 0
@31020 Channel: 5 Note on, C5 key=72 velocity: 108
@31078 Channel: 5 Note on, C5 key=72 velocity: 0
@31080 Channel: 5 Note on, G4 key=67 velocity: 108
@31140 Channel: 5 Note on, C4 key=60 velocity: 108
@31142 Channel: 5 Note on, G4 key=67 velocity: 0
@31206 Channel: 5 Note on, C4 key=60 velocity: 0
@31260 Channel: 5 Note on, G4 key=67 velocity: 108
@31320 Channel: 5 Note on, E5 key=76 velocity: 108
@31322 Channel: 5 Note on, G4 key=67 velocity: 0
@31378 Channel: 5 Note on, E5 key=76 velocity: 0
@31380 Channel: 5 Note on, G4 key=67 velocity: 108
@31440 Channel: 5 Note on, D5 key=74 velocity: 108
@31442 Channel: 5 Note on, G4 key=67 velocity: 0
@31500 Channel: 5 Note on, D5 key=74 velocity: 0
@31500 Channel: 5 Note on, C5 key=72 velocity: 108
@31559 Channel: 5 Note on, C5 key=72 velocity: 0
@31560 Channel: 5 Note on, G4 key=67 velocity: 108
@31620 Channel: 5 Note on, G4 key=67 velocity: 0
@31620 Channel: 5 Note on, C5 key=72 velocity: 107
@31679 Channel: 5 Note on, D4 key=62 velocity: 107
@31686 Channel: 5 Note on, C5 key=72 velocity: 0
@31740 Channel: 5 Note on, G4 key=67 velocity: 107
@31751 Channel: 5 Note on, D4 key=62 velocity: 0
@31789 Channel: 5 Note on, G4 key=67 velocity: 0
@31800 Channel: 5 Note on, D5 key=74 velocity: 107
@31855 Channel: 5 Note on, D5 key=74 velocity: 0
@31860 Channel: 5 Note on, G4 key=67 velocity: 108
@31920 Channel: 5 Note on, C5 key=72 velocity: 108
@31931 Channel: 5 Note on, G4 key=67 velocity: 0
@31966 Channel: 5 Note on, C5 key=72 velocity: 0
@31980 Channel: 5 Note on, B4 key=71 velocity: 108
@32037 Channel: 5 Note on, B4 key=71 velocity: 0
@32040 Channel: 5 Note on, G4 key=67 velocity: 108
@32097 Channel: 5 Note on, G4 key=67 velocity: 0
@32100 Channel: 5 Note on, D4 key=62 velocity: 105
@32157 Channel: 5 Note on, D4 key=62 velocity: 0
@32220 Channel: 5 Note on, D4 key=62 velocity: 105
@32277 Channel: 5 Note on, D4 key=62 velocity: 0
@32280 Channel: 5 Note on, D5 key=74 velocity: 105
@32340 Channel: 5 Note on, G4 key=67 velocity: 105
@32342 Channel: 5 Note on, D5 key=74 velocity: 0
@32399 Channel: 5 Note on, G4 key=67 velocity: 0
@32400 Channel: 5 Note on, C5 key=72 velocity: 104
@32460 Channel: 5 Note on, B4 key=71 velocity: 104
@32471 Channel: 5 Note on, C5 key=72 velocity: 0
@32510 Channel: 5 Note on, B4 key=71 velocity: 0
@32520 Channel: 5 Note on, G4 key=67 velocity: 104
@32580 Channel: 5 Note on, G4 key=67 velocity: 0
@32580 Channel: 5 Note on, B4 key=71 velocity: 104
@32615 Channel: 5 Note on, B4 key=71 velocity: 0
@32640 Channel: 5 Note on, C4 key=60 velocity: 104
@32699 Channel: 5 Note on, C4 key=60 velocity: 0
@32700 Channel: 5 Note on, F4 key=65 velocity: 104
@32759 Channel: 5 Note on, F4 key=65 velocity: 0
@32760 Channel: 5 Note on, C5 key=72 velocity: 105
@32818 Channel: 5 Note on, C5 key=72 velocity: 0
@32820 Channel: 5 Note on, F4 key=65 velocity: 105
@32880 Channel: 5 Note on, A#4 key=70 velocity: 105
@32894 Channel: 5 Note on, F4 key=65 velocity: 0
@32940 Channel: 5 Note on, A#4 key=70 velocity: 0
@32940 Channel: 5 Note on, A4 key=69 velocity: 105
@32999 Channel: 5 Note on, A4 key=69 velocity: 0
@33000 Channel: 5 Note on, F4 key=65 velocity: 107
@33060 Channel: 5 Note on, F4 key=65 velocity: 0
@33060 Channel: 5 Note on, A4 key=69 velocity: 107
@33120 Channel: 5 Note on, A3 key=57 velocity: 107
@33121 Channel: 5 Note on, A4 key=69 velocity: 0
@33180 Channel: 5 Note on, E4 key=64 velocity: 107
@33193 Channel: 5 Note on, A3 key=57 velocity: 0
@33233 Channel: 5 Note on, E4 key=64 velocity: 0
@33240 Channel: 5 Note on, C5 key=72 velocity: 107
@33292 Channel: 5 Note on, C5 key=72 velocity: 0
@33300 Channel: 5 Note on, E4 key=64 velocity: 107
@33360 Channel: 5 Note on, B4 key=71 velocity: 107
@33371 Channel: 5 Note on, E4 key=64 velocity: 0
@33410 Channel: 5 Note on, B4 key=71 velocity: 0
@33420 Channel: 5 Note on, A4 key=69 velocity: 107
@33480 Channel: 5 Note on, A4 key=69 velocity: 0
@33480 Channel: 5 Note on, E4 key=64 velocity: 107
@33540 Channel: 5 Note on, A4 key=69 velocity: 107
@33541 Channel: 5 Note on, E4 key=64 velocity: 0
@33584 Channel: 5 Note on, A4 key=69 velocity: 0
@33600 Channel: 5 Note on, D4 key=62 velocity: 106
@33660 Channel: 5 Note on, G4 key=67 velocity: 106
@33662 Channel: 5 Note on, D4 key=62 velocity: 0
@33709 Channel: 5 Note on, G4 key=67 velocity: 0
@33720 Channel: 5 Note on, D5 key=74 velocity: 105
@33775 Channel: 5 Note on, D5 key=74 velocity: 0
@33780 Channel: 5 Note on, G4 key=67 velocity: 105
@33840 Channel: 5 Note on, C5 key=72 velocity: 105
@33851 Channel: 5 Note on, G4 key=67 velocity: 0
@33886 Channel: 5 Note on, C5 key=72 velocity: 0
@33900 Channel: 5 Note on, B4 key=71 velocity: 105
@33957 Channel: 5 Note on, B4 key=71 velocity: 0
@33960 Channel: 5 Note on, G4 key=67 velocity: 105
@34017 Channel: 5 Note on, G4 key=67 velocity: 0
@34020 Channel: 5 Note on, B4 key=71 velocity: 107
@34077 Channel: 5 Note on, B4 key=71 velocity: 0
@34080 Channel: 5 Note on, D4 key=62 velocity: 107
@34137 Channel: 5 Note on, D4 key=62 velocity: 0
@34140 Channel: 5 Note on, G4 key=67 velocity: 107
@34197 Channel: 5 Note on, G4 key=67 velocity: 0
@34200 Channel: 5 Note on, D5 key=74 velocity: 107
@34260 Channel: 5 Note on, G4 key=67 velocity: 107
@34262 Channel: 5 Note on, D5 key=74 velocity: 0
@34319 Channel: 5 Note on, G4 key=67 velocity: 0
@34320 Channel: 5 Note on, C5 key=72 velocity: 107
@34380 Channel: 5 Note on, B4 key=71 velocity: 107
@34391 Channel: 5 Note on, C5 key=72 velocity: 0
@34430 Channel: 5 Note on, B4 key=71 velocity: 0
@34440 Channel: 5 Note on, G4 key=67 velocity: 107
@34500 Channel: 5 Note on, G4 key=67 velocity: 0
@34500 Channel: 5 Note on, B4 key=71 velocity: 107
@34535 Channel: 5 Note on, B4 key=71 velocity: 0
@34560 Channel: 5 Note on, C4 key=60 velocity: 107
@34620 Channel: 5 Note on, G4 key=67 velocity: 108
@34622 Channel: 5 Note on, C4 key=60 velocity: 0
@34680 Channel: 5 Note on, G4 key=67 velocity: 0
@34680 Channel: 5 Note on, E5 key=76 velocity: 108
@34736 Channel: 5 Note on, E5 key=76 velocity: 0
@34740 Channel: 5 Note on, G4 key=67 velocity: 108
@34800 Channel: 5 Note on, D5 key=74 velocity: 108
@34808 Channel: 5 Note on, G4 key=67 velocity: 0
@34858 Channel: 5 Note on, D5 key=74 velocity: 0
@34860 Channel: 5 Note on, C5 key=72 velocity: 108
@34918 Channel: 5 Note on, C5 key=72 velocity: 0
@34920 Channel: 5 Note on, G4 key=67 velocity: 108
@34980 Channel: 5 Note on, C4 key=60 velocity: 108
@34982 Channel: 5 Note on, G4 key=67 velocity: 0
@35046 Channel: 5 Note on, C4 key=60 velocity: 0
@35100 Channel: 5 Note on, G4 key=67 velocity: 108
@35160 Channel: 5 Note on, E5 key=76 velocity: 108
@35162 Channel: 5 Note on, G4 key=67 velocity: 0
@35218 Channel: 5 Note on, E5 key=76 velocity: 0
@35220 Channel: 5 Note on, G4 key=67 velocity: 108
@35280 Channel: 5 Note on, D5 key=74 velocity: 108
@35282 Channel: 5 Note on, G4 key=67 velocity: 0
@35340 Channel: 5 Note on, D5 key=74 velocity: 0
@35340 Channel: 5 Note on, C5 key=72 velocity: 108
@35399 Channel: 5 Note on, C5 key=72 velocity: 0
@35400 Channel: 5 Note on, G4 key=67 velocity: 108
@35460 Channel: 5 Note on, G4 key=67 velocity: 0
@35460 Channel: 5 Note on, C5 key=72 velocity: 108
@35520 Channel: 5 Note on, A3 key=57 velocity: 108
@35526 Channel: 5 Note on, C5 key=72 velocity: 0
@35580 Channel: 5 Note on, E4 key=64 velocity: 108
@35628 Channel: 5 Note on, A3 key=57 velocity: 0
@35632 Channel: 5 Note on, E4 key=64 velocity: 0
@35640 Channel: 5 Note on, E5 key=76 velocity: 108
@35700 Channel: 5 Note on, E5 key=76 velocity: 0
@35700 Channel: 5 Note on, E4 key=64 velocity: 108
@35760 Channel: 5 Note on, D5 key=74 velocity: 108
@35762 Channel: 5 Note on, E4 key=64 velocity: 0
@35817 Channel: 5 Note on, D5 key=74 velocity: 0
@35820 Channel: 5 Note on, C5 key=72 velocity: 108
@35880 Channel: 5 Note on, A4 key=69 velocity: 108
@35881 Channel: 5 Note on, C5 key=72 velocity: 0
@35940 Channel: 5 Note on, A3 key=57 velocity: 108
@35942 Channel: 5 Note on, A4 key=69 velocity: 0
@35998 Channel: 5 Note on, A3 key=57 velocity: 0
@36060 Channel: 5 Note on, E4 key=64 velocity: 108
@36120 Channel: 5 Note on, E5 key=76 velocity: 108
@36124 Channel: 5 Note on, E4 key=64 velocity: 0
@36174 Channel: 5 Note on, E5 key=76 velocity: 0
@36180 Channel: 5 Note on, E4 key=64 velocity: 108
@36240 Channel: 5 Note on, D5 key=74 velocity: 108
@36248 Channel: 5 Note on, E4 key=64 velocity: 0
@36300 Channel: 5 Note on, C5 key=72 velocity: 108
@36304 Channel: 5 Note on, D5 key=74 velocity: 0
@36358 Channel: 5 Note on, C5 key=72 velocity: 0
@36360 Channel: 5 Note on, E4 key=64 velocity: 108
@36420 Channel: 5 Note on, C5 key=72 velocity: 108
@36422 Channel: 5 Note on, E4 key=64 velocity: 0
@36476 Channel: 5 Note on, C5 key=72 velocity: 0
@36480 Channel: 5 Note on, C4 key=60 velocity: 108
@36540 Channel: 5 Note on, F4 key=65 velocity: 108
@36548 Channel: 5 Note on, C4 key=60 velocity: 0
@36600 Channel: 5 Note on, F4 key=65 velocity: 0
@36600 Channel: 5 Note on, E5 key=76 velocity: 108
@36657 Channel: 5 Note on, E5 key=76 velocity: 0
@36660 Channel: 5 Note on, F4 key=65 velocity: 108
@36720 Channel: 5 Note on, D5 key=74 velocity: 108
@36733 Channel: 5 Note on, F4 key=65 velocity: 0
@36780 Channel: 5 Note on, D5 key=74 velocity: 0
@36780 Channel: 5 Note on, C5 key=72 velocity: 108
@36840 Channel: 5 Note on, F4 key=65 velocity: 108
@36842 Channel: 5 Note on, C5 key=72 velocity: 0
@36900 Channel: 5 Note on, F4 key=65 velocity: 0
@36900 Channel: 5 Note on, C4 key=60 velocity: 108
@36966 Channel: 5 Note on, C4 key=60 velocity: 0
@37020 Channel: 5 Note on, F4 key=65 velocity: 108
@37080 Channel: 5 Note on, F4 key=65 velocity: 0
@37080 Channel: 5 Note on, E5 key=76 velocity: 108
@37139 Channel: 5 Note on, E5 key=76 velocity: 0
@37140 Channel: 5 Note on, F4 key=65 velocity: 108
@37200 Channel: 5 Note on, D5 key=74 velocity: 108
@37206 Channel: 5 Note on, F4 key=65 velocity: 0
@37260 Channel: 5 Note on, D5 key=74 velocity: 0
@37260 Channel: 5 Note on, C5 key=72 velocity: 108
@37312 Channel: 5 Note on, C5 key=72 velocity: 0
@37320 Channel: 5 Note on, F4 key=65 velocity: 108
@37380 Channel: 5 Note on, C5 key=72 velocity: 108
@37384 Channel: 5 Note on, F4 key=65 velocity: 0
@37440 Channel: 5 Note on, C5 key=72 velocity: 0
@37440 Channel: 5 Note on, B3 key=59 velocity: 108
@37500 Channel: 5 Note on, E4 key=64 velocity: 108
@37506 Channel: 5 Note on, B3 key=59 velocity: 0
@37555 Channel: 5 Note on, E4 key=64 velocity: 0
@37560 Channel: 5 Note on, E5 key=76 velocity: 108
@37610 Channel: 5 Note on, E5 key=76 velocity: 0
@37620 Channel: 5 Note on, E4 key=64 velocity: 108
@37680 Channel: 5 Note on, E4 key=64 velocity: 0
@37680 Channel: 5 Note on, D5 key=74 velocity: 108
@37734 Channel: 5 Note on, D5 key=74 velocity: 0
@37740 Channel: 5 Note on, C5 key=72 velocity: 108
@37796 Channel: 5 Note on, C5 key=72 velocity: 0
@37800 Channel: 5 Note on, E4 key=64 velocity: 108
@37860 Channel: 5 Note on, C5 key=72 velocity: 108
@37864 Channel: 5 Note on, E4 key=64 velocity: 0
@37919 Channel: 5 Note on, C5 key=72 velocity: 0
@37920 Channel: 5 Note on, C4 key=60 velocity: 108
@37970 Channel: 5 Note on, C4 key=60 velocity: 0
@37980 Channel: 5 Note on, F4 key=65 velocity: 108
@38038 Channel: 5 Note on, F4 key=65 velocity: 0
@38040 Channel: 5 Note on, E5 key=76 velocity: 108
@38098 Channel: 5 Note on, E5 key=76 velocity: 0
@38100 Channel: 5 Note on, F4 key=65 velocity: 108
@38160 Channel: 5 Note on, D5 key=74 velocity: 108
@38162 Channel: 5 Note on, F4 key=65 velocity: 0
@38220 Channel: 5 Note on, D5 key=74 velocity: 0
@38220 Channel: 5 Note on, C5 key=72 velocity: 108
@38275 Channel: 5 Note on, C5 key=72 velocity: 0
@38280 Channel: 5 Note on, G4 key=67 velocity: 108
@38338 Channel: 5 Note on, G4 key=67 velocity: 0
@38340 Channel: 5 Note on, C5 key=72 velocity: 108
@38400 Channel: 5 Note on, C4 key=60 velocity: 107
@38404 Channel: 5 Note on, C5 key=72 velocity: 0
@38460 Channel: 5 Note on, G4 key=67 velocity: 108
@38462 Channel: 5 Note on, C4 key=60 velocity: 0
@38520 Channel: 5 Note on, G4 key=67 velocity: 0
@38520 Channel: 5 Note on, E5 key=76 velocity: 108
@38576 Channel: 5 Note on, E5 key=76 velocity: 0
@38580 Channel: 5 Note on, G4 key=67 velocity: 108
@38640 Channel: 5 Note on, D5 key=74 velocity: 108
@38648 Channel: 5 Note on, G4 key=67 velocity: 0
@38698 Channel: 5 Note on, D5 key=74 velocity: 0
@38700 Channel: 5 Note on, C5 key=72 velocity: 108
@38758 Channel: 5 Note on, C5 key=72 velocity: 0
@38760 Channel: 5 Note on, G4 key=67 velocity: 108
@38820 Channel: 5 Note on, C4 key=60 velocity: 108
@38822 Channel: 5 Note on, G4 key=67 velocity: 0
@38886 Channel: 5 Note on, C4 key=60 velocity: 0
@38940 Channel: 5 Note on, G4 key=67 velocity: 108
@39000 Channel: 5 Note on, E5 key=76 velocity: 108
@39002 Channel: 5 Note on, G4 key=67 velocity: 0
@39058 Channel: 5 Note on, E5 key=76 velocity: 0
@39060 Channel: 5 Note on, G4 key=67 velocity: 108
@39120 Channel: 5 Note on, D5 key=74 velocity: 108
@39122 Channel: 5 Note on, G4 key=67 velocity: 0
@39180 Channel: 5 Note on, D5 key=74 velocity: 0
@39180 Channel: 5 Note on, C5 key=72 velocity: 108
@39239 Channel: 5 Note on, C5 key=72 velocity: 0
@39240 Channel: 5 Note on, G4 key=67 velocity: 108
@39300 Channel: 5 Note on, G4 key=67 velocity: 0
@39300 Channel: 5 Note on, C5 key=72 velocity: 108
@39360 Channel: 5 Note on, A3 key=57 velocity: 108
@39366 Channel: 5 Note on, C5 key=72 velocity: 0
@39420 Channel: 5 Note on, E4 key=64 velocity: 108
@39468 Channel: 5 Note on, A3 key=57 velocity: 0
@39472 Channel: 5 Note on, E4 key=64 velocity: 0
@39480 Channel: 5 Note on, E5 key=76 velocity: 108
@39540 Channel: 5 Note on, E5 key=76 velocity: 0
@39540 Channel: 5 Note on, E4 key=64 velocity: 108
@39600 Channel: 5 Note on, D5 key=74 velocity: 108
@39602 Channel: 5 Note on, E4 key=64 velocity: 0
@39657 Channel: 5 Note on, D5 key=74 velocity: 0
@39660 Channel: 5 Note on, C5 key=72 velocity: 108
@39720 Channel: 5 Note on, A4 key=69 velocity: 108
@39721 Channel: 5 Note on, C5 key=72 velocity: 0
@39780 Channel: 5 Note on, A3 key=57 velocity: 108
@39782 Channel: 5 Note on, A4 key=69 velocity: 0
@39838 Channel: 5 Note on, A3 key=57 velocity: 0
@39900 Channel: 5 Note on, E4 key=64 velocity: 108
@39960 Channel: 5 Note on, E5 key=76 velocity: 108
@39964 Channel: 5 Note on, E4 key=64 velocity: 0
@40014 Channel: 5 Note on, E5 key=76 velocity: 0
@40020 Channel: 5 Note on, E4 key=64 velocity: 108
@40080 Channel: 5 Note on, D5 key=74 velocity: 108
@40088 Channel: 5 Note on, E4 key=64 velocity: 0
@40140 Channel: 5 Note on, C5 key=72 velocity: 108
@40144 Channel: 5 Note on, D5 key=74 velocity: 0
@40198 Channel: 5 Note on, C5 key=72 velocity: 0
@40200 Channel: 5 Note on, E4 key=64 velocity: 108
@40260 Channel: 5 Note on, C5 key=72 velocity: 108
@40262 Channel: 5 Note on, E4 key=64 velocity: 0
@40316 Channel: 5 Note on, C5 key=72 velocity: 0
@40320 Channel: 5 Note on, C4 key=60 velocity: 108
@40380 Channel: 5 Note on, F4 key=65 velocity: 108
@40388 Channel: 5 Note on, C4 key=60 velocity: 0
@40440 Channel: 5 Note on, F4 key=65 velocity: 0
@40440 Channel: 5 Note on, E5 key=76 velocity: 108
@40497 Channel: 5 Note on, E5 key=76 velocity: 0
@40500 Channel: 5 Note on, F4 key=65 velocity: 108
@40560 Channel: 5 Note on, D5 key=74 velocity: 108
@40573 Channel: 5 Note on, F4 key=65 velocity: 0
@40620 Channel: 5 Note on, D5 key=74 velocity: 0
@40620 Channel: 5 Note on, C5 key=72 velocity: 108
@40680 Channel: 5 Note on, F4 key=65 velocity: 108
@40682 Channel: 5 Note on, C5 key=72 velocity: 0
@40740 Channel: 5 Note on, F4 key=65 velocity: 0
@40740 Channel: 5 Note on, C4 key=60 velocity: 108
@40806 Channel: 5 Note on, C4 key=60 velocity: 0
@40860 Channel: 5 Note on, F4 key=65 velocity: 108
@40920 Channel: 5 Note on, F4 key=65 velocity: 0
@40920 Channel: 5 Note on, E5 key=76 velocity: 108
@40979 Channel: 5 Note on, E5 key=76 velocity: 0
@40980 Channel: 5 Note on, F4 key=65 velocity: 108
@41040 Channel: 5 Note on, D5 key=74 velocity: 108
@41046 Channel: 5 Note on, F4 key=65 velocity: 0
@41100 Channel: 5 Note on, D5 key=74 velocity: 0
@41100 Channel: 5 Note on, C5 key=72 velocity: 108
@41152 Channel: 5 Note on, C5 key=72 velocity: 0
@41160 Channel: 5 Note on, F4 key=65 velocity: 108
@41220 Channel: 5 Note on, C5 key=72 velocity: 108
@41224 Channel: 5 Note on, F4 key=65 velocity: 0
@41280 Channel: 5 Note on, C5 key=72 velocity: 0
@41280 Channel: 5 Note on, B3 key=59 velocity: 108
@41340 Channel: 5 Note on, E4 key=64 velocity: 108
@41346 Channel: 5 Note on, B3 key=59 velocity: 0
@41395 Channel: 5 Note on, E4 key=64 velocity: 0
@41400 Channel: 5 Note on, E5 key=76 velocity: 108
@41450 Channel: 5 Note on, E5 key=76 velocity: 0
@41460 Channel: 5 Note on, E4 key=64 velocity: 108
@41520 Channel: 5 Note on, E4 key=64 velocity: 0
@41520 Channel: 5 Note on, D5 key=74 velocity: 108
@41574 Channel: 5 Note on, D5 key=74 velocity: 0
@41580 Channel: 5 Note on, C5 key=72 velocity: 108
@41636 Channel: 5 Note on, C5 key=72 velocity: 0
@41640 Channel: 5 Note on, E4 key=64 velocity: 108
@41700 Channel: 5 Note on, C5 key=72 velocity: 108
@41704 Channel: 5 Note on, E4 key=64 velocity: 0
@41759 Channel: 5 Note on, C5 key=72 velocity: 0
@41760 Channel: 5 Note on, C4 key=60 velocity: 108
@41810 Channel: 5 Note on, C4 key=60 velocity: 0
@41820 Channel: 5 Note on, F4 key=65 velocity: 108
@41878 Channel: 5 Note on, F4 key=65 velocity: 0
@41880 Channel: 5 Note on, E5 key=76 velocity: 108
@41938 Channel: 5 Note on, E5 key=76 velocity: 0
@41940 Channel: 5 Note on, F4 key=65 velocity: 108
@42000 Channel: 5 Note on, D5 key=74 velocity: 108
@42002 Channel: 5 Note on, F4 key=65 velocity: 0
@42060 Channel: 5 Note on, D5 key=74 velocity: 0
@42060 Channel: 5 Note on, C5 key=72 velocity: 108
@42115 Channel: 5 Note on, C5 key=72 velocity: 0
@42120 Channel: 5 Note on, G4 key=67 velocity: 108
@42178 Channel: 5 Note on, G4 key=67 velocity: 0
@42180 Channel: 5 Note on, C5 key=72 velocity: 108
@42240 Channel: 5 Note on, C4 key=60 velocity: 108
@42244 Channel: 5 Note on, C5 key=72 velocity: 0
@42300 Channel: 5 Note on, C4 key=60 velocity: 0
@42300 Channel: 5 Note on, G4 key=67 velocity: 108
@42358 Channel: 5 Note on, G4 key=67 velocity: 0
@42360 Channel: 5 Note on, E5 key=76 velocity: 108
@42420 Channel: 5 Note on, E5 key=76 velocity: 0
@42420 Channel: 5 Note on, G4 key=67 velocity: 108
@42480 Channel: 5 Note on, D5 key=74 velocity: 108
@42482 Channel: 5 Note on, G4 key=67 velocity: 0
@42538 Channel: 5 Note on, D5 key=74 velocity: 0
@42540 Channel: 5 Note on, C5 key=72 velocity: 108
@42600 Channel: 5 Note on, G4 key=67 velocity: 108
@42604 Channel: 5 Note on, C5 key=72 velocity: 0
@42657 Channel: 5 Note on, G4 key=67 velocity: 0
@42660 Channel: 5 Note on, C4 key=60 velocity: 108
@42714 Channel: 5 Note on, C4 key=60 velocity: 0
@42780 Channel: 5 Note on, G4 key=67 velocity: 108
@42832 Channel: 5 Note on, G4 key=67 velocity: 0
@42840 Channel: 5 Note on, E5 key=76 velocity: 108
@42898 Channel: 5 Note on, E5 key=76 velocity: 0
@42900 Channel: 5 Note on, G4 key=67 velocity: 108
@42960 Channel: 5 Note on, D5 key=74 velocity: 108
@42962 Channel: 5 Note on, G4 key=67 velocity: 0
@43019 Channel: 5 Note on, D5 key=74 velocity: 0
@43020 Channel: 5 Note on, C5 key=72 velocity: 108
@43078 Channel: 5 Note on, C5 key=72 velocity: 0
@43080 Channel: 5 Note on, G4 key=67 velocity: 108
@43140 Channel: 5 Note on, C5 key=72 velocity: 108
@43144 Channel: 5 Note on, G4 key=67 velocity: 0
@43192 Channel: 5 Note on, C5 key=72 velocity: 0
@43200 Channel: 5 Note on, C4 key=60 velocity: 108
@43260 Channel: 5 Note on, C4 key=60 velocity: 0
@43260 Channel: 5 Note on, G4 key=67 velocity: 108
@43318 Channel: 5 Note on, G4 key=67 velocity: 0
@43320 Channel: 5 Note on, E5 key=76 velocity: 108
@43380 Channel: 5 Note on, E5 key=76 velocity: 0
@43380 Channel: 5 Note on, G4 key=67 velocity: 108
@43440 Channel: 5 Note on, D5 key=74 velocity: 108
@43444 Channel: 5 Note on, G4 key=67 velocity: 0
@43491 Channel: 5 Note on, D5 key=74 velocity: 0
@43500 Channel: 5 Note on, C5 key=72 velocity: 108
@43560 Channel: 5 Note on, C5 key=72 velocity: 0
@43560 Channel: 5 Note on, G4 key=67 velocity: 108
@43620 Channel: 5 Note on, G4 key=67 velocity: 0
@43620 Channel: 5 Note on, C4 key=60 velocity: 108
@43674 Channel: 5 Note on, C4 key=60 velocity: 0
@43740 Channel: 5 Note on, G4 key=67 velocity: 108
@43800 Channel: 5 Note on, E5 key=76 velocity: 108
@43801 Channel: 5 Note on, G4 key=67 velocity: 0
@43857 Channel: 5 Note on, E5 key=76 velocity: 0
@43860 Channel: 5 Note on, G4 key=67 velocity: 108
@43920 Channel: 5 Note on, G4 key=67 velocity: 0
@43920 Channel: 5 Note on, D5 key=74 velocity: 108
@43980 Channel: 5 Note on, D5 key=74 velocity: 0
@43980 Channel: 5 Note on, C5 key=72 velocity: 108
@44034 Channel: 5 Note on, C5 key=72 velocity: 0
@44040 Channel: 5 Note on, G4 key=67 velocity: 108
@44100 Channel: 5 Note on, C5 key=72 velocity: 108
@44110 Channel: 5 Note on, G4 key=67 velocity: 0
@44139 Channel: 5 Note on, C5 key=72 velocity: 0
@44139 Other message: class javax.sound.midi.Track$ImmutableEndOfTrack

Track 14: size = 2807

@0 Other message: class javax.sound.midi.MetaMessage
@0 Other message: class javax.sound.midi.MetaMessage
@0 Channel: 0 Command:192
@0 Channel: 0 Command:176
@0 Channel: 0 Command:176
@80 Channel: 0 Command:176
@80 Channel: 0 Command:176
@1920 Channel: 0 Note on, C2 key=36 velocity: 127
@1935 Channel: 0 Note on, C2 key=36 velocity: 0
@1980 Channel: 0 Note on, C2 key=36 velocity: 127
@1998 Channel: 0 Note on, C2 key=36 velocity: 0
@2010 Channel: 0 Note on, C2 key=36 velocity: 127
@2024 Channel: 0 Note on, C2 key=36 velocity: 0
@2040 Channel: 0 Note on, C2 key=36 velocity: 127
@2058 Channel: 0 Note on, C2 key=36 velocity: 0
@2070 Channel: 0 Note on, C2 key=36 velocity: 127
@2086 Channel: 0 Note on, C2 key=36 velocity: 0
@2100 Channel: 0 Note on, C2 key=36 velocity: 127
@2117 Channel: 0 Note on, C2 key=36 velocity: 0
@2130 Channel: 0 Note on, C2 key=36 velocity: 127
@2145 Channel: 0 Note on, C2 key=36 velocity: 0
@2160 Channel: 0 Note on, C2 key=36 velocity: 127
@2183 Channel: 0 Note on, C2 key=36 velocity: 0
@2220 Channel: 0 Note on, C2 key=36 velocity: 127
@2237 Channel: 0 Note on, C2 key=36 velocity: 0
@2250 Channel: 0 Note on, C2 key=36 velocity: 127
@2269 Channel: 0 Note on, C2 key=36 velocity: 0
@2280 Channel: 0 Note on, C2 key=36 velocity: 127
@2293 Channel: 0 Note on, C2 key=36 velocity: 0
@2310 Channel: 0 Note on, C2 key=36 velocity: 127
@2329 Channel: 0 Note on, C2 key=36 velocity: 0
@2340 Channel: 0 Note on, C2 key=36 velocity: 127
@2356 Channel: 0 Note on, C2 key=36 velocity: 0
@2370 Channel: 0 Note on, C2 key=36 velocity: 127
@2392 Channel: 0 Note on, C2 key=36 velocity: 0
@2400 Channel: 0 Note on, C2 key=36 velocity: 127
@2420 Channel: 0 Note on, C2 key=36 velocity: 0
@2460 Channel: 0 Note on, C2 key=36 velocity: 127
@2478 Channel: 0 Note on, C2 key=36 velocity: 0
@2490 Channel: 0 Note on, C2 key=36 velocity: 127
@2504 Channel: 0 Note on, C2 key=36 velocity: 0
@2520 Channel: 0 Note on, C2 key=36 velocity: 127
@2538 Channel: 0 Note on, C2 key=36 velocity: 0
@2550 Channel: 0 Note on, C2 key=36 velocity: 127
@2566 Channel: 0 Note on, C2 key=36 velocity: 0
@2580 Channel: 0 Note on, C2 key=36 velocity: 127
@2597 Channel: 0 Note on, C2 key=36 velocity: 0
@2610 Channel: 0 Note on, C2 key=36 velocity: 127
@2625 Channel: 0 Note on, C2 key=36 velocity: 0
@2640 Channel: 0 Note on, C2 key=36 velocity: 127
@2663 Channel: 0 Note on, C2 key=36 velocity: 0
@2700 Channel: 0 Note on, C2 key=36 velocity: 127
@2717 Channel: 0 Note on, C2 key=36 velocity: 0
@2730 Channel: 0 Note on, C2 key=36 velocity: 127
@2749 Channel: 0 Note on, C2 key=36 velocity: 0
@2760 Channel: 0 Note on, C2 key=36 velocity: 127
@2773 Channel: 0 Note on, C2 key=36 velocity: 0
@2790 Channel: 0 Note on, C2 key=36 velocity: 127
@2809 Channel: 0 Note on, C2 key=36 velocity: 0
@2820 Channel: 0 Note on, C2 key=36 velocity: 127
@2836 Channel: 0 Note on, C2 key=36 velocity: 0
@2850 Channel: 0 Note on, C2 key=36 velocity: 127
@2872 Channel: 0 Note on, C2 key=36 velocity: 0
@2880 Channel: 0 Note on, G1 key=31 velocity: 127
@2907 Channel: 0 Note on, G1 key=31 velocity: 0
@2940 Channel: 0 Note on, G1 key=31 velocity: 127
@2961 Channel: 0 Note on, G1 key=31 velocity: 0
@2970 Channel: 0 Note on, G1 key=31 velocity: 127
@2984 Channel: 0 Note on, G1 key=31 velocity: 0
@3000 Channel: 0 Note on, G1 key=31 velocity: 127
@3018 Channel: 0 Note on, G1 key=31 velocity: 0
@3030 Channel: 0 Note on, G1 key=31 velocity: 127
@3054 Channel: 0 Note on, G1 key=31 velocity: 0
@3060 Channel: 0 Note on, G1 key=31 velocity: 127
@3082 Channel: 0 Note on, G1 key=31 velocity: 0
@3090 Channel: 0 Note on, G1 key=31 velocity: 127
@3108 Channel: 0 Note on, G1 key=31 velocity: 0
@3120 Channel: 0 Note on, G1 key=31 velocity: 127
@3155 Channel: 0 Note on, G1 key=31 velocity: 0
@3180 Channel: 0 Note on, G1 key=31 velocity: 127
@3197 Channel: 0 Note on, G1 key=31 velocity: 0
@3210 Channel: 0 Note on, G1 key=31 velocity: 127
@3227 Channel: 0 Note on, G1 key=31 velocity: 0
@3240 Channel: 0 Note on, G1 key=31 velocity: 127
@3259 Channel: 0 Note on, G1 key=31 velocity: 0
@3270 Channel: 0 Note on, G1 key=31 velocity: 127
@3289 Channel: 0 Note on, G1 key=31 velocity: 0
@3300 Channel: 0 Note on, G1 key=31 velocity: 127
@3319 Channel: 0 Note on, G1 key=31 velocity: 0
@3330 Channel: 0 Note on, G1 key=31 velocity: 127
@3353 Channel: 0 Note on, G1 key=31 velocity: 0
@3360 Channel: 0 Note on, G1 key=31 velocity: 127
@3387 Channel: 0 Note on, G1 key=31 velocity: 0
@3420 Channel: 0 Note on, G1 key=31 velocity: 127
@3440 Channel: 0 Note on, G1 key=31 velocity: 0
@3450 Channel: 0 Note on, G1 key=31 velocity: 127
@3468 Channel: 0 Note on, G1 key=31 velocity: 0
@3480 Channel: 0 Note on, G1 key=31 velocity: 127
@3501 Channel: 0 Note on, G1 key=31 velocity: 0
@3510 Channel: 0 Note on, G1 key=31 velocity: 127
@3529 Channel: 0 Note on, G1 key=31 velocity: 0
@3540 Channel: 0 Note on, G1 key=31 velocity: 127
@3557 Channel: 0 Note on, G1 key=31 velocity: 0
@3570 Channel: 0 Note on, G1 key=31 velocity: 127
@3583 Channel: 0 Note on, G1 key=31 velocity: 0
@3600 Channel: 0 Note on, G1 key=31 velocity: 127
@3633 Channel: 0 Note on, G1 key=31 velocity: 0
@3660 Channel: 0 Note on, G1 key=31 velocity: 127
@3679 Channel: 0 Note on, G1 key=31 velocity: 0
@3690 Channel: 0 Note on, G1 key=31 velocity: 127
@3707 Channel: 0 Note on, G1 key=31 velocity: 0
@3720 Channel: 0 Note on, G1 key=31 velocity: 127
@3737 Channel: 0 Note on, G1 key=31 velocity: 0
@3750 Channel: 0 Note on, G1 key=31 velocity: 127
@3769 Channel: 0 Note on, G1 key=31 velocity: 0
@3780 Channel: 0 Note on, G1 key=31 velocity: 127
@3792 Channel: 0 Note on, G1 key=31 velocity: 0
@3810 Channel: 0 Note on, G1 key=31 velocity: 127
@3832 Channel: 0 Note on, G1 key=31 velocity: 0
@3840 Channel: 0 Note on, E1 key=28 velocity: 127
@3875 Channel: 0 Note on, E1 key=28 velocity: 0
@3900 Channel: 0 Note on, E1 key=28 velocity: 127
@3920 Channel: 0 Note on, E1 key=28 velocity: 0
@3930 Channel: 0 Note on, E1 key=28 velocity: 127
@3948 Channel: 0 Note on, E1 key=28 velocity: 0
@3960 Channel: 0 Note on, E1 key=28 velocity: 127
@3979 Channel: 0 Note on, E1 key=28 velocity: 0
@3990 Channel: 0 Note on, E1 key=28 velocity: 127
@4011 Channel: 0 Note on, E1 key=28 velocity: 0
@4020 Channel: 0 Note on, E1 key=28 velocity: 127
@4039 Channel: 0 Note on, E1 key=28 velocity: 0
@4050 Channel: 0 Note on, E1 key=28 velocity: 127
@4065 Channel: 0 Note on, E1 key=28 velocity: 0
@4080 Channel: 0 Note on, E1 key=28 velocity: 127
@4105 Channel: 0 Note on, E1 key=28 velocity: 0
@4140 Channel: 0 Note on, E1 key=28 velocity: 127
@4157 Channel: 0 Note on, E1 key=28 velocity: 0
@4170 Channel: 0 Note on, E1 key=28 velocity: 127
@4190 Channel: 0 Note on, E1 key=28 velocity: 0
@4200 Channel: 0 Note on, E1 key=28 velocity: 127
@4218 Channel: 0 Note on, E1 key=28 velocity: 0
@4230 Channel: 0 Note on, E1 key=28 velocity: 127
@4250 Channel: 0 Note on, E1 key=28 velocity: 0
@4260 Channel: 0 Note on, E1 key=28 velocity: 127
@4278 Channel: 0 Note on, E1 key=28 velocity: 0
@4290 Channel: 0 Note on, E1 key=28 velocity: 127
@4314 Channel: 0 Note on, E1 key=28 velocity: 0
@4320 Channel: 0 Note on, E1 key=28 velocity: 127
@4343 Channel: 0 Note on, E1 key=28 velocity: 0
@4380 Channel: 0 Note on, E1 key=28 velocity: 127
@4397 Channel: 0 Note on, E1 key=28 velocity: 0
@4410 Channel: 0 Note on, E1 key=28 velocity: 127
@4425 Channel: 0 Note on, E1 key=28 velocity: 0
@4440 Channel: 0 Note on, E1 key=28 velocity: 127
@4459 Channel: 0 Note on, E1 key=28 velocity: 0
@4470 Channel: 0 Note on, E1 key=28 velocity: 127
@4487 Channel: 0 Note on, E1 key=28 velocity: 0
@4500 Channel: 0 Note on, E1 key=28 velocity: 127
@4523 Channel: 0 Note on, E1 key=28 velocity: 0
@4530 Channel: 0 Note on, E1 key=28 velocity: 127
@4547 Channel: 0 Note on, E1 key=28 velocity: 0
@4560 Channel: 0 Note on, E1 key=28 velocity: 127
@4591 Channel: 0 Note on, E1 key=28 velocity: 0
@4620 Channel: 0 Note on, E1 key=28 velocity: 127
@4636 Channel: 0 Note on, E1 key=28 velocity: 0
@4650 Channel: 0 Note on, E1 key=28 velocity: 127
@4672 Channel: 0 Note on, E1 key=28 velocity: 0
@4680 Channel: 0 Note on, E1 key=28 velocity: 127
@4700 Channel: 0 Note on, E1 key=28 velocity: 0
@4710 Channel: 0 Note on, E1 key=28 velocity: 127
@4733 Channel: 0 Note on, E1 key=28 velocity: 0
@4740 Channel: 0 Note on, E1 key=28 velocity: 127
@4757 Channel: 0 Note on, E1 key=28 velocity: 0
@4770 Channel: 0 Note on, E1 key=28 velocity: 127
@4789 Channel: 0 Note on, E1 key=28 velocity: 0
@4800 Channel: 0 Note on, F1 key=29 velocity: 127
@4842 Channel: 0 Note on, F1 key=29 velocity: 0
@4860 Channel: 0 Note on, F1 key=29 velocity: 127
@4881 Channel: 0 Note on, F1 key=29 velocity: 0
@4890 Channel: 0 Note on, F1 key=29 velocity: 127
@4905 Channel: 0 Note on, F1 key=29 velocity: 0
@4920 Channel: 0 Note on, F1 key=29 velocity: 127
@4941 Channel: 0 Note on, F1 key=29 velocity: 0
@4950 Channel: 0 Note on, F1 key=29 velocity: 127
@4963 Channel: 0 Note on, F1 key=29 velocity: 0
@4980 Channel: 0 Note on, F1 key=29 velocity: 127
@5003 Channel: 0 Note on, F1 key=29 velocity: 0
@5010 Channel: 0 Note on, F1 key=29 velocity: 127
@5028 Channel: 0 Note on, F1 key=29 velocity: 0
@5040 Channel: 0 Note on, F1 key=29 velocity: 127
@5067 Channel: 0 Note on, F1 key=29 velocity: 0
@5100 Channel: 0 Note on, F1 key=29 velocity: 127
@5114 Channel: 0 Note on, F1 key=29 velocity: 0
@5130 Channel: 0 Note on, F1 key=29 velocity: 127
@5148 Channel: 0 Note on, F1 key=29 velocity: 0
@5160 Channel: 0 Note on, F1 key=29 velocity: 127
@5182 Channel: 0 Note on, F1 key=29 velocity: 0
@5190 Channel: 0 Note on, F1 key=29 velocity: 127
@5211 Channel: 0 Note on, F1 key=29 velocity: 0
@5220 Channel: 0 Note on, F1 key=29 velocity: 127
@5239 Channel: 0 Note on, F1 key=29 velocity: 0
@5250 Channel: 0 Note on, F1 key=29 velocity: 127
@5271 Channel: 0 Note on, F1 key=29 velocity: 0
@5280 Channel: 0 Note on, F1 key=29 velocity: 127
@5309 Channel: 0 Note on, F1 key=29 velocity: 0
@5340 Channel: 0 Note on, F1 key=29 velocity: 127
@5361 Channel: 0 Note on, F1 key=29 velocity: 0
@5370 Channel: 0 Note on, F1 key=29 velocity: 127
@5385 Channel: 0 Note on, F1 key=29 velocity: 0
@5400 Channel: 0 Note on, F1 key=29 velocity: 127
@5419 Channel: 0 Note on, F1 key=29 velocity: 0
@5430 Channel: 0 Note on, F1 key=29 velocity: 127
@5450 Channel: 0 Note on, F1 key=29 velocity: 0
@5460 Channel: 0 Note on, F1 key=29 velocity: 127
@5482 Channel: 0 Note on, F1 key=29 velocity: 0
@5490 Channel: 0 Note on, F1 key=29 velocity: 127
@5508 Channel: 0 Note on, F1 key=29 velocity: 0
@5520 Channel: 0 Note on, F1 key=29 velocity: 127
@5555 Channel: 0 Note on, F1 key=29 velocity: 0
@5580 Channel: 0 Note on, F1 key=29 velocity: 127
@5598 Channel: 0 Note on, F1 key=29 velocity: 0
@5610 Channel: 0 Note on, F1 key=29 velocity: 127
@5631 Channel: 0 Note on, F1 key=29 velocity: 0
@5640 Channel: 0 Note on, F1 key=29 velocity: 127
@5657 Channel: 0 Note on, F1 key=29 velocity: 0
@5670 Channel: 0 Note on, F1 key=29 velocity: 127
@5689 Channel: 0 Note on, F1 key=29 velocity: 0
@5700 Channel: 0 Note on, F1 key=29 velocity: 127
@5719 Channel: 0 Note on, F1 key=29 velocity: 0
@5730 Channel: 0 Note on, F1 key=29 velocity: 127
@5749 Channel: 0 Note on, F1 key=29 velocity: 0
@5760 Channel: 0 Note on, C2 key=36 velocity: 127
@5799 Channel: 0 Note on, C2 key=36 velocity: 0
@5820 Channel: 0 Note on, C2 key=36 velocity: 127
@5839 Channel: 0 Note on, C2 key=36 velocity: 0
@5850 Channel: 0 Note on, C2 key=36 velocity: 127
@5866 Channel: 0 Note on, C2 key=36 velocity: 0
@5880 Channel: 0 Note on, C2 key=36 velocity: 127
@5905 Channel: 0 Note on, C2 key=36 velocity: 0
@5910 Channel: 0 Note on, C2 key=36 velocity: 127
@5928 Channel: 0 Note on, C2 key=36 velocity: 0
@5940 Channel: 0 Note on, C2 key=36 velocity: 127
@5956 Channel: 0 Note on, C2 key=36 velocity: 0
@5970 Channel: 0 Note on, C2 key=36 velocity: 127
@5986 Channel: 0 Note on, C2 key=36 velocity: 0
@6000 Channel: 0 Note on, C2 key=36 velocity: 127
@6035 Channel: 0 Note on, C2 key=36 velocity: 0
@6060 Channel: 0 Note on, C2 key=36 velocity: 127
@6073 Channel: 0 Note on, C2 key=36 velocity: 0
@6090 Channel: 0 Note on, C2 key=36 velocity: 127
@6107 Channel: 0 Note on, C2 key=36 velocity: 0
@6120 Channel: 0 Note on, C2 key=36 velocity: 127
@6137 Channel: 0 Note on, C2 key=36 velocity: 0
@6150 Channel: 0 Note on, C2 key=36 velocity: 127
@6173 Channel: 0 Note on, C2 key=36 velocity: 0
@6180 Channel: 0 Note on, C2 key=36 velocity: 127
@6199 Channel: 0 Note on, C2 key=36 velocity: 0
@6210 Channel: 0 Note on, C2 key=36 velocity: 127
@6233 Channel: 0 Note on, C2 key=36 velocity: 0
@6240 Channel: 0 Note on, C2 key=36 velocity: 127
@6275 Channel: 0 Note on, C2 key=36 velocity: 0
@6300 Channel: 0 Note on, C2 key=36 velocity: 127
@6320 Channel: 0 Note on, C2 key=36 velocity: 0
@6330 Channel: 0 Note on, C2 key=36 velocity: 127
@6348 Channel: 0 Note on, C2 key=36 velocity: 0
@6360 Channel: 0 Note on, C2 key=36 velocity: 127
@6381 Channel: 0 Note on, C2 key=36 velocity: 0
@6390 Channel: 0 Note on, C2 key=36 velocity: 127
@6409 Channel: 0 Note on, C2 key=36 velocity: 0
@6420 Channel: 0 Note on, C2 key=36 velocity: 127
@6443 Channel: 0 Note on, C2 key=36 velocity: 0
@6450 Channel: 0 Note on, C2 key=36 velocity: 127
@6469 Channel: 0 Note on, C2 key=36 velocity: 0
@6480 Channel: 0 Note on, C2 key=36 velocity: 127
@6513 Channel: 0 Note on, C2 key=36 velocity: 0
@6540 Channel: 0 Note on, C2 key=36 velocity: 127
@6559 Channel: 0 Note on, C2 key=36 velocity: 0
@6570 Channel: 0 Note on, C2 key=36 velocity: 127
@6595 Channel: 0 Note on, C2 key=36 velocity: 0
@6600 Channel: 0 Note on, C2 key=36 velocity: 127
@6619 Channel: 0 Note on, C2 key=36 velocity: 0
@6630 Channel: 0 Note on, C2 key=36 velocity: 127
@6653 Channel: 0 Note on, C2 key=36 velocity: 0
@6660 Channel: 0 Note on, C2 key=36 velocity: 127
@6678 Channel: 0 Note on, C2 key=36 velocity: 0
@6690 Channel: 0 Note on, C2 key=36 velocity: 127
@6714 Channel: 0 Note on, C2 key=36 velocity: 0
@6720 Channel: 0 Note on, G1 key=31 velocity: 127
@6759 Channel: 0 Note on, G1 key=31 velocity: 0
@6780 Channel: 0 Note on, G1 key=31 velocity: 127
@6800 Channel: 0 Note on, G1 key=31 velocity: 0
@6810 Channel: 0 Note on, G1 key=31 velocity: 127
@6832 Channel: 0 Note on, G1 key=31 velocity: 0
@6840 Channel: 0 Note on, G1 key=31 velocity: 127
@6861 Channel: 0 Note on, G1 key=31 velocity: 0
@6870 Channel: 0 Note on, G1 key=31 velocity: 127
@6888 Channel: 0 Note on, G1 key=31 velocity: 0
@6900 Channel: 0 Note on, G1 key=31 velocity: 127
@6923 Channel: 0 Note on, G1 key=31 velocity: 0
@6930 Channel: 0 Note on, G1 key=31 velocity: 127
@6947 Channel: 0 Note on, G1 key=31 velocity: 0
@6960 Channel: 0 Note on, G1 key=31 velocity: 127
@6989 Channel: 0 Note on, G1 key=31 velocity: 0
@7020 Channel: 0 Note on, G1 key=31 velocity: 127
@7039 Channel: 0 Note on, G1 key=31 velocity: 0
@7050 Channel: 0 Note on, G1 key=31 velocity: 127
@7069 Channel: 0 Note on, G1 key=31 velocity: 0
@7080 Channel: 0 Note on, G1 key=31 velocity: 127
@7099 Channel: 0 Note on, G1 key=31 velocity: 0
@7110 Channel: 0 Note on, G1 key=31 velocity: 127
@7134 Channel: 0 Note on, G1 key=31 velocity: 0
@7140 Channel: 0 Note on, G1 key=31 velocity: 127
@7160 Channel: 0 Note on, G1 key=31 velocity: 0
@7170 Channel: 0 Note on, G1 key=31 velocity: 127
@7196 Channel: 0 Note on, G1 key=31 velocity: 0
@7200 Channel: 0 Note on, G1 key=31 velocity: 127
@7235 Channel: 0 Note on, G1 key=31 velocity: 0
@7260 Channel: 0 Note on, G1 key=31 velocity: 127
@7279 Channel: 0 Note on, G1 key=31 velocity: 0
@7290 Channel: 0 Note on, G1 key=31 velocity: 127
@7307 Channel: 0 Note on, G1 key=31 velocity: 0
@7320 Channel: 0 Note on, G1 key=31 velocity: 127
@7339 Channel: 0 Note on, G1 key=31 velocity: 0
@7350 Channel: 0 Note on, G1 key=31 velocity: 127
@7367 Channel: 0 Note on, G1 key=31 velocity: 0
@7380 Channel: 0 Note on, G1 key=31 velocity: 127
@7403 Channel: 0 Note on, G1 key=31 velocity: 0
@7410 Channel: 0 Note on, G1 key=31 velocity: 127
@7431 Channel: 0 Note on, G1 key=31 velocity: 0
@7440 Channel: 0 Note on, G1 key=31 velocity: 127
@7469 Channel: 0 Note on, G1 key=31 velocity: 0
@7500 Channel: 0 Note on, G1 key=31 velocity: 127
@7518 Channel: 0 Note on, G1 key=31 velocity: 0
@7530 Channel: 0 Note on, G1 key=31 velocity: 127
@7552 Channel: 0 Note on, G1 key=31 velocity: 0
@7560 Channel: 0 Note on, G1 key=31 velocity: 127
@7580 Channel: 0 Note on, G1 key=31 velocity: 0
@7590 Channel: 0 Note on, G1 key=31 velocity: 127
@7612 Channel: 0 Note on, G1 key=31 velocity: 0
@7620 Channel: 0 Note on, G1 key=31 velocity: 127
@7639 Channel: 0 Note on, G1 key=31 velocity: 0
@7650 Channel: 0 Note on, G1 key=31 velocity: 127
@7675 Channel: 0 Note on, G1 key=31 velocity: 0
@7680 Channel: 0 Note on, F1 key=29 velocity: 127
@7717 Channel: 0 Note on, F1 key=29 velocity: 0
@7740 Channel: 0 Note on, F1 key=29 velocity: 127
@7759 Channel: 0 Note on, F1 key=29 velocity: 0
@7770 Channel: 0 Note on, F1 key=29 velocity: 127
@7787 Channel: 0 Note on, F1 key=29 velocity: 0
@7800 Channel: 0 Note on, F1 key=29 velocity: 127
@7819 Channel: 0 Note on, F1 key=29 velocity: 0
@7830 Channel: 0 Note on, F1 key=29 velocity: 127
@7849 Channel: 0 Note on, F1 key=29 velocity: 0
@7860 Channel: 0 Note on, F1 key=29 velocity: 127
@7881 Channel: 0 Note on, F1 key=29 velocity: 0
@7890 Channel: 0 Note on, F1 key=29 velocity: 127
@7912 Channel: 0 Note on, F1 key=29 velocity: 0
@7920 Channel: 0 Note on, F1 key=29 velocity: 127
@7957 Channel: 0 Note on, F1 key=29 velocity: 0
@7980 Channel: 0 Note on, F1 key=29 velocity: 127
@8000 Channel: 0 Note on, F1 key=29 velocity: 0
@8010 Channel: 0 Note on, F1 key=29 velocity: 127
@8030 Channel: 0 Note on, F1 key=29 velocity: 0
@8040 Channel: 0 Note on, F1 key=29 velocity: 127
@8058 Channel: 0 Note on, F1 key=29 velocity: 0
@8070 Channel: 0 Note on, F1 key=29 velocity: 127
@8090 Channel: 0 Note on, F1 key=29 velocity: 0
@8100 Channel: 0 Note on, F1 key=29 velocity: 127
@8121 Channel: 0 Note on, F1 key=29 velocity: 0
@8130 Channel: 0 Note on, F1 key=29 velocity: 127
@8145 Channel: 0 Note on, F1 key=29 velocity: 0
@8160 Channel: 0 Note on, A1 key=33 velocity: 127
@8201 Channel: 0 Note on, A1 key=33 velocity: 0
@8220 Channel: 0 Note on, A1 key=33 velocity: 127
@8237 Channel: 0 Note on, A1 key=33 velocity: 0
@8250 Channel: 0 Note on, A1 key=33 velocity: 127
@8263 Channel: 0 Note on, A1 key=33 velocity: 0
@8280 Channel: 0 Note on, A1 key=33 velocity: 127
@8299 Channel: 0 Note on, A1 key=33 velocity: 0
@8310 Channel: 0 Note on, A1 key=33 velocity: 127
@8327 Channel: 0 Note on, A1 key=33 velocity: 0
@8340 Channel: 0 Note on, A1 key=33 velocity: 127
@8363 Channel: 0 Note on, A1 key=33 velocity: 0
@8370 Channel: 0 Note on, A1 key=33 velocity: 127
@8386 Channel: 0 Note on, A1 key=33 velocity: 0
@8400 Channel: 0 Note on, A1 key=33 velocity: 127
@8431 Channel: 0 Note on, A1 key=33 velocity: 0
@8460 Channel: 0 Note on, A1 key=33 velocity: 127
@8478 Channel: 0 Note on, A1 key=33 velocity: 0
@8490 Channel: 0 Note on, A1 key=33 velocity: 127
@8508 Channel: 0 Note on, A1 key=33 velocity: 0
@8520 Channel: 0 Note on, A1 key=33 velocity: 127
@8537 Channel: 0 Note on, A1 key=33 velocity: 0
@8550 Channel: 0 Note on, A1 key=33 velocity: 127
@8567 Channel: 0 Note on, A1 key=33 velocity: 0
@8580 Channel: 0 Note on, A1 key=33 velocity: 127
@8599 Channel: 0 Note on, A1 key=33 velocity: 0
@8610 Channel: 0 Note on, A1 key=33 velocity: 127
@8631 Channel: 0 Note on, A1 key=33 velocity: 0
@8640 Channel: 0 Note on, G1 key=31 velocity: 127
@8681 Channel: 0 Note on, G1 key=31 velocity: 0
@8700 Channel: 0 Note on, G1 key=31 velocity: 127
@8718 Channel: 0 Note on, G1 key=31 velocity: 0
@8730 Channel: 0 Note on, G1 key=31 velocity: 127
@8750 Channel: 0 Note on, G1 key=31 velocity: 0
@8760 Channel: 0 Note on, G1 key=31 velocity: 127
@8778 Channel: 0 Note on, G1 key=31 velocity: 0
@8790 Channel: 0 Note on, G1 key=31 velocity: 127
@8812 Channel: 0 Note on, G1 key=31 velocity: 0
@8820 Channel: 0 Note on, G1 key=31 velocity: 127
@8842 Channel: 0 Note on, G1 key=31 velocity: 0
@8850 Channel: 0 Note on, G1 key=31 velocity: 127
@8870 Channel: 0 Note on, G1 key=31 velocity: 0
@8880 Channel: 0 Note on, G1 key=31 velocity: 127
@8912 Channel: 0 Note on, G1 key=31 velocity: 0
@8940 Channel: 0 Note on, G1 key=31 velocity: 127
@8957 Channel: 0 Note on, G1 key=31 velocity: 0
@8970 Channel: 0 Note on, G1 key=31 velocity: 127
@8993 Channel: 0 Note on, G1 key=31 velocity: 0
@9000 Channel: 0 Note on, G1 key=31 velocity: 127
@9019 Channel: 0 Note on, G1 key=31 velocity: 0
@9030 Channel: 0 Note on, G1 key=31 velocity: 127
@9051 Channel: 0 Note on, G1 key=31 velocity: 0
@9060 Channel: 0 Note on, G1 key=31 velocity: 127
@9079 Channel: 0 Note on, G1 key=31 velocity: 0
@9090 Channel: 0 Note on, G1 key=31 velocity: 127
@9113 Channel: 0 Note on, G1 key=31 velocity: 0
@9120 Channel: 0 Note on, G1 key=31 velocity: 127
@9155 Channel: 0 Note on, G1 key=31 velocity: 0
@9180 Channel: 0 Note on, G1 key=31 velocity: 127
@9198 Channel: 0 Note on, G1 key=31 velocity: 0
@9210 Channel: 0 Note on, G1 key=31 velocity: 127
@9232 Channel: 0 Note on, G1 key=31 velocity: 0
@9240 Channel: 0 Note on, G1 key=31 velocity: 127
@9260 Channel: 0 Note on, G1 key=31 velocity: 0
@9270 Channel: 0 Note on, G1 key=31 velocity: 127
@9290 Channel: 0 Note on, G1 key=31 velocity: 0
@9300 Channel: 0 Note on, G1 key=31 velocity: 127
@9322 Channel: 0 Note on, G1 key=31 velocity: 0
@9330 Channel: 0 Note on, G1 key=31 velocity: 127
@9348 Channel: 0 Note on, G1 key=31 velocity: 0
@9360 Channel: 0 Note on, G1 key=31 velocity: 127
@9388 Channel: 0 Note on, G1 key=31 velocity: 0
@9420 Channel: 0 Note on, G1 key=31 velocity: 127
@9435 Channel: 0 Note on, G1 key=31 velocity: 0
@9450 Channel: 0 Note on, G1 key=31 velocity: 127
@9473 Channel: 0 Note on, G1 key=31 velocity: 0
@9480 Channel: 0 Note on, G1 key=31 velocity: 127
@9499 Channel: 0 Note on, G1 key=31 velocity: 0
@9510 Channel: 0 Note on, G1 key=31 velocity: 127
@9535 Channel: 0 Note on, G1 key=31 velocity: 0
@9540 Channel: 0 Note on, G1 key=31 velocity: 127
@9565 Channel: 0 Note on, G1 key=31 velocity: 0
@9570 Channel: 0 Note on, G1 key=31 velocity: 127
@9587 Channel: 0 Note on, G1 key=31 velocity: 0
@9600 Channel: 0 Note on, C2 key=36 velocity: 127
@9635 Channel: 0 Note on, C2 key=36 velocity: 0
@9660 Channel: 0 Note on, C2 key=36 velocity: 127
@9680 Channel: 0 Note on, C2 key=36 velocity: 0
@9690 Channel: 0 Note on, C2 key=36 velocity: 127
@9706 Channel: 0 Note on, C2 key=36 velocity: 0
@9720 Channel: 0 Note on, C2 key=36 velocity: 127
@9740 Channel: 0 Note on, C2 key=36 velocity: 0
@9750 Channel: 0 Note on, C2 key=36 velocity: 127
@9766 Channel: 0 Note on, C2 key=36 velocity: 0
@9780 Channel: 0 Note on, C2 key=36 velocity: 127
@9799 Channel: 0 Note on, C2 key=36 velocity: 0
@9810 Channel: 0 Note on, C2 key=36 velocity: 127
@9827 Channel: 0 Note on, C2 key=36 velocity: 0
@9840 Channel: 0 Note on, C2 key=36 velocity: 127
@9869 Channel: 0 Note on, C2 key=36 velocity: 0
@9900 Channel: 0 Note on, C2 key=36 velocity: 127
@9917 Channel: 0 Note on, C2 key=36 velocity: 0
@9930 Channel: 0 Note on, C2 key=36 velocity: 127
@9949 Channel: 0 Note on, C2 key=36 velocity: 0
@9960 Channel: 0 Note on, C2 key=36 velocity: 127
@9979 Channel: 0 Note on, C2 key=36 velocity: 0
@9990 Channel: 0 Note on, C2 key=36 velocity: 127
@10011 Channel: 0 Note on, C2 key=36 velocity: 0
@10020 Channel: 0 Note on, C2 key=36 velocity: 127
@10038 Channel: 0 Note on, C2 key=36 velocity: 0
@10050 Channel: 0 Note on, C2 key=36 velocity: 127
@10073 Channel: 0 Note on, C2 key=36 velocity: 0
@10080 Channel: 0 Note on, C2 key=36 velocity: 127
@10106 Channel: 0 Note on, C2 key=36 velocity: 0
@10140 Channel: 0 Note on, C2 key=36 velocity: 127
@10159 Channel: 0 Note on, C2 key=36 velocity: 0
@10170 Channel: 0 Note on, C2 key=36 velocity: 127
@10189 Channel: 0 Note on, C2 key=36 velocity: 0
@10200 Channel: 0 Note on, C2 key=36 velocity: 127
@10221 Channel: 0 Note on, C2 key=36 velocity: 0
@10230 Channel: 0 Note on, C2 key=36 velocity: 127
@10247 Channel: 0 Note on, C2 key=36 velocity: 0
@10260 Channel: 0 Note on, C2 key=36 velocity: 127
@10281 Channel: 0 Note on, C2 key=36 velocity: 0
@10290 Channel: 0 Note on, C2 key=36 velocity: 127
@10307 Channel: 0 Note on, C2 key=36 velocity: 0
@10320 Channel: 0 Note on, C2 key=36 velocity: 127
@10351 Channel: 0 Note on, C2 key=36 velocity: 0
@10380 Channel: 0 Note on, C2 key=36 velocity: 127
@10398 Channel: 0 Note on, C2 key=36 velocity: 0
@10410 Channel: 0 Note on, C2 key=36 velocity: 127
@10430 Channel: 0 Note on, C2 key=36 velocity: 0
@10440 Channel: 0 Note on, C2 key=36 velocity: 127
@10456 Channel: 0 Note on, C2 key=36 velocity: 0
@10470 Channel: 0 Note on, C2 key=36 velocity: 127
@10492 Channel: 0 Note on, C2 key=36 velocity: 0
@10500 Channel: 0 Note on, C2 key=36 velocity: 127
@10516 Channel: 0 Note on, C2 key=36 velocity: 0
@10530 Channel: 0 Note on, C2 key=36 velocity: 127
@10550 Channel: 0 Note on, C2 key=36 velocity: 0
@10560 Channel: 0 Note on, A1 key=33 velocity: 127
@10595 Channel: 0 Note on, A1 key=33 velocity: 0
@10620 Channel: 0 Note on, A1 key=33 velocity: 127
@10641 Channel: 0 Note on, A1 key=33 velocity: 0
@10650 Channel: 0 Note on, A1 key=33 velocity: 127
@10667 Channel: 0 Note on, A1 key=33 velocity: 0
@10680 Channel: 0 Note on, A1 key=33 velocity: 127
@10700 Channel: 0 Note on, A1 key=33 velocity: 0
@10710 Channel: 0 Note on, A1 key=33 velocity: 127
@10726 Channel: 0 Note on, A1 key=33 velocity: 0
@10740 Channel: 0 Note on, A1 key=33 velocity: 127
@10760 Channel: 0 Note on, A1 key=33 velocity: 0
@10770 Channel: 0 Note on, A1 key=33 velocity: 127
@10788 Channel: 0 Note on, A1 key=33 velocity: 0
@10800 Channel: 0 Note on, A1 key=33 velocity: 127
@10830 Channel: 0 Note on, A1 key=33 velocity: 0
@10860 Channel: 0 Note on, A1 key=33 velocity: 127
@10879 Channel: 0 Note on, A1 key=33 velocity: 0
@10890 Channel: 0 Note on, A1 key=33 velocity: 127
@10908 Channel: 0 Note on, A1 key=33 velocity: 0
@10920 Channel: 0 Note on, A1 key=33 velocity: 127
@10939 Channel: 0 Note on, A1 key=33 velocity: 0
@10950 Channel: 0 Note on, A1 key=33 velocity: 127
@10967 Channel: 0 Note on, A1 key=33 velocity: 0
@10980 Channel: 0 Note on, A1 key=33 velocity: 127
@10995 Channel: 0 Note on, A1 key=33 velocity: 0
@11010 Channel: 0 Note on, A1 key=33 velocity: 127
@11029 Channel: 0 Note on, A1 key=33 velocity: 0
@11040 Channel: 0 Note on, A1 key=33 velocity: 127
@11065 Channel: 0 Note on, A1 key=33 velocity: 0
@11100 Channel: 0 Note on, A1 key=33 velocity: 127
@11117 Channel: 0 Note on, A1 key=33 velocity: 0
@11130 Channel: 0 Note on, A1 key=33 velocity: 127
@11146 Channel: 0 Note on, A1 key=33 velocity: 0
@11160 Channel: 0 Note on, A1 key=33 velocity: 127
@11180 Channel: 0 Note on, A1 key=33 velocity: 0
@11190 Channel: 0 Note on, A1 key=33 velocity: 127
@11204 Channel: 0 Note on, A1 key=33 velocity: 0
@11220 Channel: 0 Note on, A1 key=33 velocity: 127
@11238 Channel: 0 Note on, A1 key=33 velocity: 0
@11250 Channel: 0 Note on, A1 key=33 velocity: 127
@11266 Channel: 0 Note on, A1 key=33 velocity: 0
@11280 Channel: 0 Note on, A1 key=33 velocity: 127
@11311 Channel: 0 Note on, A1 key=33 velocity: 0
@11340 Channel: 0 Note on, A1 key=33 velocity: 127
@11359 Channel: 0 Note on, A1 key=33 velocity: 0
@11370 Channel: 0 Note on, A1 key=33 velocity: 127
@11385 Channel: 0 Note on, A1 key=33 velocity: 0
@11400 Channel: 0 Note on, A1 key=33 velocity: 127
@11415 Channel: 0 Note on, A1 key=33 velocity: 0
@11430 Channel: 0 Note on, A1 key=33 velocity: 127
@11447 Channel: 0 Note on, A1 key=33 velocity: 0
@11460 Channel: 0 Note on, A1 key=33 velocity: 127
@11475 Channel: 0 Note on, A1 key=33 velocity: 0
@11490 Channel: 0 Note on, A1 key=33 velocity: 127
@11509 Channel: 0 Note on, A1 key=33 velocity: 0
@11520 Channel: 0 Note on, F1 key=29 velocity: 127
@11549 Channel: 0 Note on, F1 key=29 velocity: 0
@11580 Channel: 0 Note on, F1 key=29 velocity: 127
@11598 Channel: 0 Note on, F1 key=29 velocity: 0
@11610 Channel: 0 Note on, F1 key=29 velocity: 127
@11628 Channel: 0 Note on, F1 key=29 velocity: 0
@11640 Channel: 0 Note on, F1 key=29 velocity: 127
@11656 Channel: 0 Note on, F1 key=29 velocity: 0
@11670 Channel: 0 Note on, F1 key=29 velocity: 127
@11687 Channel: 0 Note on, F1 key=29 velocity: 0
@11700 Channel: 0 Note on, F1 key=29 velocity: 127
@11717 Channel: 0 Note on, F1 key=29 velocity: 0
@11730 Channel: 0 Note on, F1 key=29 velocity: 127
@11747 Channel: 0 Note on, F1 key=29 velocity: 0
@11760 Channel: 0 Note on, F1 key=29 velocity: 127
@11791 Channel: 0 Note on, F1 key=29 velocity: 0
@11820 Channel: 0 Note on, F1 key=29 velocity: 127
@11839 Channel: 0 Note on, F1 key=29 velocity: 0
@11850 Channel: 0 Note on, F1 key=29 velocity: 127
@11867 Channel: 0 Note on, F1 key=29 velocity: 0
@11880 Channel: 0 Note on, F1 key=29 velocity: 127
@11895 Channel: 0 Note on, F1 key=29 velocity: 0
@11910 Channel: 0 Note on, F1 key=29 velocity: 127
@11925 Channel: 0 Note on, F1 key=29 velocity: 0
@11940 Channel: 0 Note on, F1 key=29 velocity: 127
@11958 Channel: 0 Note on, F1 key=29 velocity: 0
@11970 Channel: 0 Note on, F1 key=29 velocity: 127
@11988 Channel: 0 Note on, F1 key=29 velocity: 0
@12000 Channel: 0 Note on, F1 key=29 velocity: 127
@12027 Channel: 0 Note on, F1 key=29 velocity: 0
@12060 Channel: 0 Note on, F1 key=29 velocity: 127
@12078 Channel: 0 Note on, F1 key=29 velocity: 0
@12090 Channel: 0 Note on, F1 key=29 velocity: 127
@12104 Channel: 0 Note on, F1 key=29 velocity: 0
@12120 Channel: 0 Note on, F1 key=29 velocity: 127
@12138 Channel: 0 Note on, F1 key=29 velocity: 0
@12150 Channel: 0 Note on, F1 key=29 velocity: 127
@12165 Channel: 0 Note on, F1 key=29 velocity: 0
@12180 Channel: 0 Note on, F1 key=29 velocity: 127
@12197 Channel: 0 Note on, F1 key=29 velocity: 0
@12210 Channel: 0 Note on, F1 key=29 velocity: 127
@12225 Channel: 0 Note on, F1 key=29 velocity: 0
@12240 Channel: 0 Note on, F1 key=29 velocity: 127
@12269 Channel: 0 Note on, F1 key=29 velocity: 0
@12300 Channel: 0 Note on, F1 key=29 velocity: 127
@12317 Channel: 0 Note on, F1 key=29 velocity: 0
@12330 Channel: 0 Note on, F1 key=29 velocity: 127
@12349 Channel: 0 Note on, F1 key=29 velocity: 0
@12360 Channel: 0 Note on, F1 key=29 velocity: 127
@12378 Channel: 0 Note on, F1 key=29 velocity: 0
@12390 Channel: 0 Note on, F1 key=29 velocity: 127
@12408 Channel: 0 Note on, F1 key=29 velocity: 0
@12420 Channel: 0 Note on, F1 key=29 velocity: 127
@12438 Channel: 0 Note on, F1 key=29 velocity: 0
@12450 Channel: 0 Note on, F1 key=29 velocity: 127
@12472 Channel: 0 Note on, F1 key=29 velocity: 0
@12480 Channel: 0 Note on, E1 key=28 velocity: 127
@12518 Channel: 0 Note on, E1 key=28 velocity: 0
@12540 Channel: 0 Note on, E1 key=28 velocity: 127
@12558 Channel: 0 Note on, E1 key=28 velocity: 0
@12570 Channel: 0 Note on, E1 key=28 velocity: 127
@12589 Channel: 0 Note on, E1 key=28 velocity: 0
@12600 Channel: 0 Note on, E1 key=28 velocity: 127
@12621 Channel: 0 Note on, E1 key=28 velocity: 0
@12630 Channel: 0 Note on, E1 key=28 velocity: 127
@12647 Channel: 0 Note on, E1 key=28 velocity: 0
@12660 Channel: 0 Note on, E1 key=28 velocity: 127
@12677 Channel: 0 Note on, E1 key=28 velocity: 0
@12690 Channel: 0 Note on, E1 key=28 velocity: 127
@12707 Channel: 0 Note on, E1 key=28 velocity: 0
@12720 Channel: 0 Note on, E1 key=28 velocity: 127
@12749 Channel: 0 Note on, E1 key=28 velocity: 0
@12780 Channel: 0 Note on, E1 key=28 velocity: 127
@12803 Channel: 0 Note on, E1 key=28 velocity: 0
@12810 Channel: 0 Note on, E1 key=28 velocity: 127
@12830 Channel: 0 Note on, E1 key=28 velocity: 0
@12840 Channel: 0 Note on, E1 key=28 velocity: 127
@12858 Channel: 0 Note on, E1 key=28 velocity: 0
@12870 Channel: 0 Note on, E1 key=28 velocity: 127
@12890 Channel: 0 Note on, E1 key=28 velocity: 0
@12900 Channel: 0 Note on, E1 key=28 velocity: 127
@12917 Channel: 0 Note on, E1 key=28 velocity: 0
@12930 Channel: 0 Note on, E1 key=28 velocity: 127
@12949 Channel: 0 Note on, E1 key=28 velocity: 0
@12960 Channel: 0 Note on, F1 key=29 velocity: 127
@13001 Channel: 0 Note on, F1 key=29 velocity: 0
@13020 Channel: 0 Note on, F1 key=29 velocity: 127
@13038 Channel: 0 Note on, F1 key=29 velocity: 0
@13050 Channel: 0 Note on, F1 key=29 velocity: 127
@13068 Channel: 0 Note on, F1 key=29 velocity: 0
@13080 Channel: 0 Note on, F1 key=29 velocity: 127
@13098 Channel: 0 Note on, F1 key=29 velocity: 0
@13110 Channel: 0 Note on, F1 key=29 velocity: 127
@13128 Channel: 0 Note on, F1 key=29 velocity: 0
@13140 Channel: 0 Note on, F1 key=29 velocity: 127
@13162 Channel: 0 Note on, F1 key=29 velocity: 0
@13170 Channel: 0 Note on, F1 key=29 velocity: 127
@13187 Channel: 0 Note on, F1 key=29 velocity: 0
@13200 Channel: 0 Note on, G1 key=31 velocity: 127
@13237 Channel: 0 Note on, G1 key=31 velocity: 0
@13260 Channel: 0 Note on, G1 key=31 velocity: 127
@13275 Channel: 0 Note on, G1 key=31 velocity: 0
@13290 Channel: 0 Note on, G1 key=31 velocity: 127
@13307 Channel: 0 Note on, G1 key=31 velocity: 0
@13320 Channel: 0 Note on, G1 key=31 velocity: 127
@13336 Channel: 0 Note on, G1 key=31 velocity: 0
@13350 Channel: 0 Note on, G1 key=31 velocity: 127
@13370 Channel: 0 Note on, G1 key=31 velocity: 0
@13380 Channel: 0 Note on, G1 key=31 velocity: 127
@13400 Channel: 0 Note on, G1 key=31 velocity: 0
@13410 Channel: 0 Note on, G1 key=31 velocity: 127
@13430 Channel: 0 Note on, G1 key=31 velocity: 0
@13440 Channel: 0 Note on, C2 key=36 velocity: 127
@13473 Channel: 0 Note on, C2 key=36 velocity: 0
@13500 Channel: 0 Note on, C2 key=36 velocity: 127
@13517 Channel: 0 Note on, C2 key=36 velocity: 0
@13530 Channel: 0 Note on, C2 key=36 velocity: 127
@13545 Channel: 0 Note on, C2 key=36 velocity: 0
@13560 Channel: 0 Note on, C2 key=36 velocity: 127
@13577 Channel: 0 Note on, C2 key=36 velocity: 0
@13590 Channel: 0 Note on, C2 key=36 velocity: 127
@13607 Channel: 0 Note on, C2 key=36 velocity: 0
@13620 Channel: 0 Note on, C2 key=36 velocity: 127
@13639 Channel: 0 Note on, C2 key=36 velocity: 0
@13650 Channel: 0 Note on, C2 key=36 velocity: 127
@13667 Channel: 0 Note on, C2 key=36 velocity: 0
@13680 Channel: 0 Note on, C2 key=36 velocity: 127
@13709 Channel: 0 Note on, C2 key=36 velocity: 0
@13740 Channel: 0 Note on, C2 key=36 velocity: 127
@13757 Channel: 0 Note on, C2 key=36 velocity: 0
@13770 Channel: 0 Note on, C2 key=36 velocity: 127
@13790 Channel: 0 Note on, C2 key=36 velocity: 0
@13800 Channel: 0 Note on, C2 key=36 velocity: 127
@13816 Channel: 0 Note on, C2 key=36 velocity: 0
@13830 Channel: 0 Note on, C2 key=36 velocity: 127
@13850 Channel: 0 Note on, C2 key=36 velocity: 0
@13860 Channel: 0 Note on, C2 key=36 velocity: 127
@13876 Channel: 0 Note on, C2 key=36 velocity: 0
@13890 Channel: 0 Note on, C2 key=36 velocity: 127
@13912 Channel: 0 Note on, C2 key=36 velocity: 0
@13920 Channel: 0 Note on, C2 key=36 velocity: 127
@13947 Channel: 0 Note on, C2 key=36 velocity: 0
@13980 Channel: 0 Note on, C2 key=36 velocity: 127
@13999 Channel: 0 Note on, C2 key=36 velocity: 0
@14010 Channel: 0 Note on, C2 key=36 velocity: 127
@14027 Channel: 0 Note on, C2 key=36 velocity: 0
@14040 Channel: 0 Note on, C2 key=36 velocity: 127
@14057 Channel: 0 Note on, C2 key=36 velocity: 0
@14070 Channel: 0 Note on, C2 key=36 velocity: 127
@14085 Channel: 0 Note on, C2 key=36 velocity: 0
@14100 Channel: 0 Note on, C2 key=36 velocity: 127
@14117 Channel: 0 Note on, C2 key=36 velocity: 0
@14130 Channel: 0 Note on, C2 key=36 velocity: 127
@14148 Channel: 0 Note on, C2 key=36 velocity: 0
@14160 Channel: 0 Note on, C2 key=36 velocity: 127
@14185 Channel: 0 Note on, C2 key=36 velocity: 0
@14220 Channel: 0 Note on, C2 key=36 velocity: 127
@14236 Channel: 0 Note on, C2 key=36 velocity: 0
@14250 Channel: 0 Note on, C2 key=36 velocity: 127
@14270 Channel: 0 Note on, C2 key=36 velocity: 0
@14280 Channel: 0 Note on, C2 key=36 velocity: 127
@14296 Channel: 0 Note on, C2 key=36 velocity: 0
@14310 Channel: 0 Note on, C2 key=36 velocity: 127
@14328 Channel: 0 Note on, C2 key=36 velocity: 0
@14340 Channel: 0 Note on, C2 key=36 velocity: 127
@14355 Channel: 0 Note on, C2 key=36 velocity: 0
@14370 Channel: 0 Note on, C2 key=36 velocity: 127
@14389 Channel: 0 Note on, C2 key=36 velocity: 0
@14400 Channel: 0 Note on, C2 key=36 velocity: 127
@14427 Channel: 0 Note on, C2 key=36 velocity: 0
@14460 Channel: 0 Note on, C2 key=36 velocity: 127
@14479 Channel: 0 Note on, C2 key=36 velocity: 0
@14490 Channel: 0 Note on, C2 key=36 velocity: 127
@14507 Channel: 0 Note on, C2 key=36 velocity: 0
@14520 Channel: 0 Note on, C2 key=36 velocity: 127
@14537 Channel: 0 Note on, C2 key=36 velocity: 0
@14550 Channel: 0 Note on, C2 key=36 velocity: 127
@14565 Channel: 0 Note on, C2 key=36 velocity: 0
@14580 Channel: 0 Note on, C2 key=36 velocity: 127
@14597 Channel: 0 Note on, C2 key=36 velocity: 0
@14610 Channel: 0 Note on, C2 key=36 velocity: 127
@14628 Channel: 0 Note on, C2 key=36 velocity: 0
@14640 Channel: 0 Note on, C2 key=36 velocity: 127
@14665 Channel: 0 Note on, C2 key=36 velocity: 0
@14700 Channel: 0 Note on, C2 key=36 velocity: 127
@14716 Channel: 0 Note on, C2 key=36 velocity: 0
@14730 Channel: 0 Note on, C2 key=36 velocity: 127
@14750 Channel: 0 Note on, C2 key=36 velocity: 0
@14760 Channel: 0 Note on, C2 key=36 velocity: 127
@14776 Channel: 0 Note on, C2 key=36 velocity: 0
@14790 Channel: 0 Note on, C2 key=36 velocity: 127
@14808 Channel: 0 Note on, C2 key=36 velocity: 0
@14820 Channel: 0 Note on, C2 key=36 velocity: 127
@14835 Channel: 0 Note on, C2 key=36 velocity: 0
@14850 Channel: 0 Note on, C2 key=36 velocity: 127
@14869 Channel: 0 Note on, C2 key=36 velocity: 0
@14880 Channel: 0 Note on, C2 key=36 velocity: 127
@14903 Channel: 0 Note on, C2 key=36 velocity: 0
@14940 Channel: 0 Note on, C2 key=36 velocity: 127
@14961 Channel: 0 Note on, C2 key=36 velocity: 0
@14970 Channel: 0 Note on, C2 key=36 velocity: 127
@14986 Channel: 0 Note on, C2 key=36 velocity: 0
@15000 Channel: 0 Note on, C2 key=36 velocity: 127
@15020 Channel: 0 Note on, C2 key=36 velocity: 0
@15030 Channel: 0 Note on, C2 key=36 velocity: 127
@15048 Channel: 0 Note on, C2 key=36 velocity: 0
@15060 Channel: 0 Note on, C2 key=36 velocity: 127
@15082 Channel: 0 Note on, C2 key=36 velocity: 0
@15090 Channel: 0 Note on, C2 key=36 velocity: 127
@15108 Channel: 0 Note on, C2 key=36 velocity: 0
@15120 Channel: 0 Note on, C2 key=36 velocity: 127
@15150 Channel: 0 Note on, C2 key=36 velocity: 0
@15180 Channel: 0 Note on, C2 key=36 velocity: 127
@15199 Channel: 0 Note on, C2 key=36 velocity: 0
@15210 Channel: 0 Note on, C2 key=36 velocity: 127
@15229 Channel: 0 Note on, C2 key=36 velocity: 0
@15240 Channel: 0 Note on, C2 key=36 velocity: 127
@15257 Channel: 0 Note on, C2 key=36 velocity: 0
@15270 Channel: 0 Note on, C2 key=36 velocity: 127
@15295 Channel: 0 Note on, C2 key=36 velocity: 0
@15300 Channel: 0 Note on, C2 key=36 velocity: 127
@15319 Channel: 0 Note on, C2 key=36 velocity: 0
@15330 Channel: 0 Note on, C2 key=36 velocity: 127
@15353 Channel: 0 Note on, C2 key=36 velocity: 0
@15360 Channel: 0 Note on, C2 key=36 velocity: 127
@15375 Channel: 0 Note on, C2 key=36 velocity: 0
@15420 Channel: 0 Note on, C2 key=36 velocity: 127
@15438 Channel: 0 Note on, C2 key=36 velocity: 0
@15450 Channel: 0 Note on, C2 key=36 velocity: 127
@15464 Channel: 0 Note on, C2 key=36 velocity: 0
@15480 Channel: 0 Note on, C2 key=36 velocity: 127
@15498 Channel: 0 Note on, C2 key=36 velocity: 0
@15510 Channel: 0 Note on, C2 key=36 velocity: 127
@15526 Channel: 0 Note on, C2 key=36 velocity: 0
@15540 Channel: 0 Note on, C2 key=36 velocity: 127
@15557 Channel: 0 Note on, C2 key=36 velocity: 0
@15570 Channel: 0 Note on, C2 key=36 velocity: 127
@15585 Channel: 0 Note on, C2 key=36 velocity: 0
@15600 Channel: 0 Note on, C2 key=36 velocity: 127
@15623 Channel: 0 Note on, C2 key=36 velocity: 0
@15660 Channel: 0 Note on, C2 key=36 velocity: 127
@15677 Channel: 0 Note on, C2 key=36 velocity: 0
@15690 Channel: 0 Note on, C2 key=36 velocity: 127
@15709 Channel: 0 Note on, C2 key=36 velocity: 0
@15720 Channel: 0 Note on, C2 key=36 velocity: 127
@15733 Channel: 0 Note on, C2 key=36 velocity: 0
@15750 Channel: 0 Note on, C2 key=36 velocity: 127
@15769 Channel: 0 Note on, C2 key=36 velocity: 0
@15780 Channel: 0 Note on, C2 key=36 velocity: 127
@15796 Channel: 0 Note on, C2 key=36 velocity: 0
@15810 Channel: 0 Note on, C2 key=36 velocity: 127
@15832 Channel: 0 Note on, C2 key=36 velocity: 0
@15840 Channel: 0 Note on, C2 key=36 velocity: 127
@15860 Channel: 0 Note on, C2 key=36 velocity: 0
@15900 Channel: 0 Note on, C2 key=36 velocity: 127
@15918 Channel: 0 Note on, C2 key=36 velocity: 0
@15930 Channel: 0 Note on, C2 key=36 velocity: 127
@15944 Channel: 0 Note on, C2 key=36 velocity: 0
@15960 Channel: 0 Note on, C2 key=36 velocity: 127
@15978 Channel: 0 Note on, C2 key=36 velocity: 0
@15990 Channel: 0 Note on, C2 key=36 velocity: 127
@16006 Channel: 0 Note on, C2 key=36 velocity: 0
@16020 Channel: 0 Note on, C2 key=36 velocity: 127
@16037 Channel: 0 Note on, C2 key=36 velocity: 0
@16050 Channel: 0 Note on, C2 key=36 velocity: 127
@16065 Channel: 0 Note on, C2 key=36 velocity: 0
@16080 Channel: 0 Note on, C2 key=36 velocity: 127
@16103 Channel: 0 Note on, C2 key=36 velocity: 0
@16140 Channel: 0 Note on, C2 key=36 velocity: 127
@16157 Channel: 0 Note on, C2 key=36 velocity: 0
@16170 Channel: 0 Note on, C2 key=36 velocity: 127
@16189 Channel: 0 Note on, C2 key=36 velocity: 0
@16200 Channel: 0 Note on, C2 key=36 velocity: 127
@16213 Channel: 0 Note on, C2 key=36 velocity: 0
@16230 Channel: 0 Note on, C2 key=36 velocity: 127
@16249 Channel: 0 Note on, C2 key=36 velocity: 0
@16260 Channel: 0 Note on, C2 key=36 velocity: 127
@16276 Channel: 0 Note on, C2 key=36 velocity: 0
@16290 Channel: 0 Note on, C2 key=36 velocity: 127
@16312 Channel: 0 Note on, C2 key=36 velocity: 0
@16320 Channel: 0 Note on, G1 key=31 velocity: 127
@16347 Channel: 0 Note on, G1 key=31 velocity: 0
@16380 Channel: 0 Note on, G1 key=31 velocity: 127
@16401 Channel: 0 Note on, G1 key=31 velocity: 0
@16410 Channel: 0 Note on, G1 key=31 velocity: 127
@16424 Channel: 0 Note on, G1 key=31 velocity: 0
@16440 Channel: 0 Note on, G1 key=31 velocity: 127
@16458 Channel: 0 Note on, G1 key=31 velocity: 0
@16470 Channel: 0 Note on, G1 key=31 velocity: 127
@16494 Channel: 0 Note on, G1 key=31 velocity: 0
@16500 Channel: 0 Note on, G1 key=31 velocity: 127
@16522 Channel: 0 Note on, G1 key=31 velocity: 0
@16530 Channel: 0 Note on, G1 key=31 velocity: 127
@16548 Channel: 0 Note on, G1 key=31 velocity: 0
@16560 Channel: 0 Note on, G1 key=31 velocity: 127
@16595 Channel: 0 Note on, G1 key=31 velocity: 0
@16620 Channel: 0 Note on, G1 key=31 velocity: 127
@16637 Channel: 0 Note on, G1 key=31 velocity: 0
@16650 Channel: 0 Note on, G1 key=31 velocity: 127
@16667 Channel: 0 Note on, G1 key=31 velocity: 0
@16680 Channel: 0 Note on, G1 key=31 velocity: 127
@16699 Channel: 0 Note on, G1 key=31 velocity: 0
@16710 Channel: 0 Note on, G1 key=31 velocity: 127
@16729 Channel: 0 Note on, G1 key=31 velocity: 0
@16740 Channel: 0 Note on, G1 key=31 velocity: 127
@16759 Channel: 0 Note on, G1 key=31 velocity: 0
@16770 Channel: 0 Note on, G1 key=31 velocity: 127
@16793 Channel: 0 Note on, G1 key=31 velocity: 0
@16800 Channel: 0 Note on, G1 key=31 velocity: 127
@16827 Channel: 0 Note on, G1 key=31 velocity: 0
@16860 Channel: 0 Note on, G1 key=31 velocity: 127
@16880 Channel: 0 Note on, G1 key=31 velocity: 0
@16890 Channel: 0 Note on, G1 key=31 velocity: 127
@16908 Channel: 0 Note on, G1 key=31 velocity: 0
@16920 Channel: 0 Note on, G1 key=31 velocity: 127
@16941 Channel: 0 Note on, G1 key=31 velocity: 0
@16950 Channel: 0 Note on, G1 key=31 velocity: 127
@16969 Channel: 0 Note on, G1 key=31 velocity: 0
@16980 Channel: 0 Note on, G1 key=31 velocity: 127
@16997 Channel: 0 Note on, G1 key=31 velocity: 0
@17010 Channel: 0 Note on, G1 key=31 velocity: 127
@17023 Channel: 0 Note on, G1 key=31 velocity: 0
@17040 Channel: 0 Note on, G1 key=31 velocity: 127
@17073 Channel: 0 Note on, G1 key=31 velocity: 0
@17100 Channel: 0 Note on, G1 key=31 velocity: 127
@17119 Channel: 0 Note on, G1 key=31 velocity: 0
@17130 Channel: 0 Note on, G1 key=31 velocity: 127
@17147 Channel: 0 Note on, G1 key=31 velocity: 0
@17160 Channel: 0 Note on, G1 key=31 velocity: 127
@17177 Channel: 0 Note on, G1 key=31 velocity: 0
@17190 Channel: 0 Note on, G1 key=31 velocity: 127
@17209 Channel: 0 Note on, G1 key=31 velocity: 0
@17220 Channel: 0 Note on, G1 key=31 velocity: 127
@17232 Channel: 0 Note on, G1 key=31 velocity: 0
@17250 Channel: 0 Note on, G1 key=31 velocity: 127
@17272 Channel: 0 Note on, G1 key=31 velocity: 0
@17280 Channel: 0 Note on, E1 key=28 velocity: 127
@17315 Channel: 0 Note on, E1 key=28 velocity: 0
@17340 Channel: 0 Note on, E1 key=28 velocity: 127
@17360 Channel: 0 Note on, E1 key=28 velocity: 0
@17370 Channel: 0 Note on, E1 key=28 velocity: 127
@17388 Channel: 0 Note on, E1 key=28 velocity: 0
@17400 Channel: 0 Note on, E1 key=28 velocity: 127
@17419 Channel: 0 Note on, E1 key=28 velocity: 0
@17430 Channel: 0 Note on, E1 key=28 velocity: 127
@17451 Channel: 0 Note on, E1 key=28 velocity: 0
@17460 Channel: 0 Note on, E1 key=28 velocity: 127
@17479 Channel: 0 Note on, E1 key=28 velocity: 0
@17490 Channel: 0 Note on, E1 key=28 velocity: 127
@17505 Channel: 0 Note on, E1 key=28 velocity: 0
@17520 Channel: 0 Note on, E1 key=28 velocity: 127
@17545 Channel: 0 Note on, E1 key=28 velocity: 0
@17580 Channel: 0 Note on, E1 key=28 velocity: 127
@17597 Channel: 0 Note on, E1 key=28 velocity: 0
@17610 Channel: 0 Note on, E1 key=28 velocity: 127
@17630 Channel: 0 Note on, E1 key=28 velocity: 0
@17640 Channel: 0 Note on, E1 key=28 velocity: 127
@17658 Channel: 0 Note on, E1 key=28 velocity: 0
@17670 Channel: 0 Note on, E1 key=28 velocity: 127
@17690 Channel: 0 Note on, E1 key=28 velocity: 0
@17700 Channel: 0 Note on, E1 key=28 velocity: 127
@17718 Channel: 0 Note on, E1 key=28 velocity: 0
@17730 Channel: 0 Note on, E1 key=28 velocity: 127
@17754 Channel: 0 Note on, E1 key=28 velocity: 0
@17760 Channel: 0 Note on, E1 key=28 velocity: 127
@17783 Channel: 0 Note on, E1 key=28 velocity: 0
@17820 Channel: 0 Note on, E1 key=28 velocity: 127
@17837 Channel: 0 Note on, E1 key=28 velocity: 0
@17850 Channel: 0 Note on, E1 key=28 velocity: 127
@17865 Channel: 0 Note on, E1 key=28 velocity: 0
@17880 Channel: 0 Note on, E1 key=28 velocity: 127
@17899 Channel: 0 Note on, E1 key=28 velocity: 0
@17910 Channel: 0 Note on, E1 key=28 velocity: 127
@17927 Channel: 0 Note on, E1 key=28 velocity: 0
@17940 Channel: 0 Note on, E1 key=28 velocity: 127
@17963 Channel: 0 Note on, E1 key=28 velocity: 0
@17970 Channel: 0 Note on, E1 key=28 velocity: 127
@17987 Channel: 0 Note on, E1 key=28 velocity: 0
@18000 Channel: 0 Note on, E1 key=28 velocity: 127
@18031 Channel: 0 Note on, E1 key=28 velocity: 0
@18060 Channel: 0 Note on, E1 key=28 velocity: 127
@18076 Channel: 0 Note on, E1 key=28 velocity: 0
@18090 Channel: 0 Note on, E1 key=28 velocity: 127
@18112 Channel: 0 Note on, E1 key=28 velocity: 0
@18120 Channel: 0 Note on, E1 key=28 velocity: 127
@18140 Channel: 0 Note on, E1 key=28 velocity: 0
@18150 Channel: 0 Note on, E1 key=28 velocity: 127
@18173 Channel: 0 Note on, E1 key=28 velocity: 0
@18180 Channel: 0 Note on, E1 key=28 velocity: 127
@18197 Channel: 0 Note on, E1 key=28 velocity: 0
@18210 Channel: 0 Note on, E1 key=28 velocity: 127
@18229 Channel: 0 Note on, E1 key=28 velocity: 0
@18240 Channel: 0 Note on, F1 key=29 velocity: 127
@18282 Channel: 0 Note on, F1 key=29 velocity: 0
@18300 Channel: 0 Note on, F1 key=29 velocity: 127
@18321 Channel: 0 Note on, F1 key=29 velocity: 0
@18330 Channel: 0 Note on, F1 key=29 velocity: 127
@18345 Channel: 0 Note on, F1 key=29 velocity: 0
@18360 Channel: 0 Note on, F1 key=29 velocity: 127
@18381 Channel: 0 Note on, F1 key=29 velocity: 0
@18390 Channel: 0 Note on, F1 key=29 velocity: 127
@18403 Channel: 0 Note on, F1 key=29 velocity: 0
@18420 Channel: 0 Note on, F1 key=29 velocity: 127
@18443 Channel: 0 Note on, F1 key=29 velocity: 0
@18450 Channel: 0 Note on, F1 key=29 velocity: 127
@18468 Channel: 0 Note on, F1 key=29 velocity: 0
@18480 Channel: 0 Note on, F1 key=29 velocity: 127
@18507 Channel: 0 Note on, F1 key=29 velocity: 0
@18540 Channel: 0 Note on, F1 key=29 velocity: 127
@18554 Channel: 0 Note on, F1 key=29 velocity: 0
@18570 Channel: 0 Note on, F1 key=29 velocity: 127
@18588 Channel: 0 Note on, F1 key=29 velocity: 0
@18600 Channel: 0 Note on, F1 key=29 velocity: 127
@18622 Channel: 0 Note on, F1 key=29 velocity: 0
@18630 Channel: 0 Note on, F1 key=29 velocity: 127
@18651 Channel: 0 Note on, F1 key=29 velocity: 0
@18660 Channel: 0 Note on, F1 key=29 velocity: 127
@18679 Channel: 0 Note on, F1 key=29 velocity: 0
@18690 Channel: 0 Note on, F1 key=29 velocity: 127
@18711 Channel: 0 Note on, F1 key=29 velocity: 0
@18720 Channel: 0 Note on, F1 key=29 velocity: 127
@18749 Channel: 0 Note on, F1 key=29 velocity: 0
@18780 Channel: 0 Note on, F1 key=29 velocity: 127
@18801 Channel: 0 Note on, F1 key=29 velocity: 0
@18810 Channel: 0 Note on, F1 key=29 velocity: 127
@18825 Channel: 0 Note on, F1 key=29 velocity: 0
@18840 Channel: 0 Note on, F1 key=29 velocity: 127
@18859 Channel: 0 Note on, F1 key=29 velocity: 0
@18870 Channel: 0 Note on, F1 key=29 velocity: 127
@18890 Channel: 0 Note on, F1 key=29 velocity: 0
@18900 Channel: 0 Note on, F1 key=29 velocity: 127
@18922 Channel: 0 Note on, F1 key=29 velocity: 0
@18930 Channel: 0 Note on, F1 key=29 velocity: 127
@18948 Channel: 0 Note on, F1 key=29 velocity: 0
@18960 Channel: 0 Note on, F1 key=29 velocity: 127
@18995 Channel: 0 Note on, F1 key=29 velocity: 0
@19020 Channel: 0 Note on, F1 key=29 velocity: 127
@19038 Channel: 0 Note on, F1 key=29 velocity: 0
@19050 Channel: 0 Note on, F1 key=29 velocity: 127
@19071 Channel: 0 Note on, F1 key=29 velocity: 0
@19080 Channel: 0 Note on, F1 key=29 velocity: 127
@19097 Channel: 0 Note on, F1 key=29 velocity: 0
@19110 Channel: 0 Note on, F1 key=29 velocity: 127
@19129 Channel: 0 Note on, F1 key=29 velocity: 0
@19140 Channel: 0 Note on, F1 key=29 velocity: 127
@19159 Channel: 0 Note on, F1 key=29 velocity: 0
@19170 Channel: 0 Note on, F1 key=29 velocity: 127
@19189 Channel: 0 Note on, F1 key=29 velocity: 0
@19200 Channel: 0 Note on, C2 key=36 velocity: 127
@19239 Channel: 0 Note on, C2 key=36 velocity: 0
@19260 Channel: 0 Note on, C2 key=36 velocity: 127
@19279 Channel: 0 Note on, C2 key=36 velocity: 0
@19290 Channel: 0 Note on, C2 key=36 velocity: 127
@19306 Channel: 0 Note on, C2 key=36 velocity: 0
@19320 Channel: 0 Note on, C2 key=36 velocity: 127
@19345 Channel: 0 Note on, C2 key=36 velocity: 0
@19350 Channel: 0 Note on, C2 key=36 velocity: 127
@19368 Channel: 0 Note on, C2 key=36 velocity: 0
@19380 Channel: 0 Note on, C2 key=36 velocity: 127
@19396 Channel: 0 Note on, C2 key=36 velocity: 0
@19410 Channel: 0 Note on, C2 key=36 velocity: 127
@19426 Channel: 0 Note on, C2 key=36 velocity: 0
@19440 Channel: 0 Note on, C2 key=36 velocity: 127
@19475 Channel: 0 Note on, C2 key=36 velocity: 0
@19500 Channel: 0 Note on, C2 key=36 velocity: 127
@19513 Channel: 0 Note on, C2 key=36 velocity: 0
@19530 Channel: 0 Note on, C2 key=36 velocity: 127
@19547 Channel: 0 Note on, C2 key=36 velocity: 0
@19560 Channel: 0 Note on, C2 key=36 velocity: 127
@19577 Channel: 0 Note on, C2 key=36 velocity: 0
@19590 Channel: 0 Note on, C2 key=36 velocity: 127
@19613 Channel: 0 Note on, C2 key=36 velocity: 0
@19620 Channel: 0 Note on, C2 key=36 velocity: 127
@19639 Channel: 0 Note on, C2 key=36 velocity: 0
@19650 Channel: 0 Note on, C2 key=36 velocity: 127
@19673 Channel: 0 Note on, C2 key=36 velocity: 0
@19680 Channel: 0 Note on, C2 key=36 velocity: 127
@19715 Channel: 0 Note on, C2 key=36 velocity: 0
@19740 Channel: 0 Note on, C2 key=36 velocity: 127
@19760 Channel: 0 Note on, C2 key=36 velocity: 0
@19770 Channel: 0 Note on, C2 key=36 velocity: 127
@19788 Channel: 0 Note on, C2 key=36 velocity: 0
@19800 Channel: 0 Note on, C2 key=36 velocity: 127
@19821 Channel: 0 Note on, C2 key=36 velocity: 0
@19830 Channel: 0 Note on, C2 key=36 velocity: 127
@19849 Channel: 0 Note on, C2 key=36 velocity: 0
@19860 Channel: 0 Note on, C2 key=36 velocity: 127
@19883 Channel: 0 Note on, C2 key=36 velocity: 0
@19890 Channel: 0 Note on, C2 key=36 velocity: 127
@19909 Channel: 0 Note on, C2 key=36 velocity: 0
@19920 Channel: 0 Note on, C2 key=36 velocity: 127
@19953 Channel: 0 Note on, C2 key=36 velocity: 0
@19980 Channel: 0 Note on, C2 key=36 velocity: 127
@19999 Channel: 0 Note on, C2 key=36 velocity: 0
@20010 Channel: 0 Note on, C2 key=36 velocity: 127
@20035 Channel: 0 Note on, C2 key=36 velocity: 0
@20040 Channel: 0 Note on, C2 key=36 velocity: 127
@20059 Channel: 0 Note on, C2 key=36 velocity: 0
@20070 Channel: 0 Note on, C2 key=36 velocity: 127
@20093 Channel: 0 Note on, C2 key=36 velocity: 0
@20100 Channel: 0 Note on, C2 key=36 velocity: 127
@20118 Channel: 0 Note on, C2 key=36 velocity: 0
@20130 Channel: 0 Note on, C2 key=36 velocity: 127
@20154 Channel: 0 Note on, C2 key=36 velocity: 0
@20160 Channel: 0 Note on, G1 key=31 velocity: 127
@20199 Channel: 0 Note on, G1 key=31 velocity: 0
@20220 Channel: 0 Note on, G1 key=31 velocity: 127
@20240 Channel: 0 Note on, G1 key=31 velocity: 0
@20250 Channel: 0 Note on, G1 key=31 velocity: 127
@20272 Channel: 0 Note on, G1 key=31 velocity: 0
@20280 Channel: 0 Note on, G1 key=31 velocity: 127
@20301 Channel: 0 Note on, G1 key=31 velocity: 0
@20310 Channel: 0 Note on, G1 key=31 velocity: 127
@20328 Channel: 0 Note on, G1 key=31 velocity: 0
@20340 Channel: 0 Note on, G1 key=31 velocity: 127
@20363 Channel: 0 Note on, G1 key=31 velocity: 0
@20370 Channel: 0 Note on, G1 key=31 velocity: 127
@20387 Channel: 0 Note on, G1 key=31 velocity: 0
@20400 Channel: 0 Note on, G1 key=31 velocity: 127
@20429 Channel: 0 Note on, G1 key=31 velocity: 0
@20460 Channel: 0 Note on, G1 key=31 velocity: 127
@20479 Channel: 0 Note on, G1 key=31 velocity: 0
@20490 Channel: 0 Note on, G1 key=31 velocity: 127
@20509 Channel: 0 Note on, G1 key=31 velocity: 0
@20520 Channel: 0 Note on, G1 key=31 velocity: 127
@20539 Channel: 0 Note on, G1 key=31 velocity: 0
@20550 Channel: 0 Note on, G1 key=31 velocity: 127
@20574 Channel: 0 Note on, G1 key=31 velocity: 0
@20580 Channel: 0 Note on, G1 key=31 velocity: 127
@20600 Channel: 0 Note on, G1 key=31 velocity: 0
@20610 Channel: 0 Note on, G1 key=31 velocity: 127
@20636 Channel: 0 Note on, G1 key=31 velocity: 0
@20640 Channel: 0 Note on, G1 key=31 velocity: 127
@20675 Channel: 0 Note on, G1 key=31 velocity: 0
@20700 Channel: 0 Note on, G1 key=31 velocity: 127
@20719 Channel: 0 Note on, G1 key=31 velocity: 0
@20730 Channel: 0 Note on, G1 key=31 velocity: 127
@20747 Channel: 0 Note on, G1 key=31 velocity: 0
@20760 Channel: 0 Note on, G1 key=31 velocity: 127
@20779 Channel: 0 Note on, G1 key=31 velocity: 0
@20790 Channel: 0 Note on, G1 key=31 velocity: 127
@20807 Channel: 0 Note on, G1 key=31 velocity: 0
@20820 Channel: 0 Note on, G1 key=31 velocity: 127
@20843 Channel: 0 Note on, G1 key=31 velocity: 0
@20850 Channel: 0 Note on, G1 key=31 velocity: 127
@20871 Channel: 0 Note on, G1 key=31 velocity: 0
@20880 Channel: 0 Note on, G1 key=31 velocity: 127
@20909 Channel: 0 Note on, G1 key=31 velocity: 0
@20940 Channel: 0 Note on, G1 key=31 velocity: 127
@20958 Channel: 0 Note on, G1 key=31 velocity: 0
@20970 Channel: 0 Note on, G1 key=31 velocity: 127
@20992 Channel: 0 Note on, G1 key=31 velocity: 0
@21000 Channel: 0 Note on, G1 key=31 velocity: 127
@21020 Channel: 0 Note on, G1 key=31 velocity: 0
@21030 Channel: 0 Note on, G1 key=31 velocity: 127
@21052 Channel: 0 Note on, G1 key=31 velocity: 0
@21060 Channel: 0 Note on, G1 key=31 velocity: 127
@21079 Channel: 0 Note on, G1 key=31 velocity: 0
@21090 Channel: 0 Note on, G1 key=31 velocity: 127
@21115 Channel: 0 Note on, G1 key=31 velocity: 0
@21120 Channel: 0 Note on, F1 key=29 velocity: 127
@21157 Channel: 0 Note on, F1 key=29 velocity: 0
@21180 Channel: 0 Note on, F1 key=29 velocity: 127
@21199 Channel: 0 Note on, F1 key=29 velocity: 0
@21210 Channel: 0 Note on, F1 key=29 velocity: 127
@21227 Channel: 0 Note on, F1 key=29 velocity: 0
@21240 Channel: 0 Note on, F1 key=29 velocity: 127
@21259 Channel: 0 Note on, F1 key=29 velocity: 0
@21270 Channel: 0 Note on, F1 key=29 velocity: 127
@21289 Channel: 0 Note on, F1 key=29 velocity: 0
@21300 Channel: 0 Note on, F1 key=29 velocity: 127
@21321 Channel: 0 Note on, F1 key=29 velocity: 0
@21330 Channel: 0 Note on, F1 key=29 velocity: 127
@21352 Channel: 0 Note on, F1 key=29 velocity: 0
@21360 Channel: 0 Note on, F1 key=29 velocity: 127
@21397 Channel: 0 Note on, F1 key=29 velocity: 0
@21420 Channel: 0 Note on, F1 key=29 velocity: 127
@21440 Channel: 0 Note on, F1 key=29 velocity: 0
@21450 Channel: 0 Note on, F1 key=29 velocity: 127
@21470 Channel: 0 Note on, F1 key=29 velocity: 0
@21480 Channel: 0 Note on, F1 key=29 velocity: 127
@21498 Channel: 0 Note on, F1 key=29 velocity: 0
@21510 Channel: 0 Note on, F1 key=29 velocity: 127
@21530 Channel: 0 Note on, F1 key=29 velocity: 0
@21540 Channel: 0 Note on, F1 key=29 velocity: 127
@21561 Channel: 0 Note on, F1 key=29 velocity: 0
@21570 Channel: 0 Note on, F1 key=29 velocity: 127
@21585 Channel: 0 Note on, F1 key=29 velocity: 0
@21600 Channel: 0 Note on, A1 key=33 velocity: 127
@21641 Channel: 0 Note on, A1 key=33 velocity: 0
@21660 Channel: 0 Note on, A1 key=33 velocity: 127
@21677 Channel: 0 Note on, A1 key=33 velocity: 0
@21690 Channel: 0 Note on, A1 key=33 velocity: 127
@21703 Channel: 0 Note on, A1 key=33 velocity: 0
@21720 Channel: 0 Note on, A1 key=33 velocity: 127
@21739 Channel: 0 Note on, A1 key=33 velocity: 0
@21750 Channel: 0 Note on, A1 key=33 velocity: 127
@21767 Channel: 0 Note on, A1 key=33 velocity: 0
@21780 Channel: 0 Note on, A1 key=33 velocity: 127
@21803 Channel: 0 Note on, A1 key=33 velocity: 0
@21810 Channel: 0 Note on, A1 key=33 velocity: 127
@21826 Channel: 0 Note on, A1 key=33 velocity: 0
@21840 Channel: 0 Note on, A1 key=33 velocity: 127
@21871 Channel: 0 Note on, A1 key=33 velocity: 0
@21900 Channel: 0 Note on, A1 key=33 velocity: 127
@21918 Channel: 0 Note on, A1 key=33 velocity: 0
@21930 Channel: 0 Note on, A1 key=33 velocity: 127
@21948 Channel: 0 Note on, A1 key=33 velocity: 0
@21960 Channel: 0 Note on, A1 key=33 velocity: 127
@21977 Channel: 0 Note on, A1 key=33 velocity: 0
@21990 Channel: 0 Note on, A1 key=33 velocity: 127
@22007 Channel: 0 Note on, A1 key=33 velocity: 0
@22020 Channel: 0 Note on, A1 key=33 velocity: 127
@22039 Channel: 0 Note on, A1 key=33 velocity: 0
@22050 Channel: 0 Note on, A1 key=33 velocity: 127
@22071 Channel: 0 Note on, A1 key=33 velocity: 0
@22080 Channel: 0 Note on, G1 key=31 velocity: 127
@22121 Channel: 0 Note on, G1 key=31 velocity: 0
@22140 Channel: 0 Note on, G1 key=31 velocity: 127
@22158 Channel: 0 Note on, G1 key=31 velocity: 0
@22170 Channel: 0 Note on, G1 key=31 velocity: 127
@22190 Channel: 0 Note on, G1 key=31 velocity: 0
@22200 Channel: 0 Note on, G1 key=31 velocity: 127
@22218 Channel: 0 Note on, G1 key=31 velocity: 0
@22230 Channel: 0 Note on, G1 key=31 velocity: 127
@22252 Channel: 0 Note on, G1 key=31 velocity: 0
@22260 Channel: 0 Note on, G1 key=31 velocity: 127
@22282 Channel: 0 Note on, G1 key=31 velocity: 0
@22290 Channel: 0 Note on, G1 key=31 velocity: 127
@22310 Channel: 0 Note on, G1 key=31 velocity: 0
@22320 Channel: 0 Note on, G1 key=31 velocity: 127
@22352 Channel: 0 Note on, G1 key=31 velocity: 0
@22380 Channel: 0 Note on, G1 key=31 velocity: 127
@22397 Channel: 0 Note on, G1 key=31 velocity: 0
@22410 Channel: 0 Note on, G1 key=31 velocity: 127
@22433 Channel: 0 Note on, G1 key=31 velocity: 0
@22440 Channel: 0 Note on, G1 key=31 velocity: 127
@22459 Channel: 0 Note on, G1 key=31 velocity: 0
@22470 Channel: 0 Note on, G1 key=31 velocity: 127
@22491 Channel: 0 Note on, G1 key=31 velocity: 0
@22500 Channel: 0 Note on, G1 key=31 velocity: 127
@22519 Channel: 0 Note on, G1 key=31 velocity: 0
@22530 Channel: 0 Note on, G1 key=31 velocity: 127
@22553 Channel: 0 Note on, G1 key=31 velocity: 0
@22560 Channel: 0 Note on, G1 key=31 velocity: 127
@22595 Channel: 0 Note on, G1 key=31 velocity: 0
@22620 Channel: 0 Note on, G1 key=31 velocity: 127
@22638 Channel: 0 Note on, G1 key=31 velocity: 0
@22650 Channel: 0 Note on, G1 key=31 velocity: 127
@22672 Channel: 0 Note on, G1 key=31 velocity: 0
@22680 Channel: 0 Note on, G1 key=31 velocity: 127
@22700 Channel: 0 Note on, G1 key=31 velocity: 0
@22710 Channel: 0 Note on, G1 key=31 velocity: 127
@22730 Channel: 0 Note on, G1 key=31 velocity: 0
@22740 Channel: 0 Note on, G1 key=31 velocity: 127
@22762 Channel: 0 Note on, G1 key=31 velocity: 0
@22770 Channel: 0 Note on, G1 key=31 velocity: 127
@22788 Channel: 0 Note on, G1 key=31 velocity: 0
@22800 Channel: 0 Note on, G1 key=31 velocity: 127
@22828 Channel: 0 Note on, G1 key=31 velocity: 0
@22860 Channel: 0 Note on, G1 key=31 velocity: 127
@22875 Channel: 0 Note on, G1 key=31 velocity: 0
@22890 Channel: 0 Note on, G1 key=31 velocity: 127
@22913 Channel: 0 Note on, G1 key=31 velocity: 0
@22920 Channel: 0 Note on, G1 key=31 velocity: 127
@22939 Channel: 0 Note on, G1 key=31 velocity: 0
@22950 Channel: 0 Note on, G1 key=31 velocity: 127
@22975 Channel: 0 Note on, G1 key=31 velocity: 0
@22980 Channel: 0 Note on, G1 key=31 velocity: 127
@23005 Channel: 0 Note on, G1 key=31 velocity: 0
@23010 Channel: 0 Note on, G1 key=31 velocity: 127
@23027 Channel: 0 Note on, G1 key=31 velocity: 0
@23040 Channel: 0 Note on, C2 key=36 velocity: 127
@23075 Channel: 0 Note on, C2 key=36 velocity: 0
@23100 Channel: 0 Note on, C2 key=36 velocity: 127
@23120 Channel: 0 Note on, C2 key=36 velocity: 0
@23130 Channel: 0 Note on, C2 key=36 velocity: 127
@23146 Channel: 0 Note on, C2 key=36 velocity: 0
@23160 Channel: 0 Note on, C2 key=36 velocity: 127
@23180 Channel: 0 Note on, C2 key=36 velocity: 0
@23190 Channel: 0 Note on, C2 key=36 velocity: 127
@23206 Channel: 0 Note on, C2 key=36 velocity: 0
@23220 Channel: 0 Note on, C2 key=36 velocity: 127
@23239 Channel: 0 Note on, C2 key=36 velocity: 0
@23250 Channel: 0 Note on, C2 key=36 velocity: 127
@23267 Channel: 0 Note on, C2 key=36 velocity: 0
@23280 Channel: 0 Note on, C2 key=36 velocity: 127
@23309 Channel: 0 Note on, C2 key=36 velocity: 0
@23340 Channel: 0 Note on, C2 key=36 velocity: 127
@23357 Channel: 0 Note on, C2 key=36 velocity: 0
@23370 Channel: 0 Note on, C2 key=36 velocity: 127
@23389 Channel: 0 Note on, C2 key=36 velocity: 0
@23400 Channel: 0 Note on, C2 key=36 velocity: 127
@23419 Channel: 0 Note on, C2 key=36 velocity: 0
@23430 Channel: 0 Note on, C2 key=36 velocity: 127
@23451 Channel: 0 Note on, C2 key=36 velocity: 0
@23460 Channel: 0 Note on, C2 key=36 velocity: 127
@23478 Channel: 0 Note on, C2 key=36 velocity: 0
@23490 Channel: 0 Note on, C2 key=36 velocity: 127
@23513 Channel: 0 Note on, C2 key=36 velocity: 0
@23520 Channel: 0 Note on, C2 key=36 velocity: 127
@23546 Channel: 0 Note on, C2 key=36 velocity: 0
@23580 Channel: 0 Note on, C2 key=36 velocity: 127
@23599 Channel: 0 Note on, C2 key=36 velocity: 0
@23610 Channel: 0 Note on, C2 key=36 velocity: 127
@23629 Channel: 0 Note on, C2 key=36 velocity: 0
@23640 Channel: 0 Note on, C2 key=36 velocity: 127
@23661 Channel: 0 Note on, C2 key=36 velocity: 0
@23670 Channel: 0 Note on, C2 key=36 velocity: 127
@23687 Channel: 0 Note on, C2 key=36 velocity: 0
@23700 Channel: 0 Note on, C2 key=36 velocity: 127
@23721 Channel: 0 Note on, C2 key=36 velocity: 0
@23730 Channel: 0 Note on, C2 key=36 velocity: 127
@23747 Channel: 0 Note on, C2 key=36 velocity: 0
@23760 Channel: 0 Note on, C2 key=36 velocity: 127
@23791 Channel: 0 Note on, C2 key=36 velocity: 0
@23820 Channel: 0 Note on, C2 key=36 velocity: 127
@23838 Channel: 0 Note on, C2 key=36 velocity: 0
@23850 Channel: 0 Note on, C2 key=36 velocity: 127
@23870 Channel: 0 Note on, C2 key=36 velocity: 0
@23880 Channel: 0 Note on, C2 key=36 velocity: 127
@23896 Channel: 0 Note on, C2 key=36 velocity: 0
@23910 Channel: 0 Note on, C2 key=36 velocity: 127
@23932 Channel: 0 Note on, C2 key=36 velocity: 0
@23940 Channel: 0 Note on, C2 key=36 velocity: 127
@23956 Channel: 0 Note on, C2 key=36 velocity: 0
@23970 Channel: 0 Note on, C2 key=36 velocity: 127
@23990 Channel: 0 Note on, C2 key=36 velocity: 0
@24000 Channel: 0 Note on, A1 key=33 velocity: 127
@24035 Channel: 0 Note on, A1 key=33 velocity: 0
@24060 Channel: 0 Note on, A1 key=33 velocity: 127
@24081 Channel: 0 Note on, A1 key=33 velocity: 0
@24090 Channel: 0 Note on, A1 key=33 velocity: 127
@24107 Channel: 0 Note on, A1 key=33 velocity: 0
@24120 Channel: 0 Note on, A1 key=33 velocity: 127
@24140 Channel: 0 Note on, A1 key=33 velocity: 0
@24150 Channel: 0 Note on, A1 key=33 velocity: 127
@24166 Channel: 0 Note on, A1 key=33 velocity: 0
@24180 Channel: 0 Note on, A1 key=33 velocity: 127
@24200 Channel: 0 Note on, A1 key=33 velocity: 0
@24210 Channel: 0 Note on, A1 key=33 velocity: 127
@24228 Channel: 0 Note on, A1 key=33 velocity: 0
@24240 Channel: 0 Note on, A1 key=33 velocity: 127
@24270 Channel: 0 Note on, A1 key=33 velocity: 0
@24300 Channel: 0 Note on, A1 key=33 velocity: 127
@24319 Channel: 0 Note on, A1 key=33 velocity: 0
@24330 Channel: 0 Note on, A1 key=33 velocity: 127
@24348 Channel: 0 Note on, A1 key=33 velocity: 0
@24360 Channel: 0 Note on, A1 key=33 velocity: 127
@24379 Channel: 0 Note on, A1 key=33 velocity: 0
@24390 Channel: 0 Note on, A1 key=33 velocity: 127
@24407 Channel: 0 Note on, A1 key=33 velocity: 0
@24420 Channel: 0 Note on, A1 key=33 velocity: 127
@24435 Channel: 0 Note on, A1 key=33 velocity: 0
@24450 Channel: 0 Note on, A1 key=33 velocity: 127
@24469 Channel: 0 Note on, A1 key=33 velocity: 0
@24480 Channel: 0 Note on, A1 key=33 velocity: 127
@24505 Channel: 0 Note on, A1 key=33 velocity: 0
@24540 Channel: 0 Note on, A1 key=33 velocity: 127
@24557 Channel: 0 Note on, A1 key=33 velocity: 0
@24570 Channel: 0 Note on, A1 key=33 velocity: 127
@24586 Channel: 0 Note on, A1 key=33 velocity: 0
@24600 Channel: 0 Note on, A1 key=33 velocity: 127
@24620 Channel: 0 Note on, A1 key=33 velocity: 0
@24630 Channel: 0 Note on, A1 key=33 velocity: 127
@24644 Channel: 0 Note on, A1 key=33 velocity: 0
@24660 Channel: 0 Note on, A1 key=33 velocity: 127
@24678 Channel: 0 Note on, A1 key=33 velocity: 0
@24690 Channel: 0 Note on, A1 key=33 velocity: 127
@24706 Channel: 0 Note on, A1 key=33 velocity: 0
@24720 Channel: 0 Note on, A1 key=33 velocity: 127
@24751 Channel: 0 Note on, A1 key=33 velocity: 0
@24780 Channel: 0 Note on, A1 key=33 velocity: 127
@24799 Channel: 0 Note on, A1 key=33 velocity: 0
@24810 Channel: 0 Note on, A1 key=33 velocity: 127
@24825 Channel: 0 Note on, A1 key=33 velocity: 0
@24840 Channel: 0 Note on, A1 key=33 velocity: 127
@24855 Channel: 0 Note on, A1 key=33 velocity: 0
@24870 Channel: 0 Note on, A1 key=33 velocity: 127
@24887 Channel: 0 Note on, A1 key=33 velocity: 0
@24900 Channel: 0 Note on, A1 key=33 velocity: 127
@24915 Channel: 0 Note on, A1 key=33 velocity: 0
@24930 Channel: 0 Note on, A1 key=33 velocity: 127
@24949 Channel: 0 Note on, A1 key=33 velocity: 0
@24960 Channel: 0 Note on, F1 key=29 velocity: 127
@24989 Channel: 0 Note on, F1 key=29 velocity: 0
@25020 Channel: 0 Note on, F1 key=29 velocity: 127
@25038 Channel: 0 Note on, F1 key=29 velocity: 0
@25050 Channel: 0 Note on, F1 key=29 velocity: 127
@25068 Channel: 0 Note on, F1 key=29 velocity: 0
@25080 Channel: 0 Note on, F1 key=29 velocity: 127
@25096 Channel: 0 Note on, F1 key=29 velocity: 0
@25110 Channel: 0 Note on, F1 key=29 velocity: 127
@25127 Channel: 0 Note on, F1 key=29 velocity: 0
@25140 Channel: 0 Note on, F1 key=29 velocity: 127
@25157 Channel: 0 Note on, F1 key=29 velocity: 0
@25170 Channel: 0 Note on, F1 key=29 velocity: 127
@25187 Channel: 0 Note on, F1 key=29 velocity: 0
@25200 Channel: 0 Note on, F1 key=29 velocity: 127
@25231 Channel: 0 Note on, F1 key=29 velocity: 0
@25260 Channel: 0 Note on, F1 key=29 velocity: 127
@25279 Channel: 0 Note on, F1 key=29 velocity: 0
@25290 Channel: 0 Note on, F1 key=29 velocity: 127
@25307 Channel: 0 Note on, F1 key=29 velocity: 0
@25320 Channel: 0 Note on, F1 key=29 velocity: 127
@25335 Channel: 0 Note on, F1 key=29 velocity: 0
@25350 Channel: 0 Note on, F1 key=29 velocity: 127
@25365 Channel: 0 Note on, F1 key=29 velocity: 0
@25380 Channel: 0 Note on, F1 key=29 velocity: 127
@25398 Channel: 0 Note on, F1 key=29 velocity: 0
@25410 Channel: 0 Note on, F1 key=29 velocity: 127
@25428 Channel: 0 Note on, F1 key=29 velocity: 0
@25440 Channel: 0 Note on, F1 key=29 velocity: 127
@25467 Channel: 0 Note on, F1 key=29 velocity: 0
@25500 Channel: 0 Note on, F1 key=29 velocity: 127
@25518 Channel: 0 Note on, F1 key=29 velocity: 0
@25530 Channel: 0 Note on, F1 key=29 velocity: 127
@25544 Channel: 0 Note on, F1 key=29 velocity: 0
@25560 Channel: 0 Note on, F1 key=29 velocity: 127
@25578 Channel: 0 Note on, F1 key=29 velocity: 0
@25590 Channel: 0 Note on, F1 key=29 velocity: 127
@25605 Channel: 0 Note on, F1 key=29 velocity: 0
@25620 Channel: 0 Note on, F1 key=29 velocity: 127
@25637 Channel: 0 Note on, F1 key=29 velocity: 0
@25650 Channel: 0 Note on, F1 key=29 velocity: 127
@25665 Channel: 0 Note on, F1 key=29 velocity: 0
@25680 Channel: 0 Note on, F1 key=29 velocity: 127
@25709 Channel: 0 Note on, F1 key=29 velocity: 0
@25740 Channel: 0 Note on, F1 key=29 velocity: 127
@25757 Channel: 0 Note on, F1 key=29 velocity: 0
@25770 Channel: 0 Note on, F1 key=29 velocity: 127
@25789 Channel: 0 Note on, F1 key=29 velocity: 0
@25800 Channel: 0 Note on, F1 key=29 velocity: 127
@25818 Channel: 0 Note on, F1 key=29 velocity: 0
@25830 Channel: 0 Note on, F1 key=29 velocity: 127
@25848 Channel: 0 Note on, F1 key=29 velocity: 0
@25860 Channel: 0 Note on, F1 key=29 velocity: 127
@25878 Channel: 0 Note on, F1 key=29 velocity: 0
@25890 Channel: 0 Note on, F1 key=29 velocity: 127
@25912 Channel: 0 Note on, F1 key=29 velocity: 0
@25920 Channel: 0 Note on, E1 key=28 velocity: 127
@25958 Channel: 0 Note on, E1 key=28 velocity: 0
@25980 Channel: 0 Note on, E1 key=28 velocity: 127
@25998 Channel: 0 Note on, E1 key=28 velocity: 0
@26010 Channel: 0 Note on, E1 key=28 velocity: 127
@26029 Channel: 0 Note on, E1 key=28 velocity: 0
@26040 Channel: 0 Note on, E1 key=28 velocity: 127
@26061 Channel: 0 Note on, E1 key=28 velocity: 0
@26070 Channel: 0 Note on, E1 key=28 velocity: 127
@26087 Channel: 0 Note on, E1 key=28 velocity: 0
@26100 Channel: 0 Note on, E1 key=28 velocity: 127
@26117 Channel: 0 Note on, E1 key=28 velocity: 0
@26130 Channel: 0 Note on, E1 key=28 velocity: 127
@26147 Channel: 0 Note on, E1 key=28 velocity: 0
@26160 Channel: 0 Note on, E1 key=28 velocity: 127
@26189 Channel: 0 Note on, E1 key=28 velocity: 0
@26220 Channel: 0 Note on, E1 key=28 velocity: 127
@26243 Channel: 0 Note on, E1 key=28 velocity: 0
@26250 Channel: 0 Note on, E1 key=28 velocity: 127
@26270 Channel: 0 Note on, E1 key=28 velocity: 0
@26280 Channel: 0 Note on, E1 key=28 velocity: 127
@26298 Channel: 0 Note on, E1 key=28 velocity: 0
@26310 Channel: 0 Note on, E1 key=28 velocity: 127
@26330 Channel: 0 Note on, E1 key=28 velocity: 0
@26340 Channel: 0 Note on, E1 key=28 velocity: 127
@26357 Channel: 0 Note on, E1 key=28 velocity: 0
@26370 Channel: 0 Note on, E1 key=28 velocity: 127
@26389 Channel: 0 Note on, E1 key=28 velocity: 0
@26400 Channel: 0 Note on, F1 key=29 velocity: 127
@26441 Channel: 0 Note on, F1 key=29 velocity: 0
@26460 Channel: 0 Note on, F1 key=29 velocity: 127
@26478 Channel: 0 Note on, F1 key=29 velocity: 0
@26490 Channel: 0 Note on, F1 key=29 velocity: 127
@26508 Channel: 0 Note on, F1 key=29 velocity: 0
@26520 Channel: 0 Note on, F1 key=29 velocity: 127
@26538 Channel: 0 Note on, F1 key=29 velocity: 0
@26550 Channel: 0 Note on, F1 key=29 velocity: 127
@26568 Channel: 0 Note on, F1 key=29 velocity: 0
@26580 Channel: 0 Note on, F1 key=29 velocity: 127
@26602 Channel: 0 Note on, F1 key=29 velocity: 0
@26610 Channel: 0 Note on, F1 key=29 velocity: 127
@26627 Channel: 0 Note on, F1 key=29 velocity: 0
@26640 Channel: 0 Note on, G1 key=31 velocity: 127
@26677 Channel: 0 Note on, G1 key=31 velocity: 0
@26700 Channel: 0 Note on, G1 key=31 velocity: 127
@26715 Channel: 0 Note on, G1 key=31 velocity: 0
@26730 Channel: 0 Note on, G1 key=31 velocity: 127
@26747 Channel: 0 Note on, G1 key=31 velocity: 0
@26760 Channel: 0 Note on, G1 key=31 velocity: 127
@26776 Channel: 0 Note on, G1 key=31 velocity: 0
@26790 Channel: 0 Note on, G1 key=31 velocity: 127
@26810 Channel: 0 Note on, G1 key=31 velocity: 0
@26820 Channel: 0 Note on, G1 key=31 velocity: 127
@26840 Channel: 0 Note on, G1 key=31 velocity: 0
@26850 Channel: 0 Note on, G1 key=31 velocity: 127
@26870 Channel: 0 Note on, G1 key=31 velocity: 0
@26880 Channel: 0 Note on, C2 key=36 velocity: 127
@26913 Channel: 0 Note on, C2 key=36 velocity: 0
@26940 Channel: 0 Note on, C2 key=36 velocity: 127
@26957 Channel: 0 Note on, C2 key=36 velocity: 0
@26970 Channel: 0 Note on, C2 key=36 velocity: 127
@26985 Channel: 0 Note on, C2 key=36 velocity: 0
@27000 Channel: 0 Note on, C2 key=36 velocity: 127
@27017 Channel: 0 Note on, C2 key=36 velocity: 0
@27030 Channel: 0 Note on, C2 key=36 velocity: 127
@27047 Channel: 0 Note on, C2 key=36 velocity: 0
@27060 Channel: 0 Note on, C2 key=36 velocity: 127
@27079 Channel: 0 Note on, C2 key=36 velocity: 0
@27090 Channel: 0 Note on, C2 key=36 velocity: 127
@27107 Channel: 0 Note on, C2 key=36 velocity: 0
@27120 Channel: 0 Note on, C2 key=36 velocity: 127
@27149 Channel: 0 Note on, C2 key=36 velocity: 0
@27180 Channel: 0 Note on, C2 key=36 velocity: 127
@27197 Channel: 0 Note on, C2 key=36 velocity: 0
@27210 Channel: 0 Note on, C2 key=36 velocity: 127
@27230 Channel: 0 Note on, C2 key=36 velocity: 0
@27240 Channel: 0 Note on, C2 key=36 velocity: 127
@27256 Channel: 0 Note on, C2 key=36 velocity: 0
@27270 Channel: 0 Note on, C2 key=36 velocity: 127
@27290 Channel: 0 Note on, C2 key=36 velocity: 0
@27300 Channel: 0 Note on, C2 key=36 velocity: 127
@27316 Channel: 0 Note on, C2 key=36 velocity: 0
@27330 Channel: 0 Note on, C2 key=36 velocity: 127
@27352 Channel: 0 Note on, C2 key=36 velocity: 0
@27360 Channel: 0 Note on, C2 key=36 velocity: 127
@27387 Channel: 0 Note on, C2 key=36 velocity: 0
@27420 Channel: 0 Note on, C2 key=36 velocity: 127
@27439 Channel: 0 Note on, C2 key=36 velocity: 0
@27450 Channel: 0 Note on, C2 key=36 velocity: 127
@27467 Channel: 0 Note on, C2 key=36 velocity: 0
@27480 Channel: 0 Note on, C2 key=36 velocity: 127
@27497 Channel: 0 Note on, C2 key=36 velocity: 0
@27510 Channel: 0 Note on, C2 key=36 velocity: 127
@27525 Channel: 0 Note on, C2 key=36 velocity: 0
@27540 Channel: 0 Note on, C2 key=36 velocity: 127
@27557 Channel: 0 Note on, C2 key=36 velocity: 0
@27570 Channel: 0 Note on, C2 key=36 velocity: 127
@27588 Channel: 0 Note on, C2 key=36 velocity: 0
@27600 Channel: 0 Note on, C2 key=36 velocity: 127
@27625 Channel: 0 Note on, C2 key=36 velocity: 0
@27660 Channel: 0 Note on, C2 key=36 velocity: 127
@27676 Channel: 0 Note on, C2 key=36 velocity: 0
@27690 Channel: 0 Note on, C2 key=36 velocity: 127
@27710 Channel: 0 Note on, C2 key=36 velocity: 0
@27720 Channel: 0 Note on, C2 key=36 velocity: 127
@27736 Channel: 0 Note on, C2 key=36 velocity: 0
@27750 Channel: 0 Note on, C2 key=36 velocity: 127
@27768 Channel: 0 Note on, C2 key=36 velocity: 0
@27780 Channel: 0 Note on, C2 key=36 velocity: 127
@27795 Channel: 0 Note on, C2 key=36 velocity: 0
@27810 Channel: 0 Note on, C2 key=36 velocity: 127
@27829 Channel: 0 Note on, C2 key=36 velocity: 0
@27840 Channel: 0 Note on, C2 key=36 velocity: 127
@27867 Channel: 0 Note on, C2 key=36 velocity: 0
@27900 Channel: 0 Note on, C2 key=36 velocity: 127
@27919 Channel: 0 Note on, C2 key=36 velocity: 0
@27930 Channel: 0 Note on, C2 key=36 velocity: 127
@27947 Channel: 0 Note on, C2 key=36 velocity: 0
@27960 Channel: 0 Note on, C2 key=36 velocity: 127
@27977 Channel: 0 Note on, C2 key=36 velocity: 0
@27990 Channel: 0 Note on, C2 key=36 velocity: 127
@28005 Channel: 0 Note on, C2 key=36 velocity: 0
@28020 Channel: 0 Note on, C2 key=36 velocity: 127
@28037 Channel: 0 Note on, C2 key=36 velocity: 0
@28050 Channel: 0 Note on, C2 key=36 velocity: 127
@28068 Channel: 0 Note on, C2 key=36 velocity: 0
@28080 Channel: 0 Note on, C2 key=36 velocity: 127
@28105 Channel: 0 Note on, C2 key=36 velocity: 0
@28140 Channel: 0 Note on, C2 key=36 velocity: 127
@28156 Channel: 0 Note on, C2 key=36 velocity: 0
@28170 Channel: 0 Note on, C2 key=36 velocity: 127
@28190 Channel: 0 Note on, C2 key=36 velocity: 0
@28200 Channel: 0 Note on, C2 key=36 velocity: 127
@28216 Channel: 0 Note on, C2 key=36 velocity: 0
@28230 Channel: 0 Note on, C2 key=36 velocity: 127
@28248 Channel: 0 Note on, C2 key=36 velocity: 0
@28260 Channel: 0 Note on, C2 key=36 velocity: 127
@28275 Channel: 0 Note on, C2 key=36 velocity: 0
@28290 Channel: 0 Note on, C2 key=36 velocity: 127
@28309 Channel: 0 Note on, C2 key=36 velocity: 0
@28320 Channel: 0 Note on, C2 key=36 velocity: 127
@28347 Channel: 0 Note on, C2 key=36 velocity: 0
@28380 Channel: 0 Note on, C2 key=36 velocity: 127
@28399 Channel: 0 Note on, C2 key=36 velocity: 0
@28410 Channel: 0 Note on, C2 key=36 velocity: 127
@28427 Channel: 0 Note on, C2 key=36 velocity: 0
@28440 Channel: 0 Note on, C2 key=36 velocity: 127
@28457 Channel: 0 Note on, C2 key=36 velocity: 0
@28470 Channel: 0 Note on, C2 key=36 velocity: 127
@28485 Channel: 0 Note on, C2 key=36 velocity: 0
@28500 Channel: 0 Note on, C2 key=36 velocity: 127
@28517 Channel: 0 Note on, C2 key=36 velocity: 0
@28530 Channel: 0 Note on, C2 key=36 velocity: 127
@28548 Channel: 0 Note on, C2 key=36 velocity: 0
@28560 Channel: 0 Note on, C2 key=36 velocity: 127
@28585 Channel: 0 Note on, C2 key=36 velocity: 0
@28620 Channel: 0 Note on, C2 key=36 velocity: 127
@28636 Channel: 0 Note on, C2 key=36 velocity: 0
@28650 Channel: 0 Note on, C2 key=36 velocity: 127
@28670 Channel: 0 Note on, C2 key=36 velocity: 0
@28680 Channel: 0 Note on, C2 key=36 velocity: 127
@28696 Channel: 0 Note on, C2 key=36 velocity: 0
@28710 Channel: 0 Note on, C2 key=36 velocity: 127
@28728 Channel: 0 Note on, C2 key=36 velocity: 0
@28740 Channel: 0 Note on, C2 key=36 velocity: 127
@28755 Channel: 0 Note on, C2 key=36 velocity: 0
@28770 Channel: 0 Note on, C2 key=36 velocity: 127
@28789 Channel: 0 Note on, C2 key=36 velocity: 0
@28798 Channel: 0 Note on, A#1 key=34 velocity: 127
@28823 Channel: 0 Note on, A#1 key=34 velocity: 0
@28860 Channel: 0 Note on, A#1 key=34 velocity: 127
@28869 Channel: 0 Note on, A#1 key=34 velocity: 0
@28890 Channel: 0 Note on, A#1 key=34 velocity: 127
@28902 Channel: 0 Note on, A#1 key=34 velocity: 0
@28920 Channel: 0 Note on, A#1 key=34 velocity: 127
@28929 Channel: 0 Note on, A#1 key=34 velocity: 0
@28950 Channel: 0 Note on, A#1 key=34 velocity: 127
@28962 Channel: 0 Note on, A#1 key=34 velocity: 0
@28980 Channel: 0 Note on, A#1 key=34 velocity: 127
@28993 Channel: 0 Note on, A#1 key=34 velocity: 0
@29010 Channel: 0 Note on, A#1 key=34 velocity: 127
@29023 Channel: 0 Note on, A#1 key=34 velocity: 0
@29040 Channel: 0 Note on, A#1 key=34 velocity: 127
@29056 Channel: 0 Note on, A#1 key=34 velocity: 0
@29100 Channel: 0 Note on, A#1 key=34 velocity: 127
@29110 Channel: 0 Note on, A#1 key=34 velocity: 0
@29130 Channel: 0 Note on, A#1 key=34 velocity: 127
@29143 Channel: 0 Note on, A#1 key=34 velocity: 0
@29160 Channel: 0 Note on, A#1 key=34 velocity: 127
@29173 Channel: 0 Note on, A#1 key=34 velocity: 0
@29190 Channel: 0 Note on, A#1 key=34 velocity: 127
@29203 Channel: 0 Note on, A#1 key=34 velocity: 0
@29220 Channel: 0 Note on, A#1 key=34 velocity: 127
@29232 Channel: 0 Note on, A#1 key=34 velocity: 0
@29250 Channel: 0 Note on, A#1 key=34 velocity: 127
@29261 Channel: 0 Note on, A#1 key=34 velocity: 0
@29280 Channel: 0 Note on, A#1 key=34 velocity: 127
@29295 Channel: 0 Note on, A#1 key=34 velocity: 0
@29340 Channel: 0 Note on, A#1 key=34 velocity: 127
@29351 Channel: 0 Note on, A#1 key=34 velocity: 0
@29370 Channel: 0 Note on, A#1 key=34 velocity: 127
@29382 Channel: 0 Note on, A#1 key=34 velocity: 0
@29400 Channel: 0 Note on, A#1 key=34 velocity: 127
@29411 Channel: 0 Note on, A#1 key=34 velocity: 0
@29430 Channel: 0 Note on, A#1 key=34 velocity: 127
@29441 Channel: 0 Note on, A#1 key=34 velocity: 0
@29460 Channel: 0 Note on, A#1 key=34 velocity: 127
@29472 Channel: 0 Note on, A#1 key=34 velocity: 0
@29490 Channel: 0 Note on, A#1 key=34 velocity: 127
@29501 Channel: 0 Note on, A#1 key=34 velocity: 0
@29520 Channel: 0 Note on, A#1 key=34 velocity: 127
@29536 Channel: 0 Note on, A#1 key=34 velocity: 0
@29580 Channel: 0 Note on, A#1 key=34 velocity: 127
@29592 Channel: 0 Note on, A#1 key=34 velocity: 0
@29610 Channel: 0 Note on, A#1 key=34 velocity: 127
@29625 Channel: 0 Note on, A#1 key=34 velocity: 0
@29640 Channel: 0 Note on, A#1 key=34 velocity: 127
@29655 Channel: 0 Note on, A#1 key=34 velocity: 0
@29670 Channel: 0 Note on, A#1 key=34 velocity: 127
@29685 Channel: 0 Note on, A#1 key=34 velocity: 0
@29700 Channel: 0 Note on, A#1 key=34 velocity: 127
@29709 Channel: 0 Note on, A#1 key=34 velocity: 0
@29730 Channel: 0 Note on, A#1 key=34 velocity: 127
@29742 Channel: 0 Note on, A#1 key=34 velocity: 0
@29760 Channel: 0 Note on, G1 key=31 velocity: 127
@29776 Channel: 0 Note on, G1 key=31 velocity: 0
@29820 Channel: 0 Note on, G1 key=31 velocity: 127
@29832 Channel: 0 Note on, G1 key=31 velocity: 0
@29850 Channel: 0 Note on, G1 key=31 velocity: 127
@29863 Channel: 0 Note on, G1 key=31 velocity: 0
@29880 Channel: 0 Note on, G1 key=31 velocity: 127
@29896 Channel: 0 Note on, G1 key=31 velocity: 0
@29910 Channel: 0 Note on, G1 key=31 velocity: 127
@29925 Channel: 0 Note on, G1 key=31 velocity: 0
@29940 Channel: 0 Note on, G1 key=31 velocity: 127
@29955 Channel: 0 Note on, G1 key=31 velocity: 0
@29970 Channel: 0 Note on, G1 key=31 velocity: 127
@29985 Channel: 0 Note on, G1 key=31 velocity: 0
@30000 Channel: 0 Note on, G1 key=31 velocity: 127
@30017 Channel: 0 Note on, G1 key=31 velocity: 0
@30060 Channel: 0 Note on, G1 key=31 velocity: 127
@30075 Channel: 0 Note on, G1 key=31 velocity: 0
@30090 Channel: 0 Note on, G1 key=31 velocity: 127
@30108 Channel: 0 Note on, G1 key=31 velocity: 0
@30120 Channel: 0 Note on, G1 key=31 velocity: 127
@30133 Channel: 0 Note on, G1 key=31 velocity: 0
@30150 Channel: 0 Note on, G1 key=31 velocity: 127
@30166 Channel: 0 Note on, G1 key=31 velocity: 0
@30180 Channel: 0 Note on, G1 key=31 velocity: 127
@30195 Channel: 0 Note on, G1 key=31 velocity: 0
@30210 Channel: 0 Note on, G1 key=31 velocity: 127
@30223 Channel: 0 Note on, G1 key=31 velocity: 0
@30240 Channel: 0 Note on, G1 key=31 velocity: 127
@30258 Channel: 0 Note on, G1 key=31 velocity: 0
@30300 Channel: 0 Note on, G1 key=31 velocity: 127
@30315 Channel: 0 Note on, G1 key=31 velocity: 0
@30330 Channel: 0 Note on, G1 key=31 velocity: 127
@30343 Channel: 0 Note on, G1 key=31 velocity: 0
@30360 Channel: 0 Note on, G1 key=31 velocity: 127
@30373 Channel: 0 Note on, G1 key=31 velocity: 0
@30390 Channel: 0 Note on, G1 key=31 velocity: 127
@30403 Channel: 0 Note on, G1 key=31 velocity: 0
@30420 Channel: 0 Note on, G1 key=31 velocity: 127
@30431 Channel: 0 Note on, G1 key=31 velocity: 0
@30450 Channel: 0 Note on, G1 key=31 velocity: 127
@30464 Channel: 0 Note on, G1 key=31 velocity: 0
@30480 Channel: 0 Note on, G1 key=31 velocity: 127
@30497 Channel: 0 Note on, G1 key=31 velocity: 0
@30540 Channel: 0 Note on, G1 key=31 velocity: 127
@30552 Channel: 0 Note on, G1 key=31 velocity: 0
@30570 Channel: 0 Note on, G1 key=31 velocity: 127
@30585 Channel: 0 Note on, G1 key=31 velocity: 0
@30600 Channel: 0 Note on, G1 key=31 velocity: 127
@30616 Channel: 0 Note on, G1 key=31 velocity: 0
@30630 Channel: 0 Note on, G1 key=31 velocity: 127
@30643 Channel: 0 Note on, G1 key=31 velocity: 0
@30660 Channel: 0 Note on, G1 key=31 velocity: 127
@30674 Channel: 0 Note on, G1 key=31 velocity: 0
@30690 Channel: 0 Note on, G1 key=31 velocity: 127
@30711 Channel: 0 Note on, G1 key=31 velocity: 0
@30720 Channel: 0 Note on, C2 key=36 velocity: 127
@30759 Channel: 0 Note on, C2 key=36 velocity: 0
@30780 Channel: 0 Note on, C2 key=36 velocity: 127
@30799 Channel: 0 Note on, C2 key=36 velocity: 0
@30810 Channel: 0 Note on, C2 key=36 velocity: 127
@30826 Channel: 0 Note on, C2 key=36 velocity: 0
@30840 Channel: 0 Note on, C2 key=36 velocity: 127
@30865 Channel: 0 Note on, C2 key=36 velocity: 0
@30870 Channel: 0 Note on, C2 key=36 velocity: 127
@30888 Channel: 0 Note on, C2 key=36 velocity: 0
@30900 Channel: 0 Note on, C2 key=36 velocity: 127
@30916 Channel: 0 Note on, C2 key=36 velocity: 0
@30930 Channel: 0 Note on, C2 key=36 velocity: 127
@30946 Channel: 0 Note on, C2 key=36 velocity: 0
@30960 Channel: 0 Note on, C2 key=36 velocity: 127
@30995 Channel: 0 Note on, C2 key=36 velocity: 0
@31020 Channel: 0 Note on, C2 key=36 velocity: 127
@31033 Channel: 0 Note on, C2 key=36 velocity: 0
@31050 Channel: 0 Note on, C2 key=36 velocity: 127
@31067 Channel: 0 Note on, C2 key=36 velocity: 0
@31080 Channel: 0 Note on, C2 key=36 velocity: 127
@31097 Channel: 0 Note on, C2 key=36 velocity: 0
@31110 Channel: 0 Note on, C2 key=36 velocity: 127
@31133 Channel: 0 Note on, C2 key=36 velocity: 0
@31140 Channel: 0 Note on, C2 key=36 velocity: 127
@31159 Channel: 0 Note on, C2 key=36 velocity: 0
@31170 Channel: 0 Note on, C2 key=36 velocity: 127
@31193 Channel: 0 Note on, C2 key=36 velocity: 0
@31200 Channel: 0 Note on, C2 key=36 velocity: 127
@31235 Channel: 0 Note on, C2 key=36 velocity: 0
@31260 Channel: 0 Note on, C2 key=36 velocity: 127
@31280 Channel: 0 Note on, C2 key=36 velocity: 0
@31290 Channel: 0 Note on, C2 key=36 velocity: 127
@31308 Channel: 0 Note on, C2 key=36 velocity: 0
@31320 Channel: 0 Note on, C2 key=36 velocity: 127
@31341 Channel: 0 Note on, C2 key=36 velocity: 0
@31350 Channel: 0 Note on, C2 key=36 velocity: 127
@31369 Channel: 0 Note on, C2 key=36 velocity: 0
@31380 Channel: 0 Note on, C2 key=36 velocity: 127
@31403 Channel: 0 Note on, C2 key=36 velocity: 0
@31410 Channel: 0 Note on, C2 key=36 velocity: 127
@31429 Channel: 0 Note on, C2 key=36 velocity: 0
@31440 Channel: 0 Note on, C2 key=36 velocity: 127
@31473 Channel: 0 Note on, C2 key=36 velocity: 0
@31500 Channel: 0 Note on, C2 key=36 velocity: 127
@31519 Channel: 0 Note on, C2 key=36 velocity: 0
@31530 Channel: 0 Note on, C2 key=36 velocity: 127
@31555 Channel: 0 Note on, C2 key=36 velocity: 0
@31560 Channel: 0 Note on, C2 key=36 velocity: 127
@31579 Channel: 0 Note on, C2 key=36 velocity: 0
@31590 Channel: 0 Note on, C2 key=36 velocity: 127
@31613 Channel: 0 Note on, C2 key=36 velocity: 0
@31620 Channel: 0 Note on, C2 key=36 velocity: 127
@31638 Channel: 0 Note on, C2 key=36 velocity: 0
@31650 Channel: 0 Note on, C2 key=36 velocity: 127
@31674 Channel: 0 Note on, C2 key=36 velocity: 0
@31680 Channel: 0 Note on, G1 key=31 velocity: 127
@31719 Channel: 0 Note on, G1 key=31 velocity: 0
@31740 Channel: 0 Note on, G1 key=31 velocity: 127
@31760 Channel: 0 Note on, G1 key=31 velocity: 0
@31770 Channel: 0 Note on, G1 key=31 velocity: 127
@31792 Channel: 0 Note on, G1 key=31 velocity: 0
@31800 Channel: 0 Note on, G1 key=31 velocity: 127
@31821 Channel: 0 Note on, G1 key=31 velocity: 0
@31830 Channel: 0 Note on, G1 key=31 velocity: 127
@31848 Channel: 0 Note on, G1 key=31 velocity: 0
@31860 Channel: 0 Note on, G1 key=31 velocity: 127
@31883 Channel: 0 Note on, G1 key=31 velocity: 0
@31890 Channel: 0 Note on, G1 key=31 velocity: 127
@31907 Channel: 0 Note on, G1 key=31 velocity: 0
@31920 Channel: 0 Note on, G1 key=31 velocity: 127
@31949 Channel: 0 Note on, G1 key=31 velocity: 0
@31980 Channel: 0 Note on, G1 key=31 velocity: 127
@31999 Channel: 0 Note on, G1 key=31 velocity: 0
@32010 Channel: 0 Note on, G1 key=31 velocity: 127
@32029 Channel: 0 Note on, G1 key=31 velocity: 0
@32040 Channel: 0 Note on, G1 key=31 velocity: 127
@32059 Channel: 0 Note on, G1 key=31 velocity: 0
@32070 Channel: 0 Note on, G1 key=31 velocity: 127
@32094 Channel: 0 Note on, G1 key=31 velocity: 0
@32100 Channel: 0 Note on, G1 key=31 velocity: 127
@32120 Channel: 0 Note on, G1 key=31 velocity: 0
@32130 Channel: 0 Note on, G1 key=31 velocity: 127
@32156 Channel: 0 Note on, G1 key=31 velocity: 0
@32160 Channel: 0 Note on, G1 key=31 velocity: 127
@32195 Channel: 0 Note on, G1 key=31 velocity: 0
@32220 Channel: 0 Note on, G1 key=31 velocity: 127
@32239 Channel: 0 Note on, G1 key=31 velocity: 0
@32250 Channel: 0 Note on, G1 key=31 velocity: 127
@32267 Channel: 0 Note on, G1 key=31 velocity: 0
@32280 Channel: 0 Note on, G1 key=31 velocity: 127
@32299 Channel: 0 Note on, G1 key=31 velocity: 0
@32310 Channel: 0 Note on, G1 key=31 velocity: 127
@32327 Channel: 0 Note on, G1 key=31 velocity: 0
@32340 Channel: 0 Note on, G1 key=31 velocity: 127
@32363 Channel: 0 Note on, G1 key=31 velocity: 0
@32370 Channel: 0 Note on, G1 key=31 velocity: 127
@32391 Channel: 0 Note on, G1 key=31 velocity: 0
@32400 Channel: 0 Note on, G1 key=31 velocity: 127
@32429 Channel: 0 Note on, G1 key=31 velocity: 0
@32460 Channel: 0 Note on, G1 key=31 velocity: 127
@32478 Channel: 0 Note on, G1 key=31 velocity: 0
@32490 Channel: 0 Note on, G1 key=31 velocity: 127
@32512 Channel: 0 Note on, G1 key=31 velocity: 0
@32520 Channel: 0 Note on, G1 key=31 velocity: 127
@32540 Channel: 0 Note on, G1 key=31 velocity: 0
@32550 Channel: 0 Note on, G1 key=31 velocity: 127
@32572 Channel: 0 Note on, G1 key=31 velocity: 0
@32580 Channel: 0 Note on, G1 key=31 velocity: 127
@32599 Channel: 0 Note on, G1 key=31 velocity: 0
@32610 Channel: 0 Note on, G1 key=31 velocity: 127
@32635 Channel: 0 Note on, G1 key=31 velocity: 0
@32640 Channel: 0 Note on, F1 key=29 velocity: 127
@32677 Channel: 0 Note on, F1 key=29 velocity: 0
@32700 Channel: 0 Note on, F1 key=29 velocity: 127
@32719 Channel: 0 Note on, F1 key=29 velocity: 0
@32730 Channel: 0 Note on, F1 key=29 velocity: 127
@32747 Channel: 0 Note on, F1 key=29 velocity: 0
@32760 Channel: 0 Note on, F1 key=29 velocity: 127
@32779 Channel: 0 Note on, F1 key=29 velocity: 0
@32790 Channel: 0 Note on, F1 key=29 velocity: 127
@32809 Channel: 0 Note on, F1 key=29 velocity: 0
@32820 Channel: 0 Note on, F1 key=29 velocity: 127
@32841 Channel: 0 Note on, F1 key=29 velocity: 0
@32850 Channel: 0 Note on, F1 key=29 velocity: 127
@32872 Channel: 0 Note on, F1 key=29 velocity: 0
@32880 Channel: 0 Note on, F1 key=29 velocity: 127
@32917 Channel: 0 Note on, F1 key=29 velocity: 0
@32940 Channel: 0 Note on, F1 key=29 velocity: 127
@32960 Channel: 0 Note on, F1 key=29 velocity: 0
@32970 Channel: 0 Note on, F1 key=29 velocity: 127
@32990 Channel: 0 Note on, F1 key=29 velocity: 0
@33000 Channel: 0 Note on, F1 key=29 velocity: 127
@33018 Channel: 0 Note on, F1 key=29 velocity: 0
@33030 Channel: 0 Note on, F1 key=29 velocity: 127
@33050 Channel: 0 Note on, F1 key=29 velocity: 0
@33060 Channel: 0 Note on, F1 key=29 velocity: 127
@33081 Channel: 0 Note on, F1 key=29 velocity: 0
@33090 Channel: 0 Note on, F1 key=29 velocity: 127
@33105 Channel: 0 Note on, F1 key=29 velocity: 0
@33120 Channel: 0 Note on, A1 key=33 velocity: 127
@33161 Channel: 0 Note on, A1 key=33 velocity: 0
@33180 Channel: 0 Note on, A1 key=33 velocity: 127
@33197 Channel: 0 Note on, A1 key=33 velocity: 0
@33210 Channel: 0 Note on, A1 key=33 velocity: 127
@33223 Channel: 0 Note on, A1 key=33 velocity: 0
@33240 Channel: 0 Note on, A1 key=33 velocity: 127
@33259 Channel: 0 Note on, A1 key=33 velocity: 0
@33270 Channel: 0 Note on, A1 key=33 velocity: 127
@33287 Channel: 0 Note on, A1 key=33 velocity: 0
@33300 Channel: 0 Note on, A1 key=33 velocity: 127
@33323 Channel: 0 Note on, A1 key=33 velocity: 0
@33330 Channel: 0 Note on, A1 key=33 velocity: 127
@33346 Channel: 0 Note on, A1 key=33 velocity: 0
@33360 Channel: 0 Note on, A1 key=33 velocity: 127
@33391 Channel: 0 Note on, A1 key=33 velocity: 0
@33420 Channel: 0 Note on, A1 key=33 velocity: 127
@33438 Channel: 0 Note on, A1 key=33 velocity: 0
@33450 Channel: 0 Note on, A1 key=33 velocity: 127
@33468 Channel: 0 Note on, A1 key=33 velocity: 0
@33480 Channel: 0 Note on, A1 key=33 velocity: 127
@33497 Channel: 0 Note on, A1 key=33 velocity: 0
@33510 Channel: 0 Note on, A1 key=33 velocity: 127
@33527 Channel: 0 Note on, A1 key=33 velocity: 0
@33540 Channel: 0 Note on, A1 key=33 velocity: 127
@33559 Channel: 0 Note on, A1 key=33 velocity: 0
@33570 Channel: 0 Note on, A1 key=33 velocity: 127
@33591 Channel: 0 Note on, A1 key=33 velocity: 0
@33600 Channel: 0 Note on, G1 key=31 velocity: 127
@33641 Channel: 0 Note on, G1 key=31 velocity: 0
@33660 Channel: 0 Note on, G1 key=31 velocity: 127
@33678 Channel: 0 Note on, G1 key=31 velocity: 0
@33690 Channel: 0 Note on, G1 key=31 velocity: 127
@33710 Channel: 0 Note on, G1 key=31 velocity: 0
@33720 Channel: 0 Note on, G1 key=31 velocity: 127
@33738 Channel: 0 Note on, G1 key=31 velocity: 0
@33750 Channel: 0 Note on, G1 key=31 velocity: 127
@33772 Channel: 0 Note on, G1 key=31 velocity: 0
@33780 Channel: 0 Note on, G1 key=31 velocity: 127
@33802 Channel: 0 Note on, G1 key=31 velocity: 0
@33810 Channel: 0 Note on, G1 key=31 velocity: 127
@33830 Channel: 0 Note on, G1 key=31 velocity: 0
@33840 Channel: 0 Note on, G1 key=31 velocity: 127
@33872 Channel: 0 Note on, G1 key=31 velocity: 0
@33900 Channel: 0 Note on, G1 key=31 velocity: 127
@33917 Channel: 0 Note on, G1 key=31 velocity: 0
@33930 Channel: 0 Note on, G1 key=31 velocity: 127
@33953 Channel: 0 Note on, G1 key=31 velocity: 0
@33960 Channel: 0 Note on, G1 key=31 velocity: 127
@33979 Channel: 0 Note on, G1 key=31 velocity: 0
@33990 Channel: 0 Note on, G1 key=31 velocity: 127
@34011 Channel: 0 Note on, G1 key=31 velocity: 0
@34020 Channel: 0 Note on, G1 key=31 velocity: 127
@34039 Channel: 0 Note on, G1 key=31 velocity: 0
@34050 Channel: 0 Note on, G1 key=31 velocity: 127
@34073 Channel: 0 Note on, G1 key=31 velocity: 0
@34080 Channel: 0 Note on, G1 key=31 velocity: 127
@34115 Channel: 0 Note on, G1 key=31 velocity: 0
@34140 Channel: 0 Note on, G1 key=31 velocity: 127
@34158 Channel: 0 Note on, G1 key=31 velocity: 0
@34170 Channel: 0 Note on, G1 key=31 velocity: 127
@34192 Channel: 0 Note on, G1 key=31 velocity: 0
@34200 Channel: 0 Note on, G1 key=31 velocity: 127
@34220 Channel: 0 Note on, G1 key=31 velocity: 0
@34230 Channel: 0 Note on, G1 key=31 velocity: 127
@34250 Channel: 0 Note on, G1 key=31 velocity: 0
@34260 Channel: 0 Note on, G1 key=31 velocity: 127
@34282 Channel: 0 Note on, G1 key=31 velocity: 0
@34290 Channel: 0 Note on, G1 key=31 velocity: 127
@34308 Channel: 0 Note on, G1 key=31 velocity: 0
@34320 Channel: 0 Note on, G1 key=31 velocity: 127
@34348 Channel: 0 Note on, G1 key=31 velocity: 0
@34380 Channel: 0 Note on, G1 key=31 velocity: 127
@34395 Channel: 0 Note on, G1 key=31 velocity: 0
@34410 Channel: 0 Note on, G1 key=31 velocity: 127
@34433 Channel: 0 Note on, G1 key=31 velocity: 0
@34440 Channel: 0 Note on, G1 key=31 velocity: 127
@34459 Channel: 0 Note on, G1 key=31 velocity: 0
@34470 Channel: 0 Note on, G1 key=31 velocity: 127
@34495 Channel: 0 Note on, G1 key=31 velocity: 0
@34500 Channel: 0 Note on, G1 key=31 velocity: 127
@34525 Channel: 0 Note on, G1 key=31 velocity: 0
@34530 Channel: 0 Note on, G1 key=31 velocity: 127
@34547 Channel: 0 Note on, G1 key=31 velocity: 0
@34560 Channel: 0 Note on, C2 key=36 velocity: 127
@34595 Channel: 0 Note on, C2 key=36 velocity: 0
@34620 Channel: 0 Note on, C2 key=36 velocity: 127
@34640 Channel: 0 Note on, C2 key=36 velocity: 0
@34650 Channel: 0 Note on, C2 key=36 velocity: 127
@34666 Channel: 0 Note on, C2 key=36 velocity: 0
@34680 Channel: 0 Note on, C2 key=36 velocity: 127
@34700 Channel: 0 Note on, C2 key=36 velocity: 0
@34710 Channel: 0 Note on, C2 key=36 velocity: 127
@34726 Channel: 0 Note on, C2 key=36 velocity: 0
@34740 Channel: 0 Note on, C2 key=36 velocity: 127
@34759 Channel: 0 Note on, C2 key=36 velocity: 0
@34770 Channel: 0 Note on, C2 key=36 velocity: 127
@34787 Channel: 0 Note on, C2 key=36 velocity: 0
@34800 Channel: 0 Note on, C2 key=36 velocity: 127
@34829 Channel: 0 Note on, C2 key=36 velocity: 0
@34860 Channel: 0 Note on, C2 key=36 velocity: 127
@34877 Channel: 0 Note on, C2 key=36 velocity: 0
@34890 Channel: 0 Note on, C2 key=36 velocity: 127
@34909 Channel: 0 Note on, C2 key=36 velocity: 0
@34920 Channel: 0 Note on, C2 key=36 velocity: 127
@34939 Channel: 0 Note on, C2 key=36 velocity: 0
@34950 Channel: 0 Note on, C2 key=36 velocity: 127
@34971 Channel: 0 Note on, C2 key=36 velocity: 0
@34980 Channel: 0 Note on, C2 key=36 velocity: 127
@34998 Channel: 0 Note on, C2 key=36 velocity: 0
@35010 Channel: 0 Note on, C2 key=36 velocity: 127
@35033 Channel: 0 Note on, C2 key=36 velocity: 0
@35040 Channel: 0 Note on, C2 key=36 velocity: 127
@35066 Channel: 0 Note on, C2 key=36 velocity: 0
@35100 Channel: 0 Note on, C2 key=36 velocity: 127
@35119 Channel: 0 Note on, C2 key=36 velocity: 0
@35130 Channel: 0 Note on, C2 key=36 velocity: 127
@35149 Channel: 0 Note on, C2 key=36 velocity: 0
@35160 Channel: 0 Note on, C2 key=36 velocity: 127
@35181 Channel: 0 Note on, C2 key=36 velocity: 0
@35190 Channel: 0 Note on, C2 key=36 velocity: 127
@35207 Channel: 0 Note on, C2 key=36 velocity: 0
@35220 Channel: 0 Note on, C2 key=36 velocity: 127
@35241 Channel: 0 Note on, C2 key=36 velocity: 0
@35250 Channel: 0 Note on, C2 key=36 velocity: 127
@35267 Channel: 0 Note on, C2 key=36 velocity: 0
@35280 Channel: 0 Note on, C2 key=36 velocity: 127
@35311 Channel: 0 Note on, C2 key=36 velocity: 0
@35340 Channel: 0 Note on, C2 key=36 velocity: 127
@35358 Channel: 0 Note on, C2 key=36 velocity: 0
@35370 Channel: 0 Note on, C2 key=36 velocity: 127
@35390 Channel: 0 Note on, C2 key=36 velocity: 0
@35400 Channel: 0 Note on, C2 key=36 velocity: 127
@35416 Channel: 0 Note on, C2 key=36 velocity: 0
@35430 Channel: 0 Note on, C2 key=36 velocity: 127
@35452 Channel: 0 Note on, C2 key=36 velocity: 0
@35460 Channel: 0 Note on, C2 key=36 velocity: 127
@35476 Channel: 0 Note on, C2 key=36 velocity: 0
@35490 Channel: 0 Note on, C2 key=36 velocity: 127
@35510 Channel: 0 Note on, C2 key=36 velocity: 0
@35520 Channel: 0 Note on, A1 key=33 velocity: 127
@35555 Channel: 0 Note on, A1 key=33 velocity: 0
@35580 Channel: 0 Note on, A1 key=33 velocity: 127
@35601 Channel: 0 Note on, A1 key=33 velocity: 0
@35610 Channel: 0 Note on, A1 key=33 velocity: 127
@35627 Channel: 0 Note on, A1 key=33 velocity: 0
@35640 Channel: 0 Note on, A1 key=33 velocity: 127
@35660 Channel: 0 Note on, A1 key=33 velocity: 0
@35670 Channel: 0 Note on, A1 key=33 velocity: 127
@35686 Channel: 0 Note on, A1 key=33 velocity: 0
@35700 Channel: 0 Note on, A1 key=33 velocity: 127
@35720 Channel: 0 Note on, A1 key=33 velocity: 0
@35730 Channel: 0 Note on, A1 key=33 velocity: 127
@35748 Channel: 0 Note on, A1 key=33 velocity: 0
@35760 Channel: 0 Note on, A1 key=33 velocity: 127
@35790 Channel: 0 Note on, A1 key=33 velocity: 0
@35820 Channel: 0 Note on, A1 key=33 velocity: 127
@35839 Channel: 0 Note on, A1 key=33 velocity: 0
@35850 Channel: 0 Note on, A1 key=33 velocity: 127
@35868 Channel: 0 Note on, A1 key=33 velocity: 0
@35880 Channel: 0 Note on, A1 key=33 velocity: 127
@35899 Channel: 0 Note on, A1 key=33 velocity: 0
@35910 Channel: 0 Note on, A1 key=33 velocity: 127
@35927 Channel: 0 Note on, A1 key=33 velocity: 0
@35940 Channel: 0 Note on, A1 key=33 velocity: 127
@35955 Channel: 0 Note on, A1 key=33 velocity: 0
@35970 Channel: 0 Note on, A1 key=33 velocity: 127
@35989 Channel: 0 Note on, A1 key=33 velocity: 0
@36000 Channel: 0 Note on, A1 key=33 velocity: 127
@36025 Channel: 0 Note on, A1 key=33 velocity: 0
@36060 Channel: 0 Note on, A1 key=33 velocity: 127
@36077 Channel: 0 Note on, A1 key=33 velocity: 0
@36090 Channel: 0 Note on, A1 key=33 velocity: 127
@36106 Channel: 0 Note on, A1 key=33 velocity: 0
@36120 Channel: 0 Note on, A1 key=33 velocity: 127
@36140 Channel: 0 Note on, A1 key=33 velocity: 0
@36150 Channel: 0 Note on, A1 key=33 velocity: 127
@36164 Channel: 0 Note on, A1 key=33 velocity: 0
@36180 Channel: 0 Note on, A1 key=33 velocity: 127
@36198 Channel: 0 Note on, A1 key=33 velocity: 0
@36210 Channel: 0 Note on, A1 key=33 velocity: 127
@36226 Channel: 0 Note on, A1 key=33 velocity: 0
@36240 Channel: 0 Note on, A1 key=33 velocity: 127
@36271 Channel: 0 Note on, A1 key=33 velocity: 0
@36300 Channel: 0 Note on, A1 key=33 velocity: 127
@36319 Channel: 0 Note on, A1 key=33 velocity: 0
@36330 Channel: 0 Note on, A1 key=33 velocity: 127
@36345 Channel: 0 Note on, A1 key=33 velocity: 0
@36360 Channel: 0 Note on, A1 key=33 velocity: 127
@36375 Channel: 0 Note on, A1 key=33 velocity: 0
@36390 Channel: 0 Note on, A1 key=33 velocity: 127
@36407 Channel: 0 Note on, A1 key=33 velocity: 0
@36420 Channel: 0 Note on, A1 key=33 velocity: 127
@36435 Channel: 0 Note on, A1 key=33 velocity: 0
@36450 Channel: 0 Note on, A1 key=33 velocity: 127
@36469 Channel: 0 Note on, A1 key=33 velocity: 0
@36480 Channel: 0 Note on, F1 key=29 velocity: 127
@36509 Channel: 0 Note on, F1 key=29 velocity: 0
@36540 Channel: 0 Note on, F1 key=29 velocity: 127
@36558 Channel: 0 Note on, F1 key=29 velocity: 0
@36570 Channel: 0 Note on, F1 key=29 velocity: 127
@36588 Channel: 0 Note on, F1 key=29 velocity: 0
@36600 Channel: 0 Note on, F1 key=29 velocity: 127
@36616 Channel: 0 Note on, F1 key=29 velocity: 0
@36630 Channel: 0 Note on, F1 key=29 velocity: 127
@36647 Channel: 0 Note on, F1 key=29 velocity: 0
@36660 Channel: 0 Note on, F1 key=29 velocity: 127
@36677 Channel: 0 Note on, F1 key=29 velocity: 0
@36690 Channel: 0 Note on, F1 key=29 velocity: 127
@36707 Channel: 0 Note on, F1 key=29 velocity: 0
@36720 Channel: 0 Note on, F1 key=29 velocity: 127
@36751 Channel: 0 Note on, F1 key=29 velocity: 0
@36780 Channel: 0 Note on, F1 key=29 velocity: 127
@36799 Channel: 0 Note on, F1 key=29 velocity: 0
@36810 Channel: 0 Note on, F1 key=29 velocity: 127
@36827 Channel: 0 Note on, F1 key=29 velocity: 0
@36840 Channel: 0 Note on, F1 key=29 velocity: 127
@36855 Channel: 0 Note on, F1 key=29 velocity: 0
@36870 Channel: 0 Note on, F1 key=29 velocity: 127
@36885 Channel: 0 Note on, F1 key=29 velocity: 0
@36900 Channel: 0 Note on, F1 key=29 velocity: 127
@36918 Channel: 0 Note on, F1 key=29 velocity: 0
@36930 Channel: 0 Note on, F1 key=29 velocity: 127
@36948 Channel: 0 Note on, F1 key=29 velocity: 0
@36960 Channel: 0 Note on, F1 key=29 velocity: 127
@36987 Channel: 0 Note on, F1 key=29 velocity: 0
@37020 Channel: 0 Note on, F1 key=29 velocity: 127
@37038 Channel: 0 Note on, F1 key=29 velocity: 0
@37050 Channel: 0 Note on, F1 key=29 velocity: 127
@37064 Channel: 0 Note on, F1 key=29 velocity: 0
@37080 Channel: 0 Note on, F1 key=29 velocity: 127
@37098 Channel: 0 Note on, F1 key=29 velocity: 0
@37110 Channel: 0 Note on, F1 key=29 velocity: 127
@37125 Channel: 0 Note on, F1 key=29 velocity: 0
@37140 Channel: 0 Note on, F1 key=29 velocity: 127
@37157 Channel: 0 Note on, F1 key=29 velocity: 0
@37170 Channel: 0 Note on, F1 key=29 velocity: 127
@37185 Channel: 0 Note on, F1 key=29 velocity: 0
@37200 Channel: 0 Note on, F1 key=29 velocity: 127
@37229 Channel: 0 Note on, F1 key=29 velocity: 0
@37260 Channel: 0 Note on, F1 key=29 velocity: 127
@37277 Channel: 0 Note on, F1 key=29 velocity: 0
@37290 Channel: 0 Note on, F1 key=29 velocity: 127
@37309 Channel: 0 Note on, F1 key=29 velocity: 0
@37320 Channel: 0 Note on, F1 key=29 velocity: 127
@37338 Channel: 0 Note on, F1 key=29 velocity: 0
@37350 Channel: 0 Note on, F1 key=29 velocity: 127
@37368 Channel: 0 Note on, F1 key=29 velocity: 0
@37380 Channel: 0 Note on, F1 key=29 velocity: 127
@37398 Channel: 0 Note on, F1 key=29 velocity: 0
@37410 Channel: 0 Note on, F1 key=29 velocity: 127
@37432 Channel: 0 Note on, F1 key=29 velocity: 0
@37440 Channel: 0 Note on, E1 key=28 velocity: 127
@37478 Channel: 0 Note on, E1 key=28 velocity: 0
@37500 Channel: 0 Note on, E1 key=28 velocity: 127
@37518 Channel: 0 Note on, E1 key=28 velocity: 0
@37530 Channel: 0 Note on, E1 key=28 velocity: 127
@37549 Channel: 0 Note on, E1 key=28 velocity: 0
@37560 Channel: 0 Note on, E1 key=28 velocity: 127
@37581 Channel: 0 Note on, E1 key=28 velocity: 0
@37590 Channel: 0 Note on, E1 key=28 velocity: 127
@37607 Channel: 0 Note on, E1 key=28 velocity: 0
@37620 Channel: 0 Note on, E1 key=28 velocity: 127
@37637 Channel: 0 Note on, E1 key=28 velocity: 0
@37650 Channel: 0 Note on, E1 key=28 velocity: 127
@37667 Channel: 0 Note on, E1 key=28 velocity: 0
@37680 Channel: 0 Note on, E1 key=28 velocity: 127
@37709 Channel: 0 Note on, E1 key=28 velocity: 0
@37740 Channel: 0 Note on, E1 key=28 velocity: 127
@37763 Channel: 0 Note on, E1 key=28 velocity: 0
@37770 Channel: 0 Note on, E1 key=28 velocity: 127
@37790 Channel: 0 Note on, E1 key=28 velocity: 0
@37800 Channel: 0 Note on, E1 key=28 velocity: 127
@37818 Channel: 0 Note on, E1 key=28 velocity: 0
@37830 Channel: 0 Note on, E1 key=28 velocity: 127
@37850 Channel: 0 Note on, E1 key=28 velocity: 0
@37860 Channel: 0 Note on, E1 key=28 velocity: 127
@37877 Channel: 0 Note on, E1 key=28 velocity: 0
@37890 Channel: 0 Note on, E1 key=28 velocity: 127
@37909 Channel: 0 Note on, E1 key=28 velocity: 0
@37920 Channel: 0 Note on, F1 key=29 velocity: 127
@37961 Channel: 0 Note on, F1 key=29 velocity: 0
@37980 Channel: 0 Note on, F1 key=29 velocity: 127
@37998 Channel: 0 Note on, F1 key=29 velocity: 0
@38010 Channel: 0 Note on, F1 key=29 velocity: 127
@38028 Channel: 0 Note on, F1 key=29 velocity: 0
@38040 Channel: 0 Note on, F1 key=29 velocity: 127
@38058 Channel: 0 Note on, F1 key=29 velocity: 0
@38070 Channel: 0 Note on, F1 key=29 velocity: 127
@38088 Channel: 0 Note on, F1 key=29 velocity: 0
@38100 Channel: 0 Note on, F1 key=29 velocity: 127
@38122 Channel: 0 Note on, F1 key=29 velocity: 0
@38130 Channel: 0 Note on, F1 key=29 velocity: 127
@38147 Channel: 0 Note on, F1 key=29 velocity: 0
@38160 Channel: 0 Note on, G1 key=31 velocity: 127
@38197 Channel: 0 Note on, G1 key=31 velocity: 0
@38220 Channel: 0 Note on, G1 key=31 velocity: 127
@38235 Channel: 0 Note on, G1 key=31 velocity: 0
@38250 Channel: 0 Note on, G1 key=31 velocity: 127
@38267 Channel: 0 Note on, G1 key=31 velocity: 0
@38280 Channel: 0 Note on, G1 key=31 velocity: 127
@38296 Channel: 0 Note on, G1 key=31 velocity: 0
@38310 Channel: 0 Note on, G1 key=31 velocity: 127
@38330 Channel: 0 Note on, G1 key=31 velocity: 0
@38340 Channel: 0 Note on, G1 key=31 velocity: 127
@38360 Channel: 0 Note on, G1 key=31 velocity: 0
@38370 Channel: 0 Note on, G1 key=31 velocity: 127
@38390 Channel: 0 Note on, G1 key=31 velocity: 0
@38400 Channel: 0 Note on, C2 key=36 velocity: 127
@38435 Channel: 0 Note on, C2 key=36 velocity: 0
@38460 Channel: 0 Note on, C2 key=36 velocity: 127
@38480 Channel: 0 Note on, C2 key=36 velocity: 0
@38490 Channel: 0 Note on, C2 key=36 velocity: 127
@38506 Channel: 0 Note on, C2 key=36 velocity: 0
@38520 Channel: 0 Note on, C2 key=36 velocity: 127
@38540 Channel: 0 Note on, C2 key=36 velocity: 0
@38550 Channel: 0 Note on, C2 key=36 velocity: 127
@38566 Channel: 0 Note on, C2 key=36 velocity: 0
@38580 Channel: 0 Note on, C2 key=36 velocity: 127
@38599 Channel: 0 Note on, C2 key=36 velocity: 0
@38610 Channel: 0 Note on, C2 key=36 velocity: 127
@38627 Channel: 0 Note on, C2 key=36 velocity: 0
@38640 Channel: 0 Note on, C2 key=36 velocity: 127
@38669 Channel: 0 Note on, C2 key=36 velocity: 0
@38700 Channel: 0 Note on, C2 key=36 velocity: 127
@38717 Channel: 0 Note on, C2 key=36 velocity: 0
@38730 Channel: 0 Note on, C2 key=36 velocity: 127
@38749 Channel: 0 Note on, C2 key=36 velocity: 0
@38760 Channel: 0 Note on, C2 key=36 velocity: 127
@38779 Channel: 0 Note on, C2 key=36 velocity: 0
@38790 Channel: 0 Note on, C2 key=36 velocity: 127
@38811 Channel: 0 Note on, C2 key=36 velocity: 0
@38820 Channel: 0 Note on, C2 key=36 velocity: 127
@38838 Channel: 0 Note on, C2 key=36 velocity: 0
@38850 Channel: 0 Note on, C2 key=36 velocity: 127
@38873 Channel: 0 Note on, C2 key=36 velocity: 0
@38880 Channel: 0 Note on, C2 key=36 velocity: 127
@38906 Channel: 0 Note on, C2 key=36 velocity: 0
@38940 Channel: 0 Note on, C2 key=36 velocity: 127
@38959 Channel: 0 Note on, C2 key=36 velocity: 0
@38970 Channel: 0 Note on, C2 key=36 velocity: 127
@38989 Channel: 0 Note on, C2 key=36 velocity: 0
@39000 Channel: 0 Note on, C2 key=36 velocity: 127
@39021 Channel: 0 Note on, C2 key=36 velocity: 0
@39030 Channel: 0 Note on, C2 key=36 velocity: 127
@39047 Channel: 0 Note on, C2 key=36 velocity: 0
@39060 Channel: 0 Note on, C2 key=36 velocity: 127
@39081 Channel: 0 Note on, C2 key=36 velocity: 0
@39090 Channel: 0 Note on, C2 key=36 velocity: 127
@39107 Channel: 0 Note on, C2 key=36 velocity: 0
@39120 Channel: 0 Note on, C2 key=36 velocity: 127
@39151 Channel: 0 Note on, C2 key=36 velocity: 0
@39180 Channel: 0 Note on, C2 key=36 velocity: 127
@39198 Channel: 0 Note on, C2 key=36 velocity: 0
@39210 Channel: 0 Note on, C2 key=36 velocity: 127
@39230 Channel: 0 Note on, C2 key=36 velocity: 0
@39240 Channel: 0 Note on, C2 key=36 velocity: 127
@39256 Channel: 0 Note on, C2 key=36 velocity: 0
@39270 Channel: 0 Note on, C2 key=36 velocity: 127
@39292 Channel: 0 Note on, C2 key=36 velocity: 0
@39300 Channel: 0 Note on, C2 key=36 velocity: 127
@39316 Channel: 0 Note on, C2 key=36 velocity: 0
@39330 Channel: 0 Note on, C2 key=36 velocity: 127
@39350 Channel: 0 Note on, C2 key=36 velocity: 0
@39360 Channel: 0 Note on, A1 key=33 velocity: 127
@39395 Channel: 0 Note on, A1 key=33 velocity: 0
@39420 Channel: 0 Note on, A1 key=33 velocity: 127
@39441 Channel: 0 Note on, A1 key=33 velocity: 0
@39450 Channel: 0 Note on, A1 key=33 velocity: 127
@39467 Channel: 0 Note on, A1 key=33 velocity: 0
@39480 Channel: 0 Note on, A1 key=33 velocity: 127
@39500 Channel: 0 Note on, A1 key=33 velocity: 0
@39510 Channel: 0 Note on, A1 key=33 velocity: 127
@39526 Channel: 0 Note on, A1 key=33 velocity: 0
@39540 Channel: 0 Note on, A1 key=33 velocity: 127
@39560 Channel: 0 Note on, A1 key=33 velocity: 0
@39570 Channel: 0 Note on, A1 key=33 velocity: 127
@39588 Channel: 0 Note on, A1 key=33 velocity: 0
@39600 Channel: 0 Note on, A1 key=33 velocity: 127
@39630 Channel: 0 Note on, A1 key=33 velocity: 0
@39660 Channel: 0 Note on, A1 key=33 velocity: 127
@39679 Channel: 0 Note on, A1 key=33 velocity: 0
@39690 Channel: 0 Note on, A1 key=33 velocity: 127
@39708 Channel: 0 Note on, A1 key=33 velocity: 0
@39720 Channel: 0 Note on, A1 key=33 velocity: 127
@39739 Channel: 0 Note on, A1 key=33 velocity: 0
@39750 Channel: 0 Note on, A1 key=33 velocity: 127
@39767 Channel: 0 Note on, A1 key=33 velocity: 0
@39780 Channel: 0 Note on, A1 key=33 velocity: 127
@39795 Channel: 0 Note on, A1 key=33 velocity: 0
@39810 Channel: 0 Note on, A1 key=33 velocity: 127
@39829 Channel: 0 Note on, A1 key=33 velocity: 0
@39840 Channel: 0 Note on, A1 key=33 velocity: 127
@39865 Channel: 0 Note on, A1 key=33 velocity: 0
@39900 Channel: 0 Note on, A1 key=33 velocity: 127
@39917 Channel: 0 Note on, A1 key=33 velocity: 0
@39930 Channel: 0 Note on, A1 key=33 velocity: 127
@39946 Channel: 0 Note on, A1 key=33 velocity: 0
@39960 Channel: 0 Note on, A1 key=33 velocity: 127
@39980 Channel: 0 Note on, A1 key=33 velocity: 0
@39990 Channel: 0 Note on, A1 key=33 velocity: 127
@40004 Channel: 0 Note on, A1 key=33 velocity: 0
@40020 Channel: 0 Note on, A1 key=33 velocity: 127
@40038 Channel: 0 Note on, A1 key=33 velocity: 0
@40050 Channel: 0 Note on, A1 key=33 velocity: 127
@40066 Channel: 0 Note on, A1 key=33 velocity: 0
@40080 Channel: 0 Note on, A1 key=33 velocity: 127
@40111 Channel: 0 Note on, A1 key=33 velocity: 0
@40140 Channel: 0 Note on, A1 key=33 velocity: 127
@40159 Channel: 0 Note on, A1 key=33 velocity: 0
@40170 Channel: 0 Note on, A1 key=33 velocity: 127
@40185 Channel: 0 Note on, A1 key=33 velocity: 0
@40200 Channel: 0 Note on, A1 key=33 velocity: 127
@40215 Channel: 0 Note on, A1 key=33 velocity: 0
@40230 Channel: 0 Note on, A1 key=33 velocity: 127
@40247 Channel: 0 Note on, A1 key=33 velocity: 0
@40260 Channel: 0 Note on, A1 key=33 velocity: 127
@40275 Channel: 0 Note on, A1 key=33 velocity: 0
@40290 Channel: 0 Note on, A1 key=33 velocity: 127
@40309 Channel: 0 Note on, A1 key=33 velocity: 0
@40320 Channel: 0 Note on, F1 key=29 velocity: 127
@40349 Channel: 0 Note on, F1 key=29 velocity: 0
@40380 Channel: 0 Note on, F1 key=29 velocity: 127
@40398 Channel: 0 Note on, F1 key=29 velocity: 0
@40410 Channel: 0 Note on, F1 key=29 velocity: 127
@40428 Channel: 0 Note on, F1 key=29 velocity: 0
@40440 Channel: 0 Note on, F1 key=29 velocity: 127
@40456 Channel: 0 Note on, F1 key=29 velocity: 0
@40470 Channel: 0 Note on, F1 key=29 velocity: 127
@40487 Channel: 0 Note on, F1 key=29 velocity: 0
@40500 Channel: 0 Note on, F1 key=29 velocity: 127
@40517 Channel: 0 Note on, F1 key=29 velocity: 0
@40530 Channel: 0 Note on, F1 key=29 velocity: 127
@40547 Channel: 0 Note on, F1 key=29 velocity: 0
@40560 Channel: 0 Note on, F1 key=29 velocity: 127
@40591 Channel: 0 Note on, F1 key=29 velocity: 0
@40620 Channel: 0 Note on, F1 key=29 velocity: 127
@40639 Channel: 0 Note on, F1 key=29 velocity: 0
@40650 Channel: 0 Note on, F1 key=29 velocity: 127
@40667 Channel: 0 Note on, F1 key=29 velocity: 0
@40680 Channel: 0 Note on, F1 key=29 velocity: 127
@40695 Channel: 0 Note on, F1 key=29 velocity: 0
@40710 Channel: 0 Note on, F1 key=29 velocity: 127
@40725 Channel: 0 Note on, F1 key=29 velocity: 0
@40740 Channel: 0 Note on, F1 key=29 velocity: 127
@40758 Channel: 0 Note on, F1 key=29 velocity: 0
@40770 Channel: 0 Note on, F1 key=29 velocity: 127
@40788 Channel: 0 Note on, F1 key=29 velocity: 0
@40800 Channel: 0 Note on, F1 key=29 velocity: 127
@40827 Channel: 0 Note on, F1 key=29 velocity: 0
@40860 Channel: 0 Note on, F1 key=29 velocity: 127
@40878 Channel: 0 Note on, F1 key=29 velocity: 0
@40890 Channel: 0 Note on, F1 key=29 velocity: 127
@40904 Channel: 0 Note on, F1 key=29 velocity: 0
@40920 Channel: 0 Note on, F1 key=29 velocity: 127
@40938 Channel: 0 Note on, F1 key=29 velocity: 0
@40950 Channel: 0 Note on, F1 key=29 velocity: 127
@40965 Channel: 0 Note on, F1 key=29 velocity: 0
@40980 Channel: 0 Note on, F1 key=29 velocity: 127
@40997 Channel: 0 Note on, F1 key=29 velocity: 0
@41010 Channel: 0 Note on, F1 key=29 velocity: 127
@41025 Channel: 0 Note on, F1 key=29 velocity: 0
@41040 Channel: 0 Note on, F1 key=29 velocity: 127
@41069 Channel: 0 Note on, F1 key=29 velocity: 0
@41100 Channel: 0 Note on, F1 key=29 velocity: 127
@41117 Channel: 0 Note on, F1 key=29 velocity: 0
@41130 Channel: 0 Note on, F1 key=29 velocity: 127
@41149 Channel: 0 Note on, F1 key=29 velocity: 0
@41160 Channel: 0 Note on, F1 key=29 velocity: 127
@41178 Channel: 0 Note on, F1 key=29 velocity: 0
@41190 Channel: 0 Note on, F1 key=29 velocity: 127
@41208 Channel: 0 Note on, F1 key=29 velocity: 0
@41220 Channel: 0 Note on, F1 key=29 velocity: 127
@41238 Channel: 0 Note on, F1 key=29 velocity: 0
@41250 Channel: 0 Note on, F1 key=29 velocity: 127
@41272 Channel: 0 Note on, F1 key=29 velocity: 0
@41280 Channel: 0 Note on, E1 key=28 velocity: 127
@41318 Channel: 0 Note on, E1 key=28 velocity: 0
@41340 Channel: 0 Note on, E1 key=28 velocity: 127
@41358 Channel: 0 Note on, E1 key=28 velocity: 0
@41370 Channel: 0 Note on, E1 key=28 velocity: 127
@41389 Channel: 0 Note on, E1 key=28 velocity: 0
@41400 Channel: 0 Note on, E1 key=28 velocity: 127
@41421 Channel: 0 Note on, E1 key=28 velocity: 0
@41430 Channel: 0 Note on, E1 key=28 velocity: 127
@41447 Channel: 0 Note on, E1 key=28 velocity: 0
@41460 Channel: 0 Note on, E1 key=28 velocity: 127
@41477 Channel: 0 Note on, E1 key=28 velocity: 0
@41490 Channel: 0 Note on, E1 key=28 velocity: 127
@41507 Channel: 0 Note on, E1 key=28 velocity: 0
@41520 Channel: 0 Note on, E1 key=28 velocity: 127
@41549 Channel: 0 Note on, E1 key=28 velocity: 0
@41580 Channel: 0 Note on, E1 key=28 velocity: 127
@41603 Channel: 0 Note on, E1 key=28 velocity: 0
@41610 Channel: 0 Note on, E1 key=28 velocity: 127
@41630 Channel: 0 Note on, E1 key=28 velocity: 0
@41640 Channel: 0 Note on, E1 key=28 velocity: 127
@41658 Channel: 0 Note on, E1 key=28 velocity: 0
@41670 Channel: 0 Note on, E1 key=28 velocity: 127
@41690 Channel: 0 Note on, E1 key=28 velocity: 0
@41700 Channel: 0 Note on, E1 key=28 velocity: 127
@41717 Channel: 0 Note on, E1 key=28 velocity: 0
@41730 Channel: 0 Note on, E1 key=28 velocity: 127
@41749 Channel: 0 Note on, E1 key=28 velocity: 0
@41760 Channel: 0 Note on, F1 key=29 velocity: 127
@41801 Channel: 0 Note on, F1 key=29 velocity: 0
@41820 Channel: 0 Note on, F1 key=29 velocity: 127
@41838 Channel: 0 Note on, F1 key=29 velocity: 0
@41850 Channel: 0 Note on, F1 key=29 velocity: 127
@41868 Channel: 0 Note on, F1 key=29 velocity: 0
@41880 Channel: 0 Note on, F1 key=29 velocity: 127
@41898 Channel: 0 Note on, F1 key=29 velocity: 0
@41910 Channel: 0 Note on, F1 key=29 velocity: 127
@41928 Channel: 0 Note on, F1 key=29 velocity: 0
@41940 Channel: 0 Note on, F1 key=29 velocity: 127
@41962 Channel: 0 Note on, F1 key=29 velocity: 0
@41970 Channel: 0 Note on, F1 key=29 velocity: 127
@41987 Channel: 0 Note on, F1 key=29 velocity: 0
@42000 Channel: 0 Note on, G1 key=31 velocity: 127
@42037 Channel: 0 Note on, G1 key=31 velocity: 0
@42060 Channel: 0 Note on, G1 key=31 velocity: 127
@42075 Channel: 0 Note on, G1 key=31 velocity: 0
@42090 Channel: 0 Note on, G1 key=31 velocity: 127
@42107 Channel: 0 Note on, G1 key=31 velocity: 0
@42120 Channel: 0 Note on, G1 key=31 velocity: 127
@42136 Channel: 0 Note on, G1 key=31 velocity: 0
@42150 Channel: 0 Note on, G1 key=31 velocity: 127
@42170 Channel: 0 Note on, G1 key=31 velocity: 0
@42180 Channel: 0 Note on, G1 key=31 velocity: 127
@42200 Channel: 0 Note on, G1 key=31 velocity: 0
@42210 Channel: 0 Note on, G1 key=31 velocity: 127
@42230 Channel: 0 Note on, G1 key=31 velocity: 0
@42240 Channel: 0 Note on, C2 key=36 velocity: 127
@42273 Channel: 0 Note on, C2 key=36 velocity: 0
@42300 Channel: 0 Note on, C2 key=36 velocity: 127
@42317 Channel: 0 Note on, C2 key=36 velocity: 0
@42330 Channel: 0 Note on, C2 key=36 velocity: 127
@42345 Channel: 0 Note on, C2 key=36 velocity: 0
@42360 Channel: 0 Note on, C2 key=36 velocity: 127
@42377 Channel: 0 Note on, C2 key=36 velocity: 0
@42390 Channel: 0 Note on, C2 key=36 velocity: 127
@42407 Channel: 0 Note on, C2 key=36 velocity: 0
@42420 Channel: 0 Note on, C2 key=36 velocity: 127
@42439 Channel: 0 Note on, C2 key=36 velocity: 0
@42450 Channel: 0 Note on, C2 key=36 velocity: 127
@42467 Channel: 0 Note on, C2 key=36 velocity: 0
@42480 Channel: 0 Note on, C2 key=36 velocity: 127
@42509 Channel: 0 Note on, C2 key=36 velocity: 0
@42540 Channel: 0 Note on, C2 key=36 velocity: 127
@42557 Channel: 0 Note on, C2 key=36 velocity: 0
@42570 Channel: 0 Note on, C2 key=36 velocity: 127
@42590 Channel: 0 Note on, C2 key=36 velocity: 0
@42600 Channel: 0 Note on, C2 key=36 velocity: 127
@42616 Channel: 0 Note on, C2 key=36 velocity: 0
@42630 Channel: 0 Note on, C2 key=36 velocity: 127
@42650 Channel: 0 Note on, C2 key=36 velocity: 0
@42660 Channel: 0 Note on, C2 key=36 velocity: 127
@42676 Channel: 0 Note on, C2 key=36 velocity: 0
@42690 Channel: 0 Note on, C2 key=36 velocity: 127
@42712 Channel: 0 Note on, C2 key=36 velocity: 0
@42720 Channel: 0 Note on, C2 key=36 velocity: 127
@42747 Channel: 0 Note on, C2 key=36 velocity: 0
@42780 Channel: 0 Note on, C2 key=36 velocity: 127
@42799 Channel: 0 Note on, C2 key=36 velocity: 0
@42810 Channel: 0 Note on, C2 key=36 velocity: 127
@42827 Channel: 0 Note on, C2 key=36 velocity: 0
@42840 Channel: 0 Note on, C2 key=36 velocity: 127
@42857 Channel: 0 Note on, C2 key=36 velocity: 0
@42870 Channel: 0 Note on, C2 key=36 velocity: 127
@42885 Channel: 0 Note on, C2 key=36 velocity: 0
@42900 Channel: 0 Note on, C2 key=36 velocity: 127
@42917 Channel: 0 Note on, C2 key=36 velocity: 0
@42930 Channel: 0 Note on, C2 key=36 velocity: 127
@42948 Channel: 0 Note on, C2 key=36 velocity: 0
@42960 Channel: 0 Note on, C2 key=36 velocity: 127
@42985 Channel: 0 Note on, C2 key=36 velocity: 0
@43020 Channel: 0 Note on, C2 key=36 velocity: 127
@43036 Channel: 0 Note on, C2 key=36 velocity: 0
@43050 Channel: 0 Note on, C2 key=36 velocity: 127
@43070 Channel: 0 Note on, C2 key=36 velocity: 0
@43080 Channel: 0 Note on, C2 key=36 velocity: 127
@43096 Channel: 0 Note on, C2 key=36 velocity: 0
@43110 Channel: 0 Note on, C2 key=36 velocity: 127
@43128 Channel: 0 Note on, C2 key=36 velocity: 0
@43140 Channel: 0 Note on, C2 key=36 velocity: 127
@43155 Channel: 0 Note on, C2 key=36 velocity: 0
@43170 Channel: 0 Note on, C2 key=36 velocity: 127
@43189 Channel: 0 Note on, C2 key=36 velocity: 0
@43200 Channel: 0 Note on, C2 key=36 velocity: 127
@43227 Channel: 0 Note on, C2 key=36 velocity: 0
@43260 Channel: 0 Note on, C2 key=36 velocity: 127
@43279 Channel: 0 Note on, C2 key=36 velocity: 0
@43290 Channel: 0 Note on, C2 key=36 velocity: 127
@43307 Channel: 0 Note on, C2 key=36 velocity: 0
@43320 Channel: 0 Note on, C2 key=36 velocity: 127
@43337 Channel: 0 Note on, C2 key=36 velocity: 0
@43350 Channel: 0 Note on, C2 key=36 velocity: 127
@43365 Channel: 0 Note on, C2 key=36 velocity: 0
@43380 Channel: 0 Note on, C2 key=36 velocity: 127
@43397 Channel: 0 Note on, C2 key=36 velocity: 0
@43410 Channel: 0 Note on, C2 key=36 velocity: 127
@43428 Channel: 0 Note on, C2 key=36 velocity: 0
@43440 Channel: 0 Note on, C2 key=36 velocity: 127
@43465 Channel: 0 Note on, C2 key=36 velocity: 0
@43500 Channel: 0 Note on, C2 key=36 velocity: 127
@43516 Channel: 0 Note on, C2 key=36 velocity: 0
@43530 Channel: 0 Note on, C2 key=36 velocity: 127
@43550 Channel: 0 Note on, C2 key=36 velocity: 0
@43560 Channel: 0 Note on, C2 key=36 velocity: 127
@43576 Channel: 0 Note on, C2 key=36 velocity: 0
@43590 Channel: 0 Note on, C2 key=36 velocity: 127
@43608 Channel: 0 Note on, C2 key=36 velocity: 0
@43620 Channel: 0 Note on, C2 key=36 velocity: 127
@43635 Channel: 0 Note on, C2 key=36 velocity: 0
@43650 Channel: 0 Note on, C2 key=36 velocity: 127
@43669 Channel: 0 Note on, C2 key=36 velocity: 0
@43680 Channel: 0 Note on, C2 key=36 velocity: 127
@43707 Channel: 0 Note on, C2 key=36 velocity: 0
@43740 Channel: 0 Note on, C2 key=36 velocity: 127
@43759 Channel: 0 Note on, C2 key=36 velocity: 0
@43770 Channel: 0 Note on, C2 key=36 velocity: 127
@43787 Channel: 0 Note on, C2 key=36 velocity: 0
@43800 Channel: 0 Note on, C2 key=36 velocity: 127
@43817 Channel: 0 Note on, C2 key=36 velocity: 0
@43830 Channel: 0 Note on, C2 key=36 velocity: 127
@43845 Channel: 0 Note on, C2 key=36 velocity: 0
@43860 Channel: 0 Note on, C2 key=36 velocity: 127
@43877 Channel: 0 Note on, C2 key=36 velocity: 0
@43890 Channel: 0 Note on, C2 key=36 velocity: 127
@43908 Channel: 0 Note on, C2 key=36 velocity: 0
@43920 Channel: 0 Note on, C2 key=36 velocity: 127
@43945 Channel: 0 Note on, C2 key=36 velocity: 0
@43980 Channel: 0 Note on, C2 key=36 velocity: 127
@43996 Channel: 0 Note on, C2 key=36 velocity: 0
@44010 Channel: 0 Note on, C2 key=36 velocity: 127
@44030 Channel: 0 Note on, C2 key=36 velocity: 0
@44040 Channel: 0 Note on, C2 key=36 velocity: 127
@44056 Channel: 0 Note on, C2 key=36 velocity: 0
@44070 Channel: 0 Note on, C2 key=36 velocity: 127
@44088 Channel: 0 Note on, C2 key=36 velocity: 0
@44100 Channel: 0 Note on, C2 key=36 velocity: 127
@44115 Channel: 0 Note on, C2 key=36 velocity: 0
@44130 Channel: 0 Note on, C2 key=36 velocity: 127
@44149 Channel: 0 Note on, C2 key=36 velocity: 0
@44160 Channel: 0 Note on, C2 key=36 velocity: 127
@44193 Channel: 0 Note on, C2 key=36 velocity: 0
@44220 Channel: 0 Note on, C2 key=36 velocity: 127
@44237 Channel: 0 Note on, C2 key=36 velocity: 0
@44250 Channel: 0 Note on, C2 key=36 velocity: 127
@44265 Channel: 0 Note on, C2 key=36 velocity: 0
@44280 Channel: 0 Note on, C2 key=36 velocity: 127
@44297 Channel: 0 Note on, C2 key=36 velocity: 0
@44310 Channel: 0 Note on, C2 key=36 velocity: 127
@44327 Channel: 0 Note on, C2 key=36 velocity: 0
@44340 Channel: 0 Note on, C2 key=36 velocity: 127
@44359 Channel: 0 Note on, C2 key=36 velocity: 0
@44370 Channel: 0 Note on, C2 key=36 velocity: 127
@44387 Channel: 0 Note on, C2 key=36 velocity: 0
@44400 Channel: 0 Note on, C2 key=36 velocity: 127
@44429 Channel: 0 Note on, C2 key=36 velocity: 0
@44460 Channel: 0 Note on, C2 key=36 velocity: 127
@44477 Channel: 0 Note on, C2 key=36 velocity: 0
@44490 Channel: 0 Note on, C2 key=36 velocity: 127
@44510 Channel: 0 Note on, C2 key=36 velocity: 0
@44520 Channel: 0 Note on, C2 key=36 velocity: 127
@44536 Channel: 0 Note on, C2 key=36 velocity: 0
@44550 Channel: 0 Note on, C2 key=36 velocity: 127
@44570 Channel: 0 Note on, C2 key=36 velocity: 0
@44580 Channel: 0 Note on, C2 key=36 velocity: 127
@44596 Channel: 0 Note on, C2 key=36 velocity: 0
@44610 Channel: 0 Note on, C2 key=36 velocity: 127
@44632 Channel: 0 Note on, C2 key=36 velocity: 0
@44640 Channel: 0 Command:176
@44640 Channel: 0 Note on, C2 key=36 velocity: 127
@44667 Channel: 0 Note on, C2 key=36 velocity: 0
@44670 Channel: 0 Command:176
@44700 Channel: 0 Note on, C2 key=36 velocity: 127
@44701 Channel: 0 Command:176
@44719 Channel: 0 Note on, C2 key=36 velocity: 0
@44730 Channel: 0 Note on, C2 key=36 velocity: 127
@44731 Channel: 0 Command:176
@44747 Channel: 0 Note on, C2 key=36 velocity: 0
@44760 Channel: 0 Note on, C2 key=36 velocity: 127
@44762 Channel: 0 Command:176
@44777 Channel: 0 Note on, C2 key=36 velocity: 0
@44790 Channel: 0 Note on, C2 key=36 velocity: 127
@44792 Channel: 0 Command:176
@44805 Channel: 0 Note on, C2 key=36 velocity: 0
@44820 Channel: 0 Note on, C2 key=36 velocity: 127
@44823 Channel: 0 Command:176
@44837 Channel: 0 Note on, C2 key=36 velocity: 0
@44850 Channel: 0 Note on, C2 key=36 velocity: 127
@44853 Channel: 0 Command:176
@44868 Channel: 0 Note on, C2 key=36 velocity: 0
@44880 Channel: 0 Note on, C2 key=36 velocity: 127
@44884 Channel: 0 Command:176
@44905 Channel: 0 Note on, C2 key=36 velocity: 0
@44914 Channel: 0 Command:176
@44940 Channel: 0 Note on, C2 key=36 velocity: 127
@44945 Channel: 0 Command:176
@44956 Channel: 0 Note on, C2 key=36 velocity: 0
@44970 Channel: 0 Note on, C2 key=36 velocity: 127
@44975 Channel: 0 Command:176
@44990 Channel: 0 Note on, C2 key=36 velocity: 0
@45000 Channel: 0 Note on, C2 key=36 velocity: 127
@45006 Channel: 0 Command:176
@45016 Channel: 0 Note on, C2 key=36 velocity: 0
@45030 Channel: 0 Note on, C2 key=36 velocity: 127
@45036 Channel: 0 Command:176
@45048 Channel: 0 Note on, C2 key=36 velocity: 0
@45060 Channel: 0 Note on, C2 key=36 velocity: 127
@45067 Channel: 0 Command:176
@45075 Channel: 0 Note on, C2 key=36 velocity: 0
@45090 Channel: 0 Note on, C2 key=36 velocity: 127
@45098 Channel: 0 Command:176
@45109 Channel: 0 Note on, C2 key=36 velocity: 0
@45120 Channel: 0 Note on, C2 key=36 velocity: 127
@45128 Channel: 0 Command:176
@45147 Channel: 0 Note on, C2 key=36 velocity: 0
@45159 Channel: 0 Command:176
@45180 Channel: 0 Note on, C2 key=36 velocity: 127
@45189 Channel: 0 Command:176
@45199 Channel: 0 Note on, C2 key=36 velocity: 0
@45210 Channel: 0 Note on, C2 key=36 velocity: 127
@45220 Channel: 0 Command:176
@45227 Channel: 0 Note on, C2 key=36 velocity: 0
@45240 Channel: 0 Note on, C2 key=36 velocity: 127
@45250 Channel: 0 Command:176
@45257 Channel: 0 Note on, C2 key=36 velocity: 0
@45270 Channel: 0 Note on, C2 key=36 velocity: 127
@45281 Channel: 0 Command:176
@45285 Channel: 0 Note on, C2 key=36 velocity: 0
@45300 Channel: 0 Note on, C2 key=36 velocity: 127
@45311 Channel: 0 Command:176
@45317 Channel: 0 Note on, C2 key=36 velocity: 0
@45330 Channel: 0 Note on, C2 key=36 velocity: 127
@45342 Channel: 0 Command:176
@45348 Channel: 0 Note on, C2 key=36 velocity: 0
@45360 Channel: 0 Note on, C2 key=36 velocity: 127
@45372 Channel: 0 Command:176
@45385 Channel: 0 Note on, C2 key=36 velocity: 0
@45403 Channel: 0 Command:176
@45420 Channel: 0 Note on, C2 key=36 velocity: 127
@45433 Channel: 0 Command:176
@45436 Channel: 0 Note on, C2 key=36 velocity: 0
@45450 Channel: 0 Note on, C2 key=36 velocity: 127
@45464 Channel: 0 Command:176
@45470 Channel: 0 Note on, C2 key=36 velocity: 0
@45480 Channel: 0 Note on, C2 key=36 velocity: 127
@45495 Channel: 0 Command:176
@45496 Channel: 0 Note on, C2 key=36 velocity: 0
@45510 Channel: 0 Note on, C2 key=36 velocity: 127
@45525 Channel: 0 Command:176
@45528 Channel: 0 Note on, C2 key=36 velocity: 0
@45540 Channel: 0 Note on, C2 key=36 velocity: 127
@45555 Channel: 0 Note on, C2 key=36 velocity: 0
@45556 Channel: 0 Command:176
@45570 Channel: 0 Note on, C2 key=36 velocity: 127
@45586 Channel: 0 Command:176
@45589 Channel: 0 Note on, C2 key=36 velocity: 0
@45600 Channel: 0 Note on, C2 key=36 velocity: 127
@45617 Channel: 0 Command:176
@45627 Channel: 0 Note on, C2 key=36 velocity: 0
@45647 Channel: 0 Command:176
@45660 Channel: 0 Note on, C2 key=36 velocity: 127
@45678 Channel: 0 Command:176
@45679 Channel: 0 Note on, C2 key=36 velocity: 0
@45690 Channel: 0 Note on, C2 key=36 velocity: 127
@45707 Channel: 0 Note on, C2 key=36 velocity: 0
@45708 Channel: 0 Command:176
@45720 Channel: 0 Note on, C2 key=36 velocity: 127
@45737 Channel: 0 Note on, C2 key=36 velocity: 0
@45739 Channel: 0 Command:176
@45750 Channel: 0 Note on, C2 key=36 velocity: 127
@45765 Channel: 0 Note on, C2 key=36 velocity: 0
@45769 Channel: 0 Command:176
@45780 Channel: 0 Note on, C2 key=36 velocity: 127
@45797 Channel: 0 Note on, C2 key=36 velocity: 0
@45800 Channel: 0 Command:176
@45810 Channel: 0 Note on, C2 key=36 velocity: 127
@45828 Channel: 0 Note on, C2 key=36 velocity: 0
@45830 Channel: 0 Command:176
@45840 Channel: 0 Note on, C2 key=36 velocity: 127
@45861 Channel: 0 Command:176
@45865 Channel: 0 Note on, C2 key=36 velocity: 0
@45891 Channel: 0 Command:176
@45900 Channel: 0 Note on, C2 key=36 velocity: 127
@45916 Channel: 0 Note on, C2 key=36 velocity: 0
@45922 Channel: 0 Command:176
@45930 Channel: 0 Note on, C2 key=36 velocity: 127
@45950 Channel: 0 Note on, C2 key=36 velocity: 0
@45953 Channel: 0 Command:176
@45960 Channel: 0 Note on, C2 key=36 velocity: 127
@45976 Channel: 0 Note on, C2 key=36 velocity: 0
@45983 Channel: 0 Command:176
@45990 Channel: 0 Note on, C2 key=36 velocity: 127
@46008 Channel: 0 Note on, C2 key=36 velocity: 0
@46014 Channel: 0 Command:176
@46020 Channel: 0 Note on, C2 key=36 velocity: 127
@46035 Channel: 0 Note on, C2 key=36 velocity: 0
@46044 Channel: 0 Command:176
@46050 Channel: 0 Note on, C2 key=36 velocity: 127
@46069 Channel: 0 Note on, C2 key=36 velocity: 0
@46075 Channel: 0 Command:176
@46080 Channel: 0 Note on, C2 key=36 velocity: 127
@46105 Channel: 0 Command:176
@46113 Channel: 0 Note on, C2 key=36 velocity: 0
@46136 Channel: 0 Command:176
@46140 Channel: 0 Note on, C2 key=36 velocity: 127
@46157 Channel: 0 Note on, C2 key=36 velocity: 0
@46166 Channel: 0 Command:176
@46170 Channel: 0 Note on, C2 key=36 velocity: 127
@46185 Channel: 0 Note on, C2 key=36 velocity: 0
@46197 Channel: 0 Command:176
@46200 Channel: 0 Note on, C2 key=36 velocity: 127
@46217 Channel: 0 Note on, C2 key=36 velocity: 0
@46227 Channel: 0 Command:176
@46230 Channel: 0 Note on, C2 key=36 velocity: 127
@46247 Channel: 0 Note on, C2 key=36 velocity: 0
@46258 Channel: 0 Command:176
@46260 Channel: 0 Note on, C2 key=36 velocity: 127
@46279 Channel: 0 Note on, C2 key=36 velocity: 0
@46288 Channel: 0 Command:176
@46290 Channel: 0 Note on, C2 key=36 velocity: 127
@46307 Channel: 0 Note on, C2 key=36 velocity: 0
@46319 Channel: 0 Command:176
@46320 Channel: 0 Note on, C2 key=36 velocity: 127
@46349 Channel: 0 Note on, C2 key=36 velocity: 0
@46350 Channel: 0 Command:176
@46380 Channel: 0 Command:176
@46380 Channel: 0 Note on, C2 key=36 velocity: 127
@46397 Channel: 0 Note on, C2 key=36 velocity: 0
@46410 Channel: 0 Note on, C2 key=36 velocity: 127
@46411 Channel: 0 Command:176
@46430 Channel: 0 Note on, C2 key=36 velocity: 0
@46440 Channel: 0 Note on, C2 key=36 velocity: 127
@46441 Channel: 0 Command:176
@46456 Channel: 0 Note on, C2 key=36 velocity: 0
@46470 Channel: 0 Note on, C2 key=36 velocity: 127
@46472 Channel: 0 Command:176
@46490 Channel: 0 Note on, C2 key=36 velocity: 0
@46500 Channel: 0 Note on, C2 key=36 velocity: 127
@46502 Channel: 0 Command:176
@46516 Channel: 0 Note on, C2 key=36 velocity: 0
@46530 Channel: 0 Note on, C2 key=36 velocity: 127
@46533 Channel: 0 Command:176
@46552 Channel: 0 Note on, C2 key=36 velocity: 0
@46560 Channel: 0 Note on, C2 key=36 velocity: 127
@46563 Channel: 0 Command:176
@46587 Channel: 0 Note on, C2 key=36 velocity: 0
@46594 Channel: 0 Command:176
@46620 Channel: 0 Note on, C2 key=36 velocity: 127
@46624 Channel: 0 Command:176
@46639 Channel: 0 Note on, C2 key=36 velocity: 0
@46650 Channel: 0 Note on, C2 key=36 velocity: 127
@46655 Channel: 0 Command:176
@46667 Channel: 0 Note on, C2 key=36 velocity: 0
@46680 Channel: 0 Note on, C2 key=36 velocity: 127
@46685 Channel: 0 Command:176
@46697 Channel: 0 Note on, C2 key=36 velocity: 0
@46710 Channel: 0 Note on, C2 key=36 velocity: 127
@46716 Channel: 0 Command:176
@46725 Channel: 0 Note on, C2 key=36 velocity: 0
@46740 Channel: 0 Note on, C2 key=36 velocity: 127
@46747 Channel: 0 Command:176
@46757 Channel: 0 Note on, C2 key=36 velocity: 0
@46770 Channel: 0 Note on, C2 key=36 velocity: 127
@46777 Channel: 0 Command:176
@46788 Channel: 0 Note on, C2 key=36 velocity: 0
@46800 Channel: 0 Note on, C2 key=36 velocity: 127
@46808 Channel: 0 Command:176
@46825 Channel: 0 Note on, C2 key=36 velocity: 0
@46838 Channel: 0 Command:176
@46860 Channel: 0 Note on, C2 key=36 velocity: 127
@46869 Channel: 0 Command:176
@46876 Channel: 0 Note on, C2 key=36 velocity: 0
@46890 Channel: 0 Note on, C2 key=36 velocity: 127
@46899 Channel: 0 Command:176
@46910 Channel: 0 Note on, C2 key=36 velocity: 0
@46920 Channel: 0 Note on, C2 key=36 velocity: 127
@46930 Channel: 0 Command:176
@46936 Channel: 0 Note on, C2 key=36 velocity: 0
@46950 Channel: 0 Note on, C2 key=36 velocity: 127
@46960 Channel: 0 Command:176
@46968 Channel: 0 Note on, C2 key=36 velocity: 0
@46980 Channel: 0 Note on, C2 key=36 velocity: 127
@46991 Channel: 0 Command:176
@46995 Channel: 0 Note on, C2 key=36 velocity: 0
@47010 Channel: 0 Note on, C2 key=36 velocity: 127
@47021 Channel: 0 Command:176
@47029 Channel: 0 Note on, C2 key=36 velocity: 0
@47040 Channel: 0 Note on, C2 key=36 velocity: 127
@47052 Channel: 0 Command:176
@47067 Channel: 0 Note on, C2 key=36 velocity: 0
@47082 Channel: 0 Command:176
@47100 Channel: 0 Note on, C2 key=36 velocity: 127
@47113 Channel: 0 Command:176
@47119 Channel: 0 Note on, C2 key=36 velocity: 0
@47130 Channel: 0 Note on, C2 key=36 velocity: 127
@47143 Channel: 0 Command:176
@47147 Channel: 0 Note on, C2 key=36 velocity: 0
@47160 Channel: 0 Note on, C2 key=36 velocity: 127
@47174 Channel: 0 Command:176
@47177 Channel: 0 Note on, C2 key=36 velocity: 0
@47190 Channel: 0 Note on, C2 key=36 velocity: 127
@47205 Channel: 0 Note on, C2 key=36 velocity: 0
@47205 Channel: 0 Command:176
@47220 Channel: 0 Note on, C2 key=36 velocity: 127
@47235 Channel: 0 Command:176
@47237 Channel: 0 Note on, C2 key=36 velocity: 0
@47250 Channel: 0 Note on, C2 key=36 velocity: 127
@47266 Channel: 0 Command:176
@47268 Channel: 0 Note on, C2 key=36 velocity: 0
@47280 Channel: 0 Note on, C2 key=36 velocity: 127
@47296 Channel: 0 Command:176
@47305 Channel: 0 Note on, C2 key=36 velocity: 0
@47327 Channel: 0 Command:176
@47340 Channel: 0 Note on, C2 key=36 velocity: 127
@47356 Channel: 0 Note on, C2 key=36 velocity: 0
@47357 Channel: 0 Command:176
@47370 Channel: 0 Note on, C2 key=36 velocity: 127
@47388 Channel: 0 Command:176
@47390 Channel: 0 Note on, C2 key=36 velocity: 0
@47400 Channel: 0 Note on, C2 key=36 velocity: 127
@47416 Channel: 0 Note on, C2 key=36 velocity: 0
@47418 Channel: 0 Command:176
@47430 Channel: 0 Note on, C2 key=36 velocity: 127
@47448 Channel: 0 Note on, C2 key=36 velocity: 0
@47449 Channel: 0 Command:176
@47460 Channel: 0 Note on, C2 key=36 velocity: 127
@47475 Channel: 0 Note on, C2 key=36 velocity: 0
@47479 Channel: 0 Command:176
@47490 Channel: 0 Note on, C2 key=36 velocity: 127
@47509 Channel: 0 Note on, C2 key=36 velocity: 0
@47510 Channel: 0 Command:176
@47520 Channel: 0 Note on, C2 key=36 velocity: 127
@47540 Channel: 0 Command:176
@47547 Channel: 0 Note on, C2 key=36 velocity: 0
@47571 Channel: 0 Command:176
@47580 Channel: 0 Note on, C2 key=36 velocity: 127
@47599 Channel: 0 Note on, C2 key=36 velocity: 0
@47602 Channel: 0 Command:176
@47610 Channel: 0 Note on, C2 key=36 velocity: 127
@47627 Channel: 0 Note on, C2 key=36 velocity: 0
@47632 Channel: 0 Command:176
@47640 Channel: 0 Note on, C2 key=36 velocity: 127
@47657 Channel: 0 Note on, C2 key=36 velocity: 0
@47663 Channel: 0 Command:176
@47670 Channel: 0 Note on, C2 key=36 velocity: 127
@47685 Channel: 0 Note on, C2 key=36 velocity: 0
@47693 Channel: 0 Command:176
@47700 Channel: 0 Note on, C2 key=36 velocity: 127
@47717 Channel: 0 Note on, C2 key=36 velocity: 0
@47724 Channel: 0 Command:176
@47730 Channel: 0 Note on, C2 key=36 velocity: 127
@47748 Channel: 0 Note on, C2 key=36 velocity: 0
@47754 Channel: 0 Command:176
@47760 Channel: 0 Note on, C2 key=36 velocity: 127
@47785 Channel: 0 Note on, C2 key=36 velocity: 0
@47785 Channel: 0 Command:176
@47815 Channel: 0 Command:176
@47820 Channel: 0 Note on, C2 key=36 velocity: 127
@47836 Channel: 0 Note on, C2 key=36 velocity: 0
@47846 Channel: 0 Command:176
@47850 Channel: 0 Note on, C2 key=36 velocity: 127
@47870 Channel: 0 Note on, C2 key=36 velocity: 0
@47876 Channel: 0 Command:176
@47880 Channel: 0 Note on, C2 key=36 velocity: 127
@47896 Channel: 0 Note on, C2 key=36 velocity: 0
@47907 Channel: 0 Command:176
@47910 Channel: 0 Note on, C2 key=36 velocity: 127
@47928 Channel: 0 Note on, C2 key=36 velocity: 0
@47937 Channel: 0 Command:176
@47940 Channel: 0 Note on, C2 key=36 velocity: 127
@47955 Channel: 0 Note on, C2 key=36 velocity: 0
@47968 Channel: 0 Command:176
@47970 Channel: 0 Note on, C2 key=36 velocity: 127
@47989 Channel: 0 Note on, C2 key=36 velocity: 0
@47999 Channel: 0 Command:176
@47999 Other message: class javax.sound.midi.Track$ImmutableEndOfTrack

Track 15: size = 249

@0 Other message: class javax.sound.midi.MetaMessage
@0 Other message: class javax.sound.midi.MetaMessage
@0 Channel: 10 Command:192
@0 Channel: 10 Command:176
@0 Channel: 10 Command:176
@90 Channel: 10 Command:176
@90 Channel: 10 Command:176
@13440 Channel: 10 Note on, C2 key=36 velocity: 127
@13919 Channel: 10 Note on, C2 key=36 velocity: 0
@13920 Channel: 10 Note on, C2 key=36 velocity: 127
@14399 Channel: 10 Note on, C2 key=36 velocity: 0
@14400 Channel: 10 Note on, C2 key=36 velocity: 127
@14879 Channel: 10 Note on, C2 key=36 velocity: 0
@14880 Channel: 10 Note on, C2 key=36 velocity: 127
@15359 Channel: 10 Note on, C2 key=36 velocity: 0
@15360 Channel: 10 Note on, C2 key=36 velocity: 127
@15839 Channel: 10 Note on, C2 key=36 velocity: 0
@15840 Channel: 10 Note on, C2 key=36 velocity: 127
@16319 Channel: 10 Note on, C2 key=36 velocity: 0
@16320 Channel: 10 Note on, G1 key=31 velocity: 127
@16799 Channel: 10 Note on, G1 key=31 velocity: 0
@16800 Channel: 10 Note on, G1 key=31 velocity: 127
@17279 Channel: 10 Note on, G1 key=31 velocity: 0
@17280 Channel: 10 Note on, E1 key=28 velocity: 127
@17759 Channel: 10 Note on, E1 key=28 velocity: 0
@17760 Channel: 10 Note on, E1 key=28 velocity: 127
@18239 Channel: 10 Note on, E1 key=28 velocity: 0
@18240 Channel: 10 Note on, F1 key=29 velocity: 127
@18719 Channel: 10 Note on, F1 key=29 velocity: 0
@18720 Channel: 10 Note on, F1 key=29 velocity: 127
@19199 Channel: 10 Note on, F1 key=29 velocity: 0
@19200 Channel: 10 Note on, C2 key=36 velocity: 127
@19679 Channel: 10 Note on, C2 key=36 velocity: 0
@19680 Channel: 10 Note on, C2 key=36 velocity: 127
@20159 Channel: 10 Note on, C2 key=36 velocity: 0
@20160 Channel: 10 Note on, G1 key=31 velocity: 127
@20639 Channel: 10 Note on, G1 key=31 velocity: 0
@20640 Channel: 10 Note on, G1 key=31 velocity: 127
@21119 Channel: 10 Note on, G1 key=31 velocity: 0
@21120 Channel: 10 Note on, F1 key=29 velocity: 127
@21599 Channel: 10 Note on, F1 key=29 velocity: 0
@21600 Channel: 10 Note on, A1 key=33 velocity: 127
@22079 Channel: 10 Note on, A1 key=33 velocity: 0
@22080 Channel: 10 Note on, G1 key=31 velocity: 127
@22559 Channel: 10 Note on, G1 key=31 velocity: 0
@22560 Channel: 10 Note on, G1 key=31 velocity: 127
@23039 Channel: 10 Note on, G1 key=31 velocity: 0
@23040 Channel: 10 Note on, C2 key=36 velocity: 127
@23519 Channel: 10 Note on, C2 key=36 velocity: 0
@23520 Channel: 10 Note on, C2 key=36 velocity: 127
@23999 Channel: 10 Note on, C2 key=36 velocity: 0
@24000 Channel: 10 Note on, A1 key=33 velocity: 127
@24479 Channel: 10 Note on, A1 key=33 velocity: 0
@24480 Channel: 10 Note on, A1 key=33 velocity: 127
@24959 Channel: 10 Note on, A1 key=33 velocity: 0
@24960 Channel: 10 Note on, F1 key=29 velocity: 127
@25439 Channel: 10 Note on, F1 key=29 velocity: 0
@25440 Channel: 10 Note on, F1 key=29 velocity: 127
@25919 Channel: 10 Note on, F1 key=29 velocity: 0
@25920 Channel: 10 Note on, E1 key=28 velocity: 127
@26399 Channel: 10 Note on, E1 key=28 velocity: 0
@26400 Channel: 10 Note on, F1 key=29 velocity: 127
@26640 Channel: 10 Note on, F1 key=29 velocity: 0
@26640 Channel: 10 Note on, G1 key=31 velocity: 127
@26880 Channel: 10 Note on, G1 key=31 velocity: 0
@26880 Channel: 10 Note on, C2 key=36 velocity: 127
@27359 Channel: 10 Note on, C2 key=36 velocity: 0
@27360 Channel: 10 Note on, C2 key=36 velocity: 127
@27839 Channel: 10 Note on, C2 key=36 velocity: 0
@27840 Channel: 10 Note on, C2 key=36 velocity: 127
@28319 Channel: 10 Note on, C2 key=36 velocity: 0
@28320 Channel: 10 Note on, C2 key=36 velocity: 127
@28799 Channel: 10 Note on, C2 key=36 velocity: 0
@28800 Channel: 10 Note on, A#1 key=34 velocity: 127
@29279 Channel: 10 Note on, A#1 key=34 velocity: 0
@29280 Channel: 10 Note on, A#1 key=34 velocity: 127
@29759 Channel: 10 Note on, A#1 key=34 velocity: 0
@29760 Channel: 10 Note on, G1 key=31 velocity: 127
@30239 Channel: 10 Note on, G1 key=31 velocity: 0
@30240 Channel: 10 Note on, G1 key=31 velocity: 127
@30719 Channel: 10 Note on, G1 key=31 velocity: 0
@30720 Channel: 10 Note on, C2 key=36 velocity: 127
@31199 Channel: 10 Note on, C2 key=36 velocity: 0
@31200 Channel: 10 Note on, C2 key=36 velocity: 127
@31679 Channel: 10 Note on, C2 key=36 velocity: 0
@31680 Channel: 10 Note on, G1 key=31 velocity: 127
@32159 Channel: 10 Note on, G1 key=31 velocity: 0
@32160 Channel: 10 Note on, G1 key=31 velocity: 127
@32639 Channel: 10 Note on, G1 key=31 velocity: 0
@32640 Channel: 10 Note on, F1 key=29 velocity: 127
@33119 Channel: 10 Note on, F1 key=29 velocity: 0
@33120 Channel: 10 Note on, A1 key=33 velocity: 127
@33599 Channel: 10 Note on, A1 key=33 velocity: 0
@33600 Channel: 10 Note on, G1 key=31 velocity: 127
@34079 Channel: 10 Note on, G1 key=31 velocity: 0
@34080 Channel: 10 Note on, G1 key=31 velocity: 127
@34559 Channel: 10 Note on, G1 key=31 velocity: 0
@34560 Channel: 10 Note on, C2 key=36 velocity: 127
@35039 Channel: 10 Note on, C2 key=36 velocity: 0
@35040 Channel: 10 Note on, C2 key=36 velocity: 127
@35519 Channel: 10 Note on, C2 key=36 velocity: 0
@35520 Channel: 10 Note on, A1 key=33 velocity: 127
@35999 Channel: 10 Note on, A1 key=33 velocity: 0
@36000 Channel: 10 Note on, A1 key=33 velocity: 127
@36479 Channel: 10 Note on, A1 key=33 velocity: 0
@36480 Channel: 10 Note on, F1 key=29 velocity: 127
@36959 Channel: 10 Note on, F1 key=29 velocity: 0
@36960 Channel: 10 Note on, F1 key=29 velocity: 127
@37439 Channel: 10 Note on, F1 key=29 velocity: 0
@37440 Channel: 10 Note on, E1 key=28 velocity: 127
@37919 Channel: 10 Note on, E1 key=28 velocity: 0
@37920 Channel: 10 Note on, F1 key=29 velocity: 127
@38160 Channel: 10 Note on, F1 key=29 velocity: 0
@38160 Channel: 10 Note on, G1 key=31 velocity: 127
@38400 Channel: 10 Note on, G1 key=31 velocity: 0
@38400 Channel: 10 Note on, C2 key=36 velocity: 127
@38879 Channel: 10 Note on, C2 key=36 velocity: 0
@38880 Channel: 10 Note on, C2 key=36 velocity: 127
@39359 Channel: 10 Note on, C2 key=36 velocity: 0
@39360 Channel: 10 Note on, A1 key=33 velocity: 127
@39839 Channel: 10 Note on, A1 key=33 velocity: 0
@39840 Channel: 10 Note on, A1 key=33 velocity: 127
@40319 Channel: 10 Note on, A1 key=33 velocity: 0
@40320 Channel: 10 Note on, F1 key=29 velocity: 127
@40799 Channel: 10 Note on, F1 key=29 velocity: 0
@40800 Channel: 10 Note on, F1 key=29 velocity: 127
@41279 Channel: 10 Note on, F1 key=29 velocity: 0
@41280 Channel: 10 Note on, E1 key=28 velocity: 127
@41759 Channel: 10 Note on, E1 key=28 velocity: 0
@41760 Channel: 10 Note on, F1 key=29 velocity: 127
@42000 Channel: 10 Note on, F1 key=29 velocity: 0
@42000 Channel: 10 Note on, G1 key=31 velocity: 127
@42240 Channel: 10 Note on, G1 key=31 velocity: 0
@42240 Channel: 10 Note on, C2 key=36 velocity: 127
@42719 Channel: 10 Note on, C2 key=36 velocity: 0
@42720 Channel: 10 Note on, C2 key=36 velocity: 127
@43199 Channel: 10 Note on, C2 key=36 velocity: 0
@43200 Channel: 10 Note on, C2 key=36 velocity: 127
@43679 Channel: 10 Note on, C2 key=36 velocity: 0
@43680 Channel: 10 Note on, C2 key=36 velocity: 127
@44159 Channel: 10 Note on, C2 key=36 velocity: 0
@44160 Channel: 10 Note on, C2 key=36 velocity: 127
@44639 Channel: 10 Note on, C2 key=36 velocity: 0
@44640 Channel: 10 Command:176
@44640 Channel: 10 Note on, C2 key=36 velocity: 127
@44677 Channel: 10 Command:176
@44714 Channel: 10 Command:176
@44751 Channel: 10 Command:176
@44789 Channel: 10 Command:176
@44826 Channel: 10 Command:176
@44863 Channel: 10 Command:176
@44901 Channel: 10 Command:176
@44938 Channel: 10 Command:176
@44975 Channel: 10 Command:176
@45013 Channel: 10 Command:176
@45050 Channel: 10 Command:176
@45087 Channel: 10 Command:176
@45119 Channel: 10 Note on, C2 key=36 velocity: 0
@45120 Channel: 10 Note on, C2 key=36 velocity: 127
@45125 Channel: 10 Command:176
@45162 Channel: 10 Command:176
@45199 Channel: 10 Command:176
@45237 Channel: 10 Command:176
@45274 Channel: 10 Command:176
@45311 Channel: 10 Command:176
@45349 Channel: 10 Command:176
@45386 Channel: 10 Command:176
@45423 Channel: 10 Command:176
@45461 Channel: 10 Command:176
@45498 Channel: 10 Command:176
@45535 Channel: 10 Command:176
@45573 Channel: 10 Command:176
@45599 Channel: 10 Note on, C2 key=36 velocity: 0
@45600 Channel: 10 Note on, C2 key=36 velocity: 127
@45610 Channel: 10 Command:176
@45647 Channel: 10 Command:176
@45685 Channel: 10 Command:176
@45722 Channel: 10 Command:176
@45759 Channel: 10 Command:176
@45796 Channel: 10 Command:176
@45834 Channel: 10 Command:176
@45871 Channel: 10 Command:176
@45908 Channel: 10 Command:176
@45946 Channel: 10 Command:176
@45983 Channel: 10 Command:176
@46020 Channel: 10 Command:176
@46058 Channel: 10 Command:176
@46079 Channel: 10 Note on, C2 key=36 velocity: 0
@46080 Channel: 10 Note on, C2 key=36 velocity: 127
@46095 Channel: 10 Command:176
@46132 Channel: 10 Command:176
@46170 Channel: 10 Command:176
@46207 Channel: 10 Command:176
@46244 Channel: 10 Command:176
@46282 Channel: 10 Command:176
@46319 Channel: 10 Command:176
@46356 Channel: 10 Command:176
@46394 Channel: 10 Command:176
@46431 Channel: 10 Command:176
@46468 Channel: 10 Command:176
@46506 Channel: 10 Command:176
@46543 Channel: 10 Command:176
@46559 Channel: 10 Note on, C2 key=36 velocity: 0
@46560 Channel: 10 Note on, C2 key=36 velocity: 127
@46580 Channel: 10 Command:176
@46618 Channel: 10 Command:176
@46655 Channel: 10 Command:176
@46692 Channel: 10 Command:176
@46730 Channel: 10 Command:176
@46767 Channel: 10 Command:176
@46804 Channel: 10 Command:176
@46842 Channel: 10 Command:176
@46879 Channel: 10 Command:176
@46916 Channel: 10 Command:176
@46953 Channel: 10 Command:176
@46991 Channel: 10 Command:176
@47028 Channel: 10 Command:176
@47039 Channel: 10 Note on, C2 key=36 velocity: 0
@47040 Channel: 10 Note on, C2 key=36 velocity: 127
@47065 Channel: 10 Command:176
@47103 Channel: 10 Command:176
@47140 Channel: 10 Command:176
@47177 Channel: 10 Command:176
@47215 Channel: 10 Command:176
@47252 Channel: 10 Command:176
@47289 Channel: 10 Command:176
@47327 Channel: 10 Command:176
@47364 Channel: 10 Command:176
@47401 Channel: 10 Command:176
@47439 Channel: 10 Command:176
@47476 Channel: 10 Command:176
@47513 Channel: 10 Command:176
@47519 Channel: 10 Note on, C2 key=36 velocity: 0
@47520 Channel: 10 Note on, C2 key=36 velocity: 127
@47551 Channel: 10 Command:176
@47588 Channel: 10 Command:176
@47625 Channel: 10 Command:176
@47663 Channel: 10 Command:176
@47700 Channel: 10 Command:176
@47737 Channel: 10 Command:176
@47775 Channel: 10 Command:176
@47812 Channel: 10 Command:176
@47849 Channel: 10 Command:176
@47887 Channel: 10 Command:176
@47924 Channel: 10 Command:176
@47961 Channel: 10 Command:176
@47999 Channel: 10 Note on, C2 key=36 velocity: 0
@47999 Channel: 10 Command:176
@47999 Other message: class javax.sound.midi.Track$ImmutableEndOfTrack

Track 16: size = 3

@0 Other message: class javax.sound.midi.MetaMessage
@0 Other message: class javax.sound.midi.MetaMessage
@0 Other message: class javax.sound.midi.Track$ImmutableEndOfTrack

Track 17: size = 3

@0 Other message: class javax.sound.midi.MetaMessage
@0 Other message: class javax.sound.midi.MetaMessage
@0 Other message: class javax.sound.midi.Track$ImmutableEndOfTrack

Track 18: size = 3

@0 Other message: class javax.sound.midi.MetaMessage
@0 Other message: class javax.sound.midi.MetaMessage
@0 Other message: class javax.sound.midi.Track$ImmutableEndOfTrack

